<svg width="3" height="6" viewBox="0 0 3 6" fill="none" xmlns="http://www.w3.org/2000/svg">
<path d="M1.73992 0.155664C1.74294 0.159666 1.70666 0.241706 1.63713 0.393778C1.56003 0.555856 1.45724 0.773962 1.33177 1.04009C1.05968 1.60036 0.686297 2.36872 0.253966 3.25715L0.216174 3.18112C0.581994 3.09708 0.979557 3.00703 1.39224 2.91298C1.81096 2.81894 2.21609 2.72889 2.58795 2.64485L2.67412 2.62485L2.62574 2.72089C2.18283 3.59331 1.80038 4.34567 1.52224 4.89593C1.3877 5.15205 1.27886 5.36216 1.19724 5.51823C1.12014 5.6623 1.07782 5.73834 1.07328 5.73633C1.07026 5.73233 1.10654 5.6503 1.17607 5.50022C1.25317 5.33815 1.35596 5.12404 1.48294 4.86192C1.75655 4.30765 2.12992 3.54729 2.56377 2.66687L2.60156 2.74291C2.22969 2.82695 1.82608 2.91899 1.40736 3.01503C0.994675 3.10708 0.597111 3.19712 0.22978 3.27916L0.143616 3.29917L0.191988 3.20312C0.63339 2.3227 1.01584 1.56234 1.29398 1.00807C1.42701 0.747949 1.53584 0.53785 1.61899 0.377774C1.69306 0.229703 1.73538 0.151662 1.73992 0.155664Z" fill="black"/>
</svg>
