<svg width="18" height="16" viewBox="0 0 18 16" fill="none" xmlns="http://www.w3.org/2000/svg">
<path d="M13.1837 1.20779L0.714844 5.56018L3.2434 15.3113L15.7123 10.9589L13.1837 1.20779Z" fill="white" stroke="black" stroke-width="0.5" stroke-miterlimit="10"/>
<path d="M15.7123 10.9573C15.7123 10.9573 15.6934 10.8953 15.6623 10.7793C15.6295 10.6592 15.5847 10.4871 15.5243 10.265C15.4036 9.81079 15.2294 9.15047 15.007 8.30407C14.5637 6.60926 13.9256 4.1801 13.1495 1.21868L13.1944 1.24669C9.75373 2.45127 5.42145 3.96599 0.728731 5.60878H0.727007L0.756325 5.54475C1.65658 9.02041 2.512 12.326 3.28119 15.2974L3.22945 15.2654C6.89946 13.9948 10.0141 12.9163 12.213 12.1539C13.3134 11.7757 14.1843 11.4756 14.7845 11.2695C15.0828 11.1674 15.3122 11.0894 15.4709 11.0354C15.5468 11.0094 15.6054 10.9914 15.6485 10.9753C15.6916 10.9633 15.7123 10.9573 15.7123 10.9573C15.7123 10.9573 15.6951 10.9653 15.6554 10.9793C15.614 10.9954 15.5571 11.0154 15.483 11.0414C15.326 11.0974 15.1001 11.1774 14.8086 11.2835C14.2119 11.4956 13.3461 11.8017 12.2527 12.1899C10.0504 12.9643 6.9305 14.0628 3.25531 15.3554L3.21565 15.3694L3.20357 15.3234C2.43266 12.352 1.5738 9.04842 0.671817 5.57276L0.65802 5.52274L0.701136 5.50673H0.702859C5.39903 3.87195 9.73131 2.36323 13.1737 1.16465L13.2082 1.15265L13.2185 1.19267C13.9825 4.17009 14.6086 6.61326 15.0466 8.31607C15.2622 9.16048 15.4295 9.82079 15.545 10.273C15.6002 10.4951 15.6433 10.6652 15.6727 10.7833C15.7003 10.9013 15.7123 10.9573 15.7123 10.9573Z" fill="#E0E0E0"/>
<path d="M15.7123 10.9573C15.7123 10.9573 15.6934 10.8953 15.6623 10.7793C15.6295 10.6592 15.5847 10.4871 15.5243 10.265C15.4036 9.81079 15.2294 9.15047 15.007 8.30407C14.5637 6.60926 13.9256 4.1801 13.1495 1.21868L13.1944 1.24669C9.75373 2.45127 5.42145 3.96599 0.728731 5.60878H0.727007L0.756325 5.54475C1.65658 9.02041 2.512 12.326 3.28119 15.2974L3.22945 15.2654C6.89946 13.9948 10.0141 12.9163 12.213 12.1539C13.3134 11.7757 14.1843 11.4756 14.7845 11.2695C15.0828 11.1674 15.3122 11.0894 15.4709 11.0354C15.5468 11.0094 15.6054 10.9914 15.6485 10.9753C15.6916 10.9633 15.7123 10.9573 15.7123 10.9573ZM15.7123 10.9573C15.7123 10.9573 15.6951 10.9653 15.6554 10.9793C15.614 10.9954 15.5571 11.0154 15.483 11.0414C15.326 11.0974 15.1001 11.1774 14.8086 11.2835C14.2119 11.4956 13.3461 11.8017 12.2527 12.1899C10.0504 12.9643 6.9305 14.0628 3.25531 15.3554L3.21565 15.3694L3.20357 15.3234C2.43266 12.352 1.5738 9.04842 0.671817 5.57276L0.65802 5.52274L0.701136 5.50673H0.702859C5.39903 3.87195 9.73131 2.36323 13.1737 1.16465L13.2082 1.15265L13.2185 1.19267C13.9825 4.17009 14.6086 6.61326 15.0466 8.31607C15.2622 9.16048 15.4295 9.82079 15.545 10.273C15.6002 10.4951 15.6433 10.6652 15.6727 10.7833C15.7003 10.9013 15.7123 10.9573 15.7123 10.9573Z" stroke="black" stroke-width="0.5" stroke-miterlimit="10"/>
<path d="M13.1841 1.20667C13.1858 1.20667 13.1789 1.22267 13.1668 1.25069C13.1513 1.2847 13.1323 1.32472 13.1082 1.37475C13.0513 1.4908 12.9736 1.64688 12.8753 1.84697C12.6667 2.26317 12.37 2.85345 12.0061 3.5818C11.2594 5.0505 10.2298 7.07547 9.0846 9.33255L9.06563 9.37057L9.02941 9.35456C8.90869 9.30053 8.77762 9.24251 8.64827 9.18248C6.45799 8.192 4.47466 7.29358 3.03287 6.64126C2.3206 6.31311 1.74285 6.04698 1.33411 5.85889C1.13922 5.76684 0.985733 5.69481 0.873632 5.64079C0.825342 5.61677 0.785675 5.59677 0.754632 5.58276C0.728762 5.56875 0.714966 5.56075 0.714966 5.55875C0.714966 5.55674 0.730488 5.56075 0.758082 5.57275C0.79085 5.58676 0.830517 5.60277 0.880532 5.62278C0.994357 5.6708 1.14957 5.73683 1.34618 5.82287C1.75664 6.00296 2.33785 6.25908 3.05529 6.57323C4.50053 7.21954 6.48731 8.10596 8.68104 9.08643C8.81211 9.14446 8.94146 9.20449 9.06218 9.25852L9.00699 9.28053C10.1625 7.03145 11.2007 5.01249 11.9527 3.54779C12.3286 2.82744 12.6322 2.24116 12.846 1.82896C12.9495 1.63287 13.0323 1.4788 13.0926 1.36674C13.1185 1.31872 13.1409 1.2787 13.1582 1.24869C13.1754 1.21867 13.1823 1.20667 13.1841 1.20667Z" fill="#E0E0E0" stroke="black" stroke-width="0.5" stroke-miterlimit="10"/>
</svg>
