<svg width="43" height="14" viewBox="0 0 43 14" fill="none" xmlns="http://www.w3.org/2000/svg">
<path d="M40.6095 12.6512H2.64793C1.73696 12.6512 0.998871 11.9102 0.998871 10.9956V2.59717C0.998871 1.68256 1.73696 0.941528 2.64793 0.941528H40.6095C41.5205 0.941528 42.2586 1.68256 42.2586 2.59717V10.9956C42.2569 11.9102 41.5188 12.6512 40.6095 12.6512Z" fill="white" stroke="#263238" stroke-miterlimit="10"/>
<path d="M4.80402 9.81739C4.42999 9.81739 4.11913 9.73728 3.87144 9.57706C3.62375 9.41683 3.4359 9.19486 3.3079 8.90946C3.1799 8.62573 3.10509 8.29527 3.08348 7.92141L3.88307 7.70444C3.8997 7.93476 3.93461 8.15674 3.99113 8.37204C4.04765 8.58567 4.13908 8.76092 4.26708 8.89778C4.39508 9.03464 4.57462 9.10306 4.80402 9.10306C5.03841 9.10306 5.21628 9.03797 5.33597 8.90612C5.45566 8.77427 5.51551 8.58568 5.51551 8.34033C5.51551 8.04659 5.44901 7.80792 5.31602 7.62934C5.18304 7.45075 5.01514 7.26883 4.81233 7.08691L3.72349 6.12223C3.51071 5.9353 3.35278 5.73002 3.25138 5.50804C3.14997 5.28606 3.09844 5.01068 3.09844 4.68356C3.09844 4.20622 3.23476 3.83737 3.50738 3.57534C3.78001 3.31331 4.15071 3.18146 4.6195 3.18146C4.8755 3.18146 5.10158 3.21484 5.29608 3.2816C5.49057 3.34836 5.65348 3.45183 5.78481 3.59036C5.91614 3.72889 6.0192 3.9058 6.09733 4.1161C6.1738 4.32806 6.227 4.57507 6.25359 4.8588L5.48559 5.06743C5.46896 4.85379 5.43738 4.65685 5.38917 4.4766C5.34096 4.29635 5.25784 4.15282 5.13649 4.04266C5.0168 3.93251 4.84392 3.87743 4.6195 3.87743C4.39508 3.87743 4.22053 3.93751 4.09586 4.05768C3.97118 4.17785 3.90801 4.35643 3.90801 4.59176C3.90801 4.79037 3.94126 4.95393 4.00775 5.08245C4.07424 5.21096 4.1823 5.34281 4.33191 5.47633L5.42907 6.44101C5.67509 6.65464 5.8912 6.91167 6.07738 7.20875C6.26357 7.50583 6.35832 7.85799 6.35832 8.26523C6.35832 8.58734 6.29183 8.8644 6.15884 9.09639C6.02585 9.33005 5.84299 9.50696 5.61026 9.63047C5.37587 9.75564 5.10823 9.81739 4.80402 9.81739Z" fill="#799093" stroke="#263238" stroke-width="0.3" stroke-miterlimit="10"/>
<path d="M7.773 9.74561V3.91079H6.67584V3.23651H9.74123V3.91079H8.67732V9.74561H7.773Z" fill="#799093" stroke="#263238" stroke-width="0.3" stroke-miterlimit="10"/>
<path d="M9.99887 9.74561L11.3753 3.23651H12.248L13.6328 9.74561H12.7767L12.4808 8.10665H11.1609L10.8483 9.74561H9.99887ZM11.2789 7.45407H12.3594L11.8158 4.52164L11.2789 7.45407Z" fill="#799093" stroke="#263238" stroke-width="0.3" stroke-miterlimit="10"/>
<path d="M14.2878 9.74561V3.23651H15.5927C16.0249 3.23651 16.3823 3.29493 16.6649 3.41009C16.9475 3.52525 17.157 3.71051 17.2933 3.96419C17.4296 4.21788 17.4978 4.55168 17.4978 4.96392C17.4978 5.21594 17.4712 5.4446 17.418 5.65155C17.3648 5.85851 17.2783 6.03208 17.162 6.17395C17.0439 6.31581 16.8893 6.41929 16.6982 6.48271L17.6191 9.74561H16.7464L15.8986 6.69134H15.1937V9.74561H14.2878ZM15.1921 6.04043H15.5362C15.7922 6.04043 16 6.00872 16.1612 5.94363C16.3208 5.87854 16.4388 5.77005 16.5136 5.61483C16.5885 5.45962 16.625 5.24265 16.625 4.96392C16.625 4.58339 16.5552 4.30968 16.4172 4.14111C16.2793 3.97254 16.0033 3.88742 15.5927 3.88742H15.1921V6.04043V6.04043Z" fill="#799093" stroke="#263238" stroke-width="0.3" stroke-miterlimit="10"/>
<path d="M19.1551 9.74561V3.91079H18.058V3.23651H21.1234V3.91079H20.0595V9.74561H19.1551Z" fill="#799093" stroke="#263238" stroke-width="0.3" stroke-miterlimit="10"/>
<path d="M23.5803 9.74561V3.23651H24.9883C25.4688 3.23651 25.8494 3.30995 26.1287 3.45682C26.4097 3.60369 26.6091 3.82567 26.7288 4.11941C26.8485 4.41482 26.9084 4.78033 26.9084 5.22095V7.61596C26.9084 8.07661 26.8485 8.46548 26.7288 8.78092C26.6091 9.09636 26.4146 9.3367 26.1453 9.50026C25.876 9.66382 25.5136 9.74561 25.0615 9.74561H23.5803V9.74561ZM24.4846 9.09469H24.9967C25.3275 9.09469 25.5619 9.02961 25.7015 8.90109C25.8395 8.77258 25.9242 8.58565 25.9542 8.33864C25.9841 8.09163 25.9974 7.79455 25.9974 7.44739V5.33444C25.9974 4.9973 25.9758 4.72359 25.9342 4.51496C25.891 4.30634 25.7979 4.15279 25.6533 4.05766C25.5087 3.96086 25.2826 3.91246 24.9734 3.91246H24.4846V9.09469Z" fill="#799093" stroke="#263238" stroke-width="0.3" stroke-miterlimit="10"/>
<path d="M27.7994 9.74561V3.23651H30.3129V3.91079H28.7037V6.0638H30.0087V6.70636H28.7037V9.09303H30.3278V9.74393H27.7994V9.74561Z" fill="#799093" stroke="#263238" stroke-width="0.3" stroke-miterlimit="10"/>
<path d="M31.041 9.74561L31.1607 3.23651H32.0484L33.1937 8.51555L34.3458 3.23651H35.2268L35.3465 9.74561H34.6184L34.5469 5.02067L33.4497 9.74561H32.9377L31.8489 5.02067L31.7774 9.74561H31.041Z" fill="#799093" stroke="#263238" stroke-width="0.3" stroke-miterlimit="10"/>
<path d="M37.9963 9.81725C37.5591 9.81725 37.2083 9.73214 36.9474 9.56023C36.6864 9.38832 36.4985 9.14298 36.3871 8.8242C36.2758 8.50542 36.2192 8.13157 36.2192 7.70263V5.23585C36.2192 4.80692 36.2758 4.43974 36.3921 4.13098C36.5068 3.82221 36.693 3.58688 36.9523 3.42332C37.2117 3.25976 37.5591 3.17798 37.9963 3.17798C38.4335 3.17798 38.7809 3.26143 39.0369 3.42666C39.2929 3.59356 39.4791 3.82889 39.5938 4.13431C39.7085 4.43974 39.7667 4.80692 39.7667 5.23585V7.71098C39.7667 8.1349 39.7085 8.50375 39.5938 8.81919C39.4791 9.13464 39.2929 9.37998 39.0369 9.55522C38.7809 9.73047 38.4335 9.81725 37.9963 9.81725ZM37.9963 9.10126C38.2357 9.10126 38.4185 9.05119 38.5399 8.95271C38.6629 8.85424 38.746 8.71405 38.7876 8.53547C38.8308 8.35688 38.8524 8.14659 38.8524 7.90458V5.05226C38.8524 4.81193 38.8308 4.6033 38.7876 4.42973C38.7444 4.25615 38.6629 4.12096 38.5399 4.0275C38.4169 3.93403 38.2357 3.8873 37.9963 3.8873C37.7569 3.8873 37.5741 3.93403 37.4477 4.0275C37.323 4.12096 37.2383 4.25448 37.195 4.42973C37.1518 4.6033 37.1302 4.81193 37.1302 5.05226V7.90458C37.1302 8.14492 37.1518 8.35688 37.195 8.53547C37.2383 8.71572 37.3214 8.85424 37.4477 8.95271C37.5724 9.05285 37.7553 9.10126 37.9963 9.10126Z" fill="#799093" stroke="#263238" stroke-width="0.3" stroke-miterlimit="10"/>
</svg>
