<svg width="20" height="17" viewBox="0 0 20 17" fill="none" xmlns="http://www.w3.org/2000/svg">
<path d="M17.4563 0.273315H1.4884V16.1385H17.4563V0.273315Z" fill="#E0E0E0" stroke="black" stroke-width="0.5" stroke-miterlimit="10"/>
<path d="M16.3754 0.273193H0.407532V16.1384H16.3754V0.273193Z" fill="#FAFAFA" stroke="black" stroke-width="0.5" stroke-miterlimit="10"/>
<path d="M16.3803 16.1433H0.402466V0.268555H16.3803V16.1433V16.1433ZM0.41246 16.1338H16.3703V0.27808H0.41246V16.1338Z" fill="#E0E0E0" stroke="black" stroke-width="0.5" stroke-miterlimit="10"/>
<path d="M14.2284 2.40527H2.5527V14.005H14.2284V2.40527Z" fill="white" stroke="black" stroke-width="0.5" stroke-miterlimit="10"/>
<path d="M2.5527 14.0828C2.5627 14.0939 2.4511 14.2145 2.26456 14.4019C2.07801 14.5892 1.81652 14.8432 1.52171 15.1194C1.22857 15.3956 0.958744 15.6401 0.758875 15.8147C0.559006 15.9893 0.430757 16.0925 0.420763 16.083C0.41077 16.0735 0.520698 15.9528 0.707243 15.7655C0.893787 15.5782 1.15695 15.3242 1.45176 15.0464C1.74656 14.7702 2.01639 14.5241 2.21625 14.3495C2.41612 14.1749 2.54437 14.0717 2.5527 14.0828Z" fill="#E0E0E0" stroke="black" stroke-width="0.5" stroke-miterlimit="10"/>
<path d="M14.2284 14.0542C14.24 14.0447 14.3666 14.151 14.5632 14.3288C14.7597 14.5066 15.0262 14.7558 15.316 15.0368C15.6058 15.3162 15.8623 15.5734 16.0455 15.7639C16.2287 15.9544 16.337 16.0766 16.327 16.0861C16.317 16.0957 16.1904 15.9909 15.9939 15.8131C15.7973 15.6353 15.5308 15.3845 15.2394 15.1035C14.9496 14.8225 14.6914 14.5653 14.5082 14.3748C14.325 14.1844 14.2184 14.0621 14.2284 14.0542Z" fill="#E0E0E0" stroke="black" stroke-width="0.5" stroke-miterlimit="10"/>
<path d="M14.1968 2.43704C14.1868 2.42593 14.2984 2.30528 14.4849 2.11796C14.6715 1.93064 14.933 1.67664 15.2278 1.40042C15.5209 1.1242 15.7907 0.87973 15.9906 0.705108C16.1905 0.530486 16.3187 0.4273 16.3287 0.436825C16.3387 0.44635 16.2288 0.566998 16.0422 0.75432C15.8557 0.941642 15.5925 1.19564 15.2977 1.47345C15.0029 1.74967 14.7331 1.99573 14.5332 2.17035C14.3334 2.34497 14.2051 2.44657 14.1968 2.43704Z" fill="#E0E0E0" stroke="black" stroke-width="0.5" stroke-miterlimit="10"/>
<path d="M2.52105 2.46561C2.50939 2.47514 2.3828 2.36878 2.18627 2.19098C1.98973 2.01318 1.72324 1.76395 1.43343 1.48296C1.14361 1.20357 0.885451 0.946398 0.703903 0.755901C0.52069 0.565404 0.412427 0.443168 0.42242 0.433643C0.432414 0.424118 0.558997 0.528891 0.755535 0.706689C0.952074 0.884486 1.21857 1.13531 1.51004 1.41629C1.79985 1.69727 2.05802 1.95444 2.24123 2.14494C2.42444 2.33544 2.53271 2.45609 2.52105 2.46561Z" fill="#E0E0E0" stroke="black" stroke-width="0.5" stroke-miterlimit="10"/>
<path d="M14.1968 14.005C14.1951 14.005 14.1951 13.9859 14.1935 13.9494C14.1935 13.9097 14.1918 13.8573 14.1901 13.7875C14.1885 13.6414 14.1868 13.4335 14.1851 13.162C14.1818 12.6128 14.1785 11.8127 14.1735 10.7983C14.1685 8.7663 14.1601 5.87234 14.1502 2.40688L14.1951 2.44974C10.7957 2.45133 6.80496 2.4545 2.55274 2.45609H2.55108L2.60271 2.40688C2.59938 6.66449 2.59771 10.6475 2.59605 14.0066L2.55108 13.9637C6.04046 13.9732 8.94523 13.9796 10.9822 13.9859C11.9999 13.9907 12.7994 13.9939 13.3507 13.997C13.6222 13.9986 13.832 14.0002 13.9769 14.0018C14.0452 14.0034 14.0985 14.0034 14.1385 14.005C14.1768 14.0034 14.1951 14.005 14.1968 14.005C14.1985 14.0066 14.1801 14.0066 14.1452 14.0081C14.1068 14.0081 14.0552 14.0097 13.9886 14.0097C13.8454 14.0113 13.6388 14.0129 13.3707 14.0145C12.8227 14.0177 12.0265 14.0208 11.0122 14.0256C8.96854 14.0304 6.05379 14.0383 2.55441 14.0478H2.50944V14.005C2.50777 10.6459 2.50444 6.6629 2.50278 2.40529V2.35608H2.55441H2.55608C6.80829 2.35767 10.799 2.36084 14.1985 2.36243H14.2434V2.40529C14.2334 5.88186 14.2268 8.78535 14.2201 10.8237C14.2151 11.8349 14.2118 12.6302 14.2084 13.1779C14.2068 13.4462 14.2051 13.6526 14.2035 13.7954C14.2018 13.8621 14.2018 13.9145 14.2001 13.9526C14.1985 13.9891 14.1968 14.0066 14.1968 14.005Z" fill="#E0E0E0"/>
<path d="M14.1968 14.005C14.1951 14.005 14.1951 13.9859 14.1935 13.9494C14.1935 13.9097 14.1918 13.8573 14.1901 13.7875C14.1885 13.6414 14.1868 13.4335 14.1851 13.162C14.1818 12.6128 14.1785 11.8127 14.1735 10.7983C14.1685 8.7663 14.1601 5.87234 14.1502 2.40688L14.1951 2.44974C10.7957 2.45133 6.80496 2.4545 2.55274 2.45609H2.55108L2.60271 2.40688C2.59938 6.66449 2.59771 10.6475 2.59605 14.0066L2.55108 13.9637C6.04046 13.9732 8.94523 13.9796 10.9822 13.9859C11.9999 13.9907 12.7994 13.9939 13.3507 13.997C13.6222 13.9986 13.832 14.0002 13.9769 14.0018C14.0452 14.0034 14.0985 14.0034 14.1385 14.005C14.1768 14.0034 14.1951 14.005 14.1968 14.005ZM14.1968 14.005C14.1985 14.0066 14.1801 14.0066 14.1452 14.0081C14.1068 14.0081 14.0552 14.0097 13.9886 14.0097C13.8454 14.0113 13.6388 14.0129 13.3707 14.0145C12.8227 14.0177 12.0265 14.0208 11.0122 14.0256C8.96854 14.0304 6.05379 14.0383 2.55441 14.0478H2.50944V14.005C2.50777 10.6459 2.50444 6.6629 2.50278 2.40529V2.35608H2.55441H2.55608C6.80829 2.35767 10.799 2.36084 14.1985 2.36243H14.2434V2.40529C14.2334 5.88186 14.2268 8.78535 14.2201 10.8237C14.2151 11.8349 14.2118 12.6302 14.2084 13.1779C14.2068 13.4462 14.2051 13.6526 14.2035 13.7954C14.2018 13.8621 14.2018 13.9145 14.2001 13.9526C14.1985 13.9891 14.1968 14.0066 14.1968 14.005Z" stroke="black" stroke-width="0.5" stroke-miterlimit="10"/>
<path d="M10.3392 6.34863H6.44345V10.0617H10.3392V6.34863Z" fill="#EBEBEB" stroke="black" stroke-width="0.5" stroke-miterlimit="10"/>
</svg>
