<svg width="81" height="15" viewBox="0 0 81 15" fill="none" xmlns="http://www.w3.org/2000/svg">
<path d="M62.7258 3.71738C63 4.9425 63 7.5 63 7.5C63 7.5 63 10.0575 62.7258 11.2826C62.5734 11.9598 62.1276 12.4926 61.563 12.6728C60.5376 13 57 13 57 13C57 13 53.4642 13 52.437 12.6728C51.87 12.4899 51.4248 11.9578 51.2742 11.2826C51 10.0575 51 7.5 51 7.5C51 7.5 51 4.9425 51.2742 3.71738C51.4266 3.04019 51.8724 2.50737 52.437 2.32725C53.4642 2 57 2 57 2C57 2 60.5376 2 61.563 2.32725C62.13 2.51012 62.5752 3.04225 62.7258 3.71738V3.71738ZM55.8 9.90625L59.4 7.5L55.8 5.09375V9.90625Z" fill="white"/>
<path d="M74.5 0C76.266 0 76.4864 0.00699996 77.1793 0.042C77.8715 0.077 78.3428 0.1939 78.7575 0.3675C79.1865 0.5453 79.5479 0.7861 79.9093 1.1746C80.2398 1.52453 80.4956 1.94781 80.6587 2.415C80.8193 2.8609 80.9285 3.3691 80.961 4.1146C80.9915 4.8608 81 5.0981 81 7C81 8.9019 80.9935 9.1392 80.961 9.8854C80.9285 10.6309 80.8193 11.1384 80.6587 11.585C80.496 12.0524 80.2402 12.4758 79.9093 12.8254C79.5843 13.1812 79.1913 13.4566 78.7575 13.6325C78.3434 13.8054 77.8715 13.923 77.1793 13.958C76.4864 13.9909 76.266 14 74.5 14C72.7339 14 72.5136 13.993 71.8207 13.958C71.1284 13.923 70.6572 13.8054 70.2425 13.6325C69.8085 13.4571 69.4154 13.1817 69.0907 12.8254C68.7601 12.4755 68.5044 12.0522 68.3413 11.585C68.1801 11.1391 68.0715 10.6309 68.039 9.8854C68.0084 9.1392 68 8.9019 68 7C68 5.0981 68.0065 4.8608 68.039 4.1146C68.0715 3.3684 68.1801 2.8616 68.3413 2.415C68.5039 1.94753 68.7597 1.52412 69.0907 1.1746C69.4155 0.818462 69.8086 0.543011 70.2425 0.3675C70.6572 0.1939 71.1278 0.077 71.8207 0.042C72.5136 0.00909996 72.7339 0 74.5 0ZM74.5 3.5C73.638 3.5 72.8114 3.86875 72.2019 4.52513C71.5924 5.1815 71.25 6.07174 71.25 7C71.25 7.92826 71.5924 8.8185 72.2019 9.47487C72.8114 10.1313 73.638 10.5 74.5 10.5C75.362 10.5 76.1886 10.1313 76.7981 9.47487C77.4076 8.8185 77.75 7.92826 77.75 7C77.75 6.07174 77.4076 5.1815 76.7981 4.52513C76.1886 3.86875 75.362 3.5 74.5 3.5V3.5ZM78.725 3.325C78.725 3.09294 78.6394 2.87038 78.487 2.70628C78.3347 2.54219 78.128 2.45 77.9125 2.45C77.697 2.45 77.4903 2.54219 77.338 2.70628C77.1856 2.87038 77.1 3.09294 77.1 3.325C77.1 3.55706 77.1856 3.77962 77.338 3.94372C77.4903 4.10781 77.697 4.2 77.9125 4.2C78.128 4.2 78.3347 4.10781 78.487 3.94372C78.6394 3.77962 78.725 3.55706 78.725 3.325ZM74.5 4.9C75.0172 4.9 75.5132 5.12125 75.8789 5.51508C76.2446 5.9089 76.45 6.44305 76.45 7C76.45 7.55695 76.2446 8.0911 75.8789 8.48492C75.5132 8.87875 75.0172 9.1 74.5 9.1C73.9828 9.1 73.4868 8.87875 73.1211 8.48492C72.7554 8.0911 72.55 7.55695 72.55 7C72.55 6.44305 72.7554 5.9089 73.1211 5.51508C73.4868 5.12125 73.9828 4.9 74.5 4.9V4.9Z" fill="white"/>
<path d="M6.5 0C2.91005 0 0 3.15298 0 7.04261C0 10.5576 2.37705 13.4711 5.4847 14V9.07792H3.8337V7.04261H5.4847V5.49112C5.4847 3.72624 6.4545 2.75155 7.93975 2.75155C8.65085 2.75155 9.39445 2.88888 9.39445 2.88888V4.62136H8.57545C7.7675 4.62136 7.51595 5.16434 7.51595 5.72141V7.04261H9.3184L9.03045 9.07792H7.51595V14C10.6229 13.4718 13 10.5569 13 7.04261C13 3.15298 10.0899 0 6.5 0Z" fill="white"/>
<path d="M16.0026 15L16.8814 11.5224C16.3023 10.4534 15.9981 9.23759 16 8C16 4.1339 18.9101 1 22.5 1C26.09 1 29 4.1339 29 8C29 11.8661 26.09 15 22.5 15C21.3513 15.002 20.2228 14.6746 19.2305 14.0515L16.0026 15ZM20.1542 4.7156C20.0702 4.72121 19.9882 4.74502 19.913 4.7856C19.8425 4.8286 19.7781 4.88235 19.7219 4.9452C19.6439 5.0243 19.5997 5.0929 19.5523 5.1594C19.312 5.49609 19.1828 5.90939 19.185 6.334C19.1863 6.677 19.2695 7.0109 19.3995 7.3231C19.6654 7.9545 20.1028 8.62299 20.6807 9.24249C20.8198 9.39159 20.9556 9.54139 21.1019 9.68069C21.8191 10.3607 22.6737 10.8511 23.5979 11.1129L23.9677 11.1738C24.088 11.1808 24.2082 11.171 24.3291 11.1647C24.5184 11.1542 24.7033 11.099 24.8706 11.003C24.9785 10.9414 25.0292 10.9106 25.1195 10.849C25.1195 10.849 25.1475 10.8294 25.2008 10.786C25.2885 10.716 25.3425 10.6663 25.4153 10.5844C25.4692 10.5242 25.516 10.4535 25.5518 10.373C25.6025 10.2589 25.6532 10.0412 25.674 9.85989C25.6896 9.72129 25.685 9.64569 25.6831 9.59879C25.6805 9.52389 25.6226 9.44619 25.5596 9.41329L25.1813 9.23059C25.1813 9.23059 24.6158 8.96529 24.2706 8.79589C24.2342 8.77881 24.1952 8.76908 24.1556 8.76719C24.1111 8.76228 24.0661 8.76766 24.0238 8.783C23.9814 8.79833 23.9425 8.82326 23.9099 8.85609V8.85469C23.9066 8.85469 23.8631 8.89459 23.3931 9.50779C23.3661 9.54683 23.329 9.57633 23.2864 9.59253C23.2438 9.60874 23.1977 9.61092 23.1539 9.59879C23.1116 9.5866 23.0701 9.57116 23.0298 9.55259C22.9492 9.51619 22.9212 9.50219 22.866 9.47629L22.8627 9.47489C22.4908 9.30005 22.1466 9.06389 21.8422 8.77489C21.7603 8.69789 21.6843 8.61389 21.6063 8.53269C21.3505 8.26896 21.1277 7.9706 20.9433 7.6451L20.9049 7.5786C20.8774 7.53391 20.8551 7.48571 20.8386 7.4351C20.8139 7.3322 20.8783 7.2496 20.8783 7.2496C20.8783 7.2496 21.0362 7.0634 21.1097 6.9626C21.1708 6.87882 21.2279 6.79167 21.2806 6.7015C21.3573 6.5685 21.3814 6.432 21.3411 6.3263C21.1591 5.8475 20.9706 5.3708 20.7769 4.8976C20.7385 4.8038 20.6248 4.7366 20.5214 4.7233C20.4863 4.7191 20.4512 4.7149 20.4161 4.7121C20.3288 4.70743 20.2413 4.70836 20.1542 4.7149V4.7156Z" fill="white"/>
<path d="M44.2233 11.9303H42.4467V8.68156C42.4467 7.90689 42.4333 6.90978 41.52 6.90978C40.594 6.90978 40.4527 7.75289 40.4527 8.62478V11.9303H38.6753V5.25H40.382V6.16H40.4053C40.644 5.63578 41.224 5.08122 42.0907 5.08122C43.8907 5.08122 44.224 6.46411 44.224 8.26311V11.9303H44.2233ZM36.6687 4.33611C36.533 4.33632 36.3987 4.30529 36.2734 4.2448C36.148 4.18432 36.0342 4.09558 35.9383 3.98365C35.8424 3.87173 35.7664 3.73882 35.7147 3.59257C35.6629 3.44631 35.6364 3.28957 35.6367 3.13133C35.6368 2.8932 35.6975 2.66047 35.811 2.46256C35.9245 2.26465 36.0857 2.11045 36.2744 2.01946C36.463 1.92848 36.6705 1.90479 36.8707 1.9514C37.0708 1.99801 37.2546 2.11281 37.3989 2.28131C37.5431 2.4498 37.6413 2.6644 37.681 2.89799C37.7207 3.13157 37.7001 3.37364 37.6219 3.59358C37.5436 3.81352 37.4112 4.00146 37.2415 4.13363C37.0717 4.2658 36.8721 4.33626 36.668 4.33611H36.6687ZM37.5593 11.9303H35.7773V5.25H37.56V11.9303H37.5593ZM45.1133 0H34.886C34.3953 0 34 0.451111 34 1.00878V12.9912C34 13.5489 34.396 14 34.8853 14H45.1107C45.6 14 46 13.5489 46 12.9912V1.00878C46 0.451111 45.6 0 45.1107 0H45.1127H45.1133Z" fill="white"/>
</svg>
