<svg width="14" height="14" viewBox="0 0 14 14" fill="none" xmlns="http://www.w3.org/2000/svg">
<path d="M12.8647 13.2163L10.5495 12.721C9.51853 13.3258 8.30432 13.6766 7.00517 13.6766C3.26595 13.6766 0.236267 10.7874 0.236267 7.22512C0.236267 3.66124 3.26762 0.773621 7.00517 0.773621C10.7444 0.773621 13.7741 3.66283 13.7741 7.22512C13.7741 8.71258 13.2444 10.0826 12.3567 11.1732L12.36 11.1716L12.8647 13.2163Z" fill="white"/>
<path d="M12.8646 13.2163C12.8646 13.2163 12.8513 13.1703 12.828 13.0814C12.8047 12.9909 12.7714 12.8607 12.7264 12.6893C12.6381 12.3432 12.5082 11.8368 12.34 11.1764L12.37 11.1859L12.3666 11.1875C12.3583 11.1939 12.3467 11.1923 12.34 11.1844C12.335 11.178 12.335 11.1685 12.34 11.1621C12.8696 10.5017 13.4459 9.52545 13.6575 8.24753C13.7108 7.93003 13.7407 7.59666 13.7407 7.24901C13.7241 6.90294 13.7174 6.54417 13.6425 6.18064C13.5159 5.45357 13.2477 4.69793 12.8097 3.98833C12.3733 3.27873 11.7654 2.61517 11.0092 2.08019C10.2547 1.54521 9.34862 1.1404 8.36093 0.943554C7.37158 0.756232 6.30728 0.775283 5.28128 1.03404C4.76329 1.1531 4.26861 1.36106 3.78559 1.59442C3.31923 1.85794 2.85454 2.1421 2.45646 2.51039C2.2466 2.67708 2.07338 2.87869 1.8885 3.0676C1.7919 3.15967 1.72194 3.26921 1.63866 3.37081C1.56038 3.47399 1.47377 3.574 1.40049 3.68036C1.33053 3.7899 1.26224 3.89785 1.19229 4.00738L1.08902 4.16931L1.00241 4.34075C0.944119 4.45505 0.88749 4.56776 0.83086 4.68206C0.775896 4.79636 0.737589 4.91701 0.690952 5.03289C0.331188 5.97109 0.2096 6.96802 0.317862 7.91098C0.426125 8.85553 0.752578 9.74452 1.2306 10.5049C1.70695 11.2685 2.33154 11.9035 3.02109 12.3877C3.71064 12.8734 4.46182 13.2052 5.203 13.4036C5.29627 13.4259 5.38954 13.4497 5.48115 13.4719C5.57276 13.4941 5.66436 13.5195 5.75597 13.5291C5.94085 13.556 6.1224 13.583 6.30061 13.61C6.66204 13.6275 7.01015 13.6592 7.3466 13.6386C8.69738 13.5767 9.78666 13.1433 10.5395 12.7052C10.5445 12.702 10.5495 12.702 10.5545 12.7036C11.3023 12.8687 11.877 12.9957 12.2684 13.0814C12.4616 13.1243 12.6098 13.1576 12.7131 13.1798C12.8114 13.2036 12.8646 13.2163 12.8646 13.2163C12.8646 13.2163 12.8163 13.2084 12.7181 13.1878C12.6165 13.1671 12.4699 13.137 12.2784 13.0973C11.8836 13.0147 11.3023 12.8957 10.5462 12.7385L10.5612 12.7369C9.80665 13.1846 8.71237 13.6275 7.34993 13.6957C7.01015 13.718 6.65871 13.6878 6.29395 13.6703C6.11407 13.6449 5.93085 13.618 5.74431 13.591C5.65104 13.5814 5.55943 13.5576 5.46616 13.5338C5.37289 13.5116 5.27962 13.4878 5.18634 13.4656C4.4385 13.2671 3.67733 12.9338 2.97945 12.4448C2.28158 11.9575 1.64866 11.3161 1.16398 10.5446C0.679293 9.77468 0.346177 8.87617 0.236249 7.92051C0.126321 6.96485 0.247908 5.9568 0.611004 5.0059C0.659306 4.88843 0.697614 4.7662 0.752578 4.65031C0.810873 4.53601 0.869169 4.42013 0.927464 4.30583L1.01574 4.13279L1.12067 3.9677C1.19062 3.85816 1.26058 3.74704 1.3322 3.6375C1.40548 3.52955 1.49209 3.42795 1.57204 3.32318C1.65699 3.22158 1.72861 3.10887 1.82521 3.0168C2.01175 2.82471 2.18664 2.62152 2.39983 2.45324C2.8029 2.08019 3.27426 1.79127 3.74562 1.52457C4.2353 1.28804 4.73664 1.0769 5.26129 0.956254C6.30228 0.694321 7.37991 0.675272 8.38092 0.867356C9.38026 1.06738 10.2963 1.47853 11.0592 2.02145C11.8237 2.56437 12.4366 3.23587 12.8746 3.955C13.316 4.67412 13.5842 5.4377 13.7091 6.1727C13.7824 6.53941 13.789 6.90294 13.804 7.25218C13.8024 7.60143 13.7707 7.93797 13.7158 8.25864C13.4959 9.54608 12.9096 10.5271 12.3716 11.1859L12.345 11.1605L12.3483 11.159C12.3566 11.1526 12.3683 11.1542 12.375 11.1621C12.3766 11.1637 12.3783 11.1669 12.3783 11.1685C12.5382 11.8368 12.6614 12.3496 12.7447 12.6988C12.7847 12.8687 12.8147 12.9988 12.8363 13.0877C12.8547 13.1735 12.8646 13.2163 12.8646 13.2163Z" fill="#263238"/>
<path d="M8.75237 9.10805H5.25466C5.12974 9.10805 5.02814 9.01121 5.02814 8.89215V6.3506C5.02814 6.23154 5.12974 6.1347 5.25466 6.1347H6.03081C6.15573 6.1347 6.25733 6.23154 6.25733 6.3506C6.25733 6.46966 6.15573 6.5665 6.03081 6.5665H5.48284V8.67625H8.52751V6.5665H7.96621C7.8413 6.5665 7.7397 6.46966 7.7397 6.3506C7.7397 6.23154 7.8413 6.1347 7.96621 6.1347H8.75403C8.87895 6.1347 8.98055 6.23154 8.98055 6.3506V8.89215C8.97888 9.01121 8.87728 9.10805 8.75237 9.10805Z" fill="#799093" stroke="#263238" stroke-width="0.25" stroke-miterlimit="10"/>
<path d="M7.00343 8.06974C6.87852 8.06974 6.77692 7.9729 6.77692 7.85384V4.7408C6.77692 4.62174 6.87852 4.5249 7.00343 4.5249C7.12835 4.5249 7.22995 4.62174 7.22995 4.7408V7.85384C7.23162 7.9729 7.13002 8.06974 7.00343 8.06974Z" fill="#799093" stroke="#263238" stroke-width="0.25" stroke-miterlimit="10"/>
<path d="M7.68136 5.7933C7.61307 5.7933 7.54644 5.76472 7.50147 5.70916L6.99347 5.08369L6.42218 5.71868C6.34057 5.80917 6.19733 5.82028 6.10239 5.7425C6.00745 5.66471 5.99579 5.52819 6.07741 5.4377L6.83025 4.6011C6.87522 4.55189 6.94017 4.5249 7.00846 4.5249C7.07675 4.52649 7.14004 4.55665 7.18168 4.60904L7.85957 5.44564C7.93619 5.54089 7.91787 5.67582 7.8196 5.74885C7.77963 5.77901 7.73132 5.7933 7.68136 5.7933Z" fill="#799093" stroke="#263238" stroke-width="0.25" stroke-miterlimit="10"/>
</svg>
