<svg width="4" height="4" viewBox="0 0 4 4" fill="none" xmlns="http://www.w3.org/2000/svg">
<path d="M0.0632005 0.5148C0.0662238 0.510798 0.116109 0.580832 0.205296 0.714896C0.30053 0.860966 0.427509 1.05306 0.583208 1.29117C0.908213 1.79942 1.35415 2.49775 1.86962 3.30413L1.80311 3.33015C1.84997 2.84191 1.89986 2.31166 1.95276 1.7614C2.00718 1.20313 2.06009 0.664872 2.10846 0.170636L2.11905 0.0565796L2.17346 0.146625C2.67382 0.963015 3.10615 1.66535 3.42209 2.1796C3.56872 2.42371 3.68814 2.62381 3.77733 2.77188C3.85895 2.91195 3.90128 2.98798 3.89826 2.99199C3.89523 2.99599 3.84535 2.92596 3.75767 2.79389C3.66395 2.64982 3.53848 2.45573 3.38581 2.21961C3.06534 1.71137 2.62545 1.01704 2.11602 0.210657L2.18253 0.184644C2.13567 0.680881 2.08428 1.21714 2.03137 1.77541C1.97695 2.32567 1.92555 2.85392 1.87869 3.34215L1.86811 3.45621L1.81369 3.36817C1.30729 2.55178 0.868911 1.84744 0.548441 1.33119C0.400299 1.08508 0.279367 0.886981 0.188668 0.73691C0.102504 0.594842 0.0601772 0.518802 0.0632005 0.5148Z" fill="black"/>
</svg>
