<svg width="16" height="14" viewBox="0 0 16 14" fill="none" xmlns="http://www.w3.org/2000/svg">
<path d="M7.65912 12.9353C11.1527 12.601 13.7005 9.63063 13.3497 6.30085C12.999 2.97107 9.88249 0.542772 6.38889 0.877088C2.89529 1.2114 0.347522 4.18174 0.698286 7.51152C1.04905 10.8413 4.16552 13.2696 7.65912 12.9353Z" fill="#92E3A9" stroke="#263238" stroke-width="0.5" stroke-miterlimit="10" stroke-linecap="round" stroke-linejoin="round"/>
<path d="M6.60457 4.40797C7.4307 4.28097 7.52897 4.26986 7.85708 4.23334C8.16022 4.20001 8.33177 4.22382 8.44836 4.24763C8.6016 4.27938 8.71486 4.327 8.84144 4.41432C8.96636 4.50004 9.0513 4.58894 9.12958 4.71752C9.18955 4.81436 9.26616 4.96358 9.32779 5.24774C9.39441 5.55571 9.4144 5.64937 9.54598 6.43517C9.67922 7.22256 9.69088 7.31622 9.72919 7.62895C9.76417 7.91788 9.73919 8.08139 9.7142 8.19251C9.68089 8.33856 9.63092 8.4465 9.53932 8.56715C9.44938 8.68621 9.3561 8.76717 9.22119 8.84179C9.11959 8.89894 8.96303 8.97196 8.66489 9.0307C8.34177 9.0942 8.2435 9.11324 7.41904 9.23865C6.59291 9.36565 6.49464 9.37676 6.16652 9.41328C5.86339 9.44661 5.69184 9.4228 5.57524 9.39899C5.42201 9.36724 5.30875 9.31961 5.18217 9.2323C5.05725 9.14499 4.97231 9.05768 4.89402 8.9291C4.83406 8.83226 4.75745 8.68304 4.69582 8.39888C4.6292 8.09091 4.60921 7.99725 4.47763 7.21145C4.34438 6.42406 4.33272 6.3304 4.29442 6.01767C4.25944 5.72875 4.28442 5.56524 4.30941 5.45411C4.34272 5.30806 4.39269 5.20012 4.48429 5.07947C4.5759 4.96041 4.66751 4.87945 4.80242 4.80484C4.90402 4.74769 5.06058 4.67466 5.35872 4.61593C5.68018 4.55243 5.77845 4.53338 6.60457 4.40797ZM6.51463 3.87616C5.67518 4.00475 5.57025 4.0238 5.24213 4.08888C4.91568 4.15397 4.69915 4.23811 4.51427 4.34129C4.3244 4.44765 4.16783 4.57465 4.02459 4.76515C3.87969 4.95565 3.80307 5.13662 3.75644 5.3414C3.71147 5.53984 3.69481 5.76208 3.73312 6.07799C3.77143 6.3939 3.78475 6.4955 3.91966 7.29558C4.05457 8.09567 4.07456 8.19568 4.14285 8.50842C4.21114 8.81956 4.29941 9.02593 4.40768 9.20214C4.51927 9.38311 4.65252 9.53234 4.85239 9.66886C5.05225 9.80697 5.24047 9.87999 5.45699 9.92444C5.66519 9.9673 5.89837 9.98318 6.22982 9.94667C6.56127 9.91016 6.66786 9.89746 7.50731 9.76887C8.34676 9.64029 8.4517 9.62124 8.77981 9.55615C9.10627 9.49106 9.32279 9.40693 9.50767 9.30374C9.69755 9.19738 9.85411 9.07038 9.99735 8.87988C10.1423 8.68939 10.2189 8.50842 10.2655 8.30363C10.3105 8.1052 10.3271 7.88295 10.2888 7.56704C10.2505 7.25114 10.2372 7.14954 10.1023 6.34945C9.96737 5.54936 9.94738 5.44935 9.87909 5.13662C9.81081 4.82547 9.72253 4.6191 9.61427 4.44289C9.50267 4.26192 9.36943 4.1127 9.16956 3.97617C8.96969 3.83806 8.77981 3.76504 8.56495 3.72059C8.35676 3.67773 8.12358 3.66185 7.79213 3.69837C7.45901 3.73488 7.35408 3.74758 6.51463 3.87616Z" fill="white" stroke="black" stroke-width="0.25" stroke-miterlimit="10"/>
<path d="M6.7562 5.30962C5.8801 5.44455 5.28216 6.23035 5.42374 7.06537C5.56531 7.90038 6.38977 8.47028 7.26587 8.33535C8.14196 8.20041 8.7399 7.41461 8.59833 6.5796C8.45842 5.74459 7.63229 5.17627 6.7562 5.30962ZM7.17759 7.80513C6.60796 7.89244 6.07331 7.52256 5.98171 6.98123C5.8901 6.43831 6.27818 5.92873 6.84614 5.84142C7.41577 5.75411 7.95042 6.12399 8.04202 6.66532C8.13363 7.20824 7.74555 7.71782 7.17759 7.80513Z" fill="white" stroke="black" stroke-width="0.25" stroke-miterlimit="10"/>
<path d="M8.76817 4.94135C8.80148 5.13661 8.66157 5.32075 8.45671 5.3525C8.25184 5.38425 8.05863 5.2509 8.02532 5.05564C7.99201 4.86038 8.13192 4.67624 8.33678 4.64449C8.54165 4.61274 8.73486 4.7445 8.76817 4.94135Z" fill="white" stroke="black" stroke-width="0.25" stroke-miterlimit="10"/>
</svg>
