<svg width="5" height="5" viewBox="0 0 5 5" fill="none" xmlns="http://www.w3.org/2000/svg">
<path d="M0.762908 1.1167C0.765931 1.1127 0.815815 1.18473 0.901979 1.3208C0.99419 1.46887 1.11815 1.66496 1.27082 1.90708C1.58827 2.42333 2.02362 3.13166 2.527 3.95206L2.46049 3.97607C2.51491 3.48984 2.57235 2.96159 2.63282 2.41132C2.69631 1.85506 2.75677 1.3188 2.81119 0.824566L2.8248 0.71051L2.87771 0.80055C3.36597 1.62895 3.78772 2.34329 4.0961 2.86554C4.2397 3.11366 4.35459 3.31576 4.44226 3.46783C4.52238 3.6099 4.5632 3.68793 4.56017 3.69193C4.55715 3.69594 4.50878 3.6239 4.42261 3.48984C4.3304 3.34177 4.20947 3.14567 4.05831 2.90556C3.74539 2.38931 3.31608 1.68297 2.81875 0.864582L2.88526 0.840571C2.83085 1.33481 2.77189 1.87106 2.70991 2.42733C2.64794 2.97559 2.58898 3.50384 2.53305 3.99008L2.52096 4.10413L2.46805 4.01409C1.97374 3.18569 1.54594 2.46935 1.23303 1.9451C1.08791 1.69698 0.970004 1.49288 0.880816 1.34081C0.802211 1.19874 0.759885 1.12071 0.762908 1.1167Z" fill="black"/>
</svg>
