<svg width="143" height="128" viewBox="0 0 143 128" fill="none" xmlns="http://www.w3.org/2000/svg">
<g clip-path="url(#clip0_2708_1817)">
<path d="M135.123 24.9291C134.656 24.1348 134.163 23.3583 133.649 22.5965C126.805 12.4541 115.027 5.51839 103.441 2.38268C98.3683 1.0097 93.1273 0.289259 87.8775 0.112101C53.4438 -1.05715 39.7288 26.0806 28.3493 33.0843C16.9698 40.0879 -0.539347 52.0491 0.629899 77.1436C1.79915 102.238 19.887 125.874 54.9054 127.333C89.9208 128.791 92.2563 113.036 111.806 107.199C124.744 103.336 133.936 90.2917 138.439 78.2361C144.571 61.8076 144.282 40.4688 135.123 24.9291Z" fill="#92E3A9"/>
<path opacity="0.7" d="M135.123 24.9291C134.656 24.1348 134.163 23.3583 133.649 22.5965C126.805 12.4541 115.027 5.51839 103.441 2.38268C98.3683 1.0097 93.1273 0.289259 87.8775 0.112101C53.4438 -1.05715 39.7288 26.0806 28.3493 33.0843C16.9698 40.0879 -0.539347 52.0491 0.629899 77.1436C1.79915 102.238 19.887 125.874 54.9054 127.333C89.9208 128.791 92.2563 113.036 111.806 107.199C124.744 103.336 133.936 90.2917 138.439 78.2361C144.571 61.8076 144.282 40.4688 135.123 24.9291Z" fill="#DDF8F3"/>
<path d="M26.4596 124.288C30.5461 120.946 31.0746 115.324 30.4959 110.355C30.3984 109.525 30.4191 108.642 29.9585 107.946C29.4979 107.249 28.5235 106.827 27.7971 107.24C27.1948 107.582 26.9822 108.324 26.681 108.947C26.2795 109.776 25.6388 110.488 24.8563 110.972C24.3426 111.291 23.693 111.512 23.1379 111.27C22.3791 110.934 22.2108 109.95 22.1487 109.124C22.0336 107.582 21.9155 106.041 21.8003 104.497C21.7383 103.67 21.6704 102.826 21.3456 102.061C21.0208 101.296 20.386 100.617 19.5711 100.461C18.7562 100.307 17.8084 100.842 17.705 101.665C17.6637 102.008 17.7611 102.353 17.767 102.696C17.7729 103.041 17.6401 103.434 17.3182 103.558C16.9905 103.682 16.6362 103.475 16.3675 103.254C15.4344 102.489 14.7583 101.462 14.1235 100.437C13.4886 99.4124 12.8656 98.3613 12.0064 97.5168C11.1472 96.6694 10.0016 96.0376 8.7969 96.07C7.59222 96.1025 6.37278 96.9381 6.16314 98.1251C5.9535 99.315 6.74186 100.443 7.5686 101.323C8.7969 102.631 10.2142 103.762 11.7613 104.665C12.0419 104.828 12.343 105.005 12.47 105.303C12.6973 105.84 12.2131 106.431 11.6757 106.658C11.0675 106.915 10.3854 106.906 9.73879 107.036C9.09216 107.166 8.40715 107.509 8.20932 108.137C7.93472 109.011 8.72308 109.838 9.476 110.361C10.9819 111.406 12.6678 112.191 14.4394 112.673C15.0742 112.844 15.7386 112.986 16.27 113.373C16.8015 113.759 17.1617 114.477 16.9108 115.085C16.6568 115.693 15.901 115.944 15.2484 115.879C14.5929 115.814 13.9876 115.516 13.3528 115.339C12.1659 115.005 10.6866 115.206 10.0281 116.248C9.59706 116.933 9.62659 117.837 9.93662 118.587C10.2437 119.337 10.7958 119.957 11.3746 120.527C13.3942 122.511 15.898 124.037 18.644 124.731C21.3899 125.422 23.8849 125.467 26.4596 124.288Z" fill="#92E3A9" stroke="#263238" stroke-width="0.25" stroke-miterlimit="10"/>
<path d="M26.8169 127.976C26.4715 126.019 25.8426 123.724 24.8889 121.277C23.9411 118.826 22.6744 116.222 21.2542 113.547C20.8969 112.879 20.5455 112.218 20.1971 111.568C19.8487 110.919 19.5032 110.278 19.1253 109.67C18.3753 108.45 17.5604 107.334 16.7543 106.298C15.9483 105.262 15.1422 104.308 14.3834 103.419C13.6216 102.533 12.8982 101.721 12.2043 101.007C10.8225 99.5748 9.5735 98.5532 8.68771 97.8859C8.24481 97.5493 7.89345 97.3013 7.65133 97.1359C7.53322 97.0562 7.44169 96.9942 7.37673 96.9499C7.31473 96.9086 7.2793 96.8909 7.2793 96.8909C7.2793 96.8909 7.30882 96.9174 7.36788 96.9617C7.43283 97.009 7.52141 97.0739 7.63657 97.1596C7.87278 97.3308 8.21824 97.5877 8.65818 97.9272C9.53512 98.6064 10.7723 99.6339 12.1423 101.069C12.8303 101.783 13.5478 102.598 14.3036 103.487C15.0595 104.376 15.8597 105.332 16.6598 106.369C17.463 107.405 18.272 108.518 19.019 109.735C19.394 110.34 19.7365 110.978 20.0849 111.63C20.4333 112.28 20.7847 112.941 21.142 113.609C22.5592 116.284 23.8259 118.879 24.7796 121.324C25.7363 123.766 26.374 126.048 26.7284 127.997" fill="#E0E0E0"/>
<path d="M26.8169 127.976C26.4715 126.019 25.8426 123.724 24.8889 121.277C23.9411 118.826 22.6744 116.222 21.2542 113.547C20.8969 112.879 20.5455 112.218 20.1971 111.568C19.8487 110.919 19.5032 110.278 19.1253 109.67C18.3753 108.45 17.5604 107.334 16.7543 106.298C15.9483 105.262 15.1422 104.308 14.3834 103.419C13.6216 102.533 12.8982 101.721 12.2043 101.007C10.8225 99.5748 9.5735 98.5532 8.68771 97.8859C8.24481 97.5493 7.89345 97.3013 7.65133 97.1359C7.53322 97.0562 7.44169 96.9942 7.37673 96.9499C7.31473 96.9086 7.2793 96.8909 7.2793 96.8909C7.2793 96.8909 7.30882 96.9174 7.36788 96.9617C7.43283 97.009 7.52141 97.0739 7.63657 97.1596C7.87278 97.3308 8.21824 97.5877 8.65818 97.9272C9.53512 98.6064 10.7723 99.6339 12.1423 101.069C12.8303 101.783 13.5478 102.598 14.3036 103.487C15.0595 104.376 15.8597 105.332 16.6598 106.369C17.463 107.405 18.272 108.518 19.019 109.735C19.394 110.34 19.7365 110.978 20.0849 111.63C20.4333 112.28 20.7847 112.941 21.142 113.609C22.5592 116.284 23.8259 118.879 24.7796 121.324C25.7363 123.766 26.374 126.048 26.7284 127.997" stroke="#263238" stroke-width="0.25" stroke-miterlimit="10"/>
<path d="M19.093 109.661C19.1019 109.661 19.1166 109.534 19.1402 109.301C19.1639 109.068 19.1875 108.731 19.2111 108.315C19.2583 107.482 19.2879 106.328 19.3174 105.058C19.3469 103.785 19.3942 102.637 19.4621 101.807C19.4946 101.391 19.5241 101.057 19.5477 100.824C19.5713 100.591 19.5802 100.464 19.5713 100.461C19.5625 100.461 19.5388 100.588 19.5005 100.818C19.4621 101.048 19.4178 101.385 19.3735 101.798C19.2849 102.628 19.22 103.782 19.1904 105.055C19.1639 106.316 19.1402 107.456 19.1196 108.312C19.1078 108.71 19.096 109.041 19.0871 109.298C19.0841 109.531 19.0871 109.658 19.093 109.661Z" fill="#E0E0E0" stroke="#263238" stroke-width="0.25" stroke-miterlimit="10"/>
<path d="M8.15918 108.56C8.15918 108.563 8.19756 108.566 8.27138 108.569C8.35996 108.569 8.46625 108.569 8.59322 108.569C8.87077 108.569 9.27528 108.566 9.77132 108.58C10.7664 108.601 12.1423 108.681 13.6511 108.834C15.1628 108.991 16.524 109.192 17.5043 109.369C17.9944 109.451 18.3901 109.531 18.6647 109.584C18.7887 109.608 18.895 109.629 18.9806 109.643C19.0544 109.655 19.0928 109.661 19.0928 109.655C19.0928 109.652 19.0574 109.637 18.9865 109.617C18.9009 109.593 18.8005 109.567 18.6765 109.534C18.4048 109.466 18.0121 109.372 17.522 109.277C16.5447 109.079 15.1806 108.864 13.6629 108.707C12.1482 108.554 10.7693 108.489 9.77132 108.489C9.27233 108.486 8.86781 108.501 8.59027 108.515C8.4633 108.524 8.35701 108.53 8.26843 108.539C8.19756 108.551 8.15918 108.557 8.15918 108.56Z" fill="#E0E0E0" stroke="#263238" stroke-width="0.25" stroke-miterlimit="10"/>
<path d="M24.7529 121.088C24.7558 121.088 24.7765 121.044 24.8119 120.952C24.8503 120.849 24.9005 120.716 24.9625 120.55C25.0924 120.202 25.2666 119.694 25.4763 119.062C25.8926 117.802 26.4182 116.042 26.9703 114.09C27.5225 112.141 28.0333 110.379 28.4289 109.112C28.6268 108.492 28.7862 107.981 28.9043 107.612C28.9574 107.447 28.9988 107.311 29.0313 107.204C29.0578 107.11 29.0726 107.06 29.0667 107.06C29.0637 107.06 29.0431 107.104 29.0076 107.196C28.9693 107.299 28.9191 107.432 28.8571 107.597C28.7271 107.946 28.5529 108.453 28.3433 109.085C27.924 110.346 27.4014 112.106 26.8493 114.058C26.2971 116.006 25.7863 117.769 25.3907 119.036C25.1928 119.656 25.0334 120.167 24.9153 120.536C24.8621 120.701 24.8208 120.837 24.7883 120.943C24.7617 121.038 24.7499 121.088 24.7529 121.088Z" fill="#E0E0E0" stroke="#263238" stroke-width="0.25" stroke-miterlimit="10"/>
<path d="M10.0664 117.716C10.0664 117.719 10.1166 117.734 10.214 117.76C10.3262 117.787 10.468 117.819 10.6422 117.861C11.029 117.949 11.5634 118.07 12.2159 118.221C13.5446 118.525 15.3753 118.971 17.3949 119.464C19.4174 119.96 21.251 120.391 22.5856 120.674C23.2529 120.816 23.7932 120.925 24.1682 120.996C24.3454 121.029 24.4901 121.055 24.5993 121.073C24.6997 121.091 24.7499 121.097 24.7528 121.091C24.7528 121.088 24.7027 121.073 24.6052 121.046C24.496 121.02 24.3542 120.987 24.1771 120.946C23.7903 120.857 23.2559 120.736 22.6033 120.586C21.2746 120.282 19.444 119.836 17.4244 119.34C15.4048 118.844 13.5682 118.413 12.2336 118.132C11.5663 117.99 11.026 117.881 10.651 117.81C10.4739 117.778 10.3292 117.754 10.2199 117.734C10.1196 117.716 10.0664 117.71 10.0664 117.716Z" fill="#E0E0E0" stroke="#263238" stroke-width="0.25" stroke-miterlimit="10"/>
<path d="M65.2511 39.9154L43.9038 46.3379L48.2328 60.7268L69.58 54.3043L65.2511 39.9154Z" fill="white" stroke="black" stroke-width="0.5" stroke-miterlimit="10"/>
<path d="M69.5803 54.3019C69.5803 54.3019 69.5478 54.2104 69.4946 54.0391C69.4385 53.862 69.3618 53.6081 69.2584 53.2803C69.0517 52.6101 68.7535 51.6357 68.3726 50.3867C67.6138 47.8858 66.5213 44.3013 65.1926 39.9314L65.2694 39.9728C59.3789 41.7502 51.9618 43.9854 43.9277 46.4095H43.9247L43.9749 46.315C45.5162 51.4438 46.9807 56.3215 48.2976 60.7062L48.209 60.659C54.4923 58.784 59.8247 57.1926 63.5893 56.0676C65.4731 55.5096 66.9642 55.0667 67.9917 54.7625C68.5025 54.612 68.8952 54.4968 69.1669 54.4171C69.2968 54.3787 69.3972 54.3521 69.471 54.3285C69.5448 54.3108 69.5803 54.3019 69.5803 54.3019C69.5803 54.3019 69.5507 54.3137 69.4828 54.3344C69.412 54.358 69.3145 54.3876 69.1876 54.4259C68.9189 54.5086 68.5321 54.6267 68.0331 54.7832C67.0115 55.0962 65.5292 55.5479 63.6573 56.1208C59.8867 57.2634 54.5454 58.8844 48.2533 60.7918L48.1854 60.8125L48.1647 60.7446C46.8449 56.3599 45.3745 51.4851 43.8303 46.3564L43.8066 46.2826L43.8805 46.2589H43.8834C51.9235 43.8466 59.3405 41.6203 65.234 39.8517L65.293 39.834L65.3107 39.893C66.6188 44.2866 67.6906 47.8917 68.4405 50.4044C68.8096 51.6505 69.096 52.6248 69.2939 53.2921C69.3883 53.6199 69.4622 53.8708 69.5123 54.045C69.5596 54.2193 69.5803 54.3019 69.5803 54.3019Z" fill="#E0E0E0"/>
<path d="M69.5803 54.3019C69.5803 54.3019 69.5478 54.2104 69.4946 54.0391C69.4385 53.862 69.3618 53.6081 69.2584 53.2803C69.0517 52.6101 68.7535 51.6357 68.3726 50.3867C67.6138 47.8858 66.5213 44.3013 65.1926 39.9314L65.2694 39.9728C59.3789 41.7502 51.9618 43.9854 43.9277 46.4095H43.9247L43.9749 46.315C45.5162 51.4438 46.9807 56.3215 48.2976 60.7062L48.209 60.659C54.4923 58.784 59.8247 57.1926 63.5893 56.0676C65.4731 55.5096 66.9642 55.0667 67.9917 54.7625C68.5025 54.612 68.8952 54.4968 69.1669 54.4171C69.2968 54.3787 69.3972 54.3521 69.471 54.3285C69.5448 54.3108 69.5803 54.3019 69.5803 54.3019ZM69.5803 54.3019C69.5803 54.3019 69.5507 54.3137 69.4828 54.3344C69.412 54.358 69.3145 54.3876 69.1876 54.4259C68.9189 54.5086 68.5321 54.6267 68.0331 54.7832C67.0115 55.0962 65.5292 55.5479 63.6573 56.1208C59.8867 57.2634 54.5454 58.8844 48.2533 60.7918L48.1854 60.8125L48.1647 60.7446C46.8449 56.3599 45.3745 51.4851 43.8303 46.3564L43.8066 46.2826L43.8805 46.2589H43.8834C51.9235 43.8466 59.3405 41.6203 65.234 39.8517L65.293 39.834L65.3107 39.893C66.6188 44.2866 67.6906 47.8917 68.4405 50.4044C68.8096 51.6505 69.096 52.6248 69.2939 53.2921C69.3883 53.6199 69.4622 53.8708 69.5123 54.045C69.5596 54.2193 69.5803 54.3019 69.5803 54.3019Z" stroke="black" stroke-width="0.5" stroke-miterlimit="10"/>
<path d="M65.2519 39.9138C65.2549 39.9138 65.243 39.9374 65.2224 39.9788C65.1958 40.029 65.1633 40.088 65.122 40.1618C65.0245 40.3331 64.8917 40.5634 64.7234 40.8587C64.3661 41.4728 63.8583 42.3438 63.2352 43.4186C61.9568 45.5858 60.194 48.5739 58.2335 51.9045L58.201 51.9606L58.139 51.937C57.9323 51.8573 57.7079 51.7716 57.4865 51.6831C53.7366 50.2215 50.3411 48.8958 47.8726 47.9332C46.6532 47.449 45.6641 47.0563 44.9643 46.7787C44.6306 46.6429 44.3679 46.5366 44.1759 46.4569C44.0933 46.4214 44.0254 46.3919 43.9722 46.3713C43.9279 46.3506 43.9043 46.3388 43.9043 46.3358C43.9043 46.3329 43.9309 46.3388 43.9781 46.3565C44.0342 46.3772 44.1021 46.4008 44.1878 46.4303C44.3826 46.5012 44.6484 46.5986 44.985 46.7256C45.6877 46.9913 46.6827 47.3692 47.911 47.8328C50.3853 48.7865 53.7868 50.0945 57.5426 51.5413C57.767 51.627 57.9884 51.7155 58.1951 51.7953L58.1006 51.8277C60.0789 48.509 61.8564 45.5297 63.1437 43.3684C63.7874 42.3055 64.3071 41.4403 64.6732 40.8321C64.8503 40.5427 64.9921 40.3154 65.0954 40.15C65.1397 40.0792 65.1781 40.0201 65.2076 39.9758C65.2371 39.9315 65.2489 39.9138 65.2519 39.9138Z" fill="#E0E0E0" stroke="black" stroke-width="0.5" stroke-miterlimit="10"/>
<path d="M127.36 97.3871C127.36 97.3871 125.979 96.0171 123.277 99.4392C120.575 102.861 119.403 104.913 119.403 104.913C119.403 104.913 118.73 105.61 118.287 104.978C117.841 104.346 117.386 102.717 116.4 102.799C115.379 102.882 114.844 103.898 114.714 105.522C114.581 107.143 114.165 110.686 114.124 111.008C114.085 111.321 113.817 111.743 113.445 111.362C113.073 110.981 111.145 107.727 109.656 108.734C108.168 109.741 108.543 114.32 108.576 114.822C108.608 115.324 108.472 115.507 108.224 115.581C107.973 115.655 107.43 114.501 106.843 113.597C106.258 112.694 105.419 111.752 104.607 112.404C103.798 113.057 102.939 116.266 104.982 122.163L106.107 124.832L108.989 125.242C115.21 125.744 118.101 124.111 118.532 123.164C118.96 122.216 117.838 121.64 116.817 121.301C115.795 120.958 114.543 120.722 114.552 120.459C114.561 120.196 114.705 120.022 115.198 119.928C115.692 119.833 120.221 119.051 120.823 117.359C121.426 115.667 117.794 114.613 117.333 114.35C116.87 114.084 117.212 113.721 117.507 113.606C117.809 113.488 121.133 112.195 122.672 111.663C124.21 111.129 125.06 110.358 124.883 109.348C124.715 108.374 123.023 108.341 122.3 108.067C121.576 107.795 122.084 106.968 122.084 106.968C122.084 106.968 123.776 105.318 126.416 101.846C129.055 98.3733 127.334 97.3605 127.334 97.3605" fill="#92E3A9"/>
<path d="M127.36 97.3871C127.36 97.3871 125.979 96.0171 123.277 99.4392C120.575 102.861 119.403 104.913 119.403 104.913C119.403 104.913 118.73 105.61 118.287 104.978C117.841 104.346 117.386 102.717 116.4 102.799C115.379 102.882 114.844 103.898 114.714 105.522C114.581 107.143 114.165 110.686 114.124 111.008C114.085 111.321 113.817 111.743 113.445 111.362C113.073 110.981 111.145 107.727 109.656 108.734C108.168 109.741 108.543 114.32 108.576 114.822C108.608 115.324 108.472 115.507 108.224 115.581C107.973 115.655 107.43 114.501 106.843 113.597C106.258 112.694 105.419 111.752 104.607 112.404C103.798 113.057 102.939 116.266 104.982 122.163L106.107 124.832L108.989 125.242C115.21 125.744 118.101 124.111 118.532 123.164C118.96 122.216 117.838 121.64 116.817 121.301C115.795 120.958 114.543 120.722 114.552 120.459C114.561 120.196 114.705 120.022 115.198 119.928C115.692 119.833 120.221 119.051 120.823 117.359C121.426 115.667 117.794 114.613 117.333 114.35C116.87 114.084 117.212 113.721 117.507 113.606C117.809 113.488 121.133 112.195 122.672 111.663C124.21 111.129 125.06 110.358 124.883 109.348C124.715 108.374 123.023 108.341 122.3 108.067C121.576 107.795 122.084 106.968 122.084 106.968C122.084 106.968 123.776 105.318 126.416 101.846C129.055 98.3733 127.334 97.3605 127.334 97.3605" stroke="#263238" stroke-width="0.25" stroke-miterlimit="10"/>
<path d="M124.937 100.449C124.939 100.452 124.922 100.476 124.889 100.523C124.851 100.576 124.801 100.647 124.739 100.732C124.597 100.924 124.399 101.193 124.148 101.533C123.634 102.226 122.879 103.224 121.94 104.453C120.065 106.909 117.443 110.281 114.528 113.99C111.623 117.701 108.992 121.058 107.082 123.5C106.14 124.714 105.372 125.7 104.835 126.391C104.572 126.725 104.368 126.987 104.221 127.173C104.153 127.256 104.1 127.324 104.058 127.374C104.02 127.418 104.002 127.442 103.999 127.439C103.996 127.436 104.014 127.412 104.047 127.365C104.085 127.312 104.135 127.241 104.197 127.156C104.339 126.964 104.537 126.695 104.788 126.355C105.301 125.662 106.057 124.664 106.993 123.435C108.868 120.979 111.49 117.607 114.404 113.898C117.31 110.19 119.938 106.83 121.848 104.391C122.79 103.177 123.558 102.191 124.095 101.5C124.358 101.166 124.562 100.904 124.709 100.718C124.777 100.635 124.83 100.567 124.872 100.517C124.913 100.47 124.934 100.449 124.937 100.449Z" fill="#E0E0E0" stroke="#263238" stroke-width="0.25" stroke-miterlimit="10"/>
<path d="M116.943 105.105C116.964 105.102 117.008 105.398 117.053 105.879C117.097 106.36 117.135 107.024 117.162 107.757C117.18 108.462 117.197 109.1 117.212 109.635C117.224 110.116 117.233 110.411 117.212 110.414C117.191 110.417 117.144 110.122 117.103 109.641C117.064 109.159 117.032 108.495 117.005 107.763C116.982 107.057 116.958 106.419 116.94 105.885C116.929 105.406 116.923 105.108 116.943 105.105Z" fill="#E0E0E0" stroke="#263238" stroke-width="0.25" stroke-miterlimit="10"/>
<path d="M117.466 110.517C117.463 110.476 118.827 110.325 120.513 110.187C122.202 110.045 123.572 109.965 123.575 110.01C123.578 110.051 122.214 110.201 120.525 110.34C118.839 110.479 117.469 110.559 117.466 110.517Z" fill="#E0E0E0" stroke="#263238" stroke-width="0.25" stroke-miterlimit="10"/>
<path d="M112.565 116.213C112.571 116.193 112.869 116.246 113.35 116.34C113.832 116.432 114.499 116.559 115.237 116.677C115.975 116.795 116.646 116.883 117.133 116.948C117.62 117.01 117.921 117.052 117.918 117.075C117.915 117.096 117.611 117.093 117.121 117.058C116.631 117.022 115.952 116.951 115.211 116.83C114.469 116.712 113.802 116.567 113.327 116.449C112.851 116.325 112.562 116.231 112.565 116.213Z" fill="#E0E0E0" stroke="#263238" stroke-width="0.25" stroke-miterlimit="10"/>
<path d="M111.018 111.421C111.038 111.415 111.145 111.675 111.304 112.1C111.464 112.525 111.67 113.116 111.892 113.774C112.113 114.43 112.305 115.026 112.438 115.463C112.571 115.897 112.642 116.169 112.621 116.178C112.6 116.184 112.494 115.924 112.335 115.499C112.175 115.073 111.968 114.483 111.747 113.824C111.526 113.169 111.334 112.573 111.201 112.136C111.068 111.699 110.997 111.427 111.018 111.421Z" fill="#E0E0E0" stroke="#263238" stroke-width="0.25" stroke-miterlimit="10"/>
<path d="M106.054 115.9C106.075 115.894 106.21 116.228 106.414 116.771C106.618 117.317 106.89 118.073 107.182 118.909C107.474 119.748 107.728 120.509 107.908 121.064C108.085 121.619 108.186 121.965 108.165 121.971C108.144 121.977 108.009 121.643 107.805 121.1C107.601 120.554 107.329 119.798 107.037 118.959C106.745 118.121 106.491 117.359 106.311 116.804C106.134 116.252 106.033 115.906 106.054 115.9Z" fill="#E0E0E0" stroke="#263238" stroke-width="0.25" stroke-miterlimit="10"/>
<path d="M108.156 121.811C108.159 121.791 108.543 121.847 109.157 121.944C109.771 122.039 110.622 122.172 111.564 122.296C112.506 122.42 113.359 122.517 113.979 122.582C114.599 122.65 114.98 122.694 114.98 122.715C114.98 122.736 114.593 122.73 113.97 122.691C113.347 122.653 112.488 122.573 111.543 122.449C110.598 122.325 109.751 122.175 109.14 122.051C108.525 121.927 108.153 121.832 108.156 121.811Z" fill="#E0E0E0" stroke="#263238" stroke-width="0.25" stroke-miterlimit="10"/>
<path d="M114.331 68.3534L113.632 91.2515L130.365 91.7621L131.064 68.864L114.331 68.3534Z" fill="#F5F5F5" stroke="black" stroke-width="0.5" stroke-miterlimit="10"/>
<path d="M111.249 71.3949L110.55 94.293L127.283 94.8036L127.982 71.9055L111.249 71.3949Z" fill="white" stroke="black" stroke-width="0.5" stroke-miterlimit="10"/>
<path d="M127.286 94.8035C127.286 94.8035 127.283 94.7651 127.286 94.6913C127.286 94.6145 127.289 94.5082 127.292 94.3665C127.298 94.0771 127.31 93.6578 127.322 93.1145C127.351 92.0191 127.393 90.4276 127.446 88.411C127.561 84.3806 127.723 78.6643 127.915 71.9028L127.983 71.9736C122.943 71.823 117.253 71.6518 111.251 71.4687H111.248L111.327 71.3949C111.062 79.9487 110.814 87.8647 110.613 94.2927L110.551 94.2277C115.612 94.396 119.787 94.5348 122.701 94.6322C124.157 94.6824 125.299 94.7237 126.082 94.7503C126.468 94.7651 126.767 94.7769 126.973 94.7857C127.18 94.7946 127.286 94.8035 127.286 94.8035C127.286 94.8035 127.189 94.8064 126.991 94.8005C126.787 94.7946 126.495 94.7887 126.111 94.7798C125.332 94.7592 124.195 94.7296 122.745 94.6942C119.822 94.6115 115.632 94.4964 110.554 94.3547L110.492 94.3517L110.495 94.2897C110.687 87.8618 110.923 79.9458 111.18 71.392L111.183 71.3152L111.259 71.3181H111.262C117.265 71.5042 122.955 71.6813 127.992 71.8348L128.063 71.8378L128.06 71.9087C127.838 78.6909 127.652 84.422 127.52 88.4612C127.452 90.469 127.396 92.0575 127.357 93.147C127.337 93.6844 127.322 94.0978 127.31 94.3842C127.304 94.52 127.298 94.6233 127.295 94.7001C127.289 94.768 127.286 94.8035 127.286 94.8035Z" fill="#E0E0E0"/>
<path d="M127.286 94.8035C127.286 94.8035 127.283 94.7651 127.286 94.6913C127.286 94.6145 127.289 94.5082 127.292 94.3665C127.298 94.0771 127.31 93.6578 127.322 93.1145C127.351 92.0191 127.393 90.4276 127.446 88.411C127.561 84.3806 127.723 78.6643 127.915 71.9028L127.983 71.9736C122.943 71.823 117.253 71.6518 111.251 71.4687H111.248L111.327 71.3949C111.062 79.9487 110.814 87.8647 110.613 94.2927L110.551 94.2277C115.612 94.396 119.787 94.5348 122.701 94.6322C124.157 94.6824 125.299 94.7237 126.082 94.7503C126.468 94.7651 126.767 94.7769 126.973 94.7857C127.18 94.7946 127.286 94.8035 127.286 94.8035ZM127.286 94.8035C127.286 94.8035 127.189 94.8064 126.991 94.8005C126.787 94.7946 126.495 94.7887 126.111 94.7798C125.332 94.7592 124.195 94.7296 122.745 94.6942C119.822 94.6115 115.632 94.4964 110.554 94.3547L110.492 94.3517L110.495 94.2897C110.687 87.8618 110.923 79.9458 111.18 71.392L111.183 71.3152L111.259 71.3181H111.262C117.265 71.5042 122.955 71.6813 127.992 71.8348L128.063 71.8378L128.06 71.9087C127.838 78.6909 127.652 84.422 127.52 88.4612C127.452 90.469 127.396 92.0575 127.357 93.147C127.337 93.6844 127.322 94.0978 127.31 94.3842C127.304 94.52 127.298 94.6233 127.295 94.7001C127.289 94.768 127.286 94.8035 127.286 94.8035Z" stroke="black" stroke-width="0.5" stroke-miterlimit="10"/>
<path d="M121.452 76.6948C121.452 76.7361 119.63 76.7155 117.383 76.6476C115.136 76.5797 113.317 76.4881 113.32 76.4468C113.32 76.4055 115.142 76.4261 117.389 76.494C119.633 76.5619 121.452 76.6505 121.452 76.6948Z" fill="#E0E0E0" stroke="black" stroke-width="0.5" stroke-miterlimit="10"/>
<path d="M125.789 78.818C125.789 78.8593 122.981 78.8091 119.524 78.7028C116.063 78.5965 113.261 78.4784 113.261 78.4341C113.261 78.3898 116.069 78.443 119.53 78.5493C122.984 78.6556 125.789 78.7766 125.789 78.818Z" fill="#E0E0E0" stroke="black" stroke-width="0.5" stroke-miterlimit="10"/>
<path d="M125.724 80.8936C125.724 80.935 122.916 80.8848 119.459 80.7785C115.998 80.6722 113.196 80.5541 113.196 80.5098C113.196 80.4685 116.004 80.5187 119.465 80.6249C122.922 80.7312 125.727 80.8523 125.724 80.8936Z" fill="#E0E0E0" stroke="black" stroke-width="0.5" stroke-miterlimit="10"/>
<path d="M125.662 82.9693C125.662 83.0107 122.854 82.9605 119.397 82.8542C115.936 82.7479 113.134 82.6298 113.134 82.5855C113.134 82.5441 115.942 82.5943 119.403 82.7006C122.857 82.8069 125.662 82.928 125.662 82.9693Z" fill="#E0E0E0" stroke="black" stroke-width="0.5" stroke-miterlimit="10"/>
<path d="M125.597 85.045C125.597 85.0863 122.789 85.0362 119.332 84.9299C115.871 84.8236 113.069 84.7055 113.069 84.6612C113.069 84.6169 115.877 84.67 119.338 84.7763C122.795 84.8826 125.6 85.0037 125.597 85.045Z" fill="#E0E0E0" stroke="black" stroke-width="0.5" stroke-miterlimit="10"/>
<path d="M125.535 87.1207C125.535 87.162 122.727 87.1118 119.27 87.0055C115.809 86.8992 113.007 86.7811 113.007 86.7369C113.007 86.6955 115.815 86.7457 119.276 86.852C122.73 86.9583 125.535 87.0794 125.535 87.1207Z" fill="#E0E0E0" stroke="black" stroke-width="0.5" stroke-miterlimit="10"/>
<path d="M125.47 89.1964C125.47 89.2377 122.662 89.1875 119.205 89.0812C115.744 88.9749 112.942 88.8568 112.942 88.8125C112.942 88.7712 115.75 88.8214 119.211 88.9277C122.668 89.034 125.473 89.155 125.47 89.1964Z" fill="#E0E0E0" stroke="black" stroke-width="0.5" stroke-miterlimit="10"/>
<path d="M119.612 91.0949C119.612 91.1362 118.104 91.1244 116.243 91.0683C114.383 91.0122 112.877 90.9325 112.877 90.8882C112.877 90.8469 114.386 90.8587 116.246 90.9148C118.107 90.9738 119.615 91.0535 119.612 91.0949Z" fill="#E0E0E0" stroke="black" stroke-width="0.5" stroke-miterlimit="10"/>
<path d="M78.275 56.1716L73.0391 69.323L89.4879 75.8717L94.7238 62.7204L78.275 56.1716Z" fill="#92E3A9" stroke="#263238" stroke-width="0.5" stroke-miterlimit="10" stroke-linecap="round" stroke-linejoin="round"/>
<path d="M94.7216 62.723C94.7216 62.723 94.695 62.7142 94.6419 62.6935C94.5887 62.6728 94.512 62.6433 94.4116 62.602C94.2078 62.5222 93.9096 62.4041 93.5199 62.2506C92.7404 61.9406 91.5977 61.4888 90.1509 60.916C87.2603 59.7674 83.1502 58.1376 78.2636 56.1977L78.299 56.1829C76.7429 60.0981 74.9566 64.5832 73.0669 69.334L73.0492 69.2956C79.1375 71.7227 84.7978 73.9755 89.4954 75.8505L89.4629 75.8652C91.0455 71.9057 92.3565 68.6224 93.2748 66.3282C93.7354 65.1796 94.0956 64.282 94.3407 63.6679C94.4647 63.3608 94.5592 63.1275 94.6212 62.9681C94.6862 62.8057 94.7216 62.723 94.7216 62.723C94.7216 62.723 94.6921 62.8027 94.6301 62.9622C94.568 63.1216 94.4765 63.3549 94.3555 63.662C94.1133 64.2761 93.7561 65.1767 93.3043 66.3223C92.392 68.6224 91.0869 71.9146 89.5102 75.8829L89.5013 75.9066L89.4777 75.8977C84.7771 74.0287 79.1169 71.7758 73.0285 69.3547L73.002 69.3428L73.0138 69.3163C74.9064 64.5684 76.6928 60.0834 78.2517 56.1682L78.2606 56.1445L78.2842 56.1534C83.1738 58.1051 87.2868 59.7497 90.1775 60.9042C91.6184 61.4829 92.7581 61.9376 93.5346 62.2476C93.9214 62.4041 94.2196 62.5222 94.4204 62.6049C94.5208 62.6463 94.5946 62.6758 94.6478 62.6964C94.698 62.7112 94.7216 62.723 94.7216 62.723Z" fill="#92E3A9"/>
<path d="M94.7216 62.723C94.7216 62.723 94.695 62.7142 94.6419 62.6935C94.5887 62.6728 94.512 62.6433 94.4116 62.602C94.2078 62.5222 93.9096 62.4041 93.5199 62.2506C92.7404 61.9406 91.5977 61.4888 90.1509 60.916C87.2603 59.7674 83.1502 58.1376 78.2636 56.1977L78.299 56.1829C76.7429 60.0981 74.9566 64.5832 73.0669 69.334L73.0492 69.2956C79.1375 71.7227 84.7978 73.9755 89.4954 75.8505L89.4629 75.8652C91.0455 71.9057 92.3565 68.6224 93.2748 66.3282C93.7354 65.1796 94.0956 64.282 94.3407 63.6679C94.4647 63.3608 94.5592 63.1275 94.6212 62.9681C94.6862 62.8057 94.7216 62.723 94.7216 62.723ZM94.7216 62.723C94.7216 62.723 94.6921 62.8027 94.6301 62.9622C94.568 63.1216 94.4765 63.3549 94.3555 63.662C94.1133 64.2761 93.7561 65.1767 93.3043 66.3223C92.392 68.6224 91.0869 71.9146 89.5102 75.8829L89.5013 75.9066L89.4777 75.8977C84.7771 74.0287 79.1169 71.7758 73.0285 69.3547L73.002 69.3428L73.0138 69.3163C74.9064 64.5684 76.6928 60.0834 78.2517 56.1682L78.2606 56.1445L78.2842 56.1534C83.1738 58.1051 87.2868 59.7497 90.1775 60.9042C91.6184 61.4829 92.7581 61.9376 93.5346 62.2476C93.9214 62.4041 94.2196 62.5222 94.4204 62.6049C94.5208 62.6463 94.5946 62.6758 94.6478 62.6964C94.698 62.7112 94.7216 62.723 94.7216 62.723Z" stroke="#263238" stroke-width="0.5" stroke-miterlimit="10" stroke-linecap="round" stroke-linejoin="round"/>
<path d="M78.502 57.2368L73.9258 68.7312L89.2197 74.8201L93.7959 63.3257L78.502 57.2368Z" fill="#92E3A9" stroke="#263238" stroke-width="0.5" stroke-miterlimit="10" stroke-linecap="round" stroke-linejoin="round"/>
<path d="M73.9854 68.77L82.173 63.7505L83.7025 69.5377L86.8973 68.0436L89.28 74.8583L73.9854 68.77Z" fill="white" stroke="#263238" stroke-width="0.5" stroke-miterlimit="10" stroke-linecap="round" stroke-linejoin="round"/>
<path d="M87.2336 64.7514C86.9678 65.4157 86.2149 65.7405 85.5505 65.4748C84.8862 65.209 84.5614 64.4561 84.8271 63.7918C85.0929 63.1274 85.8458 62.8026 86.5101 63.0684C87.1745 63.3341 87.4993 64.087 87.2336 64.7514Z" fill="white" stroke="#263238" stroke-width="0.5" stroke-miterlimit="10" stroke-linecap="round" stroke-linejoin="round"/>
<path d="M35.3823 77.2825C35.3852 77.2707 35.4974 77.3593 35.7336 77.3416C35.8488 77.3268 35.9935 77.2766 36.1116 77.1526C36.2238 77.0315 36.3065 76.8367 36.4246 76.6447C36.8822 75.8475 37.5348 74.7078 38.3408 73.3023C38.5446 72.951 38.7571 72.5819 38.9786 72.1951C39.0908 72.0032 39.203 71.8054 39.3181 71.6075C39.3742 71.5071 39.4422 71.4067 39.4746 71.3093C39.5071 71.2089 39.5101 71.0997 39.4835 70.9934C39.4569 70.89 39.3979 70.7955 39.3152 70.7247C39.2355 70.6597 39.1144 70.6036 39.0111 70.5446C38.7955 70.4235 38.577 70.3025 38.3556 70.1784C37.9097 69.9304 37.455 69.6735 36.9856 69.4108C35.1106 68.3567 33.0497 67.2022 30.8854 65.9886C30.6462 65.8499 30.3185 65.9414 30.1679 66.1688C30.0144 66.4315 29.8608 66.6914 29.7103 66.9512C29.4061 67.4738 29.1079 67.9876 28.8126 68.4925C28.2221 69.5023 27.6552 70.4767 27.1119 71.4067C27.044 71.5219 26.9761 71.6371 26.9111 71.7522C26.8432 71.8585 26.8137 71.9707 26.8167 72.0888C26.8226 72.204 26.8639 72.3191 26.9377 72.4047C27.0056 72.4963 27.1149 72.5435 27.23 72.6114C27.6729 72.8624 28.104 73.1045 28.5203 73.3407C29.35 73.8131 30.1266 74.2501 30.8352 74.6517C32.2407 75.4548 33.3804 76.1044 34.1806 76.5621C34.5673 76.7865 34.8715 76.9636 35.087 77.0876C35.1844 77.1467 35.2612 77.191 35.3203 77.2264C35.3557 77.2618 35.3823 77.2795 35.3823 77.2825C35.3823 77.2855 35.3527 77.2707 35.2966 77.2441C35.2346 77.2116 35.1549 77.1703 35.0545 77.1172C34.836 76.999 34.526 76.8308 34.1333 76.6152C33.3272 76.1694 32.1787 75.5316 30.7643 74.7491C30.0528 74.3535 29.2762 73.9194 28.4406 73.4529C28.0243 73.2197 27.5903 72.9776 27.1474 72.7295C27.044 72.6675 26.9082 72.6114 26.8167 72.4933C26.7222 72.3841 26.669 72.2394 26.6631 72.0947C26.6572 71.95 26.7015 71.7994 26.7753 71.6813C26.8432 71.5662 26.9082 71.451 26.9761 71.3359C27.5164 70.4058 28.0804 69.4285 28.668 68.4157C28.9603 67.9108 29.2614 67.3941 29.5626 66.8715C29.7162 66.6087 29.8697 66.3459 30.0262 66.0772C30.2152 65.7879 30.6344 65.6698 30.9445 65.8499C33.1058 67.0664 35.1638 68.2267 37.0387 69.2838C37.5052 69.5495 37.9629 69.8064 38.4058 70.0574C38.6272 70.1814 38.8457 70.3054 39.0613 70.4265C39.1676 70.4914 39.2739 70.5357 39.3861 70.6243C39.4894 70.7129 39.5632 70.831 39.5957 70.9579C39.6282 71.0849 39.6223 71.2207 39.5839 71.3447C39.5396 71.4717 39.4687 71.5632 39.4156 71.6636C39.3004 71.8615 39.1853 72.0593 39.0731 72.2482C38.8487 72.6321 38.6331 72.9982 38.4264 73.3496C37.6056 74.7432 36.9383 75.8741 36.4688 76.6684C36.3448 76.8603 36.2651 77.0463 36.1382 77.1792C36.0082 77.3061 35.8517 77.3563 35.7307 77.3652C35.6067 77.374 35.5151 77.3475 35.459 77.3209C35.4059 77.3061 35.3823 77.2825 35.3823 77.2825Z" fill="#E0E0E0"/>
<path d="M33.8203 71.2295L34.5644 72.5523L33.029 72.5789L31.4937 72.6084L32.285 71.259L33.0763 69.9097L33.8203 71.2295Z" fill="#E0E0E0"/>
<path d="M133.953 127.525C133.953 127.569 105.711 127.607 70.882 127.607C36.0408 127.607 7.80469 127.572 7.80469 127.525C7.80469 127.48 36.0408 127.442 70.882 127.442C105.714 127.445 133.953 127.48 133.953 127.525Z" fill="#263238"/>
<path d="M39.0288 108.766L30.1118 99.8111L34.5939 91.5791C39.076 85.8421 48.5658 86.2112 48.5658 86.2112C48.5658 86.2112 55.0233 85.5882 62.5584 87.0557C70.0965 88.5231 69.4883 93.5101 69.4883 93.5101L70.4981 111.985L71.5817 127.029L43.7825 127.59L39.0288 108.766Z" fill="#C8DCEC"/>
<path d="M54.0048 126.724L29.1051 127.029C23.1231 127.102 19.1311 120.881 21.691 115.472L32.3383 95.7275L42.0347 102.282L35.4208 116.009L55.5785 116.369L54.0048 126.724Z" fill="#C8DCEC"/>
<path d="M68.6025 90.5103L88.5831 121.359L76.926 122.121C76.926 122.121 69.9637 111.152 70.1232 111.38C70.4066 111.79 68.6025 90.5103 68.6025 90.5103Z" fill="#C8DCEC"/>
<path d="M41.5357 104.057C41.5298 104.057 41.5416 104.001 41.5622 103.897C41.5918 103.779 41.6242 103.632 41.6685 103.452C41.7601 103.065 41.8959 102.504 42.0347 101.804C42.1734 101.107 42.324 100.272 42.4244 99.3357C42.5189 98.4026 42.5779 97.3633 42.4362 96.2944C42.2768 95.2285 41.8752 94.2601 41.4057 93.454C40.9333 92.645 40.4048 91.9806 39.9235 91.458C39.4422 90.9354 39.0171 90.5457 38.7129 90.2888C38.4118 90.0289 38.2376 89.8931 38.2464 89.8813C38.2494 89.8784 38.2966 89.9079 38.3822 89.9669C38.4679 90.0289 38.5978 90.1146 38.7513 90.2415C39.0673 90.4866 39.5072 90.8675 40.0032 91.3842C40.4993 91.9009 41.0455 92.5653 41.5298 93.3831C42.014 94.1981 42.4274 95.1813 42.5898 96.2738C42.7344 97.3663 42.6695 98.4144 42.5691 99.3534C42.4598 100.292 42.2974 101.131 42.1439 101.828C41.9904 102.525 41.8398 103.083 41.7276 103.466C41.6715 103.658 41.6272 103.806 41.5947 103.906C41.5593 104.007 41.5386 104.057 41.5357 104.057Z" fill="#263238"/>
<path d="M40.7327 105.12C40.7416 105.123 40.6796 105.282 40.5615 105.566C40.4434 105.849 40.2633 106.257 40.0389 106.756C39.5871 107.757 38.9464 109.133 38.2082 110.638C37.4701 112.144 36.7732 113.494 36.2565 114.462C35.9997 114.946 35.7871 115.336 35.6335 115.605C35.4829 115.873 35.3944 116.018 35.3855 116.012C35.3766 116.006 35.4475 115.853 35.5804 115.575C35.728 115.277 35.9229 114.884 36.1591 114.409C36.6581 113.402 37.3283 112.056 38.0695 110.565C38.7958 109.068 39.4513 107.715 39.9414 106.703C40.1717 106.227 40.3637 105.832 40.5083 105.533C40.6442 105.268 40.7239 105.117 40.7327 105.12Z" fill="#263238"/>
<path d="M54.0046 126.724C54.0016 126.724 54.0016 126.707 54.0046 126.671C54.0075 126.63 54.0105 126.58 54.0164 126.521C54.0312 126.379 54.0518 126.181 54.0754 125.933C54.1345 125.408 54.2142 124.661 54.3205 123.719C54.542 121.811 54.852 119.121 55.2181 115.953L55.289 116.033C53.0479 116.036 50.5559 116.036 47.934 116.039C42.9115 116.03 38.3674 116.021 35.0663 116.015C33.4276 116.006 32.0989 115.998 31.1659 115.992C30.7141 115.986 30.3598 115.98 30.1059 115.977C29.9907 115.974 29.8992 115.971 29.8313 115.968C29.7693 115.965 29.7368 115.962 29.7368 115.959C29.7368 115.956 29.7693 115.953 29.8313 115.95C29.9022 115.947 29.9937 115.944 30.1059 115.941C30.3598 115.938 30.7141 115.933 31.1659 115.927C32.096 115.921 33.4276 115.912 35.0663 115.903C38.3674 115.897 42.9115 115.888 47.934 115.879C50.5559 115.882 53.0479 115.885 55.289 115.885H55.3687L55.3598 115.965C54.9701 119.13 54.6424 121.817 54.4091 123.725C54.288 124.664 54.1936 125.411 54.1256 125.936C54.0902 126.184 54.0636 126.379 54.0459 126.521C54.0371 126.583 54.0282 126.63 54.0223 126.671C54.0105 126.707 54.0075 126.724 54.0046 126.724Z" fill="#263238"/>
<path d="M35.595 116.225C35.5743 116.237 35.4031 115.986 35.099 115.602C34.7948 115.221 34.3401 114.716 33.7703 114.235C33.2004 113.753 32.6276 113.39 32.1995 113.154C31.7713 112.915 31.4938 112.791 31.5026 112.767C31.5086 112.75 31.8038 112.841 32.2497 113.057C32.6955 113.272 33.289 113.626 33.8677 114.117C34.4464 114.607 34.8982 115.132 35.1846 115.534C35.474 115.938 35.6098 116.213 35.595 116.225Z" fill="#263238"/>
<path d="M70.9144 118.177C70.9085 118.177 70.8967 118.088 70.876 117.923C70.8553 117.743 70.8288 117.497 70.7933 117.187C70.7254 116.55 70.6339 115.625 70.5365 114.48C70.3357 112.192 70.1024 109.029 69.8928 105.53C69.6861 102.032 69.5414 98.8633 69.4587 96.5691C69.4174 95.4206 69.3879 94.4934 69.3761 93.8527C69.3702 93.5427 69.3672 93.2947 69.3643 93.1145C69.3643 92.9462 69.3643 92.8577 69.3702 92.8577C69.3761 92.8577 69.3849 92.9462 69.3938 93.1145C69.4026 93.2976 69.4174 93.5427 69.4351 93.8527C69.4676 94.5082 69.5119 95.4324 69.568 96.5691C69.6802 98.8633 69.8396 102.029 70.0463 105.527C70.253 109.023 70.4685 112.189 70.6428 114.477C70.7313 115.611 70.8022 116.532 70.8524 117.187C70.876 117.497 70.8937 117.743 70.9055 117.926C70.9173 118.088 70.9203 118.177 70.9144 118.177Z" fill="#263238"/>
<path d="M48.6899 101.391C48.681 101.391 48.6928 101.249 48.7224 100.986C48.7578 100.706 48.8021 100.331 48.8582 99.87C48.9881 98.8956 49.1653 97.561 49.3719 96.0139L49.4871 96.0847C48.8907 96.501 48.247 96.9528 47.5767 97.4223C46.8947 97.8976 46.2392 98.3524 45.6339 98.7746L45.4951 98.872L45.5217 98.7037C45.7549 97.1713 45.9587 95.8485 46.1063 94.883C46.1801 94.4283 46.2421 94.0592 46.2894 93.7817C46.3337 93.5248 46.3632 93.386 46.3721 93.389C46.3809 93.389 46.3691 93.5307 46.3396 93.7905C46.3041 94.071 46.2569 94.4431 46.2008 94.8978C46.0679 95.8662 45.8819 97.192 45.6693 98.7273L45.5542 98.6565C46.1565 98.2342 46.812 97.7766 47.4941 97.2983C48.1643 96.8317 48.8109 96.38 49.4074 95.9666L49.5461 95.8692L49.5225 96.0375C49.2952 97.5788 49.1003 98.9134 48.9556 99.8848C48.8818 100.342 48.8227 100.714 48.7785 100.995C48.7253 101.252 48.6958 101.394 48.6899 101.391Z" fill="black"/>
<path d="M59.8009 102.589C59.795 102.595 59.6917 102.495 59.5116 102.306C59.3167 102.099 59.0569 101.825 58.738 101.488C58.0707 100.765 57.1583 99.7756 56.1013 98.63L56.2282 98.5857C56.1692 99.3091 56.1042 100.094 56.0363 100.909C55.9654 101.736 55.8975 102.533 55.8326 103.269L55.8178 103.44L55.7056 103.313C54.6781 102.152 53.7893 101.152 53.1398 100.419C52.8386 100.071 52.5935 99.7874 52.4075 99.5748C52.2392 99.377 52.1506 99.2648 52.1565 99.2589C52.1624 99.253 52.2628 99.3534 52.4429 99.5394C52.6349 99.7461 52.8917 100.018 53.2047 100.354C53.8632 101.075 54.7667 102.064 55.8119 103.21L55.6849 103.251C55.7469 102.516 55.8119 101.718 55.8798 100.892C55.9507 100.077 56.0186 99.2913 56.0806 98.568L56.0954 98.3997L56.2076 98.5266C57.2498 99.687 58.1474 100.691 58.8059 101.423C59.113 101.772 59.361 102.055 59.547 102.271C59.7182 102.471 59.8068 102.584 59.8009 102.589Z" fill="black"/>
<path d="M65.3929 102.194C65.3988 102.2 65.3279 102.321 65.1921 102.545C65.0415 102.784 64.8407 103.106 64.5957 103.499C64.0642 104.326 63.3349 105.459 62.4904 106.77L62.4166 106.658C63.1312 106.534 63.9077 106.401 64.7138 106.263C65.5317 106.124 66.323 105.991 67.0493 105.867L67.2176 105.837L67.1231 105.979C66.258 107.266 65.511 108.377 64.9677 109.189C64.7049 109.567 64.4923 109.877 64.3329 110.107C64.1823 110.319 64.0996 110.432 64.0908 110.429C64.0849 110.423 64.1557 110.302 64.2916 110.08C64.4421 109.841 64.6429 109.525 64.8909 109.138C65.4254 108.321 66.1547 107.199 67.0021 105.899L67.0759 106.012C66.3495 106.136 65.5612 106.271 64.7433 106.413C63.9372 106.549 63.1607 106.682 62.4432 106.803L62.2749 106.832L62.3694 106.691C63.2316 105.392 63.9786 104.27 64.5219 103.452C64.7817 103.068 64.9943 102.758 65.1567 102.522C65.3014 102.303 65.387 102.188 65.3929 102.194Z" fill="black"/>
<path d="M57.9554 107.916C57.9613 107.922 57.8904 108.043 57.7546 108.267C57.604 108.507 57.4032 108.828 57.1582 109.221C56.6267 110.048 55.8974 111.182 55.0529 112.493L54.9791 112.38C55.6937 112.256 56.4702 112.124 57.2763 111.985C58.0942 111.846 58.8855 111.713 59.6118 111.589L59.7801 111.56L59.6856 111.701C58.8205 112.989 58.0735 114.099 57.5302 114.911C57.2674 115.289 57.0548 115.599 56.8954 115.829C56.7448 116.042 56.6621 116.154 56.6533 116.151C56.6474 116.145 56.7182 116.024 56.8541 115.803C57.0046 115.563 57.2054 115.247 57.4534 114.861C57.9879 114.043 58.7172 112.921 59.5646 111.622L59.6384 111.734C58.912 111.858 58.1237 111.994 57.3058 112.135C56.4997 112.271 55.7232 112.404 55.0057 112.525L54.8374 112.555L54.9319 112.413C55.7941 111.114 56.5411 109.992 57.0844 109.174C57.3442 108.79 57.5568 108.48 57.7192 108.244C57.8639 108.025 57.9495 107.91 57.9554 107.916Z" fill="black"/>
<path d="M74.0267 102.111C74.0326 102.117 73.9617 102.238 73.8259 102.463C73.6753 102.702 73.4745 103.024 73.2295 103.416C72.698 104.243 71.9687 105.377 71.1242 106.688L71.0504 106.576C71.765 106.452 72.5415 106.319 73.3476 106.18C74.1655 106.041 74.9568 105.908 75.6831 105.784L75.8514 105.755L75.7569 105.896C74.8918 107.184 74.1448 108.294 73.6015 109.106C73.3387 109.484 73.1261 109.794 72.9667 110.024C72.8161 110.237 72.7334 110.349 72.7246 110.346C72.7187 110.34 72.7895 110.219 72.9253 109.998C73.0759 109.758 73.2767 109.443 73.5247 109.056C74.0592 108.238 74.7885 107.116 75.6359 105.817L75.7097 105.929C74.9833 106.053 74.195 106.189 73.3771 106.33C72.571 106.466 71.7945 106.599 71.077 106.72L70.9087 106.75L71.0032 106.608C71.8653 105.309 72.6124 104.187 73.1557 103.369C73.4155 102.985 73.6281 102.675 73.7905 102.439C73.9351 102.223 74.0178 102.108 74.0267 102.111Z" fill="black"/>
<path d="M36.3953 97.3869C36.4012 97.3928 36.3304 97.5139 36.1946 97.7383C36.044 97.9775 35.8432 98.2993 35.5981 98.692C35.0666 99.5187 34.3373 100.653 33.4929 101.964L33.4191 101.851C34.1336 101.727 34.9102 101.594 35.7162 101.456C36.5341 101.317 37.3254 101.184 38.0518 101.06L38.2201 101.031L38.1256 101.172C37.2605 102.46 36.5134 103.57 35.9702 104.382C35.7074 104.76 35.4948 105.07 35.3353 105.3C35.1848 105.513 35.1021 105.625 35.0932 105.622C35.0873 105.616 35.1582 105.495 35.294 105.273C35.4446 105.034 35.6454 104.718 35.8934 104.332C36.4278 103.514 37.1571 102.392 38.0045 101.093L38.0783 101.205C37.352 101.329 36.5636 101.465 35.7458 101.606C34.9397 101.742 34.1631 101.875 33.4456 101.996L33.2773 102.026L33.3718 101.884C34.234 100.585 34.981 99.4626 35.5243 98.6448C35.7841 98.2609 35.9967 97.9509 36.1591 97.7147C36.3038 97.4962 36.3865 97.381 36.3953 97.3869Z" fill="black"/>
<path d="M24.7205 119.464C24.7264 119.458 24.8239 119.564 24.9922 119.765C25.1723 119.984 25.4144 120.273 25.7126 120.63C26.3327 121.392 27.183 122.437 28.1662 123.648L28.0363 123.683C28.1426 122.966 28.2548 122.186 28.3729 121.374C28.4969 120.553 28.615 119.762 28.7213 119.033L28.7479 118.865L28.8513 118.997C29.805 120.22 30.6287 121.274 31.2311 122.044C31.5116 122.411 31.736 122.709 31.9072 122.933C32.0637 123.143 32.1435 123.258 32.1375 123.264C32.1316 123.27 32.0372 123.164 31.8689 122.966C31.6887 122.747 31.4525 122.458 31.1573 122.104C30.5461 121.342 29.7075 120.299 28.7361 119.092L28.866 119.056C28.7597 119.786 28.6446 120.577 28.5235 121.398C28.4025 122.207 28.2873 122.986 28.1781 123.704L28.1544 123.872L28.0511 123.739C27.0856 122.517 26.25 121.46 25.6388 120.686C25.3553 120.32 25.125 120.019 24.9508 119.795C24.7973 119.585 24.7146 119.47 24.7205 119.464Z" fill="black"/>
<path d="M51.3829 105.17C51.3829 105.179 51.2412 105.197 50.9813 105.22C50.6979 105.244 50.3229 105.276 49.8593 105.318C48.879 105.392 47.5356 105.492 45.9796 105.607L46.0238 105.48C46.5524 105.976 47.1281 106.517 47.7246 107.075C48.3299 107.644 48.9115 108.194 49.446 108.699L49.57 108.817L49.4017 108.825C47.8545 108.911 46.5169 108.985 45.5426 109.038C45.0819 109.059 44.707 109.074 44.4265 109.085C44.1666 109.094 44.0249 109.094 44.0249 109.085C44.0249 109.076 44.1637 109.059 44.4235 109.035C44.704 109.011 45.079 108.982 45.5367 108.944C46.511 108.876 47.8456 108.784 49.3928 108.678L49.3485 108.805C48.8111 108.3 48.2265 107.754 47.6212 107.187C47.0277 106.626 46.452 106.085 45.9264 105.586L45.8024 105.471L45.9707 105.462C47.5267 105.368 48.8731 105.288 49.8534 105.229C50.317 105.206 50.6949 105.188 50.9784 105.176C51.2382 105.161 51.3799 105.161 51.3829 105.17Z" fill="black"/>
<path d="M44.8397 120.051C44.8456 120.045 44.943 120.149 45.1172 120.347C45.3032 120.562 45.5512 120.846 45.8554 121.197C46.4902 121.947 47.3612 122.977 48.3681 124.167L48.2381 124.206C48.3297 123.485 48.4271 122.703 48.5305 121.891C48.6367 121.067 48.7401 120.273 48.8346 119.544L48.8552 119.375L48.9615 119.508C49.9389 120.713 50.7833 121.749 51.4004 122.508C51.6868 122.868 51.9201 123.163 52.0943 123.382C52.2537 123.589 52.3364 123.701 52.3305 123.707C52.3246 123.713 52.2272 123.609 52.0559 123.414C51.8728 123.202 51.6278 122.915 51.3296 122.567C50.7036 121.817 49.8444 120.793 48.8493 119.603L48.9793 119.564C48.8877 120.296 48.7873 121.088 48.684 121.912C48.5777 122.724 48.4773 123.503 48.3858 124.223L48.3651 124.392L48.2588 124.262C47.2697 123.057 46.4134 122.018 45.7875 121.256C45.4981 120.893 45.2619 120.601 45.0847 120.379C44.9164 120.17 44.8337 120.057 44.8397 120.051Z" fill="black"/>
<path d="M33.147 109.136C33.147 109.144 33.0053 109.162 32.7455 109.189C32.462 109.212 32.087 109.245 31.6235 109.286C30.6432 109.36 29.2998 109.46 27.7437 109.575L27.788 109.449C28.3165 109.945 28.8923 110.485 29.4887 111.043C30.094 111.613 30.6757 112.162 31.2101 112.667L31.3341 112.785L31.1658 112.794C29.6186 112.879 28.2811 112.953 27.3067 113.006C26.8461 113.027 26.4711 113.042 26.1906 113.054C25.9308 113.063 25.7891 113.063 25.7891 113.054C25.7891 113.045 25.9278 113.027 26.1877 113.003C26.4682 112.98 26.8432 112.95 27.3008 112.912C28.2752 112.844 29.6098 112.753 31.157 112.646L31.1127 112.773C30.5753 112.268 29.9907 111.722 29.3854 111.155C28.7919 110.594 28.2161 110.054 27.6906 109.555L27.5666 109.44L27.7349 109.431C29.2909 109.336 30.6373 109.257 31.6176 109.198C32.0811 109.174 32.4591 109.156 32.7425 109.144C33.0024 109.13 33.1441 109.13 33.147 109.136Z" fill="black"/>
<path d="M43.192 119.715C43.192 119.724 43.0502 119.742 42.7904 119.768C42.507 119.792 42.132 119.824 41.6684 119.866C40.6881 119.939 39.3447 120.04 37.7886 120.155L37.8329 120.028C38.3614 120.524 38.9372 121.064 39.5336 121.622C40.1389 122.192 40.7206 122.741 41.255 123.246L41.379 123.364L41.2107 123.373C39.6636 123.459 38.326 123.533 37.3516 123.586C36.891 123.607 36.516 123.621 36.2355 123.633C35.9757 123.642 35.834 123.642 35.834 123.633C35.834 123.624 35.9728 123.607 36.2326 123.583C36.5131 123.559 36.8881 123.53 37.3457 123.491C38.3201 123.423 39.6547 123.332 41.2019 123.226L41.1576 123.353C40.6202 122.848 40.0356 122.301 39.4303 121.735C38.8368 121.174 38.2611 120.633 37.7355 120.134L37.6115 120.019L37.7798 120.01C39.3358 119.916 40.6822 119.836 41.6625 119.777C42.1261 119.753 42.504 119.736 42.7875 119.724C43.0502 119.709 43.192 119.706 43.192 119.715Z" fill="black"/>
<path d="M65.8717 92.8015C65.8717 92.8103 65.7299 92.828 65.4701 92.8517C65.1866 92.8753 64.8117 92.9077 64.3481 92.9491C63.3678 93.0229 62.0244 93.1233 60.4683 93.2384L60.5126 93.1115C61.0411 93.6075 61.6169 94.1479 62.2133 94.7059C62.8186 95.2758 63.4003 95.825 63.9347 96.3299L64.0587 96.448L63.8904 96.4568C62.3433 96.5425 61.0057 96.6163 60.0313 96.6694C59.5707 96.6901 59.1957 96.7048 58.9152 96.7167C58.6554 96.7255 58.5137 96.7255 58.5137 96.7167C58.5137 96.7078 58.6524 96.6901 58.9123 96.6665C59.1928 96.6428 59.5678 96.6133 60.0254 96.5749C60.9998 96.507 62.3344 96.4155 63.8816 96.3092L63.8373 96.4362C63.2999 95.9313 62.7153 95.385 62.11 94.8181C61.5165 94.2571 60.9407 93.7168 60.4152 93.2178L60.2912 93.1026L60.4595 93.0938C62.0155 92.9993 63.3619 92.9196 64.3422 92.8605C64.8058 92.8369 65.1837 92.8192 65.4671 92.8074C65.7299 92.7926 65.8717 92.7926 65.8717 92.8015Z" fill="black"/>
<path d="M54.8402 119.715C54.8402 119.715 59.8095 118.283 61.4512 117.864C62.0919 117.701 64.8349 119.148 66.7305 120.35C66.7305 120.35 69.3406 121.897 69.128 122.375C68.8948 122.901 67.9322 122.792 66.3998 122.071C66.3998 122.071 66.9342 123.627 65.8831 123.592C65.8831 123.592 66.4057 125.272 65.4195 125.446C64.4333 125.62 64.203 123.477 63.332 123.358C62.4639 123.243 60.6658 123.125 60.6658 123.125C60.6658 123.125 59.1688 125.602 58.0113 125.777C56.8509 125.951 54.167 125.638 54.167 125.638L54.8402 119.715Z" fill="#FFBE9D"/>
<path d="M63.3174 120.057C63.341 120.022 63.9611 120.373 64.7052 120.843C65.4492 121.312 66.0339 121.72 66.0102 121.758C65.9866 121.794 65.3666 121.442 64.6225 120.973C63.8814 120.503 63.2968 120.096 63.3174 120.057Z" fill="#EB996E"/>
<path d="M63.0247 121.014C63.0425 120.976 63.7806 121.277 64.6723 121.69C65.564 122.101 66.2726 122.467 66.2549 122.505C66.2372 122.544 65.4991 122.242 64.6074 121.829C63.7157 121.419 63.007 121.052 63.0247 121.014Z" fill="#EB996E"/>
<path d="M63.5562 123.329C63.5621 123.288 64.0641 123.32 64.6782 123.406C65.2924 123.488 65.7854 123.592 65.7795 123.633C65.7736 123.674 65.2717 123.642 64.6575 123.556C64.0434 123.474 63.5503 123.373 63.5562 123.329Z" fill="#EB996E"/>
<path d="M48.3771 68.4717C48.4922 68.8526 48.3623 69.2955 48.0582 69.5495C47.754 69.8063 47.2934 69.8565 46.9391 69.6794C46.2659 69.3369 46.1803 68.4097 46.3132 67.6657C46.446 66.9216 46.697 66.1303 46.387 65.4423C46.1478 64.9168 45.6311 64.5831 45.2295 64.1697C44.5268 63.4493 44.1548 62.3982 44.326 61.4061C44.4973 60.414 45.2413 59.5223 46.2098 59.2536C47.199 58.976 48.4184 59.2802 49.1536 58.5656C49.688 58.046 49.7205 57.1956 50.1339 56.5785C50.7746 55.6159 52.1299 55.4654 53.2755 55.6218C54.4211 55.7783 55.5845 56.1445 56.7065 55.8669C57.6424 55.6337 58.4131 54.9811 59.29 54.5796C61.1915 53.7085 63.6245 54.181 65.0624 55.6986C66.5033 57.2163 66.8429 59.6699 65.8744 61.5242C65.526 62.1915 65.0004 62.7938 64.3066 63.0773" fill="#263238"/>
<path d="M48.3771 68.4717C48.4922 68.8526 48.3623 69.2955 48.0582 69.5495C47.754 69.8063 47.2934 69.8565 46.9391 69.6794C46.2659 69.3369 46.1803 68.4097 46.3132 67.6657C46.446 66.9216 46.697 66.1303 46.387 65.4423C46.1478 64.9168 45.6311 64.5831 45.2295 64.1697C44.5268 63.4493 44.1548 62.3982 44.326 61.4061C44.4973 60.414 45.2413 59.5223 46.2098 59.2536C47.199 58.976 48.4184 59.2802 49.1536 58.5656C49.688 58.046 49.7205 57.1956 50.1339 56.5785C50.7746 55.6159 52.1299 55.4654 53.2755 55.6218C54.4211 55.7783 55.5845 56.1445 56.7065 55.8669C57.6424 55.6337 58.4131 54.9811 59.29 54.5796C61.1915 53.7085 63.6245 54.181 65.0624 55.6986C66.5033 57.2163 66.8429 59.6699 65.8744 61.5242C65.526 62.1915 65.0004 62.7938 64.3066 63.0773" stroke="#263238" stroke-width="0.2" stroke-miterlimit="10"/>
<path d="M54.0757 92.8606C57.2469 92.8577 59.8039 90.2623 59.7625 87.0912L59.6887 81.6642C59.6887 81.6642 64.2476 81.2066 64.5517 76.689C64.8529 72.1715 64.6344 61.7486 64.6344 61.7486C59.5234 59.2153 53.4409 59.6434 48.7374 62.8736L48.0405 63.3519L48.3801 87.2506C48.4214 90.3627 50.9607 92.8636 54.0757 92.8606Z" fill="#FFBE9D" stroke="#263238" stroke-width="0.2" stroke-miterlimit="10"/>
<path d="M63.433 69.9275C62.6299 69.768 62.6358 68.7317 63.4419 68.584C63.4773 68.5781 63.5157 68.5781 63.5511 68.584C64.3542 68.7435 64.3483 69.7798 63.5423 69.9275C63.5098 69.9363 63.4684 69.9363 63.433 69.9275Z" fill="#263238" stroke="#263238" stroke-width="0.2" stroke-miterlimit="10"/>
<path d="M64.3216 68.4866C64.2478 68.5605 63.8226 68.1943 63.1996 68.1589C62.5766 68.1117 62.1071 68.4187 62.0422 68.3361C62.0097 68.2977 62.0894 68.1618 62.2931 68.0231C62.4939 67.8843 62.8335 67.7603 63.2232 67.7839C63.61 67.8105 63.9319 67.9788 64.112 68.1441C64.298 68.3065 64.357 68.4542 64.3216 68.4866Z" fill="#263238" stroke="#263238" stroke-width="0.2" stroke-miterlimit="10"/>
<path d="M57.117 68.637C57.4152 68.8437 57.489 69.2541 57.2823 69.5523C57.0756 69.8505 56.6652 69.9243 56.367 69.7176C56.0688 69.5109 55.995 69.1005 56.2017 68.8023C56.4083 68.5041 56.8188 68.4303 57.117 68.637Z" fill="#263238" stroke="#263238" stroke-width="0.2" stroke-miterlimit="10"/>
<path d="M57.5272 68.6666C57.4534 68.7404 57.0282 68.3743 56.4052 68.3388C55.7822 68.2916 55.3127 68.5987 55.2477 68.516C55.2153 68.4776 55.295 68.3418 55.4987 68.203C55.6995 68.0642 56.039 67.9402 56.4288 67.9638C56.8156 67.9904 57.1374 68.1587 57.3175 68.3241C57.5036 68.4865 57.5626 68.6341 57.5272 68.6666Z" fill="#263238" stroke="#263238" stroke-width="0.2" stroke-miterlimit="10"/>
<path d="M59.7447 73.9402C59.7417 73.89 60.1315 73.8339 60.7633 73.7807C60.9287 73.7719 61.0556 73.7423 61.0734 73.6538C61.1088 73.5563 61.0556 73.3792 60.9818 73.1813C60.843 72.7621 60.7043 72.3339 60.5596 71.8881C59.9779 70.0486 59.5823 68.5339 59.6738 68.5043C59.7683 68.4748 60.3145 69.9423 60.8962 71.7818C61.032 72.2306 61.1649 72.6587 61.2919 73.0809C61.342 73.2729 61.4424 73.4973 61.345 73.763C61.2919 73.8959 61.159 73.9844 61.0497 74.0081C60.9405 74.0346 60.849 74.0287 60.7692 74.0287C60.1374 74.0199 59.7447 73.9874 59.7447 73.9402Z" fill="#263238" stroke="#263238" stroke-width="0.2" stroke-miterlimit="10"/>
<path d="M57.6837 74.5159C58.4809 74.8849 59.4316 75.3456 60.6894 75.57C60.6894 75.57 59.8981 76.692 58.6226 76.1428C57.2939 75.5759 57.6837 74.5159 57.6837 74.5159Z" fill="white" stroke="#263238" stroke-width="0.2" stroke-miterlimit="10"/>
<path d="M59.6975 81.5963C59.6975 81.5963 56.8275 81.6731 53.8955 79.6003C53.8955 79.6003 55.112 82.9309 59.6443 82.7685L59.6975 81.5963Z" fill="#EB996E" stroke="#263238" stroke-width="0.2" stroke-miterlimit="10"/>
<path d="M64.664 62.8883C64.664 62.8883 61.9357 64.276 58.3158 62.5546C55.9418 61.4267 53.187 60.9071 52.5935 61.3913C51.9971 61.8755 51.9174 64.3026 49.6025 65.0555C49.6025 65.0555 49.8535 69.6764 48.0051 69.5465C46.1568 69.4166 47.1725 62.2328 47.1725 62.2328L51.6398 59.9416L56.5442 58.917L61.1946 59.4809L64.8027 60.3933L64.664 62.8883Z" fill="#263238" stroke="#263238" stroke-width="0.2" stroke-miterlimit="10"/>
<path d="M48.3385 68.0612C48.2647 68.0228 45.2825 66.9746 45.2116 70.069C45.1408 73.1663 48.2647 72.5965 48.2735 72.5079C48.2824 72.4193 48.3385 68.0612 48.3385 68.0612Z" fill="#FFBE9D" stroke="#263238" stroke-width="0.2" stroke-miterlimit="10"/>
<path d="M47.3553 71.315C47.3405 71.3061 47.2992 71.3504 47.2076 71.3918C47.1191 71.4301 46.9655 71.4538 46.8031 71.3918C46.4783 71.2648 46.2155 70.7392 46.2126 70.1812C46.2096 69.8977 46.2746 69.632 46.3809 69.4135C46.4813 69.1891 46.6319 69.0356 46.7972 69.009C46.9626 68.9735 47.0777 69.0769 47.1131 69.1655C47.1515 69.254 47.1309 69.3131 47.1486 69.319C47.1574 69.3279 47.2165 69.2688 47.1929 69.1389C47.1811 69.0769 47.1456 69.0031 47.0748 68.9411C47.0009 68.8791 46.8947 68.8466 46.7795 68.8554C46.5403 68.8673 46.3218 69.0828 46.2067 69.322C46.0797 69.5641 46 69.8652 46 70.1812C46.0059 70.8042 46.313 71.3977 46.7559 71.5364C46.9714 71.5984 47.1545 71.5364 47.2519 71.4656C47.3464 71.3888 47.3641 71.3209 47.3553 71.315Z" fill="#EB996E" stroke="#263238" stroke-width="0.2" stroke-miterlimit="10"/>
<path d="M46.7622 58.3679C46.7445 58.3324 47.2523 58.1878 47.8369 58.4062C48.4216 58.6218 48.7109 59.0647 48.6755 59.0794C48.643 59.1119 48.3241 58.7458 47.7838 58.5509C47.2494 58.3472 46.7681 58.4151 46.7622 58.3679Z" fill="#263238" stroke="#263238" stroke-width="0.2" stroke-miterlimit="10"/>
<path d="M48.6253 56.5135C48.6784 56.5164 48.5957 57.166 48.702 57.9396C48.8083 58.722 49.1745 59.2653 49.1331 59.289C49.1184 59.3008 49.0062 59.1797 48.8733 58.9464C48.7434 58.7161 48.6046 58.3648 48.5485 57.9632C48.4393 57.1542 48.5957 56.5076 48.6253 56.5135Z" fill="#263238" stroke="#263238" stroke-width="0.2" stroke-miterlimit="10"/>
<path d="M61.3482 66.9983C61.3305 66.9629 61.4634 66.8566 61.7144 66.7532C61.9654 66.6499 62.3374 66.5643 62.7537 66.5672C63.17 66.5731 63.5391 66.6676 63.7871 66.7739C64.0352 66.8802 64.168 66.9894 64.1503 67.0278C64.1119 67.1105 63.5155 66.8772 62.7508 66.8743C61.986 66.8595 61.3837 67.081 61.3482 66.9983Z" fill="#263238" stroke="#263238" stroke-width="0.2" stroke-miterlimit="10"/>
<path d="M54.4449 66.3489C54.4272 66.3135 54.5601 66.2072 54.8111 66.1038C55.062 66.0005 55.4341 65.9148 55.8504 65.9178C56.2667 65.9237 56.6358 66.0182 56.8838 66.1245C57.1318 66.2308 57.2647 66.34 57.247 66.3784C57.2086 66.4611 56.6122 66.2278 55.8474 66.2249C55.0827 66.2101 54.4804 66.4316 54.4449 66.3489Z" fill="#263238" stroke="#263238" stroke-width="0.2" stroke-miterlimit="10"/>
<path d="M60.8137 67.4857C60.8166 67.4886 60.8225 67.5536 60.8255 67.6687C60.8284 67.7987 60.8343 67.964 60.8402 68.1677C60.8461 68.3862 60.8491 68.6461 60.855 68.9443C60.855 69.2425 60.8727 69.5909 61.0026 69.9482C61.1266 70.3025 61.3392 70.6686 61.6552 70.9787C61.974 71.2828 62.3904 71.5367 62.8746 71.6489C63.1167 71.705 63.3706 71.7345 63.6305 71.7139C63.8903 71.7021 64.1531 71.6489 64.4041 71.5515C64.909 71.3655 65.3666 71.0023 65.6767 70.521C65.9719 70.0633 66.1048 69.5289 66.093 69.0092C66.093 68.4807 66.0959 67.9699 66.0959 67.4827L66.1668 67.5536C64.6196 67.5388 63.2968 67.527 62.3343 67.5182C61.8737 67.5093 61.5016 67.5034 61.2211 67.4975C61.103 67.4945 61.0026 67.4916 60.92 67.4886C60.855 67.4916 60.8166 67.4886 60.8137 67.4857C60.8078 67.4798 60.9406 67.4739 61.1945 67.468C61.4691 67.4621 61.8353 67.4562 62.29 67.4473C63.2614 67.4384 64.6019 67.4266 66.1698 67.4119H66.2406V67.4827C66.2406 67.9699 66.2436 68.4807 66.2436 69.0092C66.2613 69.5466 66.1196 70.1224 65.8066 70.6037C65.4788 71.1115 64.9916 71.4983 64.4572 71.6902C64.1915 71.7936 63.9139 71.8467 63.6393 71.8585C63.3647 71.8763 63.0961 71.8467 62.8421 71.7847C62.3313 71.6637 61.8943 71.392 61.5666 71.0672C61.2388 70.7365 61.0233 70.3527 60.8993 69.9777C60.7723 69.6027 60.7605 69.2425 60.7694 68.9325C60.7753 68.6284 60.7812 68.3626 60.7841 68.1382C60.79 67.9374 60.7959 67.775 60.7989 67.6451C60.8078 67.5388 60.8107 67.4827 60.8137 67.4857Z" fill="#263238"/>
<path d="M60.8137 67.4857C60.8166 67.4886 60.8225 67.5536 60.8255 67.6687C60.8284 67.7987 60.8343 67.964 60.8402 68.1677C60.8461 68.3862 60.8491 68.6461 60.855 68.9443C60.855 69.2425 60.8727 69.5909 61.0026 69.9482C61.1266 70.3025 61.3392 70.6686 61.6552 70.9787C61.974 71.2828 62.3904 71.5367 62.8746 71.6489C63.1167 71.705 63.3706 71.7345 63.6305 71.7139C63.8903 71.7021 64.1531 71.6489 64.4041 71.5515C64.909 71.3655 65.3666 71.0023 65.6767 70.521C65.9719 70.0633 66.1048 69.5289 66.093 69.0092C66.093 68.4807 66.0959 67.9699 66.0959 67.4827L66.1668 67.5536C64.6196 67.5388 63.2968 67.527 62.3343 67.5182C61.8737 67.5093 61.5016 67.5034 61.2211 67.4975C61.103 67.4945 61.0026 67.4916 60.92 67.4886C60.855 67.4916 60.8166 67.4886 60.8137 67.4857ZM60.8137 67.4857C60.8078 67.4798 60.9406 67.4739 61.1945 67.468C61.4691 67.4621 61.8353 67.4562 62.29 67.4473C63.2614 67.4384 64.6019 67.4266 66.1698 67.4119H66.2406V67.4827C66.2406 67.9699 66.2436 68.4807 66.2436 69.0092C66.2613 69.5466 66.1196 70.1224 65.8066 70.6037C65.4788 71.1115 64.9916 71.4983 64.4572 71.6902C64.1915 71.7936 63.9139 71.8467 63.6393 71.8585C63.3647 71.8763 63.0961 71.8467 62.8421 71.7847C62.3313 71.6637 61.8943 71.392 61.5666 71.0672C61.2388 70.7365 61.0233 70.3527 60.8993 69.9777C60.7723 69.6027 60.7605 69.2425 60.7694 68.9325C60.7753 68.6284 60.7812 68.3626 60.7841 68.1382C60.79 67.9374 60.7959 67.775 60.7989 67.6451C60.8078 67.5388 60.8107 67.4827 60.8137 67.4857Z" stroke="#263238" stroke-width="0.2" stroke-miterlimit="10"/>
<path d="M53.5768 67.3321C53.5798 67.3351 53.5857 67.4 53.5887 67.5152C53.5916 67.6451 53.5975 67.8104 53.6034 68.0142C53.6093 68.2327 53.6123 68.4925 53.6182 68.7907C53.6182 69.0889 53.6359 69.4374 53.7658 69.7946C53.8898 70.1489 54.1024 70.5151 54.4183 70.8251C54.7372 71.1292 55.1536 71.3831 55.6378 71.4953C55.8799 71.5514 56.1338 71.581 56.3937 71.5603C56.6535 71.5485 56.9163 71.4953 57.1673 71.3979C57.6722 71.2119 58.1298 70.8487 58.4398 70.3674C58.7351 69.9098 58.868 69.3753 58.8562 68.8557C58.8562 68.3272 58.8591 67.8164 58.8591 67.3292L58.93 67.4C57.3828 67.3853 56.06 67.3735 55.0975 67.3646C54.6368 67.3557 54.2648 67.3498 53.9843 67.3439C53.8662 67.341 53.7658 67.338 53.6831 67.3351C53.6152 67.338 53.5798 67.3351 53.5768 67.3321C53.5709 67.3262 53.7038 67.3203 53.9577 67.3144C54.2323 67.3085 54.5985 67.3026 55.0532 67.2937C56.0246 67.2849 57.3651 67.2731 58.9329 67.2583H59.0038V67.3292C59.0038 67.8164 59.0067 68.3272 59.0067 68.8557C59.0245 69.3931 58.8827 69.9688 58.5698 70.4501C58.242 70.958 57.7548 71.3448 57.2204 71.5367C56.9547 71.64 56.6771 71.6932 56.4025 71.705C56.1279 71.7227 55.8592 71.6932 55.6053 71.6312C55.0945 71.5101 54.6575 71.2385 54.3298 70.9137C54.002 70.583 53.7865 70.1991 53.6625 69.8241C53.5355 69.4492 53.5237 69.0889 53.5326 68.7789C53.5385 68.4748 53.5444 68.2091 53.5473 67.9847C53.5532 67.7839 53.5591 67.6215 53.5621 67.4916C53.568 67.3853 53.5709 67.3292 53.5768 67.3321Z" fill="#263238"/>
<path d="M53.5768 67.3321C53.5798 67.3351 53.5857 67.4 53.5887 67.5152C53.5916 67.6451 53.5975 67.8104 53.6034 68.0142C53.6093 68.2327 53.6123 68.4925 53.6182 68.7907C53.6182 69.0889 53.6359 69.4374 53.7658 69.7946C53.8898 70.1489 54.1024 70.5151 54.4183 70.8251C54.7372 71.1292 55.1536 71.3831 55.6378 71.4953C55.8799 71.5514 56.1338 71.581 56.3937 71.5603C56.6535 71.5485 56.9163 71.4953 57.1673 71.3979C57.6722 71.2119 58.1298 70.8487 58.4398 70.3674C58.7351 69.9098 58.868 69.3753 58.8562 68.8557C58.8562 68.3272 58.8591 67.8164 58.8591 67.3292L58.93 67.4C57.3828 67.3853 56.06 67.3735 55.0975 67.3646C54.6368 67.3557 54.2648 67.3498 53.9843 67.3439C53.8662 67.341 53.7658 67.338 53.6831 67.3351C53.6152 67.338 53.5798 67.3351 53.5768 67.3321ZM53.5768 67.3321C53.5709 67.3262 53.7038 67.3203 53.9577 67.3144C54.2323 67.3085 54.5985 67.3026 55.0532 67.2937C56.0246 67.2849 57.3651 67.2731 58.9329 67.2583H59.0038V67.3292C59.0038 67.8164 59.0067 68.3272 59.0067 68.8557C59.0245 69.3931 58.8827 69.9688 58.5698 70.4501C58.242 70.958 57.7548 71.3448 57.2204 71.5367C56.9547 71.64 56.6771 71.6932 56.4025 71.705C56.1279 71.7227 55.8592 71.6932 55.6053 71.6312C55.0945 71.5101 54.6575 71.2385 54.3298 70.9137C54.002 70.583 53.7865 70.1991 53.6625 69.8241C53.5355 69.4492 53.5237 69.0889 53.5326 68.7789C53.5385 68.4748 53.5444 68.2091 53.5473 67.9847C53.5532 67.7839 53.5591 67.6215 53.5621 67.4916C53.568 67.3853 53.5709 67.3292 53.5768 67.3321Z" stroke="#263238" stroke-width="0.2" stroke-miterlimit="10"/>
<path d="M60.8786 67.7013C60.8786 67.7426 60.421 67.7781 59.86 67.7781C59.296 67.7781 58.8413 67.7426 58.8413 67.7013C58.8413 67.6599 59.299 67.6245 59.86 67.6245C60.4239 67.6245 60.8786 67.6599 60.8786 67.7013Z" fill="#263238" stroke="#263238" stroke-width="0.2" stroke-miterlimit="10"/>
<path d="M47.9312 67.7426C47.9312 67.7012 49.1949 67.6629 50.7539 67.6569C52.3129 67.651 53.5766 67.6835 53.5766 67.7249C53.5766 67.7662 52.3129 67.8046 50.7539 67.8105C49.1949 67.8134 47.9312 67.7839 47.9312 67.7426Z" fill="#263238" stroke="#263238" stroke-width="0.2" stroke-miterlimit="10"/>
<path d="M104.661 71.4095L95.8705 68.2532L87.1661 71.3682C86.0559 71.8938 85.0815 72.2068 85.0815 73.2431V78.3984C85.0815 81.9771 86.0205 85.5261 87.9486 88.6559C89.5725 91.2897 92.0852 94.0032 95.9561 95.7275C99.5141 94.573 102.168 91.4905 103.792 88.8567C105.721 85.724 106.659 82.1778 106.659 78.5992V73.9636C106.662 72.4843 105.88 71.7639 104.661 71.4095Z" fill="#92E3A9" stroke="#263238" stroke-width="0.5" stroke-miterlimit="10" stroke-linecap="round" stroke-linejoin="round"/>
<path d="M95.9561 92.7335C92.8942 91.3694 90.9042 89.1756 89.6198 87.091C88.0932 84.6138 87.3521 81.8088 87.3521 78.9742V75.3602C87.3521 74.5423 87.8452 73.7746 88.8284 73.317L95.8735 70.6832L95.8705 68.2532L87.1661 71.3682C86.2537 71.7668 85.0815 72.2068 85.0815 73.2431V78.3984C85.0815 81.9771 86.0205 85.5261 87.9486 88.6559C89.5725 91.2897 92.0852 94.0032 95.9561 95.7275V92.7335Z" fill="#92E3A9" stroke="#263238" stroke-width="0.5" stroke-miterlimit="10" stroke-linecap="round" stroke-linejoin="round"/>
<path d="M95.9562 95.7246C96.5733 95.5179 97.1402 95.2817 97.6835 94.9834C99.1421 94.1892 100.388 93.0967 101.339 92.1076C102.402 91.0033 103.193 89.8075 103.881 88.6914C105.809 85.5586 106.748 82.0125 106.663 78.3364L106.668 74.0817C106.663 71.9617 105.576 71.8052 104.664 71.4066L95.8706 68.2532L95.8736 70.6832L103.001 73.3612C103.982 73.8189 104.478 74.5866 104.478 75.4045V79.0185C104.478 81.8501 103.736 84.6551 102.21 87.1353C100.926 89.2199 99.0211 91.3694 95.9592 92.7335V95.7246H95.9562Z" fill="#799093" stroke="#263238" stroke-width="0.5" stroke-miterlimit="10"/>
<path opacity="0.5" d="M98.2031 78.7468L98.212 78.05C98.212 76.7921 97.1874 75.7676 95.9296 75.7676C94.6718 75.7676 93.6472 76.7921 93.6472 78.047L93.6384 78.7557C93.0213 78.8472 92.5488 79.3757 92.5488 80.0164V84.1206C92.5488 84.8263 93.1216 85.3991 93.8244 85.3991H98.085C98.7907 85.3991 99.3635 84.8263 99.3635 84.1206V80.0164C99.3635 79.3491 98.8527 78.8059 98.2031 78.7468ZM96.5408 83.099H95.4277L95.6019 82.2959C95.4099 82.1748 95.28 81.9622 95.28 81.7201C95.28 81.3451 95.5841 81.041 95.9591 81.041C96.3341 81.041 96.6382 81.3451 96.6382 81.7201C96.6382 81.9563 96.5201 82.163 96.3371 82.2841C96.4138 82.5941 96.5408 83.099 96.5408 83.099ZM97.713 78.7409H94.1314L94.1403 78.05C94.1403 77.0638 94.9434 76.2607 95.9296 76.2607C96.9158 76.2607 97.7189 77.0638 97.7189 78.047L97.713 78.7409Z" fill="white"/>
<path d="M88.7783 78.6968C88.7576 78.6997 88.6985 78.4281 88.6454 77.9822C88.5923 77.5364 88.5539 76.9163 88.5745 76.2313C88.5834 75.8888 88.607 75.564 88.6365 75.2687C88.6661 74.9735 88.7192 74.6989 88.8344 74.4922C88.9466 74.2855 89.1031 74.1615 89.2182 74.1054C89.3363 74.0493 89.4131 74.0522 89.4131 74.0611C89.4279 74.0818 89.1149 74.1408 88.9318 74.5424C88.8403 74.7343 88.7989 74.9912 88.7783 75.2835C88.7546 75.5758 88.7369 75.8977 88.7281 76.2372C88.7074 76.9163 88.7281 77.5305 88.7546 77.9734C88.7783 78.4162 88.7989 78.6938 88.7783 78.6968Z" fill="white"/>
<path d="M88.9052 80.9378C88.8639 80.9378 88.8255 80.7281 88.8196 80.4654C88.8137 80.2026 88.8432 79.99 88.8875 79.99C88.9288 79.99 88.9672 80.1996 88.9731 80.4624C88.979 80.7252 88.9495 80.9378 88.9052 80.9378Z" fill="white"/>
<path d="M79.634 102.194L69.8312 126.432H52.1597V127.525H104.796L115.565 102.194H79.634Z" fill="#263238"/>
<path d="M94.6126 116.502C94.2582 117.722 93.2219 118.492 92.3036 118.227C91.3824 117.958 90.9247 116.753 91.279 115.534C91.6334 114.314 92.6668 113.544 93.588 113.809C94.5092 114.078 94.9698 115.283 94.6126 116.502Z" fill="#FAFAFA"/>
</g>
<defs>
<clipPath id="clip0_2708_1817">
<rect width="142.167" height="128" fill="white" transform="translate(0.5)"/>
</clipPath>
</defs>
</svg>
