<svg width="3" height="8" viewBox="0 0 3 8" fill="none" xmlns="http://www.w3.org/2000/svg">
<path d="M2.96069 0.396025C2.96523 0.398026 2.93348 0.50608 2.87302 0.698171C2.81255 0.890263 2.72034 1.16639 2.60546 1.50456C2.37417 2.18288 2.04615 3.11533 1.66823 4.13581C1.29032 5.1563 0.933572 6.07074 0.669033 6.72705C0.537519 7.05521 0.428681 7.31934 0.350075 7.50142C0.272981 7.68351 0.227632 7.78156 0.223097 7.77756C0.218562 7.77355 0.254841 7.6695 0.322865 7.48141C0.398448 7.27932 0.498216 7.01319 0.619148 6.69104C0.874617 6.00871 1.21776 5.09627 1.59719 4.08579C1.96905 3.0713 2.30464 2.15487 2.55557 1.46854C2.67348 1.14639 2.77174 0.87826 2.84581 0.676164C2.91534 0.496078 2.95616 0.394024 2.96069 0.396025Z" fill="#263238"/>
</svg>
