<svg width="19" height="24" viewBox="0 0 19 24" fill="none" xmlns="http://www.w3.org/2000/svg">
<path d="M3.03195 9.0946C3.08888 9.31307 3.02465 9.56711 2.8743 9.71276C2.72395 9.8601 2.49624 9.88889 2.32107 9.78728C1.98826 9.59082 1.94593 9.05903 2.01162 8.63225C2.0773 8.20547 2.20138 7.75159 2.04811 7.35699C1.92987 7.05553 1.67443 6.86415 1.47591 6.62705C1.1285 6.21382 0.944573 5.61091 1.02924 5.04186C1.1139 4.47282 1.48174 3.96136 1.96053 3.80724C2.44953 3.64804 3.05239 3.82248 3.41585 3.41264C3.68006 3.11457 3.69612 2.62682 3.90047 2.27286C4.21723 1.72075 4.88723 1.63438 5.4536 1.72414C6.01996 1.8139 6.59508 2.0239 7.14977 1.86471C7.6125 1.73091 7.99348 1.35663 8.42701 1.1263C9.36706 0.626698 10.5699 0.89767 11.2807 1.76817C11.9931 2.63867 12.1609 4.04604 11.6822 5.1096C11.5099 5.49235 11.2501 5.83785 10.907 6.00043" fill="#263238"/>
<path d="M3.03195 9.0946C3.08888 9.31307 3.02465 9.56711 2.8743 9.71276C2.72395 9.8601 2.49624 9.88889 2.32107 9.78728C1.98826 9.59082 1.94593 9.05903 2.01162 8.63225C2.0773 8.20547 2.20138 7.75159 2.04811 7.35699C1.92987 7.05553 1.67443 6.86415 1.47591 6.62705C1.1285 6.21382 0.944573 5.61091 1.02924 5.04186C1.1139 4.47282 1.48174 3.96136 1.96053 3.80724C2.44953 3.64804 3.05239 3.82248 3.41585 3.41264C3.68006 3.11457 3.69612 2.62682 3.90047 2.27286C4.21723 1.72075 4.88723 1.63438 5.4536 1.72414C6.01996 1.8139 6.59508 2.0239 7.14977 1.86471C7.6125 1.73091 7.99348 1.35663 8.42701 1.1263C9.36706 0.626698 10.5699 0.89767 11.2807 1.76817C11.9931 2.63867 12.1609 4.04604 11.6822 5.1096C11.5099 5.49235 11.2501 5.83785 10.907 6.00043" stroke="#263238" stroke-width="0.2" stroke-miterlimit="10"/>
<path d="M5.84911 23.0836C7.41683 23.0819 8.68094 21.5933 8.6605 19.7744L8.62401 16.6616C8.62401 16.6616 10.8778 16.3991 11.0281 13.8079C11.177 11.2167 11.069 5.23838 11.069 5.23838C8.54227 3.78529 5.53528 4.03086 3.20997 5.88363L2.86548 6.15799L3.03335 19.8658C3.05378 21.6509 4.30913 23.0853 5.84911 23.0836Z" fill="#FFBE9D" stroke="#263238" stroke-width="0.2" stroke-miterlimit="10"/>
<path d="M10.475 9.92961C10.0779 9.83816 10.0809 9.24371 10.4794 9.15903C10.4969 9.15565 10.5158 9.15565 10.5334 9.15903C10.9304 9.25049 10.9275 9.84494 10.529 9.92961C10.5129 9.93469 10.4925 9.93469 10.475 9.92961Z" fill="#263238" stroke="#263238" stroke-width="0.2" stroke-miterlimit="10"/>
<path d="M10.9144 9.1031C10.8779 9.14544 10.6677 8.93544 10.3597 8.91511C10.0517 8.88802 9.81958 9.06415 9.78747 9.01673C9.77141 8.99471 9.81082 8.91681 9.91154 8.83721C10.0108 8.75761 10.1787 8.68648 10.3713 8.70003C10.5626 8.71527 10.7217 8.81181 10.8107 8.90665C10.9027 8.99979 10.9319 9.08447 10.9144 9.1031Z" fill="#263238" stroke="#263238" stroke-width="0.2" stroke-miterlimit="10"/>
<path d="M7.35273 9.18953C7.50016 9.30809 7.53665 9.54349 7.43447 9.71454C7.33229 9.88559 7.1294 9.92793 6.98197 9.80938C6.83454 9.69083 6.79804 9.45543 6.90022 9.28437C7.0024 9.11332 7.2053 9.07098 7.35273 9.18953Z" fill="#263238" stroke="#263238" stroke-width="0.2" stroke-miterlimit="10"/>
<path d="M7.55553 9.20644C7.51904 9.24878 7.30884 9.03877 7.00084 9.01845C6.69285 8.99135 6.46075 9.16749 6.42864 9.12007C6.41258 9.09805 6.452 9.02014 6.55272 8.94055C6.65197 8.86095 6.81984 8.78982 7.01252 8.80336C7.20374 8.81861 7.36285 8.91514 7.45189 9.00998C7.54385 9.10313 7.57305 9.18781 7.55553 9.20644Z" fill="#263238" stroke="#263238" stroke-width="0.2" stroke-miterlimit="10"/>
<path d="M8.65177 12.2311C8.65031 12.2023 8.84299 12.1701 9.15537 12.1397C9.23711 12.1346 9.29987 12.1176 9.30863 12.0668C9.32615 12.0109 9.29987 11.9093 9.26338 11.7959C9.19478 11.5554 9.12617 11.3098 9.05465 11.0541C8.76708 9.99897 8.57148 9.13016 8.61673 9.11323C8.66345 9.09629 8.93349 9.938 9.22105 10.9931C9.2882 11.2505 9.35388 11.4961 9.41665 11.7383C9.44147 11.8484 9.4911 11.9771 9.44293 12.1295C9.41665 12.2057 9.35097 12.2565 9.29696 12.2701C9.24295 12.2853 9.1977 12.2819 9.15828 12.2819C8.84591 12.2768 8.65177 12.2582 8.65177 12.2311Z" fill="#263238" stroke="#263238" stroke-width="0.2" stroke-miterlimit="10"/>
<path d="M7.63291 12.5614C8.02703 12.7731 8.49705 13.0373 9.11889 13.166C9.11889 13.166 8.72769 13.8096 8.0971 13.4946C7.44023 13.1694 7.63291 12.5614 7.63291 12.5614Z" fill="white" stroke="#263238" stroke-width="0.2" stroke-miterlimit="10"/>
<path d="M8.62845 16.6226C8.62845 16.6226 7.20962 16.6667 5.76013 15.4778C5.76013 15.4778 6.36153 17.3881 8.60217 17.295L8.62845 16.6226Z" fill="#EB996E" stroke="#263238" stroke-width="0.2" stroke-miterlimit="10"/>
<path d="M11.0836 5.89206C11.0836 5.89206 9.73482 6.68805 7.94522 5.70069C6.77162 5.05374 5.40972 4.75567 5.11632 5.03342C4.82146 5.31117 4.78205 6.70329 3.63764 7.13515C3.63764 7.13515 3.76172 9.78561 2.84794 9.71109C1.93417 9.63657 2.43631 5.51609 2.43631 5.51609L4.64484 4.20187L7.0694 3.6142L9.36844 3.93767L11.1522 4.46099L11.0836 5.89206Z" fill="#263238" stroke="#263238" stroke-width="0.2" stroke-miterlimit="10"/>
<path d="M3.01291 8.85927C2.97641 8.83725 1.50211 8.23603 1.46708 10.0109C1.43205 11.7875 2.97641 11.4606 2.98079 11.4098C2.98517 11.359 3.01291 8.85927 3.01291 8.85927Z" fill="#FFBE9D" stroke="#263238" stroke-width="0.2" stroke-miterlimit="10"/>
<path d="M2.52681 10.7256C2.51952 10.7205 2.49908 10.7459 2.45383 10.7696C2.41004 10.7917 2.33413 10.8052 2.25385 10.7696C2.09328 10.6968 1.96337 10.3954 1.96191 10.0753C1.96045 9.91269 1.99256 9.76026 2.04511 9.63494C2.09474 9.50623 2.16919 9.41816 2.25093 9.40292C2.33267 9.38259 2.3896 9.44187 2.40712 9.49268C2.42609 9.54348 2.41588 9.57736 2.42464 9.58074C2.42902 9.58583 2.45821 9.55195 2.44653 9.47744C2.44069 9.44187 2.42318 9.39953 2.38814 9.36397C2.35165 9.3284 2.2991 9.30977 2.24217 9.31485C2.12394 9.32163 2.01592 9.44526 1.95899 9.58244C1.89622 9.72131 1.85681 9.89406 1.85681 10.0753C1.85973 10.4326 2.01154 10.773 2.2305 10.8526C2.33705 10.8882 2.42755 10.8526 2.47572 10.812C2.52243 10.7679 2.53119 10.729 2.52681 10.7256Z" fill="#EB996E" stroke="#263238" stroke-width="0.2" stroke-miterlimit="10"/>
<path d="M2.23344 3.29924C2.22468 3.27891 2.47575 3.19593 2.76477 3.32125C3.05379 3.44489 3.19684 3.69892 3.17933 3.70739C3.16327 3.72602 3.00562 3.51602 2.7385 3.40424C2.47429 3.28738 2.23636 3.32633 2.23344 3.29924Z" fill="#263238" stroke="#263238" stroke-width="0.2" stroke-miterlimit="10"/>
<path d="M3.15464 2.23562C3.18092 2.23731 3.14004 2.6099 3.19259 3.05362C3.24514 3.50242 3.42615 3.81404 3.40571 3.82759C3.39841 3.83436 3.34294 3.76492 3.27726 3.63113C3.21303 3.49903 3.14442 3.29749 3.11669 3.06717C3.06268 2.60313 3.14004 2.23223 3.15464 2.23562Z" fill="#263238" stroke="#263238" stroke-width="0.2" stroke-miterlimit="10"/>
<path d="M9.44438 8.2495C9.43562 8.22918 9.50131 8.16821 9.62538 8.10894C9.74946 8.04966 9.93338 8.00055 10.1392 8.00224C10.345 8.00563 10.5275 8.05982 10.6501 8.12079C10.7727 8.18176 10.8384 8.24442 10.8296 8.26644C10.8107 8.31386 10.5158 8.18007 10.1377 8.17837C9.75968 8.16991 9.4619 8.29692 9.44438 8.2495Z" fill="#263238" stroke="#263238" stroke-width="0.2" stroke-miterlimit="10"/>
<path d="M6.03166 7.87701C6.0229 7.85668 6.08859 7.79571 6.21266 7.73644C6.33674 7.67716 6.52066 7.62805 6.72648 7.62974C6.9323 7.63313 7.11476 7.68732 7.23738 7.74829C7.35999 7.80926 7.42568 7.87192 7.41692 7.89394C7.39794 7.94136 7.10308 7.80757 6.72502 7.80587C6.34696 7.79741 6.04918 7.92443 6.03166 7.87701Z" fill="#263238" stroke="#263238" stroke-width="0.2" stroke-miterlimit="10"/>
<path d="M14.5921 8.89188C14.5938 8.89388 14.5973 8.9379 14.599 9.01594C14.6007 9.10398 14.6042 9.21604 14.6076 9.3541C14.6111 9.50217 14.6128 9.67826 14.6162 9.88035C14.6162 10.0825 14.6266 10.3186 14.7025 10.5607C14.7749 10.8008 14.8991 11.0489 15.0836 11.259C15.2699 11.4651 15.513 11.6372 15.7959 11.7132C15.9373 11.7513 16.0856 11.7713 16.2374 11.7573C16.3891 11.7492 16.5426 11.7132 16.6892 11.6472C16.9841 11.5211 17.2515 11.275 17.4325 10.9489C17.605 10.6387 17.6826 10.2765 17.6757 9.92438C17.6757 9.56621 17.6774 9.22004 17.6774 8.88988L17.7188 8.9379C16.8151 8.9279 16.0425 8.9199 15.4803 8.91389C15.2112 8.90789 14.9939 8.90389 14.8301 8.89989C14.7611 8.89789 14.7025 8.89589 14.6542 8.89388C14.6162 8.89589 14.5938 8.89388 14.5921 8.89188C14.5886 8.88788 14.6662 8.88388 14.8146 8.87988C14.9749 8.87587 15.1888 8.87187 15.4544 8.86587C16.0218 8.85987 16.8048 8.85186 17.7206 8.84186H17.762V8.88988C17.762 9.22004 17.7637 9.56621 17.7637 9.92438C17.774 10.2886 17.6912 10.6787 17.5084 11.0049C17.317 11.3491 17.0324 11.6112 16.7203 11.7412C16.5651 11.8113 16.4029 11.8473 16.2426 11.8553C16.0822 11.8673 15.9252 11.8473 15.7769 11.8053C15.4785 11.7232 15.2233 11.5391 15.0319 11.319C14.8404 11.0949 14.7145 10.8348 14.6421 10.5807C14.5679 10.3266 14.561 10.0825 14.5662 9.87235C14.5697 9.66625 14.5731 9.48617 14.5748 9.33409C14.5783 9.19803 14.5817 9.08798 14.5835 8.99994C14.5886 8.9279 14.5904 8.88988 14.5921 8.89188Z" fill="#263238"/>
<path d="M14.5921 8.89188C14.5938 8.89388 14.5973 8.9379 14.599 9.01594C14.6007 9.10398 14.6042 9.21604 14.6076 9.3541C14.6111 9.50217 14.6128 9.67826 14.6162 9.88035C14.6162 10.0825 14.6266 10.3186 14.7025 10.5607C14.7749 10.8008 14.8991 11.0489 15.0836 11.259C15.2699 11.4651 15.513 11.6372 15.7959 11.7132C15.9373 11.7513 16.0856 11.7713 16.2374 11.7573C16.3891 11.7492 16.5426 11.7132 16.6892 11.6472C16.9841 11.5211 17.2515 11.275 17.4325 10.9489C17.605 10.6387 17.6826 10.2765 17.6757 9.92438C17.6757 9.56621 17.6774 9.22004 17.6774 8.88988L17.7188 8.9379C16.8151 8.9279 16.0425 8.9199 15.4803 8.91389C15.2112 8.90789 14.9939 8.90389 14.8301 8.89989C14.7611 8.89789 14.7025 8.89589 14.6542 8.89388C14.6162 8.89589 14.5938 8.89388 14.5921 8.89188ZM14.5921 8.89188C14.5886 8.88788 14.6662 8.88388 14.8146 8.87988C14.9749 8.87587 15.1888 8.87187 15.4544 8.86587C16.0218 8.85987 16.8048 8.85186 17.7206 8.84186H17.762V8.88988C17.762 9.22004 17.7637 9.56621 17.7637 9.92438C17.774 10.2886 17.6912 10.6787 17.5084 11.0049C17.317 11.3491 17.0324 11.6112 16.7203 11.7412C16.5651 11.8113 16.4029 11.8473 16.2426 11.8553C16.0822 11.8673 15.9252 11.8473 15.7769 11.8053C15.4785 11.7232 15.2233 11.5391 15.0319 11.319C14.8404 11.0949 14.7145 10.8348 14.6421 10.5807C14.5679 10.3266 14.561 10.0825 14.5662 9.87235C14.5697 9.66625 14.5731 9.48617 14.5748 9.33409C14.5783 9.19803 14.5817 9.08798 14.5835 8.99994C14.5886 8.9279 14.5904 8.88988 14.5921 8.89188Z" stroke="#263238" stroke-width="0.2" stroke-miterlimit="10"/>
<path d="M10.365 8.78782C10.3667 8.78982 10.3701 8.83384 10.3719 8.91188C10.3736 8.99992 10.377 9.11197 10.3805 9.25004C10.3839 9.39811 10.3857 9.57419 10.3891 9.77629C10.3891 9.97839 10.3995 10.2145 10.4753 10.4566C10.5478 10.6967 10.672 10.9448 10.8565 11.1549C11.0427 11.361 11.2859 11.5331 11.5688 11.6092C11.7102 11.6472 11.8585 11.6672 12.0103 11.6532C12.162 11.6452 12.3155 11.6092 12.4621 11.5431C12.757 11.4171 13.0243 11.171 13.2054 10.8448C13.3779 10.5347 13.4555 10.1725 13.4486 9.82031C13.4486 9.46214 13.4503 9.11597 13.4503 8.78582L13.4917 8.83384C12.588 8.82384 11.8154 8.81583 11.2532 8.80983C10.9841 8.80382 10.7668 8.79982 10.603 8.79582C10.534 8.79382 10.4753 8.79182 10.4271 8.78982C10.3874 8.79182 10.3667 8.78982 10.365 8.78782C10.3615 8.78381 10.4391 8.77981 10.5874 8.77581C10.7478 8.77181 10.9617 8.76781 11.2273 8.76181C11.7947 8.7558 12.5777 8.7478 13.4934 8.73779H13.5348V8.78582C13.5348 9.11597 13.5366 9.46214 13.5366 9.82031C13.5469 10.1845 13.4641 10.5747 13.2813 10.9008C13.0899 11.245 12.8053 11.5071 12.4932 11.6372C12.3379 11.7072 12.1758 11.7432 12.0154 11.7512C11.8551 11.7632 11.6981 11.7432 11.5498 11.7012C11.2514 11.6192 10.9962 11.4351 10.8047 11.215C10.6133 10.9909 10.4874 10.7307 10.415 10.4766C10.3408 10.2225 10.3339 9.97839 10.3391 9.76829C10.3425 9.56219 10.346 9.3821 10.3477 9.23003C10.3512 9.09396 10.3546 8.98391 10.3563 8.89587C10.3598 8.82384 10.3615 8.78582 10.365 8.78782Z" fill="#263238"/>
<path d="M10.365 8.78782C10.3667 8.78982 10.3701 8.83384 10.3719 8.91188C10.3736 8.99992 10.377 9.11197 10.3805 9.25004C10.3839 9.39811 10.3857 9.57419 10.3891 9.77629C10.3891 9.97839 10.3995 10.2145 10.4753 10.4566C10.5478 10.6967 10.672 10.9448 10.8565 11.1549C11.0427 11.361 11.2859 11.5331 11.5688 11.6092C11.7102 11.6472 11.8585 11.6672 12.0103 11.6532C12.162 11.6452 12.3155 11.6092 12.4621 11.5431C12.757 11.4171 13.0243 11.171 13.2054 10.8448C13.3779 10.5347 13.4555 10.1725 13.4486 9.82031C13.4486 9.46214 13.4503 9.11597 13.4503 8.78582L13.4917 8.83384C12.588 8.82384 11.8154 8.81583 11.2532 8.80983C10.9841 8.80382 10.7668 8.79982 10.603 8.79582C10.534 8.79382 10.4753 8.79182 10.4271 8.78982C10.3874 8.79182 10.3667 8.78982 10.365 8.78782ZM10.365 8.78782C10.3615 8.78381 10.4391 8.77981 10.5874 8.77581C10.7478 8.77181 10.9617 8.76781 11.2273 8.76181C11.7947 8.7558 12.5777 8.7478 13.4934 8.73779H13.5348V8.78582C13.5348 9.11597 13.5366 9.46214 13.5366 9.82031C13.5469 10.1845 13.4641 10.5747 13.2813 10.9008C13.0899 11.245 12.8053 11.5071 12.4932 11.6372C12.3379 11.7072 12.1758 11.7432 12.0154 11.7512C11.8551 11.7632 11.6981 11.7432 11.5498 11.7012C11.2514 11.6192 10.9962 11.4351 10.8047 11.215C10.6133 10.9909 10.4874 10.7307 10.415 10.4766C10.3408 10.2225 10.3339 9.97839 10.3391 9.76829C10.3425 9.56219 10.346 9.3821 10.3477 9.23003C10.3512 9.09396 10.3546 8.98391 10.3563 8.89587C10.3598 8.82384 10.3615 8.78582 10.365 8.78782Z" stroke="#263238" stroke-width="0.2" stroke-miterlimit="10"/>
<path d="M14.63 9.03792C14.63 9.06594 14.3627 9.08995 14.035 9.08995C13.7056 9.08995 13.44 9.06594 13.44 9.03792C13.44 9.00991 13.7073 8.9859 14.035 8.9859C14.3644 8.9859 14.63 9.00991 14.63 9.03792Z" fill="#263238" stroke="#263238" stroke-width="0.2" stroke-miterlimit="10"/>
<path d="M7.0675 9.06594C7.0675 9.03793 7.80565 9.01192 8.71625 9.00792C9.62686 9.00392 10.365 9.02593 10.365 9.05394C10.365 9.08195 9.62686 9.10797 8.71625 9.11197C7.80565 9.11397 7.0675 9.09396 7.0675 9.06594Z" fill="#263238" stroke="#263238" stroke-width="0.2" stroke-miterlimit="10"/>
</svg>
