<svg width="195" height="128" viewBox="0 0 195 128" fill="none" xmlns="http://www.w3.org/2000/svg">
<g clip-path="url(#clip0_2708_1675)">
<path d="M148.925 0.00826307C127.444 0.569254 117.872 14.1602 89.9906 19.8834C61.5983 22.0942 48.5435 11.6951 27.762 17.0922C5.40523 22.9011 -6.30098 55.6459 4.67014 84.8119C15.6412 113.978 50.0994 125.806 65.9978 123.183C78.7017 121.088 88.9018 114.091 103.159 110.548C117.852 110.007 129.636 113.906 142.425 112.406C158.429 110.529 188.139 89.6536 190.367 58.625C192.594 27.5963 172.036 -0.594181 148.925 0.00826307Z" fill="#92E3A9"/>
<path opacity="0.7" d="M148.925 0.00826307C127.444 0.569254 117.872 14.1602 89.9906 19.8834C61.5983 22.0942 48.5435 11.6951 27.762 17.0922C5.40523 22.9011 -6.30097 55.6459 4.67014 84.8119C15.6412 113.978 50.0994 125.806 65.9978 123.183C78.7017 121.088 88.9017 114.091 103.159 110.548C117.852 110.007 129.636 113.906 142.425 112.406C158.429 110.529 188.139 89.6536 190.367 58.625C192.594 27.5963 172.036 -0.594181 148.925 0.00826307Z" fill="#D2EEEA"/>
<path d="M16.498 124.192H186.083" stroke="#263238" stroke-miterlimit="10"/>
<path d="M7.69067 124.192H12.256" stroke="#263238" stroke-miterlimit="10"/>
<path d="M151.832 84.7124C151.832 84.7124 156.798 92.6492 158.876 100.323C160.352 105.781 160.418 116.612 160.418 116.612C160.418 116.612 160.518 84.4775 167.913 72.0334" stroke="#263238" stroke-miterlimit="10" stroke-linecap="round" stroke-linejoin="round"/>
<path d="M171.904 44.2161C171.904 44.2161 164.743 55.7205 162.748 67.692C160.753 79.6663 160.283 109.363 160.283 109.363C160.167 103.142 159.227 80.3682 157.232 70.508C155.237 60.6479 151.597 53.4876 151.597 53.4876" stroke="#263238" stroke-miterlimit="10" stroke-linecap="round" stroke-linejoin="round"/>
<path d="M153.15 56.9806C153.15 56.9806 159.142 57.2569 161.941 52.7579C164.738 48.2589 162.9 43.9589 160.269 43.6439C157.638 43.3289 156.497 46.5815 155.522 45.0229C154.546 43.4615 158.318 40.5239 154.093 37.8212C149.865 35.1185 147.894 38.9957 146.554 37.6112C145.214 36.2267 146.178 32.6065 143.387 31.0174C140.596 29.4284 139.291 31.4071 137.747 31.4734C136.202 31.5397 131.335 28.9172 129.395 30.976C127.455 33.0348 132.101 38.0146 129.918 38.1639C127.734 38.3103 126.85 42.5661 128.622 45.3213C130.396 48.0766 136.102 49.1654 134.989 50.6024C133.875 52.0394 128.425 51.951 130.644 55.1677C132.864 58.3844 140.402 58.5945 141.488 58.9758C142.572 59.3572 138.017 60.1918 138.786 63.204C139.557 66.2134 145.819 66.5865 149.848 64.6521C153.877 62.7176 153.15 56.9806 153.15 56.9806Z" fill="#92E3A9"/>
<path d="M135.859 36.6909C135.859 36.6909 148.588 45.0118 153.15 56.9806" stroke="#263238" stroke-miterlimit="10" stroke-linecap="round" stroke-linejoin="round"/>
<path d="M135.235 42.5191L143.768 43.3509L141.687 36.2764" stroke="#263238" stroke-miterlimit="10" stroke-linecap="round" stroke-linejoin="round"/>
<path d="M142.105 52.302H150.636L151.26 44.6001" stroke="#263238" stroke-miterlimit="10" stroke-linecap="round" stroke-linejoin="round"/>
<path d="M170.704 46.7861C170.704 46.7861 165.84 47.0099 163.569 43.3593C161.297 39.7087 162.792 36.2157 164.926 35.9614C167.062 35.7072 167.988 38.3463 168.778 37.0806C169.568 35.8149 166.506 33.43 169.939 31.2358C173.371 29.0416 174.971 32.1892 176.057 31.0645C177.146 29.9397 176.361 27.0021 178.627 25.7116C180.893 24.421 181.952 26.0266 183.206 26.0819C184.461 26.1344 188.41 24.0065 189.985 25.6784C191.56 27.3503 187.791 31.3933 189.562 31.5122C191.334 31.631 192.052 35.0854 190.615 37.3238C189.175 39.5595 184.544 40.4438 185.447 41.61C186.351 42.7762 190.775 42.7044 188.974 45.3159C187.172 47.9274 181.051 48.0987 180.172 48.4055C179.29 48.715 182.991 49.392 182.366 51.8377C181.742 54.2807 176.657 54.5847 173.385 53.0122C170.113 51.4426 170.704 46.7861 170.704 46.7861Z" fill="#92E3A9"/>
<path d="M184.74 30.3157C184.74 30.3157 174.407 37.0697 170.704 46.7862" stroke="#263238" stroke-miterlimit="10" stroke-linecap="round" stroke-linejoin="round"/>
<path d="M185.246 35.0468L178.32 35.7238L180.009 29.9785" stroke="#263238" stroke-miterlimit="10" stroke-linecap="round" stroke-linejoin="round"/>
<path d="M179.672 42.9891H172.744L172.238 36.738" stroke="#263238" stroke-miterlimit="10" stroke-linecap="round" stroke-linejoin="round"/>
<path d="M154.789 90.3472C154.789 90.3472 158.735 90.5296 160.579 87.5671C162.422 84.6046 161.209 81.772 159.479 81.5647C157.746 81.3575 156.994 83.4992 156.353 82.4712C155.712 81.4432 158.197 79.5087 155.411 77.729C152.628 75.9493 151.329 78.5028 150.448 77.5908C149.563 76.6789 150.202 74.2967 148.364 73.2494C146.526 72.202 145.667 73.5064 144.65 73.5478C143.633 73.592 140.427 71.8648 139.15 73.2217C137.871 74.5786 140.933 77.8589 139.493 77.9556C138.056 78.0523 137.473 80.8545 138.639 82.6701C139.808 84.483 143.567 85.2015 142.831 86.1466C142.099 87.0918 138.509 87.0365 139.971 89.1533C141.433 91.2702 146.399 91.4111 147.112 91.6598C147.825 91.9113 144.827 92.4612 145.332 94.4427C145.838 96.4241 149.964 96.6701 152.617 95.3961C155.267 94.1249 154.789 90.3472 154.789 90.3472Z" fill="#92E3A9"/>
<path d="M143.404 76.9856C143.404 76.9856 151.785 82.4656 154.789 90.3471" stroke="#263238" stroke-miterlimit="10" stroke-linecap="round" stroke-linejoin="round"/>
<path d="M142.992 80.824L148.613 81.3712L147.242 76.7119" stroke="#263238" stroke-miterlimit="10" stroke-linecap="round" stroke-linejoin="round"/>
<path d="M147.516 87.2659H153.134L153.546 82.1948" stroke="#263238" stroke-miterlimit="10" stroke-linecap="round" stroke-linejoin="round"/>
<path d="M166.492 74.8936C166.492 74.8936 160.548 74.095 158.6 69.1676C156.652 64.2403 159.23 60.341 161.875 60.5013C164.519 60.6616 165.061 64.0662 166.299 62.7066C167.537 61.3469 164.351 57.7792 168.993 55.8779C173.636 53.9767 174.88 58.1413 176.449 57.0193C178.016 55.8973 177.712 52.1638 180.744 51.0999C183.775 50.0359 184.704 52.2163 186.213 52.5562C187.722 52.8989 192.978 51.1883 194.52 53.5621C196.062 55.936 190.599 60.0039 192.721 60.54C194.843 61.0761 194.951 65.4203 192.715 67.8135C190.477 70.2067 184.668 70.2592 185.505 71.8704C186.343 73.4815 191.723 74.3713 188.963 77.1376C186.202 79.9039 178.749 78.7625 177.613 78.9449C176.477 79.1246 180.81 80.7633 179.514 83.5876C178.218 86.4119 171.989 85.6575 168.372 83.0349C164.751 80.4068 166.492 74.8936 166.492 74.8936Z" fill="#92E3A9"/>
<path d="M187.133 58.0251C187.133 58.0251 173.122 63.9335 166.492 74.8936" stroke="#263238" stroke-miterlimit="10" stroke-linecap="round" stroke-linejoin="round"/>
<path d="M186.708 63.8699L178.163 63.1625L181.476 56.5715" stroke="#263238" stroke-miterlimit="10" stroke-linecap="round" stroke-linejoin="round"/>
<path d="M178.199 72.2655L169.803 70.7401L170.566 63.052" stroke="#263238" stroke-miterlimit="10" stroke-linecap="round" stroke-linejoin="round"/>
<path d="M150.68 101.534C150.254 102.678 150.011 112.414 150.011 113.707C150.011 122.269 154.734 124.255 160.559 124.255C166.385 124.255 171.108 122.727 171.108 113.707C171.108 112.414 170.864 102.678 170.439 101.534H150.68Z" fill="#263238" stroke="#263238" stroke-miterlimit="10" stroke-linecap="round" stroke-linejoin="round"/>
<path d="M15.1299 102.606V107.102" stroke="#263238" stroke-width="0.5" stroke-miterlimit="10"/>
<path d="M17.3794 104.853H12.8804" stroke="#263238" stroke-width="0.5" stroke-miterlimit="10"/>
<path d="M100.948 94.7605V97.5323" stroke="#263238" stroke-width="0.5" stroke-miterlimit="10"/>
<path d="M102.335 96.145H99.5632" stroke="#263238" stroke-width="0.5" stroke-miterlimit="10"/>
<path d="M115.6 0.91748V3.68928" stroke="#263238" stroke-width="0.5" stroke-miterlimit="10"/>
<path d="M116.984 2.302H114.213" stroke="#263238" stroke-width="0.5" stroke-miterlimit="10"/>
<path d="M172.337 93.7822V96.5568" stroke="#263238" stroke-width="0.5" stroke-miterlimit="10"/>
<path d="M173.722 95.1694H170.95" stroke="#263238" stroke-width="0.5" stroke-miterlimit="10"/>
<path d="M113.84 107.929V114.658" stroke="#263238" stroke-width="0.5" stroke-miterlimit="10"/>
<path d="M117.203 111.295H110.474" stroke="#263238" stroke-width="0.5" stroke-miterlimit="10"/>
<path d="M10.9902 11.1121V17.8412" stroke="#263238" stroke-width="0.5" stroke-miterlimit="10"/>
<path d="M14.3561 14.4753H7.62695" stroke="#263238" stroke-width="0.5" stroke-miterlimit="10"/>
<path d="M34.8033 98.0269C35.4733 98.0269 36.0164 97.4838 36.0164 96.8138C36.0164 96.1437 35.4733 95.6006 34.8033 95.6006C34.1332 95.6006 33.5901 96.1437 33.5901 96.8138C33.5901 97.4838 34.1332 98.0269 34.8033 98.0269Z" stroke="#263238" stroke-width="0.5" stroke-miterlimit="10"/>
<path d="M10.3297 64.1216C10.3297 64.7932 9.78527 65.3348 9.1165 65.3348C8.44497 65.3348 7.90332 64.7904 7.90332 64.1216C7.90332 63.4501 8.44773 62.9084 9.1165 62.9084C9.78527 62.9084 10.3297 63.4529 10.3297 64.1216Z" stroke="#263238" stroke-width="0.5" stroke-miterlimit="10"/>
<path d="M34.8946 111.107C35.3067 111.107 35.6407 110.773 35.6407 110.361C35.6407 109.949 35.3067 109.615 34.8946 109.615C34.4825 109.615 34.1484 109.949 34.1484 110.361C34.1484 110.773 34.4825 111.107 34.8946 111.107Z" stroke="#263238" stroke-width="0.5" stroke-miterlimit="10"/>
<path d="M49.4664 98.027C49.8784 98.027 50.2125 97.6929 50.2125 97.2808C50.2125 96.8687 49.8784 96.5347 49.4664 96.5347C49.0543 96.5347 48.7202 96.8687 48.7202 97.2808C48.7202 97.6929 49.0543 98.027 49.4664 98.027Z" stroke="#263238" stroke-width="0.5" stroke-miterlimit="10"/>
<path d="M79.3565 4.80845C79.7686 4.80845 80.1026 4.47439 80.1026 4.06231C80.1026 3.65022 79.7686 3.31616 79.3565 3.31616C78.9444 3.31616 78.6104 3.65022 78.6104 4.06231C78.6104 4.47439 78.9444 4.80845 79.3565 4.80845Z" stroke="#263238" stroke-width="0.5" stroke-miterlimit="10"/>
<path d="M119.242 104.753C119.706 104.753 120.082 104.377 120.082 103.913C120.082 103.449 119.706 103.073 119.242 103.073C118.778 103.073 118.402 103.449 118.402 103.913C118.402 104.377 118.778 104.753 119.242 104.753Z" stroke="#263238" stroke-width="0.5" stroke-miterlimit="10"/>
<path d="M182.651 90.2037C183.115 90.2037 183.491 89.8275 183.491 89.3635C183.491 88.8996 183.115 88.5234 182.651 88.5234C182.187 88.5234 181.811 88.8996 181.811 89.3635C181.811 89.8275 182.187 90.2037 182.651 90.2037Z" stroke="#263238" stroke-width="0.5" stroke-miterlimit="10"/>
<path d="M160.153 18.9134C160.617 18.9134 160.993 18.5372 160.993 18.0733C160.993 17.6093 160.617 17.2332 160.153 17.2332C159.689 17.2332 159.313 17.6093 159.313 18.0733C159.313 18.5372 159.689 18.9134 160.153 18.9134Z" stroke="#263238" stroke-width="0.5" stroke-miterlimit="10"/>
<path d="M6.51766 41.2546C7.56881 40.2034 7.56881 38.4992 6.51766 37.448C5.46652 36.3969 3.76228 36.3969 2.71113 37.4481C1.65998 38.4992 1.65998 40.2034 2.71113 41.2546C3.76227 42.3057 5.46652 42.3057 6.51766 41.2546Z" stroke="#263238" stroke-width="0.5" stroke-miterlimit="10"/>
<path d="M168.082 28.0823C168.422 26.6352 167.525 25.1863 166.078 24.8462C164.63 24.506 163.182 25.4035 162.841 26.8506C162.501 28.2978 163.399 29.7467 164.846 30.0868C166.293 30.4269 167.742 29.5295 168.082 28.0823Z" stroke="#263238" stroke-width="0.5" stroke-miterlimit="10"/>
<path d="M142.828 103.797C143.067 102.33 142.072 100.947 140.604 100.708C139.137 100.469 137.754 101.465 137.515 102.932C137.276 104.399 138.272 105.783 139.739 106.021C141.206 106.26 142.59 105.265 142.828 103.797Z" stroke="#263238" stroke-width="0.5" stroke-miterlimit="10"/>
<path d="M40.6354 5.01088C40.977 3.56416 40.0812 2.11443 38.6344 1.77282C37.1877 1.43121 35.738 2.32707 35.3964 3.77379C35.0548 5.22051 35.9506 6.67024 37.3973 7.01185C38.8441 7.35346 40.2938 6.4576 40.6354 5.01088Z" stroke="#263238" stroke-width="0.5" stroke-miterlimit="10"/>
<path d="M87.3459 80.3186H76.5461V123.885H87.3459V80.3186Z" fill="#263238" stroke="#263238" stroke-miterlimit="10" stroke-linecap="round" stroke-linejoin="round"/>
<path d="M152.833 8.45361H16.5476V91.1183H152.833V8.45361Z" fill="#263238" stroke="#263238" stroke-width="0.25" stroke-miterlimit="10" stroke-linecap="round" stroke-linejoin="round"/>
<path d="M150.088 8.45361H13.8035V91.1183H150.088V8.45361Z" fill="#799093" stroke="#263238" stroke-width="0.25" stroke-miterlimit="10"/>
<path d="M145.178 11.4326H18.7141V88.1392H145.178V11.4326Z" fill="white" stroke="#263238" stroke-miterlimit="10" stroke-linecap="round" stroke-linejoin="round"/>
<path d="M145.178 83.5186H18.7141V88.1391H145.178V83.5186Z" fill="white" stroke="#263238" stroke-miterlimit="10" stroke-linecap="round" stroke-linejoin="round"/>
<path d="M82.5345 118.999L42.4968 121.586V124.192H121.395V121.586L82.5345 118.999Z" fill="#263238" stroke="#263238" stroke-miterlimit="10" stroke-linecap="round" stroke-linejoin="round"/>
<path d="M145.178 11.4326H18.7141V88.1392H145.178V11.4326Z" fill="white" stroke="#263238" stroke-miterlimit="10" stroke-linecap="round" stroke-linejoin="round"/>
<path d="M145.178 73.874H18.7141V88.1392H145.178V73.874Z" fill="#C2C2C2" stroke="#263238" stroke-width="0.5" stroke-miterlimit="10" stroke-linecap="round" stroke-linejoin="round"/>
<path d="M132.366 77.345H30.3347V81.5317H132.366V77.345Z" fill="#E8E8E8" stroke="#263238" stroke-width="0.25" stroke-miterlimit="10" stroke-linecap="round" stroke-linejoin="round"/>
<path d="M132.366 78.6633H30.3347V80.2192H132.366V78.6633Z" fill="#92E3A9" stroke="#263238" stroke-width="0.25" stroke-miterlimit="10" stroke-linecap="round" stroke-linejoin="round"/>
<path d="M29.0525 79.3984L24.0671 76.5188V82.2752L29.0525 79.3984Z" fill="#92E3A9" stroke="#263238" stroke-width="0.25" stroke-miterlimit="10" stroke-linecap="round" stroke-linejoin="round"/>
<path d="M145.178 11.4326H142.585V88.1392H145.178V11.4326Z" fill="#E8E8E8" stroke="#263238" stroke-width="0.5" stroke-miterlimit="10" stroke-linecap="round" stroke-linejoin="round"/>
<path d="M145.178 26.2339H142.585V66.8242H145.178V26.2339Z" fill="#C2C2C2" stroke="#263238" stroke-width="0.5" stroke-miterlimit="10" stroke-linecap="round" stroke-linejoin="round"/>
<path d="M145.178 11.4326H18.7141V14.3868H145.178V11.4326Z" fill="black" stroke="#263238" stroke-miterlimit="10" stroke-linecap="round" stroke-linejoin="round"/>
<path d="M145.178 85.9146H18.7141V88.1392H145.178V85.9146Z" fill="black" stroke="#263238" stroke-miterlimit="10" stroke-linecap="round" stroke-linejoin="round"/>
<path d="M112.894 60.5704H49.7871C48.2727 60.5704 47.0457 59.3434 47.0457 57.829V43.923C47.0457 42.4086 48.2727 41.1816 49.7871 41.1816H112.894C114.409 41.1816 115.636 42.4086 115.636 43.923V57.829C115.633 59.3434 114.406 60.5704 112.894 60.5704Z" fill="white" stroke="#263238" stroke-miterlimit="10"/>
<path d="M53.3712 55.8781C52.7494 55.8781 52.2327 55.7454 51.8209 55.4801C51.4091 55.2148 51.0969 54.8473 50.8841 54.3747C50.6713 53.9049 50.5469 53.3578 50.511 52.7387L51.8402 52.3795C51.8679 52.7608 51.9259 53.1284 52.0199 53.4849C52.1138 53.8386 52.2658 54.1288 52.4786 54.3554C52.6914 54.582 52.9899 54.6953 53.3712 54.6953C53.7609 54.6953 54.0566 54.5875 54.2555 54.3692C54.4545 54.1509 54.554 53.8386 54.554 53.4324C54.554 52.946 54.4435 52.5508 54.2224 52.2551C54.0013 51.9594 53.7222 51.6582 53.385 51.357L51.5749 49.7597C51.2212 49.4502 50.9587 49.1103 50.7901 48.7427C50.6215 48.3752 50.5359 47.9192 50.5359 47.3775C50.5359 46.5872 50.7625 45.9764 51.2157 45.5426C51.6689 45.1087 52.2852 44.8904 53.0645 44.8904C53.49 44.8904 53.8659 44.9456 54.1892 45.0562C54.5125 45.1667 54.7834 45.3381 55.0017 45.5674C55.22 45.7968 55.3913 46.0897 55.5212 46.4379C55.6483 46.7889 55.7368 47.1979 55.781 47.6677L54.5042 48.0131C54.4766 47.6594 54.4241 47.3333 54.344 47.0349C54.2638 46.7364 54.1257 46.4987 53.9239 46.3164C53.7249 46.134 53.4375 46.0428 53.0645 46.0428C52.6914 46.0428 52.4012 46.1422 52.194 46.3412C51.9867 46.5402 51.8817 46.8359 51.8817 47.2255C51.8817 47.5544 51.937 47.8252 52.0475 48.038C52.158 48.2508 52.3377 48.4691 52.5864 48.6902L54.4103 50.2875C54.8193 50.6412 55.1785 51.0668 55.4881 51.5587C55.7976 52.0506 55.9551 52.6337 55.9551 53.308C55.9551 53.8414 55.8445 54.3001 55.6235 54.6842C55.4024 55.0711 55.0984 55.3641 54.7115 55.5686C54.3219 55.7758 53.8769 55.8781 53.3712 55.8781Z" fill="#799093" stroke="#263238" stroke-width="0.3" stroke-miterlimit="10"/>
<path d="M58.3068 55.7591V46.0979H56.4829V44.9814H61.5788V46.0979H59.8102V55.7591H58.3068Z" fill="#799093" stroke="#263238" stroke-width="0.3" stroke-miterlimit="10"/>
<path d="M62.0071 55.7591L64.2953 44.9814H65.7461L68.0481 55.7591H66.6249L66.133 53.0453H63.9388L63.4192 55.7591H62.0071ZM64.135 51.9648H65.9313L65.0276 47.1093L64.135 51.9648Z" fill="#799093" stroke="#263238" stroke-width="0.3" stroke-miterlimit="10"/>
<path d="M69.137 55.7591V44.9814H71.3063C72.0248 44.9814 72.619 45.0782 73.0888 45.2688C73.5586 45.4595 73.9068 45.7663 74.1334 46.1863C74.36 46.6064 74.4733 47.1591 74.4733 47.8417C74.4733 48.259 74.4291 48.6376 74.3406 48.9802C74.2522 49.3229 74.1085 49.6103 73.9151 49.8452C73.7189 50.0801 73.4618 50.2514 73.144 50.3565L74.675 55.7591H73.2242L71.8148 50.7019H70.6431V55.7591H69.137ZM70.6403 49.6241H71.2124C71.6379 49.6241 71.9834 49.5716 72.2514 49.4639C72.5167 49.3561 72.7129 49.1764 72.8373 48.9194C72.9617 48.6624 73.0224 48.3032 73.0224 47.8417C73.0224 47.2116 72.9064 46.7584 72.677 46.4793C72.4476 46.2002 71.9889 46.0592 71.3063 46.0592H70.6403V49.6241V49.6241Z" fill="#799093" stroke="#263238" stroke-width="0.3" stroke-miterlimit="10"/>
<path d="M77.2285 55.7591V46.0979H75.4045V44.9814H80.5004V46.0979H78.7318V55.7591H77.2285Z" fill="#799093" stroke="#263238" stroke-width="0.3" stroke-miterlimit="10"/>
<path d="M84.585 55.7591V44.9814H86.9256C87.7243 44.9814 88.3571 45.103 88.8214 45.3462C89.2885 45.5894 89.6201 45.957 89.819 46.4433C90.018 46.9325 90.1175 47.5377 90.1175 48.2673V52.2329C90.1175 52.9956 90.018 53.6395 89.819 54.1618C89.6201 54.6841 89.2967 55.0821 88.8491 55.3529C88.4014 55.6237 87.7989 55.7591 87.0472 55.7591H84.585V55.7591ZM86.0883 54.6813H86.9395C87.4894 54.6813 87.8791 54.5736 88.1112 54.3608C88.3406 54.148 88.4815 53.8385 88.5312 53.4295C88.581 53.0205 88.6031 52.5286 88.6031 51.9538V48.4552C88.6031 47.8969 88.5672 47.4437 88.4981 47.0983C88.4262 46.7528 88.2715 46.4986 88.0311 46.3411C87.7906 46.1808 87.4148 46.1007 86.9008 46.1007H86.0883V54.6813Z" fill="#799093" stroke="#263238" stroke-width="0.3" stroke-miterlimit="10"/>
<path d="M91.5989 55.7591V44.9814H95.7773V46.0979H93.1022V49.6628H95.2716V50.7268H93.1022V54.6786H95.8022V55.7563H91.5989V55.7591Z" fill="#799093" stroke="#263238" stroke-width="0.3" stroke-miterlimit="10"/>
<path d="M96.9875 55.7591L97.1865 44.9814H98.6622L100.566 53.7224L102.481 44.9814H103.946L104.145 55.7591H102.935L102.816 47.9356L100.992 55.7591H100.141L98.3306 47.9356L98.2118 55.7591H96.9875Z" fill="#799093" stroke="#263238" stroke-width="0.3" stroke-miterlimit="10"/>
<path d="M108.55 55.878C107.823 55.878 107.24 55.737 106.806 55.4524C106.372 55.1678 106.06 54.7615 105.875 54.2337C105.69 53.7059 105.596 53.0868 105.596 52.3766V48.2922C105.596 47.5819 105.69 46.974 105.883 46.4627C106.074 45.9515 106.384 45.5618 106.815 45.291C107.246 45.0202 107.823 44.8848 108.55 44.8848C109.277 44.8848 109.855 45.0229 110.28 45.2965C110.706 45.5729 111.015 45.9625 111.206 46.4683C111.397 46.974 111.493 47.5819 111.493 48.2922V52.3904C111.493 53.0924 111.397 53.7031 111.206 54.2254C111.015 54.7477 110.706 55.1539 110.28 55.4441C109.855 55.7343 109.277 55.878 108.55 55.878ZM108.55 54.6924C108.948 54.6924 109.252 54.6095 109.454 54.4465C109.658 54.2834 109.796 54.0513 109.866 53.7556C109.937 53.4599 109.973 53.1117 109.973 52.711V47.9882C109.973 47.5902 109.937 47.2448 109.866 46.9574C109.794 46.67 109.658 46.4461 109.454 46.2914C109.249 46.1366 108.948 46.0593 108.55 46.0593C108.152 46.0593 107.848 46.1366 107.638 46.2914C107.431 46.4461 107.29 46.6672 107.218 46.9574C107.146 47.2448 107.11 47.5902 107.11 47.9882V52.711C107.11 53.109 107.146 53.4599 107.218 53.7556C107.29 54.0541 107.428 54.2834 107.638 54.4465C107.845 54.6123 108.149 54.6924 108.55 54.6924Z" fill="#799093" stroke="#263238" stroke-width="0.3" stroke-miterlimit="10"/>
<path d="M79.4588 38.1446C85.1715 38.1446 89.8026 33.5136 89.8026 27.8008C89.8026 22.0881 85.1715 17.457 79.4588 17.457C73.7461 17.457 69.115 22.0881 69.115 27.8008C69.115 33.5136 73.7461 38.1446 79.4588 38.1446Z" fill="#799093" stroke="#263238" stroke-width="0.75" stroke-miterlimit="10"/>
<path d="M67.4846 27.0657L67.866 30.6168C67.9406 31.3215 68.6066 31.8107 69.303 31.667C71.8289 31.1502 77.4719 30.0835 80.9236 30.1415C85.475 30.2161 89.5927 32.5154 89.5927 32.5154L89.5512 30.4427C89.4849 27.2398 88.9958 24.0618 88.0949 20.9888L87.4979 18.9548C87.4979 18.9548 84.3089 22.4894 79.6606 23.9651C76.162 25.076 70.9556 25.5624 68.5956 25.7337C67.913 25.7862 67.41 26.3887 67.4846 27.0657Z" fill="white" stroke="#263238" stroke-miterlimit="10" stroke-linecap="round" stroke-linejoin="round"/>
<path d="M87.5698 20.0105L87.5394 19.9055C87.5394 19.9055 84.295 23.3875 79.6219 24.7914C79.3704 24.866 79.1079 24.9406 78.8398 25.0097" stroke="#263238" stroke-miterlimit="10"/>
<path d="M77.787 25.2556C76.9939 25.427 76.1648 25.5734 75.333 25.7005" stroke="#263238" stroke-miterlimit="10"/>
<path d="M89.6646 33.2034C89.6453 33.2061 89.6232 33.2061 89.6038 33.2061C89.2225 33.2144 88.9047 32.9104 88.8964 32.5263L88.8549 30.4537C88.7914 27.3144 88.3105 24.1944 87.4262 21.1821L86.8293 19.1482C86.7215 18.7807 86.9315 18.3965 87.2991 18.2887C87.6666 18.181 88.0507 18.391 88.1585 18.7585L88.7554 20.7925C89.6757 23.9235 90.1731 27.1651 90.2394 30.4261L90.2809 32.4987C90.2892 32.8635 90.0184 33.1647 89.6646 33.2034Z" fill="#263238" stroke="#263238" stroke-miterlimit="10" stroke-linecap="round" stroke-linejoin="round"/>
<path d="M75.7005 24.8909C72.9647 25.369 70.1542 25.6232 68.5928 25.7365C67.913 25.7862 67.4128 26.3887 67.4847 27.0657L67.866 30.6169C67.9406 31.3215 68.6066 31.8107 69.303 31.667C70.8644 31.3464 73.6141 30.8186 76.3002 30.4731L75.7005 24.8909Z" fill="#263238" stroke="#263238" stroke-miterlimit="10" stroke-linecap="round" stroke-linejoin="round"/>
<path d="M71.0688 30.7135C71.0688 30.7135 72.1743 32.9602 72.3456 33.1675C72.4092 33.2449 72.5307 33.3001 72.6579 33.3416C72.9618 33.4383 73.2244 33.6345 73.4012 33.8998C74.1916 35.0964 76.209 38.1528 76.3112 38.2634C76.4383 38.3988 76.7506 38.5176 76.9247 38.385C77.0988 38.2523 78.3894 36.9894 78.2926 36.4339C78.1959 35.8812 78.0246 36.0498 77.7372 35.8177C77.505 35.6298 76.6097 34.0325 76.2698 33.4134C76.1869 33.2642 76.1951 33.0846 76.2891 32.9436L76.5903 32.4849C76.5903 32.4849 75.2749 31.4237 75.2556 31.2386C75.2362 31.0534 75.7834 30.918 75.8027 30.7301C75.8193 30.5394 75.3357 29.8789 75.3357 29.8789L71.0688 30.7135Z" fill="white" stroke="#263238" stroke-miterlimit="10" stroke-linecap="round" stroke-linejoin="round"/>
<path d="M75.7725 31.7939L76.7369 32.1504C76.7756 32.1643 76.7894 32.2112 76.7646 32.2416L76.5905 32.4848L75.7725 31.7939Z" fill="#92E3A9" stroke="#263238" stroke-miterlimit="10"/>
<path d="M73.3709 32.6978L73.0918 32.9105" stroke="#263238" stroke-miterlimit="10"/>
<path d="M75.2556 31.2385L73.6113 32.5097" stroke="#263238" stroke-miterlimit="10"/>
<path d="M73.2102 27.4203L72.1414 27.5352L72.2146 28.2166L73.2834 28.1018L73.2102 27.4203Z" fill="#92E3A9"/>
<path d="M69.1233 112.176C69.1233 112.176 68.4794 123.12 68.4794 123.294C68.4794 123.468 67.6697 126.184 67.7858 126.591C67.9019 126.994 68.8276 127.11 69.4632 127.168C70.0989 127.226 71.4281 127.4 71.9504 127.4C72.4699 127.4 74.3215 127.284 74.6669 127.168C75.0151 127.052 75.4766 126.707 75.0704 126.417C74.6669 126.126 73.6831 126.013 72.5252 124.681C71.3701 123.352 71.0799 122.774 71.0799 122.774L73.5145 112.292L69.1233 112.176Z" fill="#FFBE9D" stroke="#263238" stroke-width="0.75" stroke-miterlimit="10"/>
<path d="M68.4796 123.294C68.4796 123.294 68.9273 123.485 69.3805 123.601C69.8365 123.714 70.7844 124.057 70.7844 124.057L71.0828 122.777L72.5281 124.134C72.5281 124.134 72.4148 124.438 72.3375 125.007C72.2628 125.577 72.1855 126.182 72.1855 126.182L73.056 126.447L73.3959 124.894L74.5704 125.729L74.3051 126.79C74.3051 126.79 74.6091 127.055 75.101 126.903C75.5929 126.751 75.5929 126.942 75.4796 127.243C75.3663 127.547 74.4184 127.774 73.5838 127.848C72.7492 127.923 69.8696 127.696 69.1871 127.544C68.5045 127.392 68.0126 127.353 67.6699 127.127C67.33 126.9 67.5953 126.14 67.6312 125.988C67.6699 125.836 69.7536 126.593 69.9443 126.593C70.1349 126.593 70.4749 125.646 70.4749 125.646L67.8219 124.924C67.8274 124.927 67.8827 123.368 68.4796 123.294Z" fill="#263238" stroke="#263238" stroke-miterlimit="10" stroke-linecap="round" stroke-linejoin="round"/>
<path d="M47.4465 122.874C47.4465 122.874 46.8054 123.056 46.2554 123.554C45.7055 124.054 45.7359 125.687 45.7359 125.687L47.4465 122.874Z" fill="#263238" stroke="#263238" stroke-miterlimit="10" stroke-linecap="round" stroke-linejoin="round"/>
<path d="M49.2539 125.651C49.2539 125.651 47.6566 125.151 47.0569 125.101C46.4572 125.051 45.7083 125.101 45.7083 125.101C45.7083 125.101 45.2578 125.25 45.2578 125.601C45.2578 125.952 45.1805 126.453 46.3798 126.652C47.5792 126.851 48.7039 126.652 49.2539 126.35C49.8038 126.052 49.2539 125.651 49.2539 125.651Z" fill="#263238" stroke="#263238" stroke-miterlimit="10" stroke-linecap="round" stroke-linejoin="round"/>
<path d="M52.8768 110.153C52.8768 110.153 48.8863 120.906 48.5408 121.37C48.1926 121.832 45.8575 124.786 45.7994 125.366C45.7414 125.944 48.7343 125.999 49.2538 125.654C49.7733 125.306 50.3924 122.296 50.7378 121.661C51.086 121.025 58.2545 110.966 58.2545 110.966L52.8768 110.153Z" fill="#FFBE9D" stroke="#263238" stroke-width="0.75" stroke-miterlimit="10"/>
<path d="M50.6026 122.755C50.6026 122.755 49.5552 122.105 49.0053 122.006C48.4553 121.906 47.9054 121.857 47.9054 121.857L47.1565 123.006L49.9532 124.355C49.9532 124.352 50.4008 123.454 50.6026 122.755Z" fill="#263238" stroke="#263238" stroke-miterlimit="10" stroke-linecap="round" stroke-linejoin="round"/>
<path d="M60.4625 77.5688L60.3768 79.4508C60.3768 79.4508 55.4163 92.1905 53.0231 98.4333C50.63 104.676 50.0303 109.462 50.0303 109.462C50.0303 109.462 52.1692 111.43 57.9809 112.37C63.7953 113.309 69.3527 113.481 72.5169 113.481C75.6811 113.481 79.2709 112.455 79.2709 112.455C79.2709 112.455 76.535 95.6974 74.3104 88.0867C72.0886 80.476 70.8035 79.2794 70.8035 79.2794L70.4609 76.8862L60.4625 77.5688Z" fill="#263238"/>
<path d="M64.0909 90.5186L63.4553 112.967" stroke="#FAFAFA" stroke-miterlimit="10" stroke-linecap="round" stroke-linejoin="round"/>
<path d="M64.1379 88.855L64.113 89.7393" stroke="#FAFAFA" stroke-miterlimit="10" stroke-linecap="round" stroke-linejoin="round"/>
<path d="M68.9934 79.8901C69.3499 79.8155 69.7009 79.7271 70.038 79.6221" stroke="#FAFAFA" stroke-miterlimit="10" stroke-linecap="round" stroke-linejoin="round"/>
<path d="M61.4021 80.0476C61.4021 80.0476 64.5774 80.4787 67.6835 80.1001" stroke="#FAFAFA" stroke-miterlimit="10" stroke-linecap="round" stroke-linejoin="round"/>
<path d="M81.7691 57.4256C81.7691 57.4256 81.5176 56.2954 81.4762 55.5409C81.4347 54.7865 80.7218 53.7833 80.8074 53.3633C80.8903 52.9432 81.3104 52.9875 81.5204 53.1118C81.7304 53.2362 81.9819 53.6562 81.9819 53.6562C81.9819 53.6562 82.5678 51.8544 82.5678 51.0613C82.5678 50.2654 83.0707 50.3483 83.2808 50.8927C83.4908 51.4371 83.1979 53.5319 83.1979 53.5319C83.1979 53.5319 83.9937 53.7419 84.3696 53.9077C84.7454 54.0763 85.4584 54.4107 85.3341 55.458C85.2097 56.5054 85.0826 57.0913 84.8311 57.0913C84.5796 57.0913 84.3696 56.7569 84.3696 56.7569C84.3696 56.7569 84.3696 57.8871 83.9938 58.2215C83.6179 58.5559 82.8635 58.5974 82.8635 58.5974C82.8635 58.5974 82.9409 57.76 81.7691 57.4256Z" fill="#FFBE9D" stroke="#263238" stroke-width="0.75" stroke-miterlimit="10"/>
<path d="M84.364 56.7541C84.364 56.7541 84.6155 55.7896 84.6155 55.6653" stroke="#263238" stroke-miterlimit="10" stroke-linecap="round" stroke-linejoin="round"/>
<path d="M81.9793 53.6562L81.7278 54.828" stroke="#263238" stroke-miterlimit="10" stroke-linecap="round" stroke-linejoin="round"/>
<path d="M80.7273 58.5973L81.5149 57.2626C81.5149 57.2626 81.8189 56.837 82.5457 57.0802C82.554 57.0829 82.5595 57.0857 82.5678 57.0885C83.2283 57.3123 83.5958 58.0198 83.4162 58.6941L83.2144 59.4485C83.2144 59.4457 81.6365 58.5365 80.7273 58.5973Z" fill="#92E3A9" stroke="#263238" stroke-miterlimit="10" stroke-linecap="round" stroke-linejoin="round"/>
<path d="M47.8057 85.3593C47.8057 85.3593 47.9964 86.3596 48.0904 87.0726C48.1843 87.7884 48.6624 89.2171 48.994 89.4078C49.3284 89.5985 49.7567 89.8361 49.2787 89.9798C48.8033 90.1235 48.5159 90.1705 48.0876 89.8361C47.6592 89.5017 47.3718 89.1204 47.3718 89.1204C47.3718 89.1204 47.0375 90.5961 46.7998 91.3118C46.5621 92.0276 45.8464 93.1689 45.8464 93.1689C45.8464 93.1689 46.0371 93.9786 45.7524 94.1223C45.4678 94.266 45.0367 93.647 45.0367 93.647C45.0367 93.647 44.6083 93.553 44.4177 93.2187C44.227 92.8843 43.9893 90.3612 44.0363 89.8831C44.0833 89.4078 46.0094 84.9917 46.0094 84.9917L47.8057 85.3593Z" fill="#FFBE9D" stroke="#263238" stroke-width="0.75" stroke-miterlimit="10"/>
<path d="M45.1001 90.5989C44.9481 90.8752 44.8044 91.2262 44.8044 91.3616C44.8044 91.5523 45.0421 93.647 45.0421 93.647" stroke="#263238" stroke-miterlimit="10" stroke-linecap="round" stroke-linejoin="round"/>
<path d="M45.8518 93.1717L45.6611 92.0276L46.0425 90.4082" stroke="#263238" stroke-miterlimit="10" stroke-linecap="round" stroke-linejoin="round"/>
<path d="M46.1863 92.5996C46.1863 92.5996 46.2996 91.4499 46.5676 90.4551" stroke="#263238" stroke-miterlimit="10" stroke-linecap="round" stroke-linejoin="round"/>
<path d="M46.6615 88.2168C46.6615 88.2168 46.6146 88.6451 46.2802 88.9795C45.9458 89.3139 45.2798 89.7892 45.2798 89.7892" stroke="#263238" stroke-miterlimit="10" stroke-linecap="round" stroke-linejoin="round"/>
<path d="M59.4262 65.0888C59.4262 65.0888 55.5435 66.9708 55.3003 67.4544C55.0571 67.9408 50.2016 76.6182 49.5356 77.4666C48.8668 78.315 46.8053 79.4093 46.5621 80.2577C46.3189 81.1061 46.5013 83.4136 46.5013 83.4136L46.0149 84.9916C46.0149 84.9916 46.0757 85.5388 46.9241 85.7211C47.7725 85.9035 47.7725 85.9035 47.7725 85.9035L49.2288 84.508C49.2288 84.508 52.3848 83.7204 53.6587 82.2032C54.9327 80.686 58.0278 73.5866 58.0278 73.5866L57.5415 78.3813C57.5415 78.3813 60.6974 78.8677 64.4585 78.5637C68.2197 78.2597 72.3483 77.6545 72.3483 77.6545L71.8012 72.0722C71.8012 72.0722 80.7825 70.6158 81.2689 70.1902C81.7553 69.7647 82.1781 68.6123 82.2389 68.1867C82.2997 67.7611 83.8169 59.6309 83.8169 59.6309C83.8169 59.6309 83.2697 58.7217 81.9957 58.4785C80.7217 58.2353 79.4478 58.9041 79.387 59.2661C79.3262 59.6309 76.7174 64.9092 76.7174 64.9092C76.7174 64.9092 76.535 64.7876 75.869 65.0916C75.2003 65.3956 74.899 65.5172 74.899 65.5172C74.899 65.5172 71.6823 64.2432 70.3475 64.3648C69.0128 64.4864 67.7388 64.6688 67.7388 64.6688C67.7388 64.6688 65.3732 63.5772 63.6129 64.0608C61.8553 64.5444 59.4262 65.0888 59.4262 65.0888Z" fill="#C8DCEC" stroke="#263238" stroke-width="0.5" stroke-miterlimit="10"/>
<path d="M67.8025 72.614L71.8068 72.0696L69.1373 73.4651" stroke="#263238" stroke-miterlimit="10" stroke-linecap="round" stroke-linejoin="round"/>
<path d="M58.0916 70.8535L58.0308 73.5839L57.1216 72.4315" stroke="#263238" stroke-miterlimit="10" stroke-linecap="round" stroke-linejoin="round"/>
<path d="M47.0486 83.6597C47.0486 83.6597 47.231 84.2676 48.6873 84.2676" stroke="#263238" stroke-miterlimit="10" stroke-linecap="round" stroke-linejoin="round"/>
<path d="M69.6427 53.6536C69.6427 53.6536 70.0517 54.4135 70.2286 55.0574C70.4027 55.7013 71.1046 56.4005 71.2815 57.4534C71.4556 58.5063 71.4556 59.4403 71.3395 59.9074C71.2235 60.3744 70.2866 60.4905 70.2866 60.4905C70.2866 60.4905 68.8247 60.0234 68.7087 58.2686C68.5926 56.5166 69.6427 53.6536 69.6427 53.6536Z" fill="#FFBE9D" stroke="#263238" stroke-width="0.75" stroke-miterlimit="10"/>
<path d="M70.5215 55.5881C70.5215 55.5881 70.9001 55.7263 71.0714 55.7263C71.2428 55.7263 71.5523 55.7595 71.45 56.1712C71.3478 56.583 71.1073 56.7212 71.1073 56.7212L70.5215 55.5881Z" fill="#FFBE9D" stroke="#263238" stroke-width="0.75" stroke-miterlimit="10"/>
<path d="M66.2548 50.6717C66.2548 50.6717 64.7929 49.9697 63.8008 50.4976C62.8059 51.0226 59.8849 53.6535 59.8269 54.5295C59.7688 55.4055 59.7108 56.6933 59.7108 57.2184C59.7108 57.7435 57.6078 58.8544 56.8478 60.6673C56.0878 62.4801 58.8928 66.045 60.7637 65.7521C62.6346 65.4592 63.1597 64.5831 63.8616 64.5831C64.5635 64.5831 66.7826 66.3352 68.0704 65.987C69.3554 65.636 71.3424 63.591 71.4032 62.306C71.4612 61.021 70.0601 59.6752 69.8252 58.6831C69.5903 57.6882 69.8833 56.6961 70.1182 55.9361C70.3531 55.1762 69.8252 52.7802 69.8252 52.7802C69.8252 52.7802 71.1103 52.9543 70.5272 51.6693C69.9413 50.3843 69.4162 49.9172 68.1892 49.7984C66.9539 49.6768 66.2548 50.6717 66.2548 50.6717Z" fill="#263238"/>
</g>
<defs>
<clipPath id="clip0_2708_1675">
<rect width="194.296" height="128" fill="white" transform="translate(0.5)"/>
</clipPath>
</defs>
</svg>
