<svg width="15" height="22" viewBox="0 0 15 22" fill="none" xmlns="http://www.w3.org/2000/svg">
<path d="M12.3109 1.15543C12.3109 1.15543 11.6034 0.226992 10.2203 2.5461C8.83711 4.86521 8.23699 6.25588 8.23699 6.25588C8.23699 6.25588 7.89233 6.7281 7.66558 6.2999C7.43733 5.87169 7.20453 4.76716 6.69964 4.82319C6.17661 4.87922 5.903 5.56755 5.83649 6.66807C5.76846 7.7666 5.55532 10.1677 5.53416 10.3858C5.51451 10.5979 5.37694 10.8841 5.18648 10.626C4.99601 10.3678 4.0089 8.16279 3.24703 8.84511C2.48516 9.52744 2.67714 12.6309 2.69377 12.9711C2.71039 13.3112 2.64086 13.4353 2.51388 13.4853C2.38539 13.5354 2.10725 12.753 1.80643 12.1407C1.50712 11.5284 1.07781 10.8901 0.662109 11.3323C0.247917 11.7745 -0.191975 13.9496 0.854086 17.9455L1.43003 19.7543L2.9054 20.0325C6.09044 20.3726 7.57035 19.2661 7.79105 18.6238C8.01024 17.9815 7.43581 17.5913 6.91278 17.3612C6.38975 17.1291 5.74881 16.969 5.75334 16.7909C5.75788 16.6128 5.83195 16.4948 6.0844 16.4307C6.33684 16.3667 8.65571 15.8365 8.96409 14.6899C9.27247 13.5434 7.41314 12.829 7.17732 12.6509C6.93999 12.4708 7.11534 12.2247 7.26651 12.1467C7.4207 12.0667 9.12281 11.1902 9.91038 10.8301C10.698 10.4679 11.1333 9.94564 11.0426 9.26131C10.9564 8.60099 10.0903 8.57899 9.71992 8.3929C9.34956 8.20881 9.60956 7.64854 9.60956 7.64854C9.60956 7.64854 10.4757 6.53 11.8272 4.17688C13.1786 1.82375 12.2973 1.13743 12.2973 1.13743" fill="#92E3A9"/>
<path d="M12.3109 1.15543C12.3109 1.15543 11.6034 0.226992 10.2203 2.5461C8.83711 4.86521 8.23699 6.25588 8.23699 6.25588C8.23699 6.25588 7.89233 6.7281 7.66558 6.2999C7.43733 5.87169 7.20453 4.76716 6.69964 4.82319C6.17661 4.87922 5.903 5.56755 5.83649 6.66807C5.76846 7.7666 5.55532 10.1677 5.53416 10.3858C5.51451 10.5979 5.37694 10.8841 5.18648 10.626C4.99601 10.3678 4.0089 8.16279 3.24703 8.84511C2.48516 9.52744 2.67714 12.6309 2.69377 12.9711C2.71039 13.3112 2.64086 13.4353 2.51388 13.4853C2.38539 13.5354 2.10725 12.753 1.80643 12.1407C1.50712 11.5284 1.07781 10.8901 0.662109 11.3323C0.247917 11.7745 -0.191975 13.9496 0.854086 17.9455L1.43003 19.7543L2.9054 20.0325C6.09044 20.3726 7.57035 19.2661 7.79105 18.6238C8.01024 17.9815 7.43581 17.5913 6.91278 17.3612C6.38975 17.1291 5.74881 16.969 5.75334 16.7909C5.75788 16.6128 5.83195 16.4948 6.0844 16.4307C6.33684 16.3667 8.65571 15.8365 8.96409 14.6899C9.27247 13.5434 7.41314 12.829 7.17732 12.6509C6.93999 12.4708 7.11534 12.2247 7.26651 12.1467C7.4207 12.0667 9.12281 11.1902 9.91038 10.8301C10.698 10.4679 11.1333 9.94564 11.0426 9.26131C10.9564 8.60099 10.0903 8.57899 9.71992 8.3929C9.34956 8.20881 9.60956 7.64854 9.60956 7.64854C9.60956 7.64854 10.4757 6.53 11.8272 4.17688C13.1786 1.82375 12.2973 1.13743 12.2973 1.13743" stroke="#263238" stroke-width="0.25" stroke-miterlimit="10"/>
<path d="M11.0699 3.23041C11.0714 3.23241 11.0623 3.24842 11.0457 3.28043C11.026 3.31645 11.0003 3.36447 10.9686 3.4225C10.896 3.55256 10.7947 3.73465 10.6662 3.96476C10.4032 4.43498 10.0162 5.11131 9.53553 5.9437C8.57564 7.6085 7.23329 9.89359 5.74129 12.4068C4.25383 14.922 2.90695 17.1971 1.92891 18.8519C1.4467 19.6743 1.05366 20.3426 0.778544 20.8108C0.644007 21.0369 0.539705 21.215 0.464123 21.3411C0.429355 21.3971 0.402147 21.4431 0.380984 21.4771C0.361332 21.5071 0.352261 21.5231 0.350749 21.5211C0.349237 21.5191 0.358308 21.5031 0.374936 21.4711C0.394587 21.4351 0.420287 21.3871 0.452032 21.3291C0.524591 21.199 0.625871 21.0169 0.754362 20.7868C1.01739 20.3166 1.40437 19.6402 1.88356 18.8078C2.84346 17.1431 4.1858 14.858 5.6778 12.3448C7.16526 9.83156 8.51064 7.55447 9.48867 5.90168C9.97089 5.07929 10.3639 4.41097 10.639 3.94275C10.7736 3.71664 10.8779 3.53855 10.9535 3.41249C10.9882 3.35646 11.0154 3.31044 11.0366 3.27643C11.0578 3.24441 11.0683 3.23041 11.0699 3.23041Z" fill="#E0E0E0" stroke="#263238" stroke-width="0.25" stroke-miterlimit="10"/>
<path d="M6.97777 6.38594C6.98835 6.38394 7.01102 6.58403 7.0337 6.91019C7.05637 7.23635 7.07602 7.68656 7.08963 8.1828C7.0987 8.66103 7.10777 9.09323 7.11533 9.45541C7.12138 9.78156 7.12591 9.98166 7.11533 9.98366C7.10475 9.98566 7.08056 9.78556 7.0594 9.45941C7.03975 9.13325 7.02312 8.68304 7.00951 8.1868C6.99742 7.70857 6.98533 7.27636 6.97626 6.91419C6.97021 6.59003 6.96719 6.38794 6.97777 6.38594Z" fill="#E0E0E0" stroke="#263238" stroke-width="0.25" stroke-miterlimit="10"/>
<path d="M7.24536 10.0537C7.24385 10.0257 7.94223 9.92363 8.80538 9.82959C9.67005 9.73354 10.3715 9.67951 10.373 9.70953C10.3745 9.73754 9.67609 9.8396 8.81143 9.93364C7.94828 10.0277 7.24688 10.0817 7.24536 10.0537Z" fill="#E0E0E0" stroke="#263238" stroke-width="0.25" stroke-miterlimit="10"/>
<path d="M4.73597 13.9135C4.739 13.8995 4.89167 13.9355 5.13807 13.9996C5.38447 14.0616 5.7261 14.1476 6.10401 14.2277C6.48193 14.3077 6.82507 14.3677 7.0745 14.4118C7.32392 14.4538 7.47811 14.4818 7.4766 14.4978C7.47508 14.5118 7.31938 14.5098 7.06845 14.4858C6.81751 14.4618 6.46983 14.4138 6.09041 14.3317C5.71099 14.2517 5.36935 14.1536 5.12598 14.0736C4.8826 13.9896 4.73446 13.9255 4.73597 13.9135Z" fill="#E0E0E0" stroke="#263238" stroke-width="0.25" stroke-miterlimit="10"/>
<path d="M3.94389 10.666C3.95447 10.662 4.00889 10.838 4.09052 11.1262C4.17215 11.4143 4.27797 11.8145 4.39134 12.2607C4.50472 12.7049 4.60297 13.1091 4.671 13.4053C4.73902 13.6994 4.7753 13.8835 4.76472 13.8895C4.75414 13.8935 4.69972 13.7174 4.61809 13.4293C4.53646 13.1411 4.43064 12.741 4.31727 12.2947C4.2039 11.8505 4.10564 11.4463 4.03762 11.1502C3.96959 10.8541 3.93331 10.67 3.94389 10.666Z" fill="#E0E0E0" stroke="#263238" stroke-width="0.25" stroke-miterlimit="10"/>
<path d="M1.4028 13.7015C1.41338 13.6975 1.48292 13.9236 1.58722 14.2918C1.69152 14.6619 1.8306 15.1742 1.98025 15.7404C2.1299 16.3087 2.2599 16.825 2.35211 17.2011C2.44281 17.5773 2.49421 17.8114 2.48363 17.8154C2.47305 17.8194 2.40351 17.5933 2.29921 17.2252C2.19491 16.855 2.05583 16.3427 1.90618 15.7745C1.75653 15.2062 1.62652 14.6899 1.53431 14.3138C1.44361 13.9396 1.39222 13.7055 1.4028 13.7015Z" fill="#E0E0E0" stroke="#263238" stroke-width="0.25" stroke-miterlimit="10"/>
<path d="M2.47907 17.7073C2.48059 17.6933 2.6771 17.7313 2.99153 17.7973C3.30595 17.8614 3.7413 17.9514 4.22352 18.0355C4.70574 18.1195 5.1426 18.1855 5.46005 18.2295C5.77749 18.2756 5.9725 18.3056 5.9725 18.3196C5.9725 18.3336 5.77447 18.3296 5.45551 18.3036C5.13655 18.2776 4.69666 18.2235 4.21294 18.1395C3.72921 18.0555 3.29537 17.9534 2.98246 17.8694C2.66803 17.7853 2.47756 17.7213 2.47907 17.7073Z" fill="#E0E0E0" stroke="#263238" stroke-width="0.25" stroke-miterlimit="10"/>
</svg>
