<svg width="144" height="104" viewBox="0 0 144 104" fill="none" xmlns="http://www.w3.org/2000/svg">
<g clip-path="url(#clip0_2712_1664)">
<path d="M109.609 0.426571C93.8263 0.877623 86.7927 11.8051 66.3073 16.4067C45.4463 18.1843 35.8544 9.82312 20.5853 14.1626C4.15884 18.8331 -4.44222 45.1607 3.61873 68.611C11.6797 92.0613 36.9976 101.571 48.6788 99.4625C58.0129 97.7783 65.5073 92.1524 75.9825 89.3038C86.7785 88.8683 95.4364 92.0035 104.833 90.797C116.592 89.2883 138.421 72.5038 140.058 47.556C141.695 22.6081 126.59 -0.0578107 109.609 0.426571Z" fill="#92E3A9"/>
<path opacity="0.7" d="M109.609 0.426571C93.8263 0.877623 86.7927 11.8051 66.3073 16.4067C45.4463 18.1843 35.8544 9.82312 20.5853 14.1626C4.15884 18.8331 -4.44222 45.1607 3.61873 68.611C11.6797 92.0613 36.9976 101.571 48.6788 99.4625C58.0129 97.7783 65.5073 92.1524 75.9825 89.3038C86.7785 88.8683 95.4364 92.0035 104.833 90.797C116.592 89.2883 138.421 72.5038 140.058 47.556C141.694 22.6081 126.59 -0.0578107 109.609 0.426571Z" fill="#D2EEEA"/>
<path d="M12.3091 100.274H136.911" stroke="#263238" stroke-miterlimit="10"/>
<path d="M5.83789 100.274H9.19222" stroke="#263238" stroke-miterlimit="10"/>
<path d="M111.745 68.5311C111.745 68.5311 115.394 74.9125 116.921 81.0828C118.005 85.4711 118.054 94.1789 118.054 94.1789C118.054 94.1789 118.127 68.3423 123.56 58.3369" stroke="#263238" stroke-miterlimit="10" stroke-linecap="round" stroke-linejoin="round"/>
<path d="M126.492 35.9709C126.492 35.9709 121.231 45.2208 119.765 54.8463C118.299 64.4739 117.954 88.3508 117.954 88.3508C117.869 83.3492 117.179 65.0383 115.713 57.1104C114.247 49.1826 111.573 43.4255 111.573 43.4255" stroke="#263238" stroke-miterlimit="10" stroke-linecap="round" stroke-linejoin="round"/>
<path d="M112.714 46.2342C112.714 46.2342 117.116 46.4563 119.172 42.839C121.227 39.2217 119.877 35.7644 117.944 35.5111C116.011 35.2578 115.172 37.873 114.456 36.6199C113.739 35.3645 116.511 33.0025 113.406 30.8295C110.299 28.6564 108.852 31.7738 107.867 30.6606C106.882 29.5474 107.591 26.6367 105.54 25.3591C103.489 24.0815 102.531 25.6724 101.396 25.7257C100.261 25.779 96.6851 23.6704 95.2597 25.3258C93.8343 26.9811 97.2475 30.985 95.6434 31.105C94.0394 31.2228 93.3896 34.6446 94.6911 36.8598C95.9947 39.0751 100.188 39.9505 99.3693 41.1059C98.5511 42.2613 94.547 42.1902 96.1774 44.7766C97.8079 47.3629 103.347 47.5318 104.145 47.8384C104.941 48.145 101.595 48.816 102.159 51.2379C102.726 53.6576 107.327 53.9576 110.287 52.4022C113.248 50.8469 112.714 46.2342 112.714 46.2342Z" fill="#92E3A9"/>
<path d="M100.009 29.9207C100.009 29.9207 109.361 36.6109 112.714 46.2341" stroke="#263238" stroke-miterlimit="10" stroke-linecap="round" stroke-linejoin="round"/>
<path d="M99.55 34.6067L105.82 35.2755L104.291 29.5874" stroke="#263238" stroke-miterlimit="10" stroke-linecap="round" stroke-linejoin="round"/>
<path d="M104.598 42.4723H110.866L111.325 36.2798" stroke="#263238" stroke-miterlimit="10" stroke-linecap="round" stroke-linejoin="round"/>
<path d="M125.611 38.0374C125.611 38.0374 122.038 38.2174 120.368 35.2822C118.699 32.347 119.798 29.5385 121.365 29.3341C122.935 29.1297 123.615 31.2516 124.196 30.2339C124.777 29.2163 122.527 27.2988 125.049 25.5346C127.571 23.7704 128.746 26.3011 129.544 25.3968C130.344 24.4925 129.767 22.1306 131.432 21.0929C133.097 20.0553 133.875 21.3462 134.797 21.3907C135.719 21.4329 138.62 19.722 139.778 21.0663C140.935 22.4105 138.166 25.6612 139.467 25.7568C140.769 25.8523 141.296 28.6297 140.241 30.4295C139.183 32.227 135.78 32.938 136.444 33.8757C137.108 34.8134 140.358 34.7556 139.035 36.8553C137.711 38.955 133.213 39.0928 132.568 39.3394C131.92 39.5883 134.639 40.1327 134.18 42.0991C133.721 44.0633 129.985 44.3077 127.581 43.0434C125.177 41.7813 125.611 38.0374 125.611 38.0374Z" fill="#92E3A9"/>
<path d="M135.924 24.7947C135.924 24.7947 128.332 30.2251 125.611 38.0374" stroke="#263238" stroke-miterlimit="10" stroke-linecap="round" stroke-linejoin="round"/>
<path d="M136.295 28.5987L131.207 29.1431L132.448 24.5237" stroke="#263238" stroke-miterlimit="10" stroke-linecap="round" stroke-linejoin="round"/>
<path d="M132.2 34.9845H127.11L126.738 29.9585" stroke="#263238" stroke-miterlimit="10" stroke-linecap="round" stroke-linejoin="round"/>
<path d="M113.918 73.0618C113.918 73.0618 116.817 73.2084 118.171 70.8265C119.526 68.4446 118.634 66.1671 117.363 66.0005C116.09 65.8338 115.538 67.5558 115.067 66.7293C114.596 65.9027 116.421 64.3474 114.374 62.9164C112.33 61.4855 111.375 63.5386 110.728 62.8053C110.078 62.0721 110.547 60.1568 109.197 59.3147C107.847 58.4726 107.215 59.5213 106.468 59.5547C105.721 59.5902 103.365 58.2015 102.427 59.2925C101.487 60.3834 103.737 63.0209 102.679 63.0986C101.623 63.1764 101.195 65.4294 102.052 66.8893C102.91 68.3468 105.672 68.9245 105.132 69.6844C104.594 70.4443 101.956 70.3999 103.03 72.1019C104.104 73.8039 107.753 73.9172 108.277 74.1172C108.801 74.3194 106.598 74.7616 106.969 76.3547C107.341 77.9478 110.372 78.1456 112.322 77.1213C114.269 76.0992 113.918 73.0618 113.918 73.0618Z" fill="#92E3A9"/>
<path d="M105.552 62.3188C105.552 62.3188 111.71 66.7249 113.918 73.0619" stroke="#263238" stroke-miterlimit="10" stroke-linecap="round" stroke-linejoin="round"/>
<path d="M105.25 65.4051L109.379 65.8451L108.372 62.0989" stroke="#263238" stroke-miterlimit="10" stroke-linecap="round" stroke-linejoin="round"/>
<path d="M108.573 70.5843H112.701L113.004 66.5071" stroke="#263238" stroke-miterlimit="10" stroke-linecap="round" stroke-linejoin="round"/>
<path d="M122.517 60.6367C122.517 60.6367 118.149 59.9946 116.718 56.0329C115.286 52.0712 117.181 48.936 119.124 49.0649C121.067 49.1938 121.465 51.9312 122.375 50.838C123.284 49.7448 120.943 46.8763 124.354 45.3476C127.766 43.8189 128.679 47.1674 129.833 46.2653C130.984 45.3632 130.76 42.3613 132.988 41.5059C135.215 40.6505 135.898 42.4036 137.006 42.6769C138.115 42.9524 141.977 41.577 143.11 43.4856C144.243 45.3943 140.229 48.665 141.788 49.096C143.347 49.5271 143.426 53.02 141.784 54.9441C140.139 56.8683 135.871 56.9106 136.486 58.2059C137.102 59.5013 141.055 60.2168 139.026 62.4409C136.998 64.6651 131.522 63.7474 130.687 63.8941C129.853 64.0385 133.037 65.3561 132.084 67.6269C131.132 69.8977 126.555 69.2912 123.897 67.1825C121.238 65.0695 122.517 60.6367 122.517 60.6367Z" fill="#92E3A9"/>
<path d="M137.682 47.074C137.682 47.074 127.388 51.8245 122.517 60.6366" stroke="#263238" stroke-miterlimit="10" stroke-linecap="round" stroke-linejoin="round"/>
<path d="M137.37 51.7734L131.091 51.2046L133.526 45.9053" stroke="#263238" stroke-miterlimit="10" stroke-linecap="round" stroke-linejoin="round"/>
<path d="M131.118 58.5236L124.949 57.2971L125.51 51.1157" stroke="#263238" stroke-miterlimit="10" stroke-linecap="round" stroke-linejoin="round"/>
<path d="M110.898 82.0562C110.586 82.976 110.407 90.8039 110.407 91.8438C110.407 98.7273 113.877 100.325 118.157 100.325C122.437 100.325 125.908 99.0961 125.908 91.8438C125.908 90.8039 125.729 82.976 125.416 82.0562H110.898Z" fill="#263238" stroke="#263238" stroke-miterlimit="10" stroke-linecap="round" stroke-linejoin="round"/>
<path d="M11.3042 82.9185V86.5335" stroke="#263238" stroke-width="0.5" stroke-miterlimit="10"/>
<path d="M12.957 84.7249H9.65137" stroke="#263238" stroke-width="0.5" stroke-miterlimit="10"/>
<path d="M74.3582 76.6104V78.8389" stroke="#263238" stroke-width="0.5" stroke-miterlimit="10"/>
<path d="M75.3774 77.7236H73.3408" stroke="#263238" stroke-width="0.5" stroke-miterlimit="10"/>
<path d="M85.1238 1.15796V3.38656" stroke="#263238" stroke-width="0.5" stroke-miterlimit="10"/>
<path d="M86.141 2.27124H84.1045" stroke="#263238" stroke-width="0.5" stroke-miterlimit="10"/>
<path d="M126.811 75.8237V78.0546" stroke="#263238" stroke-width="0.5" stroke-miterlimit="10"/>
<path d="M127.829 76.9392H125.792" stroke="#263238" stroke-width="0.5" stroke-miterlimit="10"/>
<path d="M83.8303 87.1978V92.6082" stroke="#263238" stroke-width="0.5" stroke-miterlimit="10"/>
<path d="M86.3014 89.9041H81.3572" stroke="#263238" stroke-width="0.5" stroke-miterlimit="10"/>
<path d="M8.26245 9.35474V14.7651" stroke="#263238" stroke-width="0.5" stroke-miterlimit="10"/>
<path d="M10.7354 12.0588H5.79126" stroke="#263238" stroke-width="0.5" stroke-miterlimit="10"/>
<path d="M25.7591 79.2367C26.2513 79.2367 26.6504 78.8 26.6504 78.2613C26.6504 77.7226 26.2513 77.2859 25.7591 77.2859C25.2668 77.2859 24.8677 77.7226 24.8677 78.2613C24.8677 78.8 25.2668 79.2367 25.7591 79.2367Z" stroke="#263238" stroke-width="0.5" stroke-miterlimit="10"/>
<path d="M7.77713 51.9757C7.77713 52.5156 7.37713 52.9511 6.88576 52.9511C6.39236 52.9511 5.99438 52.5134 5.99438 51.9757C5.99438 51.4357 6.39439 51.0002 6.88576 51.0002C7.37713 51.0002 7.77713 51.438 7.77713 51.9757Z" stroke="#263238" stroke-width="0.5" stroke-miterlimit="10"/>
<path d="M25.8261 89.7531C26.1288 89.7531 26.3743 89.4845 26.3743 89.1531C26.3743 88.8218 26.1288 88.5532 25.8261 88.5532C25.5233 88.5532 25.2778 88.8218 25.2778 89.1531C25.2778 89.4845 25.5233 89.7531 25.8261 89.7531Z" stroke="#263238" stroke-width="0.5" stroke-miterlimit="10"/>
<path d="M36.5326 79.2367C36.8354 79.2367 37.0808 78.9681 37.0808 78.6368C37.0808 78.3055 36.8354 78.0369 36.5326 78.0369C36.2298 78.0369 35.9844 78.3055 35.9844 78.6368C35.9844 78.9681 36.2298 79.2367 36.5326 79.2367Z" stroke="#263238" stroke-width="0.5" stroke-miterlimit="10"/>
<path d="M58.494 4.28651C58.7968 4.28651 59.0423 4.01792 59.0423 3.68659C59.0423 3.35526 58.7968 3.08667 58.494 3.08667C58.1913 3.08667 57.9458 3.35526 57.9458 3.68659C57.9458 4.01792 58.1913 4.28651 58.494 4.28651Z" stroke="#263238" stroke-width="0.5" stroke-miterlimit="10"/>
<path d="M87.7999 84.6449C88.1408 84.6449 88.4171 84.3425 88.4171 83.9694C88.4171 83.5964 88.1408 83.2939 87.7999 83.2939C87.459 83.2939 87.1826 83.5964 87.1826 83.9694C87.1826 84.3425 87.459 84.6449 87.7999 84.6449Z" stroke="#263238" stroke-width="0.5" stroke-miterlimit="10"/>
<path d="M134.389 72.9464C134.73 72.9464 135.006 72.644 135.006 72.2709C135.006 71.8979 134.73 71.5955 134.389 71.5955C134.048 71.5955 133.772 71.8979 133.772 72.2709C133.772 72.644 134.048 72.9464 134.389 72.9464Z" stroke="#263238" stroke-width="0.5" stroke-miterlimit="10"/>
<path d="M117.859 15.6273C118.2 15.6273 118.476 15.3249 118.476 14.9518C118.476 14.5788 118.2 14.2764 117.859 14.2764C117.518 14.2764 117.242 14.5788 117.242 14.9518C117.242 15.3249 117.518 15.6273 117.859 15.6273Z" stroke="#263238" stroke-width="0.5" stroke-miterlimit="10"/>
<path d="M4.97625 33.5901C5.74857 32.7449 5.74857 31.3747 4.97624 30.5295C4.20392 29.6844 2.95174 29.6844 2.17942 30.5295C1.4071 31.3747 1.4071 32.7449 2.17942 33.5901C2.95174 34.4352 4.20392 34.4352 4.97625 33.5901Z" stroke="#263238" stroke-width="0.5" stroke-miterlimit="10"/>
<path d="M123.685 22.9992C123.935 21.8357 123.275 20.6707 122.212 20.3973C121.149 20.1238 120.084 20.8454 119.834 22.0089C119.584 23.1725 120.244 24.3374 121.307 24.6109C122.37 24.8844 123.435 24.1628 123.685 22.9992Z" stroke="#263238" stroke-width="0.5" stroke-miterlimit="10"/>
<path d="M105.13 83.8762C105.305 82.6965 104.574 81.5844 103.496 81.3924C102.418 81.2003 101.401 82.0009 101.226 83.1806C101.05 84.3603 101.782 85.4724 102.86 85.6644C103.938 85.8565 104.954 85.0559 105.13 83.8762Z" stroke="#263238" stroke-width="0.5" stroke-miterlimit="10"/>
<path d="M30.044 4.44928C30.295 3.28608 29.6368 2.12045 28.5738 1.84579C27.5109 1.57113 26.4457 2.29143 26.1947 3.45463C25.9437 4.61783 26.6019 5.78345 27.6649 6.05812C28.7279 6.33278 29.7931 5.61248 30.044 4.44928Z" stroke="#263238" stroke-width="0.5" stroke-miterlimit="10"/>
<path d="M64.364 64.9983H56.429V100.027H64.364V64.9983Z" fill="#263238" stroke="#263238" stroke-miterlimit="10" stroke-linecap="round" stroke-linejoin="round"/>
<path d="M112.48 7.21704H12.3457V73.6817H112.48V7.21704Z" fill="#263238" stroke="#263238" stroke-width="0.25" stroke-miterlimit="10" stroke-linecap="round" stroke-linejoin="round"/>
<path d="M110.464 7.21704H10.3293V73.6817H110.464V7.21704Z" fill="#799093" stroke="#263238" stroke-width="0.25" stroke-miterlimit="10"/>
<path d="M106.856 9.6123H13.9375V71.2865H106.856V9.6123Z" fill="white" stroke="#263238" stroke-miterlimit="10" stroke-linecap="round" stroke-linejoin="round"/>
<path d="M106.856 67.5713H13.9375V71.2864H106.856V67.5713Z" fill="white" stroke="#263238" stroke-miterlimit="10" stroke-linecap="round" stroke-linejoin="round"/>
<path d="M60.829 96.0989L31.4116 98.1786V100.274H89.3814V98.1786L60.829 96.0989Z" fill="#263238" stroke="#263238" stroke-miterlimit="10" stroke-linecap="round" stroke-linejoin="round"/>
<path d="M106.856 9.6123H13.9375V71.2865H106.856V9.6123Z" fill="white" stroke="#263238" stroke-miterlimit="10" stroke-linecap="round" stroke-linejoin="round"/>
<path d="M106.856 59.8169H13.9375V71.2865H106.856V59.8169Z" fill="#C2C2C2" stroke="#263238" stroke-width="0.5" stroke-miterlimit="10" stroke-linecap="round" stroke-linejoin="round"/>
<path d="M97.4424 62.6074H22.4756V65.9736H97.4424V62.6074Z" fill="#E8E8E8" stroke="#263238" stroke-width="0.25" stroke-miterlimit="10" stroke-linecap="round" stroke-linejoin="round"/>
<path d="M97.4424 63.6672H22.4756V64.9182H97.4424V63.6672Z" fill="#92E3A9" stroke="#263238" stroke-width="0.25" stroke-miterlimit="10" stroke-linecap="round" stroke-linejoin="round"/>
<path d="M21.5336 64.2584L17.8706 61.9431V66.5714L21.5336 64.2584Z" fill="#92E3A9" stroke="#263238" stroke-width="0.25" stroke-miterlimit="10" stroke-linecap="round" stroke-linejoin="round"/>
<path d="M106.856 9.6123H104.951V71.2865H106.856V9.6123Z" fill="#E8E8E8" stroke="#263238" stroke-width="0.5" stroke-miterlimit="10" stroke-linecap="round" stroke-linejoin="round"/>
<path d="M106.856 21.5129H104.951V54.1487H106.856V21.5129Z" fill="#C2C2C2" stroke="#263238" stroke-width="0.5" stroke-miterlimit="10" stroke-linecap="round" stroke-linejoin="round"/>
<path d="M106.856 9.6123H13.9375V11.9876H106.856V9.6123Z" fill="black" stroke="#263238" stroke-miterlimit="10" stroke-linecap="round" stroke-linejoin="round"/>
<path d="M106.856 69.4978H13.9375V71.2865H106.856V69.4978Z" fill="black" stroke="#263238" stroke-miterlimit="10" stroke-linecap="round" stroke-linejoin="round"/>
<path d="M83.1359 49.1206H36.7681C35.6554 49.1206 34.7539 48.134 34.7539 46.9164V35.7356C34.7539 34.518 35.6554 33.5315 36.7681 33.5315H83.1359C84.2486 33.5315 85.1501 34.518 85.1501 35.7356V46.9164C85.148 48.134 84.2465 49.1206 83.1359 49.1206Z" fill="white" stroke="#263238" stroke-miterlimit="10"/>
<path d="M39.4016 45.3478C38.9447 45.3478 38.565 45.2412 38.2625 45.0279C37.96 44.8146 37.7305 44.519 37.5742 44.1391C37.4178 43.7614 37.3264 43.3214 37.3 42.8237L38.2767 42.5349C38.297 42.8415 38.3396 43.137 38.4087 43.4236C38.4777 43.708 38.5894 43.9413 38.7457 44.1235C38.9021 44.3057 39.1214 44.3968 39.4016 44.3968C39.6879 44.3968 39.9051 44.3102 40.0513 44.1347C40.1975 43.9591 40.2706 43.708 40.2706 43.3814C40.2706 42.9904 40.1894 42.6726 40.027 42.4349C39.8645 42.1971 39.6594 41.9549 39.4117 41.7127L38.0818 40.4285C37.8219 40.1796 37.629 39.9063 37.5051 39.6108C37.3813 39.3153 37.3183 38.9487 37.3183 38.5132C37.3183 37.8777 37.4848 37.3866 37.8178 37.0378C38.1508 36.689 38.6036 36.5134 39.1762 36.5134C39.4889 36.5134 39.765 36.5579 40.0026 36.6467C40.2402 36.7356 40.4391 36.8734 40.5996 37.0578C40.76 37.2422 40.8859 37.4777 40.9813 37.7577C41.0747 38.0399 41.1397 38.3687 41.1721 38.7465L40.2341 39.0242C40.2138 38.7398 40.1752 38.4776 40.1163 38.2376C40.0574 37.9977 39.9559 37.8066 39.8077 37.6599C39.6615 37.5133 39.4503 37.44 39.1762 37.44C38.9021 37.44 38.6889 37.52 38.5366 37.6799C38.3843 37.8399 38.3072 38.0777 38.3072 38.391C38.3072 38.6554 38.3478 38.8731 38.429 39.0442C38.5102 39.2153 38.6422 39.3908 38.8249 39.5686L40.165 40.8529C40.4655 41.1373 40.7295 41.4794 40.9569 41.875C41.1843 42.2705 41.3001 42.7393 41.3001 43.2814C41.3001 43.7103 41.2188 44.0791 41.0564 44.388C40.894 44.699 40.6706 44.9346 40.3864 45.099C40.1001 45.2656 39.7732 45.3478 39.4016 45.3478Z" fill="#799093" stroke="#263238" stroke-width="0.3" stroke-miterlimit="10"/>
<path d="M43.0281 45.2522V37.4843H41.688V36.5867H45.4322V37.4843H44.1327V45.2522H43.0281Z" fill="#799093" stroke="#263238" stroke-width="0.3" stroke-miterlimit="10"/>
<path d="M45.7468 45.2522L47.4281 36.5867H48.494L50.1854 45.2522H49.1397L48.7783 43.0703H47.1661L46.7844 45.2522H45.7468ZM47.3103 42.2015H48.6301L47.9661 38.2976L47.3103 42.2015Z" fill="#799093" stroke="#263238" stroke-width="0.3" stroke-miterlimit="10"/>
<path d="M50.9854 45.2522V36.5867H52.5793C53.1072 36.5867 53.5437 36.6644 53.8889 36.8177C54.2341 36.9711 54.4899 37.2177 54.6564 37.5554C54.8229 37.8932 54.9062 38.3376 54.9062 38.8864C54.9062 39.2219 54.8737 39.5263 54.8087 39.8018C54.7437 40.0773 54.6382 40.3084 54.496 40.4973C54.3519 40.6861 54.163 40.8239 53.9295 40.9083L55.0544 45.2522H53.9884L52.9529 41.1861H52.092V45.2522H50.9854ZM52.0899 40.3195H52.5102C52.8229 40.3195 53.0767 40.2773 53.2737 40.1906C53.4686 40.104 53.6128 39.9596 53.7041 39.7529C53.7955 39.5463 53.8402 39.2574 53.8402 38.8864C53.8402 38.3798 53.7549 38.0154 53.5864 37.791C53.4178 37.5665 53.0808 37.4532 52.5793 37.4532H52.0899V40.3195V40.3195Z" fill="#799093" stroke="#263238" stroke-width="0.3" stroke-miterlimit="10"/>
<path d="M56.9307 45.2522V37.4843H55.5906V36.5867H59.3348V37.4843H58.0353V45.2522H56.9307Z" fill="#799093" stroke="#263238" stroke-width="0.3" stroke-miterlimit="10"/>
<path d="M62.3357 45.2522V36.5867H64.0555C64.6423 36.5867 65.1073 36.6844 65.4484 36.88C65.7916 37.0755 66.0352 37.371 66.1814 37.7621C66.3276 38.1554 66.4007 38.642 66.4007 39.2285V42.417C66.4007 43.0303 66.3276 43.548 66.1814 43.9679C66.0352 44.3879 65.7976 44.7078 65.4687 44.9256C65.1398 45.1433 64.6971 45.2522 64.1448 45.2522H62.3357V45.2522ZM63.4403 44.3856H64.0657C64.4697 44.3856 64.756 44.299 64.9266 44.1279C65.0951 43.9568 65.1987 43.708 65.2352 43.3791C65.2717 43.0503 65.288 42.6548 65.288 42.1926V39.3796C65.288 38.9308 65.2616 38.5664 65.2108 38.2887C65.158 38.0109 65.0443 37.8065 64.8677 37.6799C64.691 37.551 64.4149 37.4866 64.0372 37.4866H63.4403V44.3856Z" fill="#799093" stroke="#263238" stroke-width="0.3" stroke-miterlimit="10"/>
<path d="M67.489 45.2522V36.5867H70.5591V37.4843H68.5936V40.3506H70.1875V41.2061H68.5936V44.3834H70.5774V45.25H67.489V45.2522Z" fill="#799093" stroke="#263238" stroke-width="0.3" stroke-miterlimit="10"/>
<path d="M71.4485 45.2522L71.5947 36.5867H72.6789L74.0779 43.6146L75.4851 36.5867H76.5612L76.7074 45.2522H75.8181L75.7307 38.9619L74.3906 45.2522H73.7652L72.4353 38.9619L72.348 45.2522H71.4485Z" fill="#799093" stroke="#263238" stroke-width="0.3" stroke-miterlimit="10"/>
<path d="M79.944 45.3476C79.41 45.3476 78.9816 45.2343 78.6628 45.0055C78.344 44.7766 78.1146 44.45 77.9785 44.0256C77.8425 43.6012 77.7734 43.1035 77.7734 42.5324V39.2484C77.7734 38.6774 77.8425 38.1886 77.9846 37.7775C78.1247 37.3665 78.3521 37.0532 78.6689 36.8354C78.9856 36.6177 79.41 36.5088 79.944 36.5088C80.478 36.5088 80.9024 36.6199 81.2151 36.8399C81.5278 37.0621 81.7552 37.3753 81.8953 37.782C82.0354 38.1886 82.1065 38.6774 82.1065 39.2484V42.5436C82.1065 43.1079 82.0354 43.599 81.8953 44.0189C81.7552 44.4389 81.5278 44.7655 81.2151 44.9988C80.9024 45.2321 80.478 45.3476 79.944 45.3476ZM79.944 44.3944C80.2364 44.3944 80.4597 44.3278 80.608 44.1967C80.7582 44.0656 80.8597 43.8789 80.9105 43.6412C80.9633 43.4034 80.9897 43.1235 80.9897 42.8013V39.004C80.9897 38.6841 80.9633 38.4063 80.9105 38.1752C80.8577 37.9442 80.7582 37.7642 80.608 37.6398C80.4577 37.5153 80.2364 37.4531 79.944 37.4531C79.6516 37.4531 79.4283 37.5153 79.274 37.6398C79.1217 37.7642 79.0181 37.9419 78.9653 38.1752C78.9125 38.4063 78.8861 38.6841 78.8861 39.004V42.8013C78.8861 43.1213 78.9125 43.4034 78.9653 43.6412C79.0181 43.8812 79.1196 44.0656 79.274 44.1967C79.4262 44.33 79.6496 44.3944 79.944 44.3944Z" fill="#799093" stroke="#263238" stroke-width="0.3" stroke-miterlimit="10"/>
<path d="M58.5693 31.0894C62.7667 31.0894 66.1693 27.3659 66.1693 22.7727C66.1693 18.1796 62.7667 14.4561 58.5693 14.4561C54.3719 14.4561 50.9692 18.1796 50.9692 22.7727C50.9692 27.3659 54.3719 31.0894 58.5693 31.0894Z" fill="#799093" stroke="#263238" stroke-width="0.75" stroke-miterlimit="10"/>
<path d="M49.7713 22.1815L50.0515 25.0367C50.1063 25.6033 50.5956 25.9966 51.1073 25.881C52.9632 25.4655 57.1094 24.6079 59.6454 24.6545C62.9896 24.7145 66.015 26.5632 66.015 26.5632L65.9845 24.8967C65.9358 22.3215 65.5764 19.7663 64.9145 17.2955L64.4759 15.6602C64.4759 15.6602 62.1327 18.502 58.7175 19.6885C56.1469 20.5817 52.3215 20.9728 50.5875 21.1106C50.086 21.1528 49.7164 21.6372 49.7713 22.1815Z" fill="white" stroke="#263238" stroke-miterlimit="10" stroke-linecap="round" stroke-linejoin="round"/>
<path d="M64.5287 16.509L64.5064 16.4246C64.5064 16.4246 62.1226 19.2242 58.6891 20.3529C58.5043 20.4129 58.3115 20.4729 58.1145 20.5285" stroke="#263238" stroke-miterlimit="10"/>
<path d="M57.3409 20.7263C56.7582 20.8641 56.149 20.9818 55.5378 21.084" stroke="#263238" stroke-miterlimit="10"/>
<path d="M66.0679 27.1165C66.0537 27.1188 66.0374 27.1188 66.0232 27.1188C65.743 27.1254 65.5095 26.881 65.5034 26.5722L65.473 24.9057C65.4263 22.3816 65.0729 19.873 64.4232 17.4511L63.9846 15.8158C63.9054 15.5203 64.0597 15.2114 64.3298 15.1248C64.5999 15.0381 64.8821 15.207 64.9613 15.5025L65.3999 17.1378C66.076 19.6553 66.4415 22.2616 66.4902 24.8835L66.5207 26.5499C66.5268 26.8432 66.3278 27.0854 66.0679 27.1165Z" fill="#263238" stroke="#263238" stroke-miterlimit="10" stroke-linecap="round" stroke-linejoin="round"/>
<path d="M55.808 20.4329C53.7978 20.8173 51.7328 21.0217 50.5856 21.1128C50.0861 21.1528 49.7186 21.6371 49.7714 22.1815L50.0516 25.0367C50.1064 25.6033 50.5958 25.9966 51.1075 25.881C52.2547 25.6233 54.275 25.1989 56.2486 24.9212L55.808 20.4329Z" fill="#263238" stroke="#263238" stroke-miterlimit="10" stroke-linecap="round" stroke-linejoin="round"/>
<path d="M52.4048 25.1146C52.4048 25.1146 53.217 26.9211 53.3429 27.0877C53.3896 27.1499 53.4789 27.1944 53.5723 27.2277C53.7957 27.3055 53.9885 27.4632 54.1185 27.6765C54.6992 28.6386 56.1814 31.0961 56.2566 31.1849C56.35 31.2938 56.5794 31.3894 56.7073 31.2827C56.8353 31.1761 57.7835 30.1606 57.7124 29.714C57.6414 29.2696 57.5155 29.4052 57.3043 29.2185C57.1337 29.0674 56.4759 27.7832 56.2261 27.2855C56.1652 27.1655 56.1713 27.021 56.2403 26.9077L56.4617 26.5389C56.4617 26.5389 55.4952 25.6857 55.4809 25.5368C55.4667 25.3879 55.8688 25.279 55.883 25.128C55.8952 24.9746 55.5398 24.4436 55.5398 24.4436L52.4048 25.1146Z" fill="white" stroke="#263238" stroke-miterlimit="10" stroke-linecap="round" stroke-linejoin="round"/>
<path d="M55.8606 25.9834L56.5692 26.27C56.5977 26.2811 56.6078 26.3189 56.5895 26.3434L56.4616 26.5389L55.8606 25.9834Z" fill="#92E3A9" stroke="#263238" stroke-miterlimit="10"/>
<path d="M54.0962 26.71L53.8911 26.881" stroke="#263238" stroke-miterlimit="10"/>
<path d="M55.4808 25.5366L54.2727 26.5587" stroke="#263238" stroke-miterlimit="10"/>
<path d="M53.978 22.4668L53.1926 22.5591L53.2464 23.107L54.0318 23.0147L53.978 22.4668Z" fill="#92E3A9"/>
<path d="M50.9752 90.6128C50.9752 90.6128 50.5021 99.4116 50.5021 99.5516C50.5021 99.6916 49.9072 101.876 49.9925 102.202C50.0778 102.527 50.758 102.62 51.225 102.667C51.692 102.713 52.6686 102.853 53.0524 102.853C53.4341 102.853 54.7946 102.76 55.0484 102.667C55.3042 102.573 55.6433 102.296 55.3448 102.062C55.0484 101.829 54.3255 101.738 53.4747 100.667C52.626 99.5983 52.4128 99.1339 52.4128 99.1339L54.2017 90.7061L50.9752 90.6128Z" fill="#FFBE9D" stroke="#263238" stroke-width="0.75" stroke-miterlimit="10"/>
<path d="M50.5022 99.5517C50.5022 99.5517 50.8311 99.705 51.1641 99.7984C51.4991 99.8895 52.1956 100.165 52.1956 100.165L52.4148 99.1362L53.4768 100.227C53.4768 100.227 53.3935 100.472 53.3367 100.929C53.2819 101.387 53.225 101.874 53.225 101.874L53.8646 102.087L54.1143 100.838L54.9773 101.509L54.7824 102.362C54.7824 102.362 55.0057 102.576 55.3671 102.454C55.7286 102.331 55.7286 102.485 55.6453 102.727C55.5621 102.971 54.8656 103.153 54.2524 103.213C53.6392 103.273 51.5235 103.091 51.0219 102.969C50.5204 102.847 50.159 102.816 49.9072 102.634C49.6575 102.451 49.8524 101.84 49.8788 101.718C49.9072 101.596 51.4382 102.205 51.5783 102.205C51.7184 102.205 51.9681 101.443 51.9681 101.443L50.0189 100.863C50.023 100.865 50.0636 99.6117 50.5022 99.5517Z" fill="#263238" stroke="#263238" stroke-miterlimit="10" stroke-linecap="round" stroke-linejoin="round"/>
<path d="M35.0483 99.2139C35.0483 99.2139 34.5773 99.3605 34.1732 99.7605C33.7691 100.163 33.7915 101.476 33.7915 101.476L35.0483 99.2139Z" fill="#263238" stroke="#263238" stroke-miterlimit="10" stroke-linecap="round" stroke-linejoin="round"/>
<path d="M36.3762 101.447C36.3762 101.447 35.2026 101.045 34.762 101.005C34.3214 100.965 33.7712 101.005 33.7712 101.005C33.7712 101.005 33.4402 101.125 33.4402 101.407C33.4402 101.689 33.3833 102.091 34.2646 102.251C35.1458 102.411 35.9722 102.251 36.3762 102.009C36.7803 101.769 36.3762 101.447 36.3762 101.447Z" fill="#263238" stroke="#263238" stroke-miterlimit="10" stroke-linecap="round" stroke-linejoin="round"/>
<path d="M39.0383 88.9863C39.0383 88.9863 36.1063 97.6319 35.8525 98.0051C35.5966 98.3762 33.8809 100.751 33.8383 101.218C33.7956 101.682 35.9946 101.727 36.3763 101.449C36.7581 101.169 37.2129 98.7495 37.4667 98.2384C37.7225 97.7274 42.9896 89.6396 42.9896 89.6396L39.0383 88.9863Z" fill="#FFBE9D" stroke="#263238" stroke-width="0.75" stroke-miterlimit="10"/>
<path d="M37.3672 99.1184C37.3672 99.1184 36.5977 98.5962 36.1936 98.5162C35.7895 98.4362 35.3855 98.3962 35.3855 98.3962L34.8352 99.3206L36.89 100.405C36.89 100.403 37.219 99.6805 37.3672 99.1184Z" fill="#263238" stroke="#263238" stroke-miterlimit="10" stroke-linecap="round" stroke-linejoin="round"/>
<path d="M44.6118 62.7876L44.5488 64.3007C44.5488 64.3007 40.9042 74.5438 39.1458 79.5632C37.3874 84.5825 36.9468 88.4309 36.9468 88.4309C36.9468 88.4309 38.5184 90.0129 42.7884 90.7684C47.0605 91.5238 51.1438 91.6616 53.4687 91.6616C55.7936 91.6616 58.4311 90.8373 58.4311 90.8373C58.4311 90.8373 56.421 77.3635 54.7865 71.2443C53.154 65.1251 52.2098 64.163 52.2098 64.163L51.958 62.2388L44.6118 62.7876Z" fill="#263238"/>
<path d="M47.2778 73.1995L46.8108 91.2482" stroke="#FAFAFA" stroke-miterlimit="10" stroke-linecap="round" stroke-linejoin="round"/>
<path d="M47.3125 71.8621L47.2942 72.5731" stroke="#FAFAFA" stroke-miterlimit="10" stroke-linecap="round" stroke-linejoin="round"/>
<path d="M50.8799 64.654C51.1418 64.594 51.3997 64.5229 51.6474 64.4385" stroke="#FAFAFA" stroke-miterlimit="10" stroke-linecap="round" stroke-linejoin="round"/>
<path d="M45.3022 64.7808C45.3022 64.7808 47.6353 65.1274 49.9175 64.823" stroke="#FAFAFA" stroke-miterlimit="10" stroke-linecap="round" stroke-linejoin="round"/>
<path d="M60.2668 46.5921C60.2668 46.5921 60.082 45.6833 60.0515 45.0767C60.0211 44.4701 59.4972 43.6636 59.5602 43.3259C59.6211 42.9881 59.9297 43.0237 60.084 43.1237C60.2383 43.2236 60.4231 43.5614 60.4231 43.5614C60.4231 43.5614 60.8536 42.1127 60.8536 41.475C60.8536 40.8351 61.2231 40.9017 61.3774 41.3394C61.5318 41.7772 61.3165 43.4614 61.3165 43.4614C61.3165 43.4614 61.9013 43.6303 62.1774 43.7636C62.4536 43.8991 62.9775 44.168 62.8861 45.0101C62.7947 45.8522 62.7013 46.3232 62.5165 46.3232C62.3318 46.3232 62.1774 46.0544 62.1774 46.0544C62.1774 46.0544 62.1774 46.9632 61.9013 47.232C61.6252 47.5009 61.0708 47.5342 61.0708 47.5342C61.0708 47.5342 61.1277 46.8609 60.2668 46.5921Z" fill="#FFBE9D" stroke="#263238" stroke-width="0.75" stroke-miterlimit="10"/>
<path d="M62.1733 46.0522C62.1733 46.0522 62.3581 45.2767 62.3581 45.1768" stroke="#263238" stroke-miterlimit="10" stroke-linecap="round" stroke-linejoin="round"/>
<path d="M60.4211 43.5613L60.2363 44.5034" stroke="#263238" stroke-miterlimit="10" stroke-linecap="round" stroke-linejoin="round"/>
<path d="M59.5012 47.5341L60.0799 46.4609C60.0799 46.4609 60.3033 46.1187 60.8373 46.3143C60.8434 46.3165 60.8474 46.3187 60.8535 46.3209C61.3388 46.5009 61.6088 47.0697 61.4769 47.6119L61.3286 48.2184C61.3286 48.2162 60.1692 47.4852 59.5012 47.5341Z" fill="#92E3A9" stroke="#263238" stroke-miterlimit="10" stroke-linecap="round" stroke-linejoin="round"/>
<path d="M35.3123 69.0514C35.3123 69.0514 35.4524 69.8557 35.5214 70.429C35.5905 71.0045 35.9418 72.1532 36.1854 72.3065C36.4311 72.4598 36.7458 72.6509 36.3945 72.7665C36.0453 72.882 35.8341 72.9198 35.5194 72.6509C35.2047 72.3821 34.9935 72.0754 34.9935 72.0754C34.9935 72.0754 34.7478 73.2619 34.5732 73.8374C34.3986 74.4129 33.8727 75.3306 33.8727 75.3306C33.8727 75.3306 34.0128 75.9816 33.8037 76.0971C33.5945 76.2127 33.2778 75.715 33.2778 75.715C33.2778 75.715 32.9631 75.6394 32.823 75.3706C32.6829 75.1017 32.5082 73.0731 32.5428 72.6887C32.5773 72.3065 33.9925 68.7559 33.9925 68.7559L35.3123 69.0514Z" fill="#FFBE9D" stroke="#263238" stroke-width="0.75" stroke-miterlimit="10"/>
<path d="M33.3244 73.2642C33.2128 73.4864 33.1072 73.7685 33.1072 73.8774C33.1072 74.0307 33.2818 75.715 33.2818 75.715" stroke="#263238" stroke-miterlimit="10" stroke-linecap="round" stroke-linejoin="round"/>
<path d="M33.8767 75.3328L33.7366 74.4129L34.0168 73.1108" stroke="#263238" stroke-miterlimit="10" stroke-linecap="round" stroke-linejoin="round"/>
<path d="M34.1226 74.8729C34.1226 74.8729 34.2058 73.9486 34.4028 73.1487" stroke="#263238" stroke-miterlimit="10" stroke-linecap="round" stroke-linejoin="round"/>
<path d="M34.4718 71.3489C34.4718 71.3489 34.4373 71.6933 34.1916 71.9621C33.9459 72.231 33.4565 72.6132 33.4565 72.6132" stroke="#263238" stroke-miterlimit="10" stroke-linecap="round" stroke-linejoin="round"/>
<path d="M43.8504 52.7534C43.8504 52.7534 40.9976 54.2665 40.819 54.6554C40.6403 55.0464 37.0727 62.0233 36.5834 62.7054C36.092 63.3876 34.5773 64.2675 34.3986 64.9496C34.2199 65.6317 34.3539 67.487 34.3539 67.487L33.9966 68.7558C33.9966 68.7558 34.0413 69.1957 34.6646 69.3423C35.288 69.489 35.288 69.489 35.288 69.489L36.358 68.3669C36.358 68.3669 38.6768 67.7337 39.6129 66.5138C40.5489 65.294 42.823 59.5858 42.823 59.5858L42.4657 63.4409C42.4657 63.4409 44.7845 63.832 47.5479 63.5875C50.3114 63.3431 53.3449 62.8565 53.3449 62.8565L52.9429 58.3682C52.9429 58.3682 59.5419 57.1973 59.8992 56.8551C60.2566 56.5129 60.5673 55.5864 60.6119 55.2442C60.6566 54.902 61.7713 48.3651 61.7713 48.3651C61.7713 48.3651 61.3693 47.6341 60.4333 47.4385C59.4972 47.243 58.5612 47.7807 58.5165 48.0718C58.4718 48.3651 56.5551 52.609 56.5551 52.609C56.5551 52.609 56.4211 52.5112 55.9317 52.7556C55.4403 53 55.219 53.0978 55.219 53.0978C55.219 53.0978 52.8556 52.0735 51.8748 52.1713C50.8941 52.269 49.9581 52.4157 49.9581 52.4157C49.9581 52.4157 48.22 51.538 46.9266 51.9268C45.6352 52.3157 43.8504 52.7534 43.8504 52.7534Z" fill="#C8DCEC" stroke="#263238" stroke-width="0.5" stroke-miterlimit="10"/>
<path d="M50.0049 58.8037L52.947 58.366L50.9856 59.488" stroke="#263238" stroke-miterlimit="10" stroke-linecap="round" stroke-linejoin="round"/>
<path d="M42.8697 57.3884L42.825 59.5837L42.157 58.6571" stroke="#263238" stroke-miterlimit="10" stroke-linecap="round" stroke-linejoin="round"/>
<path d="M34.7559 67.6848C34.7559 67.6848 34.8899 68.1736 35.9599 68.1736" stroke="#263238" stroke-miterlimit="10" stroke-linecap="round" stroke-linejoin="round"/>
<path d="M51.3572 43.5591C51.3572 43.5591 51.6577 44.1701 51.7876 44.6878C51.9156 45.2055 52.4313 45.7677 52.5613 46.6142C52.6892 47.4608 52.6892 48.2118 52.6039 48.5873C52.5186 48.9628 51.8303 49.0561 51.8303 49.0561C51.8303 49.0561 50.7562 48.6806 50.6709 47.2697C50.5856 45.861 51.3572 43.5591 51.3572 43.5591Z" fill="#FFBE9D" stroke="#263238" stroke-width="0.75" stroke-miterlimit="10"/>
<path d="M52.0029 45.1145C52.0029 45.1145 52.2811 45.2256 52.407 45.2256C52.5329 45.2256 52.7603 45.2523 52.6852 45.5833C52.61 45.9144 52.4334 46.0255 52.4334 46.0255L52.0029 45.1145Z" fill="#FFBE9D" stroke="#263238" stroke-width="0.75" stroke-miterlimit="10"/>
<path d="M48.8678 41.1616C48.8678 41.1616 47.7936 40.5972 47.0647 41.0216C46.3337 41.4438 44.1875 43.5591 44.1449 44.2634C44.1023 44.9678 44.0596 46.0032 44.0596 46.4253C44.0596 46.8475 42.5144 47.7407 41.9561 49.1983C41.3977 50.6559 43.4586 53.5222 44.8332 53.2867C46.2079 53.0511 46.5936 52.3468 47.1094 52.3468C47.6251 52.3468 49.2556 53.7555 50.2018 53.4755C51.1459 53.1933 52.6058 51.5491 52.6505 50.5159C52.6932 49.4827 51.6637 48.4006 51.4911 47.603C51.3185 46.8031 51.5338 46.0054 51.7064 45.3944C51.8789 44.7833 51.4911 42.8569 51.4911 42.8569C51.4911 42.8569 52.4353 42.9969 52.0069 41.9637C51.5764 40.9305 51.1906 40.555 50.2891 40.4595C49.3815 40.3617 48.8678 41.1616 48.8678 41.1616Z" fill="#263238"/>
</g>
<defs>
<clipPath id="clip0_2712_1664">
<rect width="142.758" height="102.915" fill="white" transform="translate(0.554688 0.420166)"/>
</clipPath>
</defs>
</svg>
