<svg width="2" height="18" viewBox="0 0 2 18" fill="none" xmlns="http://www.w3.org/2000/svg">
<path d="M1.41276 17.2443C1.40973 17.2443 1.40369 17.1842 1.39311 17.0722C1.38253 16.9501 1.36892 16.784 1.35078 16.5739C1.31601 16.1417 1.26915 15.5154 1.21927 14.7391C1.11647 13.1883 0.997054 11.0453 0.889727 8.67417C0.783912 6.30303 0.709841 4.15601 0.667515 2.60126C0.646351 1.82289 0.631235 1.19459 0.625189 0.760381C0.622165 0.550281 0.620652 0.3822 0.619141 0.260142C0.619141 0.146087 0.619141 0.0860596 0.622165 0.0860596C0.625188 0.0860596 0.629723 0.146087 0.634258 0.260142C0.638793 0.384201 0.646351 0.550281 0.655421 0.760381C0.672049 1.20459 0.694723 1.8309 0.723445 2.60126C0.780888 4.15601 0.862516 6.30103 0.968331 8.67217C1.07415 11.0413 1.1845 13.1863 1.27369 14.7371C1.31903 15.5054 1.35532 16.1297 1.38101 16.5739C1.39311 16.784 1.40218 16.9501 1.40822 17.0742C1.41427 17.1842 1.41578 17.2443 1.41276 17.2443Z" fill="#263238"/>
</svg>
