<svg width="15" height="22" viewBox="0 0 15 22" fill="none" xmlns="http://www.w3.org/2000/svg">
<path d="M10.6533 19.386C12.7454 17.121 13.016 13.3111 12.7197 9.94352C12.6698 9.38126 12.6804 8.78297 12.4446 8.31074C12.2088 7.83852 11.7099 7.55238 11.3381 7.83252C11.0297 8.06463 10.9209 8.56687 10.7667 8.98907C10.5611 9.55134 10.2331 10.0336 9.83247 10.3617C9.56944 10.5778 9.23688 10.7279 8.95269 10.5638C8.5642 10.3357 8.47803 9.66939 8.44629 9.10912C8.38733 8.06462 8.32687 7.02013 8.26791 5.97363C8.23617 5.41336 8.2014 4.84109 8.03512 4.32284C7.86884 3.80459 7.54383 3.34437 7.12662 3.23832C6.7094 3.13427 6.22416 3.49644 6.17126 4.05471C6.15009 4.28682 6.19998 4.52093 6.203 4.75304C6.20602 4.98715 6.138 5.25328 5.97323 5.33732C5.80544 5.42137 5.62404 5.2813 5.48648 5.13123C5.0088 4.61298 4.66263 3.91664 4.33762 3.22231C4.01262 2.52798 3.69366 1.81564 3.25377 1.24336C2.81388 0.669089 2.22736 0.240886 1.61061 0.262897C0.993855 0.284907 0.369543 0.851176 0.262216 1.65556C0.154889 2.46195 0.558499 3.22631 0.981761 3.8226C1.61061 4.70902 2.3362 5.47539 3.1283 6.08768C3.27191 6.19774 3.4261 6.31779 3.4911 6.51989C3.6075 6.88406 3.35959 7.28426 3.08447 7.43833C2.77307 7.61241 2.42388 7.60641 2.09282 7.69445C1.76177 7.78249 1.41107 8.0146 1.30979 8.4408C1.16921 9.03309 1.57282 9.59335 1.95829 9.94752C2.72923 10.6559 3.59238 11.1881 4.49937 11.5143C4.82437 11.6303 5.1645 11.7264 5.43659 11.9885C5.70869 12.2506 5.89311 12.7369 5.76462 13.1491C5.63462 13.5613 5.24764 13.7313 4.91356 13.6873C4.57798 13.6433 4.26809 13.4412 3.94308 13.3211C3.3354 13.095 2.57806 13.2311 2.24097 13.9374C2.02026 14.4017 2.03538 15.0139 2.1941 15.5222C2.35132 16.0304 2.63399 16.4506 2.93028 16.8368C3.96425 18.1815 5.24613 19.216 6.65196 19.6862C8.05779 20.1544 9.33514 20.1844 10.6533 19.386Z" fill="#92E3A9" stroke="#263238" stroke-width="0.25" stroke-miterlimit="10"/>
<path d="M10.8362 21.8852C10.6593 20.5586 10.3374 19.0038 9.8491 17.3451C9.36386 15.6843 8.71536 13.9194 7.98826 12.1065C7.80535 11.6543 7.62546 11.2061 7.44709 10.7659C7.26871 10.3257 7.09185 9.89149 6.89836 9.47929C6.5144 8.6529 6.09718 7.89654 5.6845 7.1942C5.27182 6.49187 4.85914 5.84556 4.47065 5.24327C4.08064 4.64298 3.71029 4.09272 3.35505 3.60849C2.6476 2.63802 2.00817 1.94569 1.55468 1.49347C1.32793 1.26537 1.14804 1.09729 1.02409 0.985236C0.96362 0.93121 0.916759 0.889189 0.883503 0.859174C0.851758 0.831161 0.833618 0.819153 0.833618 0.819153C0.833618 0.819153 0.848735 0.837166 0.878968 0.86718C0.912224 0.899195 0.957574 0.943213 1.01653 1.00124C1.13746 1.1173 1.31432 1.29138 1.53956 1.52149C1.98852 1.98171 2.6219 2.67804 3.32331 3.65051C3.67552 4.13474 4.04285 4.687 4.42983 5.28929C4.81682 5.89158 5.22647 6.53989 5.63613 7.24222C6.0473 7.94456 6.46149 8.69892 6.84394 9.52331C7.03592 9.93351 7.21127 10.3657 7.38964 10.8079C7.56802 11.2481 7.7479 11.6964 7.93081 12.1486C8.65641 13.9614 9.3049 15.7203 9.79317 17.3771C10.2829 19.0319 10.6095 20.5786 10.7909 21.8992" fill="#E0E0E0"/>
<path d="M10.8362 21.8852C10.6593 20.5586 10.3374 19.0038 9.8491 17.3451C9.36386 15.6843 8.71536 13.9194 7.98826 12.1065C7.80535 11.6543 7.62546 11.2061 7.44709 10.7659C7.26871 10.3257 7.09185 9.89149 6.89836 9.47929C6.5144 8.6529 6.09718 7.89654 5.6845 7.1942C5.27182 6.49187 4.85914 5.84556 4.47065 5.24327C4.08064 4.64298 3.71029 4.09272 3.35505 3.60849C2.6476 2.63802 2.00817 1.94569 1.55468 1.49347C1.32793 1.26537 1.14804 1.09729 1.02409 0.985236C0.96362 0.93121 0.916759 0.889189 0.883503 0.859174C0.851758 0.831161 0.833618 0.819153 0.833618 0.819153C0.833618 0.819153 0.848735 0.837166 0.878968 0.86718C0.912224 0.899195 0.957574 0.943213 1.01653 1.00124C1.13746 1.1173 1.31432 1.29138 1.53956 1.52149C1.98852 1.98171 2.6219 2.67804 3.32331 3.65051C3.67552 4.13474 4.04285 4.687 4.42983 5.28929C4.81682 5.89158 5.22647 6.53989 5.63613 7.24222C6.0473 7.94456 6.46149 8.69892 6.84394 9.52331C7.03592 9.93351 7.21127 10.3657 7.38964 10.8079C7.56802 11.2481 7.7479 11.6964 7.93081 12.1486C8.65641 13.9614 9.3049 15.7203 9.79317 17.3771C10.2829 19.0319 10.6095 20.5786 10.7909 21.8992" stroke="#263238" stroke-width="0.25" stroke-miterlimit="10"/>
<path d="M6.88167 9.47326C6.8862 9.47326 6.89376 9.38722 6.90585 9.22915C6.91795 9.07107 6.93004 8.84296 6.94213 8.56083C6.96632 7.99656 6.98144 7.21418 6.99655 6.35377C7.01167 5.49136 7.03586 4.71299 7.07062 4.15072C7.08725 3.86858 7.10237 3.64248 7.11446 3.4844C7.12656 3.32633 7.13109 3.24028 7.12655 3.23828C7.12202 3.23828 7.10993 3.32433 7.09028 3.4804C7.07062 3.63648 7.04795 3.86458 7.02527 4.14471C6.97992 4.70698 6.94667 5.48936 6.93155 6.35177C6.91795 7.20618 6.90585 7.97855 6.89527 8.55882C6.88923 8.82895 6.88318 9.05307 6.87864 9.22715C6.87713 9.38522 6.87864 9.47126 6.88167 9.47326Z" fill="#E0E0E0" stroke="#263238" stroke-width="0.25" stroke-miterlimit="10"/>
<path d="M1.28406 8.72693C1.28406 8.72894 1.30371 8.73094 1.3415 8.73294C1.38685 8.73294 1.44127 8.73294 1.50627 8.73294C1.64837 8.73294 1.85546 8.73093 2.10942 8.74094C2.61884 8.75494 3.32327 8.80897 4.09573 8.91302C4.86969 9.01907 5.56656 9.15514 6.06843 9.27519C6.31936 9.33122 6.52192 9.38525 6.66251 9.42127C6.726 9.43727 6.78042 9.45128 6.82425 9.46128C6.86205 9.46929 6.8817 9.47329 6.8817 9.46929C6.8817 9.46729 6.86356 9.45728 6.82728 9.44327C6.78344 9.42727 6.73204 9.40926 6.66856 9.38725C6.52948 9.34123 6.32843 9.2772 6.0775 9.21317C5.57714 9.0791 4.87876 8.93303 4.10177 8.82698C3.3263 8.72293 2.62036 8.67891 2.10942 8.67891C1.85395 8.67691 1.64685 8.68691 1.50476 8.69692C1.43976 8.70292 1.38534 8.70692 1.33999 8.71293C1.30371 8.72093 1.28406 8.72493 1.28406 8.72693Z" fill="#E0E0E0" stroke="#263238" stroke-width="0.25" stroke-miterlimit="10"/>
<path d="M9.77952 17.2169C9.78104 17.2169 9.79162 17.1869 9.80976 17.1249C9.82941 17.0549 9.85511 16.9648 9.88685 16.8528C9.95336 16.6166 10.0426 16.2725 10.1499 15.8443C10.363 14.9899 10.6321 13.7973 10.9148 12.4747C11.1975 11.154 11.459 9.95947 11.6615 9.10106C11.7628 8.68085 11.8444 8.33469 11.9049 8.08457C11.9321 7.97251 11.9533 7.88047 11.9699 7.80843C11.9835 7.7444 11.9911 7.71039 11.988 7.71039C11.9865 7.71039 11.976 7.7404 11.9578 7.80243C11.9382 7.87246 11.9125 7.96251 11.8807 8.07456C11.8142 8.31068 11.725 8.65484 11.6177 9.08305C11.403 9.93746 11.1355 11.13 10.8528 12.4527C10.5701 13.7733 10.3086 14.9679 10.106 15.8263C10.0048 16.2465 9.92313 16.5926 9.86266 16.8428C9.83546 16.9548 9.81429 17.0468 9.79766 17.1189C9.78406 17.1829 9.77801 17.2169 9.77952 17.2169Z" fill="#E0E0E0" stroke="#263238" stroke-width="0.25" stroke-miterlimit="10"/>
<path d="M2.26062 14.9319C2.26062 14.9339 2.28632 14.9439 2.3362 14.9619C2.39365 14.9799 2.4662 15.002 2.55539 15.03C2.75342 15.09 3.02703 15.172 3.3611 15.2741C4.04134 15.4802 4.97857 15.7823 6.01253 16.1165C7.04801 16.4527 7.98675 16.7448 8.67001 16.9369C9.01165 17.0329 9.28828 17.107 9.48026 17.155C9.57096 17.177 9.64503 17.195 9.70096 17.207C9.75236 17.219 9.77805 17.223 9.77957 17.219C9.77957 17.217 9.75387 17.207 9.70398 17.189C9.64805 17.171 9.57549 17.149 9.48479 17.121C9.28677 17.0609 9.01316 16.9789 8.67908 16.8769C7.99884 16.6708 7.06162 16.3686 6.02765 16.0324C4.99368 15.6963 4.05344 15.4041 3.37017 15.2141C3.02854 15.118 2.75191 15.044 2.55993 14.996C2.46923 14.9739 2.39516 14.9579 2.33923 14.9439C2.28783 14.9319 2.26062 14.9279 2.26062 14.9319Z" fill="#E0E0E0" stroke="#263238" stroke-width="0.25" stroke-miterlimit="10"/>
</svg>
