<svg width="14" height="9" viewBox="0 0 14 9" fill="none" xmlns="http://www.w3.org/2000/svg">
<path d="M12.7555 8.03689C12.754 8.03689 12.754 8.02489 12.7555 8.00088C12.757 7.97286 12.7585 7.93885 12.7615 7.89883C12.7691 7.80278 12.7797 7.66872 12.7918 7.50064C12.822 7.14447 12.8628 6.63823 12.9172 5.99992C13.0306 4.7073 13.1893 2.88443 13.3768 0.737402L13.4131 0.791432C12.2657 0.793433 10.9899 0.79343 9.64754 0.795431C7.07622 0.789428 4.74979 0.783428 3.05977 0.779426C2.2208 0.773423 1.54056 0.767417 1.06288 0.763415C0.831595 0.759413 0.650196 0.755414 0.520194 0.753413C0.46124 0.751412 0.414378 0.749411 0.379611 0.74741C0.347866 0.745409 0.331238 0.743409 0.331238 0.741408C0.331238 0.739407 0.347866 0.737406 0.379611 0.735405C0.41589 0.733404 0.462751 0.731403 0.520194 0.729402C0.650196 0.727401 0.831595 0.723396 1.06288 0.719394C1.53905 0.715392 2.2208 0.709392 3.05977 0.703389C4.74979 0.699387 7.07622 0.693381 9.64754 0.687378C10.9899 0.689379 12.2657 0.691384 13.4131 0.691384H13.4539L13.4493 0.745407C13.2498 2.89043 13.082 4.7113 12.9626 6.00392C12.9006 6.64022 12.8522 7.14646 12.8175 7.50263C12.7993 7.67072 12.7857 7.80278 12.7767 7.89883C12.7721 7.94085 12.7676 7.97286 12.7646 8.00088C12.7585 8.02489 12.757 8.03689 12.7555 8.03689Z" fill="#263238"/>
</svg>
