<svg width="280" height="233" viewBox="0 0 280 233" fill="none" xmlns="http://www.w3.org/2000/svg">
<path d="M237.714 194.594C237.714 194.594 237.916 185.474 233.496 178.522C229.07 171.571 220.763 168.281 214.097 170.107C207.424 171.933 209.402 175.874 211.648 177.239C213.895 178.613 216.619 180.005 214.642 182.093C212.671 184.19 211.716 188.303 214.776 189.496C217.837 190.689 220.628 189.035 223.965 192.054C227.301 195.082 232.951 196.013 237.714 194.594Z" fill="#3DC19A"/>
<path d="M213.505 172.701C222.424 173.37 231.916 180.041 235.824 194.585" stroke="#3B55CE" stroke-width="1.05" stroke-miterlimit="10" stroke-linecap="round"/>
<path d="M242.301 194.594C242.301 194.594 233.395 196.936 228.921 190.509C224.441 184.082 229.836 178.975 226.379 174.075C222.921 169.176 219.867 169.447 219.053 164.801C218.239 160.155 222.471 160.029 222.06 155.382C221.65 150.736 217.291 148.449 219.168 144.192C220.049 142.185 223.029 140.432 227.489 144.373C229.762 146.379 232.365 148.359 234.928 148.359C238.056 148.359 240.41 149.57 240.767 155.482C241.123 161.402 241.063 166.347 244.716 169.881C249.639 174.636 252.895 185.383 242.301 194.594Z" fill="#91DBAC"/>
<path d="M222.538 145.159C230.045 153.665 238.971 170.604 242.301 194.594" stroke="#3B55CE" stroke-width="1.05" stroke-miterlimit="10" stroke-linecap="round"/>
<path d="M106.316 166.663C106.316 166.663 116.809 148.368 120.482 131.284C124.155 114.2 125.198 90.2456 124.02 89.7214C122.843 89.1971 113.406 103.633 109.518 120.192C106.148 134.538 106.316 166.663 106.316 166.663Z" fill="#40C7A7"/>
<path d="M121.66 95.8771C121.66 95.8771 107.957 132.377 107.312 161.239" stroke="#3B55CE" stroke-width="1.05" stroke-miterlimit="10" stroke-linecap="round"/>
<path d="M114.327 195.516C114.327 195.516 114.549 182.021 110.432 173.271C106.316 164.53 91.934 149.389 87.4541 151.26C83.9159 152.743 83.4921 187.336 92.6874 195.507H114.327V195.516Z" fill="#40C7A7"/>
<path d="M89.0078 155.029C89.0078 155.029 100.463 171.562 104.708 195.516" stroke="#3B55CE" stroke-width="1.05" stroke-miterlimit="10" stroke-linecap="round"/>
<path d="M112.174 195.787C112.174 195.787 110.647 160.516 107.102 145.466C104.412 134.058 99.7231 124.314 90.5681 117.472C84.5276 112.961 78.5476 113.476 80.2427 117.472C81.9378 121.467 87.3124 127.189 94.2476 142.185C100.51 155.734 106.221 182.111 106.315 195.787H112.174Z" fill="#22A482"/>
<path d="M83.3502 117.282C90.4199 123.175 98.8618 134.456 102.588 148.964C106.315 163.472 107.822 187.995 107.68 195.787" stroke="#3B55CE" stroke-width="1.05" stroke-miterlimit="10" stroke-linecap="round"/>
<path d="M106.316 172.801C106.316 172.801 105.744 153.457 118.437 154.84C129.65 156.06 128.762 172.801 128.762 172.801C128.762 172.801 134.117 167.549 140.359 171.625C148.626 177.022 146.299 188.737 146.299 188.737H106.316V172.801V172.801Z" fill="#22A482"/>
<path d="M278.949 196.678H1.0578C0.47163 196.678 0 196.151 0 195.514C0 194.87 0.478368 194.343 1.0578 194.343H278.942C279.528 194.343 280 194.87 280 195.514C280.007 196.151 279.535 196.678 278.949 196.678Z" fill="#638BE2"/>
<path d="M239.885 232.469H68.3717C56.6237 232.469 47.0948 219.576 47.0948 203.661V196.678H261.162V203.661C261.162 219.576 251.64 232.469 239.885 232.469Z" fill="#DDF8F3"/>
<path d="M175.115 0.604248H112.046C108.878 0.604248 106.308 4.05722 106.308 8.31468V186.387C106.308 190.644 108.878 194.097 112.046 194.097H175.115C178.283 194.097 180.853 190.644 180.853 186.387V8.31468C180.853 4.05722 178.283 0.604248 175.115 0.604248ZM176.73 176.055C176.73 178.261 175.398 180.05 173.756 180.05H113.405C111.764 180.05 110.432 178.261 110.432 176.055V18.6465C110.432 16.4409 111.764 14.6512 113.405 14.6512H173.756C175.398 14.6512 176.73 16.4409 176.73 18.6465V176.055Z" fill="#416F75"/>
<path opacity="0.3" d="M173.763 14.6512H113.405C111.764 14.6512 110.432 16.441 110.432 18.6466V176.055C110.432 178.261 111.764 180.05 113.405 180.05H173.756C175.398 180.05 176.73 178.261 176.73 176.055V18.6466C176.73 16.441 175.404 14.6512 173.763 14.6512Z" fill="#BCD3F9"/>
<path d="M140.244 10.2039C141.303 10.2039 142.161 9.05046 142.161 7.62768C142.161 6.2049 141.303 5.05151 140.244 5.05151C139.185 5.05151 138.327 6.2049 138.327 7.62768C138.327 9.05046 139.185 10.2039 140.244 10.2039Z" fill="#000E5B"/>
<path d="M155.258 7.62774C155.258 6.76902 154.74 6.06396 154.094 6.06396H146.46C145.821 6.06396 145.296 6.75998 145.296 7.62774C145.296 8.48647 145.814 9.19152 146.46 9.19152H154.094C154.74 9.19152 155.258 8.48647 155.258 7.62774Z" fill="#000E5B"/>
<path d="M206.057 118.882H133.006C131.835 118.882 130.887 117.607 130.887 116.034V83.4482C130.887 81.8754 131.835 80.6008 133.006 80.6008H206.057C207.228 80.6008 208.176 81.8754 208.176 83.4482V116.034C208.176 117.607 207.228 118.882 206.057 118.882Z" fill="#85B8ED"/>
<path d="M206.057 70.278H133.006C131.835 70.278 130.887 69.0035 130.887 67.4307V34.8444C130.887 33.2716 131.835 31.9971 133.006 31.9971H206.057C207.228 31.9971 208.176 33.2716 208.176 34.8444V67.4307C208.176 69.0035 207.228 70.278 206.057 70.278Z" fill="#85B8ED"/>
<path d="M206.057 167.495H133.006C131.835 167.495 130.887 166.22 130.887 164.647V132.061C130.887 130.488 131.835 129.214 133.006 129.214H206.057C207.228 129.214 208.176 130.488 208.176 132.061V164.647C208.176 166.22 207.228 167.495 206.057 167.495Z" fill="#85B8ED"/>
<path d="M204.846 67.8825H131.795C130.625 67.8825 129.676 66.608 129.676 65.0352V32.4489C129.676 30.8761 130.625 29.6016 131.795 29.6016H204.846C206.017 29.6016 206.965 30.8761 206.965 32.4489V65.0352C206.965 66.608 206.017 67.8825 204.846 67.8825Z" fill="#FFFFF8"/>
<path d="M152.264 58.8512C156.417 53.2703 156.417 44.2219 152.264 38.641C148.111 33.06 141.377 33.06 137.224 38.641C133.071 44.2219 133.071 53.2703 137.224 58.8512C141.377 64.4321 148.111 64.4321 152.264 58.8512Z" fill="#FFFFF8"/>
<path d="M181.754 44.7424H160.121C159.536 44.7424 159.058 44.1006 159.058 43.3142V40.0149C159.058 39.2285 159.536 38.5867 160.121 38.5867H181.754C182.339 38.5867 182.816 39.2285 182.816 40.0149V43.3142C182.81 44.1096 182.339 44.7424 181.754 44.7424Z" fill="#3ED9C7"/>
<path d="M200.117 49.8943H159.408C159.213 49.8943 159.051 50.1112 159.051 50.3643V50.6536C159.051 50.9157 159.213 51.1327 159.408 51.1327H200.117C200.313 51.1327 200.467 50.9157 200.467 50.6536V50.3643C200.467 50.1112 200.313 49.8943 200.117 49.8943Z" fill="#638BE2"/>
<path d="M200.117 55.0288H159.408C159.213 55.0288 159.051 55.2458 159.051 55.5079V55.7971C159.051 56.0593 159.213 56.2762 159.408 56.2762H200.117C200.313 56.2762 200.467 56.0593 200.467 55.7971V55.5079C200.467 55.2367 200.313 55.0288 200.117 55.0288Z" fill="#638BE2"/>
<path d="M200.117 60.1539H159.408C159.213 60.1539 159.051 60.3709 159.051 60.624V60.9132C159.051 61.1754 159.213 61.3833 159.408 61.3833H200.117C200.313 61.3833 200.467 61.1663 200.467 60.9132V60.624C200.467 60.3709 200.313 60.1539 200.117 60.1539Z" fill="#638BE2"/>
<path d="M204.846 116.486H131.795C130.625 116.486 129.676 115.212 129.676 113.639V81.0618C129.676 79.489 130.625 78.2145 131.795 78.2145H204.846C206.017 78.2145 206.965 79.489 206.965 81.0618V113.648C206.965 115.212 206.017 116.486 204.846 116.486Z" fill="#FFFFF8"/>
<path d="M144.744 111.641C150.617 111.641 155.378 105.243 155.378 97.3502C155.378 89.4575 150.617 83.0592 144.744 83.0592C138.87 83.0592 134.109 89.4575 134.109 97.3502C134.109 105.243 138.87 111.641 144.744 111.641Z" fill="#FFFFF8"/>
<path d="M181.754 93.3462H160.121C159.536 93.3462 159.058 92.7044 159.058 91.9271V88.6278C159.058 87.8414 159.536 87.2086 160.121 87.2086H181.754C182.339 87.2086 182.816 87.8504 182.816 88.6278V91.9271C182.81 92.7135 182.339 93.3462 181.754 93.3462Z" fill="#3ED9C7"/>
<path d="M200.117 98.5076H159.408C159.213 98.5076 159.051 98.7245 159.051 98.9866V99.2759C159.051 99.538 159.213 99.755 159.408 99.755H200.117C200.312 99.755 200.467 99.538 200.467 99.2759V98.9866C200.467 98.7155 200.312 98.5076 200.117 98.5076Z" fill="#638BE2"/>
<path d="M200.117 103.633H159.408C159.213 103.633 159.051 103.85 159.051 104.112V104.401C159.051 104.663 159.213 104.88 159.408 104.88H200.117C200.312 104.88 200.467 104.663 200.467 104.401V104.112C200.467 103.85 200.312 103.633 200.117 103.633Z" fill="#638BE2"/>
<path d="M200.117 108.767H159.408C159.213 108.767 159.051 108.984 159.051 109.246V109.535C159.051 109.797 159.213 110.005 159.408 110.005H200.117C200.312 110.005 200.467 109.788 200.467 109.535V109.246C200.467 108.975 200.312 108.767 200.117 108.767Z" fill="#638BE2"/>
<path d="M204.846 165.099H131.795C130.625 165.099 129.676 163.825 129.676 162.252V129.666C129.676 128.093 130.625 126.818 131.795 126.818H204.846C206.017 126.818 206.965 128.093 206.965 129.666V162.252C206.965 163.825 206.017 165.099 204.846 165.099Z" fill="#FFFFF8"/>
<path d="M155.088 149.254C156.446 141.576 152.915 133.871 147.201 132.045C141.487 130.22 135.753 134.965 134.394 142.643C133.036 150.322 136.567 158.027 142.281 159.852C147.995 161.678 153.729 156.933 155.088 149.254Z" fill="#FFFFF8"/>
<path d="M181.754 141.959H160.121C159.536 141.959 159.058 141.317 159.058 140.54V137.241C159.058 136.454 159.536 135.812 160.121 135.812H181.754C182.339 135.812 182.816 136.454 182.816 137.241V140.54C182.81 141.317 182.339 141.959 181.754 141.959Z" fill="#3ED9C7"/>
<path d="M200.117 147.111H159.408C159.213 147.111 159.051 147.328 159.051 147.59V147.88C159.051 148.142 159.213 148.35 159.408 148.35H200.117C200.312 148.35 200.467 148.133 200.467 147.88V147.59C200.467 147.319 200.312 147.111 200.117 147.111Z" fill="#638BE2"/>
<path d="M200.117 152.237H159.408C159.213 152.237 159.051 152.454 159.051 152.716V153.005C159.051 153.267 159.213 153.475 159.408 153.475H200.117C200.312 153.475 200.467 153.258 200.467 153.005V152.716C200.467 152.454 200.312 152.237 200.117 152.237Z" fill="#638BE2"/>
<path d="M200.117 157.371H159.408C159.213 157.371 159.051 157.588 159.051 157.85V158.139C159.051 158.401 159.213 158.618 159.408 158.618H200.117C200.312 158.618 200.467 158.401 200.467 158.139V157.85C200.467 157.579 200.312 157.371 200.117 157.371Z" fill="#638BE2"/>
<path d="M155.088 149.254C156.446 141.576 152.915 133.871 147.201 132.046C141.487 130.22 135.753 134.965 134.395 142.644C133.036 150.322 136.567 158.027 142.281 159.852C147.995 161.678 153.729 156.933 155.088 149.254Z" fill="#E5F7FF"/>
<path d="M145.356 136.463C147.657 136.463 149.52 138.967 149.52 142.058V156.539H141.199V142.058C141.193 138.967 143.056 136.463 145.356 136.463Z" fill="#001C45"/>
<path d="M143.574 157.036H139.935V143.387C139.935 140.973 141.394 139.012 143.191 139.012H143.567V157.036H143.574Z" fill="#001C45"/>
<path d="M141.024 145.303C141.024 145.303 140.298 144.842 139.868 145.484C139.437 146.135 139.646 147.608 140.385 148.033C141.092 148.44 141.415 147.952 141.415 147.952L141.024 145.303Z" fill="#FF9A8D"/>
<path d="M140.264 145.746C140.453 145.673 140.728 145.701 140.87 145.881C140.924 145.945 140.823 146.071 140.769 146.035C140.466 145.854 140.083 145.809 139.908 146.279C139.901 146.306 139.888 146.279 139.888 146.261C139.948 145.999 140.069 145.827 140.264 145.746Z" fill="#BA5964"/>
<path d="M140.412 145.8C140.446 145.782 140.52 145.9 140.513 145.936C140.459 145.963 140.379 146.035 140.338 146.126C140.264 146.279 140.244 146.415 140.244 146.596C140.251 147.011 140.412 147.328 140.715 147.445C140.722 147.445 140.728 147.472 140.722 147.472C140.453 147.545 140.17 147.156 140.123 146.831C140.062 146.469 140.103 145.972 140.412 145.8Z" fill="#BA5964"/>
<path d="M148.451 145.258C148.451 145.258 149.177 144.833 149.608 145.484C150.038 146.135 149.83 147.608 149.09 148.033C148.384 148.44 148.061 147.952 148.061 147.952L148.451 145.258Z" fill="#FF9A8D"/>
<path d="M149.211 145.746C149.022 145.673 148.747 145.701 148.605 145.881C148.551 145.945 148.652 146.071 148.706 146.035C149.009 145.854 149.392 145.809 149.567 146.279C149.574 146.306 149.587 146.279 149.587 146.261C149.527 145.999 149.412 145.827 149.211 145.746Z" fill="#BA5964"/>
<path d="M149.07 145.8C149.036 145.782 148.962 145.9 148.969 145.936C149.023 145.963 149.103 146.035 149.144 146.126C149.218 146.279 149.238 146.415 149.238 146.596C149.231 147.011 149.07 147.328 148.767 147.445C148.76 147.445 148.754 147.472 148.76 147.472C149.029 147.545 149.312 147.156 149.359 146.831C149.413 146.469 149.379 145.972 149.07 145.8Z" fill="#BA5964"/>
<path d="M137.359 160.246C137.359 158.049 137.621 156.738 138.475 156.368C138.865 156.196 141.206 155.22 141.939 154.921C142.679 154.623 142.874 154.036 142.874 153.529C142.874 153.023 142.874 151.279 142.874 151.279H146.614C146.614 151.279 146.614 153.014 146.614 153.529C146.614 154.036 146.816 154.623 147.549 154.921C148.283 155.22 150.623 156.196 151.014 156.368C151.868 156.738 152.13 158.058 152.13 160.246H137.359Z" fill="#FF9A8D"/>
<path d="M142.874 151.93C142.874 151.939 143.244 153.376 144.744 153.376C146.244 153.376 146.614 151.939 146.614 151.93C146.614 151.559 146.614 151.279 146.614 151.279H142.874C142.874 151.279 142.874 151.559 142.874 151.93Z" fill="#BA5964"/>
<path d="M146.493 139.672C145.955 139.256 145.356 139.012 144.744 139.012C144.132 139.012 143.527 139.256 142.995 139.672C141.737 140.639 141.011 142.465 141.011 144.381C141.011 144.39 141.011 144.39 141.011 144.399C141.011 144.942 141.038 145.484 141.078 146.017L141.145 146.777C141.199 147.373 141.28 147.961 141.421 148.53C141.959 150.781 143.453 152.291 144.744 152.291C146.036 152.291 147.529 150.781 148.074 148.53C148.208 147.961 148.296 147.373 148.349 146.777L148.417 146.017C148.464 145.475 148.491 144.924 148.491 144.381V144.372C148.471 142.456 147.744 140.639 146.493 139.672Z" fill="#FF9A8D"/>
<path d="M146.029 145.529C146.029 145.24 146.204 145.005 146.419 145.005C146.634 145.005 146.809 145.24 146.809 145.529C146.809 145.819 146.634 146.054 146.419 146.054C146.204 146.054 146.029 145.828 146.029 145.529Z" fill="#001C45"/>
<path d="M145.652 144.182L147.468 144.806C147.468 144.806 147.394 143.993 146.769 143.785C146.009 143.532 145.652 144.182 145.652 144.182Z" fill="#001C45"/>
<path d="M143.062 146.053C143.278 146.053 143.452 145.819 143.452 145.529C143.452 145.239 143.278 145.005 143.062 145.005C142.847 145.005 142.672 145.239 142.672 145.529C142.672 145.819 142.847 146.053 143.062 146.053Z" fill="#001C45"/>
<path d="M143.836 144.182L142.02 144.806C142.02 144.806 142.094 143.992 142.719 143.785C143.479 143.531 143.836 144.182 143.836 144.182Z" fill="#001C45"/>
<path d="M144.738 139.473C144.738 139.473 145.512 142.998 148.478 143.812C148.478 143.812 148.74 141.525 147.469 140.133C146.198 138.741 144.738 138.831 144.738 138.831V139.473Z" fill="#001C45"/>
<path d="M144.738 139.5C144.738 139.5 143.964 143.025 140.998 143.839C140.998 143.839 140.735 141.552 142.007 140.16C143.278 138.768 144.738 138.858 144.738 138.858V139.5Z" fill="#001C45"/>
<path d="M151.013 156.367C150.623 156.195 148.282 155.219 147.549 154.921C147.354 154.839 147.199 154.749 147.078 154.632C147.098 154.74 147.112 154.858 147.112 154.975C147.112 155.861 146.049 156.575 144.744 156.575C143.432 156.575 142.376 155.861 142.376 154.975C142.376 154.858 142.383 154.749 142.403 154.641C142.282 154.749 142.127 154.84 141.946 154.912C141.206 155.21 138.872 156.186 138.481 156.358C137.627 156.729 137.365 158.048 137.365 160.236H152.143C152.13 158.048 151.874 156.738 151.013 156.367Z" fill="#FABA50"/>
<path d="M139.255 156.033C138.885 156.187 138.589 156.313 138.475 156.367C137.621 156.738 137.358 158.058 137.358 160.245H139.276V156.033H139.255Z" fill="#3ED9C7"/>
<path d="M150.234 156.033C150.604 156.187 150.899 156.313 151.014 156.367C151.868 156.738 152.13 158.058 152.13 160.245H150.213V156.033H150.234Z" fill="#3ED9C7"/>
<path d="M144.737 156.936C146.21 156.936 147.367 156.078 147.367 154.984C147.367 154.984 147.367 154.921 147.367 154.83C147.125 154.704 146.95 154.532 146.836 154.342C146.843 154.541 146.85 154.857 146.85 154.975C146.85 155.571 145.982 156.231 144.737 156.231C143.493 156.231 142.625 155.571 142.625 154.975C142.625 154.857 142.632 154.559 142.639 154.36C142.518 154.541 142.349 154.704 142.107 154.83C142.107 154.912 142.107 154.975 142.107 154.975C142.107 156.078 143.264 156.936 144.737 156.936Z" fill="#228C7E"/>
<path d="M144.744 145.186C144.589 145.204 144.199 147.572 144.36 147.97C144.428 148.133 144.623 148.304 144.744 148.286C144.865 148.304 145.06 148.142 145.127 147.97C145.289 147.563 144.899 145.195 144.744 145.186Z" fill="#BA5964"/>
<path d="M139.982 138.705C139.982 138.705 141.408 138.696 141.791 139.781" stroke="#001C45" stroke-width="0.5788" stroke-miterlimit="10" stroke-linecap="round"/>
<path d="M140.204 136.879C140.204 136.879 141.852 137.702 141.798 139.962" stroke="#001C45" stroke-width="0.5788" stroke-miterlimit="10" stroke-linecap="round"/>
<path d="M144.744 111.642C150.618 111.642 155.379 105.244 155.379 97.3509C155.379 89.4582 150.618 83.0599 144.744 83.0599C138.871 83.0599 134.109 89.4582 134.109 97.3509C134.109 105.244 138.871 111.642 144.744 111.642Z" fill="#E5F7FF"/>
<path d="M141.031 96.5822C141.031 96.5822 140.312 96.2387 139.881 96.8805C139.451 97.5313 139.659 99.0047 140.399 99.4295C141.105 99.8363 141.428 99.3482 141.428 99.3482L141.031 96.5822Z" fill="#FF9A8D"/>
<path d="M140.278 97.1428C140.467 97.0704 140.742 97.0976 140.89 97.2783C140.944 97.3416 140.843 97.4682 140.789 97.432C140.487 97.2512 140.103 97.206 139.928 97.6761C139.922 97.7032 139.908 97.6761 139.908 97.658C139.955 97.3959 140.076 97.2241 140.278 97.1428Z" fill="#BA5964"/>
<path d="M140.419 97.1965C140.453 97.1784 140.527 97.2959 140.52 97.332C140.466 97.3592 140.385 97.4315 140.345 97.5219C140.271 97.6755 140.251 97.8111 140.251 97.9919C140.258 98.4077 140.419 98.7241 140.722 98.8416C140.729 98.8416 140.735 98.8687 140.729 98.8687C140.459 98.941 140.177 98.5523 140.13 98.2269C140.069 97.8563 140.11 97.3592 140.419 97.1965Z" fill="#BA5964"/>
<path d="M148.471 96.5822C148.471 96.5822 149.191 96.2387 149.621 96.8805C150.052 97.5313 149.843 99.0047 149.103 99.4295C148.397 99.8363 148.074 99.3482 148.074 99.3482L148.471 96.5822Z" fill="#FF9A8D"/>
<path d="M149.224 97.1428C149.036 97.0704 148.76 97.0976 148.619 97.2783C148.565 97.3416 148.666 97.4682 148.72 97.432C149.023 97.2512 149.406 97.206 149.581 97.6761C149.588 97.7032 149.601 97.6761 149.601 97.658C149.541 97.3959 149.419 97.2241 149.224 97.1428Z" fill="#BA5964"/>
<path d="M149.076 97.1965C149.042 97.1784 148.969 97.2959 148.975 97.332C149.029 97.3592 149.11 97.4315 149.15 97.5219C149.224 97.6755 149.244 97.8111 149.244 97.9919C149.238 98.4077 149.076 98.7241 148.773 98.8416C148.767 98.8416 148.76 98.8687 148.767 98.8687C149.036 98.941 149.318 98.5523 149.365 98.2269C149.426 97.8563 149.386 97.3592 149.076 97.1965Z" fill="#BA5964"/>
<path d="M135.979 111.641C135.979 109.445 136.753 108.134 137.607 107.764C137.997 107.592 140.849 106.616 141.589 106.317C142.329 106.019 142.524 105.431 142.524 104.925C142.524 104.419 142.524 102.214 142.524 102.214H146.95C146.95 102.214 146.95 104.41 146.95 104.925C146.95 105.431 147.152 106.019 147.885 106.317C148.625 106.616 151.477 107.592 151.868 107.764C152.722 108.134 153.495 109.454 153.495 111.641H135.979Z" fill="#FF9A8D"/>
<path d="M142.531 102.214C142.531 102.214 142.531 102.458 142.531 103.163C142.531 103.163 143.332 104.853 144.751 104.853C146.17 104.853 146.957 103.181 146.957 103.181C146.957 102.476 146.957 102.223 146.957 102.223H142.531V102.214Z" fill="#BA5964"/>
<path d="M151.874 107.754C151.484 107.583 148.632 106.606 147.892 106.308C147.805 106.272 147.724 106.236 147.65 106.191C147.724 106.426 147.758 106.67 147.758 106.923C147.758 108.351 146.406 109.508 144.744 109.508C143.076 109.508 141.731 108.351 141.731 106.923C141.731 106.67 141.771 106.426 141.838 106.191C141.764 106.236 141.684 106.272 141.596 106.308C140.856 106.606 138.004 107.583 137.614 107.754C136.76 108.125 135.986 109.445 135.986 111.632H153.509C153.502 109.445 152.729 108.134 151.874 107.754Z" fill="#3ED9C7"/>
<path d="M146.5 91.0589C145.962 90.6431 145.363 90.399 144.751 90.399C144.139 90.399 143.507 90.5979 142.969 91.0137C141.711 91.9809 141.018 93.843 141.018 95.7503V95.7593C141.018 96.3016 141.038 96.853 141.085 97.3954L141.152 98.1547C141.206 98.7513 141.347 99.8992 141.684 101.002C142.35 103.19 143.836 103.904 144.751 103.904C145.666 103.904 147.153 103.19 147.818 101.002C148.155 99.8992 148.296 98.7513 148.35 98.1547L148.417 97.3954C148.464 96.853 148.491 96.3016 148.491 95.7593V95.7503C148.484 93.852 147.758 92.0261 146.5 91.0589Z" fill="#FF9A8D"/>
<path d="M146.043 96.9347C146.043 96.6454 146.217 96.4104 146.433 96.4104C146.648 96.4104 146.823 96.6454 146.823 96.9347C146.823 97.2239 146.648 97.4589 146.433 97.4589C146.217 97.4589 146.043 97.2239 146.043 96.9347Z" fill="#001C45"/>
<path d="M145.834 95.3528L147.65 95.9765C147.65 95.9765 147.549 95.2895 146.917 94.8737C146.641 94.6929 146.318 94.6839 146.116 94.8104C145.82 95.0003 145.834 95.3528 145.834 95.3528Z" fill="#001C45"/>
<path d="M143.661 95.3528L141.845 95.9765C141.845 95.9765 141.946 95.2895 142.578 94.8737C142.854 94.6929 143.177 94.6839 143.379 94.8104C143.674 95.0003 143.661 95.3528 143.661 95.3528Z" fill="#001C45"/>
<path d="M143.466 96.9347C143.466 96.6454 143.291 96.4104 143.076 96.4104C142.861 96.4104 142.686 96.6454 142.686 96.9347C142.686 97.2239 142.861 97.4589 143.076 97.4589C143.291 97.4589 143.466 97.2239 143.466 96.9347Z" fill="#001C45"/>
<path d="M141.011 96.6906C141.011 96.6906 141.119 96.6454 141.226 96.5188C141.314 96.4103 141.515 96.1301 141.515 95.1087C141.515 94.0873 141.717 92.2342 142.437 91.5924C142.437 91.5924 142.471 91.1043 142.289 90.9959C142.04 90.8603 141.408 91.0411 140.971 91.6015C140.029 92.8037 140.412 96.5007 140.412 96.5007C140.56 96.4826 140.85 96.5369 141.011 96.6906Z" fill="#001C45"/>
<path d="M148.605 96.6452C148.605 96.6452 148.424 96.6181 148.323 96.5187C148.222 96.4102 147.986 96.139 147.986 95.1176C147.986 94.0962 147.785 92.2431 147.065 91.6013C147.065 91.6013 147.65 90.8149 148.484 91.6013C149.325 92.3968 149.096 96.5096 149.096 96.5096C148.921 96.4915 148.753 96.5458 148.605 96.6452Z" fill="#001C45"/>
<path d="M148.606 93.7164V96.6451C148.754 96.5457 148.915 96.5005 149.09 96.5095C149.588 89.2963 147.058 87.7596 144.368 88.4104C142.383 88.8895 142.135 91.3572 142.135 91.3572L142.43 91.6013C142.78 91.6013 142.955 91.9086 143.224 92.1888C143.5 92.4781 143.783 92.7492 144.092 92.9752C144.603 93.3549 145.175 93.626 145.753 93.617C145.901 93.617 146.063 93.5808 146.157 93.4362C146.278 93.2464 146.244 92.9662 146.184 92.7312C146.103 92.4329 145.996 92.1527 145.854 91.9086C146.224 92.3154 146.588 92.7221 147.301 92.8215C147.65 92.8667 147.872 92.5865 147.745 92.0894C147.738 92.0532 148.606 93.1108 148.606 93.7164Z" fill="#001C45"/>
<path d="M144.745 96.6091C144.563 96.6272 144.092 98.9955 144.287 99.3932C144.368 99.5559 144.603 99.7277 144.745 99.7096C144.886 99.7277 145.128 99.5649 145.202 99.3932C145.397 98.9955 144.926 96.6272 144.745 96.6091Z" fill="#BA5964"/>
<path d="M141.946 91.3215C141.946 91.3215 142.034 88.9532 144.348 88.0131C146.325 87.2086 148.41 88.2934 149.016 89.1069C149.843 90.2006 149.171 91.2492 148.31 91.0322C147.892 90.9238 141.946 91.3215 141.946 91.3215Z" fill="#001C45"/>
<path d="M140.325 90.0923C140.325 90.0923 141.751 90.0833 142.134 91.168" stroke="#001C45" stroke-width="0.5788" stroke-miterlimit="10" stroke-linecap="round"/>
<path d="M140.547 88.2664C140.547 88.2664 142.195 89.0889 142.141 91.3487" stroke="#001C45" stroke-width="0.5788" stroke-miterlimit="10" stroke-linecap="round"/>
<path d="M152.265 58.8517C156.418 53.2707 156.418 44.2222 152.265 38.6412C148.112 33.0603 141.378 33.0603 137.225 38.6412C133.072 44.2222 133.072 53.2707 137.225 58.8517C141.378 64.4327 148.112 64.4327 152.265 58.8517Z" fill="#E5F7FF"/>
<path d="M148.942 47.9054C148.942 47.9054 150.166 40.1046 144.744 40.1046C139.322 40.1046 140.405 47.9054 140.405 47.9054H148.942Z" fill="#001C45"/>
<path d="M141.905 40.3124C141.791 38.9204 142.706 37.6458 143.957 37.465C145.201 37.2843 146.305 38.2605 146.419 39.6435C146.533 41.0355 145.619 42.31 144.367 42.4908C143.116 42.6807 142.013 41.7044 141.905 40.3124Z" fill="#001C45"/>
<path d="M141.011 47.8066C141.011 47.8066 140.298 47.3998 139.868 48.0506C139.437 48.7015 139.646 50.1748 140.386 50.5997C141.092 51.0064 141.415 50.5183 141.415 50.5183L141.011 47.8066Z" fill="#BA5964"/>
<path d="M140.264 48.3036C140.453 48.2313 140.729 48.2584 140.87 48.4392C140.924 48.5025 140.823 48.6291 140.769 48.5929C140.466 48.4121 140.083 48.3669 139.908 48.837C139.901 48.8641 139.888 48.837 139.888 48.8189C139.948 48.5567 140.069 48.385 140.264 48.3036Z" fill="#893A47"/>
<path d="M140.412 48.3575C140.446 48.3394 140.52 48.4569 140.513 48.4931C140.459 48.5202 140.379 48.5925 140.338 48.6829C140.264 48.8365 140.244 48.9721 140.244 49.1529C140.251 49.5687 140.412 49.8851 140.715 50.0026C140.722 50.0026 140.728 50.0297 140.722 50.0297C140.453 50.102 140.17 49.7133 140.123 49.3879C140.063 49.0173 140.103 48.5202 140.412 48.3575Z" fill="#893A47"/>
<path d="M148.464 47.8062C148.464 47.8062 149.177 47.3994 149.608 48.0412C150.038 48.692 149.83 50.1654 149.09 50.5903C148.384 50.997 148.061 50.5089 148.061 50.5089L148.464 47.8062Z" fill="#BA5964"/>
<path d="M149.211 48.3034C149.023 48.2311 148.747 48.2582 148.599 48.439C148.545 48.5023 148.646 48.6288 148.7 48.5927C149.002 48.4119 149.386 48.3667 149.561 48.8367C149.568 48.8638 149.581 48.8367 149.581 48.8186C149.527 48.5565 149.413 48.3847 149.211 48.3034Z" fill="#893A47"/>
<path d="M149.07 48.3578C149.036 48.3398 148.962 48.4573 148.969 48.4934C149.023 48.5205 149.104 48.5929 149.144 48.6832C149.218 48.8369 149.238 48.9725 149.238 49.1533C149.231 49.5691 149.07 49.8855 148.767 50.003C148.76 50.003 148.754 50.0301 148.76 50.0301C149.03 50.1024 149.312 49.7137 149.359 49.3883C149.413 49.0177 149.379 48.5205 149.07 48.3578Z" fill="#893A47"/>
<path d="M148.773 58.2105L146.91 56.1676H142.524L140.701 58.2105H148.773Z" fill="#3ED9C7"/>
<path d="M142.524 56.1675L142.396 57.4239H147.078L146.91 56.1675H142.524Z" fill="#228C7E"/>
<path d="M137.359 63.0376C137.359 60.841 137.621 59.5303 138.475 59.1597C138.866 58.988 141.206 58.0118 141.94 57.7135C142.68 57.4152 142.875 56.8276 142.875 56.3214C142.875 55.8152 142.875 54.0707 142.875 54.0707H146.615C146.615 54.0707 146.615 55.8062 146.615 56.3214C146.615 56.8276 146.816 57.4152 147.55 57.7135C148.29 58.0118 150.624 58.988 151.014 59.1597C151.868 59.5303 152.13 60.8501 152.13 63.0376H137.359Z" fill="#BA5964"/>
<path d="M142.875 54.7215C142.875 54.7305 143.245 56.1678 144.745 56.1678C146.245 56.1678 146.615 54.7305 146.615 54.7215C146.615 54.3509 146.615 54.0707 146.615 54.0707H142.875C142.875 54.0707 142.875 54.3509 142.875 54.7215Z" fill="#893A47"/>
<path d="M142.955 60.47C142.955 60.47 143.641 61.0394 144.745 61.0394C145.848 61.0394 146.527 60.47 146.527 60.47L146.023 63.0371H143.46L142.955 60.47Z" fill="#FABA50"/>
<path d="M142.37 57.7674C142.37 57.6499 142.377 57.5415 142.397 57.433C142.276 57.5415 142.121 57.6318 141.94 57.7042C141.2 58.0025 138.866 58.9787 138.475 59.1504C137.621 59.521 137.359 60.8408 137.359 63.0282H143.46L142.68 58.9606C142.188 58.6714 142.37 58.2465 142.37 57.7674Z" fill="#228C7E"/>
<path d="M151.014 59.1506C150.623 58.9788 148.283 58.0026 147.549 57.7043C147.354 57.6229 147.2 57.5325 147.079 57.415C147.099 57.5235 147.112 57.641 147.112 57.7585C147.112 58.2376 147.287 58.6625 146.803 58.9517L146.029 63.0193H152.144C152.13 60.8409 151.875 59.5302 151.014 59.1506Z" fill="#228C7E"/>
<path d="M147.079 57.4237L148.774 58.2101L148.148 59.3039L147.045 59.7106L147.913 60.6055L146.023 63.037L147.079 57.4237Z" fill="#3ED9C7"/>
<path d="M142.397 57.4237L140.702 58.2101L141.334 59.3039L142.43 59.7106L141.563 60.4157L143.453 63.037L142.397 57.4237Z" fill="#3ED9C7"/>
<path d="M146.493 42.4551C145.955 42.0393 145.356 41.7953 144.744 41.7953C144.132 41.7953 143.527 42.0393 142.995 42.4551C141.737 43.4223 141.011 45.2483 141.011 47.1646C141.011 47.1736 141.011 47.1736 141.011 47.1826C141.011 47.725 141.038 48.2673 141.078 48.8007L141.146 49.56C141.199 50.1565 141.28 50.7441 141.421 51.3136C141.959 53.5643 143.453 55.2546 144.744 55.2546C146.036 55.2546 147.529 53.5643 148.074 51.3136C148.208 50.7441 148.296 50.1565 148.35 49.56L148.417 48.8007C148.464 48.2583 148.491 47.7069 148.491 47.1646V47.1555C148.471 45.2392 147.744 43.4223 146.493 42.4551Z" fill="#BA5964"/>
<path d="M146.029 48.4479C146.029 48.1586 146.204 47.9236 146.419 47.9236C146.634 47.9236 146.809 48.1586 146.809 48.4479C146.809 48.7371 146.634 48.9721 146.419 48.9721C146.204 48.9721 146.029 48.7371 146.029 48.4479Z" fill="#001C45"/>
<path d="M145.653 47.1012L147.469 47.7249C147.469 47.7249 147.395 46.9114 146.769 46.7035C146.009 46.4504 145.653 47.1012 145.653 47.1012Z" fill="#001C45"/>
<path d="M143.453 48.4479C143.453 48.1586 143.278 47.9236 143.062 47.9236C142.847 47.9236 142.672 48.1586 142.672 48.4479C142.672 48.7371 142.847 48.9721 143.062 48.9721C143.278 48.9721 143.453 48.7371 143.453 48.4479Z" fill="#001C45"/>
<path d="M143.836 47.1012L142.02 47.7249C142.02 47.7249 142.094 46.9114 142.72 46.7035C143.48 46.4504 143.836 47.1012 143.836 47.1012Z" fill="#001C45"/>
<path d="M140.964 45.881H143.46C143.46 45.881 143.54 44.3805 144.065 43.0969V45.881H145.922V43.0969C145.922 43.0969 146.433 44.733 146.433 45.881H148.525C148.525 45.881 148.323 41.2981 144.751 41.2981C141.159 41.2891 140.964 45.881 140.964 45.881Z" fill="#001C45"/>
<path d="M144.744 47.9238C144.589 47.9419 144.199 50.3102 144.361 50.7079C144.428 50.8706 144.623 51.0423 144.744 51.0243C144.865 51.0423 145.06 50.8796 145.127 50.7079C145.289 50.3102 144.899 47.9419 144.744 47.9238Z" fill="#893A47"/>
<path d="M146.514 37.8181C146.514 37.8181 147.025 39.6079 146.413 40.4756" stroke="#001C45" stroke-width="0.5788" stroke-miterlimit="10" stroke-linecap="round"/>
<path d="M147.866 37.8181C147.866 37.8181 147.879 40.1773 146.292 40.9095" stroke="#001C45" stroke-width="0.5788" stroke-miterlimit="10" stroke-linecap="round"/>
<path d="M64.5359 101.31L69.5674 99.4031C69.5674 99.4031 69.6347 97.0258 70.3073 95.4801C71.0607 93.7536 71.2222 92.3796 71.5989 92.9672C71.9823 93.5638 71.9419 94.0519 71.6527 95.1547C71.3634 96.2575 71.7065 97.4145 71.7065 97.4145L74.377 93.2112C74.377 93.2112 74.0339 95.7241 73.3612 98.2009C72.85 100.081 72.2984 101.148 70.5562 102.54C68.4912 104.194 65.4305 105.595 65.4305 105.595L64.5359 101.31Z" fill="#BA5964"/>
<path d="M56.3632 84.3526C57.7489 85.9254 57.6211 86.9017 58.9933 92.8495C60.1503 97.8933 61.018 102.377 61.018 102.377L64.8993 100.903L65.4105 105.766C65.4105 105.766 59.6862 109.238 58.3476 108.749C56.6726 108.144 52.1927 88.2756 52.1927 88.2756C51.8362 84.7684 54.5336 82.0024 56.3632 84.3526Z" fill="#228C7E"/>
<path d="M64.9327 101.057C64.9327 101.057 65.4103 102.901 65.4103 105.776" stroke="#AAEEED" stroke-width="1.05" stroke-miterlimit="10" stroke-linecap="round"/>
<path d="M64.6845 192.669C64.8526 193.103 64.7248 193.98 63.4333 194.703C62.1351 195.426 59.7942 195.119 58.8659 194.875C57.9377 194.631 57.3659 194.269 55.9937 194.649C54.6147 195.038 52.3546 194.866 51.6752 194.088C51.4397 193.718 51.5945 192.959 51.5945 192.959L64.6845 192.669Z" fill="#8FC9C6"/>
<path d="M52.3276 187.255C52.1392 188.53 51.3657 191.513 51.5876 192.968C52.5563 194.071 54.6281 194.143 56.1819 193.619C57.7358 193.095 58.8322 194.161 60.7829 194.315C62.7 194.469 64.2942 193.754 64.6844 192.67C65.1082 191.495 61.765 190.582 59.4914 189.642C56.942 188.593 55.6236 186.903 55.6236 186.903L52.3276 187.255Z" fill="#228C7E"/>
<path d="M56.3973 189.714C56.3973 189.714 56.8547 187.987 57.4668 187.427" stroke="#8FC9C6" stroke-width="0.525" stroke-miterlimit="10" stroke-linecap="round"/>
<path d="M58.1328 190.636C58.1328 190.636 58.5902 188.909 59.2023 188.349" stroke="#8FC9C6" stroke-width="0.525" stroke-miterlimit="10" stroke-linecap="round"/>
<path d="M59.8617 191.558C59.8617 191.558 60.3191 189.832 60.9312 189.271" stroke="#8FC9C6" stroke-width="0.525" stroke-miterlimit="10" stroke-linecap="round"/>
<path d="M52.1462 182.546L52.3345 187.246C52.3345 187.246 52.7718 187.445 52.9534 187.725C53.135 188.015 53.3839 188.973 53.6933 188.982C54.9108 189.045 55.6306 186.894 55.6306 186.894V182.04L52.1462 182.546Z" fill="#FF9A8D"/>
<path d="M33.0629 193.79C32.8476 194.188 32.2019 194.405 31.1592 193.14C30.1166 191.874 29.3229 188.9 29.0874 187.671C28.852 186.433 28.852 185.592 28.0044 184.082C27.1502 182.573 26.3026 179.762 26.5313 178.596C26.6793 178.153 27.2578 178.017 27.2578 178.017L33.0629 193.79Z" fill="#AAEEED"/>
<path d="M31.4078 176.471C30.4728 176.788 28.132 177.131 27.2508 178.026C26.9279 179.671 27.762 182.22 28.7844 183.883C29.8069 185.547 29.5513 187.327 30.2845 189.768C31.0042 192.154 32.1679 193.79 33.0626 193.799C34.0379 193.808 33.2106 189.361 32.8675 186.197C32.4841 182.654 33.0559 180.331 33.0559 180.331L31.4078 176.471Z" fill="#03AA99"/>
<path d="M31.4955 182.455C31.4955 182.455 32.8543 182.274 33.4933 182.772" stroke="#AAEEED" stroke-width="0.525" stroke-miterlimit="10" stroke-linecap="round"/>
<path d="M31.6229 184.959C31.6229 184.959 32.9817 184.778 33.6207 185.275" stroke="#AAEEED" stroke-width="0.525" stroke-miterlimit="10" stroke-linecap="round"/>
<path d="M31.7444 187.463C31.7444 187.463 33.1032 187.282 33.7423 187.779" stroke="#AAEEED" stroke-width="0.525" stroke-miterlimit="10" stroke-linecap="round"/>
<path d="M33.5003 173.579L31.4083 176.462C31.4083 176.462 31.4621 177.077 31.3477 177.42C31.2334 177.764 30.6953 178.478 30.8163 178.857C31.2939 180.367 33.0496 180.313 33.0496 180.313L36.0698 177.131L33.5003 173.579Z" fill="#FF9A8D"/>
<path d="M59.3907 110.006C55.1664 110.006 51.5542 110.431 51.5542 110.431C50.2022 111.226 47.8882 115.348 47.2021 117.97C46.516 120.591 46.7985 124.966 47.155 127.217C49.1393 139.763 50.8748 147.365 51.6484 152.337C52.1192 155.383 49.7918 156.793 50.1483 162.334C50.5923 169.213 52.1394 182.545 52.1394 182.545C52.1394 182.545 53.7471 183.748 55.6171 182.6C55.6171 182.6 57.514 157.977 57.7629 155.184C58.0925 151.424 58.4961 148.992 58.7988 141.209C59.2091 130.769 59.3907 110.006 59.3907 110.006Z" fill="#1E4174"/>
<path d="M36.069 177.131C36.069 177.131 52.3475 161.095 53.3363 159.64C54.3184 158.176 54.8901 124.577 55.1457 122.417C55.1457 122.417 59.2692 114.535 59.3902 109.997L50.7734 108.505C50.2218 111.289 47.3092 111.326 45.0961 117.969C43.1656 123.764 46.1253 139.781 47.1276 155.708C47.1276 155.708 45.4258 155.735 43.3741 157.706C41.4907 159.514 33.5062 173.569 33.5062 173.569C33.5062 173.569 34.1048 176.254 36.069 177.131Z" fill="#85B8ED"/>
<path d="M50.7734 108.514C50.2218 111.298 47.3092 111.334 45.0961 117.978C43.1656 123.772 46.1253 139.79 47.1276 155.717C47.1276 155.717 45.4258 155.744 43.3741 157.714C41.4907 159.522 33.5062 173.578 33.5062 173.578C33.5062 173.578 33.6878 174.365 34.1654 175.232C35.8134 172.457 40.2261 165.768 42.8091 162.153C46.2262 157.371 48.4191 157.217 48.5873 156.205C48.7487 155.192 48.5805 140.169 47.9886 130.796C47.3967 121.422 47.9886 117.626 50.0268 114.218C51.4394 111.859 52.1524 109.382 52.1524 109.382C55.3812 112.907 58.4418 112.012 59.2019 111.714C59.3095 111.108 59.3835 110.53 59.397 109.996L50.7734 108.514Z" fill="#4E7EAC"/>
<path d="M55.5099 106.996C53.6197 111.805 50.8348 115.104 49.9133 118.304C48.9985 121.504 49.3415 127.994 49.5164 139.826C49.6846 151.451 49.8931 156.757 49.5164 157.552C49.1465 158.348 46.624 159.116 42.6754 164.223C38.7269 169.33 33.8165 177.131 33.8165 177.131" stroke="#274D79" stroke-width="0.525" stroke-miterlimit="10"/>
<path d="M58.0392 107.963C58.0392 107.963 57.5212 116.378 51.5816 114.607" stroke="#274D79" stroke-width="0.525" stroke-miterlimit="10"/>
<path d="M34.1257 171.12C34.4015 173.045 35.7805 175.603 37.8187 176.661" stroke="#274D79" stroke-width="0.525" stroke-miterlimit="10"/>
<path d="M51.8566 82.1924C51.8566 82.1924 50.4911 83.0782 49.3543 84.8861C48.3857 86.6849 47.9417 92.0361 48.5068 96.176C48.8498 98.6979 51.2781 106.21 50.2624 109.446C50.2624 109.446 55.9868 112.031 59.7537 110.006C59.9757 108.487 59.9286 105.721 60.0833 101.075C60.8165 100.009 61.5362 98.0471 61.6035 96.7816C61.8457 92.0632 58.6707 90.1559 56.0877 87.3809C55.045 86.26 54.258 83.9731 53.2154 82.8974C52.536 82.1924 51.8566 82.1924 51.8566 82.1924Z" fill="#FFB852"/>
<path d="M54.1911 77.0035L52.5767 78.9379L51.8569 82.192C51.8569 82.192 52.8727 83.105 53.2628 83.9004C53.7404 84.8676 54.8032 87.1817 56.088 87.3805C56.088 87.3805 55.9602 85.2925 56.1552 84.1626C56.3503 83.0327 56.9355 80.8 56.9355 80.8L54.1911 77.0035Z" fill="#FF9A8D"/>
<path d="M54.1908 77.0035C54.1908 77.0035 53.841 78.8204 53.9015 79.7515C53.9621 80.6735 54.5674 82.5988 56.1549 84.1626C56.35 83.0327 56.9352 80.8 56.9352 80.8L54.1908 77.0035Z" fill="#BA5964"/>
<path d="M60.9916 72.9092C61.2943 74.3735 62.5387 76.4164 62.2697 76.787C62.0477 77.0943 60.9849 77.022 60.9849 77.022C60.9849 77.022 60.2046 76.0096 60.4669 74.5905C60.7293 73.1804 60.9916 72.9092 60.9916 72.9092Z" fill="#BA5964"/>
<path d="M58.2809 63.7796C59.7876 63.9604 61.2944 66.7625 61.2675 69.3206C61.2406 71.8697 60.8034 73.2617 60.9244 75.0605C61.0455 76.8593 61.0388 78.5948 60.4737 80.484C60.0971 81.7405 59.1217 82.0207 57.8235 81.6049C56.6328 81.2162 55.005 79.6795 54.635 79.1914C54.2583 78.7033 54.1911 77.013 54.1911 77.013C54.1911 77.013 52.4152 76.6605 51.6013 74.482C50.7874 72.2855 50.9354 62.8757 58.2809 63.7796Z" fill="#FF9A8D"/>
<path d="M54.1911 77.0036C54.1911 77.0036 52.57 76.1539 52.718 73.7314C52.8659 71.2456 55.3548 71.1553 55.2539 73.3427C55.2539 73.3427 56.7001 73.171 57.1172 72.3123C57.5342 71.4536 57.9378 67.2232 57.9378 67.2232C57.9378 67.2232 58.4356 68.2718 58.6912 69.7632C58.9468 71.2637 59.7809 71.4445 61.2339 70.5135C62.6868 69.5824 63.7025 67.7294 63.9851 65.9306C63.9851 65.9306 62.7877 65.8854 62.0881 65.3611C62.0881 65.3611 63.7294 65.2798 64.4156 63.8787C64.4156 63.8787 62.781 64.8369 61.7115 64.0866C60.6487 63.3364 59.0881 61.4562 57.097 61.7816C55.1126 62.107 53.996 63.7522 53.996 63.7522C53.996 63.7522 52.1395 62.7126 50.747 64.186C49.3546 65.6594 48.3793 69.474 49.5699 73.4151C50.7605 77.3561 52.5767 78.929 52.5767 78.929L54.1911 77.0036Z" fill="#001C45"/>
<path d="M50.3498 64.9545C50.3498 64.9545 48.7018 62.2156 46.3609 63.0201C44.2017 63.7613 42.8362 66.0302 42.8765 70.369C42.9169 74.8343 47.195 81.2251 43.5425 85.1119C43.5425 85.1119 48.9978 85.2204 47.6592 76.3168C46.6367 69.5193 48.4193 66.8166 49.9597 67.6663L50.3498 64.9545Z" fill="#001C45"/>
<path d="M59.6798 73.5498C59.6664 73.2244 59.4579 72.9803 59.2224 72.9984C58.9803 73.0165 58.7986 73.2967 58.8121 73.613C58.8256 73.9385 59.0341 74.1825 59.2695 74.1644C59.5117 74.1464 59.6933 73.8661 59.6798 73.5498Z" fill="#001C45"/>
<path d="M60.043 72.0136L58.0519 72.8633C58.0519 72.8633 58.0923 71.9504 58.7784 71.6702C59.6125 71.3267 60.043 72.0136 60.043 72.0136Z" fill="#001C45"/>
<path d="M53.7403 73.2158C54.0094 73.0893 54.413 73.1073 54.6417 73.3514C54.7292 73.4418 54.5812 73.6316 54.5005 73.5864C54.043 73.3604 53.478 73.3243 53.256 74.0474C53.2426 74.0836 53.2224 74.0474 53.2291 74.0203C53.2829 73.6226 53.4511 73.3514 53.7403 73.2158Z" fill="#BA5964"/>
<path d="M53.949 73.2702C54.0029 73.2341 54.1172 73.4058 54.1038 73.46C54.0298 73.5052 53.9087 73.6227 53.8549 73.7583C53.7607 73.9934 53.7271 74.1922 53.7472 74.4543C53.7876 75.069 54.0432 75.5119 54.4872 75.6475C54.4939 75.6475 54.5074 75.6837 54.4939 75.6837C54.1038 75.8102 53.6665 75.2769 53.5791 74.8069C53.4782 74.2916 53.5051 73.5504 53.949 73.2702Z" fill="#BA5964"/>
<path d="M51.0433 82.3636L51.985 81.6405C51.985 81.6405 55.7923 87.6154 56.243 92.1983C56.5658 95.4705 54.9447 107.719 54.9447 107.719C54.9447 107.719 50.4917 108.198 48.1845 105.983C48.1845 105.983 49.5298 103.054 48.7831 98.7426C48.3661 96.3382 48.023 94.2321 47.9894 91.3124C47.9356 87.8775 48.7898 84.8946 51.0433 82.3636Z" fill="#3ED9C7"/>
<path d="M55.5095 103.001L49.913 95.2992C49.9399 95.3805 52.8121 104.781 53.727 107.773C54.4534 107.782 54.9378 107.737 54.9378 107.737C54.9378 107.737 55.2135 105.667 55.5095 103.001Z" fill="#03AA99"/>
<path d="M52.395 84.7686C50.4578 85.6906 48.0227 89.6316 49.2806 93.5637C50.33 96.8359 54.8368 107.909 55.6171 108.677C56.2427 109.301 62.5052 106.101 64.1734 105.559C64.1734 105.559 63.837 103.181 63.2922 101.093L57.8974 102.585C57.8974 102.585 57.0297 100.099 56.1014 97.0528C54.8099 92.8496 53.2628 87.4442 52.395 84.7686Z" fill="#3ED9C7"/>
<path d="M70.4493 97.1977C70.604 97.0621 75.3194 92.9493 77.0885 91.4036C77.4517 91.0872 77.5392 90.4273 77.2903 89.9573C77.0549 89.5144 76.5974 89.4059 76.2611 89.7042L70.4022 94.9379C70.4022 94.9379 68.7071 97.1977 70.4493 97.1977Z" fill="#001C45"/>
<path d="M63.2919 101.093L68.3235 99.1859C68.3235 99.1859 68.3907 96.8086 69.0634 95.2629C69.8168 93.5364 69.9782 92.1625 70.3549 92.75C70.7383 93.3466 70.698 93.8347 70.4087 94.9375C70.1195 96.0403 70.4625 97.1973 70.4625 97.1973L74.3774 93.7895C74.3774 93.7895 73.8595 96.1216 73.1263 97.6854C72.3325 99.3758 71.7809 100.677 69.6755 102.25C67.5701 103.823 64.1866 105.387 64.1866 105.387L63.2919 101.093Z" fill="#FF9A8D"/>
<path d="M56.095 97.053C56.1151 96.8361 56.1286 96.6282 56.142 96.4203L54.3326 91.6385L56.095 97.053Z" fill="#03AA99"/>
<path d="M63.2919 100.795C63.2919 100.795 64.1731 102.133 64.2673 105.776" stroke="#AAEEED" stroke-width="1.05" stroke-miterlimit="10" stroke-linecap="round"/>
<path d="M86.5797 55.3461H53.7605C51.6416 55.3461 49.9196 53.032 49.9196 50.1847C49.9196 47.3373 51.6416 45.0233 53.7605 45.0233H86.5797C88.6986 45.0233 90.4207 47.3373 90.4207 50.1847C90.4207 53.0411 88.6986 55.3461 86.5797 55.3461Z" fill="white"/>
<path d="M57.1911 46.8311L57.931 48.8468L59.5925 49.1722L58.3884 50.745L58.6709 52.9596L57.1911 51.9111L55.7112 52.9596L55.9937 50.745L54.7964 49.1722L56.4511 48.8468L57.1911 46.8311Z" fill="#FABA50"/>
<path d="M63.7561 46.8308L64.5028 48.8465L66.1575 49.172L64.9602 50.7448L65.2427 52.9594L63.7561 51.9108L62.2763 52.9594L62.5588 50.7448L61.3615 49.172L63.0162 48.8465L63.7561 46.8308Z" fill="#FABA50"/>
<path d="M70.3279 46.8308L71.0678 48.8465L72.7226 49.172L71.5253 50.7448L71.8078 52.9594L70.3279 51.9108L68.8413 52.9594L69.1239 50.7448L67.9265 49.172L69.588 48.8465L70.3279 46.8308Z" fill="#FABA50"/>
<path d="M76.8935 46.8308L77.6334 48.8465L79.2882 49.172L78.0909 50.7448L78.3734 52.9594L76.8935 51.9108L75.4137 52.9594L75.6962 50.7448L74.4988 49.172L76.1536 48.8465L76.8935 46.8308Z" fill="#FABA50"/>
<path d="M83.4585 46.8308L84.1985 48.8465L85.8599 49.172L84.6559 50.7448L84.9451 52.9594L83.4585 51.9108L81.9787 52.9594L82.2612 50.7448L81.0638 49.172L82.7186 48.8465L83.4585 46.8308Z" fill="#FABA50"/>
<path d="M76.8932 54.4963V61.7548L80.2767 54.4963H76.8932Z" fill="white"/>
<path d="M240.02 94.467L235.809 92.2615C235.809 92.2615 235.742 90.3361 235.116 89.0706C234.148 87.1091 233.812 85.0211 233.401 85.5544C232.984 86.1058 233.092 87.1001 233.307 88.23C233.522 89.3599 233.105 90.4717 233.105 90.4717L229.432 86.6029C229.432 86.6029 229.305 89.396 229.937 91.0321C230.616 92.8128 231.457 94.1326 233.448 95.9494C235.439 97.7663 238.688 100.207 238.688 100.207L240.02 94.467Z" fill="#BA5964"/>
<path d="M240.02 94.4672L246.215 97.2784V103.759L238.688 100.198L240.02 94.4672Z" fill="#228C7E"/>
<path d="M240.074 94.1147L238.729 100.026" stroke="#AAEEED" stroke-width="1.05" stroke-miterlimit="10" stroke-linecap="round"/>
<path d="M241.089 192.669C240.921 193.103 241.049 193.98 242.34 194.703C243.639 195.426 245.979 195.119 246.908 194.875C247.836 194.631 248.408 194.269 249.78 194.649C251.159 195.038 253.412 194.866 254.098 194.089C254.334 193.718 254.179 192.959 254.179 192.959L241.089 192.669Z" fill="#8FC9C6"/>
<path d="M253.446 187.255C253.634 188.53 254.408 191.513 254.186 192.968C253.217 194.071 251.145 194.143 249.592 193.619C248.038 193.095 246.941 194.161 244.991 194.315C243.074 194.469 241.479 193.754 241.089 192.67C240.665 191.495 244.009 190.582 246.282 189.642C248.832 188.593 250.15 186.903 250.15 186.903L253.446 187.255Z" fill="#228C7E"/>
<path d="M249.376 189.714C249.376 189.714 248.919 187.987 248.307 187.427" stroke="#8FC9C6" stroke-width="0.525" stroke-miterlimit="10" stroke-linecap="round"/>
<path d="M247.648 190.636C247.648 190.636 247.19 188.909 246.578 188.349" stroke="#8FC9C6" stroke-width="0.525" stroke-miterlimit="10" stroke-linecap="round"/>
<path d="M245.912 191.558C245.912 191.558 245.455 189.832 244.843 189.271" stroke="#8FC9C6" stroke-width="0.525" stroke-miterlimit="10" stroke-linecap="round"/>
<path d="M253.446 182.184V187.255C253.446 187.255 253.008 187.454 252.827 187.734C252.645 188.023 252.396 188.981 252.087 188.99C250.869 189.054 250.15 186.902 250.15 186.902L249.692 182.292L253.446 182.184Z" fill="#FF9A8D"/>
<path d="M272.025 193.79C272.24 194.188 272.886 194.405 273.929 193.14C274.971 191.874 275.765 188.9 276 187.671C276.236 186.433 276.236 185.592 277.083 184.082C277.938 182.573 278.792 179.762 278.556 178.596C278.408 178.153 277.83 178.017 277.83 178.017L272.025 193.79Z" fill="#AAEEED"/>
<path d="M273.68 176.471C274.615 176.788 276.955 177.131 277.837 178.026C278.159 179.671 277.325 182.22 276.303 183.883C275.28 185.547 275.536 187.327 274.803 189.768C274.083 192.154 272.919 193.79 272.025 193.799C271.049 193.808 271.877 189.361 272.22 186.197C272.603 182.654 272.032 180.331 272.032 180.331L273.68 176.471Z" fill="#03AA99"/>
<path d="M273.586 182.456C273.586 182.456 272.227 182.275 271.588 182.772" stroke="#AAEEED" stroke-width="0.525" stroke-miterlimit="10" stroke-linecap="round"/>
<path d="M273.464 184.959C273.464 184.959 272.106 184.779 271.467 185.276" stroke="#AAEEED" stroke-width="0.525" stroke-miterlimit="10" stroke-linecap="round"/>
<path d="M273.344 187.463C273.344 187.463 271.985 187.282 271.346 187.779" stroke="#AAEEED" stroke-width="0.525" stroke-miterlimit="10" stroke-linecap="round"/>
<path d="M271.588 173.578L273.68 176.462C273.68 176.462 273.626 177.077 273.74 177.42C273.855 177.764 274.393 178.478 274.272 178.857C273.794 180.367 272.038 180.313 272.038 180.313L269.018 177.131L271.588 173.578Z" fill="#FF9A8D"/>
<path d="M246.161 110.006C250.386 110.006 253.527 110.43 253.527 110.43C254.879 111.226 257.193 115.348 257.879 117.969C258.565 120.591 258.283 124.965 257.926 127.216C255.942 139.763 252.632 146.994 251.859 151.975C251.388 155.021 253.628 153.385 253.628 161.095C253.628 167.992 253.44 182.708 253.44 182.708C253.44 182.708 251.859 183.946 249.767 183.097C249.767 183.097 246.599 158.835 246.249 156.051C245.684 151.55 245.489 149.661 245.428 141.869C245.348 130.913 246.161 110.006 246.161 110.006Z" fill="#1E4174"/>
<path d="M269.011 177.131C269.011 177.131 252.733 161.095 251.744 159.64C250.762 158.175 250.331 128.084 250.069 125.924C250.069 125.924 246.08 120.464 245.959 115.935L258.908 107.222C259.46 110.006 259.116 111.651 260.469 118.71C261.975 126.593 258.948 139.799 257.953 155.726C257.953 155.726 259.655 155.753 261.706 157.724C263.59 159.531 271.574 173.587 271.574 173.587C271.574 173.587 270.982 176.254 269.011 177.131Z" fill="#85B8ED"/>
<path d="M271.588 173.578C271.588 173.578 271.406 174.365 270.929 175.232C269.28 172.448 264.861 165.768 262.285 162.153C258.868 157.371 256.668 157.217 256.507 156.205C256.345 155.193 256.52 140.178 257.105 130.796C257.697 121.422 257.105 117.626 255.067 114.227C254.354 113.034 253.816 111.804 253.466 110.891L258.921 107.222C259.473 110.015 259.13 111.651 260.482 118.719C261.996 126.611 258.962 139.808 257.966 155.726C257.966 155.726 258.208 155.735 258.612 155.843C258.888 155.916 259.231 156.042 259.635 156.232C260.031 156.431 260.482 156.702 260.966 157.073C261.215 157.263 261.464 157.479 261.713 157.724C262.13 158.121 262.83 159.097 263.677 160.39C265.258 162.795 267.33 166.266 268.958 169.05C269.207 169.474 269.442 169.881 269.671 170.27C270.801 172.213 271.588 173.578 271.588 173.578Z" fill="#4E7EAC"/>
<path d="M246.82 119.858C246.82 119.858 249.356 122.932 253.46 122.932C257.563 122.932 260.287 120.545 260.287 120.545L259.15 116.848L246.82 119.858Z" fill="#4E7EAC"/>
<path d="M249.572 106.995C251.462 111.804 254.247 115.104 255.168 118.304C256.083 121.503 255.74 127.994 255.565 139.826C255.397 151.45 255.188 156.756 255.565 157.552C255.935 158.347 258.457 159.115 262.406 164.223C266.354 169.33 271.265 177.131 271.265 177.131" stroke="#274D79" stroke-width="0.525" stroke-miterlimit="10"/>
<path d="M251.832 119.768C251.832 119.768 251.859 126.267 255.767 126.637" stroke="#274D79" stroke-width="0.525" stroke-miterlimit="10"/>
<path d="M270.962 171.119C270.686 173.045 269.307 175.603 267.269 176.66" stroke="#274D79" stroke-width="0.525" stroke-miterlimit="10"/>
<path d="M246.438 80.7271C246.162 81.1248 246.074 81.8841 246.559 84.1981L252.592 77.3826L246.438 80.7271Z" fill="#10A297"/>
<path d="M241.446 67.837C241.318 68.4969 240.551 71.3623 240.282 72.212C240.013 73.0617 241.702 72.6278 241.702 72.6278L241.446 67.837Z" fill="#BA5964"/>
<path d="M251.408 77.3828L247.016 82.725L245.435 77.1749L249.726 71.0735L251.408 77.3828Z" fill="#FF9A8D"/>
<path d="M246.128 79.6155C246.128 79.6155 250.372 75.2496 249.726 71.0735L245.435 77.1749L246.128 79.6155Z" fill="#BA5964"/>
<path d="M249.713 71.0733C249.713 71.0733 249.619 71.9953 249.471 72.7184C249.323 73.4416 245.899 77.003 244.917 77.5544C243.935 78.1058 242.522 78.3408 241.836 73.6676C241.15 68.9943 241.184 64.7097 243.027 61.781C244.87 58.8523 248.522 59.9099 250.514 62.3234C252.505 64.7278 252.242 71.0281 249.713 71.0733Z" fill="#FF9A8D"/>
<path d="M249.713 71.0732L250.365 73.4867C250.365 73.4867 251.099 73.089 251.738 71.0732C252.437 68.8677 253.762 65.0531 253.164 63.173C252.377 60.7053 250.002 60.6058 250.002 60.6058C250.002 60.6058 247.897 56.2941 243.02 55.4264C238.143 54.5586 237.101 59.5121 241.103 61.3742C241.103 61.3742 239.105 63.8147 240.82 64.4475C242.536 65.0802 246.706 63.3447 246.706 63.3447C246.706 63.3447 244.863 65.1797 245.643 65.7311C246.424 66.2824 249.013 64.9537 249.013 64.9537L249.054 66.879C249.054 66.879 250.049 66.0203 250.83 66.7434C251.771 67.6202 251.334 71.1003 249.713 71.0732Z" fill="#001C45"/>
<path d="M249.282 54.9475C249.282 54.9475 251.368 58.2287 249.464 61.6907C249.464 61.6907 251.872 60.6693 251.744 57.3791" stroke="#001C45" stroke-width="0.7875" stroke-miterlimit="10" stroke-linecap="round"/>
<path d="M234.094 91.7459C233.946 91.5922 229.527 86.9371 227.865 85.1835C227.529 84.8219 227.482 84.162 227.757 83.7191C228.02 83.3033 228.484 83.2491 228.8 83.5926L234.289 89.5042C234.296 89.5132 235.829 91.9628 234.094 91.7459Z" fill="#001C45"/>
<path d="M247.05 83.6379C247.05 83.6379 246.431 81.6312 246.7 81.0979C247.601 79.3352 250.534 74.1467 250.944 74.6439C251.355 75.141 252.592 77.3737 252.592 77.3737L247.05 83.6379Z" fill="#3ED9C7"/>
<path d="M246.558 84.1981C246.182 86.5302 246.215 90.3719 245.98 98.5162C245.825 103.759 245.435 118.963 245.435 118.963C245.435 118.963 248.422 121.593 253.433 121.051C258.222 120.536 260.294 117.372 260.294 117.372C260.294 117.372 259.796 95.9852 258.222 87.5697C255.895 78.8921 252.592 77.3826 252.592 77.3826L246.558 84.1981Z" fill="#3ED9C7"/>
<path d="M254.24 87.2085L249.801 102.611L245.906 101.201C245.839 103.551 245.798 105.667 245.724 108.514C246.646 109.047 247.762 109.571 249.155 110.096C250.372 110.557 250.709 110.249 251.193 109.138C252.431 106.326 256.366 92.8399 256.366 92.8399L254.24 87.2085Z" fill="#03AA99"/>
<path d="M251.415 82.7251C250.621 83.6381 250.251 84.5239 249.505 87.4164C248.671 90.6434 246.888 98.9866 246.888 98.9866L247.177 99.1403L251.415 82.7251Z" fill="#03AA99"/>
<path d="M255.525 80.7728C253.265 79.2271 251.314 81.279 249.901 87.2811C248.556 92.9848 247.177 99.1405 247.177 99.1405L241.009 95.9225L239.677 101.491C239.677 101.491 245.428 106.318 247.984 107.547C250.5 108.749 250.984 107.908 254.819 97.414C257.671 89.586 259.218 83.2948 255.525 80.7728Z" fill="#3ED9C7"/>
<path d="M241.009 95.9222L236.798 93.5449C236.798 93.5449 236.731 91.6196 236.105 90.3541C235.136 88.3926 234.8 86.3045 234.39 86.8378C233.973 87.3892 234.08 88.3835 234.296 89.5134C234.511 90.6433 234.094 91.7551 234.094 91.7551L230.421 87.8864C230.421 87.8864 230.293 90.6795 230.926 92.3156C231.605 94.0963 232.446 95.416 234.437 97.2329C236.428 99.0498 239.677 101.49 239.677 101.49L241.009 95.9222Z" fill="#FF9A8D"/>
<path d="M252.592 77.3826L247.056 83.6377L246.565 84.1981C246.403 84.6139 246.37 84.9936 246.43 85.328L252.592 77.3826Z" fill="#03AA99"/>
<path d="M241.029 95.561L239.65 101.879" stroke="#AAEEED" stroke-width="1.05" stroke-miterlimit="10" stroke-linecap="round"/>
<path d="M243.343 68.0997C243.357 67.7743 243.565 67.5302 243.801 67.5483C244.043 67.5664 244.224 67.8466 244.211 68.163C244.197 68.4884 243.989 68.7324 243.753 68.7144C243.518 68.6963 243.33 68.4251 243.343 68.0997Z" fill="#001C45"/>
<path d="M242.986 66.5631L244.977 67.4128C244.977 67.4128 244.937 66.4998 244.251 66.2196C243.41 65.8761 242.986 66.5631 242.986 66.5631Z" fill="#001C45"/>
<path d="M250.419 67.5122C250.15 67.3856 249.746 67.4037 249.518 67.6478C249.43 67.7382 249.578 67.928 249.659 67.8828C250.116 67.6568 250.681 67.6207 250.903 68.3438C250.917 68.38 250.937 68.3438 250.93 68.3167C250.877 67.928 250.708 67.6568 250.419 67.5122Z" fill="#BA5964"/>
<path d="M250.204 67.5758C250.15 67.5396 250.036 67.7114 250.049 67.7656C250.123 67.8108 250.244 67.9283 250.298 68.0639C250.392 68.2989 250.426 68.4978 250.406 68.7599C250.365 69.3746 250.11 69.8175 249.666 69.9531C249.659 69.9531 249.645 69.9892 249.659 69.9892C250.049 70.1158 250.486 69.5825 250.574 69.1124C250.675 68.5881 250.654 67.856 250.204 67.5758Z" fill="#BA5964"/>
<path d="M223.93 50.1661H256.75C258.869 50.1661 260.591 47.8521 260.591 45.0048C260.591 42.1574 258.869 39.8434 256.75 39.8434H223.93C221.811 39.8434 220.089 42.1574 220.089 45.0048C220.089 47.8611 221.811 50.1661 223.93 50.1661Z" fill="white"/>
<path d="M253.319 42.7268L253.743 43.8838L253.824 44.1098L254.005 44.1459L254.954 44.3267L254.268 45.2216L254.133 45.3933L254.167 45.6374L254.328 46.9029L253.481 46.3063L253.319 46.1888L253.158 46.3063L252.31 46.9029L252.472 45.6374L252.505 45.3933L252.371 45.2216L251.685 44.3267L252.633 44.1459L252.815 44.1098L252.896 43.8838L253.319 42.7268ZM253.319 41.6511L252.579 43.6669L250.918 43.9923L252.115 45.5651L251.833 47.7797L253.313 46.7311L254.793 47.7797L254.51 45.5651L255.707 43.9923L254.053 43.6669L253.319 41.6511Z" fill="#FABA50"/>
<path d="M246.748 41.6514L246.008 43.6671L244.353 43.9925L245.55 45.5653L245.268 47.7799L246.748 46.7314L248.234 47.7799L247.952 45.5653L249.149 43.9925L247.487 43.6671L246.748 41.6514Z" fill="#FABA50"/>
<path d="M240.182 41.6514L239.442 43.6671L237.788 43.9925L238.985 45.5653L238.703 47.7799L240.182 46.7314L241.662 47.7799L241.38 45.5653L242.577 43.9925L240.922 43.6671L240.182 41.6514Z" fill="#FABA50"/>
<path d="M233.617 41.6514L232.877 43.6671L231.216 43.9925L232.42 45.5653L232.13 47.7799L233.617 46.7314L235.097 47.7799L234.814 45.5653L236.012 43.9925L234.357 43.6671L233.617 41.6514Z" fill="#FABA50"/>
<path d="M227.045 41.6515L226.305 43.6672L224.651 43.9926L225.848 45.5655L225.565 47.7801L227.045 46.7315L228.532 47.7801L228.249 45.5655L229.447 43.9926L227.792 43.6672L227.045 41.6515Z" fill="#FABA50"/>
<path d="M233.617 49.3168V56.5752L230.233 49.3168H233.617Z" fill="white"/>
</svg>
