<svg width="41" height="61" viewBox="0 0 41 61" fill="none" xmlns="http://www.w3.org/2000/svg">
<path d="M15.0321 36.2318C15.0321 36.2318 18.0193 41.0251 19.2694 45.6599C20.1571 48.9562 20.197 55.497 20.197 55.497C20.197 55.497 20.2569 36.0899 24.7053 28.5744" stroke="#263238" stroke-miterlimit="10" stroke-linecap="round" stroke-linejoin="round"/>
<path d="M27.1058 11.7743C27.1058 11.7743 22.7986 18.7223 21.5984 25.9524C20.3982 33.1842 20.1156 51.1193 20.1156 51.1193C20.0458 47.3623 19.4806 33.6081 18.2803 27.6531C17.0801 21.6982 14.8908 17.3738 14.8908 17.3738" stroke="#263238" stroke-miterlimit="10" stroke-linecap="round" stroke-linejoin="round"/>
<path d="M15.825 19.4834C15.825 19.4834 19.429 19.6503 21.113 16.9332C22.7953 14.2161 21.6898 11.6191 20.1073 11.4288C18.5247 11.2386 17.8382 13.203 17.2513 12.2617C16.6645 11.3187 18.9336 9.54453 16.3919 7.91225C13.8485 6.27997 12.6632 8.62157 11.857 7.7854C11.0508 6.94924 11.6309 4.76285 9.95193 3.80317C8.27295 2.8435 7.48832 4.0385 6.55906 4.07856C5.62981 4.11861 2.7024 2.53473 1.53542 3.77814C0.368448 5.02154 3.16287 8.02908 1.84961 8.1192C0.536344 8.20766 0.00438944 10.7779 1.06996 12.4419C2.13719 14.1059 5.56996 14.7635 4.90003 15.6314C4.2301 16.4992 0.951934 16.4458 2.28681 18.3886C3.62168 20.3313 8.15658 20.4581 8.80989 20.6884C9.46153 20.9188 6.72197 21.4228 7.18411 23.242C7.6479 25.0595 11.4148 25.2849 13.8385 24.1166C16.2622 22.9483 15.825 19.4834 15.825 19.4834Z" fill="#92E3A9"/>
<path d="M5.42368 7.22949C5.42368 7.22949 13.0805 12.2548 15.825 19.4833" stroke="#263238" stroke-miterlimit="10" stroke-linecap="round" stroke-linejoin="round"/>
<path d="M5.048 10.7494L10.1814 11.2518L8.92961 6.97913" stroke="#263238" stroke-miterlimit="10" stroke-linecap="round" stroke-linejoin="round"/>
<path d="M9.1806 16.6577H14.3123L14.688 12.0062" stroke="#263238" stroke-miterlimit="10" stroke-linecap="round" stroke-linejoin="round"/>
<path d="M26.3843 13.3264C26.3843 13.3264 23.4586 13.4616 22.0921 11.2569C20.7257 9.05211 21.625 6.9425 22.9084 6.78895C24.1934 6.6354 24.7502 8.2293 25.2257 7.46489C25.7011 6.70049 23.8592 5.26015 25.9239 3.93496C27.9885 2.60978 28.951 4.51077 29.6043 3.83149C30.2593 3.1522 29.7872 1.37806 31.1503 0.598636C32.5135 -0.180786 33.1501 0.788901 33.9048 0.822281C34.6596 0.853992 37.0351 -0.431136 37.9826 0.578608C38.9301 1.58835 36.6627 4.0301 37.7283 4.10186C38.7938 4.17363 39.226 6.25988 38.3616 7.61177C37.4955 8.96199 34.7094 9.49607 35.253 10.2004C35.7966 10.9047 38.458 10.8613 37.3742 12.4385C36.2903 14.0157 32.6082 14.1192 32.0796 14.3045C31.5493 14.4914 33.7752 14.9003 33.3995 16.3773C33.0238 17.8527 29.9651 18.0363 27.9968 17.0867C26.0286 16.1387 26.3843 13.3264 26.3843 13.3264Z" fill="#92E3A9"/>
<path d="M34.8274 3.37921C34.8274 3.37921 28.6119 7.45825 26.3843 13.3264" stroke="#263238" stroke-miterlimit="10" stroke-linecap="round" stroke-linejoin="round"/>
<path d="M35.1317 6.23648L30.9658 6.64539L31.9815 3.17554" stroke="#263238" stroke-miterlimit="10" stroke-linecap="round" stroke-linejoin="round"/>
<path d="M31.7787 11.0333H27.6112L27.3069 7.258" stroke="#263238" stroke-miterlimit="10" stroke-linecap="round" stroke-linejoin="round"/>
<path d="M16.8108 39.6348C16.8108 39.6348 19.1847 39.745 20.2935 37.9558C21.4022 36.1666 20.6725 34.4559 19.6318 34.3307C18.5895 34.2056 18.1374 35.499 17.7517 34.8782C17.366 34.2573 18.8605 33.089 17.1848 32.0142C15.5109 30.9393 14.7295 32.4815 14.1992 31.9307C13.6673 31.38 14.0513 29.9413 12.9458 29.3087C11.8404 28.6762 11.3234 29.4639 10.7116 29.489C10.0999 29.5157 8.17155 28.4726 7.40354 29.292C6.63387 30.1115 8.47576 32.0926 7.60967 32.151C6.74525 32.2094 6.39449 33.9018 7.096 34.9983C7.79918 36.0932 10.06 36.5271 9.6178 37.0979C9.17727 37.6687 7.01787 37.6354 7.89726 38.9138C8.77665 40.1923 11.7639 40.2774 12.1928 40.4276C12.6217 40.5795 10.818 40.9116 11.1222 42.1083C11.4264 43.3049 13.9083 43.4535 15.5042 42.6841C17.0984 41.9163 16.8108 39.6348 16.8108 39.6348Z" fill="#92E3A9"/>
<path d="M9.96191 31.5652C9.96191 31.5652 15.0038 34.8748 16.8108 39.6348" stroke="#263238" stroke-miterlimit="10" stroke-linecap="round" stroke-linejoin="round"/>
<path d="M9.71422 33.8834L13.0955 34.2138L12.2709 31.3999" stroke="#263238" stroke-miterlimit="10" stroke-linecap="round" stroke-linejoin="round"/>
<path d="M12.4355 37.7739H15.8151L16.0628 34.7112" stroke="#263238" stroke-miterlimit="10" stroke-linecap="round" stroke-linejoin="round"/>
<path d="M23.8509 30.3018C23.8509 30.3018 20.2752 29.8195 19.1032 26.8437C17.9312 23.8678 19.4822 21.5129 21.0731 21.6097C22.664 21.7065 22.9898 23.7627 23.7345 22.9416C24.4793 22.1204 22.5626 19.9657 25.3553 18.8175C28.1481 17.6692 28.8961 20.1844 29.8404 19.5068C30.7829 18.8291 30.6001 16.5743 32.4237 15.9318C34.2473 15.2892 34.8058 16.606 35.7135 16.8113C36.6211 17.0183 39.7829 15.9852 40.7105 17.4188C41.6381 18.8525 38.3516 21.3093 39.6283 21.6331C40.905 21.9568 40.9698 24.5805 39.625 26.0259C38.2785 27.4712 34.7842 27.5029 35.2879 28.4759C35.7916 29.449 39.0282 29.9864 37.3675 31.6571C35.7068 33.3277 31.2235 32.6384 30.5402 32.7486C29.857 32.8571 32.4636 33.8468 31.6839 35.5525C30.9043 37.2582 27.1573 36.8026 24.9813 35.2187C22.8036 33.6315 23.8509 30.3018 23.8509 30.3018Z" fill="#92E3A9"/>
<path d="M36.267 20.1143C36.267 20.1143 27.8389 23.6826 23.8509 30.3018" stroke="#263238" stroke-miterlimit="10" stroke-linecap="round" stroke-linejoin="round"/>
<path d="M36.011 23.6443L30.871 23.217L32.8642 19.2365" stroke="#263238" stroke-miterlimit="10" stroke-linecap="round" stroke-linejoin="round"/>
<path d="M30.8926 28.7146L25.8424 27.7933L26.3012 23.1501" stroke="#263238" stroke-miterlimit="10" stroke-linecap="round" stroke-linejoin="round"/>
<path d="M14.3389 46.3909C14.0829 47.0818 13.9366 52.9617 13.9366 53.7428C13.9366 58.9134 16.7776 60.1134 20.2818 60.1134C23.7861 60.1134 26.627 59.1904 26.627 53.7428C26.627 52.9617 26.4808 47.0818 26.2248 46.3909H14.3389Z" fill="#263238" stroke="#263238" stroke-miterlimit="10" stroke-linecap="round" stroke-linejoin="round"/>
</svg>
