<svg width="85" height="71" viewBox="0 0 85 71" fill="none" xmlns="http://www.w3.org/2000/svg">
<path d="M45.241 43.5781H38.7445V69.8898H45.241V43.5781Z" fill="#263238" stroke="#263238" stroke-miterlimit="10" stroke-linecap="round" stroke-linejoin="round"/>
<path d="M84.6339 0.17572H2.65312V50.1005H84.6339V0.17572Z" fill="#263238" stroke="#263238" stroke-width="0.25" stroke-miterlimit="10" stroke-linecap="round" stroke-linejoin="round"/>
<path d="M82.9832 0.17572H1.00241V50.1005H82.9832V0.17572Z" fill="#799093" stroke="#263238" stroke-width="0.25" stroke-miterlimit="10"/>
<path d="M80.0292 1.97485H3.95642V48.3013H80.0292V1.97485Z" fill="white" stroke="#263238" stroke-miterlimit="10" stroke-linecap="round" stroke-linejoin="round"/>
<path d="M80.0292 45.5107H3.95642V48.3012H80.0292V45.5107Z" fill="white" stroke="#263238" stroke-miterlimit="10" stroke-linecap="round" stroke-linejoin="round"/>
<path d="M42.3469 66.939L18.2627 68.5012V70.0751H65.7229V68.5012L42.3469 66.939Z" fill="#263238" stroke="#263238" stroke-miterlimit="10" stroke-linecap="round" stroke-linejoin="round"/>
<path d="M80.0292 1.97485H3.95642V48.3013H80.0292V1.97485Z" fill="white" stroke="#263238" stroke-miterlimit="10" stroke-linecap="round" stroke-linejoin="round"/>
<path d="M80.0292 39.6859H3.95642V48.3013H80.0292V39.6859Z" fill="#C2C2C2" stroke="#263238" stroke-width="0.5" stroke-miterlimit="10" stroke-linecap="round" stroke-linejoin="round"/>
<path d="M72.3225 41.7821H10.9466V44.3106H72.3225V41.7821Z" fill="#E8E8E8" stroke="#263238" stroke-width="0.25" stroke-miterlimit="10" stroke-linecap="round" stroke-linejoin="round"/>
<path d="M72.3225 42.5782H10.9466V43.5179H72.3225V42.5782Z" fill="#92E3A9" stroke="#263238" stroke-width="0.25" stroke-miterlimit="10" stroke-linecap="round" stroke-linejoin="round"/>
<path d="M10.1753 43.0222L7.17639 41.2831V44.7596L10.1753 43.0222Z" fill="#92E3A9" stroke="#263238" stroke-width="0.25" stroke-miterlimit="10" stroke-linecap="round" stroke-linejoin="round"/>
<path d="M80.0292 1.97485H78.4699V48.3013H80.0292V1.97485Z" fill="#E8E8E8" stroke="#263238" stroke-width="0.5" stroke-miterlimit="10" stroke-linecap="round" stroke-linejoin="round"/>
<path d="M80.0292 10.9141H78.4699V35.4283H80.0292V10.9141Z" fill="#C2C2C2" stroke="#263238" stroke-width="0.5" stroke-miterlimit="10" stroke-linecap="round" stroke-linejoin="round"/>
<path d="M80.0292 1.97485H3.95642V3.75901H80.0292V1.97485Z" fill="black" stroke="#263238" stroke-miterlimit="10" stroke-linecap="round" stroke-linejoin="round"/>
<path d="M80.0292 46.9576H3.95642V48.3012H80.0292V46.9576Z" fill="black" stroke="#263238" stroke-miterlimit="10" stroke-linecap="round" stroke-linejoin="round"/>
</svg>
