<svg width="35" height="60" viewBox="0 0 35 60" fill="none" xmlns="http://www.w3.org/2000/svg">
<path d="M26.3252 59.0794L5.31726 59.0683C2.79058 59.0667 0.743591 57.1141 0.743591 54.7059L0.753584 4.50838C0.753584 2.09859 2.80391 0.145996 5.33226 0.147584L26.3402 0.158696C28.8668 0.160284 30.9138 2.11288 30.9138 4.52108L30.9038 54.7186C30.9038 57.1284 28.8535 59.081 26.3252 59.0794Z" fill="#263238"/>
<path d="M26.3185 1.93513L22.2462 1.93354C21.6999 1.93354 21.2569 2.37486 21.2569 2.91777V3.62261C21.2569 4.16712 20.8138 4.60843 20.2675 4.60685L12.3277 4.60208C11.7814 4.60208 11.3384 4.16077 11.3384 3.61626V2.91142C11.3384 2.36692 10.8953 1.9256 10.349 1.9256L8.91661 1.92401L5.35227 1.92243C3.58177 1.92084 2.14604 3.28924 2.14604 4.97673L2.13605 53.9726C2.13605 55.66 3.57011 57.0269 5.33895 57.0284L26.3052 57.0396C28.0757 57.0411 29.5115 55.6727 29.5115 53.9853L29.5214 4.98943C29.5231 3.30353 28.0891 1.93671 26.3185 1.93513Z" fill="white"/>
<path d="M26.3186 1.93513L22.2462 1.93354C21.6999 1.93354 21.2569 2.37486 21.2569 2.91777V3.62261C21.2569 4.16712 20.8138 4.60843 20.2675 4.60685L12.3277 4.60208C11.7814 4.60208 11.3384 4.16077 11.3384 3.61626V2.91142C11.3384 2.36692 10.8953 1.9256 10.349 1.9256L8.91661 1.92401L5.35228 1.92243C3.58177 1.92084 2.14605 3.28924 2.14605 4.97673L2.14438 9.79313H29.5198L29.5215 4.99102C29.5231 3.30353 28.0891 1.93671 26.3186 1.93513Z" fill="#EBEBEB"/>
<path d="M26.6 5.78949C26.6 5.97522 26.4417 6.12603 26.2469 6.12603C26.052 6.12603 25.8938 5.97522 25.8938 5.78949C25.8938 5.60375 26.052 5.45294 26.2469 5.45294C26.4417 5.45294 26.6 5.60375 26.6 5.78949Z" fill="#263238"/>
<path d="M26.5999 6.70074C26.5999 6.88648 26.4417 7.03729 26.2468 7.03729C26.052 7.03729 25.8937 6.88648 25.8937 6.70074C25.8937 6.51501 26.052 6.3642 26.2468 6.3642C26.4417 6.3642 26.5999 6.51501 26.5999 6.70074Z" fill="#263238"/>
<path d="M26.5999 7.61352C26.5999 7.79926 26.4417 7.95007 26.2468 7.95007C26.052 7.95007 25.8937 7.79926 25.8937 7.61352C25.8937 7.42779 26.052 7.27698 26.2468 7.27698C26.4417 7.27698 26.5999 7.42779 26.5999 7.61352Z" fill="#263238"/>
<path d="M27.3261 12.6188C27.591 12.6188 27.8058 12.4141 27.8058 12.1616C27.8058 11.9091 27.591 11.7044 27.3261 11.7044C27.0612 11.7044 26.8464 11.9091 26.8464 12.1616C26.8464 12.4141 27.0612 12.6188 27.3261 12.6188Z" fill="#E0E0E0"/>
<path d="M26.7266 12.8712C26.7266 13.1236 26.5117 13.3284 26.2469 13.3284C25.982 13.3284 25.7672 13.1236 25.7672 12.8712C25.7672 12.6188 25.982 12.414 26.2469 12.414C26.5117 12.4156 26.7266 12.6188 26.7266 12.8712Z" fill="#E0E0E0"/>
<path d="M27.8042 13.5253C27.8042 13.7777 27.5893 13.9825 27.3245 13.9825C27.0597 13.9825 26.8448 13.7777 26.8448 13.5253C26.8448 13.2729 27.0597 13.0681 27.3245 13.0681C27.5893 13.0681 27.8042 13.2745 27.8042 13.5253Z" fill="#E0E0E0"/>
<path d="M27.1896 13.5936L26.0936 12.8713L27.2762 12.0934L27.3745 12.23L26.4001 12.8713L27.2878 13.4571L27.1896 13.5936Z" fill="#E0E0E0"/>
<path d="M22.7259 15.0556H6.38161C5.2257 15.0556 4.28964 14.1618 4.28964 13.0617V12.8823C4.28964 11.7806 5.22736 10.8884 6.38161 10.8884H22.7259C23.8818 10.8884 24.8179 11.7822 24.8179 12.8823V13.0617C24.8179 14.1634 23.8818 15.0556 22.7259 15.0556Z" fill="#EBEBEB"/>
<path d="M7.5392 12.9808V13.4332H7.29936V13.0157C7.29936 12.8887 7.23773 12.83 7.13113 12.83C7.01621 12.83 6.93293 12.8983 6.93293 13.0427V13.4332H6.69308V12.3442H6.93293V12.7252C6.99789 12.6633 7.08949 12.6316 7.19609 12.6316C7.39096 12.6316 7.5392 12.7411 7.5392 12.9808Z" fill="#263238"/>
<path d="M8.2903 13.3951C8.24033 13.4284 8.16871 13.4443 8.09543 13.4443C7.90055 13.4443 7.78563 13.3491 7.78563 13.1617V12.8379H7.65738V12.6617H7.78563V12.4696H8.02547V12.6617H8.232V12.8379H8.02547V13.1602C8.02547 13.2284 8.06378 13.2649 8.12874 13.2649C8.16371 13.2649 8.20036 13.2554 8.22534 13.2364L8.2903 13.3951Z" fill="#263238"/>
<path d="M8.94148 13.3951C8.89151 13.4284 8.8199 13.4443 8.74661 13.4443C8.55174 13.4443 8.43681 13.3491 8.43681 13.1617V12.8379H8.30856V12.6617H8.43681V12.4696H8.67665V12.6617H8.88318V12.8379H8.67665V13.1602C8.67665 13.2284 8.71496 13.2649 8.77992 13.2649C8.8149 13.2649 8.85154 13.2554 8.87653 13.2364L8.94148 13.3951Z" fill="#263238"/>
<path d="M9.97922 13.0379C9.97922 13.2856 9.79934 13.4443 9.56616 13.4443C9.46289 13.4443 9.37795 13.4142 9.31632 13.3491V13.7174H9.07648V12.6426H9.30633V12.7331C9.36629 12.6649 9.45623 12.6299 9.56616 12.6299C9.79934 12.6315 9.97922 12.7903 9.97922 13.0379ZM9.73604 13.0379C9.73604 12.9014 9.6461 12.8189 9.52452 12.8189C9.4046 12.8189 9.31299 12.9014 9.31299 13.0379C9.31299 13.1744 9.4046 13.257 9.52452 13.257C9.6461 13.257 9.73604 13.1744 9.73604 13.0379Z" fill="#263238"/>
<path d="M10.0592 13.3602L10.1391 13.1951C10.2124 13.2411 10.3257 13.2713 10.4273 13.2713C10.5389 13.2713 10.5805 13.2427 10.5805 13.1998C10.5805 13.0713 10.0792 13.203 10.0792 12.8871C10.0792 12.7379 10.2207 12.6315 10.4622 12.6315C10.5755 12.6315 10.7021 12.6569 10.7804 12.6998L10.7004 12.8633C10.6188 12.8189 10.5372 12.8046 10.4622 12.8046C10.354 12.8046 10.309 12.8363 10.309 12.8776C10.309 13.0125 10.8104 12.8824 10.8104 13.1935C10.8104 13.3395 10.6671 13.4443 10.4189 13.4443C10.279 13.4443 10.1358 13.4078 10.0592 13.3602Z" fill="#263238"/>
<path d="M10.8986 12.7744C10.8986 12.6887 10.9652 12.6331 11.0485 12.6331C11.1318 12.6331 11.1984 12.6887 11.1984 12.7744C11.1984 12.8585 11.1318 12.9189 11.0485 12.9189C10.9652 12.9173 10.8986 12.8585 10.8986 12.7744ZM10.8986 13.3014C10.8986 13.2157 10.9652 13.1602 11.0485 13.1602C11.1318 13.1602 11.1984 13.2157 11.1984 13.3014C11.1984 13.3856 11.1318 13.4459 11.0485 13.4459C10.9652 13.4443 10.8986 13.3856 10.8986 13.3014Z" fill="#263238"/>
<path d="M11.788 12.1966H12.0029L11.4949 13.5793H11.28L11.788 12.1966Z" fill="#263238"/>
<path d="M12.2794 12.1966H12.4942L11.9862 13.5793H11.7714L12.2794 12.1966Z" fill="#263238"/>
<path d="M13.8218 12.6442L13.522 13.4332H13.2905L13.1039 12.9427L12.9107 13.4332H12.6792L12.381 12.6442H12.6076L12.8024 13.1792L13.0056 12.6442H13.2088L13.4054 13.1792L13.6069 12.6442H13.8218Z" fill="#263238"/>
<path d="M15.2441 12.6442L14.9443 13.4332H14.7128L14.5262 12.9427L14.333 13.4332H14.1015L13.8034 12.6442H14.0299L14.2248 13.1792L14.428 12.6442H14.6312L14.8277 13.1792L15.0292 12.6442H15.2441Z" fill="#263238"/>
<path d="M16.6681 12.6442L16.3683 13.4332H16.1368L15.9503 12.9427L15.7571 13.4332H15.5256L15.2274 12.6442H15.4539L15.6488 13.1792L15.852 12.6442H16.0552L16.2518 13.1792L16.4533 12.6442H16.6681Z" fill="#263238"/>
<path d="M16.6715 13.3014C16.6715 13.2157 16.7381 13.1602 16.8214 13.1602C16.9047 13.1602 16.9713 13.2157 16.9713 13.3014C16.9713 13.3856 16.9047 13.4459 16.8214 13.4459C16.7381 13.4443 16.6715 13.3856 16.6715 13.3014Z" fill="#263238"/>
<path d="M17.0763 13.3014C17.0763 13.2157 17.1429 13.1602 17.2262 13.1602C17.3094 13.1602 17.3761 13.2157 17.3761 13.3014C17.3761 13.3856 17.3094 13.4459 17.2262 13.4459C17.1412 13.4443 17.0763 13.3856 17.0763 13.3014Z" fill="#263238"/>
<path d="M17.4793 13.3014C17.4793 13.2157 17.5459 13.1602 17.6292 13.1602C17.7125 13.1602 17.7791 13.2157 17.7791 13.3014C17.7791 13.3856 17.7125 13.4459 17.6292 13.4459C17.5459 13.4443 17.4793 13.3856 17.4793 13.3014Z" fill="#263238"/>
<path d="M22.0746 7.14363C22.0746 7.16586 19.4697 7.18491 16.2568 7.18491C13.0439 7.18491 10.4389 7.16586 10.4389 7.14363C10.4389 7.12141 13.0439 7.10236 16.2568 7.10236C19.4697 7.10236 22.0746 7.12141 22.0746 7.14363Z" fill="#263238"/>
<path d="M26.6483 48.2862C26.6483 48.3084 21.8814 48.3275 16.0036 48.3275C10.1224 48.3275 5.35721 48.3084 5.35721 48.2862C5.35721 48.264 10.1224 48.2449 16.0036 48.2449C21.8814 48.2449 26.6483 48.264 26.6483 48.2862Z" fill="#E0E0E0"/>
<path d="M26.6483 46.5448C26.6483 46.567 21.8814 46.5861 16.0036 46.5861C10.1224 46.5861 5.35721 46.567 5.35721 46.5448C5.35721 46.5226 10.1224 46.5035 16.0036 46.5035C21.8814 46.5035 26.6483 46.5226 26.6483 46.5448Z" fill="#E0E0E0"/>
<path d="M26.6483 44.8049C26.6483 44.8271 21.8814 44.8462 16.0036 44.8462C10.1224 44.8462 5.35721 44.8271 5.35721 44.8049C5.35721 44.7827 10.1224 44.7636 16.0036 44.7636C21.8814 44.7621 26.6483 44.7811 26.6483 44.8049Z" fill="#E0E0E0"/>
<path d="M26.6483 43.0634C26.6483 43.0857 21.8814 43.1047 16.0036 43.1047C10.1224 43.1047 5.35721 43.0857 5.35721 43.0634C5.35721 43.0412 10.1224 43.0222 16.0036 43.0222C21.8814 43.0222 26.6483 43.0396 26.6483 43.0634Z" fill="#E0E0E0"/>
<path d="M26.6483 41.3219C26.6483 41.3441 21.8814 41.3632 16.0036 41.3632C10.1224 41.3632 5.35721 41.3441 5.35721 41.3219C5.35721 41.2997 10.1224 41.2806 16.0036 41.2806C21.8814 41.2806 26.6483 41.2997 26.6483 41.3219Z" fill="#E0E0E0"/>
<path d="M26.6483 39.5805C26.6483 39.6027 21.8814 39.6217 16.0036 39.6217C10.1224 39.6217 5.35721 39.6027 5.35721 39.5805C5.35721 39.5582 10.1224 39.5392 16.0036 39.5392C21.8814 39.5392 26.6483 39.5582 26.6483 39.5805Z" fill="#E0E0E0"/>
<path d="M26.6483 37.839C26.6483 37.8612 21.8814 37.8803 16.0036 37.8803C10.1224 37.8803 5.35721 37.8612 5.35721 37.839C5.35721 37.8168 10.1224 37.7977 16.0036 37.7977C21.8814 37.7977 26.6483 37.8168 26.6483 37.839Z" fill="#E0E0E0"/>
<path d="M26.6483 36.0992C26.6483 36.1214 21.8814 36.1404 16.0036 36.1404C10.1224 36.1404 5.35721 36.1214 5.35721 36.0992C5.35721 36.0769 10.1224 36.0579 16.0036 36.0579C21.8814 36.0563 26.6483 36.0754 26.6483 36.0992Z" fill="#E0E0E0"/>
<path d="M26.6483 34.3577C26.6483 34.3799 21.8814 34.399 16.0036 34.399C10.1224 34.399 5.35721 34.3799 5.35721 34.3577C5.35721 34.3355 10.1224 34.3164 16.0036 34.3164C21.8814 34.3164 26.6483 34.3339 26.6483 34.3577Z" fill="#E0E0E0"/>
<path d="M26.6483 32.6163C26.6483 32.6385 21.8814 32.6576 16.0036 32.6576C10.1224 32.6576 5.35721 32.6385 5.35721 32.6163C5.35721 32.5941 10.1224 32.575 16.0036 32.575C21.8814 32.575 26.6483 32.5941 26.6483 32.6163Z" fill="#E0E0E0"/>
<path d="M26.6483 30.8748C26.6483 30.897 21.8814 30.916 16.0036 30.916C10.1224 30.916 5.35721 30.897 5.35721 30.8748C5.35721 30.8525 10.1224 30.8335 16.0036 30.8335C21.8814 30.8335 26.6483 30.8525 26.6483 30.8748Z" fill="#E0E0E0"/>
<path d="M26.6483 29.1333C26.6483 29.1555 21.8814 29.1746 16.0036 29.1746C10.1224 29.1746 5.35721 29.1555 5.35721 29.1333C5.35721 29.1111 10.1224 29.092 16.0036 29.092C21.8814 29.092 26.6483 29.1111 26.6483 29.1333Z" fill="#E0E0E0"/>
<path d="M26.6483 27.3934C26.6483 27.4156 21.8814 27.4347 16.0036 27.4347C10.1224 27.4347 5.35721 27.4156 5.35721 27.3934C5.35721 27.3712 10.1224 27.3521 16.0036 27.3521C21.8814 27.3506 26.6483 27.3696 26.6483 27.3934Z" fill="#E0E0E0"/>
<path d="M26.6483 25.652C26.6483 25.6742 21.8814 25.6933 16.0036 25.6933C10.1224 25.6933 5.35721 25.6742 5.35721 25.652C5.35721 25.6298 10.1224 25.6107 16.0036 25.6107C21.8814 25.6107 26.6483 25.6282 26.6483 25.652Z" fill="#E0E0E0"/>
<path d="M26.6483 23.9105C26.6483 23.9328 21.8814 23.9518 16.0036 23.9518C10.1224 23.9518 5.35721 23.9328 5.35721 23.9105C5.35721 23.8883 10.1224 23.8693 16.0036 23.8693C21.8814 23.8693 26.6483 23.8883 26.6483 23.9105Z" fill="#E0E0E0"/>
<path d="M26.6483 22.1691C26.6483 22.1913 21.8814 22.2104 16.0036 22.2104C10.1224 22.2104 5.35721 22.1913 5.35721 22.1691C5.35721 22.1469 10.1224 22.1278 16.0036 22.1278C21.8814 22.1278 26.6483 22.1469 26.6483 22.1691Z" fill="#E0E0E0"/>
<path d="M26.6483 20.4276C26.6483 20.4499 21.8814 20.4689 16.0036 20.4689C10.1224 20.4689 5.35721 20.4499 5.35721 20.4276C5.35721 20.4054 10.1224 20.3864 16.0036 20.3864C21.8814 20.3864 26.6483 20.4054 26.6483 20.4276Z" fill="#E0E0E0"/>
<path d="M26.6483 18.6877C26.6483 18.71 21.8814 18.729 16.0036 18.729C10.1224 18.729 5.35721 18.71 5.35721 18.6877C5.35721 18.6655 10.1224 18.6465 16.0036 18.6465C21.8814 18.6449 26.6483 18.6639 26.6483 18.6877Z" fill="#E0E0E0"/>
<path d="M26.6483 16.9463C26.6483 16.9685 21.8814 16.9876 16.0036 16.9876C10.1224 16.9876 5.35724 16.9685 5.35724 16.9463C5.35724 16.9241 10.1224 16.905 16.0036 16.905C21.8814 16.905 26.6483 16.9225 26.6483 16.9463Z" fill="#E0E0E0"/>
<path d="M26.6483 50.0276C26.6483 50.0498 21.8814 50.0689 16.0036 50.0689C10.1224 50.0689 5.35721 50.0498 5.35721 50.0276C5.35721 50.0054 10.1224 49.9863 16.0036 49.9863C21.8814 49.9863 26.6483 50.0054 26.6483 50.0276Z" fill="#E0E0E0"/>
<path d="M26.6483 51.7692C26.6483 51.7914 21.8814 51.8105 16.0036 51.8105C10.1224 51.8105 5.35721 51.7914 5.35721 51.7692C5.35721 51.747 10.1224 51.7279 16.0036 51.7279C21.8814 51.7279 26.6483 51.7454 26.6483 51.7692Z" fill="#E0E0E0"/>
<path d="M26.6483 53.5105C26.6483 53.5327 21.8814 53.5518 16.0036 53.5518C10.1224 53.5518 5.35721 53.5327 5.35721 53.5105C5.35721 53.4883 10.1224 53.4692 16.0036 53.4692C21.8814 53.4692 26.6483 53.4867 26.6483 53.5105Z" fill="#E0E0E0"/>
<path d="M30.5708 45.0715H6.09846C5.38726 45.0715 4.81097 44.5222 4.81097 43.8444V17.5399C4.81097 16.8621 5.38726 16.3128 6.09846 16.3128H30.5708C31.282 16.3128 31.8583 16.8621 31.8583 17.5399V43.8444C31.8583 44.5222 31.282 45.0715 30.5708 45.0715Z" fill="white"/>
<path d="M30.5708 45.0715C30.5708 45.0715 30.5958 45.0683 30.6441 45.0651C30.6924 45.0636 30.764 45.054 30.8573 45.035C31.0388 44.9937 31.3236 44.8921 31.5618 44.6143C31.6784 44.4762 31.7767 44.2968 31.8233 44.0825C31.8649 43.8682 31.8416 43.6253 31.8466 43.365C31.8449 42.8443 31.845 42.2426 31.8433 41.5664C31.84 38.8581 31.835 34.9418 31.83 30.1032C31.8283 27.6839 31.8266 25.0328 31.825 22.188C31.825 20.7657 31.8233 19.2941 31.8233 17.778C31.8216 17.5875 31.8316 17.4002 31.7767 17.2208C31.7267 17.0414 31.6301 16.8748 31.4968 16.7367C31.3653 16.5985 31.2004 16.489 31.0155 16.4239C30.8289 16.3541 30.6357 16.3398 30.4292 16.3461C29.6114 16.3461 28.782 16.3461 27.9442 16.3477C21.2302 16.3493 13.8501 16.3493 6.10347 16.3509C5.63211 16.3461 5.17741 16.6208 4.9792 17.024C4.87094 17.2256 4.84929 17.4463 4.85595 17.6749C4.85595 17.9034 4.85595 18.132 4.85595 18.3591C4.85595 19.2703 4.85595 20.1767 4.85595 21.0752C4.85595 22.8738 4.85595 24.6455 4.85595 26.3869C4.85429 29.8698 4.85429 33.2273 4.85262 36.4277C4.85262 38.0279 4.85096 39.5884 4.85096 41.1028C4.85096 41.86 4.85095 42.6077 4.84929 43.3427C4.85095 43.5253 4.84596 43.711 4.85096 43.8904C4.85762 44.0666 4.90759 44.2412 4.99253 44.3968C5.16409 44.7096 5.48554 44.9366 5.84031 45.008C6.01686 45.0461 6.20341 45.0302 6.38828 45.0334C6.57316 45.0334 6.75804 45.0334 6.94125 45.0334C7.30768 45.0334 7.67078 45.0334 8.03221 45.0334C8.75174 45.0334 9.4596 45.035 10.1525 45.035C11.5382 45.0366 12.8674 45.0366 14.1382 45.0382C19.2149 45.0445 23.3239 45.0477 26.1637 45.0509C27.5827 45.054 28.6854 45.0572 29.4332 45.0588C29.8063 45.0604 30.0911 45.062 30.2843 45.0636C30.4725 45.0683 30.5708 45.0715 30.5708 45.0715C30.5708 45.0715 30.4725 45.0747 30.281 45.0763C30.0878 45.0778 29.803 45.0778 29.4299 45.081C28.682 45.0826 27.5794 45.0858 26.1603 45.089C23.3205 45.0921 19.2116 45.0969 14.1349 45.1017C12.8657 45.1032 11.5349 45.1032 10.1492 45.1048C9.45627 45.1048 8.75007 45.1064 8.02887 45.1064C7.66911 45.1064 7.30602 45.1064 6.93792 45.1064C6.75471 45.1064 6.56983 45.1064 6.38495 45.1064C6.20174 45.1032 6.01186 45.1191 5.82198 45.0794C5.44556 45.0048 5.10579 44.7651 4.92424 44.4349C4.8343 44.2698 4.781 44.0857 4.77267 43.8984C4.76768 43.7126 4.77101 43.5316 4.76934 43.3475C4.76934 42.6125 4.76934 41.8648 4.76768 41.1076C4.76768 39.5915 4.76601 38.031 4.76601 36.4325C4.76601 33.2321 4.76435 29.8746 4.76268 26.3917C4.76268 24.6502 4.76268 22.8786 4.76268 21.08C4.76268 20.1815 4.76268 19.275 4.76268 18.3638C4.76268 18.1352 4.76268 17.9082 4.76268 17.6796C4.75602 17.4542 4.781 17.2034 4.89592 16.9938C5.10745 16.562 5.5938 16.2683 6.09847 16.2747C13.8451 16.2763 21.2252 16.2763 27.9392 16.2779C28.7786 16.2779 29.6064 16.2779 30.4242 16.2795C30.6258 16.2731 30.8456 16.289 31.0388 16.3636C31.2354 16.4334 31.4102 16.5493 31.5501 16.697C31.6901 16.843 31.7933 17.0208 31.8466 17.2097C31.9049 17.4002 31.8933 17.5987 31.8949 17.786C31.8949 19.302 31.8933 20.7736 31.8933 22.196C31.8916 25.0407 31.8899 27.6918 31.8883 30.1111C31.8833 34.9498 31.8783 38.8661 31.8749 41.5743C31.8733 42.2506 31.8716 42.8522 31.8716 43.3729C31.8649 43.6332 31.8866 43.8745 31.8433 44.0936C31.795 44.3111 31.6917 44.4921 31.5735 44.6318C31.3303 44.9112 31.0405 45.0096 30.8573 45.0493C30.764 45.0683 30.6907 45.0747 30.6424 45.0763C30.5958 45.0715 30.5708 45.0715 30.5708 45.0715Z" fill="#263238"/>
<path d="M31.8899 17.1939C31.8366 17.0002 31.73 16.8161 31.5851 16.6637C31.4385 16.5081 31.257 16.3907 31.0587 16.3208C30.8855 16.2541 30.679 16.2256 30.4292 16.2335L6.10341 16.2287C5.57876 16.2208 5.08408 16.5224 4.86422 16.9701C4.76262 17.1558 4.71766 17.3876 4.72765 17.6749L4.73431 43.3444C4.73431 43.4095 4.73431 43.473 4.73431 43.5381C4.73431 43.6571 4.73431 43.7762 4.73764 43.8968C4.74597 44.0889 4.79927 44.281 4.89421 44.4509C5.08075 44.789 5.42719 45.0382 5.82027 45.116C5.93519 45.1398 6.04845 45.1446 6.16004 45.1446C6.19002 45.1446 6.21834 45.1446 6.24832 45.1446C6.29662 45.1446 6.34492 45.143 6.39323 45.1446L26.167 45.1271L29.4365 45.1192L30.2876 45.1144C30.4708 45.1128 30.5691 45.1113 30.5774 45.1097C30.5824 45.1097 30.6057 45.1097 30.649 45.1081C30.704 45.1081 30.7823 45.0986 30.8739 45.0811C31.1703 45.0176 31.4185 44.8715 31.6117 44.6493C31.7483 44.4906 31.8449 44.2985 31.8899 44.0937C31.9199 43.9381 31.9182 43.773 31.9182 43.6C31.9182 43.5238 31.9165 43.446 31.9182 43.365L31.9365 30.1033L31.9415 22.1881L31.9432 17.6971C31.9398 17.5336 31.9398 17.3622 31.8899 17.1939ZM4.80926 29.8461L4.80759 17.6749C4.79927 17.4003 4.84091 17.1812 4.93585 17.0066C5.14071 16.5891 5.60208 16.3097 6.08676 16.3097C6.09176 16.3097 6.09509 16.3097 6.10008 16.3097L17.2361 16.3113L6.10008 16.3129C6.09509 16.3129 6.09176 16.3129 6.08676 16.3129C5.60374 16.3129 5.14237 16.5907 4.93751 17.0082C4.84091 17.1892 4.80093 17.3955 4.80926 17.6765V29.8461ZM31.7816 44.0762C31.74 44.2651 31.6534 44.4429 31.5284 44.5906C31.3502 44.7969 31.122 44.9335 30.8472 44.997C30.7406 45.0192 30.6757 45.0255 30.639 45.0255C30.599 45.0287 30.5757 45.0303 30.5674 45.0319C30.5491 45.0319 30.4525 45.0287 30.2793 45.0271L26.1586 45.0144L14.1332 45.0017L6.38656 44.997C6.36491 44.997 6.34326 44.997 6.31994 44.997C6.29163 44.997 6.26497 44.997 6.23832 44.997C6.10175 44.9985 5.97184 44.9985 5.84692 44.9716C5.49881 44.9017 5.19234 44.6811 5.02745 44.381C4.94417 44.2302 4.89754 44.0603 4.88921 43.8921C4.88588 43.7778 4.88588 43.6603 4.88754 43.5412C4.88754 43.4762 4.88754 43.4095 4.88754 43.3444L4.89421 17.6733C4.88588 17.405 4.92252 17.2098 5.01413 17.0399C5.20567 16.6494 5.63539 16.3891 6.08842 16.3891C6.09175 16.3891 6.09675 16.3891 6.10008 16.3891L30.4275 16.3843C30.664 16.378 30.8389 16.4002 30.9988 16.4605C31.1737 16.5224 31.3352 16.6272 31.4635 16.7637C31.5934 16.8986 31.685 17.059 31.7333 17.232C31.7783 17.3796 31.7783 17.5336 31.7783 17.6971L31.7849 29.7032L31.7983 41.5664L31.8016 43.3634C31.7999 43.4444 31.8016 43.5238 31.8016 43.6C31.8066 43.773 31.8099 43.9333 31.7816 44.0762Z" fill="#263238"/>
<path d="M8.3819 36.5515H8.61841V37.3405H9.12974V37.5246H8.3819V36.5515Z" fill="#263238"/>
<path d="M9.22134 36.5516C9.22134 36.4833 9.27797 36.4309 9.36292 36.4309C9.44786 36.4309 9.50449 36.4817 9.50449 36.5484C9.50449 36.6214 9.44786 36.6738 9.36292 36.6738C9.27797 36.6738 9.22134 36.6198 9.22134 36.5516ZM9.24799 36.777H9.47618V37.5247H9.24799V36.777Z" fill="#263238"/>
<path d="M10.4905 37.0977V37.5263H10.2624V37.131C10.2624 37.0104 10.2041 36.9548 10.1041 36.9548C9.99421 36.9548 9.91593 37.0183 9.91593 37.1564V37.5263H9.68774V36.7786H9.90427V36.8659C9.96589 36.8024 10.0575 36.7675 10.1641 36.7675C10.3506 36.7659 10.4905 36.8691 10.4905 37.0977Z" fill="#263238"/>
<path d="M11.0335 37.2326L10.9236 37.3357V37.5262H10.6954V36.4944H10.9236V37.0786L11.2567 36.7785H11.5282L11.2017 37.096L11.5582 37.5262H11.2817L11.0335 37.2326Z" fill="#263238"/>
<path d="M7.88724 19.7957L7.96385 19.6322C8.04713 19.6894 8.17039 19.7306 8.28864 19.7306C8.42355 19.7306 8.47852 19.6878 8.47852 19.6306C8.47852 19.456 7.90722 19.5751 7.90722 19.2274C7.90722 19.0687 8.04213 18.9353 8.32195 18.9353C8.4452 18.9353 8.57179 18.9639 8.6634 19.0179L8.59344 19.1829C8.50183 19.1337 8.40856 19.1099 8.32195 19.1099C8.18704 19.1099 8.13541 19.1575 8.13541 19.2163C8.13541 19.3893 8.7067 19.2703 8.7067 19.6132C8.7067 19.7703 8.57012 19.9037 8.2903 19.9037C8.13207 19.9037 7.97551 19.8592 7.88724 19.7957Z" fill="#263238"/>
<path d="M9.61616 19.4767V19.8879H9.39797V19.5085C9.39797 19.3926 9.34134 19.3386 9.24474 19.3386C9.13981 19.3386 9.06319 19.4005 9.06319 19.5323V19.8879H8.845V18.8957H9.06319V19.2433C9.12149 19.1878 9.20643 19.1576 9.30303 19.1576C9.48125 19.1576 9.61616 19.256 9.61616 19.4767Z" fill="#263238"/>
<path d="M10.4806 19.4767V19.8878H10.2757V19.7989C10.2357 19.864 10.1558 19.8989 10.0459 19.8989C9.86931 19.8989 9.76437 19.8053 9.76437 19.6815C9.76437 19.5545 9.85765 19.4656 10.0892 19.4656H10.2624C10.2624 19.3767 10.2058 19.3243 10.0892 19.3243C10.0092 19.3243 9.92594 19.3497 9.87097 19.391L9.79269 19.2449C9.87597 19.1893 9.99755 19.1576 10.1175 19.1576C10.3473 19.1576 10.4806 19.2592 10.4806 19.4767ZM10.2624 19.6608V19.5878H10.1125C10.0092 19.5878 9.97757 19.6243 9.97757 19.6719C9.97757 19.7243 10.0242 19.7592 10.1008 19.7592C10.1741 19.7577 10.2374 19.7259 10.2624 19.6608Z" fill="#263238"/>
<path d="M11.1467 19.1576V19.3497C11.1284 19.3481 11.1151 19.3465 11.0984 19.3465C10.9785 19.3465 10.8969 19.41 10.8969 19.5465V19.8862H10.6787V19.1671H10.8869V19.2624C10.9402 19.1941 11.0301 19.1576 11.1467 19.1576Z" fill="#263238"/>
<path d="M12.0045 19.5862H11.4332C11.4549 19.6751 11.5348 19.7307 11.6498 19.7307C11.7297 19.7307 11.788 19.7084 11.8396 19.6608L11.9562 19.7815C11.8863 19.8577 11.7813 19.8974 11.6448 19.8974C11.3833 19.8974 11.2134 19.7402 11.2134 19.5275C11.2134 19.3116 11.3866 19.1576 11.6164 19.1576C11.838 19.1576 12.0095 19.2989 12.0095 19.5307C12.0095 19.5465 12.0062 19.5703 12.0045 19.5862ZM11.4316 19.4656H11.803C11.788 19.3751 11.7164 19.3163 11.6181 19.3163C11.5182 19.3148 11.4466 19.3735 11.4316 19.4656Z" fill="#263238"/>
<path d="M27.6976 42.6777H8.79332C7.63741 42.6777 6.70135 41.7839 6.70135 40.6838V40.5044C6.70135 39.4027 7.63908 38.5106 8.79332 38.5106H27.6993C28.8552 38.5106 29.7912 39.4043 29.7912 40.5044V40.6838C29.7912 41.7839 28.8535 42.6777 27.6976 42.6777Z" fill="#EBEBEB"/>
<path d="M30.2676 20.064C31.9013 20.064 33.2256 18.8017 33.2256 17.2446C33.2256 15.6876 31.9013 14.4253 30.2676 14.4253C28.6339 14.4253 27.3095 15.6876 27.3095 17.2446C27.3095 18.8017 28.6339 20.064 30.2676 20.064Z" fill="#799093" stroke="#263238" stroke-width="0.75" stroke-miterlimit="10"/>
<path d="M31.4891 16.4578L31.0699 16.0582L29.1914 17.8486L29.6106 18.2482L31.4891 16.4578Z" fill="white"/>
<path d="M29.6098 16.0569L29.1906 16.4565L31.069 18.2469L31.4883 17.8473L29.6098 16.0569Z" fill="white"/>
<path d="M27.3179 41.4633H26.4284C26.3218 41.4633 26.2352 41.3807 26.2352 41.2791V40.4314C26.2352 40.3298 26.3218 40.2473 26.4284 40.2473H27.3179C27.4245 40.2473 27.5111 40.3298 27.5111 40.4314V41.2791C27.5111 41.3807 27.4245 41.4633 27.3179 41.4633Z" fill="#263238"/>
<path d="M27.8692 40.9377H26.9797C26.8731 40.9377 26.7865 40.8552 26.7865 40.7536V39.9059C26.7865 39.8043 26.8731 39.7217 26.9797 39.7217H27.8692C27.9758 39.7217 28.0624 39.8043 28.0624 39.9059V40.7536C28.0624 40.8552 27.9758 40.9377 27.8692 40.9377Z" fill="#EBEBEB"/>
<path d="M27.8692 41.0171H26.9798C26.8265 41.0171 26.7033 40.8981 26.7033 40.7536V39.9059C26.7033 39.7599 26.8282 39.6424 26.9798 39.6424H27.8692C28.0224 39.6424 28.1457 39.7615 28.1457 39.9059V40.7536C28.1457 40.8997 28.0207 41.0171 27.8692 41.0171ZM26.9798 39.8011C26.9198 39.8011 26.8698 39.8488 26.8698 39.9059V40.7536C26.8698 40.8108 26.9198 40.8584 26.9798 40.8584H27.8692C27.9291 40.8584 27.9791 40.8108 27.9791 40.7536V39.9059C27.9791 39.8488 27.9291 39.8011 27.8692 39.8011H26.9798Z" fill="#263238"/>
<path d="M9.95088 40.6028V41.0553H9.71103V40.6377C9.71103 40.5107 9.64941 40.452 9.54281 40.452C9.42789 40.452 9.34461 40.5203 9.34461 40.6647V41.0553H9.10477V39.9662H9.34461V40.3472C9.40957 40.2853 9.50117 40.2536 9.60777 40.2536C9.80264 40.2536 9.95088 40.3615 9.95088 40.6028Z" fill="#263238"/>
<path d="M10.7021 41.0155C10.6521 41.0488 10.5805 41.0647 10.5072 41.0647C10.3123 41.0647 10.1974 40.9694 10.1974 40.7805V40.4567H10.0692V40.2805H10.1974V40.0884H10.4372V40.2805H10.6438V40.4567H10.4372V40.7789C10.4372 40.8472 10.4756 40.8837 10.5405 40.8837C10.5755 40.8837 10.6121 40.8742 10.6371 40.8551L10.7021 41.0155Z" fill="#263238"/>
<path d="M11.3533 41.0155C11.3033 41.0488 11.2317 41.0647 11.1584 41.0647C10.9635 41.0647 10.8486 40.9694 10.8486 40.7805V40.4567H10.7204V40.2805H10.8486V40.0884H11.0885V40.2805H11.295V40.4567H11.0885V40.7789C11.0885 40.8472 11.1268 40.8837 11.1917 40.8837C11.2267 40.8837 11.2633 40.8742 11.2883 40.8551L11.3533 41.0155Z" fill="#263238"/>
<path d="M12.391 40.6599C12.391 40.9076 12.2111 41.0663 11.978 41.0663C11.8747 41.0663 11.7898 41.0362 11.7281 40.9711V41.3394H11.4883V40.2647H11.7181V40.3551C11.7781 40.2869 11.868 40.252 11.978 40.252C12.2111 40.2535 12.391 40.4107 12.391 40.6599ZM12.1478 40.6599C12.1478 40.5234 12.0579 40.4409 11.9363 40.4409C11.8164 40.4409 11.7248 40.5234 11.7248 40.6599C11.7248 40.7965 11.8164 40.879 11.9363 40.879C12.0562 40.8774 12.1478 40.7965 12.1478 40.6599Z" fill="#263238"/>
<path d="M12.4709 40.9806L12.5508 40.8155C12.6241 40.8615 12.7374 40.8917 12.839 40.8917C12.9506 40.8917 12.9922 40.8631 12.9922 40.8203C12.9922 40.6917 12.4909 40.8234 12.4909 40.5075C12.4909 40.3583 12.6324 40.252 12.874 40.252C12.9872 40.252 13.1138 40.2774 13.1921 40.3202L13.1121 40.4837C13.0305 40.4393 12.9489 40.425 12.874 40.425C12.7657 40.425 12.7207 40.4567 12.7207 40.498C12.7207 40.6329 13.2221 40.5028 13.2221 40.8139C13.2221 40.96 13.0788 41.0647 12.8307 41.0647C12.6891 41.0663 12.5475 41.0298 12.4709 40.9806Z" fill="#263238"/>
<path d="M13.3104 40.3948C13.3104 40.3091 13.377 40.2535 13.4603 40.2535C13.5435 40.2535 13.6102 40.3091 13.6102 40.3948C13.6102 40.479 13.5435 40.5393 13.4603 40.5393C13.377 40.5393 13.3104 40.479 13.3104 40.3948ZM13.3104 40.9219C13.3104 40.8361 13.377 40.7806 13.4603 40.7806C13.5435 40.7806 13.6102 40.8361 13.6102 40.9219C13.6102 41.006 13.5435 41.0663 13.4603 41.0663C13.377 41.0663 13.3104 41.006 13.3104 40.9219Z" fill="#263238"/>
<path d="M14.1997 39.8186H14.4146L13.9066 41.2013H13.6917L14.1997 39.8186Z" fill="#263238"/>
<path d="M14.6911 39.8186H14.906L14.398 41.2013H14.1831L14.6911 39.8186Z" fill="#263238"/>
<path d="M16.2336 40.2646L15.9338 41.0536H15.7022L15.5157 40.5631L15.3225 41.0536H15.091L14.7928 40.2646H15.0194L15.2142 40.7996L15.4174 40.2646H15.6206L15.8172 40.7996L16.0187 40.2646H16.2336Z" fill="#263238"/>
<path d="M17.6559 40.2646L17.3561 41.0536H17.1246L16.9381 40.5631L16.7449 41.0536H16.5133L16.2152 40.2646H16.4417L16.6366 40.7996L16.8398 40.2646H17.043L17.2395 40.7996L17.4411 40.2646H17.6559Z" fill="#263238"/>
<path d="M19.08 40.2646L18.7802 41.0536H18.5487L18.3621 40.5631L18.1689 41.0536H17.9374L17.6393 40.2646H17.8658L18.0606 40.7996L18.2638 40.2646H18.467L18.6636 40.7996L18.8651 40.2646H19.08Z" fill="#263238"/>
<path d="M19.0833 40.9219C19.0833 40.8361 19.1499 40.7806 19.2332 40.7806C19.3165 40.7806 19.3831 40.8361 19.3831 40.9219C19.3831 41.006 19.3165 41.0663 19.2332 41.0663C19.1499 41.0663 19.0833 41.006 19.0833 40.9219Z" fill="#263238"/>
<path d="M19.488 40.9219C19.488 40.8361 19.5546 40.7806 19.6379 40.7806C19.7212 40.7806 19.7878 40.8361 19.7878 40.9219C19.7878 41.006 19.7212 41.0663 19.6379 41.0663C19.5529 41.0663 19.488 41.006 19.488 40.9219Z" fill="#263238"/>
<path d="M19.8911 40.9219C19.8911 40.8361 19.9577 40.7806 20.041 40.7806C20.1243 40.7806 20.1909 40.8361 20.1909 40.9219C20.1909 41.006 20.1243 41.0663 20.041 41.0663C19.9577 41.0663 19.8911 41.006 19.8911 40.9219Z" fill="#263238"/>
<path d="M31.2487 34.8673C31.2487 34.8895 25.5108 34.9085 18.4337 34.9085C11.355 34.9085 5.61713 34.8895 5.61713 34.8673C5.61713 34.845 11.355 34.826 18.4337 34.826C25.5108 34.826 31.2487 34.845 31.2487 34.8673Z" fill="#E0E0E0"/>
<path d="M17.9923 26.1108C19.2755 26.1108 20.3157 25.1193 20.3157 23.8962C20.3157 22.6732 19.2755 21.6817 17.9923 21.6817C16.709 21.6817 15.6688 22.6732 15.6688 23.8962C15.6688 25.1193 16.709 26.1108 17.9923 26.1108Z" fill="#799093" stroke="#263238" stroke-width="0.25" stroke-miterlimit="10"/>
<path d="M25.4457 26.1108C26.729 26.1108 27.7692 25.1193 27.7692 23.8962C27.7692 22.6732 26.729 21.6817 25.4457 21.6817C24.1625 21.6817 23.1223 22.6732 23.1223 23.8962C23.1223 25.1193 24.1625 26.1108 25.4457 26.1108Z" fill="#799093" stroke="#263238" stroke-width="0.25" stroke-miterlimit="10"/>
<path d="M10.4389 26.1108C11.7221 26.1108 12.7624 25.1193 12.7624 23.8962C12.7624 22.6732 11.7221 21.6817 10.4389 21.6817C9.15567 21.6817 8.11542 22.6732 8.11542 23.8962C8.11542 25.1193 9.15567 26.1108 10.4389 26.1108Z" fill="#799093" stroke="#263238" stroke-width="0.25" stroke-miterlimit="10"/>
<path d="M18.0305 32.7273C19.3138 32.7273 20.354 31.7359 20.354 30.5128C20.354 29.2898 19.3138 28.2983 18.0305 28.2983C16.7473 28.2983 15.7071 29.2898 15.7071 30.5128C15.7071 31.7359 16.7473 32.7273 18.0305 32.7273Z" fill="#799093" stroke="#263238" stroke-width="0.25" stroke-miterlimit="10"/>
<path d="M16.7231 30.5651L17.2794 30.7302L17.6192 31.3732L17.954 31.1192L18.452 31.497C18.452 31.497 18.5886 31.5351 18.6385 31.4049C18.6885 31.2747 19.1032 29.727 19.1032 29.727C19.1032 29.727 19.1599 29.5698 18.9567 29.6238L16.7498 30.4064C16.7164 30.4175 16.6898 30.4429 16.6798 30.4747C16.6681 30.5064 16.6715 30.5429 16.7231 30.5651Z" fill="white"/>
<path d="M17.3976 30.6731L17.6292 31.1938C17.6292 31.1938 17.6691 30.8748 17.6725 30.8763L18.6402 30.0143L17.3976 30.6731Z" fill="#799093"/>
<path d="M25.4457 32.6702C26.729 32.6702 27.7692 31.6787 27.7692 30.4557C27.7692 29.2326 26.729 28.2411 25.4457 28.2411C24.1625 28.2411 23.1223 29.2326 23.1223 30.4557C23.1223 31.6787 24.1625 32.6702 25.4457 32.6702Z" fill="#799093" stroke="#263238" stroke-width="0.25" stroke-miterlimit="10"/>
<path d="M10.4389 32.6702C11.7221 32.6702 12.7624 31.6787 12.7624 30.4557C12.7624 29.2326 11.7221 28.2411 10.4389 28.2411C9.15567 28.2411 8.11542 29.2326 8.11542 30.4557C8.11542 31.6787 9.15567 32.6702 10.4389 32.6702Z" fill="#799093" stroke="#263238" stroke-width="0.25" stroke-miterlimit="10"/>
<path d="M9.24133 24.6137C9.45952 24.7471 9.71769 24.8249 9.99418 24.8249C10.9069 24.8249 11.4216 24.0899 11.3899 23.4327C11.4865 23.366 11.5698 23.285 11.6348 23.1898C11.5465 23.2263 11.4516 23.2517 11.3533 23.2628C11.4549 23.2056 11.5332 23.1136 11.5698 23.004C11.4749 23.058 11.3699 23.0961 11.2583 23.1183C11.1684 23.0279 11.0418 22.9707 10.9003 22.9707C10.5838 22.9707 10.3506 23.2533 10.4222 23.5454C10.0142 23.5263 9.65107 23.339 9.40956 23.0564C9.28131 23.2676 9.34294 23.5422 9.56113 23.6819C9.48118 23.6787 9.40456 23.6581 9.33794 23.6232C9.33294 23.8406 9.49617 24.0423 9.73268 24.0883C9.66273 24.1057 9.58778 24.1105 9.51116 24.0962C9.57279 24.282 9.75433 24.4169 9.97086 24.4217C9.76266 24.5741 9.50283 24.6439 9.24133 24.6137Z" fill="white"/>
<path d="M17.6292 25.0773H18.1289V23.8867H18.477L18.5136 23.4882H18.1289C18.1289 23.4882 18.1289 23.339 18.1289 23.2612C18.1289 23.1676 18.1488 23.1295 18.2438 23.1295C18.3204 23.1295 18.5136 23.1295 18.5136 23.1295V22.7151C18.5136 22.7151 18.2288 22.7151 18.1688 22.7151C17.7974 22.7151 17.6292 22.8707 17.6292 23.1692C17.6292 23.4295 17.6292 23.4867 17.6292 23.4867H17.3694V23.8899H17.6292V25.0773Z" fill="white"/>
<path fill-rule="evenodd" clip-rule="evenodd" d="M26.8415 23.7454C26.8232 23.0818 26.2502 22.5484 25.544 22.5484C24.8461 22.5484 24.2765 23.0691 24.2465 23.7231C24.2465 23.7406 24.2449 23.7596 24.2449 23.7771C24.2449 24.0089 24.3132 24.2264 24.4314 24.4121L24.1966 25.0709L24.9161 24.8534C25.1026 24.9503 25.3158 25.0058 25.544 25.0058C26.2619 25.0058 26.8432 24.4565 26.8432 23.7771C26.8415 23.766 26.8415 23.7549 26.8415 23.7454ZM25.544 24.809C25.3225 24.809 25.116 24.7471 24.9427 24.6375L24.523 24.7645L24.6596 24.3803C24.5297 24.2105 24.4514 24.0009 24.4514 23.7755C24.4514 23.7422 24.4531 23.7088 24.4564 23.6755C24.5097 23.1532 24.9761 22.7437 25.5424 22.7437C26.1153 22.7437 26.5867 23.1643 26.63 23.6961C26.6316 23.7231 26.6333 23.7501 26.6333 23.7771C26.635 24.3454 26.1453 24.809 25.544 24.809Z" fill="white"/>
<path fill-rule="evenodd" clip-rule="evenodd" d="M26.1386 24.0248C26.1069 24.0105 25.9504 23.9374 25.9204 23.9263C25.8904 23.9152 25.8704 23.912 25.8488 23.9406C25.8271 23.9708 25.7655 24.039 25.7472 24.0581C25.7289 24.0787 25.7105 24.0803 25.6772 24.066C25.6456 24.0517 25.5423 24.02 25.4207 23.9168C25.3258 23.8374 25.2625 23.739 25.2442 23.7089C25.2259 23.6787 25.2425 23.6628 25.2575 23.6469C25.2725 23.6327 25.2891 23.612 25.3058 23.5946C25.3108 23.5898 25.3141 23.585 25.3175 23.5803C25.3241 23.5692 25.3308 23.558 25.3374 23.5438C25.3491 23.5231 25.3424 23.5057 25.3358 23.4914C25.3275 23.4771 25.2642 23.3279 25.2375 23.2675C25.2109 23.2072 25.1842 23.2183 25.1659 23.2183C25.1476 23.2183 25.1259 23.2151 25.1059 23.2151C25.0843 23.2151 25.0493 23.2231 25.021 23.2532C24.991 23.2834 24.9094 23.3564 24.9094 23.5041C24.9094 23.539 24.9161 23.5739 24.9261 23.6073C24.9577 23.7136 25.0276 23.8009 25.0393 23.8152C25.0543 23.8343 25.2592 24.1486 25.5823 24.2692C25.9071 24.3899 25.9071 24.3486 25.9654 24.3438C26.0237 24.3391 26.1536 24.2708 26.1802 24.201C26.2069 24.1311 26.2069 24.0708 26.1986 24.0581C26.1919 24.047 26.1702 24.039 26.1386 24.0248Z" fill="white"/>
<path d="M10.4389 29.5301C10.7437 29.5301 10.7803 29.5317 10.9019 29.5364C11.0135 29.5412 11.0735 29.5587 11.1151 29.5745C11.1684 29.5936 11.2067 29.6174 11.2467 29.6555C11.2866 29.6936 11.3116 29.7301 11.3316 29.7809C11.3466 29.819 11.3666 29.8778 11.3716 29.9841C11.3766 30.0984 11.3783 30.1333 11.3783 30.4254C11.3783 30.7175 11.3766 30.7509 11.3716 30.8668C11.3666 30.9731 11.3483 31.0303 11.3316 31.07C11.3116 31.1207 11.2866 31.1573 11.2467 31.1954C11.2067 31.2335 11.1684 31.2573 11.1151 31.2763C11.0751 31.2906 11.0135 31.3097 10.9019 31.3144C10.782 31.3192 10.7453 31.3208 10.4389 31.3208C10.1324 31.3208 10.0974 31.3192 9.97584 31.3144C9.86424 31.3097 9.80428 31.2922 9.76264 31.2763C9.70934 31.2573 9.67104 31.2335 9.63107 31.1954C9.59109 31.1573 9.56611 31.1207 9.54612 31.07C9.53113 31.0319 9.51114 30.9731 9.50615 30.8668C9.50115 30.7525 9.49948 30.7175 9.49948 30.4254C9.49948 30.1333 9.50115 30.1 9.50615 29.9841C9.51114 29.8778 9.52946 29.8206 9.54612 29.7809C9.56611 29.7301 9.59109 29.6936 9.63107 29.6555C9.67104 29.6174 9.70934 29.5936 9.76264 29.5745C9.80262 29.5603 9.86424 29.5412 9.97584 29.5364C10.0974 29.5317 10.1324 29.5301 10.4389 29.5301ZM10.4389 29.3333C10.1274 29.3333 10.0891 29.3348 9.96751 29.3396C9.84592 29.3444 9.76264 29.3634 9.68936 29.3904C9.61441 29.419 9.54945 29.4555 9.48616 29.5158C9.42287 29.5761 9.38289 29.638 9.35458 29.7095C9.32627 29.7793 9.30628 29.8587 9.30128 29.9746C9.29628 30.0905 9.29462 30.1286 9.29462 30.4238C9.29462 30.7207 9.29628 30.7572 9.30128 30.8731C9.30628 30.989 9.32627 31.0684 9.35458 31.1382C9.38456 31.2096 9.42287 31.2716 9.48616 31.3319C9.54945 31.3922 9.61441 31.4303 9.68936 31.4573C9.76264 31.4843 9.84592 31.5033 9.96751 31.5081C10.0891 31.5129 10.1291 31.5144 10.4389 31.5144C10.7503 31.5144 10.7886 31.5129 10.9102 31.5081C11.0318 31.5033 11.1151 31.4843 11.1884 31.4573C11.2633 31.4287 11.3283 31.3922 11.3916 31.3319C11.4549 31.2716 11.4948 31.2096 11.5232 31.1382C11.5515 31.0684 11.5715 30.989 11.5765 30.8731C11.5815 30.7572 11.5831 30.7191 11.5831 30.4238C11.5831 30.127 11.5815 30.0905 11.5765 29.9746C11.5715 29.8587 11.5515 29.7793 11.5232 29.7095C11.4932 29.638 11.4549 29.5761 11.3916 29.5158C11.3283 29.4555 11.2633 29.4174 11.1884 29.3904C11.1151 29.3634 11.0318 29.3444 10.9102 29.3396C10.7886 29.3348 10.7503 29.3333 10.4389 29.3333Z" fill="white"/>
<path d="M10.4389 29.8651C10.1141 29.8651 9.85095 30.1159 9.85095 30.4255C9.85095 30.735 10.1141 30.9859 10.4389 30.9859C10.7637 30.9859 11.0268 30.735 11.0268 30.4255C11.0268 30.1159 10.7637 29.8651 10.4389 29.8651ZM10.4389 30.789C10.2274 30.789 10.0575 30.6255 10.0575 30.4255C10.0575 30.2239 10.229 30.062 10.4389 30.062C10.6504 30.062 10.8203 30.2255 10.8203 30.4255C10.8203 30.6255 10.6488 30.789 10.4389 30.789Z" fill="white"/>
<path d="M11.1868 29.8429C11.1868 29.9159 11.1252 29.973 11.0502 29.973C10.9736 29.973 10.9136 29.9143 10.9136 29.8429C10.9136 29.7698 10.9753 29.7127 11.0502 29.7127C11.1252 29.7111 11.1868 29.7698 11.1868 29.8429Z" fill="white"/>
<path d="M26.5701 31.3335H24.3215V29.7H26.5701V31.3335ZM24.4864 31.1764H26.4068V29.8556H24.4864V31.1764Z" fill="white"/>
<path d="M25.4791 30.6922L24.3531 29.8397L24.4548 29.7175L25.4757 30.4906L26.4351 29.7191L26.5417 29.8381L25.4791 30.6922Z" fill="white"/>
<path d="M25.1783 30.3564L24.3473 31.1538L24.4631 31.2634L25.2941 30.466L25.1783 30.3564Z" fill="white"/>
<path d="M25.8269 30.356L25.7007 30.4547L26.4302 31.3031L26.5565 31.2045L25.8269 30.356Z" fill="white"/>
<path d="M6.83625 7.64834C6.7996 7.64834 6.7613 7.63723 6.73131 7.61183L5.74696 6.84191C5.70865 6.81174 5.687 6.7673 5.68533 6.72126C5.68533 6.67363 5.70532 6.62918 5.74362 6.59902L6.72798 5.791C6.79793 5.73385 6.90287 5.74179 6.96283 5.80846C7.02279 5.87513 7.01446 5.97514 6.94451 6.03229L6.11172 6.7165L6.94284 7.36577C7.01446 7.42133 7.02446 7.52135 6.96616 7.58961C6.93285 7.62929 6.88455 7.64834 6.83625 7.64834Z" fill="#263238"/>
</svg>
