<svg width="8" height="9" viewBox="0 0 8 9" fill="none" xmlns="http://www.w3.org/2000/svg">
<path d="M5.22149 8.53072C5.22301 8.52272 5.28045 8.58275 5.40138 8.57074C5.46034 8.56074 5.53441 8.52672 5.59487 8.44268C5.65231 8.36064 5.69464 8.22858 5.75511 8.09851C5.98941 7.55825 6.32349 6.78589 6.73617 5.83343C6.84047 5.59532 6.94931 5.3452 7.06269 5.08307C7.12013 4.95301 7.17757 4.81895 7.23652 4.68488C7.26525 4.61685 7.30001 4.54882 7.31664 4.48279C7.33327 4.41475 7.33478 4.34072 7.32118 4.26869C7.30757 4.19865 7.27734 4.13462 7.23501 4.0866C7.1942 4.04258 7.13222 4.00456 7.07931 3.96454C6.96896 3.8825 6.8571 3.80046 6.74373 3.71642C6.51547 3.54834 6.28267 3.37426 6.04232 3.19617C5.08242 2.48183 4.02729 1.69946 2.91925 0.877065C2.79681 0.78302 2.62902 0.84505 2.55192 0.999123C2.47332 1.17721 2.39471 1.35329 2.31762 1.52938C2.16192 1.88354 2.00924 2.23171 1.85807 2.57387C1.55574 3.2582 1.26551 3.91852 0.987363 4.54882C0.952595 4.62686 0.917828 4.70489 0.884571 4.78293C0.849803 4.85496 0.834687 4.931 0.836198 5.01104C0.839222 5.08908 0.860385 5.16711 0.898177 5.22514C0.932945 5.28717 0.988875 5.31919 1.04783 5.36521C1.27458 5.53529 1.49528 5.69937 1.70842 5.85945C2.13319 6.1796 2.53076 6.47574 2.89355 6.74787C3.6131 7.29213 4.1966 7.73234 4.60625 8.04249C4.80428 8.19456 4.95998 8.31462 5.07033 8.39866C5.12021 8.43868 5.15952 8.46869 5.18975 8.4927C5.20789 8.51671 5.22149 8.52872 5.22149 8.53072C5.22149 8.53272 5.20638 8.52272 5.17766 8.50471C5.14591 8.4827 5.1051 8.45468 5.0537 8.41867C4.94184 8.33863 4.78312 8.22458 4.58207 8.07851C4.16939 7.77636 3.58135 7.34416 2.85727 6.8139C2.49297 6.54577 2.0954 6.25163 1.66761 5.93548C1.45446 5.77741 1.23225 5.61333 1.0055 5.44525C0.952596 5.40323 0.88306 5.36521 0.836198 5.28517C0.787826 5.21114 0.760616 5.11309 0.757593 5.01504C0.75457 4.91699 0.777244 4.81495 0.815035 4.73491C0.849803 4.65687 0.88306 4.57883 0.917828 4.5008C1.19446 3.8705 1.48319 3.20818 1.784 2.52185C1.93366 2.17969 2.08784 1.82952 2.24203 1.47535C2.32064 1.29726 2.39924 1.11918 2.47936 0.937091C2.57611 0.740997 2.79076 0.660961 2.94949 0.78302C4.05601 1.60741 5.10963 2.39379 6.06953 3.11013C6.30837 3.29022 6.54268 3.4643 6.76942 3.63438C6.8828 3.71842 6.99466 3.80246 7.10501 3.8845C7.15943 3.92852 7.21385 3.95854 7.27129 4.01857C7.3242 4.07859 7.36199 4.15863 7.37862 4.24467C7.39525 4.33072 7.39222 4.42276 7.37257 4.5068C7.3499 4.59284 7.31362 4.65487 7.28641 4.7229C7.22745 4.85697 7.1685 4.99103 7.11106 5.11909C6.99617 5.37922 6.88582 5.62733 6.78001 5.86545C6.35977 6.8099 6.01813 7.57627 5.77778 8.11452C5.71429 8.24459 5.67348 8.37065 5.60848 8.46069C5.54196 8.54673 5.46185 8.58074 5.39987 8.58675C5.33638 8.59275 5.28952 8.57474 5.2608 8.55673C5.23359 8.54673 5.22149 8.53072 5.22149 8.53072Z" fill="#E0E0E0"/>
<path d="M4.42189 4.42873L4.80283 5.32516L4.01677 5.34317L3.23071 5.36318L3.63584 4.44874L4.04096 3.5343L4.42189 4.42873Z" fill="#E0E0E0"/>
</svg>
