<svg width="12" height="17" viewBox="0 0 12 17" fill="none" xmlns="http://www.w3.org/2000/svg">
<path d="M2.68834 1.02642L2.38556 14.1603L9.63635 14.4532L9.93913 1.3193L2.68834 1.02642Z" fill="#F5F5F5" stroke="black" stroke-width="0.5" stroke-miterlimit="10"/>
<path d="M1.3524 2.77117L1.04962 15.9051L8.30041 16.198L8.60319 3.06405L1.3524 2.77117Z" fill="white" stroke="black" stroke-width="0.5" stroke-miterlimit="10"/>
<path d="M8.30204 16.1978C8.30204 16.1978 8.30077 16.1758 8.30204 16.1335C8.30204 16.0895 8.30333 16.0285 8.30461 15.9472C8.30716 15.7812 8.31228 15.5407 8.3174 15.2291C8.33019 14.6008 8.34811 13.6879 8.37114 12.5312C8.42103 10.2195 8.4914 6.94073 8.57457 3.06243L8.60399 3.10307C6.41999 3.0167 3.95451 2.91847 1.35341 2.81347H1.35213L1.38668 2.77113C1.27153 7.67743 1.16406 12.2179 1.07705 15.9048L1.05019 15.8676C3.24315 15.9641 5.05227 16.0437 6.31508 16.0996C6.94584 16.1284 7.44098 16.1521 7.78004 16.1674C7.94764 16.1758 8.07686 16.1826 8.16642 16.1877C8.25598 16.1928 8.30204 16.1978 8.30204 16.1978C8.30204 16.1978 8.25982 16.1995 8.1741 16.1961C8.08582 16.1928 7.95916 16.1894 7.79283 16.1843C7.45506 16.1724 6.96247 16.1555 6.33427 16.1352C5.06762 16.0878 3.2521 16.0217 1.05147 15.9404L1.0246 15.9387L1.02588 15.9032C1.10904 12.2162 1.2114 7.67574 1.32271 2.76944L1.32399 2.7254L1.35725 2.7271H1.35853C3.95963 2.83379 6.42511 2.93541 8.60783 3.02347L8.63854 3.02517L8.63726 3.06581C8.5413 6.95597 8.4607 10.2432 8.40312 12.56C8.37369 13.7117 8.34939 14.6228 8.33275 15.2477C8.3238 15.556 8.3174 15.7931 8.31228 15.9574C8.30972 16.0353 8.30716 16.0945 8.30588 16.1386C8.30332 16.1775 8.30204 16.1978 8.30204 16.1978Z" fill="#E0E0E0"/>
<path d="M8.30204 16.1978C8.30204 16.1978 8.30077 16.1758 8.30204 16.1335C8.30204 16.0895 8.30333 16.0285 8.30461 15.9472C8.30716 15.7812 8.31228 15.5407 8.3174 15.2291C8.33019 14.6008 8.34811 13.6879 8.37114 12.5312C8.42103 10.2195 8.4914 6.94073 8.57457 3.06243L8.60399 3.10307C6.41999 3.0167 3.95451 2.91847 1.35341 2.81347H1.35213L1.38668 2.77113C1.27153 7.67743 1.16406 12.2179 1.07705 15.9048L1.05019 15.8676C3.24315 15.9641 5.05227 16.0437 6.31508 16.0996C6.94584 16.1284 7.44098 16.1521 7.78004 16.1674C7.94764 16.1758 8.07686 16.1826 8.16642 16.1877C8.25598 16.1928 8.30204 16.1978 8.30204 16.1978ZM8.30204 16.1978C8.30204 16.1978 8.25982 16.1995 8.1741 16.1961C8.08582 16.1928 7.95916 16.1894 7.79283 16.1843C7.45506 16.1724 6.96247 16.1555 6.33427 16.1352C5.06762 16.0878 3.2521 16.0217 1.05147 15.9404L1.0246 15.9387L1.02588 15.9032C1.10904 12.2162 1.2114 7.67574 1.32271 2.76944L1.32399 2.7254L1.35725 2.7271H1.35853C3.95963 2.83379 6.42511 2.93541 8.60783 3.02347L8.63854 3.02517L8.63726 3.06581C8.5413 6.95597 8.4607 10.2432 8.40312 12.56C8.37369 13.7117 8.34939 14.6228 8.33275 15.2477C8.3238 15.556 8.3174 15.7931 8.31228 15.9574C8.30972 16.0353 8.30716 16.0945 8.30588 16.1386C8.30332 16.1775 8.30204 16.1978 8.30204 16.1978Z" stroke="black" stroke-width="0.5" stroke-miterlimit="10"/>
<path d="M5.77388 5.81107C5.77388 5.83478 4.98446 5.82292 4.01081 5.78397C3.03716 5.74501 2.24903 5.69252 2.25031 5.66881C2.25031 5.64509 3.03972 5.65695 4.01337 5.6959C4.98575 5.73486 5.77388 5.78566 5.77388 5.81107Z" fill="#E0E0E0" stroke="black" stroke-width="0.5" stroke-miterlimit="10"/>
<path d="M7.65327 7.02883C7.65327 7.05254 6.43652 7.02375 4.9383 6.96278C3.4388 6.90181 2.22461 6.83407 2.22461 6.80867C2.22461 6.78326 3.44136 6.81375 4.94086 6.87471C6.4378 6.93568 7.65327 7.00512 7.65327 7.02883Z" fill="#E0E0E0" stroke="black" stroke-width="0.5" stroke-miterlimit="10"/>
<path d="M7.62525 8.21941C7.62525 8.24312 6.40851 8.21433 4.91029 8.15336C3.41078 8.09239 2.19659 8.02465 2.19659 7.99925C2.19659 7.97554 3.41334 8.00433 4.91284 8.0653C6.41107 8.12626 7.62653 8.1957 7.62525 8.21941Z" fill="#E0E0E0" stroke="black" stroke-width="0.5" stroke-miterlimit="10"/>
<path d="M7.59833 9.40996C7.59833 9.43367 6.38159 9.40488 4.88337 9.34391C3.38386 9.28294 2.16968 9.2152 2.16968 9.1898C2.16968 9.16609 3.38643 9.19488 4.88593 9.25585C6.38287 9.31682 7.59833 9.38625 7.59833 9.40996Z" fill="#E0E0E0" stroke="black" stroke-width="0.5" stroke-miterlimit="10"/>
<path d="M7.5702 10.6005C7.5702 10.6243 6.35345 10.5955 4.85523 10.5345C3.35573 10.4735 2.14154 10.4058 2.14154 10.3804C2.14154 10.355 3.35829 10.3855 4.85779 10.4464C6.35601 10.5074 7.57148 10.5768 7.5702 10.6005Z" fill="#E0E0E0" stroke="black" stroke-width="0.5" stroke-miterlimit="10"/>
<path d="M7.54334 11.7912C7.54334 11.8149 6.3266 11.7861 4.82837 11.7251C3.32887 11.6642 2.11469 11.5964 2.11469 11.571C2.11469 11.5473 3.33143 11.5761 4.83093 11.6371C6.32787 11.698 7.54334 11.7675 7.54334 11.7912Z" fill="#E0E0E0" stroke="black" stroke-width="0.5" stroke-miterlimit="10"/>
<path d="M7.51514 12.9817C7.51514 13.0055 6.2984 12.9767 4.80017 12.9157C3.30067 12.8547 2.08649 12.787 2.08649 12.7616C2.08649 12.7379 3.30323 12.7667 4.80273 12.8276C6.30095 12.8886 7.51642 12.958 7.51514 12.9817Z" fill="#E0E0E0" stroke="black" stroke-width="0.5" stroke-miterlimit="10"/>
<path d="M4.97681 14.0707C4.97681 14.0944 4.32302 14.0876 3.51697 14.0554C2.71092 14.0233 2.05841 13.9775 2.05841 13.9521C2.05841 13.9284 2.7122 13.9352 3.51825 13.9674C4.3243 14.0012 4.97809 14.047 4.97681 14.0707Z" fill="#E0E0E0" stroke="black" stroke-width="0.5" stroke-miterlimit="10"/>
</svg>
