<svg width="14" height="14" viewBox="0 0 14 14" fill="none" xmlns="http://www.w3.org/2000/svg">
<path d="M3.81273 1.03932L1.22424 8.5827L9.35608 12.3389L11.9446 4.79555L3.81273 1.03932Z" fill="#92E3A9" stroke="#263238" stroke-width="0.5" stroke-miterlimit="10" stroke-linecap="round" stroke-linejoin="round"/>
<path d="M11.9436 4.7971C11.9436 4.7971 11.9304 4.79202 11.9042 4.78017C11.8779 4.76831 11.8399 4.75138 11.7903 4.72767C11.6896 4.68194 11.5422 4.6142 11.3495 4.52613C10.9641 4.3483 10.3992 4.08919 9.68395 3.76063C8.2549 3.10183 6.22299 2.16697 3.80718 1.05429L3.8247 1.04582C3.05544 3.29151 2.17232 5.86406 1.23811 8.58903L1.22935 8.56701C4.23926 9.95914 7.03751 11.2513 9.3599 12.3268L9.34384 12.3352C10.1262 10.0641 10.7743 8.18088 11.2283 6.86496C11.456 6.20616 11.6341 5.69131 11.7553 5.33905C11.8166 5.16292 11.8633 5.02912 11.8939 4.93767C11.9261 4.84452 11.9436 4.7971 11.9436 4.7971C11.9436 4.7971 11.929 4.84283 11.8983 4.93428C11.8677 5.02574 11.8224 5.15953 11.7626 5.33566C11.6429 5.68793 11.4662 6.20447 11.2429 6.86158C10.7919 8.18088 10.1467 10.0692 9.36719 12.3454L9.36281 12.3589L9.35114 12.3539C7.02729 11.2818 4.22904 9.98962 1.21913 8.60088L1.20599 8.59411L1.21183 8.57887C2.1475 5.85559 3.03062 3.28304 3.80134 1.03735L3.80572 1.0238L3.8174 1.02888C6.23467 2.14834 8.26804 3.09167 9.69709 3.75386C10.4094 4.0858 10.9729 4.34661 11.3568 4.52444C11.548 4.6142 11.6954 4.68194 11.7947 4.72936C11.8443 4.75307 11.8808 4.77 11.9071 4.78186C11.9319 4.79033 11.9436 4.7971 11.9436 4.7971Z" fill="#92E3A9"/>
<path d="M11.9436 4.7971C11.9436 4.7971 11.9304 4.79202 11.9042 4.78017C11.8779 4.76831 11.8399 4.75138 11.7903 4.72767C11.6896 4.68194 11.5422 4.6142 11.3495 4.52613C10.9641 4.3483 10.3992 4.08919 9.68395 3.76063C8.2549 3.10183 6.22299 2.16697 3.80718 1.05429L3.8247 1.04582C3.05544 3.29151 2.17232 5.86406 1.23811 8.58903L1.22935 8.56701C4.23926 9.95914 7.03751 11.2513 9.3599 12.3268L9.34384 12.3352C10.1262 10.0641 10.7743 8.18088 11.2283 6.86496C11.456 6.20616 11.6341 5.69131 11.7553 5.33905C11.8166 5.16292 11.8633 5.02912 11.8939 4.93767C11.9261 4.84452 11.9436 4.7971 11.9436 4.7971ZM11.9436 4.7971C11.9436 4.7971 11.929 4.84283 11.8983 4.93428C11.8677 5.02574 11.8224 5.15953 11.7626 5.33566C11.6429 5.68793 11.4662 6.20447 11.2429 6.86158C10.7919 8.18088 10.1467 10.0692 9.36719 12.3454L9.36281 12.3589L9.35114 12.3539C7.02729 11.2818 4.22904 9.98962 1.21913 8.60088L1.20599 8.59411L1.21183 8.57887C2.1475 5.85559 3.03062 3.28304 3.80134 1.03735L3.80572 1.0238L3.8174 1.02888C6.23467 2.14834 8.26804 3.09167 9.69709 3.75386C10.4094 4.0858 10.9729 4.34661 11.3568 4.52444C11.548 4.6142 11.6954 4.68194 11.7947 4.72936C11.8443 4.75307 11.8808 4.77 11.9071 4.78186C11.9319 4.79033 11.9436 4.7971 11.9436 4.7971Z" stroke="#263238" stroke-width="0.5" stroke-miterlimit="10" stroke-linecap="round" stroke-linejoin="round"/>
<path d="M3.92509 1.6503L1.66272 8.24329L9.22359 11.7358L11.486 5.14279L3.92509 1.6503Z" fill="#92E3A9" stroke="#263238" stroke-width="0.5" stroke-miterlimit="10" stroke-linecap="round" stroke-linejoin="round"/>
<path d="M1.69202 8.26556L5.73977 5.38647L6.4959 8.70589L8.0753 7.84894L9.25328 11.7577L1.69202 8.26556Z" fill="white" stroke="#263238" stroke-width="0.5" stroke-miterlimit="10" stroke-linecap="round" stroke-linejoin="round"/>
<path d="M8.24169 5.96057C8.11031 6.34163 7.73809 6.52792 7.40965 6.3755C7.08122 6.22307 6.92066 5.79121 7.05203 5.41016C7.1834 5.0291 7.55562 4.84281 7.88406 4.99523C8.21249 5.14765 8.37306 5.57951 8.24169 5.96057Z" fill="white" stroke="#263238" stroke-width="0.5" stroke-miterlimit="10" stroke-linecap="round" stroke-linejoin="round"/>
</svg>
