<svg width="143" height="128" viewBox="0 0 143 128" fill="none" xmlns="http://www.w3.org/2000/svg">
<g clip-path="url(#clip0_2708_20)">
<path d="M135.133 24.8708C134.666 24.0761 134.173 23.299 133.659 22.5368C126.81 12.3881 115.025 5.44805 103.431 2.31039C98.3555 0.936556 93.1113 0.215662 87.8582 0.0383929C53.403 -1.13158 39.6795 26.0231 28.2929 33.0311C16.9063 40.0391 -0.613772 52.0077 0.556203 77.1179C1.72618 102.228 19.8253 125.879 54.8625 127.338C89.8998 128.798 92.2367 113.033 111.798 107.192C124.745 103.327 133.942 90.2742 138.448 78.2111C144.587 61.7723 144.298 40.4203 135.133 24.8708Z" fill="#92E3A9"/>
<path opacity="0.7" d="M135.133 24.8708C134.666 24.0761 134.173 23.299 133.659 22.5368C126.81 12.3881 115.025 5.44805 103.431 2.31039C98.3555 0.936556 93.1113 0.215662 87.8582 0.0383929C53.403 -1.13158 39.6795 26.0231 28.2929 33.0311C16.9063 40.0391 -0.613772 52.0077 0.556203 77.1179C1.72618 102.228 19.8253 125.879 54.8625 127.338C89.8998 128.798 92.2367 113.033 111.798 107.192C124.745 103.327 133.942 90.2742 138.448 78.2111C144.587 61.7723 144.298 40.4203 135.133 24.8708Z" fill="white"/>
<path d="M26.402 124.292C30.491 120.948 31.0198 115.322 30.4407 110.35C30.3432 109.52 30.3639 108.636 29.903 107.939C29.4421 107.242 28.4671 106.819 27.7403 107.233C27.1376 107.576 26.9249 108.317 26.6235 108.941C26.2217 109.771 25.5806 110.483 24.7977 110.967C24.2836 111.286 23.6336 111.508 23.0782 111.266C22.3189 110.929 22.1505 109.945 22.0884 109.118C21.9732 107.576 21.855 106.033 21.7398 104.488C21.6777 103.661 21.6098 102.816 21.2848 102.051C20.9598 101.286 20.3246 100.606 19.5092 100.449C18.6937 100.296 17.7453 100.831 17.6419 101.655C17.6006 101.998 17.6981 102.343 17.704 102.686C17.7099 103.032 17.5769 103.425 17.2549 103.549C16.9269 103.673 16.5724 103.466 16.3035 103.244C15.3699 102.479 14.6933 101.451 14.0581 100.426C13.4229 99.4006 12.7995 98.3488 11.9398 97.5038C11.08 96.6559 9.93368 96.0236 8.72825 96.0561C7.52282 96.0886 6.30262 96.9247 6.09285 98.1124C5.88308 99.3031 6.67193 100.432 7.49918 101.312C8.72825 102.621 10.1464 103.753 11.6945 104.657C11.9752 104.819 12.2766 104.996 12.4036 105.295C12.6311 105.833 12.1466 106.423 11.6089 106.651C11.0002 106.908 10.3178 106.899 9.67073 107.029C9.0237 107.159 8.33826 107.502 8.1403 108.131C7.86554 109.006 8.65438 109.833 9.40778 110.356C10.9146 111.402 12.6016 112.188 14.3743 112.669C15.0095 112.841 15.6742 112.982 16.206 113.369C16.7378 113.756 17.0983 114.474 16.8472 115.083C16.5931 115.692 15.8367 115.943 15.1838 115.878C14.5279 115.813 13.9222 115.514 13.287 115.337C12.0993 115.003 10.6191 115.204 9.96027 116.247C9.52891 116.933 9.55846 117.837 9.86868 118.587C10.1759 119.337 10.7284 119.958 11.3075 120.528C13.3284 122.514 15.8338 124.041 18.5814 124.735C21.3291 125.427 23.8257 125.471 26.402 124.292Z" fill="#92E3A9"/>
<path d="M26.7593 127.982C26.4136 126.023 25.7843 123.728 24.83 121.279C23.8816 118.826 22.6141 116.22 21.193 113.544C20.8355 112.876 20.484 112.214 20.1353 111.564C19.7867 110.914 19.441 110.273 19.0629 109.664C18.3124 108.444 17.497 107.327 16.6904 106.29C15.8838 105.253 15.0773 104.299 14.318 103.41C13.5557 102.523 12.8319 101.711 12.1375 100.996C10.7549 99.5631 9.50511 98.5408 8.61876 97.8731C8.17559 97.5363 7.82401 97.2881 7.58174 97.1227C7.46356 97.0429 7.37197 96.9809 7.30697 96.9365C7.24493 96.8952 7.20947 96.8774 7.20947 96.8774C7.20947 96.8774 7.23902 96.904 7.29811 96.9484C7.36311 96.9956 7.45174 97.0606 7.56697 97.1463C7.80332 97.3177 8.149 97.5747 8.58922 97.9145C9.4667 98.594 10.7046 99.6222 12.0755 101.058C12.7639 101.773 13.4818 102.588 14.2382 103.478C14.9945 104.367 15.7952 105.324 16.5959 106.361C17.3995 107.398 18.209 108.512 18.9565 109.729C19.3317 110.335 19.6744 110.973 20.0231 111.626C20.3717 112.276 20.7233 112.938 21.0808 113.606C22.4989 116.282 23.7664 118.879 24.7207 121.326C25.6779 123.769 26.3161 126.053 26.6706 128.003" fill="#E0E0E0"/>
<path d="M19.0305 109.656C19.0394 109.656 19.0541 109.529 19.0778 109.295C19.1014 109.062 19.125 108.725 19.1487 108.308C19.196 107.475 19.2255 106.32 19.255 105.05C19.2846 103.776 19.3319 102.627 19.3998 101.797C19.4323 101.38 19.4619 101.046 19.4855 100.813C19.5091 100.579 19.518 100.452 19.5091 100.449C19.5003 100.449 19.4766 100.577 19.4382 100.807C19.3998 101.037 19.3555 101.374 19.3112 101.788C19.2225 102.618 19.1575 103.773 19.128 105.047C19.1014 106.308 19.0778 107.449 19.0571 108.305C19.0453 108.704 19.0335 109.035 19.0246 109.292C19.0216 109.526 19.0246 109.653 19.0305 109.656Z" fill="#E0E0E0"/>
<path d="M8.08984 108.554C8.08984 108.557 8.12825 108.56 8.20211 108.563C8.29075 108.563 8.39711 108.563 8.52415 108.563C8.80187 108.563 9.20664 108.56 9.70299 108.574C10.6987 108.595 12.0754 108.675 13.5852 108.828C15.0979 108.985 16.4599 109.186 17.4408 109.363C17.9312 109.446 18.3271 109.526 18.6019 109.579C18.726 109.603 18.8323 109.623 18.918 109.638C18.9919 109.65 19.0303 109.656 19.0303 109.65C19.0303 109.647 18.9948 109.632 18.9239 109.611C18.8383 109.588 18.7378 109.561 18.6137 109.529C18.3419 109.461 17.949 109.366 17.4585 109.272C16.4806 109.074 15.1156 108.858 13.597 108.701C12.0814 108.548 10.7016 108.483 9.70299 108.483C9.20368 108.48 8.79892 108.495 8.5212 108.509C8.39416 108.518 8.28779 108.524 8.19916 108.533C8.12825 108.545 8.08984 108.551 8.08984 108.554Z" fill="#E0E0E0"/>
<path d="M24.6943 121.089C24.6972 121.089 24.7179 121.045 24.7534 120.954C24.7918 120.85 24.842 120.717 24.9041 120.552C25.0341 120.203 25.2084 119.695 25.4181 119.063C25.8347 117.801 26.3606 116.04 26.9131 114.087C27.4656 112.137 27.9767 110.374 28.3726 109.106C28.5706 108.486 28.7301 107.975 28.8483 107.605C28.9015 107.44 28.9428 107.304 28.9753 107.198C29.0019 107.103 29.0167 107.053 29.0108 107.053C29.0078 107.053 28.9872 107.097 28.9517 107.189C28.9133 107.292 28.8631 107.425 28.801 107.59C28.671 107.939 28.4967 108.447 28.2869 109.08C27.8674 110.341 27.3445 112.102 26.792 114.055C26.2395 116.005 25.7284 117.769 25.3325 119.036C25.1345 119.657 24.975 120.168 24.8568 120.537C24.8036 120.702 24.7622 120.838 24.7297 120.945C24.7032 121.039 24.6913 121.089 24.6943 121.089Z" fill="#E0E0E0"/>
<path d="M9.99854 117.715C9.99854 117.718 10.0488 117.733 10.1463 117.76C10.2585 117.786 10.4003 117.819 10.5747 117.86C10.9617 117.949 11.4965 118.07 12.1494 118.221C13.4789 118.525 15.3107 118.971 17.3316 119.464C19.3554 119.961 21.1901 120.392 22.5255 120.676C23.1933 120.818 23.7339 120.927 24.1091 120.998C24.2864 121.03 24.4312 121.057 24.5405 121.075C24.641 121.092 24.6912 121.098 24.6941 121.092C24.6941 121.089 24.6439 121.075 24.5464 121.048C24.4371 121.021 24.2953 120.989 24.118 120.948C23.731 120.859 23.1962 120.738 22.5433 120.587C21.2138 120.283 19.382 119.837 17.3611 119.34C15.3402 118.844 13.5026 118.413 12.1671 118.132C11.4994 117.99 10.9587 117.881 10.5835 117.81C10.4063 117.777 10.2615 117.754 10.1522 117.733C10.0517 117.715 9.99854 117.709 9.99854 117.715Z" fill="#E0E0E0"/>
<path d="M65.2175 39.8665L43.8569 46.293L48.1886 60.6908L69.5492 54.2644L65.2175 39.8665Z" fill="white" stroke="black" stroke-width="0.5" stroke-miterlimit="10"/>
<path d="M69.5494 54.2621C69.5494 54.2621 69.5169 54.1705 69.4638 53.9992C69.4076 53.8219 69.3308 53.5678 69.2274 53.2399C69.0206 52.5692 68.7222 51.5942 68.3411 50.3445C67.5818 47.842 66.4886 44.2553 65.1591 39.8827L65.2359 39.924C59.3417 41.7026 51.92 43.9392 43.8809 46.3648H43.8779L43.9282 46.2702C45.4704 51.4022 46.9358 56.283 48.2535 60.6704L48.1649 60.6231C54.452 58.747 59.7878 57.1546 63.5548 56.0289C65.4398 55.4705 66.9318 55.0273 67.9599 54.723C68.4711 54.5723 68.864 54.4571 69.1358 54.3773C69.2658 54.3389 69.3663 54.3123 69.4401 54.2887C69.514 54.271 69.5494 54.2621 69.5494 54.2621C69.5494 54.2621 69.5199 54.2739 69.4519 54.2946C69.381 54.3183 69.2835 54.3478 69.1565 54.3862C68.8876 54.4689 68.5006 54.5871 68.0013 54.7437C66.979 55.0569 65.4959 55.5089 63.6227 56.0821C59.8499 57.2255 54.5052 58.8475 48.2092 60.7561L48.1413 60.7768L48.1206 60.7088C46.7999 56.3214 45.3286 51.4435 43.7834 46.3116L43.7598 46.2377L43.8336 46.2141H43.8366C51.8816 43.8003 59.3033 41.5726 65.2004 39.8029L65.2595 39.7852L65.2773 39.8442C66.5861 44.2405 67.6586 47.8479 68.409 50.3622C68.7783 51.609 69.0649 52.584 69.2629 53.2517C69.3574 53.5796 69.4313 53.8308 69.4815 54.0051C69.5288 54.1794 69.5494 54.2621 69.5494 54.2621Z" fill="#E0E0E0"/>
<path d="M69.5494 54.2621C69.5494 54.2621 69.5169 54.1705 69.4638 53.9992C69.4076 53.8219 69.3308 53.5678 69.2274 53.2399C69.0206 52.5692 68.7222 51.5942 68.3411 50.3445C67.5818 47.842 66.4886 44.2553 65.1591 39.8827L65.2359 39.924C59.3417 41.7026 51.92 43.9392 43.8809 46.3648H43.8779L43.9282 46.2702C45.4704 51.4022 46.9358 56.283 48.2535 60.6704L48.1649 60.6231C54.452 58.747 59.7878 57.1546 63.5548 56.0289C65.4398 55.4705 66.9318 55.0273 67.9599 54.723C68.4711 54.5723 68.864 54.4571 69.1358 54.3773C69.2658 54.3389 69.3663 54.3123 69.4401 54.2887C69.514 54.271 69.5494 54.2621 69.5494 54.2621ZM69.5494 54.2621C69.5494 54.2621 69.5199 54.2739 69.4519 54.2946C69.381 54.3183 69.2835 54.3478 69.1565 54.3862C68.8876 54.4689 68.5006 54.5871 68.0013 54.7437C66.979 55.0569 65.4959 55.5089 63.6227 56.0821C59.8499 57.2255 54.5052 58.8475 48.2092 60.7561L48.1413 60.7768L48.1206 60.7088C46.7999 56.3214 45.3286 51.4435 43.7834 46.3116L43.7598 46.2377L43.8336 46.2141H43.8366C51.8816 43.8003 59.3033 41.5726 65.2004 39.8029L65.2595 39.7852L65.2773 39.8442C66.5861 44.2405 67.6586 47.8479 68.409 50.3622C68.7783 51.609 69.0649 52.584 69.2629 53.2517C69.3574 53.5796 69.4313 53.8308 69.4815 54.0051C69.5288 54.1794 69.5494 54.2621 69.5494 54.2621Z" stroke="black" stroke-width="0.5" stroke-miterlimit="10"/>
<path d="M65.2183 39.865C65.2213 39.865 65.2095 39.8886 65.1888 39.93C65.1622 39.9802 65.1297 40.0393 65.0883 40.1132C64.9908 40.2845 64.8579 40.515 64.6895 40.8104C64.332 41.425 63.8238 42.2965 63.2004 43.372C61.9211 45.5406 60.1573 48.5305 58.1955 51.8631L58.163 51.9193L58.101 51.8956C57.8942 51.8159 57.6696 51.7302 57.448 51.6416C53.6958 50.1791 50.2982 48.8525 47.8282 47.8894C46.608 47.4048 45.6183 47.0119 44.9181 46.7342C44.5842 46.5983 44.3213 46.4919 44.1292 46.4121C44.0465 46.3767 43.9786 46.3471 43.9254 46.3264C43.8811 46.3058 43.8574 46.2939 43.8574 46.291C43.8574 46.288 43.884 46.2939 43.9313 46.3117C43.9874 46.3324 44.0554 46.356 44.1411 46.3855C44.3361 46.4564 44.602 46.5539 44.9388 46.681C45.6419 46.9469 46.6376 47.3251 47.8667 47.7889C50.3425 48.7432 53.7461 50.052 57.5042 51.4997C57.7287 51.5854 57.9503 51.6741 58.1571 51.7538L58.0626 51.7863C60.0421 48.4655 61.8207 45.4844 63.1088 43.3217C63.7529 42.2581 64.2729 41.3925 64.6393 40.7838C64.8165 40.4943 64.9583 40.2668 65.0617 40.1013C65.1061 40.0304 65.1445 39.9714 65.174 39.927C65.2036 39.8827 65.2154 39.865 65.2183 39.865Z" fill="#E0E0E0" stroke="black" stroke-width="0.5" stroke-miterlimit="10"/>
<path d="M127.365 97.3738C127.365 97.3738 125.983 96.003 123.279 99.4272C120.576 102.851 119.403 104.905 119.403 104.905C119.403 104.905 118.729 105.602 118.286 104.97C117.84 104.338 117.385 102.707 116.398 102.789C115.376 102.872 114.841 103.888 114.711 105.513C114.578 107.135 114.162 110.681 114.12 111.003C114.082 111.316 113.813 111.739 113.441 111.357C113.069 110.976 111.139 107.72 109.65 108.728C108.161 109.735 108.536 114.318 108.569 114.82C108.601 115.322 108.466 115.506 108.217 115.579C107.966 115.653 107.423 114.498 106.835 113.594C106.25 112.69 105.411 111.747 104.598 112.4C103.789 113.053 102.929 116.265 104.973 122.165L106.099 124.836L108.983 125.246C115.208 125.749 118.1 124.115 118.532 123.166C118.96 122.218 117.837 121.642 116.815 121.302C115.793 120.959 114.54 120.723 114.549 120.46C114.558 120.197 114.702 120.023 115.196 119.928C115.689 119.834 120.221 119.051 120.824 117.358C121.427 115.665 117.793 114.61 117.332 114.347C116.868 114.081 117.211 113.718 117.506 113.603C117.808 113.485 121.134 112.191 122.674 111.659C124.213 111.124 125.064 110.353 124.887 109.342C124.718 108.367 123.025 108.335 122.301 108.06C121.578 107.788 122.086 106.961 122.086 106.961C122.086 106.961 123.779 105.31 126.42 101.835C129.061 98.3606 127.339 97.3472 127.339 97.3472" fill="#92E3A9"/>
<path d="M124.94 100.438C124.943 100.441 124.925 100.464 124.893 100.512C124.854 100.565 124.804 100.636 124.742 100.721C124.6 100.913 124.402 101.182 124.151 101.522C123.637 102.216 122.881 103.215 121.941 104.444C120.065 106.902 117.441 110.276 114.525 113.987C111.618 117.701 108.986 121.06 107.074 123.503C106.132 124.718 105.363 125.704 104.826 126.396C104.563 126.73 104.359 126.993 104.211 127.179C104.143 127.261 104.09 127.329 104.049 127.38C104.01 127.424 103.993 127.448 103.99 127.445C103.987 127.442 104.004 127.418 104.037 127.371C104.075 127.318 104.125 127.247 104.188 127.161C104.329 126.969 104.527 126.7 104.778 126.36C105.293 125.666 106.049 124.667 106.985 123.438C108.862 120.98 111.485 117.606 114.401 113.895C117.308 110.185 119.938 106.822 121.849 104.382C122.792 103.168 123.56 102.181 124.098 101.49C124.361 101.156 124.565 100.893 124.712 100.707C124.78 100.624 124.833 100.556 124.875 100.506C124.916 100.458 124.937 100.438 124.94 100.438Z" fill="#E0E0E0"/>
<path d="M116.942 105.097C116.963 105.094 117.007 105.389 117.051 105.871C117.096 106.353 117.134 107.017 117.161 107.75C117.178 108.456 117.196 109.094 117.211 109.629C117.223 110.111 117.231 110.406 117.211 110.409C117.19 110.412 117.143 110.117 117.101 109.635C117.063 109.153 117.031 108.489 117.004 107.756C116.98 107.05 116.957 106.412 116.939 105.877C116.927 105.398 116.921 105.1 116.942 105.097Z" fill="#E0E0E0"/>
<path d="M117.465 110.512C117.462 110.471 118.827 110.32 120.514 110.181C122.204 110.04 123.575 109.96 123.578 110.004C123.581 110.046 122.216 110.196 120.526 110.335C118.839 110.474 117.468 110.554 117.465 110.512Z" fill="#E0E0E0"/>
<path d="M112.561 116.212C112.566 116.191 112.865 116.244 113.346 116.339C113.828 116.43 114.496 116.557 115.234 116.676C115.973 116.794 116.644 116.882 117.131 116.947C117.619 117.009 117.92 117.051 117.917 117.074C117.914 117.095 117.61 117.092 117.119 117.057C116.629 117.021 115.949 116.95 115.208 116.829C114.466 116.711 113.798 116.566 113.323 116.448C112.847 116.324 112.558 116.229 112.561 116.212Z" fill="#E0E0E0"/>
<path d="M111.012 111.417C111.033 111.411 111.139 111.671 111.299 112.096C111.458 112.522 111.665 113.112 111.887 113.771C112.108 114.427 112.3 115.024 112.433 115.461C112.566 115.896 112.637 116.167 112.617 116.176C112.596 116.182 112.49 115.922 112.33 115.497C112.17 115.071 111.964 114.48 111.742 113.822C111.521 113.166 111.328 112.569 111.196 112.132C111.063 111.694 110.992 111.423 111.012 111.417Z" fill="#E0E0E0"/>
<path d="M106.046 115.899C106.066 115.893 106.202 116.226 106.406 116.77C106.61 117.317 106.882 118.073 107.174 118.909C107.467 119.748 107.721 120.51 107.901 121.066C108.078 121.621 108.179 121.967 108.158 121.973C108.137 121.979 108.002 121.645 107.798 121.101C107.594 120.555 107.322 119.798 107.029 118.959C106.737 118.12 106.483 117.358 106.303 116.803C106.125 116.25 106.025 115.904 106.046 115.899Z" fill="#E0E0E0"/>
<path d="M108.149 121.813C108.152 121.793 108.536 121.849 109.151 121.946C109.766 122.041 110.616 122.174 111.559 122.298C112.501 122.422 113.355 122.519 113.976 122.584C114.596 122.652 114.977 122.697 114.977 122.717C114.977 122.738 114.59 122.732 113.967 122.694C113.343 122.655 112.484 122.576 111.538 122.452C110.593 122.327 109.745 122.177 109.133 122.053C108.519 121.929 108.146 121.834 108.149 121.813Z" fill="#E0E0E0"/>
<path d="M78.2499 56.1329L73.0107 69.2925L89.4698 75.8453L94.709 62.6857L78.2499 56.1329Z" fill="#92E3A9" stroke="#263238" stroke-miterlimit="10" stroke-linecap="round" stroke-linejoin="round"/>
<path d="M94.7068 62.6883C94.7068 62.6883 94.6802 62.6794 94.627 62.6588C94.5739 62.6381 94.497 62.6085 94.3966 62.5672C94.1927 62.4874 93.8943 62.3692 93.5043 62.2156C92.7243 61.9054 91.581 61.4533 90.1333 60.8802C87.2408 59.7309 83.1282 58.1 78.2385 56.1589L78.274 56.1441C76.717 60.0618 74.9295 64.5496 73.0386 69.3034L73.0209 69.265C79.113 71.6936 84.7768 73.9478 89.4774 75.8239L89.4449 75.8387C91.0285 71.8767 92.3403 68.5914 93.2591 66.2957C93.72 65.1464 94.0805 64.2483 94.3257 63.6337C94.4498 63.3265 94.5443 63.0931 94.6063 62.9335C94.6713 62.771 94.7068 62.6883 94.7068 62.6883C94.7068 62.6883 94.6773 62.7681 94.6152 62.9276C94.5532 63.0872 94.4616 63.3206 94.3404 63.6278C94.0982 64.2424 93.7407 65.1435 93.2887 66.2898C92.3757 68.5914 91.0698 71.8856 89.4921 75.8564L89.4833 75.8801L89.4596 75.8712C84.7561 74.001 79.0924 71.7467 73.0002 69.3241L72.9736 69.3123L72.9854 69.2857C74.8793 64.5349 76.6667 60.047 78.2267 56.1293L78.2356 56.1057L78.2592 56.1146C83.1518 58.0675 87.2674 59.7131 90.1599 60.8683C91.6016 61.4474 92.7421 61.9024 93.5191 62.2126C93.9061 62.3692 94.2045 62.4874 94.4054 62.5701C94.5059 62.6115 94.5798 62.641 94.6329 62.6617C94.6832 62.6765 94.7068 62.6883 94.7068 62.6883Z" fill="#92E3A9"/>
<path d="M94.7068 62.6883C94.7068 62.6883 94.6802 62.6794 94.627 62.6588C94.5739 62.6381 94.497 62.6085 94.3966 62.5672C94.1927 62.4874 93.8943 62.3692 93.5043 62.2156C92.7243 61.9054 91.581 61.4533 90.1333 60.8802C87.2408 59.7309 83.1282 58.1 78.2385 56.1589L78.274 56.1441C76.717 60.0618 74.9295 64.5496 73.0386 69.3034L73.0209 69.265C79.113 71.6936 84.7768 73.9478 89.4774 75.8239L89.4449 75.8387C91.0285 71.8767 92.3403 68.5914 93.2591 66.2957C93.72 65.1464 94.0805 64.2483 94.3257 63.6337C94.4498 63.3265 94.5443 63.0931 94.6063 62.9335C94.6713 62.771 94.7068 62.6883 94.7068 62.6883ZM94.7068 62.6883C94.7068 62.6883 94.6773 62.7681 94.6152 62.9276C94.5532 63.0872 94.4616 63.3206 94.3404 63.6278C94.0982 64.2424 93.7407 65.1435 93.2887 66.2898C92.3757 68.5914 91.0698 71.8856 89.4921 75.8564L89.4833 75.8801L89.4596 75.8712C84.7561 74.001 79.0924 71.7467 73.0002 69.3241L72.9736 69.3123L72.9854 69.2857C74.8793 64.5349 76.6667 60.047 78.2267 56.1293L78.2356 56.1057L78.2592 56.1146C83.1518 58.0675 87.2674 59.7131 90.1599 60.8683C91.6016 61.4474 92.7421 61.9024 93.5191 62.2126C93.9061 62.3692 94.2045 62.4874 94.4054 62.5701C94.5059 62.6115 94.5798 62.641 94.6329 62.6617C94.6832 62.6765 94.7068 62.6883 94.7068 62.6883Z" stroke="#263238" stroke-miterlimit="10" stroke-linecap="round" stroke-linejoin="round"/>
<path d="M78.477 57.1986L73.8979 68.7002L89.2014 74.7929L93.7805 63.2913L78.477 57.1986Z" fill="#92E3A9" stroke="#263238" stroke-miterlimit="10" stroke-linecap="round" stroke-linejoin="round"/>
<path d="M73.9575 68.7392L82.1503 63.7166L83.6807 69.5073L86.8775 68.0124L89.2617 74.8313L73.9575 68.7392Z" fill="white" stroke="#263238" stroke-miterlimit="10" stroke-linecap="round" stroke-linejoin="round"/>
<path d="M87.2141 64.718C86.9482 65.3828 86.1948 65.7078 85.5301 65.4419C84.8653 65.176 84.5403 64.4226 84.8062 63.7578C85.0721 63.0931 85.8255 62.7681 86.4903 63.034C87.155 63.2999 87.48 64.0533 87.2141 64.718Z" fill="white" stroke="#263238" stroke-miterlimit="10" stroke-linecap="round" stroke-linejoin="round"/>
<path d="M35.3306 77.2567C35.3335 77.2449 35.4458 77.3335 35.6822 77.3158C35.7974 77.301 35.9422 77.2508 36.0603 77.1267C36.1726 77.0056 36.2553 76.8106 36.3735 76.6186C36.8315 75.8208 37.4844 74.6804 38.291 73.2741C38.4948 72.9225 38.7076 72.5532 38.9291 72.1661C39.0414 71.9741 39.1537 71.7762 39.2689 71.5782C39.325 71.4778 39.393 71.3773 39.4255 71.2798C39.458 71.1794 39.4609 71.07 39.4344 70.9637C39.4078 70.8603 39.3487 70.7657 39.266 70.6948C39.1862 70.6298 39.065 70.5737 38.9616 70.5146C38.746 70.3935 38.5273 70.2723 38.3057 70.1482C37.8596 69.9001 37.4046 69.643 36.9349 69.3801C35.0588 68.3253 32.9965 67.1701 30.8309 65.9558C30.5916 65.817 30.2636 65.9086 30.113 66.1361C29.9593 66.399 29.8057 66.659 29.655 66.919C29.3507 67.4419 29.0523 67.956 28.7569 68.4612C28.166 69.4717 27.5987 70.4466 27.0551 71.3773C26.9871 71.4925 26.9192 71.6078 26.8542 71.723C26.7862 71.8293 26.7567 71.9416 26.7596 72.0598C26.7655 72.175 26.8069 72.2902 26.8808 72.3759C26.9487 72.4675 27.058 72.5148 27.1733 72.5827C27.6164 72.8339 28.0478 73.0761 28.4644 73.3125C29.2946 73.7852 30.0716 74.2225 30.7807 74.6243C32.187 75.4279 33.3274 76.0779 34.1281 76.5358C34.5151 76.7604 34.8195 76.9376 35.0351 77.0617C35.1326 77.1208 35.2094 77.1651 35.2685 77.2006C35.304 77.236 35.3306 77.2538 35.3306 77.2567C35.3306 77.2597 35.301 77.2449 35.2449 77.2183C35.1829 77.1858 35.1031 77.1445 35.0026 77.0913C34.784 76.9731 34.4738 76.8047 34.0808 76.589C33.2743 76.1429 32.125 75.5047 30.7098 74.7218C29.9977 74.3259 29.2207 73.8916 28.3846 73.4248C27.968 73.1914 27.5337 72.9491 27.0905 72.7009C26.9871 72.6389 26.8512 72.5827 26.7596 72.4646C26.6651 72.3552 26.6119 72.2105 26.606 72.0657C26.6001 71.9209 26.6444 71.7703 26.7183 71.6521C26.7862 71.5368 26.8512 71.4216 26.9192 71.3064C27.4598 70.3757 28.0241 69.3978 28.6121 68.3844C28.9046 67.8792 29.2059 67.3622 29.5073 66.8392C29.6609 66.5763 29.8146 66.3133 29.9711 66.0445C30.1602 65.7549 30.5798 65.6367 30.89 65.817C33.0527 67.0342 35.1119 68.1953 36.988 69.253C37.4549 69.5189 37.9128 69.776 38.356 70.0271C38.5776 70.1512 38.7962 70.2753 39.0119 70.3964C39.1182 70.4614 39.2246 70.5057 39.3369 70.5944C39.4403 70.683 39.5141 70.8012 39.5466 70.9282C39.5791 71.0553 39.5732 71.1912 39.5348 71.3153C39.4905 71.4423 39.4196 71.5339 39.3664 71.6343C39.2512 71.8323 39.136 72.0302 39.0237 72.2193C38.7991 72.6034 38.5835 72.9698 38.3767 73.3214C37.5553 74.7159 36.8876 75.8474 36.4178 76.6422C36.2937 76.8342 36.214 77.0204 36.0869 77.1533C35.9569 77.2804 35.8003 77.3306 35.6792 77.3394C35.5551 77.3483 35.4635 77.3217 35.4074 77.2951C35.3542 77.2804 35.3306 77.2567 35.3306 77.2567Z" fill="#E0E0E0"/>
<path d="M33.7676 71.2L34.5121 72.5237L32.9758 72.5502L31.4395 72.5798L32.2313 71.2296L33.0231 69.8794L33.7676 71.2Z" fill="#E0E0E0"/>
<path d="M38.9792 108.761L30.0566 99.7996L34.5415 91.5625C39.0264 85.822 48.5222 86.1913 48.5222 86.1913C48.5222 86.1913 54.9836 85.5679 62.5234 87.0362C70.0662 88.5046 69.4576 93.4947 69.4576 93.4947L70.4681 111.981L71.5524 127.034L43.7359 127.595L38.9792 108.761Z" fill="#C8DCEC"/>
<path d="M53.9644 126.73L29.0492 127.034C23.0634 127.108 19.069 120.883 21.6305 115.47L32.2844 95.7136L41.9869 102.273L35.3688 116.008L55.5391 116.368L53.9644 126.73Z" fill="#C8DCEC"/>
<path d="M68.5713 90.4929L88.5643 121.361L76.9 122.124C76.9 122.124 69.9333 111.148 70.0929 111.375C70.3765 111.786 68.5713 90.4929 68.5713 90.4929Z" fill="#C8DCEC"/>
<path d="M41.4874 104.048C41.4815 104.048 41.4933 103.992 41.514 103.889C41.5436 103.77 41.5761 103.623 41.6204 103.443C41.712 103.055 41.8479 102.494 41.9867 101.794C42.1256 101.097 42.2763 100.261 42.3767 99.324C42.4713 98.3904 42.5304 97.3504 42.3885 96.2809C42.229 95.2143 41.8272 94.2452 41.3574 93.4387C40.8847 92.6291 40.3559 91.9644 39.8743 91.4414C39.3927 90.9185 38.9672 90.5285 38.6629 90.2714C38.3616 90.0115 38.1873 89.8755 38.1961 89.8637C38.1991 89.8608 38.2464 89.8903 38.332 89.9494C38.4177 90.0115 38.5477 90.0971 38.7013 90.2242C39.0175 90.4694 39.4577 90.8505 39.954 91.3676C40.4504 91.8846 40.997 92.5493 41.4815 93.3677C41.966 94.1832 42.3797 95.167 42.5422 96.2602C42.6869 97.3533 42.6219 98.4022 42.5215 99.3417C42.4122 100.281 42.2497 101.12 42.096 101.818C41.9424 102.515 41.7917 103.073 41.6795 103.457C41.6233 103.649 41.579 103.797 41.5465 103.898C41.5111 103.998 41.4904 104.048 41.4874 104.048Z" fill="#263238"/>
<path d="M40.6838 105.112C40.6927 105.115 40.6306 105.274 40.5125 105.558C40.3943 105.842 40.2141 106.249 39.9895 106.749C39.5375 107.75 38.8964 109.127 38.1577 110.634C37.4191 112.141 36.7219 113.491 36.2048 114.46C35.9478 114.944 35.7351 115.334 35.5814 115.603C35.4308 115.872 35.3421 116.017 35.3333 116.011C35.3244 116.005 35.3953 115.851 35.5283 115.574C35.676 115.275 35.871 114.882 36.1073 114.407C36.6066 113.399 37.2773 112.052 38.0189 110.56C38.7457 109.062 39.4016 107.709 39.892 106.695C40.1225 106.22 40.3145 105.824 40.4593 105.525C40.5952 105.26 40.675 105.109 40.6838 105.112Z" fill="#263238"/>
<path d="M53.9645 126.73C53.9616 126.73 53.9616 126.712 53.9645 126.677C53.9675 126.635 53.9704 126.585 53.9764 126.526C53.9911 126.384 54.0118 126.186 54.0354 125.938C54.0945 125.412 54.1743 124.665 54.2807 123.722C54.5022 121.813 54.8125 119.122 55.1788 115.952L55.2497 116.032C53.0073 116.035 50.5137 116.035 47.8901 116.037C42.8645 116.029 38.3176 116.02 35.0145 116.014C33.3747 116.005 32.0452 115.996 31.1116 115.99C30.6596 115.984 30.305 115.978 30.051 115.975C29.9357 115.972 29.8441 115.97 29.7762 115.967C29.7141 115.964 29.6816 115.961 29.6816 115.958C29.6816 115.955 29.7141 115.952 29.7762 115.949C29.8471 115.946 29.9387 115.943 30.051 115.94C30.305 115.937 30.6596 115.931 31.1116 115.925C32.0423 115.919 33.3747 115.91 35.0145 115.902C38.3176 115.896 42.8645 115.887 47.8901 115.878C50.5137 115.881 53.0073 115.884 55.2497 115.884H55.3295L55.3206 115.964C54.9306 119.131 54.6027 121.819 54.3693 123.728C54.2482 124.668 54.1536 125.415 54.0857 125.941C54.0502 126.189 54.0236 126.384 54.0059 126.526C53.997 126.588 53.9882 126.635 53.9823 126.677C53.9704 126.712 53.9675 126.73 53.9645 126.73Z" fill="#263238"/>
<path d="M35.5434 116.224C35.5227 116.235 35.3513 115.984 35.047 115.6C34.7427 115.219 34.2877 114.714 33.7175 114.232C33.1473 113.751 32.5741 113.387 32.1457 113.151C31.7173 112.912 31.4396 112.788 31.4484 112.764C31.4544 112.746 31.7498 112.838 32.1959 113.053C32.6421 113.269 33.2359 113.624 33.815 114.114C34.3941 114.605 34.8461 115.13 35.1327 115.532C35.4222 115.937 35.5581 116.212 35.5434 116.224Z" fill="#263238"/>
<path d="M70.8846 118.176C70.8787 118.176 70.8669 118.088 70.8462 117.922C70.8255 117.742 70.7989 117.497 70.7635 117.187C70.6955 116.549 70.6039 115.624 70.5064 114.477C70.3055 112.188 70.0721 109.024 69.8624 105.522C69.6555 102.021 69.5108 98.8512 69.428 96.5556C69.3867 95.4063 69.3571 94.4786 69.3453 93.8375C69.3394 93.5272 69.3365 93.2791 69.3335 93.0988C69.3335 92.9304 69.3335 92.8418 69.3394 92.8418C69.3453 92.8418 69.3542 92.9304 69.363 93.0988C69.3719 93.282 69.3867 93.5272 69.4044 93.8375C69.4369 94.4934 69.4812 95.4181 69.5374 96.5556C69.6496 98.8512 69.8092 102.018 70.016 105.519C70.2228 109.018 70.4385 112.185 70.6128 114.475C70.7014 115.609 70.7723 116.531 70.8226 117.187C70.8462 117.497 70.8639 117.742 70.8757 117.925C70.8876 118.088 70.8905 118.176 70.8846 118.176Z" fill="#263238"/>
<path d="M48.6465 101.38C48.6376 101.38 48.6494 101.238 48.679 100.975C48.7144 100.695 48.7587 100.32 48.8149 99.8587C48.9449 98.8837 49.1221 97.5483 49.3289 96.0001L49.4442 96.071C48.8474 96.4876 48.2033 96.9396 47.5326 97.4094C46.8501 97.8851 46.1942 98.3401 45.5886 98.7626L45.4497 98.86L45.4763 98.6916C45.7097 97.1583 45.9136 95.8347 46.0613 94.8685C46.1351 94.4136 46.1972 94.0442 46.2445 93.7665C46.2888 93.5095 46.3183 93.3706 46.3272 93.3736C46.3361 93.3736 46.3242 93.5154 46.2947 93.7754C46.2592 94.0561 46.212 94.4283 46.1558 94.8833C46.0229 95.8524 45.8367 97.179 45.624 98.7153L45.5088 98.6444C46.1115 98.2219 46.7674 97.7639 47.4499 97.2853C48.1206 96.8185 48.7676 96.3665 49.3644 95.9528L49.5033 95.8553L49.4796 96.0238C49.2521 97.566 49.0571 98.9014 48.9124 99.8734C48.8385 100.331 48.7794 100.704 48.7351 100.984C48.6819 101.241 48.6524 101.383 48.6465 101.38Z" fill="black"/>
<path d="M59.7642 102.58C59.7583 102.586 59.6549 102.485 59.4746 102.296C59.2796 102.089 59.0197 101.815 58.7006 101.478C58.0329 100.754 57.1199 99.7642 56.0622 98.6179L56.1893 98.5736C56.1302 99.2974 56.0652 100.083 55.9972 100.899C55.9263 101.726 55.8584 102.524 55.7934 103.259L55.7786 103.431L55.6663 103.304C54.6382 102.143 53.7489 101.141 53.0989 100.408C52.7975 100.06 52.5523 99.7761 52.3662 99.5633C52.1978 99.3654 52.1091 99.2531 52.115 99.2472C52.1209 99.2413 52.2214 99.3417 52.4016 99.5279C52.5937 99.7347 52.8507 100.007 53.1639 100.343C53.8227 101.064 54.7268 102.054 55.7727 103.2L55.6456 103.242C55.7077 102.506 55.7727 101.708 55.8406 100.881C55.9115 100.066 55.9795 99.2797 56.0415 98.5558L56.0563 98.3875L56.1686 98.5145C57.2115 99.6756 58.1097 100.68 58.7685 101.413C59.0758 101.761 59.324 102.045 59.5101 102.261C59.6815 102.462 59.7701 102.574 59.7642 102.58Z" fill="black"/>
<path d="M65.3597 102.184C65.3656 102.19 65.2947 102.311 65.1588 102.535C65.0081 102.775 64.8072 103.097 64.562 103.49C64.0302 104.317 63.3004 105.451 62.4554 106.763L62.3816 106.651C63.0965 106.527 63.8736 106.394 64.6801 106.255C65.4985 106.116 66.2903 105.983 67.0171 105.859L67.1856 105.83L67.091 105.971C66.2253 107.26 65.4779 108.37 64.9342 109.183C64.6713 109.561 64.4586 109.871 64.299 110.102C64.1483 110.315 64.0656 110.427 64.0568 110.424C64.0508 110.418 64.1218 110.297 64.2577 110.075C64.4083 109.836 64.6092 109.52 64.8574 109.133C65.3922 108.314 66.1219 107.192 66.9699 105.892L67.0437 106.004C66.3169 106.128 65.5281 106.264 64.7097 106.406C63.9031 106.542 63.1261 106.675 62.4081 106.796L62.2397 106.825L62.3343 106.683C63.197 105.384 63.9445 104.261 64.4881 103.442C64.7481 103.058 64.9608 102.748 65.1233 102.512C65.2681 102.293 65.3538 102.178 65.3597 102.184Z" fill="black"/>
<path d="M57.9173 107.91C57.9232 107.916 57.8523 108.037 57.7164 108.261C57.5657 108.501 57.3648 108.823 57.1196 109.216C56.5878 110.043 55.858 111.177 55.013 112.489L54.9392 112.377C55.6542 112.253 56.4312 112.12 57.2378 111.981C58.0562 111.842 58.848 111.709 59.5748 111.585L59.7432 111.555L59.6486 111.697C58.783 112.985 58.0355 114.096 57.4919 114.909C57.2289 115.287 57.0162 115.597 56.8566 115.828C56.706 116.04 56.6232 116.153 56.6144 116.15C56.6085 116.144 56.6794 116.023 56.8153 115.801C56.966 115.562 57.1669 115.246 57.415 114.859C57.9498 114.04 58.6796 112.917 59.5275 111.618L59.6014 111.73C58.8745 111.854 58.0857 111.99 57.2673 112.132C56.4607 112.268 55.6837 112.4 54.9658 112.522L54.7974 112.551L54.8919 112.409C55.7546 111.109 56.5021 109.987 57.0457 109.168C57.3057 108.784 57.5184 108.474 57.6809 108.238C57.8257 108.019 57.9114 107.904 57.9173 107.91Z" fill="black"/>
<path d="M73.9988 102.101C74.0047 102.107 73.9338 102.228 73.7979 102.453C73.6473 102.692 73.4464 103.014 73.2011 103.407C72.6693 104.234 71.9396 105.369 71.0946 106.681L71.0207 106.568C71.7357 106.444 72.5127 106.311 73.3193 106.172C74.1377 106.034 74.9295 105.901 75.6563 105.777L75.8247 105.747L75.7302 105.889C74.8645 107.177 74.117 108.288 73.5734 109.1C73.3104 109.478 73.0977 109.789 72.9382 110.019C72.7875 110.232 72.7048 110.344 72.6959 110.341C72.69 110.335 72.7609 110.214 72.8968 109.993C73.0475 109.753 73.2484 109.437 73.4966 109.05C74.0313 108.232 74.7611 107.109 75.609 105.809L75.6829 105.921C74.9561 106.045 74.1672 106.181 73.3489 106.323C72.5423 106.459 71.7652 106.592 71.0473 106.713L70.8789 106.743L70.9734 106.601C71.8362 105.301 72.5836 104.178 73.1273 103.36C73.3873 102.976 73.6 102.665 73.7625 102.429C73.9072 102.213 73.99 102.098 73.9988 102.101Z" fill="black"/>
<path d="M36.3441 97.374C36.35 97.3799 36.2791 97.501 36.1431 97.7256C35.9925 97.9649 35.7916 98.2869 35.5463 98.6799C35.0145 99.5071 34.2848 100.642 33.4398 101.953L33.3659 101.841C34.0809 101.717 34.8579 101.584 35.6645 101.445C36.4829 101.306 37.2747 101.173 38.0015 101.049L38.1699 101.02L38.0754 101.162C37.2097 102.45 36.4622 103.561 35.9186 104.373C35.6557 104.751 35.4429 105.062 35.2834 105.292C35.1327 105.505 35.05 105.617 35.0411 105.614C35.0352 105.608 35.1061 105.487 35.242 105.265C35.3927 105.026 35.5936 104.71 35.8418 104.323C36.3766 103.505 37.1063 102.382 37.9542 101.082L38.0281 101.194C37.3013 101.318 36.5125 101.454 35.6941 101.596C34.8875 101.732 34.1105 101.865 33.3925 101.986L33.2241 102.015L33.3187 101.874C34.1814 100.574 34.9289 99.451 35.4725 98.6326C35.7325 98.2485 35.9452 97.9383 36.1077 97.7019C36.2525 97.4833 36.3352 97.3681 36.3441 97.374Z" fill="black"/>
<path d="M24.6619 119.465C24.6678 119.459 24.7653 119.565 24.9337 119.766C25.114 119.985 25.3562 120.274 25.6546 120.632C26.2751 121.394 27.126 122.44 28.1098 123.651L27.9798 123.687C28.0862 122.969 28.1984 122.189 28.3166 121.376C28.4407 120.555 28.5589 119.763 28.6652 119.033L28.6918 118.865L28.7952 118.998C29.7495 120.221 30.5738 121.276 31.1766 122.047C31.4572 122.413 31.6818 122.712 31.8531 122.936C32.0097 123.146 32.0895 123.261 32.0836 123.267C32.0777 123.273 31.9831 123.167 31.8147 122.969C31.6345 122.75 31.3981 122.461 31.1027 122.106C30.4911 121.344 29.652 120.301 28.68 119.092L28.81 119.057C28.7036 119.787 28.5884 120.579 28.4673 121.4C28.3462 122.209 28.2309 122.989 28.1216 123.707L28.098 123.876L27.9946 123.743C27.0285 122.52 26.1923 121.462 25.5808 120.688C25.2971 120.322 25.0667 120.02 24.8924 119.796C24.7387 119.586 24.656 119.471 24.6619 119.465Z" fill="black"/>
<path d="M51.3406 105.162C51.3406 105.171 51.1988 105.189 50.9388 105.212C50.6552 105.236 50.2799 105.268 49.8161 105.31C48.8352 105.384 47.4909 105.484 45.9339 105.599L45.9782 105.472C46.5071 105.969 47.0832 106.509 47.68 107.068C48.2857 107.638 48.8677 108.187 49.4025 108.693L49.5265 108.811L49.3581 108.82C47.81 108.905 46.4716 108.979 45.4966 109.032C45.0357 109.053 44.6605 109.068 44.3798 109.08C44.1198 109.089 43.978 109.089 43.978 109.08C43.978 109.071 44.1169 109.053 44.3769 109.029C44.6576 109.006 45.0328 108.976 45.4907 108.938C46.4657 108.87 47.8011 108.778 49.3493 108.672L49.305 108.799C48.7672 108.294 48.1823 107.747 47.5766 107.18C46.9827 106.619 46.4066 106.078 45.8807 105.579L45.7566 105.463L45.925 105.455C47.482 105.36 48.8293 105.28 49.8102 105.221C50.274 105.198 50.6522 105.18 50.9358 105.168C51.1958 105.153 51.3376 105.153 51.3406 105.162Z" fill="black"/>
<path d="M44.7938 120.053C44.7997 120.047 44.8972 120.15 45.0715 120.348C45.2576 120.564 45.5058 120.847 45.8101 121.199C46.4453 121.949 47.3169 122.98 48.3244 124.171L48.1944 124.21C48.2859 123.489 48.3834 122.706 48.4869 121.893C48.5932 121.069 48.6966 120.274 48.7912 119.544L48.8119 119.376L48.9182 119.509C49.8961 120.714 50.7411 121.751 51.3586 122.511C51.6452 122.871 51.8786 123.167 52.0529 123.385C52.2125 123.592 52.2952 123.704 52.2893 123.71C52.2834 123.716 52.1859 123.613 52.0145 123.418C51.8313 123.205 51.5861 122.918 51.2877 122.57C50.6614 121.819 49.8016 120.794 48.8059 119.603L48.9359 119.565C48.8443 120.298 48.7439 121.09 48.6405 121.914C48.5341 122.726 48.4337 123.506 48.3421 124.227L48.3214 124.396L48.215 124.266C47.2253 123.06 46.3685 122.02 45.7421 121.258C45.4526 120.895 45.2162 120.602 45.039 120.381C44.8706 120.171 44.7878 120.058 44.7938 120.053Z" fill="black"/>
<path d="M33.094 109.13C33.094 109.139 32.9522 109.157 32.6922 109.183C32.4086 109.207 32.0334 109.239 31.5695 109.281C30.5886 109.354 29.2443 109.455 27.6873 109.57L27.7316 109.443C28.2605 109.939 28.8366 110.48 29.4334 111.039C30.0391 111.609 30.6211 112.158 31.1559 112.663L31.28 112.782L31.1116 112.791C29.5634 112.876 28.225 112.95 27.25 113.003C26.7891 113.024 26.4139 113.039 26.1333 113.051C25.8733 113.059 25.7314 113.059 25.7314 113.051C25.7314 113.042 25.8703 113.024 26.1303 113C26.411 112.977 26.7862 112.947 27.2441 112.909C28.2191 112.841 29.5545 112.749 31.1027 112.643L31.0584 112.77C30.5207 112.265 29.9357 111.718 29.33 111.151C28.7362 110.589 28.16 110.049 27.6341 109.549L27.51 109.434L27.6784 109.425C29.2355 109.331 30.5827 109.251 31.5636 109.192C32.0274 109.168 32.4056 109.151 32.6893 109.139C32.9492 109.124 33.0911 109.124 33.094 109.13Z" fill="black"/>
<path d="M43.1448 119.716C43.1448 119.725 43.003 119.742 42.743 119.769C42.4594 119.792 42.0841 119.825 41.6203 119.866C40.6394 119.94 39.2951 120.041 37.7381 120.156L37.7824 120.029C38.3113 120.525 38.8874 121.066 39.4842 121.624C40.0899 122.194 40.6719 122.744 41.2067 123.249L41.3307 123.367L41.1623 123.376C39.6142 123.462 38.2758 123.536 37.3008 123.589C36.8399 123.61 36.4647 123.624 36.184 123.636C35.924 123.645 35.7822 123.645 35.7822 123.636C35.7822 123.627 35.9211 123.61 36.1811 123.586C36.4618 123.562 36.837 123.533 37.2949 123.494C38.2699 123.427 39.6053 123.335 41.1535 123.229L41.1092 123.356C40.5714 122.85 39.9865 122.304 39.3808 121.737C38.7869 121.175 38.2108 120.635 37.6849 120.135L37.5608 120.02L37.7292 120.011C39.2862 119.917 40.6335 119.837 41.6144 119.778C42.0782 119.754 42.4564 119.736 42.74 119.725C43.003 119.71 43.1448 119.707 43.1448 119.716Z" fill="black"/>
<path d="M65.8386 92.7856C65.8386 92.7945 65.6968 92.8122 65.4368 92.8358C65.1532 92.8595 64.778 92.8919 64.3141 92.9333C63.3332 93.0072 61.989 93.1076 60.4319 93.2229L60.4763 93.0958C61.0051 93.5922 61.5812 94.1328 62.178 94.6912C62.7837 95.2614 63.3657 95.811 63.9005 96.3162L64.0246 96.4344L63.8562 96.4432C62.308 96.5289 60.9697 96.6028 59.9947 96.656C59.5338 96.6766 59.1586 96.6914 58.8779 96.7032C58.6179 96.7121 58.4761 96.7121 58.4761 96.7032C58.4761 96.6944 58.6149 96.6766 58.8749 96.653C59.1556 96.6294 59.5308 96.5998 59.9888 96.5614C60.9638 96.4935 62.2992 96.4019 63.8473 96.2955L63.803 96.4226C63.2653 95.9173 62.6803 95.3708 62.0746 94.8035C61.4808 94.2422 60.9047 93.7015 60.3788 93.2022L60.2547 93.087L60.4231 93.0781C61.9801 92.9835 63.3273 92.9038 64.3082 92.8447C64.7721 92.821 65.1503 92.8033 65.4339 92.7915C65.6968 92.7767 65.8386 92.7767 65.8386 92.7856Z" fill="black"/>
<path d="M54.8006 119.716C54.8006 119.716 59.773 118.283 61.4157 117.863C62.0568 117.701 64.8015 119.148 66.6983 120.351C66.6983 120.351 69.31 121.899 69.0973 122.378C68.8639 122.903 67.9008 122.794 66.3674 122.073C66.3674 122.073 66.9021 123.63 65.8503 123.595C65.8503 123.595 66.3733 125.276 65.3865 125.45C64.3997 125.625 64.1692 123.48 63.2977 123.361C62.4291 123.246 60.6298 123.128 60.6298 123.128C60.6298 123.128 59.1318 125.607 57.9737 125.781C56.8126 125.955 54.127 125.642 54.127 125.642L54.8006 119.716Z" fill="#FFBE9D"/>
<path d="M63.2828 120.058C63.3064 120.023 63.9268 120.375 64.6714 120.844C65.4159 121.314 66.0009 121.722 65.9772 121.76C65.9536 121.796 65.3332 121.444 64.5886 120.974C63.8471 120.504 63.2621 120.097 63.2828 120.058Z" fill="#EB996E"/>
<path d="M62.9906 121.016C63.0083 120.977 63.7469 121.278 64.6392 121.692C65.5314 122.103 66.2405 122.469 66.2228 122.508C66.205 122.546 65.4664 122.245 64.5742 121.831C63.6819 121.42 62.9728 121.054 62.9906 121.016Z" fill="#EB996E"/>
<path d="M63.522 123.332C63.5279 123.29 64.0302 123.323 64.6447 123.409C65.2593 123.491 65.7527 123.595 65.7468 123.636C65.7408 123.677 65.2386 123.645 64.624 123.559C64.0095 123.477 63.5161 123.376 63.522 123.332Z" fill="#EB996E"/>
<path d="M48.3332 68.4406C48.4484 68.8218 48.3184 69.2649 48.0141 69.519C47.7098 69.7761 47.2489 69.8263 46.8944 69.649C46.2208 69.3063 46.1351 68.3786 46.268 67.6341C46.401 66.8895 46.6521 66.0977 46.3419 65.4093C46.1026 64.8834 45.5856 64.5496 45.1837 64.136C44.4806 63.4151 44.1083 62.3633 44.2797 61.3706C44.451 60.3779 45.1956 59.4856 46.1646 59.2167C47.1544 58.939 48.3746 59.2433 49.1102 58.5283C49.645 58.0084 49.6775 57.1575 50.0911 56.54C50.7323 55.5768 52.0884 55.4261 53.2347 55.5827C54.381 55.7393 55.5451 56.1057 56.6678 55.828C57.6044 55.5945 58.3755 54.9416 59.253 54.5398C61.1557 53.6682 63.5902 54.1409 65.029 55.6595C66.4708 57.1781 66.8106 59.6333 65.8415 61.4887C65.4929 62.1564 64.967 62.7592 64.2727 63.0428" fill="#263238"/>
<path d="M54.0355 92.8447C57.2087 92.8417 59.7672 90.2447 59.7259 87.0716L59.652 81.6413C59.652 81.6413 64.2137 81.1833 64.518 76.663C64.8194 72.1426 64.6008 61.7133 64.6008 61.7133C59.4866 59.1783 53.4003 59.6067 48.6938 62.8389L47.9966 63.3176L48.3364 87.2311C48.3777 90.3452 50.9186 92.8476 54.0355 92.8447Z" fill="#FFBE9D"/>
<path d="M63.3982 69.8971C62.5946 69.7375 62.6005 68.7005 63.4071 68.5528C63.4425 68.5469 63.481 68.5469 63.5164 68.5528C64.32 68.7123 64.3141 69.7493 63.5075 69.8971C63.475 69.9059 63.4337 69.9059 63.3982 69.8971Z" fill="#263238"/>
<path d="M64.2874 68.4553C64.2135 68.5292 63.7881 68.1628 63.1647 68.1274C62.5413 68.0801 62.0715 68.3874 62.0065 68.3047C61.974 68.2663 62.0538 68.1303 62.2577 67.9915C62.4586 67.8526 62.7983 67.7285 63.1883 67.7522C63.5754 67.7788 63.8974 67.9472 64.0776 68.1126C64.2638 68.2751 64.3228 68.4228 64.2874 68.4553Z" fill="#263238"/>
<path d="M57.0791 68.606C57.3775 68.8129 57.4513 69.2235 57.2445 69.5219C57.0377 69.8203 56.627 69.8942 56.3286 69.6874C56.0302 69.4806 55.9564 69.0699 56.1632 68.7715C56.37 68.4731 56.7807 68.3992 57.0791 68.606Z" fill="#263238"/>
<path d="M57.4895 68.6355C57.4157 68.7094 56.9902 68.343 56.3668 68.3076C55.7434 68.2603 55.2737 68.5676 55.2087 68.4848C55.1762 68.4464 55.256 68.3105 55.4598 68.1717C55.6607 68.0328 56.0005 67.9087 56.3905 67.9324C56.7775 67.9589 57.0995 68.1273 57.2798 68.2928C57.4659 68.4553 57.525 68.603 57.4895 68.6355Z" fill="#263238"/>
<path d="M59.7081 73.9123C59.7051 73.8621 60.0951 73.8059 60.7274 73.7528C60.8928 73.7439 61.0199 73.7143 61.0376 73.6257C61.0731 73.5282 61.0199 73.3509 60.946 73.153C60.8072 72.7335 60.6683 72.3051 60.5235 71.8589C59.9415 70.0183 59.5456 68.5026 59.6372 68.4731C59.7317 68.4435 60.2783 69.9119 60.8603 71.7526C60.9963 72.2017 61.1292 72.6301 61.2562 73.0525C61.3065 73.2446 61.4069 73.4691 61.3094 73.735C61.2562 73.868 61.1233 73.9566 61.014 73.9802C60.9047 74.0068 60.8131 74.0009 60.7333 74.0009C60.101 73.9921 59.7081 73.9596 59.7081 73.9123Z" fill="#263238"/>
<path d="M57.6461 74.4885C58.4438 74.8578 59.3951 75.3187 60.6538 75.5433C60.6538 75.5433 59.862 76.666 58.5856 76.1164C57.2561 75.5492 57.6461 74.4885 57.6461 74.4885Z" fill="white"/>
<path d="M59.661 81.5734C59.661 81.5734 56.7893 81.6502 53.8555 79.5762C53.8555 79.5762 55.0727 82.9088 59.6078 82.7463L59.661 81.5734Z" fill="#EB996E"/>
<path d="M64.6301 62.8537C64.6301 62.8537 61.9002 64.2423 58.278 62.5198C55.9026 61.3912 53.146 60.8712 52.5522 61.3557C51.9554 61.8403 51.8756 64.2689 49.5593 65.0223C49.5593 65.0223 49.8104 69.646 47.9609 69.516C46.1114 69.386 47.1278 62.1978 47.1278 62.1978L51.5979 59.9051L56.5053 58.8799L61.1586 59.4442L64.769 60.3571L64.6301 62.8537Z" fill="#263238"/>
<path d="M48.295 68.0298C48.2212 67.9914 45.2371 66.9426 45.1662 70.0389C45.0953 73.1381 48.2212 72.5679 48.23 72.4793C48.2389 72.3907 48.295 68.0298 48.295 68.0298Z" fill="#FFBE9D"/>
<path d="M47.3112 71.2858C47.2964 71.2769 47.255 71.3212 47.1635 71.3626C47.0748 71.401 46.9212 71.4246 46.7587 71.3626C46.4337 71.2355 46.1708 70.7096 46.1678 70.1512C46.1648 69.8676 46.2298 69.6017 46.3362 69.3831C46.4367 69.1585 46.5873 69.0049 46.7528 68.9783C46.9182 68.9429 47.0335 69.0463 47.0689 69.1349C47.1073 69.2235 47.0866 69.2826 47.1044 69.2885C47.1132 69.2974 47.1723 69.2383 47.1487 69.1083C47.1369 69.0463 47.1014 68.9724 47.0305 68.9104C46.9566 68.8483 46.8503 68.8158 46.7351 68.8247C46.4957 68.8365 46.2771 69.0522 46.1619 69.2915C46.0348 69.5338 45.9551 69.8351 45.9551 70.1512C45.961 70.7746 46.2683 71.3685 46.7114 71.5074C46.9271 71.5694 47.1103 71.5074 47.2078 71.4364C47.3023 71.3596 47.32 71.2917 47.3112 71.2858Z" fill="#EB996E"/>
<path d="M46.7172 58.3303C46.6995 58.2949 47.2077 58.1501 47.7927 58.3687C48.3777 58.5844 48.6672 59.0276 48.6318 59.0423C48.5993 59.0748 48.2802 58.7085 47.7395 58.5135C47.2047 58.3096 46.7232 58.3776 46.7172 58.3303Z" fill="#263238"/>
<path d="M48.5814 56.4749C48.6346 56.4778 48.5519 57.1278 48.6582 57.9019C48.7646 58.6848 49.1309 59.2285 49.0896 59.2521C49.0748 59.2639 48.9625 59.1428 48.8296 58.9094C48.6996 58.6789 48.5607 58.3274 48.5046 57.9255C48.3953 57.116 48.5519 56.469 48.5814 56.4749Z" fill="#263238"/>
<path d="M61.3121 66.9663C61.2944 66.9309 61.4273 66.8245 61.6785 66.7211C61.9296 66.6177 62.3019 66.532 62.7184 66.535C63.135 66.5409 63.5043 66.6354 63.7525 66.7418C64.0007 66.8482 64.1337 66.9575 64.1159 66.9959C64.0775 67.0786 63.4807 66.8452 62.7155 66.8423C61.9503 66.8275 61.3476 67.0491 61.3121 66.9663Z" fill="#263238"/>
<path d="M54.4049 66.3164C54.3872 66.281 54.5201 66.1746 54.7712 66.0712C55.0224 65.9678 55.3946 65.8821 55.8112 65.8851C56.2278 65.891 56.5971 65.9855 56.8453 66.0919C57.0935 66.1983 57.2264 66.3076 57.2087 66.346C57.1703 66.4287 56.5735 66.1953 55.8083 66.1923C55.0431 66.1776 54.4403 66.3992 54.4049 66.3164Z" fill="#263238"/>
<path d="M60.7776 67.4537C60.7805 67.4567 60.7864 67.5217 60.7894 67.6369C60.7923 67.7669 60.7982 67.9324 60.8041 68.1362C60.8101 68.3549 60.813 68.6149 60.8189 68.9133C60.8189 69.2117 60.8366 69.5603 60.9666 69.9178C61.0907 70.2723 61.3035 70.6387 61.6196 70.9489C61.9387 71.2532 62.3552 71.5073 62.8398 71.6196C63.0821 71.6757 63.3361 71.7052 63.5961 71.6846C63.8561 71.6727 64.1191 71.6196 64.3702 71.5221C64.8754 71.3359 65.3334 70.9725 65.6436 70.491C65.939 70.033 66.072 69.4982 66.0602 68.9783C66.0602 68.4494 66.0631 67.9383 66.0631 67.4508L66.134 67.5217C64.5859 67.5069 63.2623 67.4951 62.2991 67.4862C61.8382 67.4774 61.4659 67.4715 61.1853 67.4656C61.0671 67.4626 60.9666 67.4597 60.8839 67.4567C60.8189 67.4597 60.7805 67.4567 60.7776 67.4537C60.7716 67.4478 60.9046 67.4419 61.1587 67.436C61.4334 67.4301 61.7998 67.4242 62.2548 67.4153C63.2268 67.4065 64.5682 67.3947 66.137 67.3799H66.2079V67.4508C66.2079 67.9383 66.2108 68.4494 66.2108 68.9783C66.2286 69.516 66.0868 70.0921 65.7736 70.5737C65.4456 71.0818 64.9581 71.4689 64.4234 71.6609C64.1575 71.7643 63.8798 71.8175 63.605 71.8293C63.3302 71.8471 63.0614 71.8175 62.8073 71.7555C62.2962 71.6343 61.8589 71.3625 61.531 71.0375C61.203 70.7066 60.9873 70.3225 60.8632 69.9473C60.7362 69.5721 60.7244 69.2117 60.7332 68.9014C60.7391 68.5971 60.7451 68.3312 60.748 68.1067C60.7539 67.9058 60.7598 67.7433 60.7628 67.6133C60.7716 67.5069 60.7746 67.4508 60.7776 67.4537Z" fill="#263238"/>
<path d="M53.5363 67.3002C53.5393 67.3031 53.5452 67.3681 53.5482 67.4834C53.5511 67.6134 53.557 67.7788 53.5629 67.9827C53.5688 68.2013 53.5718 68.4613 53.5777 68.7597C53.5777 69.0581 53.5954 69.4067 53.7254 69.7642C53.8495 70.1188 54.0622 70.4851 54.3784 70.7953C54.6975 71.0996 55.114 71.3537 55.5986 71.466C55.8408 71.5221 56.0949 71.5517 56.3549 71.531C56.6149 71.5192 56.8779 71.466 57.129 71.3685C57.6342 71.1824 58.0922 70.819 58.4024 70.3374C58.6978 69.8794 58.8308 69.3447 58.819 68.8247C58.819 68.2958 58.8219 67.7847 58.8219 67.2972L58.8928 67.3681C57.3447 67.3534 56.0211 67.3415 55.0579 67.3327C54.597 67.3238 54.2247 67.3179 53.9441 67.312C53.8259 67.309 53.7254 67.3061 53.6427 67.3031C53.5747 67.3061 53.5393 67.3031 53.5363 67.3002C53.5304 67.2943 53.6634 67.2884 53.9175 67.2825C54.1922 67.2765 54.5586 67.2706 55.0136 67.2618C55.9856 67.2529 57.3269 67.2411 58.8958 67.2263H58.9667V67.2972C58.9667 67.7847 58.9696 68.2958 58.9696 68.8247C58.9874 69.3624 58.8455 69.9385 58.5324 70.4201C58.2044 70.9283 57.7169 71.3153 57.1822 71.5074C56.9163 71.6108 56.6385 71.664 56.3638 71.6758C56.089 71.6935 55.8202 71.664 55.5661 71.6019C55.0549 71.4808 54.6177 71.209 54.2897 70.884C53.9618 70.5531 53.7461 70.169 53.622 69.7938C53.495 69.4185 53.4832 69.0581 53.492 68.7479C53.4979 68.4436 53.5038 68.1777 53.5068 67.9531C53.5127 67.7522 53.5186 67.5897 53.5216 67.4597C53.5275 67.3534 53.5304 67.2972 53.5363 67.3002Z" fill="#263238"/>
<path d="M60.8428 67.6696C60.8428 67.711 60.3848 67.7464 59.8235 67.7464C59.2592 67.7464 58.8042 67.711 58.8042 67.6696C58.8042 67.6282 59.2621 67.5928 59.8235 67.5928C60.3878 67.5928 60.8428 67.6282 60.8428 67.6696Z" fill="#263238"/>
<path d="M47.8872 67.7109C47.8872 67.6695 49.1517 67.6311 50.7117 67.6252C52.2717 67.6193 53.5362 67.6518 53.5362 67.6932C53.5362 67.7345 52.2717 67.7729 50.7117 67.7788C49.1517 67.7818 47.8872 67.7522 47.8872 67.7109Z" fill="#263238"/>
<path d="M104.651 71.3803L95.8557 68.2219L87.1459 71.3389C86.035 71.8648 85.0601 72.178 85.0601 73.215V78.3735C85.0601 81.9544 85.9996 85.5056 87.9289 88.6374C89.5538 91.2728 92.0681 93.988 95.9414 95.7134C99.5016 94.5582 102.158 91.4737 103.783 88.8383C105.712 85.7036 106.651 82.1553 106.651 78.5744V73.9359C106.654 72.4557 105.871 71.7348 104.651 71.3803Z" fill="#92E3A9" stroke="#263238" stroke-miterlimit="10" stroke-linecap="round" stroke-linejoin="round"/>
<path d="M95.9414 92.7175C92.8776 91.3526 90.8863 89.1574 89.6011 87.0715C88.0736 84.5927 87.3321 81.786 87.3321 78.9496V75.3334C87.3321 74.515 87.8255 73.7468 88.8093 73.2889L95.8587 70.6535L95.8557 68.2219L87.1459 71.3389C86.233 71.7378 85.0601 72.178 85.0601 73.215V78.3735C85.0601 81.9544 85.9996 85.5056 87.9289 88.6374C89.5538 91.2728 92.0681 93.988 95.9414 95.7134V92.7175Z" fill="#92E3A9" stroke="#263238" stroke-miterlimit="10" stroke-linecap="round" stroke-linejoin="round"/>
<path d="M95.9416 95.7105C96.5591 95.5036 97.1264 95.2673 97.67 94.9689C99.1295 94.1741 100.376 93.081 101.328 92.0912C102.391 90.9862 103.183 89.7897 103.871 88.6729C105.801 85.5382 106.74 81.9898 106.655 78.3115L106.66 74.0541C106.655 71.9328 105.567 71.7762 104.654 71.3773L95.8589 68.219L95.8618 70.6505L102.994 73.3303C103.975 73.7882 104.471 74.5564 104.471 75.3748V78.991C104.471 81.8244 103.73 84.6311 102.202 87.1129C100.917 89.1988 99.0113 91.3496 95.9475 92.7146V95.7105H95.9416Z" fill="#799093" stroke="#263238" stroke-width="0.75" stroke-miterlimit="10"/>
<path opacity="0.5" d="M98.1896 78.7223L98.1984 78.025C98.1984 76.7664 97.1732 75.7412 95.9146 75.7412C94.656 75.7412 93.6308 76.7664 93.6308 78.0221L93.6219 78.7312C93.0045 78.8227 92.5317 79.3516 92.5317 79.9927V84.0994C92.5317 84.8056 93.1049 85.3787 93.8081 85.3787H98.0714C98.7775 85.3787 99.3507 84.8056 99.3507 84.0994V79.9927C99.3507 79.325 98.8396 78.7814 98.1896 78.7223ZM96.5262 83.0772H95.4124L95.5867 82.2736C95.3946 82.1524 95.2646 81.9397 95.2646 81.6974C95.2646 81.3222 95.5689 81.0179 95.9442 81.0179C96.3194 81.0179 96.6237 81.3222 96.6237 81.6974C96.6237 81.9338 96.5055 82.1406 96.3223 82.2618C96.3992 82.572 96.5262 83.0772 96.5262 83.0772ZM97.6991 78.7164H94.1153L94.1242 78.025C94.1242 77.0382 94.9278 76.2346 95.9146 76.2346C96.9014 76.2346 97.705 77.0382 97.705 78.0221L97.6991 78.7164Z" fill="white"/>
<path d="M88.7589 78.6721C88.7382 78.675 88.6791 78.4032 88.6259 77.9571C88.5727 77.5109 88.5343 76.8905 88.555 76.2051C88.5639 75.8623 88.5875 75.5374 88.6171 75.2419C88.6466 74.9465 88.6998 74.6717 88.815 74.4649C88.9273 74.2581 89.0839 74.134 89.1991 74.0778C89.3173 74.0217 89.3941 74.0247 89.3941 74.0335C89.4089 74.0542 89.0957 74.1133 88.9125 74.5151C88.8209 74.7071 88.7796 74.9642 88.7589 75.2567C88.7352 75.5492 88.7175 75.8712 88.7086 76.211C88.688 76.8905 88.7086 77.505 88.7352 77.9482C88.7589 78.3914 88.7796 78.6691 88.7589 78.6721Z" fill="white"/>
<path d="M88.8862 80.9145C88.8449 80.9145 88.8065 80.7047 88.8006 80.4417C88.7946 80.1788 88.8242 79.9661 88.8685 79.9661C88.9099 79.9661 88.9483 80.1758 88.9542 80.4388C88.9601 80.7017 88.9306 80.9145 88.8862 80.9145Z" fill="white"/>
<path d="M79.6091 102.184L69.8003 126.437H52.1177V127.53H104.787L115.562 102.184H79.6091Z" fill="#263238"/>
<path d="M94.5971 116.501C94.2426 117.722 93.2056 118.493 92.2867 118.227C91.3649 117.958 90.907 116.752 91.2615 115.532C91.6161 114.312 92.6501 113.541 93.5719 113.807C94.4937 114.076 94.9546 115.281 94.5971 116.501Z" fill="#FAFAFA"/>
</g>
<defs>
<clipPath id="clip0_2708_20">
<rect width="142.108" height="128" fill="white" transform="translate(0.5)"/>
</clipPath>
</defs>
</svg>
