<svg width="3" height="10" viewBox="0 0 3 10" fill="none" xmlns="http://www.w3.org/2000/svg">
<path d="M2.3717 9.67564C2.36868 9.67564 2.37473 9.63762 2.38531 9.56759C2.40043 9.48755 2.41705 9.3875 2.43973 9.26544C2.48659 9.00331 2.55613 8.62313 2.62717 8.14891C2.69822 7.67668 2.77532 7.11041 2.82671 6.47611C2.87508 5.8438 2.90532 5.13947 2.83276 4.41512C2.75113 3.69278 2.54554 3.03646 2.30519 2.4902C2.06333 1.94194 1.79274 1.49172 1.54634 1.13756C1.29995 0.783386 1.08227 0.519261 0.926567 0.345178C0.772379 0.169094 0.683191 0.0770491 0.687726 0.0690453C0.689238 0.0670443 0.713425 0.0870556 0.757263 0.127075C0.801101 0.169095 0.867613 0.227121 0.946219 0.313162C1.10797 0.479242 1.3332 0.737364 1.58716 1.08753C1.84111 1.4377 2.12077 1.88791 2.36868 2.44218C2.61659 2.99444 2.82822 3.66076 2.91136 4.40111C2.98543 5.14147 2.95218 5.85181 2.90078 6.48811C2.84485 7.12441 2.76171 7.69269 2.6831 8.16491C2.6045 8.63714 2.5274 9.01532 2.46996 9.27545C2.44124 9.40551 2.41856 9.50556 2.40194 9.57359C2.3838 9.64162 2.37322 9.67564 2.3717 9.67564Z" fill="#263238"/>
</svg>
