<svg width="15" height="17" viewBox="0 0 15 17" fill="none" xmlns="http://www.w3.org/2000/svg">
<path d="M9.49757 2.77968L5.68868 0.969238L1.91689 2.75597C1.43583 3.05742 1.01361 3.23694 1.01361 3.83139V6.78838C1.01361 8.841 1.42048 10.8767 2.25595 12.6719C2.95964 14.1826 4.04844 15.739 5.72579 16.728C7.26751 16.0658 8.41772 14.2977 9.12141 12.787C9.95689 10.9902 10.3638 8.95617 10.3638 6.90355V4.24462C10.365 3.39614 10.026 2.98291 9.49757 2.77968Z" fill="#92E3A9" stroke="#263238" stroke-width="0.5" stroke-miterlimit="10" stroke-linecap="round" stroke-linejoin="round"/>
<path d="M5.72579 15.0107C4.39901 14.2283 3.53666 12.9699 2.98011 11.7743C2.31864 10.3534 1.9975 8.74447 1.9975 7.11863V5.04569C1.9975 4.57656 2.21117 4.13623 2.63722 3.87373L5.68996 2.36305L5.68868 0.969238L1.91689 2.75597C1.52155 2.9846 1.01361 3.23694 1.01361 3.83139V6.78838C1.01361 8.841 1.42048 10.8767 2.25595 12.6719C2.95964 14.1826 4.04844 15.739 5.72579 16.728V15.0107Z" fill="#92E3A9" stroke="#263238" stroke-width="0.5" stroke-miterlimit="10" stroke-linecap="round" stroke-linejoin="round"/>
<path d="M5.72576 16.7263C5.99317 16.6078 6.23882 16.4723 6.47424 16.3012C7.10628 15.8457 7.6462 15.219 8.05818 14.6517C8.51878 14.0183 8.86167 13.3324 9.15978 12.6922C9.99525 10.8953 10.4021 8.86132 10.365 6.75282L10.3676 4.31237C10.365 3.09637 9.89417 3.00661 9.49883 2.77798L5.68866 0.969238L5.68994 2.36305L8.7785 3.89913C9.20328 4.16164 9.41822 4.60197 9.41822 5.07109V7.14403C9.41822 8.76818 9.09708 10.3771 8.43561 11.7997C7.87906 12.9954 7.05382 14.2283 5.72704 15.0107V16.7263H5.72576Z" fill="#799093" stroke="#263238" stroke-width="0.5" stroke-miterlimit="10"/>
<path opacity="0.5" d="M14.3832 8.52361L14.3877 8.05138C14.3877 7.19897 13.8631 6.50464 13.2192 6.50464C12.5752 6.50464 12.0507 7.19897 12.0507 8.04938L12.0461 8.52961C11.7302 8.59164 11.4883 8.94981 11.4883 9.38402V12.1653C11.4883 12.6436 11.7816 13.0318 12.1414 13.0318H14.3227C14.684 13.0318 14.9772 12.6436 14.9772 12.1653V9.38402C14.9772 8.9318 14.7157 8.56363 14.3832 8.52361ZM13.5321 11.473H12.9622L13.0514 10.9288C12.9531 10.8467 12.8866 10.7026 12.8866 10.5386C12.8866 10.2844 13.0423 10.0784 13.2343 10.0784C13.4263 10.0784 13.582 10.2844 13.582 10.5386C13.582 10.6986 13.5215 10.8387 13.4278 10.9208C13.4671 11.1309 13.5321 11.473 13.5321 11.473ZM14.1322 8.5196H12.2986L12.3031 8.05138C12.3031 7.38306 12.7143 6.8388 13.2192 6.8388C13.7241 6.8388 14.1352 7.38306 14.1352 8.04938L14.1322 8.5196Z" fill="white"/>
<path d="M9.55796 8.48958C9.54738 8.49159 9.51715 8.30749 9.48994 8.00535C9.46273 7.70321 9.44308 7.28301 9.45366 6.81878C9.45819 6.58667 9.47028 6.36657 9.4854 6.16647C9.50052 5.96638 9.52773 5.78029 9.58668 5.64022C9.64413 5.50015 9.72424 5.41611 9.7832 5.3781C9.84366 5.34008 9.88297 5.34208 9.88297 5.34808C9.89052 5.36209 9.73029 5.40211 9.63657 5.67424C9.5897 5.8043 9.56854 5.97838 9.55796 6.17648C9.54587 6.37457 9.5368 6.59268 9.53226 6.82279C9.52168 7.28301 9.53226 7.6992 9.54587 7.99935C9.55796 8.29949 9.56854 8.48758 9.55796 8.48958Z" fill="white"/>
<path d="M9.62308 10.0083C9.60192 10.0083 9.58226 9.8662 9.57924 9.68812C9.57622 9.51003 9.59134 9.36597 9.61401 9.36597C9.63517 9.36597 9.65483 9.50804 9.65785 9.68612C9.66087 9.86421 9.64576 10.0083 9.62308 10.0083Z" fill="white"/>
</svg>
