<svg width="3" height="6" viewBox="0 0 3 6" fill="none" xmlns="http://www.w3.org/2000/svg">
<path d="M2.1059 0.00485577C2.10818 0.00847925 2.08082 0.0827611 2.02837 0.220453C1.97022 0.367204 1.89269 0.564686 1.79805 0.805648C1.59281 1.31294 1.31118 2.00864 0.985089 2.81305L0.956584 2.74421C1.23251 2.66812 1.53238 2.58659 1.84366 2.50143C2.15949 2.41628 2.46506 2.33476 2.74555 2.25866L2.81054 2.24055L2.77406 2.32751C2.43998 3.11743 2.15151 3.79864 1.94171 4.29687C1.84024 4.52877 1.75814 4.71901 1.69657 4.86033C1.63842 4.99077 1.6065 5.05962 1.60307 5.0578C1.60079 5.05418 1.62816 4.9799 1.68061 4.84402C1.73876 4.69727 1.81629 4.50341 1.91207 4.26607C2.11844 3.76422 2.40007 3.07576 2.72731 2.27859L2.75581 2.34744C2.47532 2.42353 2.17089 2.50687 1.85506 2.59384C1.54379 2.67718 1.24391 2.75871 0.966846 2.83299L0.901855 2.85111L0.938341 2.76414C1.27128 1.96697 1.55975 1.27851 1.76954 0.776659C1.86988 0.541133 1.95197 0.350901 2.01469 0.205962C2.07055 0.0737048 2.10248 0.00304403 2.1059 0.00485577Z" fill="black"/>
</svg>
