<svg width="5" height="3" viewBox="0 0 5 3" fill="none" xmlns="http://www.w3.org/2000/svg">
<path d="M4.07715 0.117124C4.07715 0.123127 4.00459 0.135131 3.87157 0.15314C3.72645 0.169148 3.53447 0.191162 3.29714 0.219175C2.79527 0.269199 2.10747 0.337228 1.31083 0.415265L1.33351 0.329225C1.60409 0.665386 1.89886 1.03156 2.20422 1.40974C2.51411 1.79593 2.8119 2.1681 3.08551 2.51027L3.149 2.59031L3.06283 2.59631C2.27073 2.65434 1.58595 2.70436 1.08711 2.74038C0.85129 2.75439 0.659311 2.76439 0.515704 2.7724C0.382679 2.7784 0.31012 2.7784 0.31012 2.7724C0.31012 2.76639 0.381167 2.75439 0.514192 2.73838C0.657799 2.72237 0.849778 2.70236 1.08408 2.67635C1.58293 2.63033 2.26619 2.5683 3.0583 2.49626L3.03562 2.5823C2.7605 2.24014 2.4612 1.86996 2.15131 1.48578C1.84747 1.1056 1.5527 0.739425 1.28362 0.401263L1.22013 0.323223L1.3063 0.31722C2.10294 0.253189 2.79225 0.199162 3.29412 0.159143C3.53145 0.143135 3.72494 0.131131 3.87005 0.123127C4.00308 0.113122 4.07564 0.113122 4.07715 0.117124Z" fill="black"/>
</svg>
