<svg width="115" height="75" viewBox="0 0 115 75" fill="none" xmlns="http://www.w3.org/2000/svg">
<path d="M89.2834 0.0753077C76.3619 0.414114 70.6035 8.62225 53.832 12.0787C36.7529 13.4139 28.8999 7.1335 16.399 10.3931C2.95054 13.9013 -4.0912 33.6772 2.50835 51.2919C9.10791 68.9065 29.8358 76.0498 39.3994 74.4659C47.0412 73.2008 53.177 68.9749 61.7531 66.8352C70.5918 66.5081 77.6801 68.8631 85.3735 67.9568C95.0002 66.8236 112.872 54.2159 114.212 35.4764C115.552 16.7369 103.186 -0.288534 89.2834 0.0753077Z" fill="#92E3A9"/>
<path opacity="0.7" d="M89.2834 0.0753077C76.3619 0.414114 70.6035 8.62225 53.8319 12.0787C36.7529 13.4139 28.8999 7.1335 16.399 10.3931C2.95054 13.9013 -4.0912 33.6772 2.50835 51.2919C9.10791 68.9065 29.8358 76.0498 39.3994 74.4659C47.0412 73.2008 53.177 68.9749 61.7531 66.8352C70.5918 66.5081 77.6801 68.8631 85.3735 67.9568C95.0002 66.8236 112.872 54.2159 114.212 35.4764C115.552 16.7369 103.186 -0.288534 89.2834 0.0753077Z" fill="#D2EEEA"/>
</svg>
