<svg width="81" height="70" viewBox="0 0 81 70" fill="none" xmlns="http://www.w3.org/2000/svg">
<path d="M76.0725 14.3518C75.8094 13.9248 75.5312 13.5073 75.2414 13.0977C71.3806 7.64474 64.7366 3.91576 58.2009 2.22986C55.3394 1.49168 52.383 1.10434 49.4216 1.00909C29.9977 0.38045 22.2611 14.9709 15.8419 18.7364C9.42281 22.5019 -0.454056 28.9328 0.205512 42.4247C0.86508 55.9167 11.0684 68.6244 30.8205 69.4086C50.5725 70.1929 51.89 61.7221 62.9178 58.5836C70.2163 56.5072 75.4013 49.4938 77.9413 43.0121C81.4024 34.1794 81.2391 22.7067 76.0725 14.3518Z" fill="#92E3A9"/>
<path opacity="0.7" d="M76.0725 14.3518C75.8093 13.9248 75.5312 13.5073 75.2414 13.0977C71.3806 7.64474 64.7366 3.91576 58.2009 2.22986C55.3394 1.49168 52.383 1.10434 49.4216 1.00909C29.9977 0.38045 22.2611 14.9709 15.8419 18.7364C9.42281 22.5019 -0.454056 28.9328 0.205512 42.4247C0.86508 55.9167 11.0684 68.6244 30.8205 69.4086C50.5725 70.1929 51.89 61.7221 62.9178 58.5836C70.2163 56.5072 75.4013 49.4938 77.9413 43.0121C81.4024 34.1794 81.2391 22.7067 76.0725 14.3518Z" fill="#DBF7F1"/>
</svg>
