<svg width="16" height="14" viewBox="0 0 16 14" fill="none" xmlns="http://www.w3.org/2000/svg">
<path d="M8.49672 13.1073C11.9331 13.1073 14.7189 10.3104 14.7189 6.86028C14.7189 3.41013 11.9331 0.61322 8.49672 0.61322C5.0603 0.61322 2.27452 3.41013 2.27452 6.86028C2.27452 10.3104 5.0603 13.1073 8.49672 13.1073Z" fill="#799093" stroke="#263238" stroke-width="0.75" stroke-miterlimit="10"/>
<path d="M1.29374 6.41645L1.52314 8.56112C1.56803 8.98671 1.96865 9.28212 2.38757 9.19534C3.90696 8.88323 7.30149 8.239 9.37777 8.27405C12.1157 8.31911 14.5926 9.70772 14.5926 9.70772L14.5677 8.45597C14.5278 6.5216 14.2335 4.60225 13.6916 2.74633L13.3325 1.51794C13.3325 1.51794 11.4142 3.65259 8.61808 4.54384C6.51354 5.21478 3.38166 5.50852 1.96201 5.612C1.5514 5.64371 1.24885 6.00755 1.29374 6.41645Z" fill="white" stroke="#263238" stroke-miterlimit="10" stroke-linecap="round" stroke-linejoin="round"/>
<path d="M13.3758 2.15534L13.3575 2.09192C13.3575 2.09192 11.4059 4.19486 8.59482 5.04271C8.44354 5.08777 8.28562 5.13283 8.12437 5.17456" stroke="#263238" stroke-miterlimit="10"/>
<path d="M7.49101 5.32318C7.01391 5.42666 6.5152 5.51512 6.01483 5.59189" stroke="#263238" stroke-miterlimit="10"/>
<path d="M14.6358 10.1232C14.6242 10.1248 14.6109 10.1248 14.5992 10.1248C14.3698 10.1298 14.1787 9.94624 14.1737 9.71425L14.1488 8.4625C14.1105 6.56652 13.8213 4.68222 13.2893 2.86301L12.9302 1.63463C12.8654 1.41265 12.9918 1.18066 13.2128 1.11557C13.4339 1.05048 13.665 1.17732 13.7298 1.3993L14.0889 2.62768C14.6425 4.51866 14.9417 6.47639 14.9816 8.44581L15.0065 9.69756C15.0115 9.91787 14.8486 10.0998 14.6358 10.1232Z" fill="#263238" stroke="#263238" stroke-miterlimit="10" stroke-linecap="round" stroke-linejoin="round"/>
<path d="M6.23596 5.10272C4.59023 5.39146 2.89961 5.54501 1.96038 5.61344C1.55144 5.64348 1.25055 6.00732 1.29377 6.41622L1.52318 8.56089C1.56806 8.98648 1.96869 9.28189 2.38761 9.19511C3.32684 9.0015 4.98088 8.68272 6.59669 8.4741L6.23596 5.10272Z" fill="#263238" stroke="#263238" stroke-miterlimit="10" stroke-linecap="round" stroke-linejoin="round"/>
<path d="M3.44981 8.61945C3.44981 8.61945 4.11476 9.97635 4.21782 10.1015C4.25606 10.1483 4.3292 10.1816 4.40567 10.2067C4.58853 10.2651 4.74645 10.3836 4.85284 10.5438C5.32827 11.2665 6.54179 13.1124 6.6033 13.1792C6.67977 13.2609 6.86762 13.3327 6.97234 13.2526C7.07707 13.1725 7.8534 12.4097 7.79521 12.0743C7.73703 11.7405 7.63396 11.8423 7.46108 11.7021C7.32144 11.5886 6.78284 10.6239 6.57837 10.2501C6.5285 10.1599 6.53348 10.0515 6.59 9.96634L6.7712 9.68928C6.7712 9.68928 5.97992 9.04839 5.96829 8.93656C5.95665 8.82474 6.28579 8.74296 6.29743 8.62947C6.3074 8.51431 6.01649 8.11542 6.01649 8.11542L3.44981 8.61945Z" fill="white" stroke="#263238" stroke-miterlimit="10" stroke-linecap="round" stroke-linejoin="round"/>
<path d="M6.27914 9.27197L6.85931 9.48727C6.88258 9.49562 6.89089 9.52399 6.87593 9.54235L6.7712 9.68922L6.27914 9.27197Z" fill="#92E3A9" stroke="#263238" stroke-miterlimit="10"/>
<path d="M4.83456 9.81775L4.66666 9.94626" stroke="#263238" stroke-miterlimit="10"/>
<path d="M5.96829 8.93646L4.97919 9.7042" stroke="#263238" stroke-miterlimit="10"/>
<path d="M4.73787 6.63055L4.09489 6.69989L4.13892 7.11144L4.7819 7.0421L4.73787 6.63055Z" fill="#92E3A9"/>
</svg>
