<svg width="58" height="47" viewBox="0 0 58 47" fill="none" xmlns="http://www.w3.org/2000/svg">
<path d="M38.7666 23.9862C36.6713 26.3134 36.4498 28.828 35.6153 31.1806C34.2512 35.0255 33.5117 38.9434 34.2795 42.9359C35.9967 43.7423 38.0121 42.9327 39.9125 42.7184C43.2853 42.3358 46.6165 43.8963 50.0076 43.7312C50.7088 43.6979 51.45 43.5693 51.9696 43.1185C52.7974 42.3993 52.7608 41.1801 52.8141 40.1149C53.0556 35.2096 56.405 30.9727 57.7625 26.2357C57.8408 25.9626 57.9057 25.6499 57.7425 25.4133C57.5909 25.1959 57.2978 25.1212 57.028 25.0704C54.1882 24.5323 51.2601 24.7831 48.367 24.8768C45.6188 24.9673 42.779 24.8974 40.239 23.9179C39.8925 23.7846 39.5111 23.7417 39.1463 23.8195C38.9848 23.8544 38.8399 23.9068 38.7666 23.9862Z" fill="#455A64"/>
<path d="M41.9045 30.9059C41.9029 30.9043 41.9229 30.8758 41.9645 30.8234C42.0128 30.7646 42.0744 30.6884 42.1527 30.5948C42.2343 30.4948 42.3359 30.3757 42.4642 30.2455C42.5908 30.1138 42.729 29.9582 42.9022 29.8026C42.9872 29.7233 43.0754 29.6407 43.1671 29.555C43.2603 29.4693 43.3636 29.3883 43.4669 29.2994C43.6717 29.12 43.9099 28.9486 44.1547 28.7644C44.6577 28.4104 45.2374 28.0532 45.8769 27.7342C46.5215 27.4214 47.1628 27.1785 47.7574 26.9944C48.0572 26.9103 48.342 26.8245 48.6135 26.7706C48.7484 26.742 48.8783 26.7071 49.0066 26.6848C49.1331 26.6626 49.2547 26.642 49.3713 26.6229C49.6028 26.5785 49.8177 26.561 50.0026 26.5388C50.1891 26.515 50.3507 26.5054 50.4823 26.4991C50.6072 26.4943 50.7071 26.4896 50.7854 26.4864C50.8554 26.4848 50.892 26.4848 50.892 26.488C50.892 26.4912 50.8554 26.4959 50.7871 26.5039C50.7088 26.5118 50.6089 26.5213 50.4856 26.5324C50.354 26.542 50.1941 26.5562 50.0092 26.5848C49.8244 26.6118 49.6128 26.6324 49.383 26.6801C49.2681 26.7007 49.1465 26.7245 49.0199 26.7467C48.8933 26.7706 48.7651 26.8055 48.6301 26.8356C48.3603 26.8928 48.0788 26.9801 47.7807 27.0658C47.1911 27.2547 46.5548 27.496 45.9153 27.8072C45.279 28.1231 44.7027 28.4771 44.1997 28.8247C43.9532 29.0057 43.7167 29.174 43.5102 29.3502C43.4069 29.4375 43.302 29.5169 43.2087 29.601C43.1154 29.6852 43.0271 29.7661 42.9405 29.8439C42.7656 29.9947 42.6257 30.1471 42.4958 30.2757C42.3642 30.4027 42.2593 30.5186 42.1744 30.6154C42.0928 30.7043 42.0261 30.7773 41.9745 30.8329C41.9329 30.8821 41.9062 30.9075 41.9045 30.9059Z" fill="#263238"/>
<path d="M43.3952 18.4555C43.3952 18.4555 38.8282 13.2613 37.091 13.2613C37.091 13.2613 35.9934 15.1044 35.9567 16.1076C35.9201 17.1125 39.4711 21.8146 39.4711 21.8146L43.3952 18.4555Z" fill="#C8DCEC"/>
<path d="M32.394 13.2136L37.0909 13.2596L38.5417 20.1556C38.5417 20.1556 37.7622 27.3437 37.1809 29.1788C36.5996 31.0139 35.2755 34.0206 35.2755 34.0206L23.7014 31.5807L23.3549 23.6179L21.9375 16.1409L26.8826 14.2756L32.394 13.2136Z" fill="#C8DCEC"/>
<path d="M18.6498 22.7496C18.6498 22.4718 20.2654 16.7981 21.9376 16.1409L23.2284 18.0395L23.8181 23.2052L18.6498 22.7496Z" fill="#C8DCEC"/>
<path d="M38.4851 16.614C38.4917 16.614 38.4917 16.679 38.4884 16.7933C38.4834 16.9267 38.4767 17.0902 38.4701 17.2823C38.4534 17.695 38.4401 18.2633 38.4468 18.892C38.4551 19.5206 38.4851 20.0905 38.5117 20.5017C38.5234 20.6938 38.535 20.8557 38.5434 20.989C38.55 21.1049 38.5517 21.1684 38.545 21.1684C38.5384 21.1684 38.5267 21.1065 38.51 20.9922C38.4917 20.8779 38.4717 20.7112 38.4501 20.5064C38.4068 20.0953 38.3685 19.5254 38.3601 18.8936C38.3518 18.2633 38.3768 17.6918 38.4084 17.2791C38.4234 17.0727 38.4401 16.9061 38.4551 16.7918C38.4684 16.6775 38.4801 16.614 38.4851 16.614Z" fill="#263238"/>
<path d="M23.2983 18.2602C23.305 18.2618 23.2983 18.3317 23.2817 18.4587C23.2633 18.5857 23.2417 18.7682 23.2167 18.9936C23.1667 19.4461 23.1234 20.0731 23.1384 20.7668C23.1551 21.4606 23.2267 22.086 23.2983 22.5353C23.3333 22.7607 23.3649 22.9417 23.3883 23.0671C23.4116 23.1925 23.4199 23.2624 23.4149 23.2639C23.4082 23.2655 23.3883 23.1973 23.3549 23.0734C23.3216 22.9496 23.28 22.7686 23.2383 22.5448C23.1517 22.0956 23.0685 21.4669 23.0518 20.7684C23.0368 20.0699 23.0901 19.4381 23.1551 18.9857C23.1884 18.7587 23.22 18.5777 23.2483 18.4523C23.275 18.3269 23.2933 18.2586 23.2983 18.2602Z" fill="#263238"/>
<path d="M33.3301 31.1203C33.3251 31.1235 33.2668 31.0632 33.1652 30.9489C33.0536 30.8235 32.9104 30.66 32.7388 30.4647C32.3807 30.0551 31.8827 29.4932 31.3214 28.882C30.7601 28.2708 30.2404 27.7247 29.8624 27.3326C29.6825 27.1437 29.5326 26.9881 29.416 26.8659C29.3111 26.7548 29.2561 26.6913 29.2594 26.6881C29.2644 26.6849 29.3277 26.7405 29.4393 26.8437C29.5526 26.9469 29.7108 27.1009 29.9057 27.2929C30.2954 27.6755 30.8217 28.2153 31.3847 28.828C31.9477 29.4408 32.439 30.0107 32.7854 30.4298C32.9587 30.6393 33.0969 30.8108 33.1902 30.9299C33.2868 31.0489 33.3351 31.1172 33.3301 31.1203Z" fill="#263238"/>
<path d="M34.3128 6.29694C34.3711 8.24636 33.5033 10.2053 31.9943 11.5229C31.6495 10.5688 31.3031 9.61635 30.9583 8.66228" fill="#263238"/>
<path d="M26.5028 0.605854C27.3923 0.142311 28.4666 0.075637 29.4609 0.266134C30.4553 0.455044 31.3813 0.88525 32.2574 1.36784C32.7504 1.6393 33.2401 1.93775 33.5949 2.3616C34.2411 3.13629 34.879 4.40786 34.9407 5.39527C34.9906 6.19377 34.6708 8.1924 34.3161 8.91787C33.9913 9.58303 32.4706 10.0894 31.7194 10.2545L24.8323 2.62036C25.0754 1.77265 25.6934 1.02812 26.5028 0.605854Z" fill="#263238"/>
<path d="M25.3153 1.63608L26.9659 1.3551C26.0632 3.40295 25.8184 8.08759 25.302 10.2545C24.6941 9.41313 23.28 6.84935 23.3566 5.83019C23.4316 4.80945 23.3533 1.46146 25.3153 1.63608Z" fill="#263238"/>
<path d="M24.371 4.97614C24.4792 3.40454 25.5752 1.47735 27.2191 1.64721L31.0216 2.57112C32.2408 2.86797 33.0536 3.84904 33.1436 5.04599C33.1486 5.10632 33.1536 5.03329 33.1536 5.07774L32.3058 14.4613L29.4527 19.8587L26.9343 14.1978C26.9326 13.4326 26.9326 12.823 26.9326 12.8278C26.9326 12.8278 24.8257 12.4897 24.396 9.86874C24.1778 8.56383 24.2511 6.72236 24.371 4.97614Z" fill="#FFBE9D"/>
<path d="M25.1971 7.10652C25.1904 7.28432 25.342 7.43671 25.5369 7.44624C25.7301 7.45576 25.8933 7.32083 25.9016 7.14462C25.9083 6.96682 25.7567 6.81443 25.5635 6.8049C25.367 6.79379 25.2037 6.92872 25.1971 7.10652Z" fill="#263238"/>
<path d="M24.784 6.00161C24.8273 6.04606 25.0955 5.85715 25.4753 5.85874C25.855 5.85556 26.1315 6.0413 26.1731 5.99844C26.1931 5.97939 26.1481 5.90001 26.0282 5.81588C25.9083 5.73174 25.7051 5.64919 25.4686 5.65078C25.2321 5.65078 25.0339 5.73333 24.919 5.81905C24.8024 5.90319 24.7624 5.98256 24.784 6.00161Z" fill="#263238"/>
<path d="M28.6798 7.10652C28.6731 7.28432 28.8247 7.43671 29.0196 7.44624C29.2128 7.45576 29.376 7.32083 29.3843 7.14462C29.391 6.96682 29.2394 6.81443 29.0462 6.8049C28.8497 6.79379 28.6864 6.92872 28.6798 7.10652Z" fill="#263238"/>
<path d="M28.3867 6.00161C28.43 6.04606 28.6982 5.85715 29.0779 5.85874C29.4577 5.85556 29.7342 6.0413 29.7758 5.99844C29.7958 5.97939 29.7525 5.90001 29.6309 5.81588C29.511 5.73174 29.3078 5.64919 29.0713 5.65078C28.8347 5.65237 28.6365 5.73333 28.5216 5.81905C28.4067 5.90319 28.3667 5.98256 28.3867 6.00161Z" fill="#263238"/>
<path d="M27.2008 8.84165C27.2025 8.82101 26.9676 8.78132 26.5845 8.7337C26.4879 8.72417 26.3963 8.70512 26.3797 8.64162C26.3564 8.57495 26.398 8.47494 26.4446 8.36858C26.5362 8.14474 26.6328 7.91139 26.7328 7.66533C27.1325 6.66522 27.4223 5.84291 27.3807 5.82703C27.339 5.81274 26.9793 6.61124 26.5795 7.61135C26.4829 7.85741 26.3913 8.09236 26.3031 8.31778C26.2664 8.42255 26.2031 8.54161 26.2514 8.67973C26.2781 8.74957 26.348 8.79878 26.4097 8.81466C26.4713 8.83212 26.5262 8.83371 26.5745 8.83688C26.961 8.8607 27.1991 8.86228 27.2008 8.84165Z" fill="#263238"/>
<path d="M30.5752 11.8943C30.5752 11.8943 29.6808 13.6945 26.9292 13.4437V12.8278C26.9292 12.8278 28.7414 12.9405 30.5752 11.8943Z" fill="#EB996E"/>
<path d="M28.5066 4.69519C28.5432 4.79361 28.923 4.74758 29.3677 4.79996C29.8141 4.84282 30.1722 4.96823 30.2321 4.88092C30.2588 4.83806 30.1955 4.74599 30.0506 4.65074C29.9073 4.55549 29.6775 4.465 29.411 4.43484C29.1445 4.40627 28.8997 4.44595 28.7364 4.50945C28.5732 4.57137 28.4899 4.64915 28.5066 4.69519Z" fill="#263238"/>
<path d="M24.9072 4.89522C24.9739 4.97777 25.2354 4.89205 25.5502 4.88887C25.865 4.87459 26.1298 4.94602 26.1914 4.8603C26.2181 4.81903 26.1764 4.73648 26.0598 4.65869C25.9449 4.5809 25.7534 4.5174 25.5385 4.52375C25.322 4.5301 25.1354 4.60313 25.0255 4.68726C24.9156 4.7714 24.8789 4.85554 24.9072 4.89522Z" fill="#263238"/>
<path d="M25.1187 2.58224C25.287 2.18854 25.7417 1.95042 26.1864 1.92978C26.6328 1.90756 27.0675 2.06948 27.4539 2.2822C29.0911 3.18389 29.9323 5.36349 31.5512 6.29693C31.9493 6.52711 32.4673 6.31598 32.8054 6.62077C33.1435 6.92557 33.3633 7.41134 33.1768 7.81614C33.395 7.53199 33.6149 7.24307 33.7381 6.91128C33.8614 6.5795 33.878 6.19374 33.6931 5.89053C33.5532 5.65876 33.3067 5.48255 33.2384 5.2238C33.1785 4.99679 33.2734 4.75708 33.2634 4.52372C33.2534 4.2856 33.1352 4.06335 33.0119 3.85539C32.379 2.78702 31.5062 1.82025 30.3836 1.22018C29.6508 0.828076 28.8113 0.597893 27.9702 0.62488C27.1291 0.651867 26.2896 0.947137 25.675 1.49323C25.3103 1.8139 24.9305 2.14568 25.1187 2.58224Z" fill="#263238"/>
<path d="M32.7655 6.94462C32.7938 6.87001 34.2278 6.37631 34.2478 7.82885C34.2662 9.24011 32.7721 8.9623 32.7688 8.92262C32.7655 8.88134 32.7655 6.94462 32.7655 6.94462Z" fill="#FFBE9D"/>
<path d="M33.2201 8.38286C33.2268 8.3781 33.2468 8.40033 33.2901 8.41779C33.3334 8.43525 33.4067 8.44795 33.4833 8.41938C33.6398 8.36382 33.7681 8.12569 33.7731 7.87011C33.7748 7.74153 33.7464 7.61929 33.6981 7.51928C33.6515 7.41609 33.5816 7.34466 33.5016 7.33196C33.4233 7.31608 33.3684 7.36053 33.35 7.40022C33.33 7.43991 33.34 7.46848 33.3317 7.47007C33.3284 7.47324 33.3001 7.44626 33.3117 7.38911C33.3167 7.36053 33.335 7.32719 33.3684 7.30021C33.4033 7.27163 33.455 7.25735 33.5099 7.2637C33.6249 7.27005 33.7281 7.37006 33.7814 7.47959C33.8414 7.59072 33.878 7.72724 33.8747 7.8717C33.868 8.15586 33.7181 8.42414 33.5049 8.48446C33.4017 8.51145 33.3134 8.48288 33.2684 8.44954C33.2235 8.41779 33.2151 8.38604 33.2201 8.38286Z" fill="#EB996E"/>
<path d="M33.355 6.21907C33.3533 6.22066 33.3233 6.20478 33.2651 6.17145C33.2084 6.13652 33.1218 6.09207 33.0169 6.02064C32.8103 5.87776 32.5222 5.65234 32.2174 5.32691C31.9093 5.00306 31.5878 4.58397 31.2397 4.11567C30.8899 3.64895 30.5069 3.13143 30.0172 2.66472C29.7673 2.43612 29.5058 2.23133 29.2294 2.071C28.9529 1.90908 28.6614 1.78843 28.3782 1.7027C27.8086 1.52808 27.2606 1.48998 26.8093 1.51856C26.3562 1.54554 25.9981 1.63762 25.7583 1.7154C25.6367 1.75033 25.5468 1.79001 25.4835 1.81224C25.4219 1.83605 25.3885 1.84716 25.3869 1.84558C25.3852 1.84399 25.4169 1.82812 25.4785 1.80113C25.5401 1.77414 25.6284 1.73128 25.75 1.69318C25.9881 1.60745 26.3479 1.50903 26.8059 1.4757C27.2623 1.44077 27.8169 1.47411 28.3966 1.64873C28.6864 1.73445 28.9812 1.8551 29.2643 2.0202C29.5475 2.18371 29.814 2.39167 30.0655 2.62185C30.5602 3.09492 30.9449 3.61561 31.2913 4.08392C31.6378 4.55381 31.9526 4.97449 32.254 5.29834C32.5522 5.62536 32.832 5.85395 33.0335 6.00159C33.1351 6.07461 33.2201 6.12382 33.2734 6.16192C33.3283 6.19685 33.3567 6.21748 33.355 6.21907Z" fill="#455A64"/>
<path d="M32.982 6.61759C33.0053 7.00335 33.0237 7.40974 32.8371 7.75263C32.6506 8.09553 32.1792 8.32889 31.8278 8.1368C31.5413 7.98123 31.4547 7.6304 31.4064 7.31925C31.2665 6.42074 31.2015 5.51112 31.0533 4.6142L32.982 6.61759Z" fill="#263238"/>
<path d="M28.1335 9.52901C28.2767 9.70681 28.32 9.95287 28.2484 10.1656C28.1768 10.3783 27.9902 10.5545 27.767 10.6212C27.6771 10.6482 27.5788 10.6577 27.4905 10.626C27.3356 10.5704 27.259 10.4085 27.1974 10.2624C27.1458 10.1402 27.0958 10.0195 27.0442 9.8973C27.0275 9.85603 27.0092 9.80999 27.0292 9.77031C27.0508 9.72744 27.1058 9.71157 27.1541 9.70046C27.4706 9.62743 27.787 9.55441 28.1051 9.48138" fill="#EB996E"/>
<path d="M27.5122 10.5815C27.5139 10.591 27.6805 10.6085 27.9436 10.5291C28.0719 10.4862 28.2284 10.3989 28.3217 10.2354C28.37 10.1576 28.39 10.0481 28.38 9.95442C28.3733 9.85917 28.35 9.75916 28.305 9.66391C28.2617 9.57342 28.1984 9.49246 28.1268 9.42896L28.1018 9.40674L28.0702 9.41785C27.4406 9.62898 26.9493 9.73693 26.9543 9.76233C26.9593 9.78932 27.4656 9.72423 28.1068 9.51945L28.0502 9.50834C28.1118 9.5639 28.1635 9.63375 28.2018 9.71153C28.2734 9.87346 28.3034 10.0608 28.2301 10.1894C28.1585 10.3259 28.0302 10.41 27.9153 10.4576C27.6788 10.5497 27.5072 10.5608 27.5122 10.5815Z" fill="#263238"/>
<path d="M25.4835 1.91072C25.4852 1.91866 25.6151 1.88691 25.8516 1.88056C26.0881 1.87421 26.4362 1.90437 26.8309 2.05201C27.0275 2.12503 27.2373 2.22187 27.4455 2.35363C27.6537 2.4838 27.8653 2.64096 28.0785 2.814C28.5032 3.16324 28.9429 3.58551 29.3193 4.08874C29.5075 4.34115 29.6741 4.59991 29.854 4.83962C30.0322 5.07933 30.232 5.29681 30.4469 5.47619C30.8766 5.83338 31.3213 6.08261 31.6978 6.27469C32.0775 6.46519 32.394 6.59854 32.6122 6.6922C32.7154 6.73347 32.7987 6.7684 32.8653 6.79538C32.9236 6.81761 32.9553 6.82872 32.9553 6.82555C32.9569 6.82237 32.927 6.80809 32.872 6.77951C32.807 6.74935 32.7254 6.71125 32.6255 6.66362C32.4106 6.56203 32.0992 6.42074 31.7261 6.22548C31.3546 6.02863 30.9183 5.77623 30.4969 5.42222C30.287 5.24601 30.0938 5.03329 29.9189 4.79517C29.7424 4.55863 29.5758 4.29829 29.3859 4.04429C29.0045 3.53312 28.5598 3.11085 28.1284 2.76002C27.9102 2.58699 27.6954 2.42983 27.4822 2.29966C27.269 2.1679 27.0541 2.07265 26.8509 2.00121C26.4445 1.85834 26.0881 1.83611 25.8483 1.85199C25.7283 1.85992 25.6351 1.87421 25.5734 1.8885C25.5135 1.89961 25.4818 1.90755 25.4835 1.91072Z" fill="#455A64"/>
<path d="M33.0236 5.74605C33.022 5.75081 33.0669 5.77938 33.1552 5.83018C33.2568 5.88733 33.3817 5.95718 33.53 6.03973C33.5699 6.06196 33.6132 6.08418 33.6566 6.10799C33.7032 6.1318 33.7548 6.15403 33.8181 6.15879C33.8498 6.16038 33.8864 6.1572 33.9181 6.13657C33.9497 6.11593 33.9713 6.08101 33.973 6.04291C33.9763 5.9683 33.9347 5.91432 33.9031 5.86511C33.7698 5.66191 33.6232 5.43808 33.4683 5.20154L33.41 5.25393C33.5483 5.35235 33.7099 5.43014 33.8864 5.48094C34.063 5.53174 34.2428 5.55079 34.4161 5.53968C34.4577 5.53809 34.506 5.53333 34.551 5.51745C34.5943 5.50317 34.6442 5.47459 34.6659 5.4222C34.6875 5.3714 34.6676 5.31426 34.6409 5.27933C34.6143 5.24282 34.5826 5.21583 34.556 5.19043C34.3361 4.98723 34.1712 4.77293 34.0513 4.58402C33.8131 4.20302 33.7465 3.92839 33.7298 3.93474C33.7248 3.93633 33.7382 4.00459 33.7765 4.12524C33.8164 4.2443 33.8847 4.41574 33.9997 4.61259C34.1146 4.80944 34.2778 5.03168 34.501 5.24282C34.556 5.29203 34.6109 5.35077 34.5893 5.39522C34.571 5.43967 34.4877 5.46189 34.4094 5.46189C34.2462 5.46983 34.0746 5.45078 33.9081 5.40474C33.7415 5.35712 33.5883 5.28409 33.4567 5.19202L33.2801 5.0682L33.3984 5.24282C33.5566 5.47776 33.7065 5.70001 33.8431 5.90162C33.8781 5.95083 33.9081 5.99846 33.9064 6.03973C33.9047 6.07942 33.8681 6.10323 33.8214 6.10006C33.7248 6.09529 33.6382 6.03338 33.555 5.99528C33.4017 5.92067 33.2735 5.85717 33.1685 5.80637C33.0769 5.76351 33.0253 5.74287 33.0236 5.74605Z" fill="#455A64"/>
<g opacity="0.3">
<path d="M23.6947 26.4468C24.1095 25.1323 24.8773 23.8623 26.0965 23.1337C27.0942 22.5384 28.3034 22.3542 29.481 22.313C31.6079 22.2399 33.7315 22.5924 35.7868 23.1178C39.0214 23.9449 42.1893 25.2403 44.6843 27.3691L45.2873 27.785C43.3136 28.3311 41.1933 27.9231 39.2229 27.3627C37.2542 26.8024 35.2955 26.0848 33.2418 26.0086C32.0126 25.9626 30.7451 26.1451 29.5792 25.7753C29.1062 25.6244 28.6365 25.3831 28.1402 25.4355C27.5489 25.499 27.1025 25.9578 26.7144 26.388C25.4736 27.7596 24.2344 29.1312 22.9935 30.5043C23.1767 29.1407 23.28 27.7596 23.6947 26.4468Z" fill="black"/>
</g>
<path d="M43.0688 18.7349C43.0688 18.7349 47.2461 23.2354 47.5726 24.8292C47.899 26.423 47.5726 27.1151 46.1185 27.6342C44.6645 28.1534 35.0358 24.7244 35.0358 24.7244L36.6714 22.0574L41.853 23.0274L39.9292 21.4209L41.6648 19.935L43.0688 18.7349Z" fill="#FFBE9D"/>
<path d="M31.8361 16.8584L32.3258 22.5543C32.3425 22.7479 32.1942 22.9178 31.9927 22.9384L28.3068 23.3115C28.1019 23.3321 27.9187 23.1924 27.8954 22.9972L27.1725 17.0473C27.1475 16.8394 27.3141 16.6568 27.5323 16.6505L31.4514 16.5314C31.6513 16.525 31.8212 16.6695 31.8361 16.8584Z" fill="#263238"/>
<path d="M29.9856 19.3905C30.1005 19.3985 32.6022 19.8239 32.6022 19.8239L35.5819 21.8146L36.6712 22.0575L36.0167 24.9673L35.0356 24.7245C35.0356 24.7245 34.2645 24.7626 33.5016 24.6927C32.7388 24.6229 30.3237 24.4466 30.3237 24.4466L29.0779 23.7878C29.0779 23.7878 28.6781 23.164 28.6781 22.9909C28.6781 22.8179 28.8597 22.6099 29.1145 22.748C29.3693 22.8862 31.1132 22.9211 31.5496 22.748C31.5496 22.748 29.0063 22.5734 28.6798 22.175C28.3533 21.7781 28.4616 21.4654 28.8614 21.4654C29.2611 21.4654 30.7151 21.6733 31.1499 21.6384C31.5862 21.6035 32.1309 21.6035 32.2391 21.3955C32.3474 21.1876 32.0209 21.0145 32.0209 21.0145L31.5479 20.6685C31.5479 20.6685 29.6941 20.3573 29.5859 19.9763C29.4776 19.5985 29.8074 19.3778 29.9856 19.3905Z" fill="#FFBE9D"/>
<path d="M41.9045 23.0623C41.9029 23.056 41.9462 23.0433 42.0228 23.0226C42.1011 23.002 42.216 22.9813 42.3592 22.9655C42.6457 22.9321 43.0504 22.9305 43.4835 23.0242C43.9165 23.1163 44.2813 23.2861 44.5228 23.4369C44.6427 23.5131 44.7377 23.5798 44.796 23.6322C44.8559 23.683 44.8876 23.7132 44.8842 23.7179C44.8743 23.729 44.736 23.6227 44.4912 23.4877C44.2463 23.3528 43.8866 23.1957 43.4652 23.1068C43.0438 23.0163 42.649 23.0067 42.3659 23.0258C42.0811 23.0417 41.9079 23.0766 41.9045 23.0623Z" fill="#EB996E"/>
<path d="M29.1379 19.2683C29.1379 19.2683 27.0126 19.5969 26.8777 19.7239C26.7428 19.8525 24.0679 22.9766 24.0679 22.9766L25.432 25.5356C25.432 25.5356 27.5789 24.4276 27.8254 24.299C28.0719 24.1704 28.5866 24.064 28.5866 24.064C28.5866 24.064 31.0017 23.7021 31.1583 23.4243C31.3148 23.1465 31.2249 23.083 31.0467 23.0401C30.8684 22.9973 29.4227 23.1544 29.1013 23.2116C28.7798 23.2687 28.1402 23.2116 28.1402 23.2116C28.1402 23.2116 29.1429 22.9893 29.3711 22.9131C29.5976 22.8369 31.8445 22.3591 31.8095 21.9749C31.7729 21.5908 31.493 21.4511 30.0873 21.8146C28.6815 22.1781 27.7155 22.1781 27.7155 22.1781L30.8251 21.1447C30.8251 21.1447 32.0777 20.7605 31.6746 20.4192C31.2715 20.0779 28.5883 20.7811 28.5883 20.7811L27.4024 21.2082L27.7372 20.5256C27.7372 20.5256 29.4227 20.0493 29.6393 19.889C29.9074 19.6905 29.9441 19.5064 29.7425 19.3413C29.541 19.1762 29.1379 19.2683 29.1379 19.2683Z" fill="#FFBE9D"/>
<path d="M19.3609 22.8337L23.2667 23.1576L23.2284 24.1767L24.0695 22.9766L25.4336 25.5356C25.4336 25.5356 24.9389 27.0564 24.6724 27.8962C23.9596 30.1457 22.8003 32.6634 21.3746 32.5364C19.6641 32.3856 18.4149 30.452 18.4432 29.2011C18.4682 28.0629 19.3609 22.8337 19.3609 22.8337Z" fill="#FFBE9D"/>
<path d="M24.0679 22.9782C24.0679 22.9782 24.0912 22.9464 24.1395 22.8877C24.1912 22.8258 24.2628 22.74 24.3577 22.6257C24.5526 22.3955 24.8374 22.059 25.2022 21.6288C25.5719 21.197 26.0216 20.6715 26.5429 20.0635C26.6096 19.9873 26.6762 19.9112 26.7445 19.8334C26.7795 19.7937 26.8128 19.7556 26.8511 19.7159C26.901 19.6746 26.9593 19.6619 27.0093 19.6445C27.2225 19.5841 27.4457 19.5397 27.6739 19.4936C28.1319 19.4047 28.6183 19.3222 29.1296 19.2396H29.1279C29.2562 19.2142 29.3878 19.2031 29.5227 19.2222C29.5893 19.2317 29.6576 19.2508 29.7192 19.2873C29.7808 19.3254 29.8291 19.373 29.8674 19.4349C29.9057 19.4968 29.9141 19.5778 29.8891 19.646C29.8658 19.7143 29.8208 19.7714 29.7708 19.8207C29.7192 19.8699 29.6709 19.9143 29.6026 19.9508C29.5393 19.9826 29.4744 20.0096 29.4094 20.035C28.8847 20.2302 28.3251 20.3937 27.7455 20.5636L27.7688 20.5445C27.6655 20.7557 27.5506 20.989 27.434 21.2272L27.3841 21.1764C27.7555 21.043 28.1586 20.897 28.5683 20.7493L28.5716 20.7477C29.0796 20.6176 29.6026 20.5001 30.1439 20.4049C30.4154 20.3588 30.6902 20.3175 30.9717 20.2985C31.1133 20.289 31.2549 20.2842 31.3998 20.2985C31.4714 20.3064 31.5463 20.316 31.618 20.3477C31.6912 20.381 31.7562 20.435 31.7828 20.5176C31.8078 20.6049 31.7595 20.6874 31.7096 20.7398C31.6579 20.7954 31.598 20.8382 31.5363 20.8779C31.4131 20.9557 31.2815 21.016 31.1466 21.0716C30.8751 21.1811 30.597 21.2605 30.3205 21.3558C29.7658 21.5399 29.2045 21.7272 28.6366 21.9161C28.3284 22.0177 28.0236 22.1193 27.7222 22.2209L27.7072 22.14C28.4584 22.1162 29.1979 21.9892 29.9041 21.8193C30.2572 21.732 30.6086 21.6399 30.9667 21.5923C31.1449 21.5701 31.3281 21.5526 31.513 21.5907C31.603 21.6097 31.6996 21.6526 31.7579 21.732C31.8162 21.8114 31.8361 21.8987 31.8411 21.9923C31.8395 22.0511 31.8045 22.0939 31.7729 22.1273C31.7395 22.1606 31.7029 22.1876 31.6663 22.2114C31.5913 22.2606 31.513 22.2987 31.4347 22.3352C31.2765 22.4067 31.115 22.4638 30.9551 22.5178C30.6319 22.6241 30.3105 22.7115 29.9924 22.794C29.8325 22.8337 29.6759 22.8734 29.5193 22.9131C29.3661 22.9512 29.2112 23.0035 29.0563 23.0385C28.7482 23.1147 28.4434 23.1829 28.1452 23.2496L28.1402 23.1782C28.4983 23.2036 28.8531 23.2274 29.1895 23.1655C29.5343 23.1178 29.8691 23.0829 30.1989 23.0528C30.3638 23.0385 30.5253 23.0242 30.6869 23.0147C30.7668 23.0099 30.8468 23.0067 30.9284 23.0051C30.9684 23.0051 31.01 23.0051 31.055 23.0131C31.095 23.0226 31.1333 23.0337 31.1732 23.0528C31.2116 23.0702 31.2515 23.1067 31.2649 23.1528C31.2782 23.1972 31.2699 23.2401 31.2599 23.2782C31.2499 23.3163 31.2332 23.3512 31.2166 23.3861L31.1899 23.4353C31.1799 23.4512 31.1633 23.475 31.1466 23.4846C31.0134 23.5814 30.8684 23.6163 30.7269 23.6624C30.1606 23.8243 29.6176 23.9163 29.1163 24.0052C28.9913 24.0259 28.8681 24.0465 28.7465 24.0656C28.6249 24.0814 28.5117 24.1037 28.3984 24.1338C28.1735 24.191 27.9604 24.2497 27.7788 24.3481C27.036 24.7275 26.4513 25.026 26.0483 25.2308C25.8501 25.3308 25.6968 25.407 25.5902 25.461C25.5403 25.4848 25.502 25.5038 25.472 25.5181C25.4453 25.5308 25.432 25.5372 25.4303 25.5356C25.4303 25.534 25.442 25.5276 25.4686 25.5134C25.497 25.4975 25.5353 25.4768 25.5836 25.4498C25.6885 25.3943 25.8401 25.3133 26.0366 25.2101C26.4363 25.0006 27.0193 24.6958 27.7572 24.31C28.1336 24.11 28.6083 24.0354 29.1063 23.9544C29.6059 23.864 30.1489 23.7687 30.7086 23.6052C30.8451 23.5623 30.995 23.5179 31.1033 23.4385C31.1183 23.4274 31.1216 23.4195 31.1316 23.4052L31.1566 23.3576C31.1716 23.3258 31.1866 23.2925 31.1949 23.2607C31.2149 23.194 31.2049 23.1353 31.1399 23.1067C31.11 23.0924 31.0733 23.0813 31.0367 23.0734C31.0034 23.0686 30.9651 23.067 30.9267 23.067C30.8485 23.0686 30.7702 23.0718 30.6902 23.0766C30.5303 23.0861 30.3688 23.1004 30.2055 23.1163C29.8774 23.148 29.5426 23.1845 29.2012 23.2321C28.8564 23.2972 28.495 23.2734 28.1336 23.2496C28.1136 23.248 28.0969 23.2306 28.0986 23.2115C28.1003 23.1956 28.1119 23.1829 28.1269 23.1798H28.1286C28.4267 23.1131 28.7298 23.0432 29.038 22.967C29.1929 22.9321 29.3411 22.8813 29.501 22.8416C29.6576 22.8019 29.8158 22.7623 29.974 22.721C30.2905 22.6384 30.6119 22.5511 30.9317 22.4448C31.0916 22.3908 31.2499 22.3352 31.4031 22.2654C31.4797 22.2304 31.5547 22.1923 31.623 22.1479C31.6879 22.105 31.7612 22.0463 31.7612 21.9907C31.7579 21.9209 31.7379 21.8368 31.6946 21.7796C31.6513 21.7209 31.578 21.6859 31.498 21.6685C31.3365 21.6336 31.1566 21.6494 30.9834 21.6717C30.6319 21.7193 30.2838 21.8098 29.9291 21.8987C29.2179 22.0701 28.4783 22.1987 27.7122 22.2241C27.6889 22.2241 27.6689 22.2066 27.6672 22.1844C27.6672 22.1654 27.6789 22.1495 27.6955 22.1447H27.6972C27.9987 22.0447 28.3051 21.9431 28.6116 21.8399C29.1796 21.651 29.7425 21.4637 30.2972 21.2796C30.5736 21.1843 30.8535 21.1033 31.1166 20.9986C31.2482 20.9446 31.3765 20.8859 31.493 20.8112C31.5513 20.7747 31.6063 20.7335 31.6496 20.6874C31.6912 20.6414 31.7196 20.5858 31.7046 20.5382C31.6696 20.4303 31.5297 20.389 31.3948 20.3795C31.2582 20.3668 31.12 20.3699 30.9817 20.3795C30.7052 20.3985 30.4321 20.4398 30.1622 20.4842C29.6243 20.5779 29.1013 20.6954 28.5966 20.8224L28.5999 20.8208C28.1885 20.9684 27.7855 21.1129 27.414 21.2462C27.3941 21.2542 27.3707 21.243 27.3641 21.224C27.3607 21.2145 27.3607 21.2034 27.3657 21.1954C27.4823 20.9589 27.5973 20.7239 27.7022 20.5144C27.7072 20.5049 27.7155 20.4985 27.7255 20.4953C28.3035 20.3287 28.8648 20.1667 29.3844 19.9746C29.4494 19.9492 29.5127 19.9238 29.571 19.8937C29.6243 19.8667 29.6776 19.8207 29.7225 19.7762C29.8141 19.6905 29.8741 19.5683 29.8091 19.4682C29.7492 19.3666 29.6376 19.3016 29.5143 19.2873C29.3927 19.2698 29.2645 19.2793 29.1462 19.3016H29.1446C28.6332 19.3809 28.1469 19.4619 27.6905 19.5492C27.4623 19.5937 27.2392 19.6365 27.031 19.6952C26.9793 19.7127 26.9277 19.7254 26.8944 19.7524C26.8594 19.7905 26.8244 19.8286 26.7895 19.8667C26.7212 19.9445 26.6529 20.0207 26.5863 20.0953C26.0599 20.7001 25.6052 21.2224 25.2321 21.651C24.8624 22.0765 24.5726 22.4082 24.3744 22.6368C24.2778 22.748 24.2028 22.8321 24.1495 22.8924C24.0962 22.9496 24.0679 22.9782 24.0679 22.9782Z" fill="#EB996E"/>
<path d="M17.2806 39.853L10.58 42.5136L13.2133 45.4251L18.9429 44.3567L17.2806 39.853Z" fill="#FFBE9D"/>
<path d="M35.1906 34.27C35.1906 34.27 35.5304 41.612 34.8508 42.9042C34.173 44.1964 27.3408 44.3822 27.3408 44.3822L16.5745 45.1188L15.2104 40.3389C15.2104 40.3389 22.9736 36.7131 23.7081 36.2972C24.4426 35.8812 26.1782 35.1462 26.1782 35.1462L28.7432 31.8618L35.1906 34.27Z" fill="#263238"/>
<path d="M22.7004 44.5599C22.7004 44.5567 22.7287 44.5472 22.7837 44.5298C22.8486 44.5107 22.9302 44.4853 23.0302 44.4551C23.2567 44.3916 23.5665 44.3027 23.9462 44.1948C24.7357 43.9789 25.815 43.682 27.0292 43.3487L27.0325 43.3471H27.0392C27.2058 43.336 27.3823 43.336 27.5589 43.3058C27.7304 43.2899 27.8953 43.2471 28.0602 43.2137C28.2201 43.1661 28.3817 43.128 28.5316 43.0677C28.838 42.9629 29.1145 42.8185 29.3693 42.6708C29.8757 42.366 30.2704 42.0073 30.5552 41.6723C30.8401 41.3358 31.0183 41.0278 31.1299 40.8103C31.1865 40.7024 31.2198 40.6135 31.2481 40.5547C31.2748 40.496 31.2914 40.4658 31.2948 40.4674C31.2981 40.469 31.2881 40.5007 31.2648 40.5611C31.2415 40.6214 31.2115 40.7119 31.1598 40.823C31.0566 41.0452 30.885 41.3627 30.6019 41.7072C30.3204 42.0517 29.9223 42.42 29.411 42.7343C29.1528 42.8867 28.8713 43.0328 28.5599 43.1423C28.4083 43.2042 28.2434 43.2439 28.0802 43.2931C27.9136 43.3265 27.7454 43.3709 27.5689 43.3868C27.389 43.4169 27.2091 43.4185 27.0392 43.428L27.0509 43.4265C25.8333 43.7487 24.7507 44.036 23.9596 44.2472C23.5765 44.3456 23.2633 44.425 23.0368 44.4837C22.9352 44.5075 22.8519 44.5282 22.787 44.544C22.732 44.5567 22.702 44.5631 22.7004 44.5599Z" fill="#455A64"/>
<path d="M23.4782 36.5146L22.7021 26.1674C22.7021 26.1674 23.2034 18.4793 18.6497 18.8904C14.0977 19.3032 14.4125 26.0912 14.4125 26.0912C14.4125 26.0912 14.6873 35.3922 14.9638 36.7432C15.2386 38.0941 15.3519 39.5895 16.2596 40.1547L20.3953 39.6689L23.4782 36.5146Z" fill="#263238"/>
<path d="M21.1747 20.916L22.1791 23.4766L21.1747 33.1063C21.1747 33.1063 15.3152 33.4063 15.3752 33.2571C15.4352 33.1063 14.4891 28.4184 14.4891 28.4184C14.4891 28.4184 14.3342 22.2305 16.1047 21.1049C17.8752 19.9778 21.1747 20.916 21.1747 20.916Z" fill="#263238"/>
<path d="M20.9466 33.1174C20.9399 33.1174 20.7167 37.7226 20.7167 37.7226L16.4811 39.7371L15.67 33.2952L20.9466 33.1174Z" fill="#FFBE9D"/>
<path d="M28.7448 31.8617L23.8613 30.3218L21.3746 32.5364L22.9536 37.0496L26.8377 35.5796L28.7448 31.8617Z" fill="#263238"/>
<path d="M15.2104 40.3404C15.2104 40.3388 15.2287 40.3293 15.2637 40.3102C15.3036 40.2896 15.3569 40.2626 15.4252 40.2293C15.5718 40.1578 15.7817 40.0547 16.0498 39.9245C16.5978 39.661 17.3839 39.2816 18.3516 38.8148C19.326 38.3481 20.4852 37.7941 21.7711 37.1797C22.4156 36.8734 23.0902 36.5511 23.7914 36.2161C24.1412 36.0495 24.4993 35.8796 24.8607 35.7066C25.0423 35.6208 25.2238 35.5335 25.407 35.4462C25.4986 35.4034 25.5902 35.3589 25.6835 35.3145C25.7768 35.27 25.8667 35.224 25.9683 35.1938C26.3614 35.0446 26.7695 34.9636 27.1775 34.935C27.5839 34.9065 27.9903 34.9176 28.3784 34.9827C29.1579 35.1033 29.8774 35.3764 30.4987 35.7304C31.1249 36.0796 31.6413 36.5257 32.0727 36.9781C32.499 37.4369 32.8422 37.9084 33.1186 38.3561C33.6716 39.2562 33.9847 40.0467 34.1896 40.5928C34.2912 40.8674 34.3628 41.0818 34.4095 41.2278C34.4311 41.2977 34.4478 41.3532 34.4611 41.3945C34.4727 41.4326 34.4777 41.4516 34.4761 41.4516C34.4744 41.4516 34.4661 41.4342 34.4528 41.3961C34.4378 41.3548 34.4178 41.3008 34.3928 41.2326C34.3412 41.0881 34.2646 40.8754 34.158 40.6039C33.9448 40.0626 33.6216 39.2768 33.067 38.3862C32.7872 37.9433 32.4457 37.4766 32.0194 37.0242C31.5896 36.5765 31.0783 36.1384 30.4587 35.7955C29.8441 35.4478 29.1346 35.1795 28.3651 35.062C27.982 34.9985 27.5839 34.9874 27.1842 35.016C26.7861 35.0462 26.3814 35.1255 26.0016 35.27C25.9034 35.2986 25.8118 35.3462 25.7201 35.3907C25.6285 35.4351 25.5353 35.478 25.4437 35.5224C25.2604 35.6097 25.0772 35.697 24.8974 35.7828C24.5359 35.9542 24.1795 36.1241 23.8281 36.2908C23.1268 36.6225 22.4506 36.9448 21.806 37.2496C20.5169 37.8592 19.356 38.4069 18.3799 38.8688C17.4073 39.326 16.6178 39.6959 16.0665 39.9546C15.7966 40.0801 15.5834 40.1769 15.4352 40.2467C15.3653 40.2785 15.312 40.3023 15.2703 40.3214C15.232 40.3341 15.212 40.342 15.2104 40.3404Z" fill="#455A64"/>
<path d="M24.6825 35.3828C24.6642 35.3828 24.7075 35.1097 24.6176 34.6859C24.5343 34.2588 24.2878 33.7032 23.943 33.127C23.5982 32.5507 23.2884 32.0173 23.1435 31.5982C23.0686 31.3903 23.0253 31.2172 23.0053 31.0966C22.9853 30.9759 22.982 30.9077 22.987 30.9077C23.0036 30.9045 23.0369 31.1744 23.2018 31.5792C23.36 31.9872 23.6732 32.5079 24.0196 33.0873C24.3661 33.6667 24.6092 34.2382 24.6775 34.6748C24.7142 34.8922 24.7192 35.0716 24.7108 35.1939C24.7025 35.3177 24.6875 35.3844 24.6825 35.3828Z" fill="#455A64"/>
<path d="M14.4892 28.4169C14.4909 28.4169 14.4959 28.4344 14.5042 28.4677C14.5125 28.5058 14.5242 28.555 14.5392 28.6169C14.5691 28.7535 14.6091 28.9455 14.6624 29.1916C14.7673 29.6917 14.9156 30.414 15.0888 31.3109C15.1754 31.7585 15.2703 32.2491 15.3586 32.7793C15.3803 32.9126 15.4019 33.046 15.4153 33.1873C15.4153 33.2079 15.4203 33.219 15.4153 33.2476L15.4119 33.2666C15.4086 33.2762 15.4186 33.2603 15.4119 33.2492C15.4053 33.2365 15.4053 33.2397 15.4053 33.2381C15.3969 33.2349 15.4119 33.2397 15.4153 33.2397C15.4452 33.246 15.4835 33.2492 15.5185 33.2524C15.5901 33.2571 15.6651 33.2587 15.7384 33.2603C16.0365 33.2651 16.3446 33.2587 16.6594 33.2508C17.9219 33.2174 19.3094 33.1555 20.7651 33.0857C20.905 33.0793 21.0432 33.0714 21.1732 33.065L21.1332 33.1015C21.418 30.4251 21.6728 28.02 21.8577 26.2786C21.9543 25.415 22.0309 24.7149 22.0859 24.226C22.1142 23.9879 22.1359 23.8021 22.1525 23.6704C22.1608 23.61 22.1675 23.5624 22.1725 23.5259C22.1775 23.4941 22.1808 23.4767 22.1825 23.4767C22.1842 23.4767 22.1842 23.4941 22.1808 23.5259C22.1775 23.5624 22.1742 23.61 22.1692 23.6704C22.1575 23.8037 22.1409 23.9894 22.1192 24.2276C22.0709 24.7181 22.0026 25.4182 21.9193 26.2833C21.7411 28.0264 21.4946 30.4314 21.2215 33.1079L21.2181 33.1428L21.1815 33.1444C21.0516 33.1508 20.9133 33.1571 20.7734 33.165C19.3177 33.2349 17.9286 33.2952 16.6661 33.3238C16.3496 33.3301 16.0415 33.3349 15.7417 33.3301C15.6668 33.3286 15.5918 33.327 15.5169 33.3206C15.4785 33.3174 15.4419 33.3159 15.4019 33.3063C15.3886 33.3016 15.3836 33.3047 15.362 33.2889C15.357 33.2841 15.3536 33.2857 15.347 33.2682C15.3436 33.2603 15.3436 33.2524 15.3453 33.246C15.3486 33.2381 15.3703 33.2476 15.347 33.2381V33.2317C15.3486 33.2254 15.3453 33.2016 15.3453 33.1873C15.3336 33.0523 15.312 32.9174 15.292 32.7856C15.2071 32.257 15.1155 31.7665 15.0338 31.3172C14.8656 30.4251 14.7307 29.7012 14.6341 29.1932C14.5891 28.9471 14.5525 28.7535 14.5275 28.6153C14.5175 28.5534 14.5075 28.5026 14.5009 28.4645C14.4892 28.436 14.4875 28.4169 14.4892 28.4169Z" fill="#455A64"/>
<path d="M20.1521 20.1573C20.1571 20.1541 20.2021 20.1922 20.2787 20.2684C20.357 20.343 20.4636 20.4557 20.5902 20.6018C20.8417 20.8939 21.1531 21.3273 21.4163 21.8464C21.6778 22.3671 21.8377 22.8703 21.9209 23.2386C21.9626 23.4227 21.9892 23.5735 22.0009 23.6783C22.0142 23.7831 22.0175 23.8418 22.0126 23.8418C21.9976 23.8434 21.9593 23.6148 21.8627 23.2513C21.766 22.8893 21.5978 22.3956 21.3397 21.8813C21.0798 21.3669 20.78 20.9352 20.5435 20.6367C20.307 20.3383 20.1421 20.1668 20.1521 20.1573Z" fill="#455A64"/>
<path d="M24.9106 35.1652C24.9056 35.1636 24.914 35.1096 24.9356 35.0112C24.9573 34.9128 24.9939 34.7715 25.0456 34.6C25.1505 34.2556 25.3254 33.7857 25.5752 33.292C25.8267 32.7983 26.1049 32.376 26.3231 32.0839C26.433 31.9378 26.5246 31.822 26.5929 31.7458C26.6612 31.668 26.6995 31.6283 26.7045 31.6315C26.7161 31.6394 26.5779 31.8188 26.373 32.1172C26.1682 32.4157 25.9017 32.8379 25.6518 33.3285C25.4037 33.819 25.2204 34.2794 25.1022 34.6191C24.9856 34.9556 24.924 35.1684 24.9106 35.1652Z" fill="#455A64"/>
<path d="M32.2325 34.462C32.2458 34.4573 32.3075 34.6224 32.4357 34.8748C32.564 35.1272 32.7672 35.4653 33.047 35.7987C33.3285 36.132 33.6316 36.3924 33.8631 36.5654C34.0946 36.7385 34.2512 36.8321 34.2429 36.8432C34.2395 36.848 34.1979 36.8289 34.1246 36.7924C34.0513 36.7559 33.9481 36.694 33.8265 36.613C33.5816 36.4495 33.2669 36.1908 32.9787 35.8511C32.6922 35.5113 32.494 35.1621 32.3791 34.9002C32.3208 34.7684 32.2808 34.6604 32.2592 34.5842C32.2359 34.5065 32.2259 34.4636 32.2325 34.462Z" fill="#455A64"/>
<path d="M10.745 45.5442C8.22494 45.4711 7.59202 45.5616 5.072 45.4886C4.45574 45.4711 2.2222 45.5902 1.70088 45.2775C1.22619 44.9933 0.619918 44.7314 0.485006 44.2123C0.258488 43.3376 0.491668 42.3374 1.32779 41.7707C1.61593 41.5755 1.95904 41.4628 2.31048 41.4278C3.79451 41.285 5.17693 42.2914 6.65597 41.9549C7.05571 41.8644 7.41214 41.6437 7.80855 41.5437C8.38983 41.3977 9.01609 41.5247 9.55574 41.7771C10.0954 42.0279 10.2203 42.0708 10.2203 42.0708L12.8469 41.1643L13.7713 45.5584L10.745 45.5442Z" fill="#455A64"/>
<path d="M12.8704 40.1229L11.4896 40.5833C11.2781 40.6532 11.1565 40.8659 11.2098 41.0722L12.3891 45.7807C12.4407 45.9887 12.6489 46.1252 12.8721 46.0966L14.2828 45.9172C14.5377 45.8855 14.7092 45.6505 14.6509 45.4108L13.4417 40.4214C13.3817 40.1817 13.1169 40.042 12.8704 40.1229Z" fill="#455A64"/>
<path d="M12.4238 45.9648C12.4088 45.9696 12.3022 45.7013 12.1507 45.2616C12.0008 44.8219 11.8075 44.2075 11.6327 43.5201C11.4578 42.8327 11.3395 42.2009 11.2712 41.7421C11.2379 41.512 11.2146 41.3262 11.2029 41.1976C11.1913 41.0691 11.1896 40.996 11.1963 40.996C11.2146 40.9945 11.2646 41.2754 11.3528 41.731C11.4411 42.1851 11.5727 42.8105 11.7476 43.4963C11.9208 44.1805 12.1007 44.7965 12.2306 45.2425C12.3622 45.6839 12.4405 45.9601 12.4238 45.9648Z" fill="#263238"/>
<path d="M11.4578 41.6707C11.4345 41.6533 11.8509 41.3088 12.5004 41.2008C13.1483 41.0865 13.6647 41.2707 13.6497 41.2961C13.643 41.331 13.1367 41.204 12.5221 41.3135C11.9042 41.4136 11.4761 41.7025 11.4578 41.6707Z" fill="#263238"/>
<path d="M11.661 43.4519C11.651 43.4233 12.1656 43.236 12.8235 43.0773C13.4814 42.9169 14.0261 42.8455 14.0328 42.8757C14.0394 42.9074 13.5064 43.0281 12.8535 43.1868C12.2006 43.3471 11.6726 43.4837 11.661 43.4519Z" fill="#263238"/>
<path d="M12.3373 45.2902C12.3373 45.2537 12.8802 45.3045 13.4699 45.0505C14.0645 44.806 14.3926 44.3901 14.4192 44.4155C14.4309 44.4234 14.3659 44.5377 14.216 44.6901C14.0678 44.8425 13.8246 45.0251 13.5182 45.1552C13.21 45.2838 12.9052 45.3315 12.687 45.333C12.4672 45.3346 12.3356 45.3029 12.3373 45.2902Z" fill="#263238"/>
<path d="M20.9466 36.2558L20.7167 37.7226L16.4812 39.7355L15.9565 36.6781L20.9466 36.2558Z" fill="#455A64"/>
<path d="M15.3036 35.4859L15.5701 36.8829C15.61 37.0972 15.8149 37.2464 16.0414 37.2306L21.198 36.8496C21.4246 36.8321 21.6028 36.6543 21.6078 36.4368L21.6444 35.0557C21.6511 34.8065 21.4312 34.6049 21.1681 34.6223L15.7083 34.9875C15.4468 35.0049 15.2569 35.2383 15.3036 35.4859Z" fill="#455A64"/>
<path d="M21.3996 36.8464C21.4013 36.8622 21.1015 36.921 20.6135 36.9956C20.1238 37.0702 19.4459 37.1575 18.6914 37.2147C17.9369 37.2718 17.2523 37.2861 16.756 37.2782C16.5078 37.2734 16.3079 37.267 16.1697 37.2559C16.0315 37.2464 15.9548 37.2369 15.9548 37.2289C15.9548 37.2115 16.2613 37.2083 16.7543 37.1956C17.2473 37.1829 17.9285 37.1559 18.6797 37.0988C19.4309 37.0416 20.1088 36.967 20.5985 36.9146C21.0915 36.8606 21.3963 36.8289 21.3996 36.8464Z" fill="#263238"/>
<path d="M16.7127 37.0877C16.691 37.1067 16.3929 36.6527 16.3829 36.0129C16.3646 35.3732 16.6427 34.9081 16.6661 34.9255C16.7027 34.9382 16.4862 35.4018 16.5045 36.0098C16.5128 36.6194 16.7477 37.075 16.7127 37.0877Z" fill="#263238"/>
<path d="M18.6248 37.1766C18.5932 37.1813 18.4782 36.6575 18.4149 36.0018C18.35 35.3462 18.3633 34.8112 18.395 34.8112C18.4299 34.8096 18.4716 35.3399 18.5365 35.9923C18.5982 36.6432 18.6598 37.1718 18.6248 37.1766Z" fill="#263238"/>
<path d="M20.6718 36.8226C20.6335 36.8178 20.7734 36.305 20.6002 35.6986C20.4369 35.089 20.0505 34.7096 20.0805 34.6874C20.0905 34.6779 20.2004 34.7573 20.3387 34.9255C20.4752 35.0922 20.6301 35.3542 20.7184 35.6685C20.805 35.9844 20.8067 36.2844 20.7734 36.494C20.7401 36.7035 20.6851 36.8257 20.6718 36.8226Z" fill="#263238"/>
</svg>
