<svg width="14" height="24" viewBox="0 0 14 24" fill="none" xmlns="http://www.w3.org/2000/svg">
<path d="M9.20179 10.1203C9.95796 9.7488 10.8507 9.69959 11.6902 9.83135C12.1415 9.90278 12.6129 10.0314 12.9194 10.3536C13.2258 10.6775 13.2841 11.2458 12.9327 11.5236C12.7228 11.6887 12.4297 11.7141 12.1582 11.7109C11.5003 11.703 10.7708 11.5934 10.2444 11.9697C9.94463 12.1856 9.74476 12.5428 9.38666 12.6491C9.03523 12.7523 8.64049 12.5555 8.45394 12.2538C8.2674 11.9522 8.2624 11.5744 8.34901 11.2347C8.34735 11.2363 8.43895 10.4949 9.20179 10.1203Z" fill="#92E3A9" stroke="black" stroke-width="0.25" stroke-miterlimit="10"/>
<path d="M7.46624 6.92948C7.92927 7.5597 8.82869 7.35015 9.24508 6.96598C9.66147 6.58182 9.83803 6.02461 9.99959 5.49281C10.366 4.27839 10.7358 3.00365 10.4626 1.767C10.381 1.39712 10.2361 1.02883 9.96294 0.754197C9.68979 0.479564 9.27173 0.31605 8.88864 0.412886C8.43561 0.527184 8.15246 0.951042 7.94926 1.35267C7.34965 2.53693 7.03319 3.84977 7.0282 5.1642C7.0282 5.77856 7.10314 6.42307 7.46624 6.92948Z" fill="#92E3A9" stroke="black" stroke-width="0.25" stroke-miterlimit="10"/>
<path d="M6.19543 7.83434C6.69843 7.26603 6.79337 6.43737 6.57018 5.72459C6.34699 5.01181 5.84066 4.40698 5.25937 3.91169C4.57648 3.33226 3.77368 2.87983 2.91091 2.59091C2.57113 2.47661 2.21303 2.38772 1.85493 2.41947C1.49683 2.4528 1.1354 2.62584 0.968847 2.93063C0.722342 3.37989 0.95885 3.92439 1.21535 4.36889C1.66672 5.15151 2.18305 5.9008 2.75767 6.60723C3.21904 7.17554 3.74869 7.73592 4.45323 7.99151C5.15777 8.24868 5.88896 8.21851 6.26205 7.7518" fill="#92E3A9"/>
<path d="M6.19543 7.83434C6.69843 7.26603 6.79337 6.43737 6.57018 5.72459C6.34699 5.01181 5.84066 4.40698 5.25937 3.91169C4.57648 3.33226 3.77368 2.87983 2.91091 2.59091C2.57113 2.47661 2.21303 2.38772 1.85493 2.41947C1.49683 2.4528 1.1354 2.62584 0.968847 2.93063C0.722342 3.37989 0.95885 3.92439 1.21535 4.36889C1.66672 5.15151 2.18305 5.9008 2.75767 6.60723C3.21904 7.17554 3.74869 7.73592 4.45323 7.99151C5.15777 8.24868 5.88896 8.21851 6.26205 7.7518" stroke="black" stroke-width="0.25" stroke-miterlimit="10"/>
<path d="M7.43624 16.4337C7.44457 16.4337 7.45956 16.3321 7.47788 16.1479C7.49953 15.94 7.52618 15.678 7.55783 15.3669C7.59614 15.0383 7.6461 14.6462 7.74271 14.2207C7.83764 13.7953 7.98755 13.3349 8.17909 12.8682C8.37729 12.4031 8.62047 11.9824 8.90361 11.6443C9.1851 11.3045 9.51155 11.0601 9.81968 10.9188C10.1261 10.7743 10.401 10.7156 10.5908 10.6902C10.7824 10.6711 10.8906 10.6569 10.8906 10.6489C10.8906 10.641 10.7824 10.6394 10.5858 10.6442C10.391 10.6569 10.1045 10.7029 9.78138 10.8442C9.45659 10.9807 9.11015 11.2299 8.81534 11.576C8.5172 11.9205 8.2657 12.3523 8.06417 12.8238C7.86929 13.2984 7.72106 13.7651 7.62945 14.1985C7.53784 14.6319 7.4962 15.0272 7.46955 15.359C7.44291 15.6907 7.43291 15.959 7.42958 16.1448C7.42458 16.3305 7.42625 16.4337 7.43624 16.4337Z" fill="#E0E0E0" stroke="black" stroke-width="0.5" stroke-miterlimit="10"/>
<path d="M7.49119 15.832C7.49619 15.832 7.49785 15.786 7.49952 15.6987C7.49952 15.5986 7.49952 15.4732 7.49785 15.3192C7.49618 14.9891 7.49785 14.5128 7.51617 13.9239C7.54615 12.7459 7.65275 11.4776 7.85928 9.69006C8.05415 8.00892 8.31565 6.05315 8.59047 4.78C8.65043 4.49108 8.70873 4.23073 8.76536 4.00213C8.81865 3.77354 8.86529 3.57669 8.90859 3.41795C8.9469 3.26872 8.97688 3.14648 9.00186 3.04806C9.02185 2.96392 9.03018 2.91789 9.02685 2.9163C9.02352 2.91471 9.00686 2.95758 8.97855 3.04013C8.94857 3.13537 8.91026 3.25602 8.86362 3.40365C8.81199 3.56081 8.76036 3.75766 8.7004 3.98467C8.6371 4.21168 8.57215 4.47203 8.50719 4.76095C8.23403 5.91346 7.94589 7.52474 7.73769 9.317C7.53116 11.1093 7.43956 12.7396 7.43123 13.9207C7.42457 14.5112 7.43623 14.9891 7.45288 15.3192C7.46287 15.4732 7.4712 15.5986 7.47786 15.6987C7.48119 15.7876 7.48786 15.832 7.49119 15.832Z" fill="#E0E0E0" stroke="black" stroke-width="0.5" stroke-miterlimit="10"/>
<path d="M7.49952 12.6857C7.50784 12.6857 7.50618 12.5444 7.49619 12.2888C7.4812 12.0332 7.44455 11.6649 7.36793 11.2141C7.28799 10.7632 7.1764 10.2283 7.00151 9.64724C6.92489 9.38213 6.74668 8.74556 6.31363 7.79307C5.744 6.50404 4.96951 5.44995 4.29495 4.7975C4.13672 4.62447 3.96017 4.49906 3.82026 4.37682C3.74697 4.31809 3.68368 4.25935 3.61706 4.21331C3.55043 4.17045 3.49047 4.12918 3.43218 4.09267C3.21065 3.94821 3.08574 3.87201 3.08241 3.87836C3.06242 3.90376 3.57875 4.19426 4.23166 4.85465C4.88123 5.51504 5.63407 6.56119 6.1987 7.83911C6.5135 8.53283 6.73335 9.15036 6.88991 9.67582C7.0698 10.2521 7.18972 10.7807 7.27966 11.2268C7.36627 11.6744 7.41624 12.038 7.44622 12.292C7.47453 12.546 7.49119 12.6873 7.49952 12.6857Z" fill="#E0E0E0" stroke="black" stroke-width="0.5" stroke-miterlimit="10"/>
<path d="M4.31 18.2355L4.63978 22.555H10.4626L10.7924 18.2355H4.31Z" fill="#263238" stroke="#FAFAFA" stroke-width="0.25" stroke-miterlimit="10" stroke-linecap="round" stroke-linejoin="round"/>
<path d="M11.4869 16.5337H3.74698V18.2355H11.4869V16.5337Z" fill="#263238" stroke="#FAFAFA" stroke-width="0.25" stroke-miterlimit="10" stroke-linecap="round" stroke-linejoin="round"/>
<path d="M3.74698 22.3899V22.8614H4.11174H11.3587V22.3899H3.74698Z" fill="#263238" stroke="#FAFAFA" stroke-width="0.25" stroke-miterlimit="10" stroke-linecap="round" stroke-linejoin="round"/>
<path d="M4.46819 23.6916L4.11176 22.8614H11.0822L10.6658 23.6916H4.46819Z" fill="#263238" stroke="#FAFAFA" stroke-width="0.25" stroke-miterlimit="10" stroke-linecap="round" stroke-linejoin="round"/>
<path d="M10.6841 19.6484C10.6858 19.65 10.6758 19.6627 10.6575 19.6881C10.6342 19.7167 10.6059 19.7532 10.5709 19.7976C10.4876 19.8992 10.3743 20.0373 10.2311 20.212L10.2161 20.231L10.2011 20.212C9.98794 19.931 9.70312 19.5563 9.36834 19.1134H9.41665C9.16847 19.4484 8.89199 19.8199 8.59718 20.2199L8.5722 20.2548L8.54388 20.2215C8.24074 19.8786 7.91263 19.5055 7.57118 19.1182H7.62781C7.61116 19.1388 7.59284 19.1611 7.57452 19.1817C7.27305 19.542 6.98157 19.8913 6.70509 20.2215L6.67677 20.2564L6.65012 20.2199C6.35531 19.8214 6.07883 19.45 5.82899 19.1134L5.8773 19.115C5.47256 19.5547 5.12945 19.9262 4.86629 20.212L4.84797 20.231L4.83464 20.2088C4.7014 19.9961 4.5948 19.8246 4.51818 19.7024C4.48487 19.6468 4.45822 19.6024 4.43657 19.5674C4.41825 19.5373 4.40992 19.5198 4.41159 19.5198C4.41325 19.5182 4.42491 19.5341 4.4449 19.5627C4.46822 19.5976 4.4982 19.6389 4.53484 19.6929C4.61645 19.8135 4.72638 19.9802 4.86629 20.1897L4.83464 20.1866C5.09447 19.8976 5.43092 19.5198 5.82899 19.0753L5.85397 19.0468L5.8773 19.0769C6.1288 19.4119 6.40695 19.7818 6.70509 20.1786L6.65012 20.177C6.92494 19.8468 7.21641 19.4976 7.51788 19.1357C7.53621 19.1134 7.55453 19.0912 7.57118 19.0722L7.5995 19.0388L7.62781 19.0706C7.96759 19.4579 8.29571 19.8326 8.59718 20.1755L8.54222 20.177C8.84202 19.7786 9.12017 19.4087 9.37001 19.0753L9.39499 19.0436L9.41831 19.0753C9.74643 19.5214 10.0246 19.9008 10.2344 20.185L10.2045 20.1834C10.3527 20.0135 10.471 19.8786 10.5576 19.7802C10.5959 19.7373 10.6275 19.704 10.6525 19.6754C10.6708 19.6579 10.6825 19.6468 10.6841 19.6484Z" fill="#263238" stroke="#FAFAFA" stroke-width="0.25" stroke-miterlimit="10" stroke-linecap="round" stroke-linejoin="round"/>
<path d="M10.874 18.2084C10.874 18.2275 9.41497 18.2434 7.61614 18.2434C5.81732 18.2434 4.35828 18.2275 4.35828 18.2084C4.35828 18.1894 5.81732 18.1735 7.61614 18.1735C9.41497 18.1735 10.874 18.1878 10.874 18.2084Z" fill="#263238" stroke="#FAFAFA" stroke-width="0.25" stroke-miterlimit="10" stroke-linecap="round" stroke-linejoin="round"/>
<path d="M11.1671 22.909C11.1671 22.9281 9.58152 22.9439 7.62613 22.9439C5.67074 22.9439 4.08511 22.9281 4.08511 22.909C4.08511 22.89 5.67074 22.8741 7.62613 22.8741C9.58318 22.8741 11.1671 22.89 11.1671 22.909Z" fill="#263238" stroke="#FAFAFA" stroke-width="0.25" stroke-miterlimit="10" stroke-linecap="round" stroke-linejoin="round"/>
</svg>
