<svg width="27" height="48" viewBox="0 0 27 48" fill="none" xmlns="http://www.w3.org/2000/svg">
<path d="M16.2795 37.8182C16.2795 37.8182 15.8922 44.4275 15.8922 44.5326C15.8922 44.6378 15.4051 46.2784 15.4749 46.5237C15.5448 46.7674 16.1017 46.8375 16.484 46.8726C16.8663 46.9076 17.6659 47.0127 17.9801 47.0127C18.2926 47.0127 19.4064 46.9427 19.6142 46.8726C19.8237 46.8025 20.1013 46.5938 19.8569 46.4186C19.6142 46.2433 19.0224 46.1749 18.3259 45.3705C17.631 44.5677 17.4565 44.2188 17.4565 44.2188L18.921 37.8883L16.2795 37.8182Z" fill="#FFBE9D" stroke="#263238" stroke-width="0.75" stroke-miterlimit="10"/>
<path d="M15.8922 44.5326C15.8922 44.5326 16.1615 44.6478 16.4341 44.7179C16.7084 44.7863 17.2786 44.9933 17.2786 44.9933L17.4581 44.2205L18.3275 45.04C18.3275 45.04 18.2594 45.2236 18.2128 45.5674C18.168 45.9112 18.1214 46.2767 18.1214 46.2767L18.6451 46.4369L18.8495 45.499L19.556 46.003L19.3964 46.6439C19.3964 46.6439 19.5793 46.8041 19.8752 46.7123C20.1711 46.6205 20.1711 46.7357 20.1029 46.9176C20.0348 47.1012 19.4646 47.2381 18.9626 47.2831C18.4605 47.3282 16.7284 47.1913 16.3178 47.0995C15.9072 47.0077 15.6113 46.9844 15.4051 46.8475C15.2006 46.7107 15.3602 46.2517 15.3818 46.1599C15.4051 46.0681 16.6585 46.5254 16.7732 46.5254C16.8879 46.5254 17.0924 45.9529 17.0924 45.9529L15.4965 45.5173C15.4999 45.519 15.5331 44.5777 15.8922 44.5326Z" fill="#263238" stroke="#263238" stroke-miterlimit="10" stroke-linecap="round" stroke-linejoin="round"/>
<path d="M3.24003 44.2789C3.24003 44.2789 2.85436 44.3891 2.52355 44.6895C2.19274 44.9916 2.21103 45.978 2.21103 45.978L3.24003 44.2789Z" fill="#263238" stroke="#263238" stroke-miterlimit="10" stroke-linecap="round" stroke-linejoin="round"/>
<path d="M4.32716 45.9563C4.32716 45.9563 3.36632 45.6542 3.00559 45.6241C2.64486 45.5941 2.19436 45.6241 2.19436 45.6241C2.19436 45.6241 1.9234 45.7143 1.9234 45.9262C1.9234 46.1382 1.87685 46.4403 2.59831 46.5604C3.31978 46.6806 3.99636 46.5604 4.32716 46.3785C4.65797 46.1983 4.32716 45.9563 4.32716 45.9563Z" fill="#263238" stroke="#263238" stroke-miterlimit="10" stroke-linecap="round" stroke-linejoin="round"/>
<path d="M6.50654 36.5965C6.50654 36.5965 4.1061 43.0906 3.89831 43.371C3.68885 43.6497 2.28416 45.4338 2.24925 45.7843C2.21434 46.1332 4.01467 46.1665 4.3272 45.9579C4.63972 45.7476 5.01209 43.9301 5.21988 43.5462C5.42934 43.1623 9.74149 37.0872 9.74149 37.0872L6.50654 36.5965Z" fill="#FFBE9D" stroke="#263238" stroke-width="0.75" stroke-miterlimit="10"/>
<path d="M5.13842 44.2072C5.13842 44.2072 4.50839 43.8149 4.17758 43.7549C3.84677 43.6948 3.51596 43.6647 3.51596 43.6647L3.06546 44.359L4.74776 45.1735C4.74776 45.1718 5.01707 44.6294 5.13842 44.2072Z" fill="#263238" stroke="#263238" stroke-miterlimit="10" stroke-linecap="round" stroke-linejoin="round"/>
<path d="M11.0697 16.9174L11.0182 18.054C11.0182 18.054 8.03424 25.748 6.59464 29.5183C5.15504 33.2886 4.79431 36.1793 4.79431 36.1793C4.79431 36.1793 6.08098 37.3676 9.57691 37.9351C13.0745 38.5025 16.4175 38.606 18.3209 38.606C20.2243 38.606 22.3837 37.9868 22.3837 37.9868C22.3837 37.9868 20.738 27.866 19.3998 23.2696C18.0632 18.6732 17.2902 17.9505 17.2902 17.9505L17.0841 16.5051L11.0697 16.9174Z" fill="#263238"/>
<path d="M13.2524 24.7382L12.87 38.2954" stroke="#FAFAFA" stroke-miterlimit="10" stroke-linecap="round" stroke-linejoin="round"/>
<path d="M13.2809 23.7334L13.2657 24.2675" stroke="#FAFAFA" stroke-miterlimit="10" stroke-linecap="round" stroke-linejoin="round"/>
<path d="M16.2014 18.3192C16.4158 18.2741 16.6269 18.2207 16.8298 18.1573" stroke="#FAFAFA" stroke-miterlimit="10" stroke-linecap="round" stroke-linejoin="round"/>
<path d="M11.6349 18.4143C11.6349 18.4143 13.5449 18.6747 15.4134 18.446" stroke="#FAFAFA" stroke-miterlimit="10" stroke-linecap="round" stroke-linejoin="round"/>
<path d="M23.8865 4.752C23.8865 4.752 23.7352 4.06937 23.7103 3.61374C23.6853 3.1581 23.2564 2.55226 23.308 2.29857C23.3578 2.04488 23.6105 2.07158 23.7369 2.14669C23.8632 2.22179 24.0145 2.47548 24.0145 2.47548C24.0145 2.47548 24.3669 1.3873 24.3669 0.908293C24.3669 0.427621 24.6694 0.477691 24.7958 0.806483C24.9221 1.13528 24.7459 2.40038 24.7459 2.40038C24.7459 2.40038 25.2247 2.52722 25.4507 2.62736C25.6768 2.72917 26.1057 2.93112 26.0309 3.56367C25.9561 4.19622 25.8796 4.55005 25.7284 4.55005C25.5771 4.55005 25.4507 4.3481 25.4507 4.3481C25.4507 4.3481 25.4508 5.03072 25.2247 5.23267C24.9986 5.43461 24.5448 5.45965 24.5448 5.45965C24.5448 5.45965 24.5913 4.95394 23.8865 4.752Z" fill="#FFBE9D" stroke="#263238" stroke-width="0.75" stroke-miterlimit="10"/>
<path d="M25.4474 4.34649C25.4474 4.34649 25.5987 3.76401 25.5987 3.6889" stroke="#263238" stroke-miterlimit="10" stroke-linecap="round" stroke-linejoin="round"/>
<path d="M24.0128 2.47552L23.8615 3.18318" stroke="#263238" stroke-miterlimit="10" stroke-linecap="round" stroke-linejoin="round"/>
<path d="M23.2598 5.45978L23.7335 4.65365C23.7335 4.65365 23.9164 4.39663 24.3536 4.5435C24.3586 4.54517 24.3619 4.54684 24.3669 4.54851C24.7642 4.6837 24.9853 5.11096 24.8772 5.51819L24.7559 5.97383C24.7559 5.97216 23.8067 5.42306 23.2598 5.45978Z" fill="#92E3A9" stroke="#263238" stroke-miterlimit="10" stroke-linecap="round" stroke-linejoin="round"/>
<path d="M3.4561 21.6222C3.4561 21.6222 3.57081 22.2264 3.62733 22.657C3.68385 23.0892 3.97143 23.9521 4.17092 24.0673C4.37206 24.1824 4.62973 24.326 4.34214 24.4128C4.05621 24.4995 3.88333 24.5279 3.62566 24.326C3.368 24.124 3.19511 23.8937 3.19511 23.8937C3.19511 23.8937 2.99397 24.7849 2.851 25.2172C2.70804 25.6495 2.27749 26.3388 2.27749 26.3388C2.27749 26.3388 2.39219 26.8278 2.22097 26.9146C2.04975 27.0014 1.79042 26.6275 1.79042 26.6275C1.79042 26.6275 1.53276 26.5708 1.41805 26.3688C1.30335 26.1669 1.16039 24.6431 1.18865 24.3543C1.21691 24.0673 2.37557 21.4002 2.37557 21.4002L3.4561 21.6222Z" fill="#FFBE9D" stroke="#263238" stroke-width="0.75" stroke-miterlimit="10"/>
<path d="M1.82866 24.7867C1.73723 24.9536 1.65079 25.1656 1.65079 25.2474C1.65079 25.3625 1.79375 26.6276 1.79375 26.6276" stroke="#263238" stroke-miterlimit="10" stroke-linecap="round" stroke-linejoin="round"/>
<path d="M2.28081 26.3406L2.16611 25.6496L2.39551 24.6716" stroke="#263238" stroke-miterlimit="10" stroke-linecap="round" stroke-linejoin="round"/>
<path d="M2.48196 25.995C2.48196 25.995 2.55012 25.3007 2.71137 24.6998" stroke="#263238" stroke-miterlimit="10" stroke-linecap="round" stroke-linejoin="round"/>
<path d="M2.76788 23.3481C2.76788 23.3481 2.73963 23.6068 2.53848 23.8087C2.33734 24.0107 1.93671 24.2977 1.93671 24.2977" stroke="#263238" stroke-miterlimit="10" stroke-linecap="round" stroke-linejoin="round"/>
<path d="M10.4463 9.38009C10.4463 9.38009 8.11071 10.5167 7.96443 10.8088C7.81814 11.1025 4.89738 16.3432 4.49675 16.8555C4.09446 17.3679 2.85434 18.0288 2.70805 18.5412C2.56176 19.0536 2.67148 20.4472 2.67148 20.4472L2.37891 21.4002C2.37891 21.4002 2.41548 21.7307 2.92582 21.8408C3.43617 21.951 3.43617 21.951 3.43617 21.951L4.31223 21.1081C4.31223 21.1081 6.21064 20.6325 6.97699 19.7162C7.74333 18.7999 9.60517 14.5123 9.60517 14.5123L9.3126 17.408C9.3126 17.408 11.211 17.7017 13.4735 17.5181C15.7359 17.3345 18.2195 16.969 18.2195 16.969L17.8904 13.5977C17.8904 13.5977 23.293 12.7181 23.5856 12.4611C23.8782 12.204 24.1325 11.5081 24.1691 11.251C24.2056 10.994 25.1183 6.08382 25.1183 6.08382C25.1183 6.08382 24.7891 5.53472 24.0228 5.38785C23.2564 5.24098 22.4901 5.64488 22.4535 5.86352C22.417 6.08382 20.8477 9.27161 20.8477 9.27161C20.8477 9.27161 20.738 9.19817 20.3373 9.38176C19.9351 9.56535 19.7539 9.63879 19.7539 9.63879C19.7539 9.63879 17.8189 8.86938 17.016 8.94282C16.213 9.01625 15.4467 9.12641 15.4467 9.12641C15.4467 9.12641 14.0237 8.46715 12.9648 8.75923C11.9075 9.0513 10.4463 9.38009 10.4463 9.38009Z" fill="#C8DCEC" stroke="#263238" stroke-width="0.5" stroke-miterlimit="10"/>
<path d="M15.4849 13.9249L17.8937 13.5961L16.2878 14.4389" stroke="#263238" stroke-miterlimit="10" stroke-linecap="round" stroke-linejoin="round"/>
<path d="M9.64341 12.8617L9.60684 14.5107L9.05992 13.8147" stroke="#263238" stroke-miterlimit="10" stroke-linecap="round" stroke-linejoin="round"/>
<path d="M3.00061 20.5958C3.00061 20.5958 3.11032 20.9629 3.98639 20.9629" stroke="#263238" stroke-miterlimit="10" stroke-linecap="round" stroke-linejoin="round"/>
<path d="M16.592 2.47382C16.592 2.47382 16.8381 2.93279 16.9445 3.32167C17.0492 3.71054 17.4714 4.1328 17.5778 4.76869C17.6826 5.40458 17.6825 5.9687 17.6127 6.25076C17.5429 6.53282 16.9794 6.60292 16.9794 6.60292C16.9794 6.60292 16.1 6.32086 16.0302 5.26105C15.9604 4.2029 16.592 2.47382 16.592 2.47382Z" fill="#FFBE9D" stroke="#263238" stroke-width="0.75" stroke-miterlimit="10"/>
<path d="M17.1207 3.64221C17.1207 3.64221 17.3484 3.72566 17.4515 3.72566C17.5546 3.72566 17.7407 3.74569 17.6792 3.99437C17.6177 4.24305 17.4731 4.3265 17.4731 4.3265L17.1207 3.64221Z" fill="#FFBE9D" stroke="#263238" stroke-width="0.75" stroke-miterlimit="10"/>
<path d="M14.554 0.67297C14.554 0.67297 13.6746 0.249043 13.0778 0.567822C12.4794 0.884932 10.7223 2.47382 10.6874 3.00289C10.6525 3.53197 10.6175 4.30972 10.6175 4.62683C10.6175 4.94394 9.35249 5.61487 8.89534 6.70974C8.43819 7.8046 10.1255 9.95761 11.2509 9.78069C12.3763 9.60378 12.6922 9.07471 13.1144 9.07471C13.5366 9.07471 14.8715 10.1329 15.6462 9.92256C16.4192 9.7106 17.6144 8.47554 17.651 7.69945C17.6859 6.92337 16.8431 6.11057 16.7018 5.5114C16.5605 4.91056 16.7367 4.31139 16.878 3.85241C17.0193 3.39344 16.7018 1.94642 16.7018 1.94642C16.7018 1.94642 17.4748 2.05156 17.124 1.27548C16.7716 0.499394 16.4557 0.217332 15.7177 0.145565C14.9746 0.0721295 14.554 0.67297 14.554 0.67297Z" fill="#263238"/>
</svg>
