<svg width="106" height="104" viewBox="0 0 106 104" fill="none" xmlns="http://www.w3.org/2000/svg">
<g clip-path="url(#clip0_2712_1806)">
<path d="M99.7151 20.4639C99.3723 19.8253 99.01 19.201 98.6325 18.5885C93.6038 10.4338 84.9499 4.85723 76.437 2.33604C72.71 1.23213 68.8592 0.652874 65.002 0.510434C39.702 -0.429672 29.625 21.3898 21.264 27.0209C12.903 32.6521 0.0382604 42.2692 0.897356 62.4458C1.75645 82.6225 15.0464 101.626 40.7759 102.799C66.5032 103.972 68.2192 91.3042 82.583 86.6108C92.0895 83.5056 98.843 73.0173 102.151 63.3242C106.657 50.1152 106.445 32.9583 99.7151 20.4639Z" fill="#92E3A9"/>
<path opacity="0.7" d="M99.7151 20.4639C99.3723 19.8253 99.01 19.201 98.6325 18.5885C93.6038 10.4338 84.9499 4.85723 76.437 2.33604C72.71 1.23213 68.8592 0.652874 65.002 0.510434C39.702 -0.429672 29.625 21.3898 21.264 27.0209C12.903 32.6521 0.0382603 42.2692 0.897356 62.4458C1.75645 82.6225 15.0464 101.626 40.7759 102.799C66.5032 103.972 68.2192 91.3042 82.583 86.6108C92.0895 83.5056 98.843 73.0173 102.151 63.3242C106.657 50.1152 106.445 32.9583 99.7151 20.4639Z" fill="#DDF8F3"/>
<path d="M19.8753 100.351C22.8778 97.6641 23.2662 93.144 22.841 89.1485C22.7694 88.4814 22.7845 87.7716 22.4461 87.2113C22.1077 86.6511 21.3918 86.3116 20.8581 86.6439C20.4155 86.9193 20.2593 87.5152 20.038 88.0161C19.743 88.6832 19.2722 89.2553 18.6973 89.6447C18.3199 89.9011 17.8426 90.0791 17.4347 89.8844C16.8772 89.6138 16.7535 88.8233 16.708 88.1585C16.6234 86.9193 16.5366 85.6801 16.452 84.4385C16.4064 83.7738 16.3565 83.0948 16.1179 82.4799C15.8792 81.8651 15.4128 81.319 14.8141 81.1932C14.2153 81.0698 13.5189 81.4995 13.443 82.1618C13.4126 82.4372 13.4842 82.715 13.4885 82.9903C13.4929 83.2681 13.3952 83.5838 13.1588 83.6835C12.918 83.7833 12.6576 83.6171 12.4602 83.439C11.7747 82.8242 11.2779 81.998 10.8114 81.1742C10.345 80.3504 9.88727 79.5053 9.25596 78.8263C8.62466 78.145 7.78292 77.637 6.89779 77.6631C6.01266 77.6892 5.11668 78.361 4.96265 79.3154C4.80862 80.2721 5.38786 81.179 5.9953 81.8864C6.89779 82.9381 7.93912 83.8474 9.0759 84.5738C9.28199 84.7044 9.50328 84.8468 9.59656 85.0866C9.76361 85.5187 9.40782 85.9935 9.01299 86.1763C8.56608 86.3828 8.06494 86.3757 7.58984 86.4801C7.11473 86.5846 6.61142 86.86 6.46607 87.3656C6.26431 88.0683 6.84355 88.733 7.39676 89.1532C8.50317 89.9936 9.74191 90.6251 11.0436 91.0121C11.51 91.1498 11.9981 91.2637 12.3886 91.5747C12.7791 91.8857 13.0438 92.4626 12.8594 92.9517C12.6728 93.4407 12.1174 93.6425 11.638 93.5903C11.1564 93.538 10.7117 93.2983 10.2452 93.1558C9.37311 92.8876 8.28623 93.049 7.80244 93.887C7.4857 94.4378 7.5074 95.1642 7.73519 95.7672C7.96081 96.3702 8.36649 96.8688 8.7917 97.3269C10.2756 98.9223 12.1153 100.15 14.1328 100.708C16.1504 101.263 17.9836 101.299 19.8753 100.351Z" fill="#92E3A9" stroke="#263238" stroke-width="0.25" stroke-miterlimit="10"/>
<path d="M20.1379 103.317C19.884 101.743 19.4219 99.8979 18.7212 97.9299C18.0248 95.9595 17.0941 93.8656 16.0506 91.7148C15.7881 91.1782 15.53 90.6465 15.274 90.1242C15.018 89.6019 14.7642 89.0867 14.4865 88.5977C13.9354 87.6172 13.3367 86.7199 12.7444 85.8866C12.1522 85.0533 11.5599 84.2865 11.0024 83.5719C10.4427 82.8597 9.91115 82.2069 9.40133 81.6324C8.38604 80.481 7.46837 79.6596 6.81753 79.123C6.49212 78.8524 6.23396 78.653 6.05606 78.52C5.96929 78.4559 5.90203 78.4061 5.85431 78.3705C5.80875 78.3372 5.78271 78.323 5.78271 78.323C5.78271 78.323 5.80441 78.3444 5.8478 78.38C5.89553 78.418 5.96061 78.4702 6.04522 78.539C6.21877 78.6767 6.47259 78.8833 6.79584 79.1563C7.44016 79.7023 8.34916 80.5284 9.35577 81.6822C9.86125 82.2567 10.3884 82.9119 10.9438 83.6265C11.4992 84.3411 12.0871 85.1103 12.675 85.9436C13.2651 86.7768 13.8595 87.6718 14.4084 88.6499C14.6839 89.1366 14.9356 89.6494 15.1915 90.174C15.4475 90.6963 15.7057 91.2281 15.9682 91.7646C17.0095 93.9155 17.9402 96.0022 18.641 97.9679C19.3438 99.9312 19.8124 101.766 20.0728 103.333" fill="#E0E0E0"/>
<path d="M20.1379 103.317C19.884 101.743 19.4219 99.8979 18.7212 97.9299C18.0248 95.9595 17.0941 93.8656 16.0506 91.7148C15.7881 91.1782 15.53 90.6465 15.274 90.1242C15.018 89.6019 14.7642 89.0867 14.4865 88.5977C13.9354 87.6172 13.3367 86.7199 12.7444 85.8866C12.1522 85.0533 11.5599 84.2865 11.0024 83.5719C10.4427 82.8597 9.91115 82.2069 9.40133 81.6324C8.38604 80.481 7.46837 79.6596 6.81753 79.123C6.49212 78.8524 6.23396 78.653 6.05606 78.52C5.96929 78.4559 5.90203 78.4061 5.85431 78.3705C5.80875 78.3372 5.78271 78.323 5.78271 78.323C5.78271 78.323 5.80441 78.3444 5.8478 78.38C5.89553 78.418 5.96061 78.4702 6.04522 78.539C6.21877 78.6767 6.47259 78.8833 6.79584 79.1563C7.44016 79.7023 8.34916 80.5284 9.35577 81.6822C9.86125 82.2567 10.3884 82.9119 10.9438 83.6265C11.4992 84.3411 12.0871 85.1103 12.675 85.9436C13.2651 86.7768 13.8595 87.6718 14.4084 88.6499C14.6839 89.1366 14.9356 89.6494 15.1915 90.174C15.4475 90.6963 15.7057 91.2281 15.9682 91.7646C17.0095 93.9155 17.9402 96.0022 18.641 97.9679C19.3438 99.9312 19.8124 101.766 20.0728 103.333" stroke="#263238" stroke-width="0.25" stroke-miterlimit="10"/>
<path d="M14.4627 88.5905C14.4692 88.5905 14.4801 88.4884 14.4974 88.3009C14.5148 88.1133 14.5321 87.8427 14.5495 87.508C14.5842 86.8385 14.6059 85.9103 14.6276 84.8894C14.6493 83.8662 14.684 82.9428 14.7339 82.2757C14.7578 81.9409 14.7794 81.6727 14.7968 81.4851C14.8142 81.2976 14.8207 81.1955 14.8142 81.1931C14.8076 81.1931 14.7903 81.2952 14.7621 81.4804C14.7339 81.6655 14.7013 81.9362 14.6688 82.2685C14.6037 82.9356 14.556 83.8639 14.5343 84.8871C14.5148 85.9008 14.4974 86.8171 14.4822 87.5056C14.4736 87.8261 14.4649 88.092 14.4584 88.2985C14.4562 88.4861 14.4584 88.5881 14.4627 88.5905Z" fill="#E0E0E0" stroke="#263238" stroke-width="0.25" stroke-miterlimit="10"/>
<path d="M6.4292 87.705C6.4292 87.7074 6.4574 87.7097 6.51164 87.7121C6.57672 87.7121 6.65482 87.7121 6.74811 87.7121C6.95203 87.7121 7.24925 87.7097 7.61371 87.7216C8.34481 87.7382 9.35577 87.8023 10.4643 87.9258C11.5751 88.0516 12.5752 88.213 13.2955 88.3555C13.6556 88.4219 13.9463 88.486 14.148 88.5288C14.2392 88.5478 14.3173 88.5644 14.3802 88.5762C14.4344 88.5857 14.4626 88.5905 14.4626 88.5857C14.4626 88.5834 14.4366 88.5715 14.3845 88.5549C14.3216 88.5359 14.2478 88.5145 14.1567 88.4884C13.9571 88.4338 13.6686 88.3578 13.3085 88.2819C12.5904 88.1228 11.5881 87.9495 10.473 87.8237C9.3601 87.7002 8.34698 87.648 7.61371 87.648C7.24708 87.6456 6.94986 87.6575 6.74594 87.6694C6.65265 87.6765 6.57455 87.6812 6.50947 87.6884C6.4574 87.6979 6.4292 87.7026 6.4292 87.705Z" fill="#E0E0E0" stroke="#263238" stroke-width="0.25" stroke-miterlimit="10"/>
<path d="M18.6214 97.7779C18.6236 97.7779 18.6388 97.7423 18.6648 97.6687C18.693 97.5856 18.7299 97.4788 18.7754 97.3458C18.8709 97.0657 18.9989 96.6574 19.1529 96.1493C19.4588 95.1356 19.845 93.7207 20.2507 92.1515C20.6563 90.5847 21.0317 89.1674 21.3224 88.149C21.4677 87.6504 21.5849 87.2397 21.6716 86.943C21.7107 86.81 21.7411 86.7008 21.7649 86.6153C21.7845 86.5394 21.7953 86.499 21.791 86.499C21.7888 86.499 21.7736 86.5346 21.7476 86.6082C21.7194 86.6913 21.6825 86.7981 21.6369 86.9311C21.5415 87.2112 21.4135 87.6196 21.2595 88.1276C20.9514 89.1413 20.5674 90.5562 20.1617 92.1254C19.756 93.6923 19.3807 95.1095 19.09 96.128C18.9447 96.6265 18.8275 97.0372 18.7407 97.334C18.7017 97.4669 18.6713 97.5761 18.6475 97.6616C18.6279 97.7376 18.6192 97.7779 18.6214 97.7779Z" fill="#E0E0E0" stroke="#263238" stroke-width="0.25" stroke-miterlimit="10"/>
<path d="M7.83057 95.067C7.83057 95.0693 7.86745 95.0812 7.93904 95.1026C8.02148 95.1239 8.12561 95.1501 8.25361 95.1833C8.5378 95.2545 8.93047 95.3519 9.40991 95.4729C10.3862 95.7174 11.7312 96.0759 13.2151 96.4724C14.7012 96.8712 16.0484 97.2178 17.029 97.4457C17.5193 97.5597 17.9163 97.6475 18.1918 97.7045C18.322 97.7306 18.4283 97.752 18.5085 97.7662C18.5823 97.7805 18.6192 97.7852 18.6213 97.7805C18.6213 97.7781 18.5845 97.7662 18.5129 97.7448C18.4326 97.7235 18.3285 97.6974 18.1983 97.6641C17.9141 97.5929 17.5214 97.4956 17.042 97.3745C16.0657 97.13 14.7207 96.7715 13.2368 96.3727C11.7529 95.9738 10.4035 95.6272 9.42293 95.4017C8.93264 95.2877 8.53563 95.1999 8.26011 95.1429C8.12995 95.1168 8.02365 95.0978 7.94338 95.0812C7.86962 95.067 7.83057 95.0622 7.83057 95.067Z" fill="#E0E0E0" stroke="#263238" stroke-width="0.25" stroke-miterlimit="10"/>
<path d="M48.3771 32.5132L32.6924 37.677L35.8731 49.2461L51.5578 44.0822L48.3771 32.5132Z" fill="white" stroke="black" stroke-width="0.5" stroke-miterlimit="10"/>
<path d="M51.5578 44.0804C51.5578 44.0804 51.534 44.0068 51.4949 43.8691C51.4537 43.7266 51.3973 43.5225 51.3214 43.259C51.1695 42.7201 50.9504 41.9366 50.6705 40.9324C50.113 38.9217 49.3103 36.0396 48.3341 32.5261L48.3905 32.5593C44.0624 33.9885 38.6128 35.7856 32.7098 37.7347H32.7076L32.7445 37.6587C33.877 41.7823 34.953 45.7042 35.9206 49.2296L35.8555 49.1916C40.472 47.6841 44.39 46.4045 47.1561 45.5C48.5402 45.0513 49.6357 44.6952 50.3907 44.4507C50.766 44.3296 51.0545 44.2371 51.2541 44.173C51.3496 44.1421 51.4233 44.1207 51.4776 44.1017C51.5318 44.0875 51.5578 44.0804 51.5578 44.0804C51.5578 44.0804 51.5361 44.0899 51.4863 44.1065C51.4342 44.1255 51.3626 44.1492 51.2693 44.1801C51.0719 44.2466 50.7877 44.3415 50.4211 44.4673C49.6704 44.719 48.5814 45.0822 47.206 45.5428C44.4356 46.4615 40.5111 47.7648 35.888 49.2984L35.8381 49.3151L35.8229 49.2604C34.8532 45.7351 33.7728 41.8156 32.6382 37.6919L32.6208 37.6326L32.6751 37.6136H32.6773C38.5846 35.674 44.0342 33.884 48.3644 32.462L48.4078 32.4478L48.4208 32.4952C49.3819 36.0278 50.1694 38.9264 50.7204 40.9467C50.9916 41.9485 51.2021 42.7319 51.3474 43.2685C51.4168 43.532 51.4711 43.7338 51.5079 43.8738C51.5427 44.0139 51.5578 44.0804 51.5578 44.0804Z" fill="#E0E0E0"/>
<path d="M51.5578 44.0804C51.5578 44.0804 51.534 44.0068 51.4949 43.8691C51.4537 43.7266 51.3973 43.5225 51.3214 43.259C51.1695 42.7201 50.9504 41.9366 50.6705 40.9324C50.113 38.9217 49.3103 36.0396 48.3341 32.5261L48.3905 32.5593C44.0624 33.9885 38.6128 35.7856 32.7098 37.7347H32.7076L32.7445 37.6587C33.877 41.7823 34.953 45.7042 35.9206 49.2296L35.8555 49.1916C40.472 47.6841 44.39 46.4045 47.1561 45.5C48.5402 45.0513 49.6357 44.6952 50.3907 44.4507C50.766 44.3296 51.0545 44.2371 51.2541 44.173C51.3496 44.1421 51.4233 44.1207 51.4776 44.1017C51.5318 44.0875 51.5578 44.0804 51.5578 44.0804ZM51.5578 44.0804C51.5578 44.0804 51.5361 44.0899 51.4863 44.1065C51.4342 44.1255 51.3626 44.1492 51.2693 44.1801C51.0719 44.2466 50.7877 44.3415 50.4211 44.4673C49.6704 44.719 48.5814 45.0822 47.206 45.5428C44.4356 46.4615 40.5111 47.7648 35.888 49.2984L35.8381 49.3151L35.8229 49.2604C34.8532 45.7351 33.7728 41.8156 32.6382 37.6919L32.6208 37.6326L32.6751 37.6136H32.6773C38.5846 35.674 44.0342 33.884 48.3644 32.462L48.4078 32.4478L48.4208 32.4952C49.3819 36.0278 50.1694 38.9264 50.7204 40.9467C50.9916 41.9485 51.2021 42.7319 51.3474 43.2685C51.4168 43.532 51.4711 43.7338 51.5079 43.8738C51.5427 44.0139 51.5578 44.0804 51.5578 44.0804Z" stroke="black" stroke-width="0.5" stroke-miterlimit="10"/>
<path d="M48.3774 32.512C48.3796 32.512 48.3709 32.531 48.3557 32.5642C48.3362 32.6045 48.3123 32.652 48.2819 32.7114C48.2103 32.8491 48.1127 33.0342 47.9891 33.2716C47.7266 33.7654 47.3534 34.4658 46.8957 35.3299C45.9563 37.0724 44.6611 39.4749 43.2206 42.1528L43.1968 42.1979L43.1512 42.1789C42.9994 42.1148 42.8345 42.046 42.6718 41.9747C39.9166 40.7996 37.4217 39.7337 35.6081 38.9598C34.7121 38.5704 33.9854 38.2547 33.4712 38.0315C33.2261 37.9223 33.033 37.8369 32.892 37.7728C32.8312 37.7443 32.7813 37.7205 32.7423 37.7039C32.7097 37.6873 32.6924 37.6778 32.6924 37.6754C32.6924 37.673 32.7119 37.6778 32.7466 37.692C32.7878 37.7087 32.8377 37.7277 32.9006 37.7514C33.0438 37.8084 33.2391 37.8867 33.4864 37.9888C34.0027 38.2025 34.7338 38.5063 35.6363 38.879C37.4543 39.6458 39.9535 40.6975 42.713 41.8608C42.8779 41.9296 43.0406 42.0009 43.1924 42.065L43.123 42.0911C44.5765 39.4227 45.8825 37.0273 46.8284 35.2896C47.3014 34.4349 47.6832 33.7393 47.9522 33.2503C48.0823 33.0176 48.1865 32.8348 48.2624 32.7019C48.295 32.6449 48.3232 32.5974 48.3448 32.5618C48.3665 32.5262 48.3752 32.512 48.3774 32.512Z" fill="#E0E0E0" stroke="black" stroke-width="0.5" stroke-miterlimit="10"/>
<path d="M94.0114 78.7219C94.0114 78.7219 92.9961 77.6204 91.0111 80.3719C89.0261 83.1234 88.1648 84.7733 88.1648 84.7733C88.1648 84.7733 87.6702 85.3336 87.3448 84.8255C87.0172 84.3175 86.6831 83.007 85.9585 83.0735C85.2079 83.14 84.8152 83.9566 84.7197 85.2623C84.6221 86.5657 84.3162 89.4145 84.2859 89.6732C84.2576 89.9249 84.0602 90.2644 83.7869 89.9581C83.5135 89.6519 82.0969 87.0357 81.0035 87.8452C79.9101 88.6548 80.1856 92.3369 80.2095 92.7404C80.2333 93.144 80.1336 93.2912 79.9513 93.3506C79.7669 93.4099 79.3677 92.4817 78.936 91.7552C78.5065 91.0288 77.8904 90.2715 77.2938 90.7961C76.6993 91.3208 76.068 93.9013 77.5693 98.6422L78.3958 100.788L80.5132 101.118C85.0842 101.522 87.2081 100.209 87.5248 99.447C87.8394 98.6849 87.015 98.222 86.2644 97.949C85.5137 97.6736 84.5939 97.4837 84.6004 97.2724C84.6069 97.0611 84.7132 96.9211 85.0755 96.8451C85.4378 96.7691 88.7657 96.14 89.2083 94.7797C89.6509 93.4194 86.9825 92.5719 86.644 92.3606C86.3034 92.1469 86.5551 91.8549 86.772 91.7624C86.9933 91.6674 89.4361 90.6276 90.5664 90.2003C91.6966 89.7706 92.3214 89.1509 92.1913 88.339C92.0676 87.5556 90.8245 87.5295 90.293 87.3087C89.7615 87.0903 90.1346 86.4256 90.1346 86.4256C90.1346 86.4256 91.3777 85.0985 93.3172 82.3067C95.2567 79.5149 93.9919 78.7006 93.9919 78.7006" fill="#92E3A9"/>
<path d="M94.0114 78.7219C94.0114 78.7219 92.9961 77.6204 91.0111 80.3719C89.0261 83.1234 88.1648 84.7733 88.1648 84.7733C88.1648 84.7733 87.6702 85.3336 87.3448 84.8255C87.0172 84.3175 86.6831 83.007 85.9585 83.0735C85.2079 83.14 84.8152 83.9566 84.7197 85.2623C84.6221 86.5657 84.3162 89.4145 84.2859 89.6732C84.2576 89.9249 84.0602 90.2644 83.7869 89.9581C83.5135 89.6519 82.0969 87.0357 81.0035 87.8452C79.9101 88.6548 80.1856 92.3369 80.2095 92.7404C80.2333 93.144 80.1336 93.2912 79.9513 93.3506C79.7669 93.4099 79.3677 92.4817 78.936 91.7552C78.5065 91.0288 77.8904 90.2715 77.2938 90.7961C76.6993 91.3208 76.068 93.9013 77.5693 98.6422L78.3958 100.788L80.5132 101.118C85.0842 101.522 87.2081 100.209 87.5248 99.447C87.8394 98.6849 87.015 98.222 86.2644 97.949C85.5137 97.6736 84.5939 97.4837 84.6004 97.2724C84.6069 97.0611 84.7132 96.9211 85.0755 96.8451C85.4378 96.7691 88.7657 96.14 89.2083 94.7797C89.6509 93.4194 86.9825 92.5719 86.644 92.3606C86.3034 92.1469 86.5551 91.8549 86.772 91.7624C86.9933 91.6674 89.4361 90.6276 90.5664 90.2003C91.6966 89.7706 92.3214 89.1509 92.1913 88.339C92.0676 87.5556 90.8245 87.5295 90.293 87.3087C89.7615 87.0903 90.1346 86.4256 90.1346 86.4256C90.1346 86.4256 91.3777 85.0985 93.3172 82.3067C95.2567 79.5149 93.9919 78.7006 93.9919 78.7006" stroke="#263238" stroke-width="0.25" stroke-miterlimit="10"/>
<path d="M92.2304 81.1838C92.2325 81.1862 92.2195 81.2052 92.1957 81.2432C92.1675 81.2859 92.1306 81.3429 92.085 81.4117C91.9809 81.5661 91.8355 81.7821 91.6511 82.0551C91.2736 82.613 90.7183 83.4154 90.0284 84.403C88.6508 86.3782 86.7243 89.0893 84.5831 92.071C82.4484 95.0551 80.5154 97.7544 79.1118 99.7177C78.4198 100.693 77.8557 101.486 77.4609 102.042C77.2678 102.31 77.1181 102.521 77.0096 102.671C76.9597 102.737 76.9207 102.792 76.8903 102.832C76.8621 102.868 76.8491 102.887 76.8469 102.885C76.8447 102.882 76.8578 102.863 76.8816 102.825C76.9098 102.783 76.9467 102.726 76.9923 102.657C77.0964 102.502 77.2418 102.286 77.4262 102.013C77.8036 101.455 78.359 100.653 79.0467 99.6655C80.4243 97.6903 82.3508 94.9792 84.492 91.9974C86.6267 89.0157 88.5575 86.3141 89.9611 84.3531C90.6532 83.3774 91.2172 82.5845 91.6121 82.029C91.8052 81.7607 91.9549 81.5494 92.0633 81.3999C92.1132 81.3334 92.1523 81.2788 92.1826 81.2384C92.213 81.2005 92.2282 81.1838 92.2304 81.1838Z" fill="#E0E0E0" stroke="#263238" stroke-width="0.25" stroke-miterlimit="10"/>
<path d="M86.3577 84.9275C86.3729 84.9251 86.4054 85.1625 86.438 85.5495C86.4705 85.9365 86.4987 86.4706 86.5182 87.0594C86.5313 87.6268 86.5443 88.1395 86.5551 88.5692C86.5638 88.9562 86.5703 89.1936 86.5551 89.196C86.5399 89.1983 86.5052 88.9609 86.4749 88.574C86.4467 88.187 86.4228 87.6529 86.4033 87.0641C86.3859 86.4967 86.3686 85.9839 86.3555 85.5542C86.3469 85.1697 86.3425 84.9299 86.3577 84.9275Z" fill="#E0E0E0" stroke="#263238" stroke-width="0.25" stroke-miterlimit="10"/>
<path d="M86.7417 89.2793C86.7395 89.246 87.7418 89.1249 88.9806 89.0134C90.2215 88.8994 91.2281 88.8353 91.2303 88.8709C91.2324 88.9042 90.2301 89.0252 88.9892 89.1368C87.7505 89.2484 86.7439 89.3125 86.7417 89.2793Z" fill="#E0E0E0" stroke="#263238" stroke-width="0.25" stroke-miterlimit="10"/>
<path d="M83.1404 93.8585C83.1447 93.8419 83.3638 93.8847 83.7175 93.9606C84.0711 94.0342 84.5614 94.1363 85.1037 94.2313C85.6461 94.3262 86.1386 94.3974 86.4965 94.4497C86.8545 94.4995 87.0758 94.5328 87.0736 94.5518C87.0714 94.5684 86.848 94.566 86.4878 94.5375C86.1277 94.509 85.6287 94.452 85.0842 94.3547C84.5397 94.2598 84.0494 94.1434 83.7001 94.0485C83.3508 93.9488 83.1382 93.8728 83.1404 93.8585Z" fill="#E0E0E0" stroke="#263238" stroke-width="0.25" stroke-miterlimit="10"/>
<path d="M82.0036 90.0057C82.0188 90.0009 82.0969 90.2099 82.214 90.5517C82.3312 90.8936 82.483 91.3684 82.6457 91.8978C82.8084 92.4248 82.9495 92.9044 83.0471 93.2557C83.1447 93.6047 83.1968 93.8231 83.1816 93.8302C83.1664 93.835 83.0883 93.6261 82.9712 93.2842C82.854 92.9423 82.7021 92.4675 82.5394 91.9381C82.3767 91.4111 82.2357 90.9316 82.1381 90.5802C82.0405 90.2289 81.9884 90.0104 82.0036 90.0057Z" fill="#E0E0E0" stroke="#263238" stroke-width="0.25" stroke-miterlimit="10"/>
<path d="M78.3567 93.607C78.3719 93.6022 78.4717 93.8705 78.6214 94.3073C78.7711 94.7465 78.9707 95.3543 79.1854 96.0261C79.4002 96.7003 79.5868 97.3128 79.7191 97.7591C79.8493 98.2054 79.923 98.4832 79.9079 98.4879C79.8927 98.4927 79.7929 98.2244 79.6432 97.7876C79.4935 97.3484 79.2939 96.7407 79.0791 96.0665C78.8644 95.3923 78.6778 94.7798 78.5454 94.3334C78.4153 93.8895 78.3415 93.6117 78.3567 93.607Z" fill="#E0E0E0" stroke="#263238" stroke-width="0.25" stroke-miterlimit="10"/>
<path d="M79.9014 98.3596C79.9035 98.343 80.1856 98.3881 80.6368 98.4665C81.0881 98.5424 81.7129 98.6493 82.4049 98.749C83.097 98.8487 83.7239 98.927 84.1795 98.9792C84.6351 99.0339 84.9149 99.0695 84.9149 99.0861C84.9149 99.1027 84.6307 99.0979 84.173 99.0671C83.7152 99.0362 83.0839 98.9721 82.3897 98.8724C81.6955 98.7727 81.0729 98.6516 80.6238 98.5519C80.1726 98.4522 79.8992 98.3762 79.9014 98.3596Z" fill="#E0E0E0" stroke="#263238" stroke-width="0.25" stroke-miterlimit="10"/>
<path d="M84.4384 55.3779L83.925 73.7886L96.2196 74.1991L96.733 55.7884L84.4384 55.3779Z" fill="#F5F5F5" stroke="black" stroke-width="0.5" stroke-miterlimit="10"/>
<path d="M82.1733 57.8237L81.6599 76.2344L93.9545 76.6449L94.4678 58.2342L82.1733 57.8237Z" fill="white" stroke="black" stroke-width="0.5" stroke-miterlimit="10"/>
<path d="M93.9572 76.6447C93.9572 76.6447 93.955 76.6139 93.9572 76.5545C93.9572 76.4928 93.9593 76.4073 93.9615 76.2934C93.9659 76.0607 93.9745 75.7236 93.9832 75.2868C94.0049 74.406 94.0353 73.1264 94.0743 71.505C94.1589 68.2645 94.2783 63.6684 94.4193 58.2319L94.4692 58.2889C90.7659 58.1678 86.5854 58.0302 82.175 57.883H82.1728L82.2314 57.8236C82.0361 64.7011 81.8539 71.0658 81.7064 76.234L81.6608 76.1818C85.3792 76.3171 88.4468 76.4287 90.588 76.507C91.6576 76.5474 92.4971 76.5806 93.072 76.602C93.3562 76.6139 93.5754 76.6234 93.7272 76.6305C93.8791 76.6376 93.9572 76.6447 93.9572 76.6447C93.9572 76.6447 93.8856 76.6471 93.7402 76.6424C93.5905 76.6376 93.3758 76.6329 93.0937 76.6257C92.521 76.6091 91.6858 76.5854 90.6206 76.5569C88.4728 76.4904 85.3944 76.3978 81.663 76.2839L81.6174 76.2815L81.6196 76.2316C81.7606 71.0634 81.9342 64.6987 82.1229 57.8212L82.1251 57.7595L82.1815 57.7619H82.1837C86.5941 57.9115 90.7746 58.0539 94.4757 58.1773L94.5277 58.1797L94.5256 58.2367C94.3629 63.6898 94.2262 68.2977 94.1286 71.5454C94.0787 73.1597 94.0374 74.4369 94.0092 75.3129C93.9941 75.745 93.9832 76.0773 93.9745 76.3076C93.9702 76.4168 93.9659 76.4999 93.9637 76.5616C93.9593 76.6162 93.9572 76.6447 93.9572 76.6447Z" fill="#E0E0E0"/>
<path d="M93.9572 76.6447C93.9572 76.6447 93.955 76.6139 93.9572 76.5545C93.9572 76.4928 93.9593 76.4073 93.9615 76.2934C93.9659 76.0607 93.9745 75.7236 93.9832 75.2868C94.0049 74.406 94.0353 73.1264 94.0743 71.505C94.1589 68.2645 94.2783 63.6684 94.4193 58.2319L94.4692 58.2889C90.7659 58.1678 86.5854 58.0302 82.175 57.883H82.1728L82.2314 57.8236C82.0361 64.7011 81.8539 71.0658 81.7064 76.234L81.6608 76.1818C85.3792 76.3171 88.4468 76.4287 90.588 76.507C91.6576 76.5474 92.4971 76.5806 93.072 76.602C93.3562 76.6139 93.5754 76.6234 93.7272 76.6305C93.8791 76.6376 93.9572 76.6447 93.9572 76.6447ZM93.9572 76.6447C93.9572 76.6447 93.8856 76.6471 93.7402 76.6424C93.5905 76.6376 93.3758 76.6329 93.0937 76.6257C92.521 76.6091 91.6858 76.5854 90.6206 76.5569C88.4728 76.4904 85.3944 76.3978 81.663 76.2839L81.6174 76.2815L81.6196 76.2316C81.7606 71.0634 81.9342 64.6987 82.1229 57.8212L82.1251 57.7595L82.1815 57.7619H82.1837C86.5941 57.9115 90.7746 58.0539 94.4757 58.1773L94.5277 58.1797L94.5256 58.2367C94.3629 63.6898 94.2262 68.2977 94.1286 71.5454C94.0787 73.1597 94.0374 74.4369 94.0092 75.3129C93.9941 75.745 93.9832 76.0773 93.9745 76.3076C93.9702 76.4168 93.9659 76.4999 93.9637 76.5616C93.9593 76.6162 93.9572 76.6447 93.9572 76.6447Z" stroke="black" stroke-width="0.5" stroke-miterlimit="10"/>
<path d="M89.6704 62.0849C89.6704 62.1181 88.3319 62.1015 86.6809 62.0469C85.03 61.9923 83.6936 61.9187 83.6958 61.8855C83.6958 61.8523 85.0343 61.8689 86.6853 61.9235C88.3341 61.9781 89.6704 62.0493 89.6704 62.0849Z" fill="#E0E0E0" stroke="black" stroke-width="0.5" stroke-miterlimit="10"/>
<path d="M92.8572 63.7919C92.8572 63.8252 90.7941 63.7848 88.2537 63.6993C85.7111 63.6139 83.6523 63.5189 83.6523 63.4833C83.6523 63.4477 85.7155 63.4904 88.2581 63.5759C90.7963 63.6613 92.8572 63.7587 92.8572 63.7919Z" fill="#E0E0E0" stroke="black" stroke-width="0.5" stroke-miterlimit="10"/>
<path d="M92.8096 65.4609C92.8096 65.4941 90.7465 65.4537 88.2061 65.3683C85.6635 65.2828 83.6047 65.1878 83.6047 65.1522C83.6047 65.119 85.6679 65.1594 88.2104 65.2448C90.7509 65.3303 92.8118 65.4276 92.8096 65.4609Z" fill="#E0E0E0" stroke="black" stroke-width="0.5" stroke-miterlimit="10"/>
<path d="M92.764 67.1298C92.764 67.163 90.7009 67.1227 88.1604 67.0372C85.6179 66.9517 83.5591 66.8568 83.5591 66.8212C83.5591 66.7879 85.6222 66.8283 88.1648 66.9138C90.703 66.9992 92.764 67.0966 92.764 67.1298Z" fill="#E0E0E0" stroke="black" stroke-width="0.5" stroke-miterlimit="10"/>
<path d="M92.7161 68.7988C92.7161 68.832 90.653 68.7916 88.1126 68.7062C85.57 68.6207 83.5112 68.5257 83.5112 68.4901C83.5112 68.4545 85.5744 68.4973 88.1169 68.5827C90.6573 68.6682 92.7183 68.7655 92.7161 68.7988Z" fill="#E0E0E0" stroke="black" stroke-width="0.5" stroke-miterlimit="10"/>
<path d="M92.6707 70.4677C92.6707 70.5009 90.6076 70.4606 88.0672 70.3751C85.5246 70.2896 83.4658 70.1947 83.4658 70.1591C83.4658 70.1258 85.5289 70.1662 88.0715 70.2517C90.6098 70.3371 92.6707 70.4345 92.6707 70.4677Z" fill="#E0E0E0" stroke="black" stroke-width="0.5" stroke-miterlimit="10"/>
<path d="M92.6229 72.1364C92.6229 72.1696 90.5597 72.1293 88.0193 72.0438C85.4768 71.9583 83.418 71.8634 83.418 71.8278C83.418 71.7945 85.4811 71.8349 88.0237 71.9204C90.5641 72.0058 92.625 72.1032 92.6229 72.1364Z" fill="#E0E0E0" stroke="black" stroke-width="0.5" stroke-miterlimit="10"/>
<path d="M88.3188 73.6631C88.3188 73.6963 87.2103 73.6868 85.8435 73.6417C84.4768 73.5966 83.3704 73.5325 83.3704 73.4969C83.3704 73.4636 84.4789 73.4731 85.8457 73.5182C87.2124 73.5657 88.321 73.6298 88.3188 73.6631Z" fill="#E0E0E0" stroke="black" stroke-width="0.5" stroke-miterlimit="10"/>
<path d="M57.9467 45.5837L54.0996 56.1577L66.1853 61.4231L70.0323 50.849L57.9467 45.5837Z" fill="#92E3A9" stroke="#263238" stroke-width="0.5" stroke-miterlimit="10" stroke-linecap="round" stroke-linejoin="round"/>
<path d="M70.0306 50.851C70.0306 50.851 70.0111 50.8439 69.972 50.8273C69.933 50.8107 69.8766 50.787 69.8028 50.7537C69.6531 50.6896 69.434 50.5947 69.1477 50.4712C68.5749 50.2219 67.7354 49.8587 66.6723 49.3982C64.5485 48.4747 61.5286 47.1642 57.9382 45.6045L57.9642 45.5926C56.8209 48.7406 55.5084 52.3467 54.12 56.1664L54.107 56.1356C58.5804 58.087 62.7392 59.8984 66.1907 61.4059L66.1669 61.4177C67.3297 58.2342 68.2929 55.5943 68.9676 53.7497C69.306 52.8262 69.5707 52.1045 69.7508 51.6107C69.8419 51.3638 69.9113 51.1763 69.9569 51.0481C70.0046 50.9175 70.0306 50.851 70.0306 50.851C70.0306 50.851 70.0089 50.9151 69.9634 51.0433C69.9178 51.1715 69.8506 51.3591 69.7616 51.606C69.5837 52.0998 69.3212 52.8238 68.9893 53.745C68.3189 55.5943 67.36 58.2413 66.2016 61.432L66.1951 61.451L66.1777 61.4438C62.724 59.9411 58.5652 58.1297 54.0918 56.1831L54.0723 56.1736L54.0809 56.1522C55.4715 52.3348 56.7841 48.7287 57.9295 45.5808L57.936 45.5618L57.9534 45.5689C61.546 47.1381 64.568 48.4604 66.6919 49.3887C67.7505 49.854 68.5879 50.2196 69.1585 50.4688C69.4427 50.5947 69.6618 50.6896 69.8093 50.7561C69.8831 50.7893 69.9373 50.8131 69.9764 50.8297C70.0133 50.8416 70.0306 50.851 70.0306 50.851Z" fill="#92E3A9"/>
<path d="M70.0306 50.851C70.0306 50.851 70.0111 50.8439 69.972 50.8273C69.933 50.8107 69.8766 50.787 69.8028 50.7537C69.6531 50.6896 69.434 50.5947 69.1477 50.4712C68.5749 50.2219 67.7354 49.8587 66.6723 49.3982C64.5485 48.4747 61.5286 47.1642 57.9382 45.6045L57.9642 45.5926C56.8209 48.7406 55.5084 52.3467 54.12 56.1664L54.107 56.1356C58.5804 58.087 62.7392 59.8984 66.1907 61.4059L66.1669 61.4177C67.3297 58.2342 68.2929 55.5943 68.9676 53.7497C69.306 52.8262 69.5707 52.1045 69.7508 51.6107C69.8419 51.3638 69.9113 51.1763 69.9569 51.0481C70.0046 50.9175 70.0306 50.851 70.0306 50.851ZM70.0306 50.851C70.0306 50.851 70.0089 50.9151 69.9634 51.0433C69.9178 51.1715 69.8506 51.3591 69.7616 51.606C69.5837 52.0998 69.3212 52.8238 68.9893 53.745C68.3189 55.5943 67.36 58.2413 66.2016 61.432L66.1951 61.451L66.1777 61.4438C62.724 59.9411 58.5652 58.1297 54.0918 56.1831L54.0723 56.1736L54.0809 56.1522C55.4715 52.3348 56.7841 48.7287 57.9295 45.5808L57.936 45.5618L57.9534 45.5689C61.546 47.1381 64.568 48.4604 66.6919 49.3887C67.7505 49.854 68.5879 50.2196 69.1585 50.4688C69.4427 50.5947 69.6618 50.6896 69.8093 50.7561C69.8831 50.7893 69.9373 50.8131 69.9764 50.8297C70.0133 50.8416 70.0306 50.851 70.0306 50.851Z" stroke="#263238" stroke-width="0.5" stroke-miterlimit="10" stroke-linecap="round" stroke-linejoin="round"/>
<path d="M58.1136 46.4401L54.7512 55.6819L65.9883 60.5775L69.3507 51.3357L58.1136 46.4401Z" fill="#92E3A9" stroke="#263238" stroke-width="0.5" stroke-miterlimit="10" stroke-linecap="round" stroke-linejoin="round"/>
<path d="M54.7947 55.7131L60.8105 51.6772L61.9343 56.3303L64.2816 55.129L66.0323 60.6082L54.7947 55.7131Z" fill="white" stroke="#263238" stroke-width="0.5" stroke-miterlimit="10" stroke-linecap="round" stroke-linejoin="round"/>
<path d="M64.5289 52.482C64.3336 53.0161 63.7804 53.2773 63.2923 53.0636C62.8042 52.8499 62.5655 52.2446 62.7608 51.7104C62.956 51.1763 63.5092 50.9151 63.9974 51.1288C64.4855 51.3425 64.7241 51.9478 64.5289 52.482Z" fill="white" stroke="#263238" stroke-width="0.5" stroke-miterlimit="10" stroke-linecap="round" stroke-linejoin="round"/>
<path d="M26.4314 62.5572C26.4336 62.5478 26.516 62.619 26.6895 62.6047C26.7742 62.5929 26.8805 62.5525 26.9672 62.4528C27.0497 62.3555 27.1104 62.1988 27.1972 62.0445C27.5335 61.4035 28.0129 60.4871 28.6052 59.3571C28.7548 59.0746 28.911 58.7778 29.0738 58.4668C29.1562 58.3125 29.2386 58.1535 29.3232 57.9944C29.3645 57.9137 29.4144 57.833 29.4382 57.7546C29.4621 57.6739 29.4643 57.5861 29.4447 57.5006C29.4252 57.4175 29.3818 57.3416 29.3211 57.2846C29.2625 57.2324 29.1735 57.1873 29.0976 57.1398C28.9392 57.0424 28.7787 56.9451 28.616 56.8454C28.2884 56.646 27.9543 56.4394 27.6094 56.2282C26.2318 55.3806 24.7175 54.4524 23.1273 53.4767C22.9516 53.3651 22.7108 53.4387 22.6002 53.6215C22.4874 53.8328 22.3745 54.0417 22.2639 54.2506C22.0404 54.6708 21.8213 55.0839 21.6044 55.4898C21.1705 56.3017 20.754 57.0852 20.3548 57.833C20.3049 57.9256 20.255 58.0182 20.2073 58.1107C20.1574 58.1962 20.1357 58.2864 20.1379 58.3814C20.1422 58.474 20.1726 58.5665 20.2268 58.6354C20.2767 58.709 20.357 58.747 20.4416 58.8016C20.767 59.0034 21.0837 59.198 21.3896 59.388C21.9992 59.7678 22.5698 60.1191 23.0905 60.442C24.1231 61.0877 24.9605 61.61 25.5484 61.978C25.8326 62.1584 26.0561 62.3009 26.2144 62.4006C26.286 62.448 26.3424 62.4837 26.3858 62.5121C26.4119 62.5406 26.4314 62.5549 26.4314 62.5572C26.4314 62.5596 26.4097 62.5478 26.3685 62.5264C26.3229 62.5003 26.2643 62.467 26.1906 62.4243C26.03 62.3293 25.8022 62.194 25.5137 62.0207C24.9215 61.6623 24.0775 61.1495 23.0384 60.5204C22.5156 60.2022 21.945 59.8533 21.331 59.4782C21.0252 59.2906 20.7062 59.096 20.3808 58.8965C20.3049 58.8467 20.2051 58.8016 20.1379 58.7066C20.0684 58.6188 20.0294 58.5025 20.025 58.3861C20.0207 58.2698 20.0532 58.1487 20.1075 58.0538C20.1574 57.9612 20.2051 57.8686 20.255 57.776C20.652 57.0282 21.0664 56.2424 21.4981 55.4281C21.7129 55.0222 21.9341 54.6067 22.1554 54.1865C22.2682 53.9752 22.381 53.7639 22.496 53.5479C22.6349 53.3153 22.9429 53.2203 23.1707 53.3651C24.7587 54.3432 26.2708 55.2762 27.6484 56.1261C27.9912 56.3397 28.3275 56.5463 28.6529 56.7481C28.8156 56.8478 28.9761 56.9475 29.1345 57.0448C29.2126 57.097 29.2907 57.1327 29.3731 57.2039C29.4491 57.2751 29.5033 57.3701 29.5272 57.4721C29.551 57.5742 29.5467 57.6834 29.5185 57.7831C29.4859 57.8852 29.4339 57.9588 29.3948 58.0395C29.3102 58.1986 29.2256 58.3576 29.1432 58.5096C28.9783 58.8182 28.8199 59.1126 28.6681 59.3951C28.065 60.5156 27.5747 61.4249 27.2297 62.0635C27.1386 62.2178 27.08 62.3673 26.9868 62.4742C26.8913 62.5762 26.7763 62.6166 26.6874 62.6237C26.5963 62.6308 26.529 62.6095 26.4878 62.5881C26.4487 62.5762 26.4314 62.5572 26.4314 62.5572Z" fill="#E0E0E0"/>
<path d="M25.2837 57.6906L25.8304 58.7541L24.7023 58.7755L23.5742 58.7992L24.1556 57.7143L24.737 56.6294L25.2837 57.6906Z" fill="#E0E0E0"/>
<path d="M98.8558 102.953C98.8558 102.989 78.1052 103.02 52.5146 103.02C26.9152 103.02 6.16895 102.991 6.16895 102.953C6.16895 102.918 26.9152 102.887 52.5146 102.887C78.1074 102.889 98.8558 102.918 98.8558 102.953Z" fill="#263238"/>
<path d="M29.1108 87.8713L22.5591 80.6709L25.8523 74.0522C29.1455 69.4395 36.118 69.7362 36.118 69.7362C36.118 69.7362 40.8626 69.2353 46.399 70.4152C51.9376 71.5951 51.4907 75.6048 51.4907 75.6048L52.2326 90.4589L53.0288 102.554L32.6036 103.006L29.1108 87.8713Z" fill="#C8DCEC"/>
<path d="M40.1141 102.31L21.8193 102.555C17.424 102.614 14.491 97.6118 16.3719 93.2627L24.1948 77.3877L31.3193 82.658L26.4597 93.6947L41.2704 93.9844L40.1141 102.31Z" fill="#C8DCEC"/>
<path d="M50.8398 73.1929L65.5204 97.9965L56.9555 98.609C56.9555 98.609 51.84 89.7895 51.9571 89.9723C52.1654 90.3023 50.8398 73.1929 50.8398 73.1929Z" fill="#C8DCEC"/>
<path d="M30.9526 84.0848C30.9483 84.0848 30.957 84.0397 30.9722 83.9566C30.9939 83.8616 31.0177 83.7429 31.0503 83.5981C31.1175 83.2871 31.2173 82.836 31.3193 82.2734C31.4212 81.7131 31.5319 81.0413 31.6056 80.2887C31.6751 79.5385 31.7184 78.7029 31.6143 77.8435C31.4972 76.9865 31.2021 76.2078 30.8572 75.5597C30.5101 74.9092 30.1217 74.3751 29.7681 73.9549C29.4145 73.5347 29.1021 73.2213 28.8787 73.0148C28.6574 72.8059 28.5294 72.6967 28.5359 72.6872C28.5381 72.6848 28.5728 72.7085 28.6357 72.756C28.6986 72.8059 28.794 72.8747 28.9069 72.9768C29.139 73.1738 29.4622 73.4801 29.8267 73.8955C30.1912 74.311 30.5925 74.8451 30.9483 75.5027C31.3041 76.158 31.6078 76.9485 31.7271 77.8269C31.8334 78.7053 31.7857 79.548 31.7119 80.303C31.6317 81.0579 31.5123 81.7321 31.3995 82.2924C31.2867 82.8527 31.1761 83.3013 31.0936 83.61C31.0524 83.7643 31.0199 83.883 30.996 83.9637C30.97 84.0444 30.9548 84.0848 30.9526 84.0848Z" fill="#263238"/>
<path d="M30.3625 84.9392C30.369 84.9416 30.3234 85.0698 30.2367 85.2977C30.1499 85.5256 30.0176 85.8532 29.8527 86.2544C29.5208 87.0592 29.05 88.1655 28.5076 89.3763C27.9653 90.587 27.4533 91.6719 27.0736 92.4506C26.8849 92.8399 26.7287 93.1533 26.6159 93.3693C26.5052 93.5854 26.4402 93.7017 26.4337 93.6969C26.4271 93.6922 26.4792 93.5687 26.5768 93.3456C26.6853 93.1058 26.8285 92.7901 27.002 92.4079C27.3687 91.5983 27.8611 90.5158 28.4057 89.3169C28.9393 88.1133 29.421 87.026 29.7811 86.2117C29.9503 85.8295 30.0913 85.5114 30.1976 85.2716C30.2974 85.0579 30.356 84.9369 30.3625 84.9392Z" fill="#263238"/>
<path d="M40.114 102.31C40.1119 102.31 40.1119 102.296 40.114 102.267C40.1162 102.234 40.1184 102.194 40.1227 102.146C40.1336 102.032 40.1487 101.873 40.1661 101.674C40.2095 101.251 40.2681 100.651 40.3462 99.8933C40.5089 98.3597 40.7367 96.197 41.0057 93.6497L41.0577 93.7138C39.4111 93.7162 37.5801 93.7162 35.6537 93.7185C31.9635 93.7114 28.6247 93.7043 26.1993 93.6995C24.9952 93.6924 24.019 93.6853 23.3335 93.6805C23.0015 93.6758 22.7412 93.6711 22.5546 93.6687C22.47 93.6663 22.4028 93.6639 22.3529 93.6616C22.3073 93.6592 22.2834 93.6568 22.2834 93.6544C22.2834 93.6521 22.3073 93.6497 22.3529 93.6473C22.4049 93.6449 22.4722 93.6426 22.5546 93.6402C22.7412 93.6378 23.0015 93.6331 23.3335 93.6283C24.0168 93.6236 24.9952 93.6165 26.1993 93.6093C28.6247 93.6046 31.9635 93.5975 35.6537 93.5903C37.5801 93.5927 39.4111 93.5951 41.0577 93.5951H41.1163L41.1098 93.6592C40.8234 96.2041 40.5826 98.3645 40.4112 99.8981C40.3223 100.653 40.2529 101.254 40.203 101.676C40.1769 101.876 40.1574 102.032 40.1444 102.146C40.1379 102.196 40.1314 102.234 40.127 102.267C40.1184 102.296 40.1162 102.31 40.114 102.31Z" fill="#263238"/>
<path d="M26.5878 93.8681C26.5726 93.8776 26.4468 93.6758 26.2233 93.3672C25.9999 93.0609 25.6658 92.655 25.2471 92.268C24.8284 91.8811 24.4075 91.5891 24.0929 91.3991C23.7784 91.2069 23.5745 91.1071 23.581 91.0882C23.5853 91.0739 23.8022 91.1475 24.1298 91.3208C24.4574 91.4941 24.8935 91.779 25.3187 92.1731C25.7439 92.5672 26.0758 92.9897 26.2862 93.3126C26.4989 93.6378 26.5986 93.8586 26.5878 93.8681Z" fill="#263238"/>
<path d="M52.5384 95.4372C52.534 95.4372 52.5254 95.3659 52.5102 95.233C52.495 95.0882 52.4755 94.8911 52.4494 94.6419C52.3995 94.1291 52.3323 93.386 52.2607 92.4649C52.1132 90.6251 51.9418 88.0825 51.7877 85.2693C51.6359 82.4561 51.5296 79.9088 51.4688 78.0642C51.4385 77.1407 51.4168 76.3953 51.4081 75.8801C51.4038 75.6308 51.4016 75.4314 51.3994 75.2866C51.3994 75.1513 51.3994 75.0801 51.4038 75.0801C51.4081 75.0801 51.4146 75.1513 51.4211 75.2866C51.4276 75.4338 51.4385 75.6308 51.4515 75.8801C51.4753 76.4071 51.5079 77.1502 51.5491 78.0642C51.6315 79.9088 51.7487 82.4537 51.9006 85.2669C52.0524 88.0778 52.2108 90.6227 52.3388 92.4625C52.4039 93.3742 52.4559 94.1148 52.4928 94.6419C52.5102 94.8911 52.5232 95.0882 52.5319 95.2354C52.5405 95.3659 52.5427 95.4372 52.5384 95.4372Z" fill="#263238"/>
<path d="M36.2091 81.9409C36.2026 81.9409 36.2113 81.827 36.233 81.6157C36.259 81.3901 36.2916 81.0886 36.3328 80.7183C36.4283 79.9349 36.5584 78.8618 36.7103 77.6178L36.7949 77.6748C36.3567 78.0096 35.8837 78.3728 35.3913 78.7503C34.8901 79.1325 34.4085 79.4981 33.9638 79.8375L33.8618 79.9159L33.8813 79.7806C34.0527 78.5485 34.2024 77.4849 34.3109 76.7086C34.3651 76.343 34.4107 76.0463 34.4454 75.8231C34.4779 75.6166 34.4996 75.505 34.5061 75.5074C34.5126 75.5074 34.504 75.6213 34.4823 75.8302C34.4562 76.0558 34.4215 76.3549 34.3803 76.7205C34.2827 77.4991 34.146 78.5651 33.9898 79.7996L33.9052 79.7426C34.3478 79.4031 34.8294 79.0351 35.3305 78.6505C35.823 78.2754 36.2981 77.9122 36.7363 77.5799L36.8383 77.5015L36.8209 77.6368C36.6539 78.8761 36.5107 79.9491 36.4044 80.7302C36.3502 81.0981 36.3068 81.3973 36.2742 81.6228C36.2352 81.8293 36.2135 81.9433 36.2091 81.9409Z" fill="black"/>
<path d="M44.3727 82.9048C44.3684 82.9096 44.2925 82.8289 44.1601 82.6769C44.0169 82.5108 43.826 82.29 43.5917 82.0193C43.1014 81.4377 42.4311 80.6424 41.6544 79.7213L41.7477 79.6857C41.7043 80.2673 41.6566 80.8988 41.6067 81.554C41.5546 82.2188 41.5047 82.8597 41.457 83.4509L41.4462 83.5886L41.3637 83.4865C40.6088 82.5535 39.9558 81.7487 39.4785 81.16C39.2572 80.8798 39.0771 80.6519 38.9405 80.481C38.8168 80.3219 38.7517 80.2317 38.7561 80.227C38.7604 80.2222 38.8342 80.3029 38.9665 80.4525C39.1075 80.6187 39.2963 80.8371 39.5262 81.1077C40.01 81.687 40.6738 82.4823 41.4418 83.4034L41.3485 83.4366C41.3941 82.8455 41.4418 82.2045 41.4917 81.5398C41.5438 80.8846 41.5937 80.2531 41.6392 79.6714L41.6501 79.5361L41.7325 79.6382C42.4983 80.5712 43.1578 81.3784 43.6416 81.9671C43.8673 82.2472 44.0495 82.4751 44.1862 82.6484C44.312 82.8099 44.3771 82.9001 44.3727 82.9048Z" fill="black"/>
<path d="M48.4816 82.5866C48.4859 82.5913 48.4339 82.6887 48.3341 82.8691C48.2234 83.0614 48.0759 83.3202 47.8958 83.6359C47.5054 84.3006 46.9695 85.2122 46.349 86.2663L46.2948 86.1761C46.8198 86.0764 47.3904 85.9696 47.9826 85.858C48.5836 85.7464 49.165 85.6396 49.6986 85.5399L49.8223 85.5161L49.7529 85.6301C49.1172 86.6651 48.5684 87.5578 48.1692 88.2106C47.9761 88.5145 47.8199 88.7638 47.7028 88.9489C47.5921 89.1199 47.5314 89.2101 47.5249 89.2077C47.5205 89.203 47.5726 89.1056 47.6724 88.9276C47.783 88.7353 47.9306 88.4813 48.1128 88.1703C48.5055 87.5127 49.0413 86.6105 49.6639 85.566L49.7182 85.6562C49.1845 85.7559 48.6053 85.8651 48.0043 85.9791C47.4121 86.0883 46.8415 86.1951 46.3143 86.2924L46.1907 86.3162L46.2601 86.2022C46.8936 85.1576 47.4424 84.2555 47.8416 83.5979C48.0325 83.2893 48.1887 83.04 48.308 82.8501C48.4143 82.6744 48.4773 82.5819 48.4816 82.5866Z" fill="black"/>
<path d="M43.0168 87.1874C43.0211 87.1922 42.969 87.2895 42.8692 87.4699C42.7586 87.6622 42.6111 87.921 42.431 88.2367C42.0405 88.9015 41.5047 89.8131 40.8842 90.8671L40.83 90.7769C41.355 90.6772 41.9255 90.5704 42.5178 90.4588C43.1187 90.3472 43.7001 90.2404 44.2338 90.1407L44.3575 90.1169L44.288 90.2309C43.6524 91.266 43.1035 92.1586 42.7044 92.8114C42.5113 93.1153 42.3551 93.3646 42.2379 93.5498C42.1273 93.7207 42.0665 93.8109 42.06 93.8085C42.0557 93.8038 42.1078 93.7064 42.2076 93.5284C42.3182 93.3361 42.4657 93.0821 42.6479 92.7711C43.0406 92.1135 43.5765 91.2114 44.1991 90.1668L44.2533 90.257C43.7196 90.3567 43.1404 90.4659 42.5395 90.5799C41.9472 90.6891 41.3767 90.7959 40.8495 90.8933L40.7258 90.917L40.7953 90.803C41.4287 89.7585 41.9776 88.8564 42.3768 88.1988C42.5677 87.8901 42.7239 87.6409 42.8432 87.4509C42.9495 87.2753 43.0124 87.1827 43.0168 87.1874Z" fill="black"/>
<path d="M54.8251 82.5203C54.8294 82.5251 54.7774 82.6224 54.6776 82.8028C54.5669 82.9951 54.4194 83.2539 54.2394 83.5696C53.8489 84.2343 53.313 85.146 52.6925 86.2L52.6383 86.1098C53.1633 86.0101 53.7339 85.9033 54.3261 85.7917C54.9271 85.6801 55.5085 85.5733 56.0422 85.4736L56.1658 85.4498L56.0964 85.5638C55.4607 86.5988 54.9119 87.4915 54.5127 88.1443C54.3196 88.4482 54.1634 88.6975 54.0463 88.8826C53.9356 89.0536 53.8749 89.1438 53.8684 89.1414C53.864 89.1367 53.9161 89.0393 54.0159 88.8613C54.1265 88.669 54.2741 88.415 54.4563 88.104C54.849 87.4464 55.3848 86.5442 56.0074 85.4997L56.0617 85.5899C55.528 85.6896 54.9488 85.7988 54.3478 85.9128C53.7556 86.022 53.185 86.1288 52.6578 86.2261L52.5342 86.2499L52.6036 86.1359C53.2371 85.0914 53.7859 84.1892 54.1851 83.5316C54.376 83.223 54.5322 82.9737 54.6515 82.7838C54.7578 82.6105 54.8186 82.5179 54.8251 82.5203Z" fill="black"/>
<path d="M27.1757 78.7219C27.18 78.7266 27.128 78.8239 27.0282 79.0044C26.9175 79.1967 26.77 79.4554 26.5899 79.7712C26.1994 80.4359 25.6636 81.3475 25.0431 82.4016L24.9889 82.3114C25.5139 82.2116 26.0845 82.1048 26.6767 81.9932C27.2777 81.8817 27.8591 81.7748 28.3927 81.6751L28.5164 81.6514L28.447 81.7653C27.8113 82.8004 27.2625 83.693 26.8633 84.3459C26.6702 84.6497 26.514 84.899 26.3969 85.0842C26.2862 85.2551 26.2255 85.3453 26.219 85.343C26.2146 85.3382 26.2667 85.2409 26.3665 85.0628C26.4771 84.8705 26.6247 84.6165 26.8069 84.3055C27.1996 83.6479 27.7354 82.7458 28.358 81.7012L28.4123 81.7914C27.8786 81.8912 27.2993 82.0004 26.6984 82.1143C26.1062 82.2235 25.5356 82.3303 25.0084 82.4277L24.8848 82.4514L24.9542 82.3375C25.5877 81.2929 26.1365 80.3908 26.5357 79.7332C26.7266 79.4246 26.8828 79.1753 27.0021 78.9854C27.1084 78.8097 27.1692 78.7171 27.1757 78.7219Z" fill="black"/>
<path d="M18.5976 96.4722C18.602 96.4674 18.6736 96.5529 18.7972 96.7143C18.9296 96.89 19.1074 97.1226 19.3266 97.4099C19.7821 98.0224 20.4069 98.8628 21.1294 99.8361L21.0339 99.8646C21.112 99.2877 21.1944 98.661 21.2812 98.0081C21.3723 97.3482 21.4591 96.7119 21.5372 96.1256L21.5567 95.9902L21.6327 96.0971C22.3334 97.0799 22.9387 97.9274 23.3812 98.547C23.5873 98.8414 23.7522 99.0812 23.878 99.2616C23.993 99.4302 24.0516 99.5228 24.0472 99.5275C24.0429 99.5322 23.9735 99.4468 23.8498 99.2877C23.7175 99.112 23.5439 98.8794 23.327 98.5945C22.8779 97.982 22.2618 97.144 21.5481 96.173L21.6435 96.1445C21.5654 96.7309 21.4808 97.3672 21.3919 98.0271C21.3029 98.6776 21.2183 99.3043 21.138 99.8812L21.1207 100.017L21.0448 99.9097C20.3353 98.9269 19.7214 98.077 19.2723 97.455C19.0641 97.1606 18.8948 96.9185 18.7668 96.738C18.654 96.5695 18.5933 96.4769 18.5976 96.4722Z" fill="black"/>
<path d="M38.1877 84.9797C38.1877 84.9868 38.0836 85.0011 37.8927 85.0201C37.6844 85.0391 37.4089 85.0652 37.0683 85.0984C36.348 85.1578 35.361 85.2385 34.2177 85.3311L34.2502 85.229C34.6385 85.6278 35.0616 86.0623 35.4998 86.511C35.9445 86.9691 36.3719 87.4107 36.7646 87.8167L36.8557 87.9116L36.732 87.9187C35.5952 87.9876 34.6125 88.0469 33.8966 88.0897C33.5582 88.1063 33.2826 88.1182 33.0765 88.1276C32.8856 88.1348 32.7815 88.1348 32.7815 88.1276C32.7815 88.1205 32.8835 88.1063 33.0744 88.0873C33.2805 88.0683 33.556 88.0446 33.8922 88.0137C34.6082 87.9591 35.5887 87.8855 36.7255 87.8L36.693 87.9021C36.2981 87.4962 35.8686 87.057 35.4239 86.6012C34.9878 86.1501 34.5648 85.7157 34.1786 85.3145L34.0875 85.2219L34.2112 85.2147C35.3544 85.1388 36.3437 85.0747 37.064 85.0272C37.4046 85.0082 37.6822 84.994 37.8905 84.9845C38.0814 84.9726 38.1856 84.9726 38.1877 84.9797Z" fill="black"/>
<path d="M33.3801 96.9448C33.3844 96.94 33.456 97.0231 33.584 97.1822C33.7207 97.3555 33.9029 97.5834 34.1264 97.8659C34.5928 98.4689 35.2328 99.2974 35.9726 100.254L35.8771 100.285C35.9444 99.7057 36.016 99.0766 36.0919 98.4238C36.17 97.7614 36.2459 97.1228 36.3153 96.5364L36.3305 96.4011L36.4086 96.508C37.1267 97.4765 37.7472 98.3098 38.2006 98.9199C38.411 99.2096 38.5824 99.447 38.7104 99.6226C38.8276 99.7888 38.8883 99.879 38.884 99.8838C38.8796 99.8885 38.808 99.8054 38.6822 99.6488C38.5477 99.4778 38.3676 99.2476 38.1485 98.9674C37.6886 98.3644 37.0573 97.5406 36.3262 96.5839L36.4216 96.5531C36.3544 97.1418 36.2806 97.7781 36.2047 98.4404C36.1266 99.0932 36.0528 99.72 35.9856 100.299L35.9704 100.435L35.8923 100.33C35.1655 99.3615 34.5364 98.5259 34.0765 97.9134C33.8639 97.6214 33.6903 97.3863 33.5602 97.2083C33.4365 97.0397 33.3758 96.9495 33.3801 96.9448Z" fill="black"/>
<path d="M24.7893 88.168C24.7893 88.1751 24.6852 88.1894 24.4942 88.2107C24.286 88.2297 24.0105 88.2558 23.6699 88.2891C22.9496 88.3484 21.9625 88.4291 20.8192 88.5217L20.8518 88.4196C21.2401 88.8185 21.6631 89.2529 22.1014 89.7016C22.5461 90.1598 22.9735 90.6014 23.3661 91.0073L23.4573 91.1023L23.3336 91.1094C22.1968 91.1782 21.2141 91.2376 20.4981 91.2803C20.1597 91.2969 19.8842 91.3088 19.6781 91.3183C19.4872 91.3254 19.3831 91.3254 19.3831 91.3183C19.3831 91.3112 19.485 91.2969 19.6759 91.278C19.882 91.259 20.1575 91.2352 20.4938 91.2044C21.2097 91.1498 22.1903 91.0762 23.3271 90.9907L23.2945 91.0928C22.8997 90.6868 22.4702 90.2476 22.0254 89.7918C21.5894 89.3408 21.1663 88.9063 20.7802 88.5051L20.6891 88.4125L20.8127 88.4054C21.956 88.3294 22.9453 88.2653 23.6655 88.2179C24.0061 88.1989 24.2838 88.1846 24.4921 88.1751C24.683 88.1633 24.7871 88.1633 24.7893 88.168Z" fill="black"/>
<path d="M32.1697 96.6742C32.1697 96.6813 32.0655 96.6955 31.8746 96.7169C31.6663 96.7359 31.3908 96.762 31.0502 96.7952C30.33 96.8546 29.3429 96.9353 28.1996 97.0279L28.2321 96.9258C28.6205 97.3246 29.0435 97.7591 29.4817 98.2078C29.9265 98.666 30.3538 99.1075 30.7465 99.5135L30.8376 99.6084L30.714 99.6156C29.5772 99.6844 28.5944 99.7438 27.8785 99.7865C27.5401 99.8031 27.2646 99.815 27.0585 99.8245C26.8676 99.8316 26.7634 99.8316 26.7634 99.8245C26.7634 99.8174 26.8654 99.8031 27.0563 99.7841C27.2624 99.7651 27.5379 99.7414 27.8742 99.7105C28.5901 99.6559 29.5707 99.5823 30.7075 99.4969L30.6749 99.5989C30.2801 99.193 29.8505 98.7538 29.4058 98.298C28.9697 97.8469 28.5467 97.4125 28.1605 97.0113L28.0694 96.9187L28.1931 96.9116C29.3364 96.8356 30.3256 96.7715 31.0459 96.724C31.3865 96.705 31.6642 96.6908 31.8724 96.6813C32.0655 96.6694 32.1697 96.6671 32.1697 96.6742Z" fill="black"/>
<path d="M48.833 75.0349C48.833 75.042 48.7289 75.0563 48.5379 75.0752C48.3297 75.0942 48.0542 75.1204 47.7136 75.1536C46.9933 75.2129 46.0062 75.2937 44.8629 75.3862L44.8955 75.2842C45.2838 75.683 45.7068 76.1174 46.1451 76.5661C46.5898 77.0243 47.0172 77.4659 47.4098 77.8718L47.501 77.9668L47.3773 77.9739C46.2405 78.0428 45.2578 78.1021 44.5418 78.1448C44.2034 78.1615 43.9279 78.1733 43.7218 78.1828C43.5309 78.1899 43.4268 78.1899 43.4268 78.1828C43.4268 78.1757 43.5287 78.1615 43.7196 78.1425C43.9257 78.1235 44.2012 78.0997 44.5375 78.0689C45.2534 78.0143 46.234 77.9407 47.3708 77.8552L47.3382 77.9573C46.9434 77.5513 46.5139 77.1121 46.0691 76.6563C45.6331 76.2053 45.21 75.7708 44.8239 75.3696L44.7328 75.277L44.8564 75.2699C45.9997 75.194 46.989 75.1299 47.7092 75.0824C48.0498 75.0634 48.3275 75.0491 48.5358 75.0396C48.7289 75.0278 48.833 75.0278 48.833 75.0349Z" fill="black"/>
<path d="M40.728 96.6741C40.728 96.6741 44.3792 95.5227 45.5854 95.1856C46.0562 95.055 48.0716 96.2183 49.4643 97.1845C49.4643 97.1845 51.3821 98.4285 51.2259 98.8131C51.0545 99.2357 50.3473 99.1478 49.2214 98.5686C49.2214 98.5686 49.614 99.8197 48.8417 99.7912C48.8417 99.7912 49.2257 101.142 48.5011 101.282C47.7765 101.422 47.6073 99.6986 46.9673 99.6036C46.3295 99.5111 45.0083 99.4161 45.0083 99.4161C45.0083 99.4161 43.9084 101.408 43.058 101.548C42.2054 101.688 40.2334 101.436 40.2334 101.436L40.728 96.6741Z" fill="#FFBE9D"/>
<path d="M46.9564 96.9495C46.9738 96.921 47.4294 97.2035 47.9761 97.581C48.5228 97.9584 48.9523 98.2861 48.935 98.3169C48.9176 98.3454 48.462 98.0629 47.9153 97.6854C47.3708 97.308 46.9413 96.9804 46.9564 96.9495Z" fill="#EB996E"/>
<path d="M46.7417 97.7187C46.7547 97.6879 47.2971 97.93 47.9522 98.2624C48.6074 98.5924 49.1281 98.8867 49.1151 98.9176C49.102 98.9484 48.5597 98.7063 47.9045 98.3739C47.2493 98.0439 46.7287 97.7496 46.7417 97.7187Z" fill="#EB996E"/>
<path d="M47.1321 99.58C47.1365 99.5468 47.5053 99.5729 47.9565 99.6417C48.4077 99.7082 48.77 99.7913 48.7657 99.8245C48.7614 99.8578 48.3926 99.8317 47.9413 99.7628C47.4901 99.6963 47.1278 99.6156 47.1321 99.58Z" fill="#EB996E"/>
<path d="M35.9793 55.4732C36.0639 55.7795 35.9684 56.1356 35.745 56.3397C35.5215 56.5463 35.1831 56.5866 34.9228 56.4442C34.4281 56.1688 34.3652 55.4234 34.4628 54.8251C34.5605 54.2269 34.7449 53.5906 34.5171 53.0375C34.3413 52.6149 33.9617 52.3467 33.6667 52.0143C33.1503 51.435 32.877 50.5899 33.0028 49.7922C33.1286 48.9946 33.6753 48.2776 34.3869 48.0616C35.1137 47.8384 36.0096 48.083 36.5498 47.5084C36.9425 47.0906 36.9664 46.4069 37.2701 45.9107C37.7408 45.1368 38.7366 45.0157 39.5784 45.1416C40.4201 45.2674 41.2749 45.5618 42.0992 45.3386C42.787 45.1511 43.3532 44.6264 43.9975 44.3035C45.3946 43.6032 47.1822 43.983 48.2387 45.2033C49.2974 46.4235 49.5469 48.3963 48.8353 49.8872C48.5793 50.4237 48.1932 50.908 47.6834 51.1359" fill="#263238"/>
<path d="M35.9793 55.4732C36.0639 55.7795 35.9684 56.1356 35.745 56.3397C35.5215 56.5463 35.1831 56.5866 34.9228 56.4442C34.4281 56.1688 34.3652 55.4234 34.4628 54.8251C34.5605 54.2269 34.7449 53.5906 34.5171 53.0375C34.3413 52.6149 33.9617 52.3467 33.6667 52.0143C33.1503 51.435 32.877 50.5899 33.0028 49.7922C33.1286 48.9946 33.6753 48.2776 34.3869 48.0616C35.1137 47.8384 36.0096 48.083 36.5498 47.5084C36.9425 47.0906 36.9664 46.4069 37.2701 45.9107C37.7408 45.1368 38.7366 45.0157 39.5784 45.1416C40.4201 45.2674 41.2749 45.5618 42.0992 45.3386C42.787 45.1511 43.3532 44.6264 43.9975 44.3035C45.3946 43.6032 47.1822 43.983 48.2387 45.2033C49.2974 46.4235 49.5469 48.3963 48.8353 49.8872C48.5793 50.4237 48.1932 50.908 47.6834 51.1359" stroke="#263238" stroke-width="0.2" stroke-miterlimit="10"/>
<path d="M40.1663 75.0824C42.4962 75.08 44.375 72.9933 44.3446 70.4436L44.2904 66.0802C44.2904 66.0802 47.64 65.7122 47.8634 62.08C48.0847 58.4478 47.9242 50.0675 47.9242 50.0675C44.1689 48.0306 39.6998 48.3749 36.2439 50.972L35.7319 51.3566L35.9814 70.5718C36.0118 73.074 37.8775 75.0848 40.1663 75.0824Z" fill="#FFBE9D" stroke="#263238" stroke-width="0.2" stroke-miterlimit="10"/>
<path d="M47.0412 56.6435C46.4511 56.5154 46.4555 55.6821 47.0477 55.5634C47.0737 55.5586 47.102 55.5586 47.128 55.5634C47.7181 55.6916 47.7137 56.5248 47.1215 56.6435C47.0976 56.6507 47.0672 56.6507 47.0412 56.6435Z" fill="#263238" stroke="#263238" stroke-width="0.2" stroke-miterlimit="10"/>
<path d="M47.6941 55.4851C47.6399 55.5444 47.3275 55.25 46.8697 55.2216C46.412 55.1836 46.067 55.4305 46.0193 55.364C45.9955 55.3331 46.054 55.2239 46.2037 55.1124C46.3512 55.0008 46.6007 54.9011 46.8871 54.9201C47.1713 54.9414 47.4078 55.0767 47.5401 55.2097C47.6768 55.3403 47.7202 55.459 47.6941 55.4851Z" fill="#263238" stroke="#263238" stroke-width="0.2" stroke-miterlimit="10"/>
<path d="M42.401 55.6062C42.6201 55.7724 42.6743 56.1024 42.5225 56.3421C42.3706 56.5819 42.069 56.6413 41.8499 56.4751C41.6308 56.3089 41.5766 55.9789 41.7284 55.7391C41.8803 55.4994 42.1819 55.44 42.401 55.6062Z" fill="#263238" stroke="#263238" stroke-width="0.2" stroke-miterlimit="10"/>
<path d="M42.7024 55.6299C42.6482 55.6892 42.3358 55.3948 41.878 55.3663C41.4203 55.3284 41.0753 55.5753 41.0276 55.5088C41.0038 55.4779 41.0623 55.3687 41.212 55.2571C41.3595 55.1456 41.609 55.0458 41.8954 55.0648C42.1796 55.0862 42.4161 55.2215 42.5484 55.3545C42.6851 55.485 42.7285 55.6037 42.7024 55.6299Z" fill="#263238" stroke="#263238" stroke-width="0.2" stroke-miterlimit="10"/>
<path d="M44.3315 59.8697C44.3293 59.8293 44.6157 59.7842 45.08 59.7415C45.2015 59.7344 45.2947 59.7106 45.3078 59.6394C45.3338 59.5611 45.2947 59.4186 45.2405 59.2596C45.1385 58.9224 45.0366 58.5782 44.9303 58.2197C44.5029 56.7407 44.2122 55.5229 44.2794 55.4991C44.3489 55.4754 44.7502 56.6553 45.1776 58.1343C45.2774 58.4951 45.375 58.8394 45.4683 59.1788C45.5052 59.3331 45.5789 59.5136 45.5073 59.7272C45.4683 59.8341 45.3707 59.9053 45.2904 59.9243C45.2101 59.9456 45.1429 59.9409 45.0843 59.9409C44.62 59.9338 44.3315 59.9077 44.3315 59.8697Z" fill="#263238" stroke="#263238" stroke-width="0.2" stroke-miterlimit="10"/>
<path d="M42.8172 60.3328C43.403 60.6295 44.1015 60.9999 45.0257 61.1803C45.0257 61.1803 44.4443 62.0824 43.5071 61.6408C42.5309 61.185 42.8172 60.3328 42.8172 60.3328Z" fill="white" stroke="#263238" stroke-width="0.2" stroke-miterlimit="10"/>
<path d="M44.2969 66.0255C44.2969 66.0255 42.1882 66.0872 40.0339 64.4207C40.0339 64.4207 40.9277 67.0985 44.2578 66.968L44.2969 66.0255Z" fill="#EB996E" stroke="#263238" stroke-width="0.2" stroke-miterlimit="10"/>
<path d="M47.946 50.9841C47.946 50.9841 45.9414 52.0998 43.2817 50.7158C41.5375 49.8089 39.5134 49.3911 39.0773 49.7804C38.6391 50.1698 38.5805 52.1212 36.8797 52.7266C36.8797 52.7266 37.0641 56.4419 35.706 56.3374C34.348 56.233 35.0942 50.457 35.0942 50.457L38.3766 48.6148L41.98 47.791L45.3969 48.2445L48.0479 48.978L47.946 50.9841Z" fill="#263238" stroke="#263238" stroke-width="0.2" stroke-miterlimit="10"/>
<path d="M35.9511 55.1433C35.8969 55.1125 33.7058 54.2697 33.6537 56.7577C33.6016 59.248 35.8969 58.7898 35.9034 58.7186C35.9099 58.6474 35.9511 55.1433 35.9511 55.1433Z" fill="#FFBE9D" stroke="#263238" stroke-width="0.2" stroke-miterlimit="10"/>
<path d="M35.2287 57.7595C35.2178 57.7523 35.1875 57.788 35.1202 57.8212C35.0551 57.852 34.9423 57.871 34.823 57.8212C34.5844 57.7191 34.3913 57.2965 34.3891 56.8478C34.3869 56.6199 34.4347 56.4063 34.5128 56.2306C34.5865 56.0502 34.6972 55.9267 34.8187 55.9054C34.9401 55.8769 35.0248 55.96 35.0508 56.0312C35.079 56.1024 35.0638 56.1499 35.0768 56.1546C35.0833 56.1618 35.1267 56.1143 35.1094 56.0098C35.1007 55.96 35.0747 55.9006 35.0226 55.8508C34.9683 55.8009 34.8902 55.7748 34.8056 55.7819C34.6299 55.7914 34.4694 55.9647 34.3848 56.157C34.2915 56.3517 34.2329 56.5938 34.2329 56.8478C34.2372 57.3488 34.4629 57.8259 34.7883 57.9375C34.9467 57.9874 35.0812 57.9375 35.1527 57.8805C35.2222 57.8188 35.2352 57.7642 35.2287 57.7595Z" fill="#EB996E" stroke="#263238" stroke-width="0.2" stroke-miterlimit="10"/>
<path d="M34.7926 47.3493C34.7796 47.3208 35.1527 47.2045 35.5822 47.3802C36.0118 47.5535 36.2244 47.9096 36.1984 47.9214C36.1745 47.9475 35.9402 47.6532 35.5432 47.4965C35.1505 47.3327 34.7969 47.3873 34.7926 47.3493Z" fill="#263238" stroke="#263238" stroke-width="0.2" stroke-miterlimit="10"/>
<path d="M36.1614 45.8584C36.2005 45.8608 36.1397 46.3831 36.2178 47.0051C36.2959 47.6342 36.5649 48.071 36.5346 48.09C36.5237 48.0995 36.4413 48.0022 36.3436 47.8146C36.2482 47.6294 36.1462 47.3469 36.105 47.0241C36.0247 46.3736 36.1397 45.8537 36.1614 45.8584Z" fill="#263238" stroke="#263238" stroke-width="0.2" stroke-miterlimit="10"/>
<path d="M45.5097 54.2886C45.4967 54.2601 45.5943 54.1746 45.7787 54.0915C45.9631 54.0084 46.2365 53.9396 46.5423 53.942C46.8482 53.9467 47.1194 54.0227 47.3016 54.1081C47.4839 54.1936 47.5815 54.2814 47.5685 54.3123C47.5403 54.3788 47.1021 54.1912 46.5402 54.1889C45.9783 54.177 45.5357 54.355 45.5097 54.2886Z" fill="#263238" stroke="#263238" stroke-width="0.2" stroke-miterlimit="10"/>
<path d="M40.4374 53.7663C40.4244 53.7379 40.522 53.6524 40.7064 53.5693C40.8908 53.4862 41.1642 53.4174 41.4701 53.4197C41.776 53.4245 42.0472 53.5005 42.2294 53.5859C42.4116 53.6714 42.5092 53.7592 42.4962 53.7901C42.468 53.8566 42.0298 53.669 41.4679 53.6666C40.906 53.6548 40.4635 53.8328 40.4374 53.7663Z" fill="#263238" stroke="#263238" stroke-width="0.2" stroke-miterlimit="10"/>
<path d="M45.1167 54.6804C45.1189 54.6828 45.1232 54.735 45.1254 54.8276C45.1276 54.9321 45.1319 55.065 45.1363 55.2288C45.1406 55.4045 45.1428 55.6134 45.1471 55.8532C45.1471 56.093 45.1601 56.3731 45.2556 56.6604C45.3467 56.9452 45.5029 57.2396 45.735 57.4889C45.9693 57.7334 46.2752 57.9376 46.631 58.0278C46.8089 58.0729 46.9955 58.0966 47.1864 58.08C47.3773 58.0705 47.5704 58.0278 47.7548 57.9494C48.1257 57.7999 48.462 57.5079 48.6898 57.1209C48.9067 56.7529 49.0044 56.3233 48.9957 55.9054C48.9957 55.4805 48.9979 55.0698 48.9979 54.6781L49.0499 54.735C47.9131 54.7232 46.9412 54.7137 46.234 54.7066C45.8956 54.6994 45.6222 54.6947 45.4161 54.6899C45.3293 54.6876 45.2556 54.6852 45.1948 54.6828C45.1471 54.6852 45.1189 54.6828 45.1167 54.6804C45.1124 54.6757 45.21 54.6709 45.3966 54.6662C45.5983 54.6615 45.8674 54.6567 46.2015 54.6496C46.9152 54.6425 47.9001 54.633 49.0521 54.6211H49.1042V54.6781C49.1042 55.0698 49.1063 55.4805 49.1063 55.9054C49.1193 56.3375 49.0152 56.8004 48.7852 57.1874C48.5444 57.5957 48.1865 57.9067 47.7938 58.061C47.5986 58.1441 47.3946 58.1868 47.1929 58.1963C46.9911 58.2106 46.7937 58.1868 46.6071 58.137C46.2318 58.0397 45.9108 57.8213 45.6699 57.5601C45.4291 57.2942 45.2708 56.9856 45.1796 56.6841C45.0864 56.3826 45.0777 56.093 45.0842 55.8437C45.0885 55.5992 45.0929 55.3855 45.095 55.2051C45.0994 55.0437 45.1037 54.9131 45.1059 54.8086C45.1124 54.7232 45.1146 54.6781 45.1167 54.6804Z" fill="#263238"/>
<path d="M45.1167 54.6804C45.1189 54.6828 45.1232 54.735 45.1254 54.8276C45.1276 54.9321 45.1319 55.065 45.1363 55.2288C45.1406 55.4045 45.1428 55.6134 45.1471 55.8532C45.1471 56.093 45.1601 56.3731 45.2556 56.6604C45.3467 56.9452 45.5029 57.2396 45.735 57.4889C45.9693 57.7334 46.2752 57.9376 46.631 58.0278C46.8089 58.0729 46.9955 58.0966 47.1864 58.08C47.3773 58.0705 47.5704 58.0278 47.7548 57.9494C48.1257 57.7999 48.462 57.5079 48.6898 57.1209C48.9067 56.7529 49.0044 56.3233 48.9957 55.9054C48.9957 55.4805 48.9979 55.0698 48.9979 54.6781L49.0499 54.735C47.9131 54.7232 46.9412 54.7137 46.234 54.7066C45.8956 54.6994 45.6222 54.6947 45.4161 54.6899C45.3293 54.6876 45.2556 54.6852 45.1948 54.6828C45.1471 54.6852 45.1189 54.6828 45.1167 54.6804ZM45.1167 54.6804C45.1124 54.6757 45.21 54.6709 45.3966 54.6662C45.5983 54.6615 45.8674 54.6567 46.2015 54.6496C46.9152 54.6425 47.9001 54.633 49.0521 54.6211H49.1042V54.6781C49.1042 55.0698 49.1063 55.4805 49.1063 55.9054C49.1193 56.3375 49.0152 56.8004 48.7852 57.1874C48.5444 57.5957 48.1865 57.9067 47.7938 58.061C47.5986 58.1441 47.3946 58.1868 47.1929 58.1963C46.9911 58.2106 46.7937 58.1868 46.6071 58.137C46.2318 58.0397 45.9108 57.8213 45.6699 57.5601C45.4291 57.2942 45.2708 56.9856 45.1796 56.6841C45.0864 56.3826 45.0777 56.093 45.0842 55.8437C45.0885 55.5992 45.0929 55.3855 45.095 55.2051C45.0994 55.0437 45.1037 54.9131 45.1059 54.8086C45.1124 54.7232 45.1146 54.6781 45.1167 54.6804Z" stroke="#263238" stroke-width="0.2" stroke-miterlimit="10"/>
<path d="M39.7996 54.5569C39.8018 54.5593 39.8061 54.6115 39.8083 54.7041C39.8104 54.8086 39.8148 54.9415 39.8191 55.1053C39.8235 55.281 39.8256 55.4899 39.83 55.7297C39.83 55.9694 39.843 56.2496 39.9384 56.5368C40.0296 56.8217 40.1858 57.1161 40.4179 57.3654C40.6522 57.6099 40.9581 57.814 41.3139 57.9043C41.4918 57.9494 41.6783 57.9731 41.8692 57.9565C42.0601 57.947 42.2532 57.9043 42.4376 57.8259C42.8086 57.6764 43.1449 57.3844 43.3727 56.9974C43.5896 56.6294 43.6872 56.1997 43.6785 55.7819C43.6785 55.3569 43.6807 54.9462 43.6807 54.5545L43.7328 54.6115C42.596 54.5996 41.6241 54.5901 40.9169 54.583C40.5784 54.5759 40.3051 54.5712 40.099 54.5664C40.0122 54.564 39.9384 54.5617 39.8777 54.5593C39.8278 54.5617 39.8018 54.5593 39.7996 54.5569C39.7953 54.5522 39.8929 54.5474 40.0795 54.5427C40.2812 54.5379 40.5502 54.5332 40.8843 54.526C41.5981 54.5189 42.583 54.5094 43.7349 54.4976H43.787V54.5545C43.787 54.9462 43.7892 55.3569 43.7892 55.7819C43.8022 56.214 43.6981 56.6769 43.4681 57.0639C43.2273 57.4722 42.8693 57.7832 42.4767 57.9375C42.2814 58.0206 42.0775 58.0633 41.8757 58.0728C41.674 58.0871 41.4766 58.0633 41.29 58.0135C40.9147 57.9161 40.5936 57.6977 40.3528 57.4366C40.112 57.1707 39.9536 56.8621 39.8625 56.5606C39.7692 56.2591 39.7605 55.9694 39.7671 55.7202C39.7714 55.4757 39.7757 55.262 39.7779 55.0816C39.7822 54.9201 39.7866 54.7896 39.7888 54.6851C39.7931 54.5996 39.7953 54.5545 39.7996 54.5569Z" fill="#263238"/>
<path d="M39.7996 54.5569C39.8018 54.5593 39.8061 54.6115 39.8083 54.7041C39.8104 54.8086 39.8148 54.9415 39.8191 55.1053C39.8235 55.281 39.8256 55.4899 39.83 55.7297C39.83 55.9694 39.843 56.2496 39.9384 56.5368C40.0296 56.8217 40.1858 57.1161 40.4179 57.3654C40.6522 57.6099 40.9581 57.814 41.3139 57.9043C41.4918 57.9494 41.6783 57.9731 41.8692 57.9565C42.0601 57.947 42.2532 57.9043 42.4376 57.8259C42.8086 57.6764 43.1449 57.3844 43.3727 56.9974C43.5896 56.6294 43.6872 56.1997 43.6785 55.7819C43.6785 55.3569 43.6807 54.9462 43.6807 54.5545L43.7328 54.6115C42.596 54.5996 41.6241 54.5901 40.9169 54.583C40.5784 54.5759 40.3051 54.5712 40.099 54.5664C40.0122 54.564 39.9384 54.5617 39.8777 54.5593C39.8278 54.5617 39.8018 54.5593 39.7996 54.5569ZM39.7996 54.5569C39.7953 54.5522 39.8929 54.5474 40.0795 54.5427C40.2812 54.5379 40.5502 54.5332 40.8843 54.526C41.5981 54.5189 42.583 54.5094 43.7349 54.4976H43.787V54.5545C43.787 54.9462 43.7892 55.3569 43.7892 55.7819C43.8022 56.214 43.6981 56.6769 43.4681 57.0639C43.2273 57.4722 42.8693 57.7832 42.4767 57.9375C42.2814 58.0206 42.0775 58.0633 41.8757 58.0728C41.674 58.0871 41.4766 58.0633 41.29 58.0135C40.9147 57.9161 40.5936 57.6977 40.3528 57.4366C40.112 57.1707 39.9536 56.8621 39.8625 56.5606C39.7692 56.2591 39.7605 55.9694 39.7671 55.7202C39.7714 55.4757 39.7757 55.262 39.7779 55.0816C39.7822 54.9201 39.7866 54.7896 39.7888 54.6851C39.7931 54.5996 39.7953 54.5545 39.7996 54.5569Z" stroke="#263238" stroke-width="0.2" stroke-miterlimit="10"/>
<path d="M45.1646 54.8537C45.1646 54.887 44.8284 54.9154 44.4162 54.9154C44.0018 54.9154 43.6677 54.887 43.6677 54.8537C43.6677 54.8205 44.004 54.792 44.4162 54.792C44.8305 54.792 45.1646 54.8205 45.1646 54.8537Z" fill="#263238" stroke="#263238" stroke-width="0.2" stroke-miterlimit="10"/>
<path d="M35.6516 54.8868C35.6516 54.8536 36.5801 54.8227 37.7256 54.8179C38.8711 54.8132 39.7996 54.8393 39.7996 54.8725C39.7996 54.9058 38.8711 54.9366 37.7256 54.9414C36.5801 54.9438 35.6516 54.92 35.6516 54.8868Z" fill="#263238" stroke="#263238" stroke-width="0.2" stroke-miterlimit="10"/>
<path d="M77.3328 57.8354L70.8744 55.2976L64.4789 57.8022C63.6632 58.2248 62.9473 58.4764 62.9473 59.3097V63.4547C62.9473 66.332 63.6372 69.1855 65.0538 71.702C66.247 73.8196 68.0932 76.0013 70.9373 77.3877C73.5515 76.4595 75.5018 73.981 76.695 71.8634C78.1116 69.3446 78.8015 66.4934 78.8015 63.6161V59.8889C78.8037 58.6996 78.2288 58.1203 77.3328 57.8354Z" fill="#92E3A9" stroke="#263238" stroke-width="0.5" stroke-miterlimit="10" stroke-linecap="round" stroke-linejoin="round"/>
<path d="M70.9373 74.9805C68.6876 73.8837 67.2254 72.1198 66.2817 70.4438C65.1601 68.452 64.6156 66.1967 64.6156 63.9176V61.0118C64.6156 60.3542 64.9779 59.737 65.7003 59.369L70.8766 57.2514L70.8744 55.2976L64.4789 57.8022C63.8085 58.1227 62.9473 58.4764 62.9473 59.3097V63.4547C62.9473 66.332 63.6372 69.1855 65.0538 71.702C66.247 73.8196 68.0932 76.0013 70.9373 77.3877V74.9805Z" fill="#92E3A9" stroke="#263238" stroke-width="0.5" stroke-miterlimit="10" stroke-linecap="round" stroke-linejoin="round"/>
<path d="M70.9372 77.3853C71.3906 77.2192 71.8071 77.0292 72.2063 76.7895C73.278 76.1509 74.1935 75.2725 74.8921 74.4772C75.6731 73.5893 76.2545 72.6278 76.7599 71.7305C78.1766 69.2116 78.8665 66.3605 78.8035 63.4048L78.8079 59.9839C78.8036 58.2794 78.0052 58.1535 77.3348 57.833L70.8743 55.2976L70.8764 57.2514L76.1134 59.4046C76.8337 59.7726 77.1982 60.3898 77.1982 61.0474V63.9532C77.1982 66.2299 76.6536 68.4852 75.532 70.4794C74.5883 72.1554 73.1891 73.8837 70.9393 74.9805V77.3853H70.9372Z" fill="#799093" stroke="#263238" stroke-width="0.5" stroke-miterlimit="10"/>
<path opacity="0.5" d="M72.5883 63.7347L72.5948 63.1745C72.5948 62.1631 71.842 61.3394 70.9178 61.3394C69.9937 61.3394 69.2409 62.1631 69.2409 63.1721L69.2344 63.7419C68.7809 63.8154 68.4338 64.2404 68.4338 64.7555V68.0554C68.4338 68.6228 68.8547 69.0834 69.371 69.0834H72.5015C73.02 69.0834 73.4409 68.6228 73.4409 68.0554V64.7555C73.4409 64.219 73.0656 63.7822 72.5883 63.7347ZM71.3669 67.234H70.549L70.677 66.5883C70.536 66.4909 70.4406 66.32 70.4406 66.1253C70.4406 65.8238 70.664 65.5793 70.9395 65.5793C71.215 65.5793 71.4385 65.8238 71.4385 66.1253C71.4385 66.3153 71.3517 66.4814 71.2172 66.5788C71.2736 66.8281 71.3669 67.234 71.3669 67.234ZM72.2282 63.73H69.5967L69.6032 63.1745C69.6032 62.3815 70.1933 61.7358 70.9178 61.7358C71.6424 61.7358 72.2325 62.3815 72.2325 63.1721L72.2282 63.73Z" fill="white"/>
<path d="M65.6634 63.6945C65.6482 63.6969 65.6048 63.4785 65.5658 63.12C65.5267 62.7616 65.4985 62.263 65.5137 61.7123C65.5202 61.4369 65.5376 61.1757 65.5593 60.9383C65.581 60.7009 65.62 60.4801 65.7046 60.314C65.7871 60.1478 65.902 60.0481 65.9866 60.003C66.0734 59.9579 66.1298 59.9602 66.1298 59.9674C66.1407 59.984 65.9107 60.0315 65.7762 60.3543C65.7089 60.5086 65.6786 60.7152 65.6634 60.9502C65.646 61.1852 65.633 61.444 65.6265 61.717C65.6113 62.263 65.6265 62.7568 65.646 63.1129C65.6634 63.469 65.6786 63.6922 65.6634 63.6945Z" fill="white"/>
<path d="M65.7566 65.4964C65.7262 65.4964 65.698 65.3279 65.6937 65.1166C65.6893 64.9053 65.711 64.7344 65.7436 64.7344C65.7739 64.7344 65.8021 64.9029 65.8065 65.1142C65.8108 65.3255 65.7891 65.4964 65.7566 65.4964Z" fill="white"/>
<path d="M58.9449 82.5869L51.7424 102.075H38.7583V102.953H77.4328L85.3447 82.5869H58.9449Z" fill="#263238"/>
<path d="M69.9504 94.0913C69.6901 95.0717 68.9286 95.6913 68.2539 95.4777C67.5771 95.2616 67.2408 94.2931 67.5012 93.3126C67.7615 92.3321 68.5208 91.7125 69.1976 91.9262C69.8745 92.1422 70.2129 93.1108 69.9504 94.0913Z" fill="#FAFAFA"/>
</g>
<defs>
<clipPath id="clip0_2712_1806">
<rect width="104.456" height="102.915" fill="white" transform="translate(0.801758 0.420166)"/>
</clipPath>
</defs>
</svg>
