<svg width="106" height="104" viewBox="0 0 106 104" fill="none" xmlns="http://www.w3.org/2000/svg">
<g clip-path="url(#clip0_2712_9)">
<path d="M99.7225 20.4171C99.3795 19.7781 99.017 19.1533 98.6393 18.5404C93.6074 10.3806 84.9481 4.80064 76.43 2.27787C72.7005 1.17327 68.8474 0.593655 64.9877 0.451126C39.672 -0.489566 29.5887 21.3435 21.2225 26.9782C12.8563 32.6128 -0.0164488 42.2359 0.843182 62.4251C1.70281 82.6144 15.001 101.63 40.7444 102.804C66.4877 103.977 68.2048 91.3015 82.5776 86.6052C92.09 83.498 98.8477 73.0032 102.158 63.3041C106.669 50.0869 106.456 32.9192 99.7225 20.4171Z" fill="#92E3A9"/>
<path opacity="0.7" d="M99.7225 20.4171C99.3795 19.7781 99.017 19.1533 98.6393 18.5404C93.6074 10.3806 84.9481 4.80064 76.43 2.27787C72.7005 1.17327 68.8474 0.593655 64.9877 0.451126C39.672 -0.489566 29.5887 21.3435 21.2225 26.9782C12.8563 32.6128 -0.0164488 42.2359 0.843182 62.4251C1.70281 82.6144 15.001 101.63 40.7444 102.804C66.4877 103.977 68.2048 91.3015 82.5776 86.6052C92.09 83.498 98.8477 73.0032 102.158 63.3041C106.669 50.0869 106.456 32.9192 99.7225 20.4171Z" fill="white"/>
<path d="M19.8329 100.354C22.8373 97.6653 23.2258 93.1424 22.8004 89.1444C22.7287 88.4769 22.7439 87.7667 22.4053 87.206C22.0666 86.6454 21.3503 86.3057 20.8163 86.6383C20.3734 86.9139 20.2171 87.5101 19.9957 88.0113C19.7005 88.6788 19.2294 89.2513 18.6542 89.6409C18.2764 89.8975 17.7989 90.0756 17.3908 89.8808C16.8329 89.61 16.7091 88.819 16.6635 88.1539C16.5789 86.9139 16.4921 85.6739 16.4074 84.4315C16.3618 83.7663 16.3119 83.087 16.0731 82.4717C15.8343 81.8565 15.3676 81.3101 14.7684 81.1842C14.1693 81.0607 13.4725 81.4906 13.3965 82.1534C13.3661 82.4289 13.4378 82.7069 13.4421 82.9824C13.4464 83.2604 13.3488 83.5763 13.1121 83.6761C12.8712 83.7758 12.6107 83.6096 12.4131 83.4314C11.7272 82.8161 11.2301 81.9895 10.7633 81.1652C10.2966 80.3409 9.83859 79.4952 9.2069 78.8158C8.5752 78.1341 7.73293 77.6257 6.84725 77.6518C5.96157 77.678 5.06504 78.3502 4.91091 79.3052C4.75678 80.2625 5.33638 81.1699 5.9442 81.8778C6.84725 82.9302 7.88923 83.84 9.02672 84.5669C9.23294 84.6975 9.45437 84.8401 9.54771 85.08C9.71486 85.5123 9.35885 85.9874 8.96377 86.1703C8.51659 86.377 8.01513 86.3699 7.53973 86.4744C7.06433 86.5789 6.56071 86.8545 6.41527 87.3604C6.21338 88.0636 6.79298 88.7287 7.34653 89.1492C8.45363 89.9901 9.69315 90.622 10.9956 91.0092C11.4623 91.147 11.9508 91.261 12.3415 91.5722C12.7323 91.8834 12.9971 92.4606 12.8126 92.95C12.6259 93.4393 12.0702 93.6412 11.5904 93.589C11.1085 93.5367 10.6635 93.2968 10.1968 93.1543C9.32412 92.8858 8.23655 93.0474 7.75247 93.8859C7.43553 94.437 7.45724 95.1639 7.68517 95.7673C7.91094 96.3707 8.31687 96.8695 8.74235 97.328C10.2272 98.9243 12.068 100.152 14.0868 100.711C16.1057 101.267 17.94 101.302 19.8329 100.354Z" fill="#92E3A9"/>
<path d="M20.0955 103.321C19.8416 101.746 19.3792 99.9007 18.678 97.9314C17.9812 95.9597 17.0499 93.8645 16.0058 91.7124C15.7431 91.1755 15.4848 90.6434 15.2286 90.1208C14.9725 89.5982 14.7185 89.0827 14.4406 88.5933C13.8893 87.6123 13.2901 86.7143 12.6975 85.8806C12.1049 85.0468 11.5122 84.2795 10.9544 83.5645C10.3943 82.8518 9.86245 82.1985 9.35232 81.6237C8.33639 80.4716 7.41815 79.6497 6.76691 79.1128C6.44129 78.842 6.18297 78.6425 6.00496 78.5094C5.91813 78.4453 5.85084 78.3954 5.80308 78.3598C5.7575 78.3265 5.73145 78.3123 5.73145 78.3123C5.73145 78.3123 5.75315 78.3336 5.79657 78.3693C5.84433 78.4073 5.90945 78.4595 5.99411 78.5284C6.16777 78.6662 6.42176 78.8729 6.7452 79.1461C7.38993 79.6924 8.29949 80.5191 9.30673 81.6736C9.81252 82.2484 10.34 82.9041 10.8957 83.6191C11.4515 84.3341 12.0397 85.1038 12.628 85.9376C13.2185 86.7714 13.8133 87.6669 14.3625 88.6456C14.6382 89.1326 14.89 89.6457 15.1461 90.1707C15.4023 90.6933 15.6606 91.2254 15.9233 91.7622C16.9653 93.9144 17.8965 96.0025 18.5977 97.9694C19.301 99.9339 19.7699 101.77 20.0304 103.338" fill="#E0E0E0"/>
<path d="M14.4168 88.5861C14.4233 88.5861 14.4342 88.4839 14.4515 88.2963C14.4689 88.1086 14.4863 87.8378 14.5036 87.5029C14.5384 86.833 14.5601 85.9042 14.5818 84.8827C14.6035 83.8589 14.6382 82.9348 14.6882 82.2673C14.712 81.9324 14.7337 81.6639 14.7511 81.4763C14.7685 81.2886 14.775 81.1865 14.7685 81.1841C14.762 81.1841 14.7446 81.2862 14.7164 81.4715C14.6882 81.6568 14.6556 81.9276 14.623 82.2602C14.5579 82.9277 14.5102 83.8565 14.4884 84.8803C14.4689 85.8947 14.4515 86.8116 14.4364 87.5005C14.4277 87.8212 14.419 88.0872 14.4125 88.2939C14.4103 88.4816 14.4125 88.5837 14.4168 88.5861Z" fill="#E0E0E0"/>
<path d="M6.37842 87.7001C6.37842 87.7025 6.40664 87.7049 6.46091 87.7073C6.52603 87.7073 6.60418 87.7073 6.69752 87.7073C6.90158 87.7073 7.19897 87.7049 7.56367 87.7168C8.29522 87.7334 9.30681 87.7975 10.4161 87.9211C11.5275 88.047 12.5283 88.2085 13.249 88.351C13.6093 88.4175 13.9002 88.4817 14.1021 88.5244C14.1932 88.5434 14.2714 88.5601 14.3343 88.5719C14.3886 88.5814 14.4168 88.5862 14.4168 88.5814C14.4168 88.5791 14.3908 88.5672 14.3387 88.5506C14.2757 88.5316 14.2019 88.5102 14.1108 88.4841C13.911 88.4294 13.6223 88.3534 13.262 88.2774C12.5435 88.1182 11.5405 87.9448 10.4248 87.8189C9.31115 87.6954 8.29739 87.6431 7.56367 87.6431C7.1968 87.6408 6.89941 87.6526 6.69535 87.6645C6.60201 87.6716 6.52386 87.6764 6.45874 87.6835C6.40664 87.693 6.37842 87.6978 6.37842 87.7001Z" fill="#E0E0E0"/>
<path d="M18.5782 97.7793C18.5804 97.7793 18.5956 97.7437 18.6216 97.6701C18.6498 97.5869 18.6867 97.48 18.7323 97.347C18.8278 97.0667 18.9559 96.6581 19.11 96.1497C19.4161 95.1354 19.8025 93.7196 20.2085 92.1494C20.6144 90.5816 20.9899 89.1635 21.2808 88.1444C21.4263 87.6455 21.5435 87.2346 21.6303 86.9376C21.6694 86.8046 21.6998 86.6953 21.7237 86.6098C21.7432 86.5338 21.7541 86.4934 21.7497 86.4934C21.7476 86.4934 21.7324 86.529 21.7063 86.6027C21.6781 86.6858 21.6412 86.7927 21.5956 86.9257C21.5001 87.2061 21.372 87.6146 21.2179 88.123C20.9096 89.1373 20.5254 90.5531 20.1195 92.1233C19.7135 93.6911 19.338 95.1093 19.0471 96.1284C18.9017 96.6272 18.7844 97.0382 18.6976 97.3351C18.6585 97.4681 18.6281 97.5774 18.6043 97.6629C18.5847 97.7389 18.576 97.7793 18.5782 97.7793Z" fill="#E0E0E0"/>
<path d="M7.78076 95.0665C7.78076 95.0689 7.81767 95.0807 7.8893 95.1021C7.97179 95.1235 8.07599 95.1496 8.20406 95.1829C8.48844 95.2541 8.88135 95.3515 9.36109 95.4727C10.3379 95.7174 11.6838 96.0761 13.1687 96.4728C14.6556 96.8718 16.0037 97.2187 16.9849 97.4467C17.4755 97.5607 17.8727 97.6486 18.1484 97.7056C18.2787 97.7318 18.3851 97.7531 18.4654 97.7674C18.5392 97.7817 18.5761 97.7864 18.5783 97.7817C18.5783 97.7793 18.5413 97.7674 18.4697 97.746C18.3894 97.7246 18.2852 97.6985 18.1549 97.6653C17.8706 97.594 17.4777 97.4966 16.9979 97.3754C16.0211 97.1308 14.6752 96.7721 13.1904 96.373C11.7055 95.9739 10.3553 95.6271 9.37412 95.4014C8.88352 95.2874 8.48627 95.1995 8.21058 95.1425C8.08033 95.1164 7.97396 95.0974 7.89364 95.0807C7.81984 95.0665 7.78076 95.0617 7.78076 95.0665Z" fill="#E0E0E0"/>
<path d="M48.3525 32.4738L32.658 37.6409L35.8406 49.2171L51.5352 44.0501L48.3525 32.4738Z" fill="white" stroke="black" stroke-width="0.5" stroke-miterlimit="10"/>
<path d="M51.5352 44.0483C51.5352 44.0483 51.5113 43.9747 51.4723 43.8369C51.431 43.6944 51.3746 43.4901 51.2986 43.2264C51.1466 42.6872 50.9274 41.9033 50.6474 40.8984C50.0895 38.8864 49.2863 36.0026 48.3094 32.4868L48.3659 32.5201C44.0352 33.9501 38.5821 35.7484 32.6754 37.6986H32.6733L32.7102 37.6226C33.8433 41.7488 34.92 45.6731 35.8882 49.2007L35.8231 49.1627C40.4425 47.6543 44.3629 46.3739 47.1307 45.4689C48.5157 45.0199 49.6119 44.6636 50.3673 44.4189C50.7429 44.2977 51.0316 44.2051 51.2313 44.141C51.3268 44.1101 51.4006 44.0887 51.4549 44.0697C51.5092 44.0554 51.5352 44.0483 51.5352 44.0483C51.5352 44.0483 51.5135 44.0578 51.4636 44.0744C51.4115 44.0935 51.3398 44.1172 51.2465 44.1481C51.049 44.2146 50.7646 44.3096 50.3977 44.4355C49.6466 44.6873 48.5569 45.0508 47.1806 45.5116C44.4085 46.4309 40.4816 47.7351 35.8556 49.2696L35.8057 49.2863L35.7905 49.2316C34.8202 45.704 33.7391 41.7821 32.6038 37.6559L32.5864 37.5965L32.6407 37.5775H32.6429C38.5539 35.6367 44.0069 33.8456 48.3398 32.4227L48.3832 32.4084L48.3963 32.456C49.3579 35.9907 50.1459 38.8911 50.6973 40.9127C50.9686 41.9151 51.1792 42.699 51.3247 43.2359C51.3941 43.4996 51.4484 43.7015 51.4853 43.8416C51.52 43.9818 51.5352 44.0483 51.5352 44.0483Z" fill="#E0E0E0"/>
<path d="M51.5352 44.0483C51.5352 44.0483 51.5113 43.9747 51.4723 43.8369C51.431 43.6944 51.3746 43.4901 51.2986 43.2264C51.1466 42.6872 50.9274 41.9033 50.6474 40.8984C50.0895 38.8864 49.2863 36.0026 48.3094 32.4868L48.3659 32.5201C44.0352 33.9501 38.5821 35.7484 32.6754 37.6986H32.6733L32.7102 37.6226C33.8433 41.7488 34.92 45.6731 35.8882 49.2007L35.8231 49.1627C40.4425 47.6543 44.3629 46.3739 47.1307 45.4689C48.5157 45.0199 49.6119 44.6636 50.3673 44.4189C50.7429 44.2977 51.0316 44.2051 51.2313 44.141C51.3268 44.1101 51.4006 44.0887 51.4549 44.0697C51.5092 44.0554 51.5352 44.0483 51.5352 44.0483ZM51.5352 44.0483C51.5352 44.0483 51.5135 44.0578 51.4636 44.0744C51.4115 44.0935 51.3398 44.1172 51.2465 44.1481C51.049 44.2146 50.7646 44.3096 50.3977 44.4355C49.6466 44.6873 48.5569 45.0508 47.1806 45.5116C44.4085 46.4309 40.4816 47.7351 35.8556 49.2696L35.8057 49.2863L35.7905 49.2316C34.8202 45.704 33.7391 41.7821 32.6038 37.6559L32.5864 37.5965L32.6407 37.5775H32.6429C38.5539 35.6367 44.0069 33.8456 48.3398 32.4227L48.3832 32.4084L48.3963 32.456C49.3579 35.9907 50.1459 38.8911 50.6973 40.9127C50.9686 41.9151 51.1792 42.699 51.3247 43.2359C51.3941 43.4996 51.4484 43.7015 51.4853 43.8416C51.52 43.9818 51.5352 44.0483 51.5352 44.0483Z" stroke="black" stroke-width="0.5" stroke-miterlimit="10"/>
<path d="M48.3527 32.4727C48.3549 32.4727 48.3462 32.4917 48.331 32.5249C48.3115 32.5653 48.2876 32.6128 48.2572 32.6722C48.1856 32.81 48.0879 32.9953 47.9642 33.2328C47.7015 33.7269 47.3281 34.4277 46.8701 35.2924C45.9301 37.036 44.6342 39.4399 43.1928 42.1195L43.1689 42.1646L43.1233 42.1456C42.9714 42.0815 42.8064 42.0126 42.6436 41.9413C39.8867 40.7655 37.3903 39.6989 35.5755 38.9245C34.679 38.5349 33.9517 38.219 33.4373 37.9957C33.192 37.8864 32.9988 37.8009 32.8577 37.7367C32.7969 37.7082 32.747 37.6845 32.7079 37.6678C32.6753 37.6512 32.658 37.6417 32.658 37.6393C32.658 37.637 32.6775 37.6417 32.7122 37.656C32.7535 37.6726 32.8034 37.6916 32.8664 37.7154C33.0096 37.7724 33.205 37.8508 33.4525 37.9529C33.9691 38.1667 34.7007 38.4708 35.6037 38.8437C37.4228 39.611 39.9236 40.6633 42.6848 41.8273C42.8498 41.8962 43.0126 41.9675 43.1646 42.0316L43.0951 42.0577C44.5495 39.3877 45.8563 36.9908 46.8028 35.252C47.276 34.3968 47.6581 33.7008 47.9273 33.2114C48.0575 32.9786 48.1617 32.7957 48.2377 32.6627C48.2703 32.6057 48.2985 32.5582 48.3202 32.5225C48.3419 32.4869 48.3506 32.4727 48.3527 32.4727Z" fill="#E0E0E0" stroke="black" stroke-width="0.5" stroke-miterlimit="10"/>
<path d="M94.0154 78.7113C94.0154 78.7113 92.9995 77.6091 91.0132 80.3623C89.0269 83.1155 88.1651 84.7665 88.1651 84.7665C88.1651 84.7665 87.6702 85.3271 87.3446 84.8187C87.0168 84.3104 86.6825 82.9991 85.9575 83.0656C85.2064 83.1321 84.8135 83.9493 84.7179 85.2558C84.6203 86.5599 84.3142 89.4105 84.2838 89.6694C84.2556 89.9212 84.058 90.2609 83.7845 89.9545C83.511 89.6481 82.0935 87.0303 80.9994 87.8403C79.9053 88.6504 80.181 92.3347 80.2049 92.7386C80.2288 93.1424 80.1289 93.2897 79.9465 93.3491C79.762 93.4085 79.3626 92.4796 78.9306 91.7528C78.5008 91.0259 77.8843 90.2681 77.2873 90.7931C76.6925 91.318 76.0608 93.9002 77.563 98.644L78.3901 100.791L80.5088 101.122C85.0826 101.525 87.2078 100.212 87.5248 99.4493C87.8395 98.6868 87.0146 98.2236 86.2635 97.9504C85.5124 97.6748 84.592 97.4848 84.5985 97.2734C84.6051 97.062 84.7114 96.9218 85.0739 96.8458C85.4365 96.7698 88.7665 96.1403 89.2093 94.7791C89.6521 93.418 86.9821 92.5699 86.6434 92.3585C86.3026 92.1447 86.5544 91.8525 86.7715 91.7599C86.9929 91.6649 89.4372 90.6244 90.5682 90.1968C91.6992 89.7668 92.3244 89.1468 92.1941 88.3344C92.0704 87.5505 90.8265 87.5244 90.2947 87.3035C89.7628 87.0849 90.1362 86.4198 90.1362 86.4198C90.1362 86.4198 91.3801 85.0919 93.3208 82.2983C95.2614 79.5048 93.9959 78.69 93.9959 78.69" fill="#92E3A9"/>
<path d="M92.2331 81.1748C92.2353 81.1772 92.2223 81.1962 92.1984 81.2342C92.1702 81.277 92.1333 81.334 92.0877 81.4028C91.9835 81.5573 91.838 81.7734 91.6535 82.0466C91.2758 82.6048 90.7201 83.4078 90.0298 84.396C88.6513 86.3724 86.7237 89.0852 84.5811 92.0688C82.445 95.0548 80.5109 97.7557 79.1064 99.7202C78.4139 100.697 77.8495 101.49 77.4544 102.046C77.2612 102.314 77.1114 102.526 77.0029 102.675C76.953 102.742 76.9139 102.796 76.8835 102.837C76.8553 102.872 76.8422 102.891 76.8401 102.889C76.8379 102.887 76.8509 102.868 76.8748 102.83C76.903 102.787 76.9399 102.73 76.9855 102.661C77.0897 102.507 77.2352 102.29 77.4197 102.017C77.7974 101.459 78.3531 100.656 79.0413 99.6679C80.4197 97.6915 82.3474 94.9787 84.4899 91.9951C86.626 89.0115 88.558 86.3082 89.9625 84.3461C90.655 83.3697 91.2194 82.5763 91.6144 82.0205C91.8076 81.752 91.9574 81.5406 92.066 81.391C92.1159 81.3245 92.155 81.2698 92.1854 81.2294C92.2158 81.1914 92.231 81.1748 92.2331 81.1748Z" fill="#E0E0E0"/>
<path d="M86.357 84.9209C86.3722 84.9185 86.4047 85.1561 86.4373 85.5433C86.4699 85.9305 86.4981 86.465 86.5176 87.0541C86.5306 87.6218 86.5437 88.1349 86.5545 88.5649C86.5632 88.9521 86.5697 89.1897 86.5545 89.192C86.5393 89.1944 86.5046 88.9569 86.4742 88.5697C86.446 88.1825 86.4221 87.648 86.4026 87.0589C86.3852 86.4911 86.3678 85.978 86.3548 85.548C86.3461 85.1632 86.3418 84.9233 86.357 84.9209Z" fill="#E0E0E0"/>
<path d="M86.7412 89.2751C86.739 89.2419 87.7419 89.1207 88.9815 89.0091C90.2232 88.895 91.2304 88.8309 91.2326 88.8665C91.2347 88.8998 90.2318 89.021 88.9901 89.1326C87.7506 89.2442 86.7434 89.3084 86.7412 89.2751Z" fill="#E0E0E0"/>
<path d="M83.1377 93.8573C83.1421 93.8407 83.3613 93.8835 83.7151 93.9595C84.069 94.0331 84.5596 94.1353 85.1023 94.2303C85.645 94.3253 86.1377 94.3966 86.4959 94.4488C86.8541 94.4987 87.0755 94.532 87.0733 94.551C87.0712 94.5676 86.8476 94.5652 86.4872 94.5367C86.1269 94.5082 85.6276 94.4512 85.0827 94.3538C84.5379 94.2588 84.0473 94.1424 83.6978 94.0474C83.3483 93.9476 83.1355 93.8716 83.1377 93.8573Z" fill="#E0E0E0"/>
<path d="M82.0002 90.002C82.0154 89.9973 82.0935 90.2063 82.2107 90.5484C82.328 90.8905 82.4799 91.3656 82.6427 91.8953C82.8055 92.4227 82.9466 92.9025 83.0443 93.2541C83.142 93.6033 83.1941 93.8218 83.1789 93.8289C83.1637 93.8337 83.0856 93.6247 82.9683 93.2826C82.8511 92.9405 82.6992 92.4654 82.5363 91.9357C82.3735 91.4083 82.2324 90.9285 82.1348 90.5769C82.0371 90.2253 81.985 90.0068 82.0002 90.002Z" fill="#E0E0E0"/>
<path d="M78.3511 93.6055C78.3663 93.6008 78.4661 93.8692 78.6159 94.3063C78.7657 94.7458 78.9654 95.3539 79.1803 96.0261C79.3952 96.7008 79.5819 97.3137 79.7143 97.7602C79.8446 98.2068 79.9184 98.4848 79.9032 98.4895C79.888 98.4943 79.7882 98.2259 79.6384 97.7888C79.4886 97.3493 79.2889 96.7412 79.074 96.0665C78.8591 95.3919 78.6724 94.779 78.5399 94.3324C78.4097 93.8882 78.3359 93.6103 78.3511 93.6055Z" fill="#E0E0E0"/>
<path d="M79.8965 98.3613C79.8987 98.3447 80.1809 98.3898 80.6324 98.4682C81.0839 98.5443 81.7091 98.6512 82.4016 98.7509C83.0941 98.8507 83.7214 98.9291 84.1773 98.9813C84.6332 99.036 84.9132 99.0716 84.9132 99.0882C84.9132 99.1049 84.6288 99.1001 84.1708 99.0692C83.7127 99.0384 83.081 98.9742 82.3864 98.8744C81.6917 98.7747 81.0687 98.6535 80.6194 98.5538C80.1678 98.454 79.8943 98.378 79.8965 98.3613Z" fill="#E0E0E0"/>
<path d="M57.9278 45.5524L54.0784 56.1331L66.1716 61.4017L70.021 50.821L57.9278 45.5524Z" fill="#92E3A9" stroke="#263238" stroke-miterlimit="10" stroke-linecap="round" stroke-linejoin="round"/>
<path d="M70.0193 50.8231C70.0193 50.8231 69.9998 50.816 69.9607 50.7993C69.9216 50.7827 69.8652 50.759 69.7914 50.7257C69.6416 50.6616 69.4224 50.5665 69.1358 50.443C68.5627 50.1936 67.7226 49.8301 66.659 49.3693C64.5338 48.4452 61.512 47.134 57.9194 45.5733L57.9454 45.5614C56.8014 48.7113 55.4881 52.3197 54.0988 56.1418L54.0858 56.1109C58.5619 58.0636 62.7233 59.8761 66.177 61.3845L66.1532 61.3964C67.3167 58.2109 68.2805 55.5693 68.9556 53.7236C69.2943 52.7995 69.5591 52.0774 69.7393 51.5833C69.8305 51.3362 69.8999 51.1485 69.9455 51.0203C69.9933 50.8896 70.0193 50.8231 70.0193 50.8231C70.0193 50.8231 69.9976 50.8872 69.952 51.0155C69.9064 51.1438 69.8392 51.3314 69.7501 51.5785C69.5721 52.0726 69.3095 52.7971 68.9773 53.7188C68.3066 55.5693 67.3471 58.218 66.1879 61.4106L66.1814 61.4296L66.164 61.4225C62.7081 59.9188 58.5467 58.1063 54.0706 56.1584L54.051 56.1489L54.0597 56.1275C55.4512 52.3078 56.7645 48.6994 57.9107 45.5495L57.9172 45.5305L57.9346 45.5376C61.5294 47.1078 64.5533 48.431 66.6785 49.3598C67.7378 49.8254 68.5758 50.1912 69.1467 50.4406C69.431 50.5665 69.6503 50.6616 69.7979 50.7281C69.8717 50.7613 69.926 50.7851 69.9651 50.8017C70.002 50.8136 70.0193 50.8231 70.0193 50.8231Z" fill="#92E3A9"/>
<path d="M70.0193 50.8231C70.0193 50.8231 69.9998 50.816 69.9607 50.7993C69.9216 50.7827 69.8652 50.759 69.7914 50.7257C69.6416 50.6616 69.4224 50.5665 69.1358 50.443C68.5627 50.1936 67.7226 49.8301 66.659 49.3693C64.5338 48.4452 61.512 47.134 57.9194 45.5733L57.9454 45.5614C56.8014 48.7113 55.4881 52.3197 54.0988 56.1418L54.0858 56.1109C58.5619 58.0636 62.7233 59.8761 66.177 61.3845L66.1532 61.3964C67.3167 58.2109 68.2805 55.5693 68.9556 53.7236C69.2943 52.7995 69.5591 52.0774 69.7393 51.5833C69.8305 51.3362 69.8999 51.1485 69.9455 51.0203C69.9933 50.8896 70.0193 50.8231 70.0193 50.8231ZM70.0193 50.8231C70.0193 50.8231 69.9976 50.8872 69.952 51.0155C69.9064 51.1438 69.8392 51.3314 69.7501 51.5785C69.5721 52.0726 69.3095 52.7971 68.9773 53.7188C68.3066 55.5693 67.3471 58.218 66.1879 61.4106L66.1814 61.4296L66.164 61.4225C62.7081 59.9188 58.5467 58.1063 54.0706 56.1584L54.051 56.1489L54.0597 56.1275C55.4512 52.3078 56.7645 48.6994 57.9107 45.5495L57.9172 45.5305L57.9346 45.5376C61.5294 47.1078 64.5533 48.431 66.6785 49.3598C67.7378 49.8254 68.5758 50.1912 69.1467 50.4406C69.431 50.5665 69.6503 50.6616 69.7979 50.7281C69.8717 50.7613 69.926 50.7851 69.9651 50.8017C70.002 50.8136 70.0193 50.8231 70.0193 50.8231Z" stroke="#263238" stroke-miterlimit="10" stroke-linecap="round" stroke-linejoin="round"/>
<path d="M58.0947 46.4091L54.7302 55.6567L65.9743 60.5554L69.3388 51.3079L58.0947 46.4091Z" fill="#92E3A9" stroke="#263238" stroke-miterlimit="10" stroke-linecap="round" stroke-linejoin="round"/>
<path d="M54.7739 55.688L60.7935 51.6497L61.918 56.3056L64.2668 55.1036L66.0186 60.5862L54.7739 55.688Z" fill="white" stroke="#263238" stroke-miterlimit="10" stroke-linecap="round" stroke-linejoin="round"/>
<path d="M64.5142 52.455C64.3188 52.9895 63.7652 53.2508 63.2768 53.037C62.7884 52.8232 62.5496 52.2175 62.745 51.683C62.9403 51.1485 63.4939 50.8872 63.9823 51.101C64.4707 51.3148 64.7095 51.9205 64.5142 52.455Z" fill="white" stroke="#263238" stroke-miterlimit="10" stroke-linecap="round" stroke-linejoin="round"/>
<path d="M26.3931 62.5366C26.3953 62.5271 26.4778 62.5984 26.6515 62.5842C26.7361 62.5723 26.8425 62.5319 26.9293 62.4321C27.0118 62.3347 27.0726 62.178 27.1594 62.0235C27.4959 61.3822 27.9756 60.4652 28.5683 59.3345C28.7181 59.0518 28.8743 58.7549 29.0372 58.4437C29.1196 58.2893 29.2021 58.1301 29.2868 57.971C29.328 57.8902 29.378 57.8094 29.4018 57.731C29.4257 57.6503 29.4279 57.5624 29.4084 57.4769C29.3888 57.3937 29.3454 57.3177 29.2846 57.2607C29.226 57.2084 29.137 57.1633 29.061 57.1158C28.9026 57.0184 28.7419 56.921 28.5791 56.8212C28.2513 56.6217 27.917 56.415 27.5719 56.2036C26.1934 55.3556 24.6782 54.4268 23.087 53.4504C22.9112 53.3388 22.6702 53.4124 22.5595 53.5953C22.4467 53.8068 22.3338 54.0158 22.2231 54.2248C21.9995 54.6453 21.7802 55.0586 21.5631 55.4648C21.129 56.2773 20.7122 57.0612 20.3128 57.8094C20.2628 57.9021 20.2129 57.9947 20.1652 58.0874C20.1152 58.1729 20.0935 58.2632 20.0957 58.3582C20.1 58.4508 20.1304 58.5435 20.1847 58.6124C20.2346 58.686 20.3149 58.724 20.3996 58.7786C20.7252 58.9806 21.0422 59.1753 21.3482 59.3654C21.9582 59.7455 22.5291 60.097 23.0501 60.4201C24.0834 61.0662 24.9213 61.5888 25.5096 61.957C25.794 62.1376 26.0176 62.2801 26.1761 62.3799C26.2477 62.4274 26.3041 62.463 26.3476 62.4915C26.3736 62.52 26.3931 62.5343 26.3931 62.5366C26.3931 62.539 26.3714 62.5271 26.3302 62.5058C26.2846 62.4796 26.226 62.4464 26.1522 62.4036C25.9915 62.3086 25.7636 62.1732 25.4749 61.9998C24.8823 61.6411 24.0378 61.128 22.998 60.4985C22.4749 60.1802 21.904 59.831 21.2896 59.4557C20.9835 59.268 20.6644 59.0732 20.3388 58.8737C20.2628 58.8238 20.163 58.7786 20.0957 58.6836C20.0262 58.5957 19.9871 58.4793 19.9828 58.3629C19.9785 58.2465 20.011 58.1254 20.0653 58.0304C20.1152 57.9377 20.163 57.8451 20.2129 57.7524C20.6102 57.0042 21.0248 56.2179 21.4568 55.4031C21.6717 54.9969 21.8931 54.5812 22.1145 54.1607C22.2274 53.9493 22.3403 53.7379 22.4553 53.5217C22.5943 53.2889 22.9025 53.1939 23.1304 53.3388C24.7195 54.3175 26.2325 55.251 27.611 56.1015C27.9539 56.3153 28.2904 56.5219 28.616 56.7238C28.7788 56.8236 28.9395 56.9234 29.0979 57.0208C29.1761 57.073 29.2542 57.1087 29.3367 57.1799C29.4127 57.2512 29.467 57.3462 29.4909 57.4484C29.5147 57.5505 29.5104 57.6598 29.4822 57.7596C29.4496 57.8617 29.3975 57.9353 29.3584 58.0161C29.2738 58.1753 29.1891 58.3344 29.1066 58.4865C28.9416 58.7953 28.7832 59.0898 28.6312 59.3725C28.0277 60.4937 27.5371 61.4035 27.192 62.0426C27.1008 62.197 27.0422 62.3466 26.9489 62.4535C26.8533 62.5557 26.7383 62.596 26.6493 62.6032C26.5581 62.6103 26.4908 62.5889 26.4496 62.5675C26.4105 62.5557 26.3931 62.5366 26.3931 62.5366Z" fill="#E0E0E0"/>
<path d="M25.2448 57.6668L25.7918 58.731L24.663 58.7524L23.5342 58.7762L24.116 57.6906L24.6977 56.605L25.2448 57.6668Z" fill="#E0E0E0"/>
<path d="M29.0741 87.8665L22.5183 80.6617L25.8136 74.0388C29.1088 69.4233 36.0857 69.7202 36.0857 69.7202C36.0857 69.7202 40.8332 69.219 46.3731 70.3996C51.9151 71.5802 51.4679 75.5924 51.4679 75.5924L52.2103 90.4558L53.007 102.559L32.569 103.01L29.0741 87.8665Z" fill="#C8DCEC"/>
<path d="M40.0844 102.314L21.7781 102.559C17.3801 102.618 14.4452 97.6132 16.3273 93.2613L24.1551 77.3765L31.284 82.65L26.4214 93.6937L41.2414 93.9835L40.0844 102.314Z" fill="#C8DCEC"/>
<path d="M50.8167 73.179L65.5064 97.998L56.9361 98.6109C56.9361 98.6109 51.8174 89.786 51.9346 89.9689C52.143 90.2991 50.8167 73.179 50.8167 73.179Z" fill="#C8DCEC"/>
<path d="M30.917 84.0777C30.9127 84.0777 30.9214 84.0326 30.9366 83.9494C30.9583 83.8544 30.9822 83.7356 31.0147 83.5907C31.082 83.2795 31.1819 82.8282 31.2839 82.2652C31.3859 81.7046 31.4966 81.0323 31.5704 80.2793C31.6399 79.5287 31.6833 78.6925 31.5791 77.8326C31.4619 76.975 31.1667 76.1959 30.8215 75.5473C30.4742 74.8965 30.0856 74.362 29.7318 73.9415C29.3779 73.5211 29.0653 73.2075 28.8418 73.0008C28.6203 72.7918 28.4923 72.6825 28.4988 72.673C28.5009 72.6706 28.5357 72.6944 28.5986 72.7419C28.6616 72.7918 28.7571 72.8607 28.87 72.9628C29.1023 73.16 29.4257 73.4664 29.7904 73.8821C30.1551 74.2978 30.5567 74.8323 30.9127 75.4903C31.2687 76.146 31.5726 76.937 31.692 77.8159C31.7984 78.6949 31.7506 79.5382 31.6768 80.2936C31.5965 81.049 31.4771 81.7236 31.3642 82.2842C31.2513 82.8448 31.1406 83.2938 31.0581 83.6026C31.0169 83.757 30.9843 83.8758 30.9604 83.9566C30.9344 84.0373 30.9192 84.0777 30.917 84.0777Z" fill="#263238"/>
<path d="M30.3266 84.9329C30.3331 84.9353 30.2875 85.0635 30.2007 85.2916C30.1139 85.5196 29.9815 85.8475 29.8165 86.2489C29.4843 87.0542 29.0133 88.1612 28.4706 89.3727C27.9279 90.5842 27.4156 91.6698 27.0357 92.4489C26.8468 92.8385 26.6905 93.1521 26.5777 93.3682C26.467 93.5844 26.4018 93.7008 26.3953 93.6961C26.3888 93.6913 26.4409 93.5678 26.5386 93.3445C26.6471 93.1046 26.7904 92.7886 26.9641 92.4062C27.3309 91.5961 27.8237 90.5129 28.3686 89.3133C28.9026 88.1089 29.3845 87.0209 29.7448 86.2062C29.9142 85.8237 30.0553 85.5054 30.1616 85.2655C30.2615 85.0517 30.3201 84.9305 30.3266 84.9329Z" fill="#263238"/>
<path d="M40.0844 102.314C40.0822 102.314 40.0822 102.3 40.0844 102.272C40.0865 102.238 40.0887 102.198 40.0931 102.15C40.1039 102.036 40.1191 101.877 40.1365 101.678C40.1799 101.255 40.2385 100.654 40.3166 99.896C40.4795 98.3615 40.7074 96.1974 40.9766 93.6485L41.0287 93.7126C39.381 93.715 37.5489 93.715 35.6212 93.7174C31.9287 93.7103 28.5879 93.7031 26.1609 93.6984C24.9562 93.6913 23.9793 93.6841 23.2933 93.6794C22.9612 93.6746 22.7007 93.6699 22.514 93.6675C22.4294 93.6651 22.3621 93.6628 22.3121 93.6604C22.2666 93.658 22.2427 93.6556 22.2427 93.6533C22.2427 93.6509 22.2666 93.6485 22.3121 93.6461C22.3642 93.6438 22.4315 93.6414 22.514 93.639C22.7007 93.6366 22.9612 93.6319 23.2933 93.6271C23.9771 93.6224 24.9562 93.6152 26.1609 93.6081C28.5879 93.6034 31.9287 93.5962 35.6212 93.5891C37.5489 93.5915 39.381 93.5939 41.0287 93.5939H41.0873L41.0808 93.658C40.7942 96.2045 40.5533 98.3662 40.3818 99.9008C40.2928 100.656 40.2233 101.257 40.1734 101.68C40.1473 101.88 40.1278 102.036 40.1148 102.15C40.1082 102.2 40.1017 102.238 40.0974 102.272C40.0887 102.3 40.0865 102.314 40.0844 102.314Z" fill="#263238"/>
<path d="M26.5496 93.8669C26.5344 93.8764 26.4085 93.6745 26.1849 93.3657C25.9613 93.0592 25.627 92.653 25.2081 92.2658C24.7891 91.8786 24.368 91.5864 24.0532 91.3964C23.7385 91.204 23.5344 91.1042 23.5409 91.0852C23.5453 91.071 23.7623 91.1446 24.0901 91.318C24.4179 91.4914 24.8542 91.7765 25.2797 92.1708C25.7052 92.5651 26.0373 92.988 26.2479 93.3111C26.4606 93.6365 26.5605 93.8574 26.5496 93.8669Z" fill="#263238"/>
<path d="M52.5164 95.4372C52.512 95.4372 52.5033 95.3659 52.4882 95.2329C52.473 95.088 52.4534 94.8908 52.4274 94.6414C52.3774 94.1283 52.3101 93.3847 52.2385 92.4631C52.0909 90.6221 51.9194 88.0779 51.7653 85.263C51.6133 82.448 51.507 79.8991 51.4462 78.0534C51.4158 77.1293 51.3941 76.3834 51.3854 75.8679C51.3811 75.6185 51.3789 75.419 51.3767 75.274C51.3767 75.1386 51.3767 75.0674 51.3811 75.0674C51.3854 75.0674 51.3919 75.1386 51.3984 75.274C51.4049 75.4213 51.4158 75.6185 51.4288 75.8679C51.4527 76.3953 51.4852 77.1388 51.5265 78.0534C51.609 79.8991 51.7262 82.4456 51.8782 85.2606C52.0301 88.0732 52.1886 90.6197 52.3167 92.4607C52.3818 93.3729 52.4339 94.114 52.4708 94.6414C52.4882 94.8908 52.5012 95.088 52.5099 95.2352C52.5185 95.3659 52.5207 95.4372 52.5164 95.4372Z" fill="#263238"/>
<path d="M36.1769 81.9325C36.1704 81.9325 36.1791 81.8184 36.2008 81.607C36.2268 81.3814 36.2594 81.0797 36.3007 80.7091C36.3962 79.9252 36.5264 78.8515 36.6784 77.6067L36.763 77.6637C36.3245 77.9987 35.8513 78.3621 35.3585 78.7398C34.8571 79.1223 34.3752 79.4881 33.9302 79.8278L33.8281 79.9062L33.8477 79.7708C34.0192 78.5379 34.1689 77.4737 34.2775 76.6969C34.3317 76.3311 34.3773 76.0341 34.4121 75.8108C34.4446 75.6042 34.4663 75.4925 34.4728 75.4949C34.4794 75.4949 34.4707 75.6089 34.449 75.818C34.4229 76.0436 34.3882 76.343 34.3469 76.7088C34.2493 77.4879 34.1125 78.5545 33.9562 79.7898L33.8715 79.7328C34.3144 79.3931 34.7963 79.0249 35.2977 78.64C35.7905 78.2647 36.2659 77.9013 36.7044 77.5687L36.8064 77.4903L36.7891 77.6257C36.6219 78.8657 36.4787 79.9394 36.3723 80.721C36.318 81.0892 36.2746 81.3885 36.242 81.6142C36.203 81.8208 36.1813 81.9348 36.1769 81.9325Z" fill="black"/>
<path d="M44.3457 82.8969C44.3414 82.9017 44.2654 82.8209 44.133 82.6689C43.9897 82.5026 43.7987 82.2817 43.5642 82.0109C43.0736 81.4289 42.4029 80.6331 41.6257 79.7114L41.7191 79.6758C41.6756 80.2578 41.6279 80.8897 41.578 81.5453C41.5259 82.2104 41.4759 82.8518 41.4282 83.4433L41.4173 83.5811L41.3348 83.4789C40.5794 82.5454 39.926 81.7401 39.4484 81.151C39.227 80.8706 39.0468 80.6426 38.9101 80.4716C38.7863 80.3124 38.7212 80.2221 38.7255 80.2174C38.7299 80.2126 38.8037 80.2934 38.9361 80.4431C39.0772 80.6093 39.2661 80.8279 39.4962 81.0987C39.9803 81.6783 40.6445 82.4741 41.413 83.3958L41.3196 83.429C41.3652 82.8375 41.413 82.1962 41.4629 81.531C41.515 80.8754 41.5649 80.2435 41.6105 79.6615L41.6214 79.5261L41.7039 79.6283C42.4702 80.5618 43.1301 81.3695 43.6142 81.9586C43.8399 82.2389 44.0223 82.467 44.159 82.6404C44.2849 82.8019 44.3501 82.8922 44.3457 82.8969Z" fill="black"/>
<path d="M48.4571 82.5788C48.4615 82.5835 48.4094 82.6809 48.3095 82.8615C48.1988 83.0539 48.0512 83.3128 47.871 83.6288C47.4803 84.2939 46.9441 85.2061 46.3233 86.2608L46.269 86.1705C46.7943 86.0708 47.3652 85.9639 47.9579 85.8522C48.5592 85.7406 49.1409 85.6337 49.675 85.5339L49.7987 85.5101L49.7292 85.6242C49.0932 86.6599 48.544 87.5531 48.1446 88.2063C47.9514 88.5104 47.7951 88.7598 47.6778 88.9451C47.5671 89.1161 47.5063 89.2064 47.4998 89.204C47.4955 89.1993 47.5476 89.1019 47.6474 88.9237C47.7582 88.7313 47.9058 88.4771 48.0881 88.1659C48.481 87.5079 49.0172 86.6052 49.6402 85.56L49.6945 85.6503C49.1605 85.7501 48.5809 85.8593 47.9796 85.9734C47.3869 86.0826 46.816 86.1895 46.2885 86.2869L46.1648 86.3107L46.2343 86.1967C46.8681 85.1514 47.4173 84.2488 47.8168 83.5907C48.0078 83.2819 48.1641 83.0325 48.2835 82.8425C48.3898 82.6667 48.4528 82.574 48.4571 82.5788Z" fill="black"/>
<path d="M42.9889 87.1823C42.9932 87.1871 42.9411 87.2844 42.8413 87.465C42.7306 87.6574 42.5829 87.9163 42.4028 88.2323C42.012 88.8974 41.4758 89.8096 40.855 90.8643L40.8007 90.774C41.3261 90.6743 41.897 90.5674 42.4896 90.4557C43.0909 90.3441 43.6727 90.2372 44.2067 90.1374L44.3304 90.1136L44.261 90.2277C43.6249 91.2634 43.0757 92.1566 42.6763 92.8098C42.4831 93.1139 42.3268 93.3633 42.2096 93.5486C42.0989 93.7196 42.0381 93.8099 42.0316 93.8075C42.0272 93.8028 42.0793 93.7054 42.1792 93.5272C42.2899 93.3348 42.4375 93.0806 42.6198 92.7694C43.0128 92.1114 43.5489 91.2088 44.172 90.1635L44.2262 90.2538C43.6922 90.3536 43.1126 90.4628 42.5113 90.5769C41.9187 90.6861 41.3478 90.793 40.8203 90.8904L40.6965 90.9142L40.766 90.8002C41.3999 89.755 41.9491 88.8523 42.3485 88.1943C42.5395 87.8854 42.6958 87.636 42.8152 87.446C42.9216 87.2702 42.9845 87.1776 42.9889 87.1823Z" fill="black"/>
<path d="M54.8046 82.5123C54.8089 82.517 54.7568 82.6144 54.6569 82.7949C54.5462 82.9873 54.3986 83.2463 54.2184 83.5622C53.8277 84.2274 53.2915 85.1395 52.6707 86.1943L52.6164 86.104C53.1417 86.0042 53.7127 85.8973 54.3053 85.7857C54.9066 85.674 55.4884 85.5671 56.0224 85.4674L56.1461 85.4436L56.0766 85.5576C55.4406 86.5933 54.8914 87.4865 54.492 88.1398C54.2988 88.4438 54.1425 88.6933 54.0252 88.8786C53.9145 89.0496 53.8538 89.1399 53.8472 89.1375C53.8429 89.1327 53.895 89.0353 53.9949 88.8572C54.1056 88.6648 54.2532 88.4106 54.4355 88.0994C54.8284 87.4414 55.3646 86.5387 55.9876 85.4935L56.0419 85.5838C55.5079 85.6835 54.9283 85.7928 54.327 85.9068C53.7344 86.0161 53.1634 86.123 52.6359 86.2204L52.5122 86.2441L52.5817 86.1301C53.2155 85.0849 53.7648 84.1822 54.1642 83.5242C54.3552 83.2154 54.5115 82.966 54.6309 82.7759C54.7373 82.6025 54.798 82.5099 54.8046 82.5123Z" fill="black"/>
<path d="M27.1378 78.7114C27.1422 78.7161 27.0901 78.8135 26.9902 78.994C26.8795 79.1865 26.7319 79.4454 26.5517 79.7613C26.161 80.4265 25.6248 81.3386 25.0039 82.3934L24.9497 82.3031C25.475 82.2033 26.0459 82.0964 26.6385 81.9848C27.2398 81.8731 27.8216 81.7662 28.3556 81.6665L28.4794 81.6427L28.4099 81.7567C27.7738 82.7924 27.2246 83.6856 26.8252 84.3389C26.632 84.6429 26.4757 84.8924 26.3585 85.0777C26.2478 85.2487 26.187 85.339 26.1805 85.3366C26.1762 85.3318 26.2282 85.2344 26.3281 85.0563C26.4388 84.8639 26.5864 84.6097 26.7688 84.2985C27.1617 83.6405 27.6979 82.7378 28.3209 81.6926L28.3752 81.7829C27.8411 81.8826 27.2615 81.9919 26.6602 82.1059C26.0676 82.2152 25.4967 82.3221 24.9692 82.4195L24.8455 82.4432L24.9149 82.3292C25.5488 81.284 26.098 80.3813 26.4974 79.7233C26.6885 79.4145 26.8448 79.1651 26.9641 78.975C27.0705 78.7993 27.1313 78.7066 27.1378 78.7114Z" fill="black"/>
<path d="M18.5544 96.4729C18.5588 96.4682 18.6304 96.5537 18.7541 96.7152C18.8865 96.891 19.0646 97.1238 19.2838 97.4113C19.7397 98.0241 20.3649 98.8651 21.0877 99.839L20.9922 99.8675C21.0704 99.2903 21.1528 98.6631 21.2397 98.0099C21.3309 97.3495 21.4177 96.7129 21.4958 96.1261L21.5154 95.9907L21.5913 96.0976C22.2925 97.0811 22.8982 97.9291 23.341 98.5491C23.5472 98.8437 23.7122 99.0836 23.8381 99.2641C23.9532 99.4328 24.0118 99.5254 24.0074 99.5302C24.0031 99.5349 23.9336 99.4494 23.8099 99.2903C23.6775 99.1145 23.5038 98.8817 23.2867 98.5966C22.8374 97.9838 22.2209 97.1452 21.5067 96.1736L21.6022 96.1451C21.5241 96.7319 21.4394 97.3685 21.3504 98.0289C21.2614 98.6798 21.1767 99.3069 21.0964 99.8841L21.079 100.02L21.0031 99.9126C20.2932 98.9292 19.6789 98.0788 19.2295 97.4564C19.0211 97.1618 18.8518 96.9195 18.7237 96.739C18.6109 96.5703 18.5501 96.4777 18.5544 96.4729Z" fill="black"/>
<path d="M38.1567 84.9731C38.1567 84.9803 38.0525 84.9945 37.8614 85.0135C37.653 85.0325 37.3774 85.0586 37.0365 85.0919C36.3158 85.1513 35.3281 85.2321 34.1841 85.3247L34.2167 85.2225C34.6053 85.6216 35.0286 86.0563 35.4671 86.5053C35.9121 86.9638 36.3397 87.4056 36.7326 87.8118L36.8238 87.9069L36.7001 87.914C35.5626 87.9829 34.5792 88.0423 33.8629 88.085C33.5242 88.1016 33.2485 88.1135 33.0423 88.123C32.8513 88.1301 32.7471 88.1301 32.7471 88.123C32.7471 88.1159 32.8491 88.1016 33.0401 88.0826C33.2463 88.0636 33.522 88.0399 33.8585 88.009C34.5749 87.9544 35.5561 87.8807 36.6936 87.7952L36.661 87.8973C36.2659 87.4911 35.8361 87.0517 35.3911 86.5956C34.9548 86.1442 34.5315 85.7095 34.1451 85.3081L34.0539 85.2154L34.1776 85.2083C35.3216 85.1323 36.3115 85.0681 37.0322 85.0206C37.373 85.0016 37.6509 84.9874 37.8593 84.9779C38.0503 84.966 38.1545 84.966 38.1567 84.9731Z" fill="black"/>
<path d="M33.3462 96.9456C33.3505 96.9408 33.4221 97.024 33.5502 97.1831C33.687 97.3566 33.8693 97.5846 34.0929 97.8673C34.5596 98.4707 35.2 99.2997 35.9403 100.257L35.8447 100.288C35.912 99.7083 35.9837 99.0788 36.0596 98.4255C36.1378 97.7628 36.2138 97.1238 36.2832 96.537L36.2984 96.4016L36.3766 96.5085C37.0951 97.4777 37.716 98.3115 38.1697 98.922C38.3802 99.2118 38.5517 99.4494 38.6798 99.6251C38.797 99.7914 38.8578 99.8817 38.8534 99.8864C38.8491 99.8912 38.7775 99.8081 38.6516 99.6513C38.517 99.4802 38.3368 99.2498 38.1176 98.9695C37.6573 98.3661 37.0256 97.5418 36.2941 96.5845L36.3896 96.5536C36.3223 97.1428 36.2485 97.7794 36.1725 98.4422C36.0944 99.0954 36.0206 99.7225 35.9533 100.302L35.9381 100.438L35.8599 100.333C35.1327 99.3638 34.5032 98.5277 34.043 97.9148C33.8303 97.6226 33.6566 97.3874 33.5263 97.2093C33.4026 97.0406 33.3418 96.9503 33.3462 96.9456Z" fill="black"/>
<path d="M24.7499 88.1634C24.7499 88.1705 24.6457 88.1847 24.4547 88.2061C24.2463 88.2251 23.9706 88.2513 23.6298 88.2845C22.9091 88.3439 21.9214 88.4247 20.7774 88.5173L20.81 88.4152C21.1985 88.8143 21.6218 89.249 22.0603 89.6979C22.5053 90.1564 22.933 90.5982 23.3259 91.0044L23.4171 91.0995L23.2933 91.1066C22.1558 91.1755 21.1725 91.2349 20.4561 91.2776C20.1175 91.2943 19.8418 91.3061 19.6356 91.3156C19.4445 91.3228 19.3403 91.3228 19.3403 91.3156C19.3403 91.3085 19.4424 91.2943 19.6334 91.2753C19.8396 91.2563 20.1153 91.2325 20.4518 91.2016C21.1681 91.147 22.1493 91.0733 23.2868 90.9878L23.2543 91.09C22.8592 90.6838 22.4294 90.2443 21.9843 89.7882C21.548 89.3369 21.1247 88.9021 20.7383 88.5007L20.6471 88.408L20.7709 88.4009C21.9149 88.3249 22.9048 88.2608 23.6255 88.2133C23.9663 88.1942 24.2441 88.18 24.4525 88.1705C24.6436 88.1586 24.7478 88.1586 24.7499 88.1634Z" fill="black"/>
<path d="M32.1349 96.6749C32.1349 96.682 32.0307 96.6963 31.8397 96.7177C31.6313 96.7367 31.3556 96.7628 31.0148 96.7961C30.2941 96.8554 29.3064 96.9362 28.1624 97.0289L28.195 96.9267C28.5835 97.3258 29.0068 97.7605 29.4453 98.2095C29.8903 98.6679 30.318 99.1098 30.7109 99.516L30.8021 99.611L30.6783 99.6181C29.5409 99.687 28.5575 99.7464 27.8411 99.7892C27.5025 99.8058 27.2268 99.8177 27.0206 99.8272C26.8295 99.8343 26.7253 99.8343 26.7253 99.8272C26.7253 99.82 26.8274 99.8058 27.0184 99.7868C27.2246 99.7678 27.5003 99.744 27.8368 99.7131C28.5531 99.6585 29.5343 99.5849 30.6718 99.4994L30.6393 99.6015C30.2442 99.1953 29.8144 98.7558 29.3694 98.2997C28.933 97.8484 28.5097 97.4137 28.1233 97.0122L28.0322 96.9196L28.1559 96.9125C29.2999 96.8364 30.2898 96.7723 31.0105 96.7248C31.3513 96.7058 31.6291 96.6915 31.8375 96.682C32.0307 96.6702 32.1349 96.6678 32.1349 96.6749Z" fill="black"/>
<path d="M48.8088 75.0222C48.8088 75.0293 48.7046 75.0436 48.5135 75.0626C48.3051 75.0816 48.0295 75.1077 47.6886 75.141C46.9679 75.2004 45.9802 75.2811 44.8362 75.3738L44.8688 75.2716C45.2574 75.6707 45.6807 76.1054 46.1192 76.5544C46.5642 77.0129 46.9918 77.4547 47.3847 77.8609L47.4759 77.9559L47.3522 77.963C46.2147 78.0319 45.2313 78.0913 44.515 78.1341C44.1763 78.1507 43.9006 78.1626 43.6944 78.1721C43.5034 78.1792 43.3992 78.1792 43.3992 78.1721C43.3992 78.165 43.5012 78.1507 43.6922 78.1317C43.8985 78.1127 44.1741 78.0889 44.5106 78.0581C45.227 78.0034 46.2082 77.9298 47.3457 77.8443L47.3131 77.9464C46.918 77.5402 46.4882 77.1007 46.0432 76.6447C45.6069 76.1933 45.1836 75.7586 44.7972 75.3571L44.706 75.2645L44.8297 75.2574C45.9737 75.1814 46.9636 75.1172 47.6843 75.0697C48.0251 75.0507 48.303 75.0365 48.5114 75.027C48.7046 75.0151 48.8088 75.0151 48.8088 75.0222Z" fill="black"/>
<path d="M40.6988 96.6746C40.6988 96.6746 44.3522 95.5225 45.5592 95.1851C46.0302 95.0545 48.0469 96.2185 49.4406 97.1853C49.4406 97.1853 51.3595 98.43 51.2032 98.8149C51.0317 99.2377 50.3241 99.1498 49.1974 98.5702C49.1974 98.5702 49.5903 99.8221 48.8175 99.7936C48.8175 99.7936 49.2018 101.145 48.4767 101.285C47.7517 101.426 47.5824 99.7009 46.942 99.6059C46.3038 99.5133 44.9818 99.4183 44.9818 99.4183C44.9818 99.4183 43.8812 101.411 43.0302 101.551C42.1771 101.692 40.2039 101.44 40.2039 101.44L40.6988 96.6746Z" fill="#FFBE9D"/>
<path d="M46.9311 96.9502C46.9484 96.9217 47.4043 97.2044 47.9513 97.5821C48.4984 97.9598 48.9282 98.2876 48.9108 98.3185C48.8934 98.347 48.4376 98.0643 47.8905 97.6866C47.3457 97.3089 46.9159 96.9811 46.9311 96.9502Z" fill="#EB996E"/>
<path d="M46.7163 97.7197C46.7293 97.6888 47.272 97.9311 47.9276 98.2637C48.5832 98.5939 49.1042 98.8884 49.0911 98.9193C49.0781 98.9502 48.5354 98.7079 47.8798 98.3753C47.2243 98.0451 46.7033 97.7506 46.7163 97.7197Z" fill="#EB996E"/>
<path d="M47.107 99.5822C47.1113 99.549 47.4803 99.5751 47.9319 99.644C48.3834 99.7105 48.7459 99.7936 48.7416 99.8269C48.7372 99.8602 48.3682 99.834 47.9167 99.7651C47.4652 99.6986 47.1026 99.6179 47.107 99.5822Z" fill="#EB996E"/>
<path d="M35.947 55.4482C36.0316 55.7546 35.9361 56.1109 35.7125 56.3152C35.4889 56.5219 35.1503 56.5623 34.8898 56.4197C34.3948 56.1442 34.3319 55.3983 34.4296 54.7997C34.5273 54.201 34.7118 53.5644 34.4839 53.0109C34.308 52.5881 33.9281 52.3197 33.6329 51.9871C33.1163 51.4075 32.8427 50.5618 32.9686 49.7636C33.0945 48.9655 33.6416 48.2481 34.3536 48.0319C35.0808 47.8086 35.9774 48.0533 36.5179 47.4784C36.9108 47.0603 36.9347 46.3762 37.2386 45.8797C37.7096 45.1053 38.706 44.9842 39.5483 45.1101C40.3906 45.236 41.2458 45.5305 42.0707 45.3072C42.7589 45.1196 43.3255 44.5946 43.9702 44.2715C45.3682 43.5708 47.1569 43.9508 48.2141 45.1718C49.2734 46.3928 49.5231 48.3669 48.811 49.8587C48.5549 50.3955 48.1685 50.8801 47.6584 51.1082" fill="#263238"/>
<path d="M40.1365 75.0698C42.468 75.0674 44.3479 72.9793 44.3175 70.4281L44.2632 66.0619C44.2632 66.0619 47.6149 65.6937 47.8385 62.0592C48.0599 58.4247 47.8993 50.0393 47.8993 50.0393C44.1417 48.0011 39.6698 48.3456 36.2118 50.9443L35.6995 51.3292L35.9491 70.5563C35.9795 73.0601 37.8464 75.0721 40.1365 75.0698Z" fill="#FFBE9D"/>
<path d="M47.0158 56.6193C46.4254 56.491 46.4297 55.6572 47.0224 55.5385C47.0484 55.5337 47.0766 55.5337 47.1027 55.5385C47.6931 55.6668 47.6888 56.5005 47.0962 56.6193C47.0723 56.6264 47.0419 56.6264 47.0158 56.6193Z" fill="#263238"/>
<path d="M47.6693 55.46C47.615 55.5194 47.3024 55.2249 46.8444 55.1964C46.3864 55.1583 46.0412 55.4054 45.9934 55.3389C45.9696 55.308 46.0282 55.1987 46.178 55.0871C46.3256 54.9754 46.5752 54.8757 46.8618 54.8947C47.1461 54.9161 47.3827 55.0515 47.5152 55.1845C47.6519 55.3151 47.6953 55.4339 47.6693 55.46Z" fill="#263238"/>
<path d="M42.3724 55.5813C42.5916 55.7476 42.6459 56.0778 42.4939 56.3177C42.342 56.5577 42.0403 56.6171 41.821 56.4508C41.6018 56.2845 41.5475 55.9543 41.6994 55.7144C41.8514 55.4744 42.1531 55.4151 42.3724 55.5813Z" fill="#263238"/>
<path d="M42.6742 55.6051C42.6199 55.6644 42.3073 55.3699 41.8493 55.3414C41.3912 55.3034 41.0461 55.5504 40.9983 55.4839C40.9744 55.453 41.0331 55.3438 41.1828 55.2321C41.3305 55.1205 41.5801 55.0207 41.8666 55.0397C42.151 55.0611 42.3876 55.1965 42.52 55.3295C42.6568 55.4602 42.7002 55.5789 42.6742 55.6051Z" fill="#263238"/>
<path d="M44.3044 59.8477C44.3023 59.8074 44.5888 59.7622 45.0534 59.7195C45.1749 59.7123 45.2683 59.6886 45.2813 59.6173C45.3074 59.5389 45.2683 59.3964 45.214 59.2372C45.112 58.8999 45.01 58.5555 44.9036 58.1968C44.4759 56.7169 44.1851 55.4982 44.2524 55.4745C44.3218 55.4507 44.7234 56.6313 45.1511 58.1113C45.2509 58.4723 45.3486 58.8168 45.4419 59.1565C45.4788 59.3109 45.5527 59.4914 45.481 59.7052C45.4419 59.8121 45.3443 59.8834 45.2639 59.9024C45.1836 59.9238 45.1163 59.919 45.0577 59.919C44.5932 59.9119 44.3044 59.8857 44.3044 59.8477Z" fill="#263238"/>
<path d="M42.7892 60.3108C43.3753 60.6077 44.0743 60.9783 44.999 61.1588C44.999 61.1588 44.4173 62.0615 43.4795 61.6197C42.5026 61.1636 42.7892 60.3108 42.7892 60.3108Z" fill="white"/>
<path d="M44.2697 66.0072C44.2697 66.0072 42.1597 66.069 40.0042 64.4014C40.0042 64.4014 40.8985 67.0809 44.2307 66.9503L44.2697 66.0072Z" fill="#EB996E"/>
<path d="M47.9209 50.9563C47.9209 50.9563 45.9151 52.0727 43.2537 50.6878C41.5084 49.7804 39.4831 49.3623 39.0467 49.7519C38.6082 50.1415 38.5496 52.0941 36.8477 52.6999C36.8477 52.6999 37.0322 56.4175 35.6733 56.313C34.3144 56.2084 35.0612 50.4289 35.0612 50.4289L38.3456 48.5855L41.9512 47.7612L45.3702 48.2149L48.0229 48.949L47.9209 50.9563Z" fill="#263238"/>
<path d="M35.9186 55.118C35.8644 55.0872 33.6719 54.2439 33.6198 56.7334C33.5677 59.2253 35.8644 58.7668 35.8709 58.6955C35.8774 58.6243 35.9186 55.118 35.9186 55.118Z" fill="#FFBE9D"/>
<path d="M35.1959 57.7358C35.185 57.7287 35.1546 57.7643 35.0873 57.7976C35.0222 57.8284 34.9093 57.8474 34.7899 57.7976C34.5511 57.6954 34.3579 57.2726 34.3558 56.8236C34.3536 56.5956 34.4013 56.3818 34.4795 56.206C34.5533 56.0254 34.664 55.9019 34.7856 55.8805C34.9071 55.852 34.9918 55.9352 35.0178 56.0064C35.0461 56.0777 35.0309 56.1252 35.0439 56.13C35.0504 56.1371 35.0938 56.0896 35.0765 55.9851C35.0678 55.9352 35.0417 55.8758 34.9896 55.8259C34.9354 55.776 34.8572 55.7499 34.7726 55.757C34.5967 55.7665 34.4361 55.9399 34.3514 56.1323C34.2581 56.3271 34.1995 56.5694 34.1995 56.8236C34.2038 57.3248 34.4296 57.8023 34.7552 57.914C34.9137 57.9638 35.0482 57.914 35.1199 57.8569C35.1893 57.7952 35.2024 57.7405 35.1959 57.7358Z" fill="#EB996E"/>
<path d="M34.7596 47.3193C34.7466 47.2908 35.12 47.1744 35.5498 47.3502C35.9796 47.5236 36.1923 47.8799 36.1663 47.8918C36.1424 47.9179 35.908 47.6234 35.5107 47.4666C35.1178 47.3027 34.7639 47.3573 34.7596 47.3193Z" fill="#263238"/>
<path d="M36.1292 45.8274C36.1683 45.8298 36.1075 46.3524 36.1857 46.9748C36.2638 47.6043 36.533 48.0414 36.5026 48.0604C36.4918 48.0699 36.4093 47.9725 36.3116 47.7848C36.2161 47.5995 36.114 47.3169 36.0728 46.9938C35.9925 46.3429 36.1075 45.8227 36.1292 45.8274Z" fill="#263238"/>
<path d="M45.4833 54.2629C45.4703 54.2344 45.568 54.1489 45.7525 54.0657C45.937 53.9826 46.2105 53.9137 46.5166 53.9161C46.8227 53.9208 47.0941 53.9968 47.2764 54.0824C47.4587 54.1679 47.5564 54.2558 47.5434 54.2867C47.5152 54.3532 47.0767 54.1655 46.5145 54.1631C45.9522 54.1513 45.5094 54.3294 45.4833 54.2629Z" fill="#263238"/>
<path d="M40.4079 53.7402C40.3949 53.7117 40.4926 53.6262 40.6771 53.543C40.8616 53.4599 41.1351 53.391 41.4412 53.3934C41.7473 53.3981 42.0186 53.4741 42.201 53.5597C42.3833 53.6452 42.481 53.7331 42.468 53.7639C42.4397 53.8305 42.0012 53.6428 41.439 53.6404C40.8768 53.6285 40.4339 53.8067 40.4079 53.7402Z" fill="#263238"/>
<path d="M45.0904 54.6548C45.0926 54.6572 45.0969 54.7095 45.0991 54.8021C45.1012 54.9066 45.1056 55.0397 45.1099 55.2036C45.1143 55.3794 45.1164 55.5884 45.1208 55.8283C45.1208 56.0683 45.1338 56.3486 45.2293 56.636C45.3205 56.9211 45.4768 57.2156 45.7091 57.465C45.9435 57.7097 46.2496 57.914 46.6056 58.0043C46.7836 58.0494 46.9703 58.0732 47.1613 58.0565C47.3523 58.047 47.5455 58.0043 47.7301 57.9259C48.1013 57.7762 48.4377 57.484 48.6657 57.0968C48.8828 56.7286 48.9804 56.2987 48.9718 55.8806C48.9718 55.4554 48.9739 55.0444 48.9739 54.6525L49.026 54.7095C47.8885 54.6976 46.916 54.6881 46.2083 54.681C45.8697 54.6739 45.5962 54.6691 45.39 54.6644C45.3031 54.662 45.2293 54.6596 45.1685 54.6572C45.1208 54.6596 45.0926 54.6572 45.0904 54.6548C45.086 54.6501 45.1837 54.6453 45.3704 54.6406C45.5723 54.6358 45.8415 54.6311 46.1758 54.624C46.89 54.6168 47.8755 54.6073 49.0282 54.5955H49.0803V54.6525C49.0803 55.0444 49.0825 55.4554 49.0825 55.8806C49.0955 56.3129 48.9913 56.7762 48.7612 57.1634C48.5202 57.5719 48.1621 57.8831 47.7691 58.0375C47.5738 58.1207 47.3697 58.1634 47.1678 58.1729C46.9659 58.1872 46.7684 58.1634 46.5817 58.1135C46.2062 58.0162 45.8849 57.7976 45.6439 57.5363C45.403 57.2703 45.2445 56.9614 45.1533 56.6598C45.06 56.3581 45.0513 56.0683 45.0578 55.8188C45.0622 55.5742 45.0665 55.3604 45.0687 55.1798C45.073 55.0183 45.0774 54.8876 45.0795 54.7831C45.086 54.6976 45.0882 54.6525 45.0904 54.6548Z" fill="#263238"/>
<path d="M39.7696 54.5313C39.7718 54.5337 39.7761 54.5859 39.7783 54.6786C39.7804 54.7831 39.7848 54.9161 39.7891 55.0801C39.7935 55.2558 39.7956 55.4649 39.8 55.7048C39.8 55.9447 39.813 56.225 39.9085 56.5125C39.9997 56.7975 40.156 57.0921 40.3883 57.3415C40.6227 57.5862 40.9288 57.7905 41.2848 57.8807C41.4628 57.9259 41.6495 57.9496 41.8405 57.933C42.0315 57.9235 42.2247 57.8807 42.4093 57.8024C42.7805 57.6527 43.1169 57.3605 43.3449 56.9733C43.5619 56.6051 43.6596 56.1751 43.651 55.7571C43.651 55.3318 43.6531 54.9209 43.6531 54.5289L43.7052 54.5859C42.5677 54.5741 41.5952 54.5646 40.8875 54.5574C40.5489 54.5503 40.2754 54.5456 40.0692 54.5408C39.9823 54.5384 39.9085 54.5361 39.8477 54.5337C39.7978 54.5361 39.7718 54.5337 39.7696 54.5313C39.7652 54.5266 39.8629 54.5218 40.0496 54.5171C40.2515 54.5123 40.5207 54.5076 40.855 54.5004C41.5692 54.4933 42.5547 54.4838 43.7074 54.4719H43.7595V54.5289C43.7595 54.9209 43.7617 55.3318 43.7617 55.7571C43.7747 56.1894 43.6705 56.6526 43.4404 57.0398C43.1994 57.4484 42.8413 57.7596 42.4483 57.914C42.253 57.9971 42.0489 58.0399 41.847 58.0494C41.6451 58.0637 41.4476 58.0399 41.2609 57.99C40.8854 57.8926 40.5641 57.6741 40.3231 57.4128C40.0822 57.1467 39.9237 56.8379 39.8325 56.5362C39.7392 56.2345 39.7305 55.9447 39.737 55.6953C39.7414 55.4506 39.7457 55.2368 39.7479 55.0563C39.7522 54.8948 39.7566 54.7641 39.7587 54.6596C39.7631 54.5741 39.7652 54.5289 39.7696 54.5313Z" fill="#263238"/>
<path d="M45.138 54.8284C45.138 54.8616 44.8015 54.8901 44.3891 54.8901C43.9744 54.8901 43.6401 54.8616 43.6401 54.8284C43.6401 54.7951 43.9766 54.7666 44.3891 54.7666C44.8037 54.7666 45.138 54.7951 45.138 54.8284Z" fill="#263238"/>
<path d="M35.6191 54.8614C35.6191 54.8282 36.5482 54.7973 37.6944 54.7926C38.8406 54.7878 39.7697 54.8139 39.7697 54.8472C39.7697 54.8804 38.8406 54.9113 37.6944 54.9161C36.5482 54.9185 35.6191 54.8947 35.6191 54.8614Z" fill="#263238"/>
<path d="M77.3264 57.8119L70.8639 55.2725L64.4645 57.7786C63.6482 58.2014 62.9319 58.4532 62.9319 59.287V63.4346C62.9319 66.3137 63.6222 69.169 65.0397 71.6871C66.2337 73.806 68.081 75.989 70.9269 77.3763C73.5427 76.4475 75.4942 73.9675 76.6882 71.8486C78.1057 69.3282 78.796 66.4752 78.796 63.5962V59.8666C78.7982 58.6765 78.2229 58.0969 77.3264 57.8119Z" fill="#92E3A9" stroke="#263238" stroke-miterlimit="10" stroke-linecap="round" stroke-linejoin="round"/>
<path d="M70.9269 74.9676C68.6758 73.8701 67.2127 72.1051 66.2684 70.428C65.1461 68.435 64.6012 66.1783 64.6012 63.8978V60.9902C64.6012 60.3322 64.9637 59.7146 65.6866 59.3464L70.8661 57.2275L70.8639 55.2725L64.4645 57.7786C63.7937 58.0993 62.9319 58.4532 62.9319 59.287V63.4346C62.9319 66.3137 63.6222 69.169 65.0397 71.6871C66.2337 73.806 68.081 75.989 70.9269 77.3763V74.9676Z" fill="#92E3A9" stroke="#263238" stroke-miterlimit="10" stroke-linecap="round" stroke-linejoin="round"/>
<path d="M70.927 77.3739C71.3807 77.2076 71.7975 77.0176 72.1969 76.7776C73.2693 76.1386 74.1853 75.2597 74.8843 74.4639C75.6658 73.5755 76.2476 72.6134 76.7534 71.7155C78.1709 69.1951 78.8612 66.3421 78.7983 63.3847L78.8026 59.9616C78.7983 58.256 77.9994 58.1301 77.3286 57.8094L70.8662 55.27L70.8684 57.225L76.1087 59.3796C76.8294 59.7478 77.1941 60.3654 77.1941 61.0234V63.931C77.1941 66.2091 76.6492 68.4658 75.5269 70.4612C74.5826 72.1383 73.1824 73.8677 70.9313 74.9652V77.3739H70.927Z" fill="#799093" stroke="#263238" stroke-width="0.75" stroke-miterlimit="10"/>
<path opacity="0.5" d="M72.5789 63.715L72.5854 63.1544C72.5854 62.1424 71.8322 61.3181 70.9074 61.3181C69.9827 61.3181 69.2294 62.1424 69.2294 63.152L69.2229 63.7221C68.7692 63.7958 68.4219 64.221 68.4219 64.7364V68.0384C68.4219 68.6061 68.843 69.067 69.3597 69.067H72.4921C73.0109 69.067 73.432 68.6061 73.432 68.0384V64.7364C73.432 64.1996 73.0565 63.7625 72.5789 63.715ZM71.3568 67.2164H70.5384L70.6665 66.5703C70.5254 66.4729 70.4299 66.3019 70.4299 66.1071C70.4299 65.8054 70.6534 65.5607 70.9291 65.5607C71.2048 65.5607 71.4284 65.8054 71.4284 66.1071C71.4284 66.2971 71.3416 66.4634 71.207 66.5608C71.2634 66.8102 71.3568 67.2164 71.3568 67.2164ZM72.2186 63.7102H69.5854L69.5919 63.1544C69.5919 62.361 70.1824 61.7148 70.9074 61.7148C71.6325 61.7148 72.2229 62.361 72.2229 63.152L72.2186 63.7102Z" fill="white"/>
<path d="M65.6498 63.6744C65.6346 63.6768 65.5912 63.4582 65.5521 63.0995C65.5131 62.7408 65.4848 62.242 65.5 61.6909C65.5065 61.4153 65.5239 61.154 65.5456 60.9165C65.5673 60.6789 65.6064 60.458 65.6911 60.2917C65.7736 60.1254 65.8886 60.0257 65.9733 59.9805C66.0601 59.9354 66.1165 59.9378 66.1165 59.9449C66.1274 59.9615 65.8973 60.009 65.7627 60.3321C65.6954 60.4865 65.665 60.6932 65.6498 60.9284C65.6325 61.1635 65.6194 61.4225 65.6129 61.6956C65.5977 62.242 65.6129 62.7361 65.6324 63.0924C65.6498 63.4487 65.665 63.672 65.6498 63.6744Z" fill="white"/>
<path d="M65.7429 65.4774C65.7126 65.4774 65.6843 65.3087 65.68 65.0973C65.6757 64.8859 65.6974 64.7148 65.7299 64.7148C65.7603 64.7148 65.7885 64.8835 65.7929 65.0949C65.7972 65.3063 65.7755 65.4774 65.7429 65.4774Z" fill="white"/>
<path d="M58.9267 82.5786L51.7197 102.079H38.7275V102.958H77.4261L85.343 82.5786H58.9267Z" fill="#263238"/>
<path d="M69.9391 94.0902C69.6786 95.0713 68.9166 95.6913 68.2415 95.4775C67.5642 95.2613 67.2278 94.2921 67.4883 93.311C67.7488 92.33 68.5085 91.71 69.1858 91.9238C69.8631 92.1399 70.2017 93.1091 69.9391 94.0902Z" fill="#FAFAFA"/>
</g>
<defs>
<clipPath id="clip0_2712_9">
<rect width="104.413" height="102.915" fill="white" transform="translate(0.801758 0.420166)"/>
</clipPath>
</defs>
</svg>
