<svg width="5" height="5" viewBox="0 0 5 5" fill="none" xmlns="http://www.w3.org/2000/svg">
<path d="M4.72276 3.68115C4.71974 3.68516 4.66683 3.61712 4.57462 3.48906C4.47485 3.34899 4.34183 3.1629 4.17857 2.9348C3.83694 2.44456 3.36984 1.77424 2.82867 0.997871L2.89367 0.967858C2.86344 1.45809 2.83018 1.99035 2.79541 2.54261C2.75913 3.10288 2.72436 3.64313 2.69111 4.14137L2.68355 4.25742L2.62611 4.17139C2.10005 3.38501 1.64504 2.70669 1.31248 2.21045C1.15829 1.97434 1.03283 1.78224 0.937593 1.63817C0.851429 1.50411 0.806079 1.42808 0.809102 1.42408C0.812125 1.42007 0.863521 1.4881 0.955732 1.61416C1.05399 1.75423 1.1855 1.93832 1.34574 2.16643C1.68284 2.65466 2.1454 3.32498 2.68052 4.10135L2.61552 4.12937C2.64727 3.63113 2.68052 3.09087 2.71529 2.5306C2.75157 1.97834 2.78634 1.44608 2.81809 0.955847L2.82564 0.841797L2.88309 0.927837C3.4167 1.71421 3.87624 2.39454 4.21334 2.89077C4.37055 3.12689 4.49753 3.31898 4.59276 3.46505C4.68044 3.60111 4.72579 3.67715 4.72276 3.68115Z" fill="black"/>
</svg>
