<svg width="10" height="6" viewBox="0 0 10 6" fill="none" xmlns="http://www.w3.org/2000/svg">
<path d="M1.10305 1.28666C1.10305 1.28666 4.00561 0.316194 4.9645 0.0320581C5.33875 -0.0779945 6.94093 0.902477 8.04815 1.71687C8.04815 1.71687 9.57272 2.76536 9.44855 3.08952C9.3123 3.44569 8.75007 3.37165 7.85499 2.88342C7.85499 2.88342 8.16715 3.93792 7.55318 3.91391C7.55318 3.91391 7.85844 5.05246 7.28241 5.17051C6.70638 5.28857 6.57186 3.83588 6.0631 3.75584C5.55605 3.6778 4.50575 3.59776 4.50575 3.59776C4.50575 3.59776 3.63137 5.27657 2.95531 5.39463C2.27753 5.51268 0.709839 5.30058 0.709839 5.30058L1.10305 1.28666Z" fill="#FFBE9D"/>
<path d="M6.05445 1.51876C6.06825 1.49475 6.43042 1.73286 6.86502 2.05101C7.29963 2.36916 7.64111 2.6453 7.62731 2.67131C7.61351 2.69532 7.25134 2.45721 6.81674 2.13906C6.38385 1.8209 6.04238 1.54477 6.05445 1.51876Z" fill="#EB996E"/>
<path d="M5.88367 2.16715C5.89402 2.14114 6.32518 2.34524 6.84602 2.62537C7.36686 2.9035 7.78077 3.15162 7.77042 3.17763C7.76007 3.20364 7.32891 2.99954 6.80808 2.71941C6.28724 2.44128 5.87333 2.19316 5.88367 2.16715Z" fill="#EB996E"/>
<path d="M6.19412 3.73585C6.19757 3.70783 6.49076 3.72985 6.84948 3.78787C7.20821 3.8439 7.49622 3.91393 7.49277 3.94195C7.48932 3.96996 7.19613 3.94795 6.83741 3.88992C6.47869 3.83389 6.19067 3.76586 6.19412 3.73585Z" fill="#EB996E"/>
</svg>
