<svg width="4" height="6" viewBox="0 0 4 6" fill="none" xmlns="http://www.w3.org/2000/svg">
<path d="M2.26683 0.413049C2.27028 0.417051 2.22889 0.499091 2.14955 0.651164C2.0616 0.813241 1.94432 1.03135 1.80118 1.29747C1.49074 1.85774 1.06476 2.62611 0.571515 3.51453L0.528399 3.4385C0.94576 3.35446 1.39934 3.26442 1.87016 3.17037C2.34789 3.07633 2.81009 2.98628 3.23435 2.90224L3.33265 2.88224L3.27746 2.97828C2.77215 3.85069 2.33581 4.60305 2.01848 5.15332C1.86499 5.40944 1.74082 5.61954 1.64769 5.77562C1.55973 5.91969 1.51144 5.99572 1.50626 5.99372C1.50282 5.98972 1.54421 5.90768 1.62354 5.75761C1.7115 5.59553 1.82877 5.38143 1.97364 5.1193C2.2858 4.56504 2.71178 3.80467 3.20675 2.92425L3.24987 3.00029C2.82561 3.08433 2.36513 3.17637 1.88741 3.27242C1.41659 3.36446 0.963006 3.45451 0.54392 3.53655L0.445618 3.55656L0.500805 3.46051C1.0044 2.58009 1.44073 1.81972 1.75806 1.26546C1.90983 1.00533 2.034 0.795235 2.12886 0.635159C2.21336 0.487088 2.26338 0.409047 2.26683 0.413049Z" fill="black"/>
</svg>
