<svg width="5" height="3" viewBox="0 0 5 3" fill="none" xmlns="http://www.w3.org/2000/svg">
<path d="M4.812 0.533965C4.812 0.537763 4.73847 0.545358 4.60367 0.555487C4.45661 0.565616 4.26206 0.579546 4.02156 0.597272C3.51299 0.628925 2.816 0.671975 2.00871 0.721354L2.03169 0.666908C2.30589 0.879618 2.6046 1.11132 2.91404 1.35062C3.22807 1.59499 3.52984 1.83049 3.80711 2.047L3.87144 2.09764L3.78413 2.10144C2.98144 2.13816 2.28751 2.16981 1.782 2.1926C1.54303 2.20147 1.34849 2.2078 1.20296 2.21286C1.06816 2.21666 0.994629 2.21666 0.994629 2.21286C0.994629 2.20906 1.06662 2.20147 1.20143 2.19134C1.34695 2.18121 1.5415 2.16855 1.77894 2.15209C2.28445 2.12297 2.97684 2.08372 3.77953 2.03814L3.75655 2.09258C3.47776 1.87607 3.17445 1.64183 2.86042 1.39873C2.55252 1.15817 2.25381 0.926468 1.98114 0.712491L1.9168 0.663109L2.00412 0.659311C2.8114 0.618795 3.50993 0.584612 4.0185 0.559289C4.259 0.54916 4.45508 0.54156 4.60214 0.536496C4.73694 0.530165 4.81047 0.530166 4.812 0.533965Z" fill="black"/>
</svg>
