<svg width="74" height="87" viewBox="0 0 74 87" fill="none" xmlns="http://www.w3.org/2000/svg">
<g clip-path="url(#clip0_38_34)">
<path d="M69.3801 16.8547C69.1411 16.3161 68.8885 15.7895 68.6253 15.2729C65.1192 8.39535 59.0854 3.69218 53.15 1.56584C50.5514 0.634812 47.8665 0.146274 45.1772 0.0261418C27.5373 -0.766731 20.5113 17.6355 14.6818 22.3848C8.85227 27.134 -0.117398 35.2449 0.481588 52.2616C1.08057 69.2784 10.3467 85.306 28.2845 86.2951C46.2224 87.2842 47.4188 76.6004 57.4337 72.6421C64.0619 70.0232 68.7706 61.1774 71.0773 53.0024C74.2204 41.8622 74.0722 27.3923 69.3801 16.8547Z" fill="#92E3A9"/>
<path opacity="0.7" d="M69.3801 16.8547C69.1411 16.3161 68.8885 15.7895 68.6253 15.2729C65.1192 8.39535 59.0854 3.69218 53.15 1.56584C50.5514 0.634812 47.8665 0.146274 45.1772 0.0261418C27.5373 -0.766731 20.5113 17.6355 14.6818 22.3848C8.85227 27.134 -0.117398 35.2449 0.481588 52.2616C1.08057 69.2784 10.3467 85.306 28.2845 86.2951C46.2224 87.2842 47.4188 76.6004 57.4337 72.6421C64.0619 70.0232 68.7706 61.1774 71.0773 53.0024C74.2204 41.8622 74.0722 27.3923 69.3801 16.8547Z" fill="white"/>
<path d="M13.7136 84.2307C15.807 81.9642 16.0778 78.152 15.7813 74.7823C15.7314 74.2197 15.742 73.621 15.506 73.1485C15.2701 72.676 14.7709 72.3897 14.3988 72.67C14.0902 72.9023 13.9813 73.4048 13.8271 73.8273C13.6213 74.3899 13.2931 74.8724 12.8923 75.2008C12.6291 75.417 12.2963 75.5672 12.0119 75.403C11.6232 75.1748 11.537 74.508 11.5052 73.9474C11.4462 72.9023 11.3857 71.8571 11.3267 70.81C11.295 70.2493 11.2602 69.6767 11.0938 69.1581C10.9274 68.6396 10.6022 68.1791 10.1847 68.0729C9.76726 67.9688 9.28172 68.3312 9.22878 68.8898C9.2076 69.1221 9.25752 69.3563 9.26054 69.5886C9.26357 69.8229 9.1955 70.0892 9.03063 70.1733C8.86273 70.2573 8.68122 70.1172 8.54358 69.967C8.0656 69.4485 7.71921 68.7517 7.39401 68.0569C7.0688 67.3622 6.74964 66.6494 6.30948 66.0767C5.86931 65.5021 5.28243 65.0736 4.66529 65.0957C4.04815 65.1177 3.42345 65.6843 3.31606 66.4892C3.20867 67.2961 3.61253 68.0609 4.03605 68.6576C4.66529 69.5446 5.39134 70.3114 6.18393 70.9241C6.32763 71.0342 6.48191 71.1543 6.54696 71.3566C6.66343 71.721 6.41536 72.1214 6.14007 72.2756C5.82847 72.4498 5.47907 72.4438 5.14781 72.5318C4.81655 72.6199 4.46563 72.8522 4.36429 73.2787C4.22361 73.8713 4.62748 74.4319 5.01319 74.7863C5.78461 75.4951 6.6483 76.0277 7.55585 76.3541C7.88106 76.4702 8.22139 76.5663 8.49366 76.8286C8.76593 77.0909 8.95046 77.5774 8.82189 77.9899C8.69181 78.4023 8.30459 78.5725 7.9703 78.5284C7.63451 78.4844 7.32443 78.2822 6.99922 78.162C6.39116 77.9358 5.63335 78.0719 5.29604 78.7787C5.0752 79.2432 5.09033 79.8559 5.24915 80.3645C5.40646 80.873 5.68932 81.2935 5.98578 81.6799C7.0204 83.0254 8.30307 84.0605 9.70978 84.5311C11.1165 84.9996 12.3946 85.0296 13.7136 84.2307Z" fill="#92E3A9"/>
<path d="M13.8966 86.7315C13.7197 85.404 13.3975 83.8483 12.9089 82.1885C12.4234 80.5267 11.7745 78.7607 11.0469 76.9467C10.8639 76.4942 10.6839 76.0457 10.5054 75.6052C10.3269 75.1647 10.1499 74.7303 9.95634 74.3178C9.57214 73.4909 9.15466 72.7341 8.74172 72.0313C8.32879 71.3285 7.91585 70.6818 7.52711 70.0792C7.13686 69.4785 6.76628 68.9279 6.41082 68.4434C5.70293 67.4723 5.0631 66.7795 4.60932 66.327C4.38243 66.0988 4.20244 65.9306 4.0784 65.8185C4.0179 65.7644 3.97101 65.7224 3.93773 65.6923C3.90597 65.6643 3.88782 65.6523 3.88782 65.6523C3.88782 65.6523 3.90294 65.6703 3.9332 65.7003C3.96647 65.7324 4.01185 65.7764 4.07084 65.8345C4.19185 65.9506 4.36882 66.1248 4.5942 66.3551C5.04344 66.8156 5.67721 67.5123 6.37906 68.4854C6.73149 68.9699 7.09905 69.5225 7.48627 70.1252C7.8735 70.7279 8.28341 71.3766 8.69332 72.0794C9.10475 72.7821 9.5192 73.537 9.90188 74.3619C10.094 74.7723 10.2694 75.2048 10.4479 75.6473C10.6264 76.0878 10.8064 76.5363 10.9894 76.9888C11.7155 78.8028 12.3644 80.5627 12.8529 82.2205C13.343 83.8763 13.6697 85.424 13.8513 86.7455" fill="#E0E0E0"/>
<path d="M9.93971 74.3118C9.94425 74.3118 9.95182 74.2257 9.96392 74.0675C9.97602 73.9094 9.98812 73.6811 10.0002 73.3988C10.0244 72.8342 10.0395 72.0513 10.0547 71.1904C10.0698 70.3274 10.094 69.5486 10.1288 68.9859C10.1454 68.7036 10.1606 68.4774 10.1727 68.3192C10.1848 68.161 10.1893 68.0749 10.1848 68.0729C10.1802 68.0729 10.1681 68.159 10.1485 68.3152C10.1288 68.4714 10.1061 68.6996 10.0834 68.9799C10.038 69.5426 10.0048 70.3254 9.98963 71.1884C9.97602 72.0433 9.96392 72.8162 9.95333 73.3968C9.94728 73.6671 9.94123 73.8913 9.93669 74.0655C9.93518 74.2237 9.93669 74.3098 9.93971 74.3118Z" fill="#E0E0E0"/>
<path d="M4.33856 73.565C4.33856 73.567 4.35823 73.569 4.39604 73.571C4.44142 73.571 4.49587 73.571 4.56091 73.571C4.7031 73.571 4.91032 73.569 5.16444 73.579C5.67418 73.593 6.37905 73.6471 7.15198 73.7512C7.92643 73.8573 8.62373 73.9934 9.12591 74.1136C9.377 74.1696 9.57969 74.2237 9.72036 74.2597C9.78389 74.2758 9.83835 74.2898 9.88221 74.2998C9.92003 74.3078 9.93969 74.3118 9.93969 74.3078C9.93969 74.3058 9.92154 74.2958 9.88524 74.2818C9.84137 74.2657 9.78994 74.2477 9.72641 74.2257C9.58726 74.1797 9.38608 74.1156 9.13499 74.0515C8.63432 73.9174 7.93551 73.7712 7.15803 73.6651C6.38207 73.561 5.67569 73.5169 5.16444 73.5169C4.90881 73.5149 4.70158 73.5249 4.5594 73.5349C4.49436 73.5409 4.43991 73.545 4.39453 73.551C4.35823 73.559 4.33856 73.563 4.33856 73.565Z" fill="#E0E0E0"/>
<path d="M12.8393 82.0603C12.8409 82.0603 12.8514 82.0303 12.8696 81.9682C12.8893 81.8981 12.915 81.808 12.9467 81.6959C13.0133 81.4597 13.1025 81.1153 13.2099 80.6868C13.4232 79.8319 13.6924 78.6386 13.9753 77.3151C14.2581 75.9936 14.5198 74.7983 14.7225 73.9394C14.8239 73.5189 14.9055 73.1725 14.966 72.9223C14.9933 72.8101 15.0144 72.718 15.0311 72.646C15.0447 72.5819 15.0523 72.5479 15.0492 72.5479C15.0477 72.5479 15.0371 72.5779 15.019 72.64C14.9993 72.71 14.9736 72.8001 14.9418 72.9123C14.8753 73.1485 14.786 73.4929 14.6787 73.9214C14.4639 74.7763 14.1961 75.9696 13.9133 77.2931C13.6304 78.6145 13.3687 79.8098 13.1661 80.6688C13.0647 81.0893 12.983 81.4356 12.9225 81.6859C12.8953 81.798 12.8741 81.8901 12.8575 81.9622C12.8439 82.0263 12.8378 82.0603 12.8393 82.0603Z" fill="#E0E0E0"/>
<path d="M5.31573 79.7738C5.31573 79.7758 5.34145 79.7858 5.39136 79.8038C5.44884 79.8218 5.52145 79.8439 5.61069 79.8719C5.80884 79.932 6.08262 80.014 6.4169 80.1162C7.09757 80.3224 8.03537 80.6247 9.06999 80.9591C10.1061 81.2955 11.0454 81.5878 11.7291 81.78C12.071 81.8761 12.3478 81.9502 12.5399 81.9982C12.6306 82.0203 12.7047 82.0383 12.7607 82.0503C12.8121 82.0623 12.8379 82.0663 12.8394 82.0623C12.8394 82.0603 12.8137 82.0503 12.7637 82.0323C12.7078 82.0142 12.6352 81.9922 12.5444 81.9642C12.3463 81.9041 12.0725 81.822 11.7382 81.7199C11.0575 81.5137 10.1197 81.2114 9.08511 80.875C8.0505 80.5386 7.10967 80.2463 6.42598 80.0561C6.08413 79.96 5.80733 79.8859 5.61523 79.8379C5.52447 79.8158 5.45036 79.7998 5.39439 79.7858C5.34296 79.7738 5.31573 79.7698 5.31573 79.7738Z" fill="#E0E0E0"/>
<path d="M33.5857 27.0168L22.6498 31.3719L24.8675 41.1291L35.8034 36.774L33.5857 27.0168Z" fill="white" stroke="black" stroke-width="0.5" stroke-miterlimit="10"/>
<path d="M35.8035 36.7725C35.8035 36.7725 35.7868 36.7104 35.7596 36.5943C35.7308 36.4741 35.6915 36.3019 35.6386 36.0797C35.5327 35.6252 35.3799 34.9645 35.1848 34.1175C34.7961 32.4217 34.2364 29.991 33.5557 27.0277L33.5951 27.0558C30.5774 28.2611 26.7778 29.7768 22.6621 31.4206H22.6605L22.6863 31.3565C23.4758 34.8343 24.2261 38.142 24.9007 41.1152L24.8553 41.0832C28.0741 39.8118 30.8058 38.7326 32.7344 37.9698C33.6994 37.5914 34.4633 37.291 34.9897 37.0848C35.2514 36.9827 35.4525 36.9046 35.5917 36.8506C35.6582 36.8245 35.7097 36.8065 35.7475 36.7905C35.7853 36.7785 35.8035 36.7725 35.8035 36.7725C35.8035 36.7725 35.7883 36.7805 35.7535 36.7945C35.7172 36.8105 35.6673 36.8305 35.6023 36.8566C35.4646 36.9126 35.2665 36.9927 35.0109 37.0988C34.4875 37.3111 33.7282 37.6174 32.7692 38.0058C30.8376 38.7807 28.1013 39.8799 24.878 41.1733L24.8432 41.1873L24.8326 41.1413C24.1565 38.168 23.4032 34.8624 22.6121 31.3845L22.6 31.3345L22.6379 31.3185H22.6394C26.7582 29.6827 30.5578 28.173 33.5769 26.9737L33.6072 26.9617L33.6162 27.0017C34.2863 29.981 34.8354 32.4257 35.2196 34.1296C35.4087 34.9745 35.5554 35.6352 35.6567 36.0877C35.7051 36.31 35.7429 36.4801 35.7687 36.5983C35.7929 36.7164 35.8035 36.7725 35.8035 36.7725Z" fill="#E0E0E0"/>
<path d="M35.8035 36.7725C35.8035 36.7725 35.7868 36.7104 35.7596 36.5943C35.7308 36.4741 35.6915 36.3019 35.6386 36.0797C35.5327 35.6252 35.3799 34.9645 35.1848 34.1175C34.7961 32.4217 34.2364 29.991 33.5557 27.0277L33.5951 27.0558C30.5774 28.2611 26.7778 29.7768 22.6621 31.4206H22.6605L22.6863 31.3565C23.4758 34.8343 24.2261 38.142 24.9007 41.1152L24.8553 41.0832C28.0741 39.8118 30.8058 38.7326 32.7344 37.9698C33.6994 37.5914 34.4633 37.291 34.9897 37.0848C35.2514 36.9827 35.4525 36.9046 35.5917 36.8506C35.6582 36.8245 35.7097 36.8065 35.7475 36.7905C35.7853 36.7785 35.8035 36.7725 35.8035 36.7725ZM35.8035 36.7725C35.8035 36.7725 35.7883 36.7805 35.7535 36.7945C35.7172 36.8105 35.6673 36.8305 35.6023 36.8566C35.4646 36.9126 35.2665 36.9927 35.0109 37.0988C34.4875 37.3111 33.7282 37.6174 32.7692 38.0058C30.8376 38.7807 28.1013 39.8799 24.878 41.1733L24.8432 41.1873L24.8326 41.1413C24.1565 38.168 23.4032 34.8624 22.6121 31.3845L22.6 31.3345L22.6379 31.3185H22.6394C26.7582 29.6827 30.5578 28.173 33.5769 26.9737L33.6072 26.9617L33.6162 27.0017C34.2863 29.981 34.8354 32.4257 35.2196 34.1296C35.4087 34.9745 35.5554 35.6352 35.6567 36.0877C35.7051 36.31 35.7429 36.4801 35.7687 36.5983C35.7929 36.7164 35.8035 36.7725 35.8035 36.7725Z" stroke="black" stroke-width="0.5" stroke-miterlimit="10"/>
<path d="M33.586 27.0157C33.5875 27.0157 33.5815 27.0318 33.5709 27.0598C33.5573 27.0938 33.5406 27.1339 33.5194 27.1839C33.4695 27.3001 33.4015 27.4562 33.3152 27.6565C33.1322 28.0729 32.8721 28.6636 32.5529 29.3924C31.8979 30.862 30.9949 32.8882 29.9906 35.1467L29.9739 35.1847L29.9422 35.1687C29.8363 35.1147 29.7213 35.0566 29.6079 34.9965C27.6869 34.0054 25.9474 33.1065 24.6829 32.4537C24.0582 32.1254 23.5515 31.8591 23.193 31.6709C23.0221 31.5788 22.8874 31.5067 22.7891 31.4526C22.7468 31.4286 22.712 31.4086 22.6848 31.3946C22.6621 31.3806 22.65 31.3725 22.65 31.3705C22.65 31.3685 22.6636 31.3725 22.6878 31.3846C22.7165 31.3986 22.7513 31.4146 22.7952 31.4346C22.895 31.4827 23.0311 31.5487 23.2036 31.6348C23.5636 31.815 24.0733 32.0713 24.7026 32.3857C25.9701 33.0324 27.7126 33.9193 29.6366 34.9004C29.7516 34.9585 29.865 35.0186 29.9709 35.0726L29.9225 35.0946C30.9359 32.8442 31.8465 30.8239 32.506 29.3583C32.8358 28.6375 33.102 28.0509 33.2895 27.6384C33.3803 27.4422 33.4529 27.288 33.5058 27.1759C33.5285 27.1279 33.5482 27.0878 33.5633 27.0578C33.5784 27.0278 33.5845 27.0157 33.586 27.0157Z" fill="#E0E0E0" stroke="black" stroke-width="0.5" stroke-miterlimit="10"/>
<path d="M65.4034 65.9886C65.4034 65.9886 64.6955 65.0596 63.3115 67.3802C61.9275 69.7007 61.327 71.0922 61.327 71.0922C61.327 71.0922 60.9821 71.5648 60.7552 71.1363C60.5268 70.7078 60.2938 69.6026 59.7886 69.6587C59.2653 69.7147 58.9915 70.4035 58.925 71.5047C58.8569 72.6039 58.6436 75.0065 58.6224 75.2248C58.6028 75.437 58.4651 75.7233 58.2745 75.4651C58.084 75.2068 57.0962 73.0003 56.3339 73.6831C55.5715 74.3658 55.7636 77.4713 55.7803 77.8116C55.7969 78.152 55.7273 78.2761 55.6003 78.3262C55.4717 78.3763 55.1934 77.5934 54.8924 76.9807C54.5929 76.368 54.1633 75.7293 53.7474 76.1718C53.3329 76.6143 52.8927 78.7907 53.9395 82.7891L54.5158 84.5991L55.992 84.8774C59.1791 85.2178 60.6599 84.1106 60.8807 83.4679C61.1001 82.8252 60.5253 82.4347 60.0019 82.2045C59.4786 81.9722 58.8372 81.812 58.8418 81.6338C58.8463 81.4556 58.9204 81.3375 59.173 81.2734C59.4256 81.2094 61.7459 80.6788 62.0545 79.5315C62.3631 78.3843 60.5026 77.6695 60.2666 77.4913C60.0291 77.3111 60.2046 77.0648 60.3559 76.9867C60.5102 76.9066 62.2133 76.0297 63.0014 75.6693C63.7894 75.3069 64.2251 74.7843 64.1343 74.0995C64.0481 73.4388 63.1814 73.4168 62.8108 73.2306C62.4402 73.0464 62.7004 72.4858 62.7004 72.4858C62.7004 72.4858 63.5671 71.3665 64.9194 69.0119C66.2716 66.6574 65.3898 65.9706 65.3898 65.9706" fill="#92E3A9"/>
<path d="M64.1616 68.0649C64.1631 68.0669 64.154 68.0829 64.1374 68.1149C64.1177 68.151 64.092 68.199 64.0602 68.2571C63.9876 68.3872 63.8863 68.5694 63.7577 68.7997C63.4945 69.2702 63.1073 69.947 62.6263 70.7799C61.6658 72.4457 60.3226 74.7322 58.8297 77.247C57.3413 79.7638 55.9936 82.0403 55.0149 83.6961C54.5324 84.519 54.1391 85.1877 53.8638 85.6562C53.7292 85.8825 53.6248 86.0607 53.5492 86.1868C53.5144 86.2429 53.4872 86.2889 53.466 86.323C53.4464 86.353 53.4373 86.369 53.4358 86.367C53.4343 86.365 53.4433 86.349 53.46 86.317C53.4796 86.2809 53.5054 86.2329 53.5371 86.1748C53.6097 86.0447 53.7111 85.8625 53.8396 85.6322C54.1028 85.1617 54.49 84.4849 54.9695 83.652C55.93 81.9862 57.2732 79.6997 58.7661 77.1849C60.2545 74.6701 61.6007 72.3916 62.5794 70.7378C63.0619 69.9149 63.4552 69.2462 63.7305 68.7777C63.8651 68.5514 63.9695 68.3732 64.0451 68.2471C64.0799 68.191 64.1071 68.145 64.1283 68.1109C64.1495 68.0789 64.16 68.0649 64.1616 68.0649Z" fill="#E0E0E0"/>
<path d="M60.0669 71.2224C60.0775 71.2204 60.1002 71.4206 60.1229 71.7469C60.1456 72.0733 60.1653 72.5238 60.1789 73.0203C60.188 73.4989 60.197 73.9313 60.2046 74.2937C60.2106 74.6201 60.2152 74.8203 60.2046 74.8223C60.194 74.8243 60.1698 74.6241 60.1486 74.2977C60.129 73.9714 60.1123 73.5209 60.0987 73.0243C60.0866 72.5458 60.0745 72.1133 60.0654 71.7509C60.0594 71.4266 60.0564 71.2244 60.0669 71.2224Z" fill="#E0E0E0"/>
<path d="M60.3347 74.8924C60.3331 74.8644 61.032 74.7623 61.8956 74.6682C62.7609 74.5721 63.4627 74.518 63.4642 74.548C63.4657 74.5761 62.7669 74.6782 61.9017 74.7723C61.038 74.8664 60.3362 74.9204 60.3347 74.8924Z" fill="#E0E0E0"/>
<path d="M57.8238 78.7547C57.8268 78.7406 57.9796 78.7767 58.2262 78.8407C58.4727 78.9028 58.8145 78.9889 59.1927 79.069C59.5708 79.1491 59.9142 79.2092 60.1638 79.2532C60.4134 79.2952 60.5676 79.3233 60.5661 79.3393C60.5646 79.3533 60.4088 79.3513 60.1577 79.3273C59.9066 79.3033 59.5587 79.2552 59.1791 79.1731C58.7994 79.093 58.4576 78.9949 58.214 78.9148C57.9705 78.8307 57.8223 78.7667 57.8238 78.7547Z" fill="#E0E0E0"/>
<path d="M57.0312 75.5051C57.0418 75.5011 57.0962 75.6773 57.1779 75.9656C57.2596 76.2539 57.3655 76.6543 57.4789 77.1008C57.5923 77.5453 57.6907 77.9498 57.7587 78.2461C57.8268 78.5404 57.8631 78.7246 57.8525 78.7306C57.8419 78.7346 57.7875 78.5584 57.7058 78.2701C57.6241 77.9818 57.5182 77.5814 57.4048 77.1349C57.2913 76.6904 57.193 76.2859 57.125 75.9896C57.0569 75.6933 57.0206 75.5091 57.0312 75.5051Z" fill="#E0E0E0"/>
<path d="M54.4885 78.5424C54.4991 78.5384 54.5687 78.7647 54.673 79.1331C54.7774 79.5035 54.9166 80.016 55.0663 80.5827C55.216 81.1513 55.3461 81.6678 55.4384 82.0443C55.5292 82.4207 55.5806 82.6549 55.57 82.6589C55.5594 82.6629 55.4898 82.4367 55.3855 82.0683C55.2811 81.6979 55.1419 81.1853 54.9922 80.6167C54.8424 80.0481 54.7124 79.5315 54.6201 79.1551C54.5293 78.7807 54.4779 78.5464 54.4885 78.5424Z" fill="#E0E0E0"/>
<path d="M55.5655 82.5509C55.567 82.5368 55.7637 82.5749 56.0783 82.641C56.3929 82.705 56.8285 82.7951 57.311 82.8792C57.7935 82.9633 58.2307 83.0294 58.5483 83.0734C58.866 83.1195 59.0611 83.1495 59.0611 83.1635C59.0611 83.1776 58.8629 83.1736 58.5438 83.1475C58.2246 83.1215 57.7845 83.0674 57.3004 82.9833C56.8164 82.8992 56.3823 82.7971 56.0692 82.713C55.7546 82.629 55.564 82.5649 55.5655 82.5509Z" fill="#E0E0E0"/>
<path d="M40.2578 38.0402L37.5756 46.9583L46.002 51.399L48.6843 42.481L40.2578 38.0402Z" fill="#92E3A9" stroke="#263238" stroke-miterlimit="10" stroke-linecap="round" stroke-linejoin="round"/>
<path d="M48.6832 42.4828C48.6832 42.4828 48.6696 42.4768 48.6424 42.4627C48.6151 42.4487 48.5758 42.4287 48.5244 42.4007C48.42 42.3466 48.2672 42.2665 48.0676 42.1624C47.6683 41.9522 47.0829 41.6458 46.3417 41.2574C44.8609 40.4786 42.7554 39.3733 40.252 38.0579L40.2702 38.0479C39.473 40.7028 38.5579 43.7442 37.5899 46.9657L37.5808 46.9397C40.6997 48.5855 43.5994 50.1132 46.0059 51.3846L45.9893 51.3946C46.8 48.7096 47.4716 46.4832 47.942 44.9275C48.178 44.1486 48.3625 43.5399 48.4881 43.1235C48.5516 42.9152 48.6 42.7571 48.6318 42.6489C48.6651 42.5388 48.6832 42.4828 48.6832 42.4828C48.6832 42.4828 48.6681 42.5368 48.6363 42.6449C48.6045 42.7531 48.5577 42.9112 48.4956 43.1195C48.3716 43.5359 48.1886 44.1466 47.9572 44.9234C47.4898 46.4832 46.8212 48.7156 46.0135 51.4066L46.0089 51.4226L45.9968 51.4166C43.5888 50.1492 40.6892 48.6215 37.5702 46.9797L37.5566 46.9717L37.5626 46.9537C38.5322 43.7341 39.4473 40.6928 40.246 38.0379L40.2505 38.0219L40.2626 38.0279C42.7675 39.3513 44.8745 40.4665 46.3553 41.2494C47.0935 41.6418 47.6773 41.9502 48.0751 42.1604C48.2733 42.2665 48.4261 42.3466 48.5289 42.4027C48.5803 42.4307 48.6182 42.4507 48.6454 42.4647C48.6711 42.4748 48.6832 42.4828 48.6832 42.4828Z" fill="#92E3A9"/>
<path d="M48.6832 42.4828C48.6832 42.4828 48.6696 42.4768 48.6424 42.4627C48.6151 42.4487 48.5758 42.4287 48.5244 42.4007C48.42 42.3466 48.2672 42.2665 48.0676 42.1624C47.6683 41.9522 47.0829 41.6458 46.3417 41.2574C44.8609 40.4786 42.7554 39.3733 40.252 38.0579L40.2702 38.0479C39.473 40.7028 38.5579 43.7442 37.5899 46.9657L37.5808 46.9397C40.6997 48.5855 43.5994 50.1132 46.0059 51.3846L45.9893 51.3946C46.8 48.7096 47.4716 46.4832 47.942 44.9275C48.178 44.1486 48.3625 43.5399 48.4881 43.1235C48.5516 42.9152 48.6 42.7571 48.6318 42.6489C48.6651 42.5388 48.6832 42.4828 48.6832 42.4828ZM48.6832 42.4828C48.6832 42.4828 48.6681 42.5368 48.6363 42.6449C48.6045 42.7531 48.5577 42.9112 48.4956 43.1195C48.3716 43.5359 48.1886 44.1466 47.9572 44.9234C47.4898 46.4832 46.8212 48.7156 46.0135 51.4066L46.0089 51.4226L45.9968 51.4166C43.5888 50.1492 40.6892 48.6215 37.5702 46.9797L37.5566 46.9717L37.5626 46.9537C38.5322 43.7341 39.4473 40.6928 40.246 38.0379L40.2505 38.0219L40.2626 38.0279C42.7675 39.3513 44.8745 40.4665 46.3553 41.2494C47.0935 41.6418 47.6773 41.9502 48.0751 42.1604C48.2733 42.2665 48.4261 42.3466 48.5289 42.4027C48.5803 42.4307 48.6182 42.4507 48.6454 42.4647C48.6711 42.4748 48.6832 42.4828 48.6832 42.4828Z" stroke="#263238" stroke-miterlimit="10" stroke-linecap="round" stroke-linejoin="round"/>
<path d="M40.3742 38.7625L38.0299 46.5569L45.8647 50.6859L48.2091 42.8914L40.3742 38.7625Z" fill="#92E3A9" stroke="#263238" stroke-miterlimit="10" stroke-linecap="round" stroke-linejoin="round"/>
<path d="M38.0602 46.5833L42.2547 43.1795L43.0382 47.1038L44.6748 46.0907L45.8955 50.7118L38.0602 46.5833Z" fill="white" stroke="#263238" stroke-miterlimit="10" stroke-linecap="round" stroke-linejoin="round"/>
<path d="M44.8472 43.8583C44.7111 44.3088 44.3254 44.529 43.9851 44.3488C43.6447 44.1686 43.4783 43.6581 43.6145 43.2076C43.7506 42.7571 44.1363 42.5368 44.4767 42.717C44.817 42.8972 44.9834 43.4078 44.8472 43.8583Z" fill="white" stroke="#263238" stroke-miterlimit="10" stroke-linecap="round" stroke-linejoin="round"/>
<path d="M18.2846 52.3556C18.2862 52.3476 18.3436 52.4077 18.4646 52.3956C18.5236 52.3856 18.5977 52.3516 18.6582 52.2675C18.7157 52.1854 18.7581 52.0533 18.8186 51.9231C19.053 51.3825 19.3873 50.6097 19.8003 49.6566C19.9046 49.4184 20.0135 49.1681 20.127 48.9058C20.1845 48.7757 20.2419 48.6415 20.3009 48.5074C20.3297 48.4393 20.3645 48.3712 20.3811 48.3051C20.3977 48.2371 20.3992 48.163 20.3856 48.0909C20.372 48.0208 20.3418 47.9568 20.2994 47.9087C20.2586 47.8647 20.1966 47.8266 20.1436 47.7866C20.0332 47.7045 19.9213 47.6224 19.8078 47.5383C19.5794 47.3701 19.3465 47.1959 19.106 47.0177C18.1455 46.3029 17.0897 45.5201 15.981 44.6972C15.8584 44.6031 15.6905 44.6651 15.6134 44.8193C15.5347 44.9975 15.4561 45.1737 15.379 45.3499C15.2232 45.7043 15.0704 46.0527 14.9191 46.395C14.6166 47.0798 14.3262 47.7405 14.0479 48.3712C14.0131 48.4493 13.9783 48.5274 13.945 48.6055C13.9102 48.6775 13.8951 48.7536 13.8966 48.8337C13.8996 48.9118 13.9208 48.9899 13.9586 49.048C13.9934 49.11 14.0494 49.1421 14.1084 49.1881C14.3353 49.3583 14.5561 49.5225 14.7694 49.6827C15.1944 50.003 15.5922 50.2993 15.9552 50.5716C16.6752 51.1162 17.2591 51.5567 17.669 51.8671C17.8672 52.0192 18.023 52.1394 18.1334 52.2234C18.1833 52.2635 18.2226 52.2935 18.2529 52.3176C18.271 52.3416 18.2846 52.3536 18.2846 52.3556C18.2846 52.3576 18.2695 52.3476 18.2408 52.3296C18.209 52.3075 18.1682 52.2795 18.1167 52.2435C18.0048 52.1634 17.846 52.0493 17.6448 51.9031C17.2319 51.6008 16.6435 51.1683 15.9189 50.6377C15.5544 50.3694 15.1566 50.0751 14.7285 49.7587C14.5153 49.6006 14.2929 49.4364 14.066 49.2682C14.0131 49.2262 13.9435 49.1881 13.8966 49.108C13.8482 49.0339 13.821 48.9358 13.818 48.8377C13.8149 48.7396 13.8376 48.6375 13.8754 48.5574C13.9102 48.4793 13.9435 48.4012 13.9783 48.3232C14.2551 47.6925 14.544 47.0297 14.845 46.343C14.9948 46.0006 15.149 45.6502 15.3033 45.2958C15.382 45.1176 15.4606 44.9394 15.5408 44.7572C15.6376 44.561 15.8524 44.4809 16.0112 44.6031C17.1184 45.428 18.1727 46.2148 19.1332 46.9316C19.3722 47.1118 19.6066 47.286 19.8335 47.4562C19.947 47.5403 20.0589 47.6244 20.1693 47.7065C20.2238 47.7505 20.2782 47.7806 20.3357 47.8406C20.3887 47.9007 20.4265 47.9808 20.4431 48.0669C20.4597 48.153 20.4567 48.2451 20.4371 48.3292C20.4144 48.4153 20.3781 48.4773 20.3508 48.5454C20.2918 48.6795 20.2329 48.8137 20.1754 48.9418C20.0604 49.2021 19.95 49.4504 19.8441 49.6887C19.4236 50.6337 19.0818 51.4005 18.8413 51.9391C18.7777 52.0693 18.7369 52.1954 18.6719 52.2855C18.6053 52.3716 18.5251 52.4056 18.4631 52.4117C18.3996 52.4177 18.3527 52.3996 18.324 52.3816C18.2967 52.3716 18.2846 52.3556 18.2846 52.3556Z" fill="#E0E0E0"/>
<path d="M17.4845 48.2511L17.8656 49.1481L17.0791 49.1661L16.2925 49.1861L16.6979 48.2711L17.1033 47.3561L17.4845 48.2511Z" fill="#E0E0E0"/>
<path d="M20.1527 73.7051L15.5847 67.6325L17.8808 62.0503C20.1769 58.16 25.0384 58.4103 25.0384 58.4103C25.0384 58.4103 28.3464 57.9878 32.2065 58.9829C36.0682 59.978 35.7566 63.3598 35.7566 63.3598L36.2739 75.8875L36.829 86.0888L22.588 86.4692L20.1527 73.7051Z" fill="#C8DCEC"/>
<path d="M27.8245 85.8825L15.0688 86.0888C12.0043 86.1388 9.95931 81.9202 11.2707 78.2521L16.7251 64.8634L21.6925 69.3083L18.3043 78.6165L28.6307 78.8608L27.8245 85.8825Z" fill="#C8DCEC"/>
<path d="M35.3028 61.3255L45.5385 82.2445L39.5668 82.7611C39.5668 82.7611 36.0001 75.3229 36.0818 75.4771C36.227 75.7554 35.3028 61.3255 35.3028 61.3255Z" fill="#C8DCEC"/>
<path d="M21.4368 70.5116C21.4338 70.5116 21.4399 70.4736 21.4505 70.4035C21.4656 70.3234 21.4822 70.2233 21.5049 70.1012C21.5518 69.8389 21.6214 69.4585 21.6925 68.984C21.7636 68.5114 21.8407 67.9448 21.8921 67.3101C21.9405 66.6774 21.9708 65.9726 21.8982 65.2478C21.8165 64.5251 21.6108 63.8683 21.3703 63.3217C21.1283 62.7731 20.8575 62.3226 20.611 61.9682C20.3644 61.6138 20.1466 61.3496 19.9908 61.1754C19.8365 60.9992 19.7473 60.9071 19.7518 60.8991C19.7533 60.8971 19.7775 60.9171 19.8214 60.9571C19.8653 60.9992 19.9318 61.0572 20.0105 61.1433C20.1723 61.3095 20.3977 61.5678 20.6518 61.9182C20.9059 62.2686 21.1858 62.7191 21.4338 63.2737C21.6819 63.8263 21.8936 64.493 21.9768 65.2338C22.051 65.9746 22.0177 66.6854 21.9662 67.3221C21.9103 67.9588 21.8271 68.5275 21.7484 69C21.6698 69.4725 21.5926 69.8509 21.5352 70.1112C21.5064 70.2413 21.4837 70.3415 21.4671 70.4095C21.4489 70.4776 21.4384 70.5116 21.4368 70.5116Z" fill="#263238"/>
<path d="M21.0254 71.2324C21.03 71.2344 20.9982 71.3425 20.9377 71.5347C20.8772 71.7269 20.7849 72.0032 20.67 72.3416C20.4386 73.0204 20.1103 73.9534 19.7322 74.9745C19.354 75.9956 18.9971 76.9106 18.7324 77.5674C18.6008 77.8957 18.4919 78.16 18.4132 78.3422C18.3361 78.5244 18.2907 78.6225 18.2861 78.6185C18.2816 78.6145 18.3179 78.5104 18.386 78.3222C18.4616 78.12 18.5614 77.8537 18.6824 77.5313C18.9381 76.8486 19.2814 75.9356 19.6611 74.9245C20.0332 73.9093 20.369 72.9923 20.6201 72.3056C20.7381 71.9832 20.8364 71.7149 20.9105 71.5127C20.9801 71.3325 21.0209 71.2304 21.0254 71.2324Z" fill="#263238"/>
<path d="M27.8245 85.8825C27.823 85.8825 27.823 85.8705 27.8245 85.8465C27.826 85.8185 27.8275 85.7844 27.8306 85.7444C27.8381 85.6483 27.8487 85.5141 27.8608 85.3459C27.8911 84.9896 27.9319 84.483 27.9864 83.8443C28.0998 82.5509 28.2586 80.7269 28.4462 78.5785L28.4825 78.6326C27.3344 78.6346 26.0578 78.6346 24.7146 78.6366C22.1417 78.6306 19.8138 78.6246 18.1227 78.6205C17.2833 78.6145 16.6026 78.6085 16.1246 78.6045C15.8932 78.6005 15.7117 78.5965 15.5816 78.5945C15.5226 78.5925 15.4757 78.5905 15.4409 78.5885C15.4092 78.5865 15.3925 78.5845 15.3925 78.5825C15.3925 78.5805 15.4092 78.5785 15.4409 78.5765C15.4772 78.5745 15.5241 78.5725 15.5816 78.5705C15.7117 78.5685 15.8932 78.5645 16.1246 78.5605C16.6011 78.5565 17.2833 78.5505 18.1227 78.5445C19.8138 78.5405 22.1417 78.5344 24.7146 78.5284C26.0578 78.5304 27.3344 78.5325 28.4825 78.5325H28.5233L28.5188 78.5865C28.3191 80.7329 28.1512 82.5549 28.0317 83.8483C27.9697 84.485 27.9213 84.9916 27.8865 85.3479C27.8684 85.5161 27.8548 85.6483 27.8457 85.7444C27.8411 85.7864 27.8366 85.8185 27.8336 85.8465C27.8275 85.8705 27.826 85.8825 27.8245 85.8825Z" fill="#263238"/>
<path d="M18.3935 78.7627C18.3829 78.7707 18.2952 78.6005 18.1394 78.3403C17.9836 78.082 17.7506 77.7396 17.4587 77.4132C17.1668 77.0869 16.8733 76.8406 16.654 76.6804C16.4347 76.5183 16.2925 76.4342 16.297 76.4181C16.3001 76.4061 16.4513 76.4682 16.6797 76.6144C16.9081 76.7605 17.2122 77.0008 17.5086 77.3331C17.8051 77.6655 18.0365 78.0219 18.1832 78.2942C18.3315 78.5685 18.4011 78.7547 18.3935 78.7627Z" fill="#263238"/>
<path d="M36.4872 80.0861C36.4841 80.0861 36.4781 80.0261 36.4675 79.9139C36.4569 79.7918 36.4433 79.6256 36.4252 79.4154C36.3904 78.9829 36.3435 78.3562 36.2936 77.5794C36.1907 76.0277 36.0712 73.8833 35.9638 71.5107C35.8579 69.1381 35.7838 66.9897 35.7415 65.434C35.7203 64.6552 35.7052 64.0265 35.6991 63.592C35.6961 63.3817 35.6946 63.2136 35.6931 63.0914C35.6931 62.9773 35.6931 62.9172 35.6961 62.9172C35.6991 62.9172 35.7036 62.9773 35.7082 63.0914C35.7127 63.2156 35.7203 63.3817 35.7294 63.592C35.746 64.0365 35.7687 64.6632 35.7974 65.434C35.8549 66.9897 35.9366 69.1361 36.0425 71.5087C36.1483 73.8793 36.2588 76.0257 36.348 77.5774C36.3934 78.3462 36.4297 78.9709 36.4554 79.4154C36.4675 79.6256 36.4766 79.7918 36.4826 79.9159C36.4887 80.0261 36.4902 80.0861 36.4872 80.0861Z" fill="#263238"/>
<path d="M25.1018 68.7037C25.0973 68.7037 25.1033 68.6075 25.1185 68.4293C25.1366 68.2391 25.1593 67.9849 25.1881 67.6725C25.2546 67.0118 25.3454 66.1068 25.4512 65.0576L25.5102 65.1057C25.2047 65.388 24.8749 65.6943 24.5316 66.0127C24.1822 66.335 23.8464 66.6434 23.5363 66.9297L23.4652 66.9958L23.4788 66.8816C23.5983 65.8425 23.7027 64.9455 23.7783 64.2908C23.8161 63.9825 23.8479 63.7322 23.8721 63.544C23.8948 63.3698 23.9099 63.2757 23.9144 63.2777C23.919 63.2777 23.9129 63.3738 23.8978 63.55C23.8797 63.7402 23.8555 63.9925 23.8267 64.3008C23.7587 64.9575 23.6634 65.8565 23.5545 66.8977L23.4955 66.8496C23.804 66.5633 24.1398 66.253 24.4892 65.9286C24.8326 65.6122 25.1639 65.3059 25.4694 65.0256L25.5405 64.9595L25.5284 65.0737C25.4119 66.1188 25.3121 67.0238 25.238 67.6825C25.2002 67.9929 25.1699 68.2451 25.1472 68.4354C25.12 68.6095 25.1049 68.7057 25.1018 68.7037Z" fill="black"/>
<path d="M30.7937 69.5165C30.7907 69.5205 30.7378 69.4525 30.6455 69.3243C30.5457 69.1842 30.4126 68.998 30.2492 68.7697C29.9074 68.2792 29.44 67.6084 28.8985 66.8316L28.9635 66.8016C28.9333 67.2921 28.9 67.8247 28.8652 68.3773C28.8289 68.9379 28.7941 69.4785 28.7608 69.977L28.7533 70.0932L28.6958 70.0071C28.1694 69.2202 27.7141 68.5415 27.3813 68.0449C27.2271 67.8087 27.1015 67.6164 27.0062 67.4723C26.92 67.3381 26.8746 67.2621 26.8776 67.2581C26.8807 67.2541 26.9321 67.3221 27.0244 67.4483C27.1227 67.5884 27.2543 67.7726 27.4146 68.0009C27.7519 68.4894 28.2148 69.1601 28.7502 69.937L28.6852 69.965C28.717 69.4665 28.7502 68.9259 28.785 68.3653C28.8213 67.8127 28.8561 67.2801 28.8879 66.7895L28.8954 66.6754L28.9529 66.7615C29.4869 67.5484 29.9467 68.2291 30.284 68.7257C30.4413 68.9619 30.5684 69.1541 30.6637 69.3003C30.7514 69.4365 30.7968 69.5125 30.7937 69.5165Z" fill="black"/>
<path d="M33.6586 69.2483C33.6616 69.2523 33.6253 69.3343 33.5557 69.4865C33.4786 69.6487 33.3757 69.8669 33.2502 70.1332C32.9779 70.6938 32.6043 71.4627 32.1717 72.3517L32.1339 72.2756C32.4999 72.1915 32.8977 72.1014 33.3107 72.0073C33.7297 71.9132 34.135 71.8231 34.5071 71.739L34.5934 71.719L34.545 71.8151C34.1018 72.688 33.7191 73.4409 33.4408 73.9915C33.3061 74.2478 33.1972 74.458 33.1156 74.6142C33.0384 74.7583 32.9961 74.8344 32.9915 74.8324C32.9885 74.8284 33.0248 74.7463 33.0944 74.5961C33.1715 74.434 33.2744 74.2197 33.4014 73.9574C33.6752 73.4028 34.0488 72.642 34.4829 71.761L34.5208 71.8371C34.1487 71.9212 33.7448 72.0133 33.3258 72.1094C32.9129 72.2015 32.5151 72.2916 32.1475 72.3737L32.0613 72.3937L32.1097 72.2976C32.5514 71.4166 32.934 70.6558 33.2124 70.1012C33.3455 69.8409 33.4544 69.6307 33.5376 69.4705C33.6117 69.3223 33.6556 69.2443 33.6586 69.2483Z" fill="black"/>
<path d="M29.8484 73.1285C29.8514 73.1325 29.8151 73.2146 29.7455 73.3668C29.6684 73.5289 29.5655 73.7472 29.44 74.0135C29.1677 74.5741 28.7941 75.3429 28.3615 76.2319L28.3237 76.1558C28.6897 76.0717 29.0876 75.9816 29.5005 75.8875C29.9195 75.7934 30.3249 75.7033 30.697 75.6192L30.7832 75.5992L30.7348 75.6953C30.2916 76.5683 29.9089 77.3211 29.6306 77.8717C29.496 78.128 29.3871 78.3382 29.3054 78.4944C29.2282 78.6386 29.1859 78.7147 29.1813 78.7127C29.1783 78.7086 29.2146 78.6266 29.2842 78.4764C29.3613 78.3142 29.4642 78.1 29.5913 77.8377C29.865 77.2831 30.2386 76.5222 30.6728 75.6413L30.7106 75.7174C30.3385 75.8015 29.9346 75.8935 29.5156 75.9897C29.1027 76.0818 28.7049 76.1719 28.3373 76.2539L28.2511 76.274L28.2995 76.1779C28.7412 75.2969 29.1239 74.5361 29.4022 73.9814C29.5353 73.7212 29.6442 73.5109 29.7274 73.3508C29.8015 73.2026 29.8454 73.1245 29.8484 73.1285Z" fill="black"/>
<path d="M38.0814 69.1922C38.0845 69.1962 38.0481 69.2783 37.9786 69.4304C37.9014 69.5926 37.7986 69.8109 37.673 70.0772C37.4008 70.6378 37.0272 71.4066 36.5945 72.2956L36.5567 72.2195C36.9228 72.1354 37.3206 72.0453 37.7335 71.9512C38.1525 71.8571 38.5579 71.767 38.93 71.6829L39.0162 71.6629L38.9678 71.759C38.5246 72.632 38.1419 73.3848 37.8636 73.9354C37.729 74.1917 37.6201 74.4019 37.5384 74.5581C37.4613 74.7022 37.4189 74.7783 37.4144 74.7763C37.4113 74.7723 37.4476 74.6902 37.5172 74.5401C37.5944 74.3779 37.6972 74.1637 37.8243 73.9014C38.0981 73.3468 38.4717 72.5859 38.9058 71.7049L38.9436 71.781C38.5715 71.8651 38.1676 71.9572 37.7487 72.0533C37.3357 72.1454 36.9379 72.2355 36.5703 72.3176L36.4841 72.3376L36.5325 72.2415C36.9742 71.3606 37.3569 70.5997 37.6352 70.0451C37.7683 69.7848 37.8772 69.5746 37.9604 69.4144C38.0345 69.2683 38.0769 69.1902 38.0814 69.1922Z" fill="black"/>
<path d="M18.8034 65.9887C18.8064 65.9927 18.7701 66.0748 18.7006 66.2269C18.6234 66.3891 18.5206 66.6074 18.395 66.8736C18.1227 67.4343 17.7491 68.2031 17.3165 69.0921L17.2787 69.016C17.6448 68.9319 18.0426 68.8418 18.4555 68.7477C18.8745 68.6536 19.2799 68.5635 19.652 68.4794L19.7382 68.4594L19.6898 68.5555C19.2466 69.4285 18.8639 70.1813 18.5856 70.7319C18.451 70.9882 18.3421 71.1984 18.2604 71.3546C18.1833 71.4987 18.1409 71.5748 18.1364 71.5728C18.1333 71.5688 18.1696 71.4867 18.2392 71.3366C18.3164 71.1744 18.4192 70.9601 18.5463 70.6979C18.8201 70.1432 19.1937 69.3824 19.6278 68.5014L19.6656 68.5775C19.2935 68.6616 18.8896 68.7537 18.4706 68.8498C18.0577 68.9419 17.6599 69.032 17.2923 69.1141L17.2061 69.1341L17.2545 69.038C17.6962 68.1571 18.0789 67.3962 18.3572 66.8416C18.4903 66.5813 18.5992 66.3711 18.6824 66.2109C18.7565 66.0628 18.7989 65.9847 18.8034 65.9887Z" fill="black"/>
<path d="M12.8227 80.9591C12.8257 80.9551 12.8756 81.0272 12.9618 81.1633C13.0541 81.3115 13.1781 81.5077 13.3309 81.75C13.6485 82.2666 14.0842 82.9753 14.5879 83.7962L14.5213 83.8203C14.5758 83.3337 14.6332 82.8052 14.6937 82.2545C14.7573 81.6979 14.8178 81.1613 14.8722 80.6668L14.8858 80.5527L14.9388 80.6428C15.4273 81.4717 15.8494 82.1865 16.1579 82.709C16.3016 82.9573 16.4166 83.1595 16.5043 83.3117C16.5845 83.4539 16.6253 83.532 16.6223 83.536C16.6193 83.54 16.5709 83.4679 16.4846 83.3337C16.3924 83.1856 16.2714 82.9894 16.1201 82.7491C15.807 82.2325 15.3774 81.5257 14.8798 80.7068L14.9463 80.6828C14.8919 81.1774 14.8329 81.7139 14.7709 82.2706C14.7089 82.8192 14.6499 83.3477 14.5939 83.8343L14.5818 83.9484L14.5289 83.8583C14.0342 83.0294 13.6062 82.3126 13.2931 81.788C13.1479 81.5398 13.0299 81.3355 12.9406 81.1834C12.862 81.0412 12.8196 80.9631 12.8227 80.9591Z" fill="black"/>
<path d="M26.4814 71.2664C26.4814 71.2724 26.4087 71.2844 26.2756 71.3005C26.1304 71.3165 25.9383 71.3385 25.7009 71.3665C25.1987 71.4166 24.5104 71.4847 23.7133 71.5628L23.736 71.4767C24.0068 71.813 24.3017 72.1794 24.6073 72.5579C24.9173 72.9443 25.2153 73.3167 25.4891 73.6591L25.5526 73.7392L25.4664 73.7452C24.6738 73.8032 23.9886 73.8533 23.4894 73.8893C23.2535 73.9033 23.0614 73.9133 22.9177 73.9214C22.7846 73.9274 22.712 73.9274 22.712 73.9214C22.712 73.9153 22.7831 73.9033 22.9162 73.8873C23.0599 73.8713 23.252 73.8513 23.4864 73.8252C23.9856 73.7792 24.6693 73.7171 25.4619 73.645L25.4392 73.7311C25.1639 73.3888 24.8644 73.0184 24.5543 72.6339C24.2503 72.2535 23.9553 71.8871 23.6861 71.5487L23.6226 71.4707L23.7088 71.4646C24.5059 71.4006 25.1956 71.3465 25.6978 71.3065C25.9353 71.2905 26.1289 71.2784 26.2741 71.2704C26.4072 71.2604 26.4798 71.2604 26.4814 71.2664Z" fill="black"/>
<path d="M23.1294 81.3576C23.1324 81.3535 23.1824 81.4236 23.2716 81.5578C23.3669 81.7039 23.494 81.8961 23.6498 82.1344C23.975 82.643 24.4212 83.3417 24.937 84.1486L24.8704 84.1747C24.9173 83.6861 24.9672 83.1555 25.0202 82.6049C25.0746 82.0463 25.1276 81.5077 25.176 81.0132L25.1865 80.899L25.241 80.9891C25.7417 81.806 26.1743 82.5088 26.4904 83.0234C26.6371 83.2677 26.7566 83.4679 26.8459 83.616C26.9275 83.7562 26.9699 83.8323 26.9669 83.8363C26.9638 83.8403 26.9139 83.7702 26.8262 83.6381C26.7324 83.4939 26.6069 83.2997 26.4541 83.0634C26.1334 82.5549 25.6933 81.8601 25.1835 81.0532L25.2501 81.0272C25.2032 81.5237 25.1518 82.0603 25.0988 82.6189C25.0444 83.1696 24.9929 83.6981 24.946 84.1867L24.9355 84.3008L24.881 84.2127C24.3743 83.3958 23.9356 82.691 23.615 82.1745C23.4667 81.9282 23.3457 81.73 23.255 81.5798C23.1688 81.4376 23.1264 81.3616 23.1294 81.3576Z" fill="black"/>
<path d="M17.1396 73.9554C17.1396 73.9615 17.067 73.9735 16.9338 73.9915C16.7886 74.0075 16.5965 74.0295 16.3591 74.0576C15.8569 74.1076 15.1686 74.1757 14.3715 74.2538L14.3942 74.1677C14.665 74.504 14.9599 74.8704 15.2655 75.2489C15.5755 75.6353 15.8735 76.0077 16.1473 76.3501L16.2108 76.4302L16.1246 76.4362C15.332 76.4942 14.6468 76.5443 14.1477 76.5803C13.9117 76.5944 13.7196 76.6044 13.5759 76.6124C13.4428 76.6184 13.3702 76.6184 13.3702 76.6124C13.3702 76.6064 13.4413 76.5943 13.5744 76.5783C13.7181 76.5623 13.9102 76.5423 14.1446 76.5163C14.6438 76.4702 15.3275 76.4081 16.1201 76.3361L16.0974 76.4222C15.8221 76.0798 15.5226 75.7094 15.2125 75.325C14.9085 74.9445 14.6135 74.5781 14.3443 74.2398L14.2808 74.1617L14.367 74.1557C15.1641 74.0916 15.8539 74.0375 16.356 73.9975C16.5935 73.9815 16.7871 73.9695 16.9323 73.9615C17.0654 73.9514 17.138 73.9514 17.1396 73.9554Z" fill="black"/>
<path d="M22.2854 81.1293C22.2854 81.1353 22.2128 81.1473 22.0797 81.1653C21.9345 81.1814 21.7424 81.2034 21.5049 81.2314C21.0028 81.2815 20.3145 81.3495 19.5174 81.4276L19.5401 81.3415C19.8108 81.6779 20.1058 82.0443 20.4113 82.4227C20.7214 82.8091 21.0194 83.1816 21.2932 83.5239L21.3567 83.604L21.2705 83.61C20.4779 83.6681 19.7927 83.7181 19.2935 83.7542C19.0576 83.7682 18.8655 83.7782 18.7218 83.7862C18.5887 83.7922 18.5161 83.7922 18.5161 83.7862C18.5161 83.7802 18.5871 83.7682 18.7203 83.7522C18.8639 83.7362 19.056 83.7161 19.2905 83.6901C19.7897 83.6441 20.4733 83.582 21.2659 83.5099L21.2433 83.596C20.968 83.2536 20.6685 82.8832 20.3584 82.4988C20.0544 82.1184 19.7594 81.752 19.4902 81.4136L19.4266 81.3355L19.5129 81.3295C20.31 81.2654 20.9997 81.2114 21.5019 81.1713C21.7394 81.1553 21.933 81.1433 22.0782 81.1353C22.2128 81.1253 22.2854 81.1233 22.2854 81.1293Z" fill="black"/>
<path d="M33.9037 62.8792C33.9037 62.8852 33.8311 62.8972 33.6979 62.9133C33.5527 62.9293 33.3606 62.9513 33.1232 62.9793C32.621 63.0294 31.9328 63.0975 31.1356 63.1755L31.1583 63.0895C31.4291 63.4258 31.724 63.7922 32.0296 64.1706C32.3396 64.5571 32.6376 64.9295 32.9114 65.2719L32.9749 65.3519L32.8887 65.3579C32.0961 65.416 31.4109 65.4661 30.9117 65.5021C30.6758 65.5161 30.4837 65.5261 30.34 65.5341C30.2069 65.5402 30.1343 65.5402 30.1343 65.5341C30.1343 65.5281 30.2054 65.5161 30.3385 65.5001C30.4822 65.4841 30.6743 65.4641 30.9087 65.438C31.4079 65.392 32.0916 65.3299 32.8842 65.2578L32.8615 65.3439C32.5862 65.0016 32.2867 64.6312 31.9766 64.2467C31.6726 63.8663 31.3776 63.4999 31.1084 63.1615L31.0449 63.0834L31.1311 63.0774C31.9282 63.0134 32.618 62.9593 33.1201 62.9193C33.3576 62.9032 33.5512 62.8912 33.6964 62.8832C33.8311 62.8732 33.9037 62.8732 33.9037 62.8792Z" fill="black"/>
<path d="M28.2526 81.1293C28.2526 81.1293 30.7983 80.1582 31.6393 79.8739C31.9675 79.7638 33.3727 80.7449 34.3438 81.5598C34.3438 81.5598 35.6809 82.6089 35.572 82.9333C35.4525 83.2897 34.9594 83.2156 34.1744 82.7271C34.1744 82.7271 34.4482 83.7822 33.9097 83.7582C33.9097 83.7582 34.1774 84.8974 33.6722 85.0156C33.167 85.1337 33.049 83.6801 32.6028 83.6C32.1581 83.5219 31.2369 83.4418 31.2369 83.4418C31.2369 83.4418 30.47 85.1217 29.8771 85.2398C29.2827 85.358 27.9077 85.1457 27.9077 85.1457L28.2526 81.1293Z" fill="#FFBE9D"/>
<path d="M32.5952 81.3615C32.6073 81.3375 32.925 81.5758 33.3062 81.8941C33.6873 82.2125 33.9868 82.4888 33.9747 82.5148C33.9626 82.5388 33.645 82.3006 33.2638 81.9822C32.8841 81.6639 32.5847 81.3876 32.5952 81.3615Z" fill="#EB996E"/>
<path d="M32.4455 82.0103C32.4546 81.9843 32.8327 82.1885 33.2895 82.4688C33.7463 82.7471 34.1093 82.9954 34.1003 83.0214C34.0912 83.0474 33.713 82.8432 33.2562 82.5629C32.7994 82.2846 32.4364 82.0363 32.4455 82.0103Z" fill="#EB996E"/>
<path d="M32.7177 83.58C32.7208 83.552 32.9779 83.574 33.2925 83.6321C33.6071 83.6882 33.8597 83.7582 33.8567 83.7863C33.8537 83.8143 33.5966 83.7923 33.2819 83.7342C32.9673 83.6781 32.7147 83.6101 32.7177 83.58Z" fill="#EB996E"/>
<path d="M24.9416 46.3811C25.0005 46.6394 24.934 46.9397 24.7782 47.1119C24.6224 47.2861 24.3864 47.3201 24.2049 47.2C23.8601 46.9677 23.8162 46.339 23.8843 45.8345C23.9523 45.3299 24.0809 44.7933 23.9221 44.3268C23.7996 43.9704 23.5348 43.7442 23.3291 43.4639C22.9691 42.9753 22.7786 42.2625 22.8663 41.5898C22.954 40.9171 23.3352 40.3124 23.8313 40.1302C24.338 39.942 24.9627 40.1482 25.3394 39.6637C25.6131 39.3113 25.6298 38.7347 25.8416 38.3162C26.1698 37.6635 26.8641 37.5614 27.4509 37.6675C28.0378 37.7736 28.6338 38.0219 29.2086 37.8337C29.6881 37.6755 30.0829 37.233 30.5321 36.9607C31.5062 36.3701 32.7526 36.6904 33.4892 37.7195C34.2274 38.7487 34.4013 40.4125 33.9052 41.6699C33.7267 42.1224 33.4574 42.5308 33.102 42.723" fill="#263238"/>
<path d="M27.8608 62.9193C29.4854 62.9173 30.7953 61.1573 30.7741 59.007L30.7363 55.3269C30.7363 55.3269 33.0717 55.0166 33.2275 51.9532C33.3818 48.8898 33.2699 41.8221 33.2699 41.8221C30.6516 40.1042 27.5356 40.3945 25.1261 42.5849L24.7691 42.9093L24.9431 59.1151C24.9642 61.2254 26.2651 62.9213 27.8608 62.9193Z" fill="#FFBE9D"/>
<path d="M32.6543 47.3682C32.2429 47.2601 32.2459 46.5573 32.6588 46.4572C32.677 46.4532 32.6966 46.4532 32.7148 46.4572C33.1262 46.5653 33.1232 47.2681 32.7103 47.3682C32.6936 47.3742 32.6724 47.3742 32.6543 47.3682Z" fill="#263238"/>
<path d="M33.1095 46.3911C33.0717 46.4411 32.8539 46.1929 32.5348 46.1688C32.2156 46.1368 31.9751 46.345 31.9418 46.289C31.9252 46.263 31.966 46.1709 32.0704 46.0767C32.1733 45.9826 32.3472 45.8986 32.5469 45.9146C32.745 45.9326 32.9099 46.0467 33.0022 46.1588C33.0974 46.269 33.1277 46.3691 33.1095 46.3911Z" fill="#263238"/>
<path d="M29.4188 46.4932C29.5716 46.6334 29.6094 46.9117 29.5035 47.1139C29.3977 47.3161 29.1874 47.3662 29.0346 47.226C28.8819 47.0859 28.844 46.8076 28.9499 46.6054C29.0558 46.4031 29.2661 46.3531 29.4188 46.4932Z" fill="#263238"/>
<path d="M29.6291 46.5132C29.5913 46.5633 29.3735 46.315 29.0543 46.291C28.7351 46.2589 28.4946 46.4672 28.4614 46.4111C28.4447 46.3851 28.4856 46.293 28.5899 46.1989C28.6928 46.1048 28.8667 46.0207 29.0664 46.0367C29.2645 46.0547 29.4294 46.1688 29.5217 46.281C29.617 46.3911 29.6472 46.4912 29.6291 46.5132Z" fill="#263238"/>
<path d="M30.765 50.0892C30.7635 50.0551 30.9632 50.0171 31.2869 49.9811C31.3716 49.9751 31.4366 49.955 31.4457 49.895C31.4638 49.8289 31.4366 49.7088 31.3988 49.5746C31.3277 49.2903 31.2566 49 31.1825 48.6977C30.8845 47.4503 30.6818 46.4232 30.7287 46.4031C30.7771 46.3831 31.057 47.3782 31.3549 48.6256C31.4245 48.9299 31.4926 49.2202 31.5576 49.5065C31.5833 49.6367 31.6348 49.7889 31.5849 49.9691C31.5576 50.0592 31.4896 50.1192 31.4336 50.1352C31.3776 50.1533 31.3307 50.1493 31.2899 50.1493C30.9662 50.1432 30.765 50.1212 30.765 50.0892Z" fill="#263238"/>
<path d="M29.7092 50.4796C30.1176 50.7299 30.6047 51.0422 31.2491 51.1944C31.2491 51.1944 30.8437 51.9552 30.1902 51.5828C29.5096 51.1984 29.7092 50.4796 29.7092 50.4796Z" fill="white"/>
<path d="M30.7408 55.2809C30.7408 55.2809 29.2706 55.3329 27.7686 53.9274C27.7686 53.9274 28.3917 56.1859 30.7136 56.0757L30.7408 55.2809Z" fill="#EB996E"/>
<path d="M33.285 42.5949C33.285 42.5949 31.8874 43.5359 30.0329 42.3686C28.8168 41.6038 27.4056 41.2514 27.1015 41.5798C26.796 41.9081 26.7551 43.5539 25.5693 44.0645C25.5693 44.0645 25.6978 47.1979 24.751 47.1098C23.8041 47.0218 24.3244 42.1504 24.3244 42.1504L26.613 40.5967L29.1254 39.9019L31.5077 40.2843L33.3561 40.903L33.285 42.5949Z" fill="#263238"/>
<path d="M24.9219 46.1028C24.8841 46.0768 23.3564 45.366 23.3201 47.4643C23.2838 49.5646 24.8841 49.1782 24.8886 49.1181C24.8932 49.058 24.9219 46.1028 24.9219 46.1028Z" fill="#FFBE9D"/>
<path d="M24.4182 48.3092C24.4107 48.3032 24.3895 48.3332 24.3426 48.3612C24.2972 48.3873 24.2186 48.4033 24.1354 48.3612C23.969 48.2752 23.8344 47.9188 23.8328 47.5403C23.8313 47.3481 23.8646 47.1679 23.9191 47.0198C23.9705 46.8676 24.0476 46.7635 24.1323 46.7455C24.217 46.7214 24.276 46.7915 24.2942 46.8516C24.3138 46.9117 24.3033 46.9517 24.3123 46.9557C24.3169 46.9617 24.3471 46.9217 24.335 46.8336C24.329 46.7915 24.3108 46.7415 24.2745 46.6994C24.2367 46.6574 24.1823 46.6353 24.1233 46.6414C24.0007 46.6494 23.8888 46.7955 23.8298 46.9577C23.7648 47.1219 23.7239 47.3261 23.7239 47.5403C23.727 47.9628 23.8843 48.3653 24.1112 48.4594C24.2216 48.5014 24.3154 48.4594 24.3653 48.4113C24.4137 48.3592 24.4228 48.3132 24.4182 48.3092Z" fill="#EB996E"/>
<path d="M24.1142 39.5295C24.1051 39.5055 24.3653 39.4074 24.6648 39.5555C24.9643 39.7017 25.1125 40.002 25.0943 40.012C25.0777 40.0341 24.9143 39.7858 24.6375 39.6536C24.3638 39.5155 24.1172 39.5615 24.1142 39.5295Z" fill="#263238"/>
<path d="M25.0686 38.2721C25.0959 38.2741 25.0535 38.7146 25.108 39.2392C25.1624 39.7698 25.35 40.1382 25.3288 40.1542C25.3212 40.1622 25.2638 40.0801 25.1957 39.9219C25.1291 39.7658 25.058 39.5275 25.0293 39.2552C24.9733 38.7066 25.0535 38.2681 25.0686 38.2721Z" fill="#263238"/>
<path d="M31.5864 45.382C31.5773 45.3579 31.6454 45.2859 31.7739 45.2158C31.9025 45.1457 32.0931 45.0876 32.3064 45.0896C32.5196 45.0937 32.7087 45.1577 32.8358 45.2298C32.9628 45.3019 33.0309 45.376 33.0218 45.402C33.0022 45.4581 32.6966 45.2999 32.3049 45.2979C31.9131 45.2879 31.6045 45.438 31.5864 45.382Z" fill="#263238"/>
<path d="M28.0499 44.9415C28.0409 44.9175 28.1089 44.8454 28.2375 44.7753C28.3661 44.7052 28.5567 44.6472 28.7699 44.6492C28.9832 44.6532 29.1723 44.7172 29.2993 44.7893C29.4264 44.8614 29.4945 44.9355 29.4854 44.9615C29.4657 45.0176 29.1602 44.8594 28.7684 44.8574C28.3767 44.8474 28.0681 44.9975 28.0499 44.9415Z" fill="#263238"/>
<path d="M31.3126 45.7123C31.3141 45.7143 31.3171 45.7584 31.3186 45.8365C31.3201 45.9246 31.3231 46.0367 31.3262 46.1749C31.3292 46.323 31.3307 46.4992 31.3337 46.7014C31.3337 46.9037 31.3428 47.1399 31.4094 47.3822C31.4729 47.6224 31.5818 47.8707 31.7436 48.081C31.907 48.2872 32.1203 48.4594 32.3683 48.5355C32.4924 48.5735 32.6225 48.5935 32.7556 48.5795C32.8887 48.5715 33.0233 48.5355 33.1519 48.4694C33.4105 48.3432 33.645 48.097 33.8038 47.7706C33.9551 47.4603 34.0231 47.0979 34.0171 46.7455C34.0171 46.3871 34.0186 46.0407 34.0186 45.7103L34.0549 45.7584C33.2623 45.7484 32.5846 45.7404 32.0915 45.7344C31.8556 45.7284 31.665 45.7244 31.5213 45.7204C31.4608 45.7184 31.4094 45.7164 31.367 45.7144C31.3337 45.7164 31.3141 45.7143 31.3126 45.7123C31.3095 45.7083 31.3776 45.7043 31.5077 45.7003C31.6483 45.6963 31.8359 45.6923 32.0688 45.6863C32.5665 45.6803 33.2532 45.6723 34.0564 45.6623H34.0927V45.7103C34.0927 46.0407 34.0942 46.3871 34.0942 46.7455C34.1033 47.1099 34.0307 47.5003 33.8703 47.8267C33.7024 48.1711 33.4529 48.4333 33.1791 48.5635C33.043 48.6336 32.9008 48.6696 32.7601 48.6776C32.6194 48.6896 32.4818 48.6696 32.3517 48.6276C32.09 48.5455 31.8662 48.3613 31.6983 48.141C31.5304 47.9168 31.4199 47.6565 31.3564 47.4022C31.2914 47.1479 31.2853 46.9037 31.2899 46.6934C31.2929 46.4872 31.2959 46.307 31.2974 46.1548C31.3005 46.0187 31.3035 45.9086 31.305 45.8205C31.3095 45.7484 31.311 45.7103 31.3126 45.7123Z" fill="#263238"/>
<path d="M27.6052 45.6082C27.6067 45.6102 27.6098 45.6543 27.6113 45.7324C27.6128 45.8205 27.6158 45.9326 27.6188 46.0707C27.6219 46.2189 27.6234 46.3951 27.6264 46.5973C27.6264 46.7995 27.6355 47.0358 27.702 47.2781C27.7655 47.5183 27.8745 47.7666 28.0363 47.9768C28.1997 48.1831 28.4129 48.3552 28.661 48.4313C28.785 48.4694 28.9151 48.4894 29.0482 48.4754C29.1813 48.4674 29.316 48.4313 29.4445 48.3653C29.7032 48.2391 29.9376 47.9928 30.0965 47.6665C30.2477 47.3561 30.3158 46.9937 30.3097 46.6414C30.3097 46.283 30.3112 45.9366 30.3112 45.6062L30.3475 45.6543C29.5549 45.6443 28.8773 45.6363 28.3842 45.6302C28.1482 45.6242 27.9576 45.6202 27.814 45.6162C27.7534 45.6142 27.702 45.6122 27.6597 45.6102C27.6249 45.6122 27.6067 45.6102 27.6052 45.6082C27.6022 45.6042 27.6703 45.6002 27.8003 45.5962C27.941 45.5922 28.1286 45.5882 28.3615 45.5822C28.8592 45.5762 29.5459 45.5682 30.3491 45.5582H30.3854V45.6062C30.3854 45.9366 30.3869 46.283 30.3869 46.6414C30.3959 47.0058 30.3233 47.3962 30.163 47.7226C29.9951 48.0669 29.7455 48.3292 29.4718 48.4594C29.3356 48.5294 29.1934 48.5655 29.0528 48.5735C28.9121 48.5855 28.7744 48.5655 28.6444 48.5234C28.3827 48.4413 28.1588 48.2571 27.9909 48.0369C27.823 47.8126 27.7126 47.5524 27.6491 47.2981C27.584 47.0438 27.578 46.7995 27.5825 46.5893C27.5856 46.3831 27.5886 46.2029 27.5901 46.0507C27.5931 45.9146 27.5961 45.8044 27.5977 45.7163C27.6007 45.6443 27.6022 45.6062 27.6052 45.6082Z" fill="#263238"/>
<path d="M31.3459 45.8585C31.3459 45.8865 31.1114 45.9106 30.824 45.9106C30.5351 45.9106 30.3022 45.8865 30.3022 45.8585C30.3022 45.8305 30.5366 45.8065 30.824 45.8065C31.1129 45.8065 31.3459 45.8305 31.3459 45.8585Z" fill="#263238"/>
<path d="M24.7131 45.8865C24.7131 45.8585 25.3605 45.8325 26.1592 45.8285C26.9578 45.8245 27.6052 45.8465 27.6052 45.8745C27.6052 45.9026 26.9578 45.9286 26.1592 45.9326C25.3605 45.9346 24.7131 45.9146 24.7131 45.8865Z" fill="#263238"/>
<path d="M53.7746 48.3734L49.2716 46.233L44.8125 48.3454C44.2437 48.7017 43.7446 48.914 43.7446 49.6168V53.1126C43.7446 55.5393 44.2256 57.9459 45.2133 60.0683C46.0452 61.8542 47.3324 63.6942 49.3154 64.8635C51.1381 64.0807 52.4979 61.9904 53.3299 60.2044C54.3176 58.0801 54.7986 55.6754 54.7986 53.2488V50.1053C54.8001 49.1022 54.3993 48.6137 53.7746 48.3734Z" fill="#92E3A9" stroke="#263238" stroke-miterlimit="10" stroke-linecap="round" stroke-linejoin="round"/>
<path d="M49.3154 62.8333C47.7469 61.9083 46.7274 60.4206 46.0694 59.0071C45.2874 57.3272 44.9078 55.4251 44.9078 53.503V51.0523C44.9078 50.4977 45.1604 49.9772 45.664 49.6668L49.2731 47.8808L49.2716 46.233L44.8125 48.3454C44.3451 48.6157 43.7446 48.914 43.7446 49.6168V53.1126C43.7446 55.5393 44.2256 57.9459 45.2133 60.0683C46.0452 61.8542 47.3324 63.6942 49.3154 64.8635V62.8333Z" fill="#92E3A9" stroke="#263238" stroke-miterlimit="10" stroke-linecap="round" stroke-linejoin="round"/>
<path d="M49.3154 64.8614C49.6316 64.7213 49.922 64.5611 50.2003 64.3588C50.9475 63.8203 51.5858 63.0794 52.0729 62.4087C52.6174 61.6599 53.0228 60.849 53.3752 60.0922C54.3629 57.9678 54.8439 55.5632 54.8001 53.0704L54.8031 50.1852C54.8001 48.7477 54.2434 48.6415 53.7761 48.3713L49.2731 46.2309L49.2746 47.8787L52.926 49.6947C53.4282 50.0051 53.6823 50.5256 53.6823 51.0802V53.5309C53.6823 55.451 53.3026 57.3531 52.5206 59.035C51.8626 60.4485 50.887 61.9061 49.3184 62.8312V64.8614H49.3154Z" fill="#799093" stroke="#263238" stroke-width="0.75" stroke-miterlimit="10"/>
<path opacity="0.5" d="M50.4665 53.3487L50.471 52.8762C50.471 52.0233 49.9462 51.3285 49.3018 51.3285C48.6574 51.3285 48.1326 52.0233 48.1326 52.8742L48.128 53.3547C47.8119 53.4168 47.5699 53.7752 47.5699 54.2097V56.9927C47.5699 57.4713 47.8633 57.8597 48.2233 57.8597H50.406C50.7675 57.8597 51.0609 57.4713 51.0609 56.9927V54.2097C51.0609 53.7572 50.7993 53.3888 50.4665 53.3487ZM49.6149 56.3H49.0447L49.1339 55.7554C49.0356 55.6733 48.969 55.5291 48.969 55.3649C48.969 55.1107 49.1248 54.9044 49.3169 54.9044C49.509 54.9044 49.6648 55.1107 49.6648 55.3649C49.6648 55.5251 49.6043 55.6653 49.5105 55.7474C49.5499 55.9576 49.6149 56.3 49.6149 56.3ZM50.2154 53.3447H48.3806L48.3852 52.8762C48.3852 52.2075 48.7966 51.6629 49.3018 51.6629C49.807 51.6629 50.2184 52.2075 50.2184 52.8742L50.2154 53.3447Z" fill="white"/>
<path d="M45.6384 53.3147C45.6278 53.3167 45.5975 53.1325 45.5703 52.8301C45.5431 52.5278 45.5234 52.1073 45.534 51.6428C45.5385 51.4106 45.5506 51.1903 45.5657 50.9901C45.5809 50.7899 45.6081 50.6037 45.6671 50.4635C45.7246 50.3234 45.8047 50.2393 45.8637 50.2012C45.9242 50.1632 45.9636 50.1652 45.9636 50.1712C45.9711 50.1852 45.8108 50.2253 45.717 50.4976C45.6701 50.6277 45.6489 50.8019 45.6384 51.0001C45.6263 51.1983 45.6172 51.4166 45.6126 51.6468C45.602 52.1073 45.6126 52.5238 45.6262 52.8241C45.6383 53.1245 45.6489 53.3127 45.6384 53.3147Z" fill="white"/>
<path d="M45.7034 54.8344C45.6822 54.8344 45.6625 54.6922 45.6595 54.514C45.6565 54.3358 45.6716 54.1917 45.6943 54.1917C45.7155 54.1917 45.7351 54.3338 45.7382 54.512C45.7412 54.6902 45.7261 54.8344 45.7034 54.8344Z" fill="white"/>
<path d="M40.9539 69.2482L35.9321 85.6843H26.8792V86.4251H53.8442L59.3606 69.2482H40.9539Z" fill="#263238"/>
<path d="M48.6273 78.9509C48.4458 79.7778 47.9148 80.3004 47.4444 80.1202C46.9725 79.938 46.738 79.1211 46.9196 78.2942C47.1011 77.4673 47.6305 76.9447 48.1024 77.1249C48.5743 77.3071 48.8103 78.124 48.6273 78.9509Z" fill="#FAFAFA"/>
</g>
<defs>
<clipPath id="clip0_38_34">
<rect width="72.7541" height="86.7435" fill="white" transform="translate(0.452698)"/>
</clipPath>
</defs>
</svg>
