<svg width="4" height="3" viewBox="0 0 4 3" fill="none" xmlns="http://www.w3.org/2000/svg">
<path d="M3.83075 0.0481625C3.83075 0.0541654 3.75819 0.0661738 3.62517 0.0821815C3.48005 0.0981891 3.28807 0.120197 3.05074 0.14821C2.54887 0.198234 1.86107 0.266269 1.06443 0.344306L1.08711 0.258267C1.35769 0.594427 1.65246 0.960601 1.95782 1.33878C2.26771 1.72497 2.5655 2.09714 2.83911 2.43931L2.9026 2.51935L2.81644 2.52535C2.02433 2.58338 1.33955 2.6334 0.840709 2.66942C0.604891 2.68342 0.412912 2.69343 0.269305 2.70143C0.13628 2.70744 0.0637207 2.70744 0.0637207 2.70143C0.0637207 2.69543 0.134769 2.68343 0.267794 2.66742C0.411401 2.65141 0.603381 2.6314 0.837687 2.60538C1.33653 2.55936 2.0198 2.49733 2.8119 2.4253L2.78923 2.51134C2.51411 2.16918 2.2148 1.799 1.90491 1.41482C1.60107 1.03464 1.3063 0.66846 1.03722 0.330298L0.973735 0.252264L1.0599 0.246261C1.85654 0.182231 2.54585 0.128203 3.04772 0.0881841C3.28505 0.0721764 3.47854 0.0601722 3.62366 0.0521683C3.75819 0.0421635 3.83075 0.0421596 3.83075 0.0481625Z" fill="black"/>
</svg>
