<svg width="3" height="5" viewBox="0 0 3 5" fill="none" xmlns="http://www.w3.org/2000/svg">
<path d="M1.74428 4.59445C1.74044 4.59445 1.74556 4.51316 1.75835 4.36243C1.7737 4.20154 1.7929 3.98645 1.8172 3.72225C1.8735 3.16337 1.95027 2.39787 2.03983 1.51044L2.08973 1.55109C1.83128 1.78988 1.55236 2.049 1.26193 2.31828C0.966379 2.59095 0.682343 2.85176 0.420058 3.09394L0.359924 3.14982L0.371439 3.05329C0.472514 2.17433 0.560797 1.4156 0.624769 0.8618C0.656755 0.600988 0.683623 0.389289 0.704094 0.230092C0.723285 0.0827507 0.736079 0.00315468 0.739918 0.00484826C0.743756 0.00484826 0.738638 0.0861377 0.725844 0.235173C0.710491 0.396063 0.690019 0.609454 0.66571 0.870265C0.608135 1.42576 0.52753 2.18618 0.435411 3.06684L0.385513 3.0262C0.646518 2.78401 0.930554 2.52151 1.2261 2.24715C1.51654 1.97956 1.79673 1.72044 2.05518 1.48334L2.11531 1.42745L2.10508 1.52399C2.00656 2.40804 1.92212 3.17354 1.85943 3.73073C1.82744 3.99323 1.80185 4.20662 1.78266 4.36751C1.75963 4.51485 1.74684 4.59615 1.74428 4.59445Z" fill="black"/>
</svg>
