<svg width="28" height="45" viewBox="0 0 28 45" fill="none" xmlns="http://www.w3.org/2000/svg">
<path d="M6.00215 24.3766C5.03112 23.7956 3.91852 23.4305 2.77926 23.3194C2.25294 23.2686 1.67665 23.2829 1.25526 23.5861C1.16532 23.6512 1.07871 23.7464 1.0987 23.8512C1.11369 23.929 1.18198 23.9845 1.2486 24.0322C2.55774 24.9862 4.54144 25.1069 6.00215 24.3766Z" fill="#92E3A9" stroke="black" stroke-width="0.25" stroke-miterlimit="10"/>
<path d="M5.9189 24.2893C5.18938 23.7464 4.45486 23.2003 3.83693 22.5431C3.219 21.8859 2.716 21.1064 2.53112 20.2428C2.47449 19.9809 2.45783 19.6809 2.63438 19.4729C4.29496 20.7095 5.59911 22.3065 5.9189 24.2893Z" fill="#92E3A9" stroke="black" stroke-width="0.25" stroke-miterlimit="10"/>
<path d="M5.98548 24.3655C5.86056 23.5003 5.81559 22.6113 6.02378 21.7605C6.23198 20.9096 6.71833 20.0952 7.4795 19.611C7.76598 20.2492 7.64273 20.9858 7.44119 21.6541C7.12973 22.686 6.64005 23.6686 5.99714 24.5512" fill="#92E3A9"/>
<path d="M5.98548 24.3655C5.86056 23.5003 5.81559 22.6113 6.02378 21.7605C6.23198 20.9096 6.71833 20.0952 7.4795 19.611C7.76598 20.2492 7.64273 20.9858 7.44119 21.6541C7.12973 22.686 6.64005 23.6686 5.99714 24.5512" stroke="black" stroke-width="0.25" stroke-miterlimit="10"/>
<path d="M7.61106 27.1436C6.62338 27.2579 5.76394 27.7548 5.02609 28.3898C4.28824 29.0264 3.76525 29.8836 3.54706 30.8091C4.51642 30.7519 5.33755 30.1011 5.93383 29.3708C6.53011 28.6406 6.94317 27.8405 7.59774 27.1579" fill="#92E3A9"/>
<path d="M7.61106 27.1436C6.62338 27.2579 5.76394 27.7548 5.02609 28.3898C4.28824 29.0264 3.76525 29.8836 3.54706 30.8091C4.51642 30.7519 5.33755 30.1011 5.93383 29.3708C6.53011 28.6406 6.94317 27.8405 7.59774 27.1579" stroke="black" stroke-width="0.25" stroke-miterlimit="10"/>
<path d="M7.96584 27.5882C7.16969 25.7213 7.45784 23.4702 8.70202 21.8399C9.26332 23.7465 9.05679 25.9023 7.96584 27.5882Z" fill="#92E3A9" stroke="black" stroke-width="0.25" stroke-miterlimit="10"/>
<path d="M10.1145 30.0265C9.21839 29.9741 8.30732 30.1773 7.5295 30.6043C6.75167 31.0313 6.10876 31.6806 5.70736 32.4458C5.65239 32.5505 5.60409 32.6823 5.67738 32.776C5.74067 32.8569 5.86392 32.8649 5.96885 32.8585C6.83828 32.8045 7.60778 32.3061 8.24237 31.7393C8.87695 31.1726 9.43159 30.517 10.1328 30.0265" fill="#92E3A9"/>
<path d="M10.1145 30.0265C9.21839 29.9741 8.30732 30.1773 7.5295 30.6043C6.75167 31.0313 6.10876 31.6806 5.70736 32.4458C5.65239 32.5505 5.60409 32.6823 5.67738 32.776C5.74067 32.8569 5.86392 32.8649 5.96885 32.8585C6.83828 32.8045 7.60778 32.3061 8.24237 31.7393C8.87695 31.1726 9.43159 30.517 10.1328 30.0265" stroke="black" stroke-width="0.25" stroke-miterlimit="10"/>
<path d="M10.0461 29.8931C9.58312 28.4834 9.5548 26.9468 9.96453 25.5228C10.1261 24.9608 10.3976 24.3671 10.9439 24.1036C10.9905 24.0814 11.0455 24.0607 11.0938 24.0782C11.1404 24.0941 11.1671 24.1401 11.1887 24.183C11.3836 24.5703 11.4402 25.0085 11.4202 25.4371C11.4003 25.8657 11.307 26.2864 11.2137 26.707C11.0422 27.4833 10.9506 28.3168 10.5042 28.9851C10.3976 29.1438 10.3043 29.3153 10.221 29.4851C10.1361 29.655 10.1361 29.7153 10.0578 29.8503" fill="#92E3A9"/>
<path d="M10.0461 29.8931C9.58312 28.4834 9.5548 26.9468 9.96453 25.5228C10.1261 24.9608 10.3976 24.3671 10.9439 24.1036C10.9905 24.0814 11.0455 24.0607 11.0938 24.0782C11.1404 24.0941 11.1671 24.1401 11.1887 24.183C11.3836 24.5703 11.4402 25.0085 11.4202 25.4371C11.4003 25.8657 11.307 26.2864 11.2137 26.707C11.0422 27.4833 10.9506 28.3168 10.5042 28.9851C10.3976 29.1438 10.3043 29.3153 10.221 29.4851C10.1361 29.655 10.1361 29.7153 10.0578 29.8503" stroke="black" stroke-width="0.25" stroke-miterlimit="10"/>
<path d="M15.7357 30.7011C15.3143 29.1724 15.7624 27.3198 16.7717 26.0673C16.8467 25.9752 16.9449 25.8768 17.0665 25.8863C17.2531 25.9022 17.3014 26.1387 17.293 26.3165C17.2198 27.8802 16.6718 29.4185 15.7357 30.7011Z" fill="#92E3A9" stroke="black" stroke-width="0.25" stroke-miterlimit="10"/>
<path d="M16.2487 31.0361C18.1975 31.5187 20.431 31.0504 22.0516 29.9106C21.0922 29.447 19.9597 29.3137 18.9103 29.5439C17.861 29.7725 16.9017 30.2201 16.2487 31.0361Z" fill="#92E3A9" stroke="black" stroke-width="0.25" stroke-miterlimit="10"/>
<path d="M16.6802 30.0185C17.7711 28.3231 19.8631 27.2166 21.9467 27.1166C21.7069 27.9246 21.0107 28.5517 20.2245 28.9311C19.4384 29.3105 18.5606 29.4756 17.6962 29.6359C17.3597 29.6978 16.8984 29.7661 16.6802 30.0185Z" fill="#92E3A9" stroke="black" stroke-width="0.25" stroke-miterlimit="10"/>
<path d="M15.844 25.0815C16.1388 24.1163 16.437 23.1432 16.5169 22.1415C16.5985 21.1398 16.4486 20.0936 15.9023 19.2332C14.883 21.1128 14.7797 23.3083 15.8124 25.1815" fill="#92E3A9"/>
<path d="M15.844 25.0815C16.1388 24.1163 16.437 23.1432 16.5169 22.1415C16.5985 21.1398 16.4486 20.0936 15.9023 19.2332C14.883 21.1128 14.7797 23.3083 15.8124 25.1815" stroke="black" stroke-width="0.25" stroke-miterlimit="10"/>
<path d="M19.2751 23.4273C20.4676 21.3636 22.8977 19.7142 25.3578 19.4824C24.4101 21.735 21.8201 23.4765 19.2751 23.4273Z" fill="#92E3A9" stroke="black" stroke-width="0.25" stroke-miterlimit="10"/>
<path d="M18.5255 23.8321C20.3027 24.0909 21.8167 25.1719 23.479 25.8276C23.8337 25.9673 24.2168 26.08 24.5982 26.0323C24.9797 25.9847 25.3561 25.7402 25.441 25.3831C25.5126 25.0862 25.3711 24.7719 25.1462 24.5544C24.923 24.3369 24.6282 24.202 24.3334 24.0845C22.5246 23.367 20.5842 23.3495 18.6788 23.7845" fill="#92E3A9"/>
<path d="M18.5255 23.8321C20.3027 24.0909 21.8167 25.1719 23.479 25.8276C23.8337 25.9673 24.2168 26.08 24.5982 26.0323C24.9797 25.9847 25.3561 25.7402 25.441 25.3831C25.5126 25.0862 25.3711 24.7719 25.1462 24.5544C24.923 24.3369 24.6282 24.202 24.3334 24.0845C22.5246 23.367 20.5842 23.3495 18.6788 23.7845" stroke="black" stroke-width="0.25" stroke-miterlimit="10"/>
<path d="M17.4963 25.0211C17.8994 25.1307 18.036 25.3291 18.3541 25.5878C19.435 26.4657 20.7309 27.1007 22.11 27.4261C22.2532 27.4595 22.4414 27.4738 22.513 27.3499C22.5746 27.242 22.4964 27.1118 22.4164 27.015C21.8385 26.326 21.0157 25.8561 20.1496 25.5482C19.2835 25.2402 18.5323 24.8703 17.498 24.9497" fill="#92E3A9"/>
<path d="M17.4963 25.0211C17.8994 25.1307 18.036 25.3291 18.3541 25.5878C19.435 26.4657 20.7309 27.1007 22.11 27.4261C22.2532 27.4595 22.4414 27.4738 22.513 27.3499C22.5746 27.242 22.4964 27.1118 22.4164 27.015C21.8385 26.326 21.0157 25.8561 20.1496 25.5482C19.2835 25.2402 18.5323 24.8703 17.498 24.9497" stroke="black" stroke-width="0.25" stroke-miterlimit="10"/>
<path d="M16.3354 17.8441C17.7811 19.13 19.8164 19.7904 21.7851 19.611C21.8751 19.6031 21.9717 19.5888 22.0333 19.5269C22.1699 19.384 22.0066 19.1649 21.8467 19.0458C20.2445 17.8552 18.3041 17.3631 16.3354 17.8441Z" fill="#92E3A9" stroke="black" stroke-width="0.25" stroke-miterlimit="10"/>
<path d="M17.7127 17.3647C19.6232 15.9995 22.2431 15.5884 24.5116 16.2948C23.6555 17.0996 22.468 17.5314 21.2721 17.6505C20.0762 17.7695 18.8786 17.6441 17.7127 17.3647Z" fill="#92E3A9" stroke="black" stroke-width="0.25" stroke-miterlimit="10"/>
<path d="M17.1648 14.0676C17.0082 12.5436 17.1098 11.3403 16.9982 9.80841C16.9899 9.68618 16.9616 9.53854 16.8417 9.49409C16.6751 9.43218 16.5352 9.62903 16.4802 9.79095C16.0039 11.2022 16.2637 12.8214 17.1615 14.0327" fill="#92E3A9"/>
<path d="M17.1648 14.0676C17.0082 12.5436 17.1098 11.3403 16.9982 9.80841C16.9899 9.68618 16.9616 9.53854 16.8417 9.49409C16.6751 9.43218 16.5352 9.62903 16.4802 9.79095C16.0039 11.2022 16.2637 12.8214 17.1615 14.0327" stroke="black" stroke-width="0.25" stroke-miterlimit="10"/>
<path d="M17.0499 14.2358C18.1342 13.5977 18.947 12.7627 19.6981 11.7816C20.2211 11.099 20.6625 10.2814 20.5442 9.44484C19.8097 9.43055 19.1118 9.81631 18.6338 10.3497C18.1558 10.8815 17.8727 11.5467 17.6595 12.2182C17.4479 12.8881 17.2997 13.577 17.0499 14.2358Z" fill="#92E3A9" stroke="black" stroke-width="0.25" stroke-miterlimit="10"/>
<path d="M19.6532 13.5468C22.0316 12.7086 24.2502 11.4609 26.1722 9.88293C25.3928 9.58448 24.5017 9.76228 23.7239 10.0623C21.945 10.7465 20.4926 11.9022 19.6199 13.5294" fill="#92E3A9"/>
<path d="M19.6532 13.5468C22.0316 12.7086 24.2502 11.4609 26.1722 9.88293C25.3928 9.58448 24.5017 9.76228 23.7239 10.0623C21.945 10.7465 20.4926 11.9022 19.6199 13.5294" stroke="black" stroke-width="0.25" stroke-miterlimit="10"/>
<path d="M17.7811 15.0693C18.9836 15.1947 20.2062 15.2756 21.4004 15.0867C22.5746 14.8994 23.6822 14.4565 24.7798 14.0168C24.8715 13.9802 24.9697 13.9374 25.0097 13.8501C25.053 13.7564 25.0064 13.6437 24.9281 13.5739C24.8481 13.5056 24.7432 13.4723 24.6399 13.4453C23.4474 13.1278 22.1616 13.277 20.9873 13.6532C19.8148 14.031 18.8537 14.4787 17.7811 15.0693Z" fill="#92E3A9" stroke="black" stroke-width="0.25" stroke-miterlimit="10"/>
<path d="M10.9106 17.8965C10.0895 16.317 10.1428 14.4739 10.8523 12.8452C11.352 13.5706 11.4119 14.493 11.322 15.3565C11.2304 16.2201 10.9556 17.1075 10.9372 17.9743" fill="#92E3A9"/>
<path d="M10.9106 17.8965C10.0895 16.317 10.1428 14.4739 10.8523 12.8452C11.352 13.5706 11.4119 14.493 11.322 15.3565C11.2304 16.2201 10.9556 17.1075 10.9372 17.9743" stroke="black" stroke-width="0.25" stroke-miterlimit="10"/>
<path d="M7.63105 16.3201C5.58073 16.282 3.5304 17.1154 2.13965 18.5505C3.16231 18.7029 4.21662 18.4521 5.14768 18.0187C6.07874 17.5853 6.90486 16.9773 7.72433 16.3741" fill="#92E3A9"/>
<path d="M7.63105 16.3201C5.58073 16.282 3.5304 17.1154 2.13965 18.5505C3.16231 18.7029 4.21662 18.4521 5.14768 18.0187C6.07874 17.5853 6.90486 16.9773 7.72433 16.3741" stroke="black" stroke-width="0.25" stroke-miterlimit="10"/>
<path d="M5.42583 15.6169C4.42316 15.5391 3.45879 15.4216 2.49442 15.7026C1.53005 15.9836 0.652292 16.6234 0.259216 17.5092C1.19694 17.6092 2.14798 17.3853 3.00742 17.0139C3.86685 16.6424 4.64968 16.1281 5.42583 15.6169Z" fill="#92E3A9" stroke="black" stroke-width="0.25" stroke-miterlimit="10"/>
<path d="M8.69038 15.6488C7.78764 15.0852 6.86158 14.5121 5.81226 14.2788C4.76129 14.0454 3.54541 14.2185 2.81256 14.9725C3.66201 15.4487 4.69466 15.5043 5.68068 15.5027C6.6667 15.5027 7.87591 15.4916 8.80531 15.8043" fill="#92E3A9"/>
<path d="M8.69038 15.6488C7.78764 15.0852 6.86158 14.5121 5.81226 14.2788C4.76129 14.0454 3.54541 14.2185 2.81256 14.9725C3.66201 15.4487 4.69466 15.5043 5.68068 15.5027C6.6667 15.5027 7.87591 15.4916 8.80531 15.8043" stroke="black" stroke-width="0.25" stroke-miterlimit="10"/>
<path d="M8.69537 15.6947C7.15305 14.2517 6.56843 11.6577 7.18969 9.68451C8.40223 11.4403 8.94521 13.6072 8.69537 15.6947Z" fill="#92E3A9" stroke="black" stroke-width="0.25" stroke-miterlimit="10"/>
<path d="M12.9359 11.6054C13.2274 10.9609 13.4306 10.2847 13.6921 9.62903C13.9536 8.9734 14.2767 8.3273 14.7697 7.80661C15.2627 7.28592 15.9439 6.89857 16.6801 6.86365C16.2204 8.84958 14.8363 10.6244 12.9726 11.6165" fill="#92E3A9"/>
<path d="M12.9359 11.6054C13.2274 10.9609 13.4306 10.2847 13.6921 9.62903C13.9536 8.9734 14.2767 8.3273 14.7697 7.80661C15.2627 7.28592 15.9439 6.89857 16.6801 6.86365C16.2204 8.84958 14.8363 10.6244 12.9726 11.6165" stroke="black" stroke-width="0.25" stroke-miterlimit="10"/>
<path d="M12.1698 12.4579C11.6884 11.8261 11.1321 10.9688 10.4792 10.4973C9.82632 10.0259 8.97687 9.74012 8.18073 9.92109C8.9902 11.3022 10.5209 12.2753 12.1698 12.4579Z" fill="#92E3A9" stroke="black" stroke-width="0.25" stroke-miterlimit="10"/>
<path d="M12.323 11.6578C12.0082 10.8942 11.6901 10.1211 11.5618 9.30993C11.4336 8.49714 11.5119 7.63038 11.9483 6.92236C12.7944 8.44793 13.0675 10.0846 12.3663 11.6753" fill="#92E3A9"/>
<path d="M12.323 11.6578C12.0082 10.8942 11.6901 10.1211 11.5618 9.30993C11.4336 8.49714 11.5119 7.63038 11.9483 6.92236C12.7944 8.44793 13.0675 10.0846 12.3663 11.6753" stroke="black" stroke-width="0.25" stroke-miterlimit="10"/>
<path d="M12.9442 6.92078C13.4239 5.4095 14.8763 4.2951 16.4453 3.78393C16.6435 3.71884 16.8534 3.66645 17.0582 3.69662C17.2647 3.72678 17.4679 3.86171 17.5113 4.05697C17.5679 4.31414 17.3464 4.54433 17.1365 4.71578C15.914 5.71112 14.4782 6.46676 12.9442 6.92078Z" fill="#92E3A9" stroke="black" stroke-width="0.25" stroke-miterlimit="10"/>
<path d="M12.9609 5.68569C13.0225 4.71098 13.0858 3.72199 13.4189 2.79808C13.7521 1.87417 14.3933 1.00741 15.326 0.604187C15.4843 1.58842 15.0296 2.56789 14.4799 3.4156C13.9303 4.26332 13.2674 5.0634 12.9376 6.00795" fill="#92E3A9"/>
<path d="M12.9609 5.68569C13.0225 4.71098 13.0858 3.72199 13.4189 2.79808C13.7521 1.87417 14.3933 1.00741 15.326 0.604187C15.4843 1.58842 15.0296 2.56789 14.4799 3.4156C13.9303 4.26332 13.2674 5.0634 12.9376 6.00795" stroke="black" stroke-width="0.25" stroke-miterlimit="10"/>
<path d="M12.9359 6.35563C12.5395 5.25393 12.4979 3.85377 11.8067 2.89335C11.322 2.22185 10.5475 1.76466 10.1311 1.05505C9.85462 1.71862 9.93956 2.48378 10.2294 3.14258C10.5192 3.80139 10.9972 4.36812 11.5102 4.89039C12.0215 5.41267 12.4596 5.80478 12.9359 6.35563Z" fill="#92E3A9" stroke="black" stroke-width="0.25" stroke-miterlimit="10"/>
<path d="M12.9442 38.8067C12.9126 38.8067 12.8859 31.4551 12.8843 22.389C12.8826 13.3198 12.9059 5.96979 12.9359 5.96979C12.9659 5.96979 12.9942 13.3198 12.9959 22.389C12.9992 31.4567 12.9759 38.8067 12.9442 38.8067Z" fill="#92E3A9" stroke="black" stroke-width="0.25" stroke-miterlimit="10"/>
<path d="M19.6849 16.7869C19.6865 16.7933 19.5833 16.8298 19.3951 16.8901C19.1869 16.9568 18.9187 17.0425 18.5973 17.1473C17.9244 17.3663 17 17.6822 15.9973 18.0743C15.0046 18.4807 14.0669 18.8109 13.5339 19.2507C13.2674 19.4681 13.1142 19.7031 13.0392 19.8745C12.9626 20.0476 12.9493 20.1524 12.9393 20.1508C12.936 20.1508 12.936 20.1238 12.9426 20.073C12.951 20.0238 12.9643 19.9492 12.9993 19.8587C13.0642 19.6777 13.2124 19.4253 13.4823 19.1935C13.7504 18.9602 14.1235 18.7506 14.5516 18.5601C14.9796 18.3696 15.4526 18.1712 15.9557 17.9743C16.9617 17.5806 17.8927 17.2758 18.5739 17.0742C18.9137 16.9726 19.1919 16.898 19.3834 16.8488C19.5749 16.8044 19.6815 16.7806 19.6849 16.7869Z" fill="#92E3A9" stroke="black" stroke-width="0.25" stroke-miterlimit="10"/>
<path d="M21.8934 11.6149C21.8967 11.6181 21.8684 11.6467 21.8118 11.6975C21.7468 11.7562 21.6635 11.8293 21.5636 11.9197C21.3337 12.1182 21.0206 12.3896 20.6392 12.7198C19.8414 13.3961 18.7588 14.3152 17.5645 15.3296C16.3637 16.3488 15.326 17.3219 14.6081 18.0537C14.2484 18.4189 13.9652 18.7221 13.772 18.9348C13.6821 19.0332 13.6071 19.1142 13.5488 19.1777C13.4972 19.2332 13.4689 19.2602 13.4656 19.2586C13.4622 19.2571 13.4855 19.2237 13.5322 19.165C13.5788 19.1062 13.6471 19.0173 13.7404 18.9094C13.9236 18.6887 14.1984 18.3776 14.5532 18.0045C15.2594 17.2568 16.2904 16.2726 17.4929 15.2519C18.6971 14.2359 19.7931 13.3231 20.5909 12.6659C20.9823 12.3468 21.3021 12.0833 21.5386 11.8912C21.6435 11.807 21.7301 11.7388 21.8001 11.6848C21.8584 11.6356 21.8917 11.6134 21.8934 11.6149Z" fill="#92E3A9" stroke="black" stroke-width="0.25" stroke-miterlimit="10"/>
<path d="M16.2704 16.3647C16.2388 16.352 16.4903 15.7995 16.7401 15.101C16.9916 14.4025 17.1115 13.8136 17.1432 13.8199C17.1715 13.8231 17.1015 14.4295 16.8467 15.136C16.7218 15.4884 16.5819 15.7995 16.4736 16.0202C16.362 16.2392 16.2837 16.371 16.2704 16.3647Z" fill="#92E3A9" stroke="black" stroke-width="0.25" stroke-miterlimit="10"/>
<path d="M12.9509 20.8143C12.9443 20.819 12.8793 20.746 12.7661 20.6095C12.6411 20.4555 12.4812 20.2618 12.2914 20.0301C11.8933 19.5395 11.3437 18.8633 10.7257 18.1219C10.1078 17.3806 9.5415 16.717 9.13011 16.236C8.9369 16.0074 8.77367 15.8153 8.64542 15.6645C8.53216 15.528 8.4722 15.4518 8.47886 15.447C8.48553 15.4422 8.55548 15.5105 8.67873 15.6391C8.80199 15.7661 8.97687 15.955 9.19007 16.1884C9.61645 16.6567 10.1944 17.3155 10.8123 18.0568C11.4303 18.7982 11.9716 19.484 12.353 19.9856C12.5445 20.2364 12.6961 20.4412 12.7994 20.5857C12.9043 20.7285 12.9576 20.8095 12.9509 20.8143Z" fill="#92E3A9" stroke="black" stroke-width="0.25" stroke-miterlimit="10"/>
<path d="M11.4736 19.0062C11.4552 19.0252 11.0605 18.5791 10.854 17.9013C10.7007 17.4234 10.6941 16.9869 10.7141 16.7869L10.764 16.79C10.7424 16.8758 10.7257 16.9202 10.7174 16.9186C10.7091 16.917 10.7074 16.8694 10.7157 16.7821L10.7657 16.7853C10.784 16.9837 10.8157 17.4044 10.9639 17.8695C11.1604 18.5267 11.5035 18.9887 11.4736 19.0062Z" fill="#92E3A9" stroke="black" stroke-width="0.25" stroke-miterlimit="10"/>
<path d="M9.56647 16.7187C9.55148 16.7329 9.42489 16.5805 9.13342 16.4789C8.84527 16.3726 8.41056 16.3488 7.93254 16.3885C7.45452 16.4218 7.0298 16.5028 6.72333 16.5742C6.41853 16.6456 6.23198 16.7028 6.22532 16.6885C6.22033 16.6758 6.39854 16.5948 6.70168 16.5028C7.00481 16.4123 7.43786 16.317 7.92254 16.2837C8.40556 16.244 8.86193 16.2789 9.16007 16.4107C9.46487 16.5377 9.57646 16.7155 9.56647 16.7187Z" fill="#92E3A9" stroke="black" stroke-width="0.25" stroke-miterlimit="10"/>
<path d="M9.11344 16.1646C9.10511 16.1805 8.86194 16.0678 8.45054 15.9344C8.04081 15.7995 7.45786 15.6598 6.79829 15.6106C6.13872 15.563 5.53911 15.6185 5.11273 15.6916C4.68634 15.7646 4.42817 15.8408 4.42151 15.8233C4.41985 15.817 4.48147 15.7916 4.5964 15.7519C4.71132 15.7106 4.88288 15.6646 5.09607 15.6185C5.52412 15.5249 6.13372 15.4566 6.80495 15.5042C7.47618 15.5534 8.06746 15.709 8.47553 15.863C8.68039 15.9392 8.84195 16.0106 8.94855 16.0678C9.05848 16.1233 9.11677 16.1583 9.11344 16.1646Z" fill="#92E3A9" stroke="black" stroke-width="0.25" stroke-miterlimit="10"/>
<path d="M12.9359 13.8199C12.906 13.8279 12.6894 13.1119 12.4529 12.2213C12.2164 11.3308 12.0482 10.6037 12.0782 10.5958C12.1081 10.5878 12.3247 11.3038 12.5612 12.1944C12.7994 13.0849 12.9659 13.8136 12.9359 13.8199Z" fill="#92E3A9" stroke="black" stroke-width="0.25" stroke-miterlimit="10"/>
<path d="M12.9676 13.8199C12.9343 13.8295 12.796 13.3516 12.4329 12.8627C12.0798 12.3626 11.6285 12.1118 11.6451 12.088C11.6518 12.0769 11.775 12.1197 11.9499 12.2372C12.1248 12.3531 12.3397 12.5484 12.5246 12.8024C12.901 13.3104 12.9942 13.8183 12.9676 13.8199Z" fill="#92E3A9" stroke="black" stroke-width="0.25" stroke-miterlimit="10"/>
<path d="M12.9443 34.8889C12.9326 34.8905 12.9093 34.7127 12.8227 34.4C12.7361 34.0872 12.5745 33.6443 12.308 33.1268C11.775 32.0886 10.8057 30.7726 9.57314 29.455C8.96187 28.7898 8.37059 28.1628 7.86759 27.5627C7.36458 26.9626 6.94985 26.3912 6.64838 25.8863C6.34525 25.3815 6.14871 24.9481 6.03212 24.6418C5.97549 24.4878 5.93385 24.3687 5.91053 24.2862C5.88555 24.2036 5.87556 24.1607 5.87889 24.1592C5.88888 24.156 5.94551 24.3274 6.07209 24.6275C6.19868 24.9275 6.40521 25.3529 6.71501 25.8482C7.02314 26.3451 7.4412 26.9087 7.94587 27.5008C8.45054 28.0945 9.04348 28.7184 9.65475 29.3851C10.8906 30.7059 11.8566 32.0394 12.3763 33.0935C12.6378 33.6205 12.7894 34.0714 12.8626 34.3889C12.8976 34.5476 12.9226 34.6714 12.9309 34.7571C12.9443 34.8429 12.9476 34.8889 12.9443 34.8889Z" fill="#92E3A9" stroke="black" stroke-width="0.25" stroke-miterlimit="10"/>
<path d="M19.0353 28.3326C19.0386 28.3405 18.922 28.3961 18.7155 28.504C18.5106 28.6136 18.2208 28.7818 17.8877 29.0263C17.5546 29.2692 17.1832 29.5883 16.8001 29.9708C16.4187 30.355 16.0256 30.8011 15.6242 31.2789C14.8214 32.2378 14.0719 33.0871 13.6222 33.7649C13.394 34.1015 13.2274 34.384 13.1192 34.5825C13.0092 34.7809 12.9509 34.892 12.9426 34.8888C12.9393 34.8873 12.9493 34.8571 12.9726 34.8031C12.9959 34.7491 13.0292 34.6666 13.0792 34.565C13.1758 34.3602 13.3324 34.0681 13.5539 33.7252C13.9903 33.0315 14.7348 32.1711 15.5359 31.2122C15.9373 30.7328 16.3354 30.2867 16.7251 29.9026C17.1149 29.52 17.4963 29.2025 17.8394 28.9644C18.1825 28.7263 18.4823 28.5659 18.6938 28.4659C18.7988 28.4151 18.8854 28.385 18.9437 28.3611C19.002 28.3389 19.0336 28.3294 19.0353 28.3326Z" fill="#92E3A9" stroke="black" stroke-width="0.25" stroke-miterlimit="10"/>
<path d="M19.1535 30.4599C19.1552 30.4757 18.8953 30.5059 18.479 30.5535C18.0642 30.6043 17.4846 30.671 16.8783 30.8536C16.2737 31.0409 15.7724 31.3266 15.4459 31.5695C15.1162 31.8124 14.9596 32.014 14.9446 32.0029C14.9396 31.9997 14.9712 31.9442 15.0445 31.8553C15.1162 31.7648 15.2344 31.6441 15.396 31.5124C15.7174 31.2488 16.2238 30.9456 16.845 30.7535C17.4663 30.5662 18.0526 30.5123 18.4723 30.4789C18.892 30.4488 19.1535 30.4456 19.1535 30.4599Z" fill="#92E3A9" stroke="black" stroke-width="0.25" stroke-miterlimit="10"/>
<path d="M15.1428 31.7679C15.1078 31.7488 15.411 31.3059 15.6475 30.7106C15.869 30.1106 15.9206 29.5835 15.9606 29.5883C15.9756 29.5899 15.9739 29.7216 15.949 29.9328C15.9223 30.1439 15.869 30.4376 15.7524 30.7456C15.6342 31.0535 15.4793 31.3123 15.361 31.4917C15.2394 31.6726 15.1545 31.7758 15.1428 31.7679Z" fill="#92E3A9" stroke="black" stroke-width="0.25" stroke-miterlimit="10"/>
<path d="M21.0073 22.6225C21.009 22.6256 20.9707 22.6447 20.8991 22.6764C20.8158 22.7129 20.7108 22.7574 20.5826 22.8145C20.4444 22.8717 20.2745 22.9431 20.0846 23.0384C19.8947 23.132 19.6715 23.2289 19.44 23.3606C19.3218 23.4241 19.2002 23.4908 19.0719 23.5606C18.9437 23.6305 18.8187 23.713 18.6838 23.794C18.4123 23.9512 18.1409 24.1448 17.851 24.3417C17.2831 24.7528 16.6868 25.2386 16.1122 25.799C15.5426 26.3657 15.0529 26.9515 14.6431 27.5055C14.4466 27.7881 14.2534 28.0548 14.0985 28.3183C14.0186 28.4485 13.9369 28.5723 13.867 28.6961C13.7987 28.82 13.7337 28.939 13.6705 29.0533C13.5389 29.2787 13.4456 29.493 13.354 29.6788C13.2607 29.8629 13.1908 30.0264 13.1358 30.1598C13.0825 30.2836 13.0375 30.3852 13.0026 30.4662C12.9709 30.536 12.9526 30.5725 12.9493 30.5709C12.9459 30.5694 12.9576 30.5313 12.9826 30.4598C13.0125 30.3773 13.0509 30.2725 13.0958 30.1455C13.1441 30.009 13.2091 29.8423 13.2974 29.655C13.384 29.4676 13.4739 29.2486 13.6005 29.02C13.6621 28.9041 13.7254 28.7834 13.792 28.6564C13.8587 28.531 13.9403 28.4056 14.0186 28.2739C14.1718 28.0056 14.3633 27.7373 14.5599 27.45C14.9696 26.888 15.4609 26.2959 16.0339 25.7244C16.6135 25.1592 17.2165 24.6703 17.7928 24.2607C18.0859 24.0639 18.3624 23.8718 18.6372 23.7178C18.7738 23.6384 18.902 23.5575 19.0319 23.4876C19.1619 23.4194 19.2868 23.3559 19.405 23.2924C19.6399 23.1638 19.8664 23.0701 20.0613 22.9812C20.2545 22.8907 20.426 22.8241 20.5693 22.7733C20.7008 22.7256 20.8091 22.686 20.8957 22.6542C20.9657 22.6304 21.0057 22.6177 21.0073 22.6225Z" fill="#92E3A9" stroke="black" stroke-width="0.25" stroke-miterlimit="10"/>
<path d="M16.1872 25.7006C16.1772 25.699 16.2305 25.5212 16.452 25.3244C16.6685 25.1291 17.0616 24.9466 17.5196 24.9339C17.976 24.9228 18.3724 25.0434 18.6439 25.1434C18.9154 25.245 19.0736 25.3276 19.0686 25.3403C19.062 25.3546 18.8921 25.2974 18.6172 25.2149C18.3424 25.1355 17.956 25.0291 17.523 25.0402C17.0916 25.0529 16.7185 25.2117 16.5036 25.3815C16.2821 25.5498 16.2055 25.7102 16.1872 25.7006Z" fill="#92E3A9" stroke="black" stroke-width="0.25" stroke-miterlimit="10"/>
<path d="M15.4659 26.4086C15.4359 26.3927 15.7074 26.0118 15.7691 25.4688C15.8407 24.9259 15.6675 24.4957 15.7008 24.4878C15.7124 24.483 15.7741 24.583 15.8257 24.7624C15.879 24.9402 15.914 25.199 15.879 25.4831C15.844 25.7657 15.7474 26.0102 15.6525 26.1721C15.5609 26.3324 15.4776 26.415 15.4659 26.4086Z" fill="#92E3A9" stroke="black" stroke-width="0.25" stroke-miterlimit="10"/>
<path d="M7.61774 35.9413C7.78429 38.7512 8.67205 41.607 10.0378 44.4962H15.9789C17.2814 41.6356 18.1092 38.7829 18.2558 35.9413H7.61774Z" fill="#263238" stroke="#263238" stroke-miterlimit="10" stroke-linecap="round" stroke-linejoin="round"/>
<path d="M17.2931 40.4879C17.2931 40.5164 15.3377 40.5403 12.9243 40.5403C10.5108 40.5403 8.55545 40.5164 8.55545 40.4879C8.55545 40.4593 10.5108 40.4355 12.9243 40.4355C15.336 40.4355 17.2931 40.4593 17.2931 40.4879Z" fill="#FAFAFA" stroke="black" stroke-width="0.5" stroke-miterlimit="10"/>
<path d="M17.1598 41.5055C17.1598 41.5341 15.326 41.5579 13.0642 41.5579C10.8023 41.5579 8.96851 41.5341 8.96851 41.5055C8.96851 41.4769 10.8023 41.4531 13.0642 41.4531C15.326 41.4531 17.1598 41.4769 17.1598 41.5055Z" fill="#FAFAFA" stroke="black" stroke-width="0.5" stroke-miterlimit="10"/>
<path d="M10.1344 37.7861C10.1644 37.7861 10.1894 38.3703 10.1894 39.091C10.1894 39.8117 10.1644 40.3959 10.1344 40.3959C10.1044 40.3959 10.0795 39.8117 10.0795 39.091C10.0778 38.3703 10.1028 37.7861 10.1344 37.7861Z" fill="#FAFAFA" stroke="black" stroke-width="0.5" stroke-miterlimit="10"/>
<path d="M13.3173 37.7861C13.3473 37.7861 13.3723 38.3909 13.3723 39.137C13.3723 39.8831 13.3473 40.488 13.3173 40.488C13.2874 40.488 13.2624 39.8831 13.2624 39.137C13.2607 38.3909 13.2857 37.7861 13.3173 37.7861Z" fill="#FAFAFA" stroke="black" stroke-width="0.5" stroke-miterlimit="10"/>
<path d="M16.3054 37.7638C16.3354 37.7638 16.3603 38.3813 16.3603 39.1417C16.3603 39.9021 16.3354 40.5197 16.3054 40.5197C16.2754 40.5197 16.2504 39.9037 16.2504 39.1417C16.2487 38.3797 16.2737 37.7638 16.3054 37.7638Z" fill="#FAFAFA" stroke="black" stroke-width="0.5" stroke-miterlimit="10"/>
<path d="M18.0675 37.786C18.0675 37.8146 15.774 37.8384 12.9442 37.8384C10.1144 37.8384 7.82092 37.8146 7.82092 37.786C7.82092 37.7575 10.1144 37.7336 12.9442 37.7336C15.7724 37.7336 18.0675 37.7575 18.0675 37.786Z" fill="#FAFAFA" stroke="black" stroke-width="0.5" stroke-miterlimit="10"/>
</svg>
