<svg width="4" height="13" viewBox="0 0 4 13" fill="none" xmlns="http://www.w3.org/2000/svg">
<path d="M2.53909 12.946C2.53485 12.946 2.54334 12.8976 2.55819 12.8085C2.5794 12.7066 2.60273 12.5793 2.63455 12.424C2.70031 12.0905 2.79789 11.6068 2.89759 11.0034C2.99729 10.4026 3.10547 9.68206 3.1776 8.87499C3.24548 8.07048 3.2879 7.17431 3.18608 6.25268C3.07153 5.33359 2.78304 4.49852 2.44576 3.80348C2.10636 3.10589 1.72665 2.53305 1.38089 2.08242C1.03512 1.63179 0.729662 1.29573 0.511172 1.07423C0.294804 0.850189 0.169649 0.733075 0.176013 0.722891C0.178134 0.720345 0.212076 0.745807 0.273592 0.796726C0.335109 0.85019 0.428444 0.924021 0.538749 1.0335C0.765724 1.24481 1.08179 1.57323 1.43816 2.01877C1.79453 2.46431 2.18697 3.03715 2.53485 3.74237C2.88274 4.44505 3.17972 5.29285 3.29639 6.23485C3.40033 7.17685 3.35366 8.08066 3.28154 8.89027C3.20305 9.69988 3.08638 10.4229 2.97607 11.0238C2.86577 11.6246 2.75759 12.1058 2.67698 12.4368C2.63667 12.6023 2.60485 12.7296 2.58152 12.8161C2.55606 12.9027 2.54122 12.946 2.53909 12.946Z" fill="#263238"/>
</svg>
