<svg width="5" height="4" viewBox="0 0 5 4" fill="none" xmlns="http://www.w3.org/2000/svg">
<path d="M0.119537 3.15218C0.562067 3.32799 1.08568 3.43055 1.64644 3.43055C3.49764 3.43055 4.54147 2.46148 4.47729 1.59497C4.67321 1.50706 4.84212 1.40032 4.97387 1.27474C4.79483 1.32288 4.60227 1.35636 4.40297 1.37102C4.60903 1.29567 4.7678 1.17427 4.84211 1.02986C4.64956 1.10102 4.43675 1.15125 4.21041 1.18055C4.028 1.06125 3.77126 0.985901 3.48413 0.985901C2.84229 0.985901 2.36936 1.35846 2.51461 1.74357C1.68698 1.71846 0.950551 1.47148 0.460728 1.09893C0.200615 1.3773 0.325606 1.73939 0.768136 1.92357C0.605987 1.91939 0.450596 1.89218 0.315473 1.84613C0.305338 2.13288 0.63639 2.39869 1.11608 2.45939C0.974199 2.48241 0.822189 2.48869 0.666797 2.46985C0.791786 2.71473 1.15999 2.89264 1.59914 2.89892C1.17688 3.09985 0.649898 3.19194 0.119537 3.15218Z" fill="white"/>
</svg>
