<svg width="1" height="5" viewBox="0 0 1 5" fill="none" xmlns="http://www.w3.org/2000/svg">
<path d="M1 1.23217V1.67261H0.764563V1.20364C0.764563 0.763195 0.685275 0.49572 0.504045 0.49572C0.326051 0.49572 0.243527 0.761412 0.243527 1.20364V3.79458C0.243527 4.23502 0.326051 4.5025 0.504045 4.5025C0.685275 4.5025 0.764563 4.2368 0.764563 3.79458V3.15799H1V3.76783C1 4.50963 0.841424 5 0.498382 5C0.158576 5 0 4.50963 0 3.76783V1.23217C0 0.490371 0.158576 0 0.498382 0C0.841424 0 1 0.490371 1 1.23217Z" fill="#263238"/>
</svg>
