<svg width="1" height="5" viewBox="0 0 1 5" fill="none" xmlns="http://www.w3.org/2000/svg">
<path d="M0.133241 4.04369C0.120091 4.0461 0.0825177 3.82474 0.0487037 3.46142C0.0148897 3.09811 -0.00952967 2.59284 0.00362021 2.03463C0.00925588 1.75553 0.0242827 1.49086 0.0430683 1.25026C0.0618538 1.00965 0.0956703 0.785888 0.168934 0.617464C0.240319 0.44904 0.33988 0.347986 0.413144 0.302271C0.488286 0.256556 0.537129 0.258964 0.537129 0.266182C0.546522 0.283024 0.347394 0.331147 0.230924 0.65837C0.172689 0.814764 0.146391 1.02409 0.133241 1.26229C0.118213 1.50049 0.106939 1.76275 0.101303 2.03945C0.0881531 2.59284 0.101302 3.0933 0.118209 3.4542C0.133238 3.81511 0.146391 4.04129 0.133241 4.04369Z" fill="white"/>
</svg>
