<svg width="9" height="8" viewBox="0 0 9 8" fill="none" xmlns="http://www.w3.org/2000/svg">
<path d="M4.26313 7.224C2.45931 7.224 0.998596 5.8302 0.998596 4.11255C0.998596 2.39331 2.46097 1.0011 4.26313 1.0011C6.06695 1.0011 7.52766 2.3949 7.52766 4.11255C7.52766 5.83178 6.06528 7.224 4.26313 7.224Z" fill="#92E3A9" stroke="#263238" stroke-width="0.5" stroke-miterlimit="10" stroke-linecap="round" stroke-linejoin="round"/>
<path d="M3.76508 5.9937H4.55956V4.09667H5.1142L5.17249 3.46168H4.55956C4.55956 3.46168 4.55956 3.22514 4.55956 3.09973C4.55956 2.95051 4.59121 2.89019 4.74278 2.89019C4.86436 2.89019 5.17249 2.89019 5.17249 2.89019V2.23138C5.17249 2.23138 4.71946 2.23138 4.62286 2.23138C4.03158 2.23138 3.76508 2.47903 3.76508 2.95527C3.76508 3.3696 3.76508 3.46168 3.76508 3.46168H3.35202V4.1046H3.76508V5.9937Z" fill="white" stroke="black" stroke-width="0.25" stroke-miterlimit="10"/>
</svg>
