<svg width="11" height="9" viewBox="0 0 11 9" fill="none" xmlns="http://www.w3.org/2000/svg">
<path d="M4.40525 8.10458C2.23 7.74105 0.774289 5.76623 1.15571 3.69299C1.53712 1.61974 3.6091 0.23229 5.78434 0.595822C7.95959 0.959354 9.4153 2.93417 9.03388 5.00742C8.65246 7.08066 6.58049 8.46652 4.40525 8.10458Z" fill="#92E3A9" stroke="#263238" stroke-width="0.5" stroke-miterlimit="10" stroke-linecap="round" stroke-linejoin="round"/>
<path fill-rule="evenodd" clip-rule="evenodd" d="M7.27339 4.60578C7.44328 3.51677 6.66545 2.48809 5.51121 2.296C4.37029 2.1055 3.28433 2.80241 3.03949 3.86125C3.03283 3.88983 3.02617 3.91999 3.02117 3.94856C2.95122 4.32797 2.99785 4.70103 3.13443 5.03598L2.55481 6.04879L3.79567 5.88846C4.07049 6.098 4.4036 6.24723 4.77503 6.30914C5.94759 6.5044 7.06186 5.76463 7.26506 4.65658C7.26839 4.63911 7.27173 4.62165 7.27339 4.60578ZM4.83332 5.99006C4.47022 5.92973 4.1521 5.77098 3.90393 5.54715L3.18107 5.64081L3.51918 5.05186C3.35595 4.73754 3.29266 4.37559 3.36095 4.00571C3.37094 3.95015 3.38427 3.89618 3.39926 3.84379C3.6441 3.00402 4.52852 2.46269 5.45458 2.61667C6.39063 2.77224 7.03521 3.58821 6.94693 4.46925C6.9436 4.5137 6.93694 4.55815 6.92862 4.6026C6.7554 5.53128 5.81601 6.15357 4.83332 5.99006Z" fill="white" stroke="black" stroke-width="0.25" stroke-miterlimit="10"/>
<path fill-rule="evenodd" clip-rule="evenodd" d="M6.04083 4.86931C5.99253 4.83597 5.75935 4.67405 5.71438 4.65024C5.6694 4.62484 5.63609 4.61214 5.59279 4.655C5.54948 4.69786 5.4279 4.79311 5.39292 4.8201C5.35628 4.84867 5.3263 4.84708 5.278 4.81375C5.23136 4.78041 5.07313 4.70104 4.90491 4.49943C4.77499 4.34386 4.69837 4.16606 4.67839 4.11208C4.6584 4.05811 4.69005 4.03589 4.72003 4.01525C4.74834 3.9962 4.78165 3.96604 4.81497 3.94222C4.82329 3.93429 4.83162 3.92794 4.83828 3.92159C4.85327 3.90571 4.86493 3.88984 4.88159 3.86761C4.90491 3.83745 4.90158 3.80729 4.89325 3.7803C4.88492 3.75332 4.82496 3.49456 4.79998 3.3882C4.77499 3.28342 4.72835 3.29295 4.69837 3.2866C4.66839 3.28183 4.63508 3.27072 4.6001 3.26596C4.56513 3.25961 4.50683 3.26279 4.4502 3.30406C4.39357 3.34533 4.23701 3.44217 4.1937 3.68505C4.18371 3.7422 4.18371 3.80094 4.19037 3.8565C4.21203 4.03906 4.29863 4.20098 4.31362 4.22797C4.33361 4.26448 4.57346 4.8328 5.0648 5.11854C5.55781 5.4027 5.56947 5.33761 5.66774 5.34555C5.76434 5.35349 5.99753 5.27888 6.06082 5.17093C6.12578 5.06298 6.14409 4.96456 6.1341 4.94233C6.12077 4.9217 6.08746 4.90265 6.04083 4.86931Z" fill="white" stroke="black" stroke-width="0.25" stroke-miterlimit="10"/>
</svg>
